<svg width="500" height="500" viewBox="0 0 500 500" fill="none" xmlns="http://www.w3.org/2000/svg">
<g clip-path="url(#clip0_22_248)">
<path fill-rule="evenodd" clip-rule="evenodd" d="M25.3213 306.644C28.9513 309.804 32.9913 313.004 37.4913 316.224C39.8713 317.934 42.1713 319.214 44.2213 320.234C46.2113 321.204 47.9413 321.924 49.2513 322.534C50.7813 323.254 52.2213 322.274 52.1313 320.564C51.8513 314.954 51.8813 309.634 52.1813 304.664V304.644C54.0513 273.854 66.6613 253.214 87.7013 235.284C110.641 215.704 142.971 198.684 200.261 192.494C273.961 184.554 333.201 224.604 301.131 253.594C299.121 255.424 301.501 258.434 303.681 256.804C333.671 234.494 320.301 217.394 305.631 204.134C267.721 169.864 163.621 171.114 88.1313 193.554C19.5713 213.914 -30.2687 254.064 21.2913 302.974C22.6113 304.234 23.9613 305.454 25.3213 306.644ZM78.8513 304.674C72.2713 255.584 123.141 201.074 204.761 200.864C233.301 200.804 265.471 202.894 286.591 227.124C288.391 229.164 285.691 231.874 283.691 230.034C248.131 197.184 151.211 209.464 129.331 244.064C115.061 266.664 119.291 285.554 132.181 302.604C135.301 306.764 139.341 311.184 143.241 315.014C165.331 336.684 199.471 355.224 267.011 374.574C269.321 375.244 269.181 378.184 266.811 378.614C263.451 379.214 258.541 380.354 250.801 380.804C135.811 387.494 84.7213 348.224 78.8613 304.684L78.8513 304.674ZM153.451 304.674C134.271 285.124 129.261 263.834 149.141 245.484C163.731 232.024 183.441 218.644 232.701 221.054C235.441 221.184 235.331 225.204 232.601 225.194C157.981 225.014 135.591 274.884 178.631 300.484C181.081 301.954 183.581 303.354 186.091 304.694H186.131C222.881 324.224 264.191 329.834 305.471 330.504C351.921 331.244 398.871 325.044 462.841 304.624H463.051C463.951 304.294 464.851 303.974 465.741 303.694C466.921 303.314 467.921 303.814 468.291 304.694C468.511 305.254 468.491 305.884 468.251 306.434C467.891 307.364 467.571 308.524 466.931 309.954C466.061 311.884 464.931 313.684 463.571 315.294C413.021 376.104 315.771 375.884 241.031 352.574C204.951 341.304 172.391 323.874 153.511 304.684H153.451V304.674ZM205.061 303.124C201.241 300.944 197.661 298.354 194.371 295.394C179.711 282.134 166.331 265.044 196.321 242.714C198.501 241.094 200.891 244.104 198.871 245.934C175.521 267.034 200.571 294.004 244.361 304.054C246.361 304.504 248.351 304.934 250.361 305.324C266.661 308.274 283.281 308.844 299.741 307.034C306.721 306.284 313.741 305.364 320.671 304.164C365.191 296.414 392.321 281.304 412.301 264.244C436.791 243.374 449.861 218.884 447.881 178.974C447.801 177.274 449.231 176.274 450.751 176.994C452.071 177.614 453.811 178.334 455.791 179.304C457.841 180.314 460.161 181.604 462.531 183.304C535.021 235.314 491.611 279.044 423.281 302.354C419.511 303.634 415.711 304.844 411.891 305.964C344.981 325.854 255.581 329.104 209.721 305.684C208.151 304.854 206.611 303.994 205.081 303.104L205.061 303.124ZM36.4513 184.284C87.0113 123.474 184.251 123.694 258.981 147.004C331.841 169.744 390.291 217.684 350.881 254.064C336.301 267.534 316.581 280.914 267.321 278.524C264.581 278.374 264.691 274.364 267.431 274.384C342.041 274.574 364.441 224.684 321.411 199.094C282.811 176.134 238.681 169.784 194.551 169.094C147.411 168.344 99.7413 174.744 34.2813 195.894C32.4513 196.494 31.0713 194.984 31.7713 193.164C32.1313 192.244 32.4613 191.064 33.0913 189.634C33.7813 188.074 34.7813 186.284 36.4713 184.284H36.4513ZM292.551 298.674C264.691 298.574 233.861 295.874 213.411 272.414C211.631 270.374 214.311 267.654 216.311 269.514C251.871 302.354 348.811 290.084 370.671 255.494C388.491 227.274 377.471 204.834 356.771 184.544C334.671 162.874 300.541 144.334 233.001 124.984C230.701 124.324 230.851 121.374 233.211 120.954C236.561 120.354 241.481 119.204 249.221 118.754C491.931 104.564 449.931 295.284 298.831 298.614C296.721 298.654 294.641 298.654 292.551 298.654V298.674Z" fill="#0C9DFE"/>
</g>
<defs>
<clipPath id="clip0_22_248">
<rect width="500" height="500" fill="white"/>
</clipPath>
</defs>
</svg>
