<svg width="500" height="500" viewBox="0 0 500 500" fill="none" xmlns="http://www.w3.org/2000/svg">
<path d="M0 259.846C0 430.636 0 345.236 0 259.846ZM176.775 142H212.641V193.504C225.576 185 240.711 180.455 256.191 180.425C277.252 180.431 297.449 188.801 312.341 203.694C327.234 218.587 335.602 238.785 335.606 259.846C335.601 280.907 327.231 301.103 312.339 315.995C297.448 330.887 277.251 339.256 256.191 339.262C235.13 339.256 214.934 330.887 200.041 315.995C185.149 301.103 176.781 280.907 176.775 259.846V142ZM89.6644 180.42C110.725 180.426 130.921 188.794 145.814 203.687C160.706 218.579 169.074 238.775 169.08 259.836V339.251H133.225V326.172C120.291 334.676 105.156 339.222 89.6756 339.251C68.6156 339.247 48.4196 330.88 33.5267 315.99C18.6338 301.101 10.2629 280.906 10.2543 259.846C10.2601 238.786 18.6289 218.589 33.5209 203.697C48.413 188.805 68.6094 180.437 89.67 180.431L89.6644 180.42ZM422.706 180.42C440.633 180.446 458.024 186.535 472.053 197.697C486.081 208.86 495.921 224.439 499.973 241.902H462.349C458.226 232.864 451.138 225.508 442.26 221.05C433.383 216.593 423.248 215.305 413.537 217.398C403.826 219.491 395.123 224.841 388.869 232.559C382.616 240.278 379.189 249.902 379.156 259.836C379.194 269.765 382.624 279.383 388.876 287.097C395.129 294.811 403.829 300.157 413.536 302.249C423.243 304.342 433.372 303.056 442.248 298.603C451.124 294.151 458.211 286.8 462.337 277.768H500C495.489 296.651 484.22 313.229 468.321 324.369C452.421 335.51 432.993 340.443 413.704 338.235C394.416 336.028 376.604 326.833 363.633 312.389C350.661 297.944 343.429 279.249 343.301 259.836C343.307 238.775 351.676 218.579 366.567 203.687C381.459 188.794 401.656 180.426 422.716 180.42H422.706ZM89.6644 216.296C78.115 216.299 67.04 220.889 58.8733 229.055C50.7068 237.222 46.1176 248.297 46.1147 259.846C46.1176 271.396 50.7068 282.471 58.8733 290.638C67.04 298.804 78.115 303.393 89.6644 303.396C101.214 303.393 112.289 298.804 120.456 290.638C128.623 282.471 133.211 271.396 133.214 259.846C133.211 248.297 128.623 237.222 120.456 229.055C112.289 220.889 101.214 216.299 89.6644 216.296ZM256.185 216.296C244.636 216.299 233.561 220.889 225.394 229.055C217.228 237.222 212.638 248.297 212.636 259.846C212.638 271.396 217.228 282.471 225.394 290.638C233.561 298.804 244.636 303.393 256.185 303.396C267.734 303.393 278.81 298.804 286.976 290.638C295.143 282.471 299.732 271.396 299.735 259.846C299.732 248.297 295.143 237.222 286.976 229.055C278.81 220.889 267.734 216.299 256.185 216.296Z" fill="#0C9DFE"/>
</svg>
