<svg width="150" height="150" viewBox="0 0 150 150" fill="none" xmlns="http://www.w3.org/2000/svg">
<path d="M119.95 25.8604V116.9C117.49 117.08 115.11 117.25 112.39 117.45V125.14C110.47 125.14 108.89 125.14 107.31 125.14C85.63 125.14 63.96 125.14 42.28 125.14C35.2 125.14 32.82 122.74 32.81 115.63C32.8 88.8203 32.8 62.0203 32.81 35.2104C32.81 28.3804 35.26 25.8804 41.96 25.8804C67.77 25.8604 93.57 25.8804 119.95 25.8804V25.8604ZM107.95 121.22V38.1203H36.73C36.73 64.1604 36.73 89.8104 36.73 115.46C36.73 119.34 38.75 121.22 42.59 121.22C64.26 121.22 85.92 121.22 107.94 121.22H107.95ZM112.22 33.7104C112.22 36.1604 112.22 37.9504 112.22 39.7404C112.22 62.9204 112.21 86.1003 112.23 109.27C112.23 113.26 112.3 113.26 116 112.5V29.8304C90.96 29.8304 66.17 29.7904 41.39 29.9404C39.93 29.9404 38.48 31.5604 37.02 32.4304C37.22 32.8604 37.41 33.2804 37.61 33.7104H112.23H112.22Z" fill="#0C9DFE"/>
<path d="M92.9001 98.7005H52.6601C52.4801 89.7205 60.1301 82.6905 70.9501 81.7305C81.9101 80.7505 90.9001 87.4405 92.9001 98.7005Z" fill="#0C9DFE"/>
<path d="M84.1199 64.6201C84.1899 72.2201 79.2099 78.3101 72.8199 78.4501C66.1099 78.5901 60.8999 72.5901 60.9099 64.7301C60.9099 57.6401 65.6999 52.2701 72.2099 52.0401C78.8099 51.8101 84.0499 57.3501 84.1199 64.6201Z" fill="#0C9DFE"/>
</svg>
