<svg width="150" height="150" viewBox="0 0 150 150" fill="none" xmlns="http://www.w3.org/2000/svg">
<path d="M124.41 80.4301C124.37 106.99 103.1 128.07 76.3799 128.03C49.9699 127.99 28.7399 106.48 28.8299 79.8701C28.9299 53.4601 50.7099 31.8301 76.9199 32.1101C103.44 32.4001 124.44 53.7601 124.4 80.4301H124.41ZM76.7199 122.5C100.07 122.5 119.14 103.66 119.24 80.4601C119.34 57.0701 100.22 37.7401 76.8699 37.6401C53.5299 37.5401 34.0799 56.8101 34.0299 80.0801C33.9799 103.42 53.1699 122.49 76.7199 122.5Z" fill="#0C9DFE"/>
<path d="M97.66 24.8701C116.04 32.7101 127.72 45.8201 133.03 65.1701C131 65.7101 129.18 66.1901 127 66.7601C122.02 49.8201 111.76 37.8501 95.24 30.7501C96.05 28.7901 96.81 26.9201 97.66 24.8801V24.8701Z" fill="#0C9DFE"/>
<path d="M26.1299 67.8596C24.0699 67.4796 22.2199 67.1397 19.9399 66.7197C24.8199 47.1796 36.0999 33.7996 54.2599 25.3896C55.1899 27.4296 55.9899 29.1496 56.9299 31.1996C40.9199 38.6296 30.5699 50.5696 26.1399 67.8596H26.1299Z" fill="#0C9DFE"/>
<path d="M51.78 85.0702V79.6902H75.4V47.9902H81.06V85.0702H51.78Z" fill="#0C9DFE"/>
</svg>
