<svg width="500" height="500" viewBox="0 0 500 500" fill="none" xmlns="http://www.w3.org/2000/svg">
<path d="M248.34 479.951C190.893 479.951 133.405 480.164 75.9588 479.909C15.1255 479.613 -17.9365 426.315 10.0878 372.975C63.0049 272.222 117.022 171.976 169.727 71.0963C187.21 37.6532 211.807 19.915 250.669 20.0003C289.742 20.0848 313.618 38.7113 331.017 72.0699C383.298 172.231 436.85 271.756 489.725 371.621C517.834 424.707 485.576 479.528 425.717 479.909C366.577 480.333 307.48 479.994 248.34 479.994V479.951ZM249.398 455.229C249.398 455.229 249.398 455.017 249.398 454.933C307.691 454.933 366.027 455.948 424.32 454.594C466.272 453.578 485.322 420.219 466.314 384.151C414.033 284.922 361.412 185.862 309.385 86.5054C296.516 61.9098 279.836 45.2305 249.695 45.4004C220.697 45.5694 204.229 61.3596 191.74 85.1937C139.205 185.269 86.2033 285.091 33.5406 385.125C16.1414 418.188 32.4403 449.345 69.5241 454.425C77.7369 455.568 86.1611 455.187 94.4585 455.187C146.105 455.229 197.752 455.187 249.398 455.187V455.229Z" fill="#0C9DFE"/>
<path d="M220.231 185.522C220.57 157.54 231.576 144.586 250.584 145.517C272.428 146.576 281.952 160.122 279.709 180.527C274.164 230.777 267.687 280.941 260.786 331.022C260.109 335.933 253.801 340.081 250.118 344.611C246.773 340.589 241.143 336.906 240.466 332.461C233.016 281.619 226.327 230.649 220.188 185.522H220.231Z" fill="#0C9DFE"/>
<path d="M249.907 364.89C268.025 366.583 279.201 375.219 279.879 394.269C280.513 412.303 267.094 425.765 249.018 424.876C230.221 423.945 220.442 413.149 220.442 394.692C220.442 375.727 231.788 366.794 249.864 364.932L249.907 364.89Z" fill="#0C9DFE"/>
</svg>
