<svg width="500" height="500" viewBox="0 0 500 500" fill="none" xmlns="http://www.w3.org/2000/svg">
<path d="M168.222 0.000710711C165.88 0.0230632 163.449 0.588173 161.234 1.81609C154.201 5.71554 151.621 14.7558 155.517 21.7852L171.398 50.4681C133.137 74.1469 107.784 114.592 107.784 160.752C107.784 160.946 107.783 161.237 107.784 161.524C107.784 161.625 107.783 161.682 107.784 161.796C107.784 161.947 107.784 162.167 107.784 162.205V169.33C100.436 160.873 89.6338 155.533 77.565 155.533C55.4543 155.533 37.5 173.491 37.5 195.607V319.053C37.5 341.168 55.4543 359.127 77.565 359.127C89.6338 359.127 100.436 353.787 107.784 345.33V362.622C107.784 385.934 126.856 405.01 150.163 405.01H160.916V459.926C160.916 482.041 178.871 500 200.982 500C223.092 500 241.046 482.041 241.046 459.926V405.01H259.65V459.926C259.65 482.041 277.604 500 299.715 500C321.825 500 339.78 482.041 339.78 459.926V405.01H350.533C373.84 405.01 392.912 385.934 392.912 362.622V345.33C400.26 353.787 411.062 359.127 423.131 359.127C445.242 359.127 463.196 341.168 463.196 319.053V195.607C463.196 173.491 445.242 155.533 423.131 155.533C411.062 155.533 400.26 160.873 392.912 169.33V162.341V162.205C392.914 161.986 392.913 161.769 392.912 161.796C392.915 161.36 392.912 161.014 392.912 160.752C392.912 114.599 367.502 74.1942 329.253 50.5135L345.179 21.7851C349.075 14.7558 346.495 5.71549 339.462 1.81605C337.247 0.588127 334.817 0.0230481 332.475 0.000665554C327.281 -0.0490525 322.183 2.68877 319.498 7.53445L302.845 37.6243C286.563 31.6142 268.846 28.3205 250.348 28.3205C231.869 28.3205 214.12 31.5805 197.851 37.5789L181.198 7.53445C178.514 2.68875 173.415 -0.0488946 168.222 0.000710711Z" fill="white"/>
<path d="M77.5655 165.971C61.0657 165.971 47.9365 179.103 47.9365 195.607V319.053C47.9365 335.556 61.0657 348.689 77.5655 348.689C94.0655 348.689 107.195 335.556 107.195 319.053V195.607C107.195 179.103 94.0655 165.971 77.5655 165.971ZM423.132 165.971C406.632 165.971 393.503 179.103 393.503 195.607V319.053C393.503 335.556 406.632 348.689 423.132 348.689C439.632 348.689 452.761 335.556 452.761 319.053V195.607C452.761 179.103 439.632 165.971 423.132 165.971Z" fill="#0C9DFE"/>
<path d="M200.982 306.844C184.482 306.844 171.353 319.976 171.353 336.48V459.926C171.353 476.429 184.482 489.561 200.982 489.561C217.482 489.561 230.611 476.429 230.611 459.926V336.48C230.611 319.976 217.482 306.844 200.982 306.844ZM299.715 306.844C283.215 306.844 270.086 319.976 270.086 336.48V459.926C270.086 476.429 283.215 489.561 299.715 489.561C316.215 489.561 329.344 476.429 329.344 459.926V336.48C329.344 319.976 316.215 306.844 299.715 306.844Z" fill="#0C9DFE"/>
<path d="M168.312 10.4387C167.612 10.4459 166.959 10.6267 166.316 10.9833C164.203 12.1547 163.509 14.5831 164.683 16.7017L185.554 54.4162C145.397 75.3155 118.274 115.033 118.22 160.616H382.476C382.422 115.033 355.298 75.3155 315.141 54.4162L336.014 16.7017C337.188 14.5831 336.493 12.1547 334.38 10.9833C333.737 10.6267 333.084 10.4454 332.384 10.4387C330.884 10.4243 329.463 11.1736 328.663 12.6172L307.519 50.74C290.222 43.066 270.821 38.7586 250.348 38.7586C229.875 38.7586 210.474 43.066 193.177 50.74L172.033 12.6172C171.233 11.1736 169.811 10.4243 168.312 10.4387ZM118.22 171.054V362.621C118.22 380.322 132.466 394.571 150.163 394.571H350.533C368.23 394.571 382.476 380.322 382.476 362.621V171.054H118.22Z" fill="#0C9DFE"/>
<path d="M189.366 90.1802C183.333 90.1802 178.34 95.1745 178.34 101.208C178.34 107.242 183.333 112.236 189.366 112.236C195.398 112.236 200.391 107.242 200.391 101.208C200.391 95.1745 195.398 90.1802 189.366 90.1802ZM311.33 90.1802C305.298 90.1802 300.304 95.1745 300.304 101.208C300.304 107.242 305.298 112.236 311.33 112.236C317.362 112.236 322.356 107.242 322.356 101.208C322.356 95.1745 317.362 90.1802 311.33 90.1802Z" fill="white"/>
</svg>
