<svg width="568" height="668" viewBox="0 0 568 668" fill="none" xmlns="http://www.w3.org/2000/svg">
<path d="M173.926 1.90524C170.81 1.93498 167.575 2.68686 164.629 4.32061C155.271 9.50884 151.839 21.5369 157.022 30.8896L178.152 69.0523C127.246 100.557 93.5129 154.369 93.5129 215.785C93.5129 216.043 93.5122 216.431 93.5129 216.812C93.5132 216.947 93.5117 217.023 93.5129 217.174C93.513 217.375 93.5129 217.668 93.5129 217.718V227.198C83.7361 215.946 69.3642 208.841 53.3066 208.841C23.8883 208.841 0 232.735 0 262.16V426.405C0 455.83 23.8883 479.724 53.3066 479.724C69.3642 479.724 83.7361 472.619 93.5129 461.367V484.374C93.5129 515.391 118.888 540.772 149.898 540.772H164.206V613.837C164.206 643.262 188.094 667.156 217.513 667.156C246.931 667.156 270.819 643.262 270.819 613.837V540.772H295.571V613.837C295.571 643.262 319.459 667.156 348.878 667.156C378.296 667.156 402.184 643.262 402.184 613.837V540.772H416.492C447.502 540.772 472.877 515.391 472.877 484.374V461.367C482.654 472.619 497.026 479.724 513.084 479.724C542.502 479.724 566.39 455.83 566.39 426.405V262.16C566.39 232.735 542.502 208.841 513.084 208.841C497.026 208.841 482.654 215.946 472.877 227.198V217.899V217.718C472.879 217.427 472.878 217.138 472.877 217.174C472.881 216.595 472.877 216.134 472.877 215.785C472.877 154.379 439.069 100.62 388.178 69.1127L409.368 30.8895C414.551 21.5369 411.119 9.50878 401.762 4.32055C398.815 2.6868 395.581 1.93496 392.465 1.90518C385.554 1.83903 378.772 5.48171 375.199 11.9289L353.043 51.9636C331.379 43.9671 307.807 39.5848 283.195 39.5848C258.608 39.5848 234.993 43.9223 213.347 51.9032L191.191 11.9289C187.619 5.48169 180.836 1.83924 173.926 1.90524Z" fill="#0C9DFE"/>
<path d="M53.3077 222.729C31.3546 222.729 13.8862 240.202 13.8862 262.16V426.405C13.8862 448.363 31.3546 465.836 53.3077 465.836C75.2609 465.836 92.7293 448.363 92.7293 426.405V262.16C92.7293 240.202 75.2609 222.729 53.3077 222.729ZM513.085 222.729C491.132 222.729 473.663 240.202 473.663 262.16V426.405C473.663 448.363 491.132 465.836 513.085 465.836C535.038 465.836 552.506 448.363 552.506 426.405V262.16C552.506 240.202 535.038 222.729 513.085 222.729Z" fill="#0C9DFE"/>
<path d="M217.513 410.161C195.56 410.161 178.091 427.634 178.091 449.592V613.837C178.091 635.795 195.56 653.267 217.513 653.267C239.466 653.267 256.934 635.795 256.934 613.837V449.592C256.934 427.634 239.466 410.161 217.513 410.161ZM348.878 410.161C326.924 410.161 309.456 427.634 309.456 449.592V613.837C309.456 635.795 326.924 653.267 348.878 653.267C370.831 653.267 388.299 635.795 388.299 613.837V449.592C388.299 427.634 370.831 410.161 348.878 410.161Z" fill="#0C9DFE"/>
<path d="M174.046 15.7932C173.114 15.8028 172.246 16.0433 171.39 16.5178C168.579 18.0764 167.655 21.3074 169.217 24.1262L196.987 74.3054C143.558 102.112 107.47 154.956 107.398 215.604H458.992C458.92 154.956 422.832 102.112 369.403 74.3054L397.174 24.1262C398.736 21.3074 397.811 18.0764 395 16.5178C394.144 16.0433 393.276 15.8021 392.344 15.7932C390.349 15.774 388.458 16.771 387.394 18.6917L359.261 69.4143C336.248 59.2039 310.435 53.4729 283.195 53.4729C255.956 53.4729 230.142 59.2039 207.129 69.4143L178.997 18.6917C177.932 16.771 176.041 15.7741 174.046 15.7932ZM107.398 229.492V484.373C107.398 507.924 126.353 526.883 149.898 526.883H416.492C440.037 526.883 458.992 507.924 458.992 484.373V229.492H107.398Z" fill="#0C9DFE"/>
<path d="M202.058 121.889C194.031 121.889 187.388 128.534 187.388 136.562C187.388 144.59 194.031 151.235 202.058 151.235C210.084 151.235 216.727 144.59 216.727 136.562C216.727 128.534 210.084 121.889 202.058 121.889ZM364.332 121.889C356.306 121.889 349.662 128.534 349.662 136.562C349.662 144.59 356.306 151.235 364.332 151.235C372.358 151.235 379.002 144.59 379.002 136.562C379.002 128.534 372.358 121.889 364.332 121.889Z" fill="#0C9DFE"/>
</svg>
