<svg width="57" height="95" viewBox="0 0 57 95" fill="none" xmlns="http://www.w3.org/2000/svg">
<g clip-path="url(#clip0_17_877)">
<path d="M0 79.68C3.19 73.98 8.11 71.48 14.53 71.63C18.25 71.72 21.97 71.65 26.23 71.65V0C44.21 0.02 57.53 11.34 56.69 26.16C48.16 25.11 39.65 24.07 30.5 22.95C30.5 25.39 30.5 27.48 30.5 29.57C30.5 45.56 30.5 61.54 30.5 77.53C30.5 87.61 27.74 92.89 20.77 94.08C11.99 95.58 4.44 95.13 0 85.63V79.69V79.68ZM25.26 76.42C20.14 76.81 15.1 76.74 10.31 77.81C8.46 78.22 5.94 81.24 5.97 83.04C6 84.93 8.36 87.72 10.33 88.47C19.64 92.02 25.03 88.01 25.27 76.43L25.26 76.42ZM31.75 6.17V17.57C37.95 18.37 44.04 19.15 51.07 20.05C47.35 10.6 39.74 8.51 31.75 6.17Z" fill="#0C9DFE"/>
</g>
<defs>
<clipPath id="clip0_17_877">
<rect width="57" height="95" fill="white"/>
</clipPath>
</defs>
</svg>
