<svg width="69" height="69" viewBox="0 0 69 69" fill="none" xmlns="http://www.w3.org/2000/svg">
<g clip-path="url(#clip0_17_879)">
<path d="M34.9502 0.630115C53.7502 1.02011 68.9202 15.6001 68.7102 35.1601C68.5102 53.5201 53.6002 68.6901 34.2602 68.4901C16.3302 68.3101 0.620149 53.5201 0.890149 34.1001C1.15015 15.7601 15.8802 0.790117 34.9502 0.620117V0.630115ZM55.3202 11.7701C48.1702 5.31011 40.0102 2.75011 31.0202 4.03011C17.3402 5.97012 8.42015 14.0401 4.83015 27.3001C2.07015 37.5101 4.81015 46.7601 11.8602 55.2201C26.4702 40.7401 40.7902 26.4001 55.3202 11.7701ZM14.8402 57.6201C18.0802 62.1401 30.5902 67.6501 42.0702 64.6301C53.2802 61.6701 63.1802 52.8501 65.3102 39.1201C66.7502 29.8401 64.1902 21.4701 58.0102 14.4801C43.5002 28.9801 29.2402 43.2301 14.8402 57.6301V57.6201Z" fill="#0C9DFE"/>
</g>
<defs>
<clipPath id="clip0_17_879">
<rect width="69" height="69" fill="white"/>
</clipPath>
</defs>
</svg>
