<svg width="500" height="500" viewBox="0 0 500 500" fill="none" xmlns="http://www.w3.org/2000/svg">
<path d="M358.737 388.15C358.737 415.596 359.572 442.207 358.458 468.678C357.761 485.745 342.436 499.399 324.672 499.608C275.422 500.095 226.171 500.165 176.851 499.608C156.789 499.399 140.976 482.471 140.767 462.687C140.488 438.376 140.697 414.064 140.697 388.15H358.737Z" fill="#EB5445"/>
<path d="M359.015 374.916H335.26C335.26 368.368 335.26 362.308 335.26 356.247C335.26 270.912 335.26 185.577 335.26 100.243C335.26 77.8117 332.543 75.0253 310.321 74.9556C269.709 74.8163 229.097 74.8163 188.484 74.9556C167.168 74.9556 164.521 77.6724 164.451 99.337C164.381 184.115 164.451 268.822 164.451 353.6C164.451 359.939 164.451 366.278 164.451 374.011H140C140 368.647 140 363.004 140 357.431C140 268.613 140 179.796 140 90.9777C140 63.5312 151.006 52.5944 178.105 49.8776C183.956 49.3203 191.758 43.7474 194.196 38.3835C205.272 14.4201 223.593 0.0699291 249.298 0.000267988C274.237 -0.0693931 293.463 13.4449 303.355 36.9206C307.605 47.0215 313.038 50.5742 324.045 50.6439C345.849 50.7832 359.781 65.0637 359.85 86.5193C360.059 179.378 359.92 272.236 359.85 365.164C359.85 367.95 359.363 370.737 359.015 374.986V374.916ZM219.553 49.181H278.765C275.003 31.9747 262.604 26.6108 249.298 26.5411C236.132 26.5411 223.663 31.7657 219.553 49.181Z" fill="#0C9DFE"/>
</svg>
