<svg width="32" height="73" viewBox="0 0 32 73" fill="none" xmlns="http://www.w3.org/2000/svg">
<g clip-path="url(#clip0_17_881)">
<path d="M0.0102539 39.7599C0.0102539 30.8499 0.0102539 21.9399 0.0102539 13.0199C0.0102539 9.47992 1.68025 7.54992 5.20025 7.38992C6.73025 7.31992 7.39025 6.62992 7.94025 5.38992C9.42025 2.01992 12.0902 0.169922 15.7102 0.169922C19.2202 0.169922 21.8802 1.94992 23.3402 5.18992C23.9902 6.63992 24.7702 7.33992 26.4702 7.42992C29.8902 7.59992 31.5602 9.50992 31.5602 12.9099C31.5802 30.8199 31.5802 48.7299 31.5602 66.6299C31.5602 69.8399 29.5402 71.9999 26.3402 72.0299C19.2602 72.1099 12.1802 72.1099 5.10025 72.0299C2.02025 71.9999 0.0302541 69.8399 0.0202541 66.7499C0.000254101 57.7499 0.0202541 48.7599 0.0202541 39.7599H0.0102539ZM28.0302 39.8499C28.0302 31.2699 27.9902 22.6999 28.0502 14.1199C28.0702 11.9199 27.2702 10.9199 24.9902 10.9499C18.8302 11.0199 12.6702 11.0099 6.51025 10.9499C4.38025 10.9299 3.50025 11.7999 3.51025 13.9199C3.54025 31.0699 3.54025 48.2199 3.51025 65.3699C3.51025 67.5899 4.45025 68.5099 6.67025 68.4799C12.6602 68.4099 18.6602 68.4699 24.6502 68.4499C27.4302 68.4499 28.0202 67.8499 28.0202 65.0799C28.0402 56.6699 28.0202 48.2599 28.0202 39.8499H28.0302ZM19.6902 7.09992C19.4602 4.90992 17.7502 4.23992 16.1502 4.02992C14.0702 3.73992 12.4102 4.74992 11.4202 7.09992H19.6902Z" fill="#0C9DFE"/>
<path d="M16.44 39.7803H23.29C20.53 43.4503 18.1 46.6903 15.66 49.9303C15.44 49.8603 15.22 49.7903 15 49.7203C15.36 47.4703 15.72 45.2103 16.12 42.6503H8.77002C11.68 38.7603 14.2 35.3903 16.72 32.0303C16.93 32.0903 17.14 32.1503 17.34 32.2003C17.05 34.5803 16.77 36.9703 16.43 39.7703L16.44 39.7803Z" fill="#0C9DFE"/>
</g>
<defs>
<clipPath id="clip0_17_881">
<rect width="32" height="73" fill="white"/>
</clipPath>
</defs>
</svg>
