<svg width="500" height="500" viewBox="0 0 500 500" fill="none" xmlns="http://www.w3.org/2000/svg">
<path d="M140.895 273.357C140.895 212.31 140.895 151.193 140.895 90.1453C140.895 66.4241 154.011 51.7029 177.384 50.5866C187.71 50.0983 192.803 46.261 196.57 36.7725C205.919 13.4698 225.106 0.35337 248.897 0.00452826C272.827 -0.274545 292.362 12.3535 301.851 35.726C305.897 45.6331 310.781 50.168 322.014 50.6564C347.41 51.7029 359.27 65.0287 359.34 90.9128C359.41 213.635 359.41 336.358 359.34 459.081C359.34 483.5 343.921 499.477 319.432 499.686C272.897 500.105 226.361 500.105 179.896 499.686C156.593 499.477 140.965 483.221 140.895 459.988C140.755 397.754 140.895 335.521 140.895 273.287V273.357ZM336.595 275.381C336.595 214.891 336.386 154.472 336.735 93.9826C336.805 79.0522 330.944 73.1218 316.014 73.2614C272.409 73.7498 228.803 73.8195 185.268 73.2614C169.64 73.0521 163.5 78.7033 163.57 94.6803C163.988 214.473 163.919 334.195 163.57 453.988C163.57 470.104 169.012 477.29 185.826 477.081C228.245 476.453 270.664 476.942 313.084 476.802C333.037 476.802 336.456 473.314 336.456 453.36C336.595 394.057 336.456 334.753 336.456 275.45L336.595 275.381ZM219.315 48.4238H280.502C275.409 29.5863 262.641 22.3304 247.711 23.1676C234.664 23.8653 222.524 30.7724 219.315 48.4238Z" fill="#75F95C"/>
<path d="M336.596 275.383C336.596 334.686 336.666 393.99 336.596 453.293C336.596 473.316 333.177 476.665 313.223 476.735C270.804 476.874 228.385 476.316 185.966 477.014C169.082 477.293 163.64 470.107 163.71 453.921C164.058 334.128 164.058 214.406 163.71 94.6132C163.71 78.6362 169.849 72.985 185.408 73.1943C229.013 73.7524 272.618 73.6827 316.154 73.1943C331.084 73.0548 336.945 78.9851 336.875 93.9155C336.456 154.405 336.735 214.824 336.735 275.313L336.596 275.383Z" fill="#75F95C"/>
</svg>
