<svg width="500" height="500" viewBox="0 0 500 500" fill="none" xmlns="http://www.w3.org/2000/svg">
<path d="M52.6118 159.897C52.0975 159.897 52.0975 160.158 51.8436 160.412C29.5326 191.557 16.4534 212.234 2.59933 237.768L1.06289 240.573L0.802473 241.596C-0.480066 244.154 -0.226163 246.954 1.57069 249.252C9.77373 262.019 55.6847 277.077 158.021 277.077C234.452 277.077 315.754 264.825 315.754 241.849C315.754 220.144 235.735 207.13 158.021 207.13C132.116 207.13 106.726 210.45 99.5449 211.726C106.472 201.004 135.71 161.935 135.71 161.688C136.053 161.349 136.224 161.093 136.224 160.919V160.412C135.71 160.158 135.456 159.897 134.942 159.897H52.6183H52.6118ZM82.3641 241.849C82.3641 237.253 111.348 230.619 158.027 230.619C204.707 230.619 233.43 237.253 233.43 241.849C233.43 246.954 204.707 253.34 158.027 253.34C111.348 253.34 82.3641 246.96 82.3641 241.849Z" fill="#0C9DFE"/>
<path d="M110.775 357.356C123.848 357.617 491.676 370.448 499.879 239.76C506.533 131.655 235.859 141.929 235.859 141.929C235.351 141.929 233.554 141.929 233.554 143.211C233.554 144.754 234.322 145.015 235.351 145.015C310.448 145.015 432.465 175.053 428.617 239.76C425.538 292.142 330.187 353.762 110.775 353.762C109.753 353.762 108.725 354.791 108.725 355.559C108.725 356.334 109.493 357.102 110.775 357.356Z" fill="#0C9DFE"/>
</svg>
