<svg width="500" height="500" viewBox="0 0 500 500" fill="none" xmlns="http://www.w3.org/2000/svg">
<path d="M81.667 294.184C131.176 228.768 180.967 163.588 230.006 97.8415C253.96 65.7461 276.597 32.6609 299.846 0C301.399 0 302.952 0 304.505 0C295.893 67.6313 287.233 135.31 278.386 204.779H417.5C342.201 305.872 269.867 402.96 197.58 500C196.216 499.529 194.804 499.01 193.439 498.539C205.157 432.887 216.829 367.235 229.018 298.897H81.667C81.667 297.342 81.667 295.787 81.667 294.231V294.184ZM249.207 228.297C255.278 182.958 260.973 140.07 267.655 90.2064C219.888 154.444 176.073 213.451 128.87 276.982H258.384C251.325 317.655 244.689 356.066 238.006 394.524C239.701 395.23 241.395 395.89 243.089 396.597C283.845 341.927 324.553 287.256 368.462 228.344H249.207V228.297Z" fill="#0C9DFE"/>
</svg>
