<svg width="107" height="107" viewBox="0 0 107 107" fill="none" xmlns="http://www.w3.org/2000/svg">
<path d="M74.4602 59.9804C74.4602 71.8304 64.9002 81.3604 53.1002 81.3204C41.0002 81.2804 31.5402 71.0904 31.8702 59.6404C32.2102 47.8904 41.3202 38.6004 53.2002 38.6104C65.0402 38.6104 74.4702 48.0904 74.4702 59.9904L74.4602 59.9804ZM35.5202 59.9804C35.5202 69.6604 43.3302 77.5204 53.0302 77.6204C62.7002 77.7204 70.8702 69.6204 70.8602 59.9304C70.8602 50.3604 62.8002 42.2904 53.2302 42.2604C43.4502 42.2304 35.5102 50.1704 35.5102 59.9704L35.5202 59.9804Z" fill="#0C9DFE"/>
<path d="M72.1199 42.32C71.6399 41.79 71.1199 41.22 70.6099 40.67C74.5899 36.71 78.3799 32.93 82.3599 28.96C82.8799 29.43 83.4499 29.95 84.0799 30.52C80.0899 34.46 76.2499 38.25 72.1299 42.32H72.1199Z" fill="#0C9DFE"/>
<path d="M23.7399 90.6506C23.2499 90.1206 22.7099 89.5406 22.1699 88.9706C26.1299 85.0606 29.9499 81.2905 33.9899 77.3105C34.4599 77.7405 35.0899 78.3006 35.7599 78.9006C31.7199 82.8506 27.8699 86.6206 23.7399 90.6606V90.6506Z" fill="#0C9DFE"/>
<path d="M27.38 58.7002V61.2702H10.72C10.65 60.4502 10.58 59.6702 10.5 58.7002H27.39H27.38Z" fill="#0C9DFE"/>
<path d="M51.9199 85.6201H54.3899V102.39H51.9199V85.6201Z" fill="#0C9DFE"/>
<path d="M54.3499 34.2904H51.9399V17.5504C52.7199 17.5204 53.4499 17.4804 54.3499 17.4404V34.2904Z" fill="#0C9DFE"/>
<path d="M95.4999 58.6709V61.2509H78.8399C78.7899 60.3909 78.7399 59.6109 78.6899 58.6709H95.5099H95.4999Z" fill="#0C9DFE"/>
<path d="M35.5999 40.9109C35.1799 41.2909 34.5999 41.8109 33.9599 42.4009C30.0699 38.3709 26.2899 34.4609 22.3599 30.3809C22.7399 30.0309 23.3199 29.5009 23.9999 28.8809C27.8499 32.8709 31.5699 36.7309 35.6099 40.9109H35.5999Z" fill="#0C9DFE"/>
<path d="M84.1098 88.8909C83.5198 89.5509 82.9999 90.1409 82.4099 90.8009C78.5199 86.7909 74.7998 82.9609 70.8398 78.8809C71.1498 78.4909 71.6798 77.8409 72.2598 77.1309C76.2998 81.1409 80.1398 84.9609 84.1098 88.9009V88.8909Z" fill="#0C9DFE"/>
<path d="M52.9401 44.4802V75.4502C44.4101 75.9702 37.5201 68.8902 37.3301 59.9302C37.1401 50.5202 46.0201 43.4702 52.9401 44.4802Z" fill="#0C9DFE"/>
</svg>
