<svg width="500" height="500" viewBox="0 0 500 500" fill="none" xmlns="http://www.w3.org/2000/svg">
<g clip-path="url(#clip0_19_3730)">
<path d="M376.191 250.382C376.191 320.129 319.962 376.221 250.559 375.986C179.39 375.75 123.75 315.774 125.691 248.381C127.691 179.223 181.273 124.544 251.147 124.602C320.786 124.602 376.25 180.4 376.25 250.441L376.191 250.382ZM147.159 250.382C147.159 307.357 193.095 353.619 250.147 354.208C307.022 354.797 355.076 307.122 355.017 250.088C355.017 193.761 307.611 146.262 251.323 146.086C193.801 145.909 147.1 192.642 147.1 250.323L147.159 250.382Z" fill="#0C9DFE"/>
<path d="M362.428 146.439C359.605 143.32 356.547 139.965 353.547 136.727C376.956 113.42 399.247 91.1712 422.656 67.8046C425.715 70.5709 429.067 73.6315 432.773 76.9864C409.305 100.177 386.719 122.484 362.487 146.439H362.428Z" fill="#0C9DFE"/>
<path d="M77.8729 430.9C74.9909 427.781 71.8148 424.367 68.6387 421.012C91.93 397.999 114.398 375.809 138.16 352.384C140.924 354.915 144.63 358.211 148.57 361.742C124.809 384.991 102.164 407.181 77.8729 430.959V430.9Z" fill="#0C9DFE"/>
<path d="M99.2824 242.849V257.975H1.29397C0.882251 253.149 0.470533 248.558 0 242.849H99.3412H99.2824Z" fill="#0C9DFE"/>
<path d="M243.618 401.295H258.146V500H243.618V401.295Z" fill="#0C9DFE"/>
<path d="M257.911 99.176H243.736V0.647432C248.324 0.470857 252.618 0.235433 257.911 0V99.176Z" fill="#0C9DFE"/>
<path d="M499.941 242.672V257.857H401.953C401.658 252.796 401.364 248.205 401.07 242.672H500H499.941Z" fill="#0C9DFE"/>
<path d="M147.63 138.14C145.16 140.377 141.748 143.437 137.984 146.91C115.104 123.19 92.8718 100.176 69.7568 76.1623C71.9919 74.1023 75.4032 70.9828 79.4028 67.3336C102.047 90.818 123.927 113.537 147.689 138.14H147.63Z" fill="#0C9DFE"/>
<path d="M432.949 420.541C429.479 424.426 426.42 427.898 422.95 431.783C400.071 408.181 378.191 385.638 354.899 361.624C356.723 359.329 359.84 355.503 363.251 351.324C387.013 374.926 409.599 397.41 432.949 420.6V420.541Z" fill="#0C9DFE"/>
<path d="M249.617 159.152V341.436C199.447 344.497 158.922 302.825 157.805 250.088C156.687 194.703 208.916 153.208 249.617 159.152Z" fill="#0C9DFE"/>
</g>
<defs>
<clipPath id="clip0_19_3730">
<rect width="500" height="500" fill="white"/>
</clipPath>
</defs>
</svg>
