<svg width="91" height="91" viewBox="0 0 91 91" fill="none" xmlns="http://www.w3.org/2000/svg">
<g clip-path="url(#clip0_17_938)">
<path d="M0 91C0.51 82.89 1.23 75.21 5.83 68.82C8.37 65.29 12.49 63.88 17.08 64.78C17.86 64.93 18.72 64.63 19.55 64.53C19.27 63.76 19.19 62.81 18.67 62.27C17.51 61.06 18.04 60.27 18.99 59.38C24.83 53.94 30.63 48.46 36.49 43.04C43.63 36.41 50.82 29.83 57.97 23.21C66.28 15.52 74.58 7.81 83 0C85.44 2.45 87.96 4.89 90.34 7.46C90.65 7.8 90.5 9.05 90.11 9.48C86.87 13.06 83.5 16.52 80.21 20.06C70.27 30.72 60.36 41.41 50.41 52.07C44.02 58.92 37.54 65.69 31.2 72.59C29.65 74.28 28.63 74.35 27.43 72.39C27.17 71.96 26.56 71.75 25.82 71.23C25.73 72.17 25.53 72.8 25.63 73.39C26.86 80.49 23.68 84.94 17.37 87.81C11.95 90.28 6.24 90.57 0 90.99V91ZM77.84 13.96C77.66 13.81 77.49 13.67 77.31 13.52C69.35 20.82 61.37 28.1 53.45 35.44C44.73 43.53 36.05 51.67 27.4 59.83C26.94 60.26 26.52 61.39 26.75 61.76C27.54 62.99 28.63 64.02 29.78 65.32C45.91 48.08 61.88 31.02 77.84 13.96ZM6.45 84.56C10.57 84.11 14 83.29 17.02 81.24C17.88 80.65 18.65 79.84 19.25 78.97C20.71 76.85 20.01 72.98 18 71.49C15.61 69.72 12.55 70.02 10.69 72.41C8.01 75.84 7.34 79.99 6.46 84.55L6.45 84.56Z" fill="#0C9DFE"/>
</g>
<defs>
<clipPath id="clip0_17_938">
<rect width="91" height="91" fill="white"/>
</clipPath>
</defs>
</svg>
