<svg width="186" height="176" viewBox="0 0 186 176" fill="none" xmlns="http://www.w3.org/2000/svg">
<path d="M156.84 141.37H64.1699V48.3496H156.84V141.37ZM152.02 136.39V73.5696H68.8099V136.39H152.02ZM68.7899 68.3396H152.06V53.1496H68.7899V68.3396Z" fill="#0C9DFE"/>
<path d="M122.77 82.8097C128.59 82.4097 132.3 86.0697 133.36 91.7997C134.9 100.2 135.16 108.68 132.85 117.01C130.38 125.9 120.02 127.13 114.95 121.95C113.33 120.3 111.96 117.83 111.66 115.58C110.93 110.09 110.58 104.5 110.7 98.9697C110.77 95.5797 111.52 92.0197 112.82 88.8997C114.6 84.5997 117.17 82.4997 122.77 82.7997V82.8097ZM120.07 87.1097C117.52 88.8697 116.59 91.6397 116.43 94.5597C116.16 99.5397 115.96 104.54 116.21 109.51C116.35 112.42 117.03 115.45 118.16 118.13C119.41 121.1 122.06 121.59 124.93 120.12C128.21 118.44 128.52 115.03 128.76 112.17C129.22 106.55 129.33 100.83 128.76 95.2297C128.21 89.7797 126.53 85.6997 120.07 87.1097Z" fill="#0C9DFE"/>
<path d="M93.1399 92.8793H85.4199V89.0793C90.0999 89.3693 93.7599 88.1293 94.8199 83.2393H98.6799V123.809H93.1399V92.8793Z" fill="#0C9DFE"/>
</svg>
