<svg width="144" height="148" viewBox="0 0 144 148" fill="none" xmlns="http://www.w3.org/2000/svg">
<path d="M22 28.4606V22.9006C26.12 22.9006 30.16 22.8206 34.19 22.9906C34.75 23.0106 35.49 24.1306 35.76 24.8706C37.79 30.3906 37.76 30.4006 43.5 30.4006C67.41 30.4006 91.32 30.4006 115.24 30.4006C116.21 30.4006 117.19 30.4006 118.32 30.4006C118.37 31.4606 118.44 32.2706 118.44 33.0806C118.44 45.0406 118.38 57.0005 118.5 68.9505C118.52 71.3405 117.72 71.9706 115.43 72.2206C106.2 73.2006 97.01 74.4506 87.8 75.5406C83.7 76.0306 79.57 76.3206 75.47 76.8206C67.69 77.7606 59.89 78.5905 52.16 79.8405C46.09 80.8205 41.34 84.9706 38.85 90.8506H118.23V96.4806H32.79C31.27 89.9806 35.16 81.8206 41.66 77.8906C42.63 77.3106 43.61 76.6506 44.67 76.3506C46.97 75.6806 46.76 74.1406 46.18 72.4906C41.65 59.5506 37.12 46.6206 32.54 33.7106C30.68 28.4606 30.63 28.4806 25.2 28.4706C24.22 28.4706 23.23 28.4706 22 28.4706V28.4606ZM39.62 36.1606C40.09 37.3106 40.45 38.1006 40.74 38.9106C44.53 49.7206 48.37 60.5105 52.02 71.3805C52.63 73.2005 53.39 73.4306 55.04 73.2406C64.5 72.1506 73.98 71.1605 83.45 70.1305C86.57 69.7905 89.69 69.4205 92.81 69.0205C97.22 68.4605 101.63 67.8706 106.05 67.2906C108.22 67.0106 110.4 66.7306 112.5 66.4606V36.1606H39.62Z" fill="#0C9DFE"/>
<path d="M116.81 104.97C116.83 108.2 114.53 110.59 111.34 110.67C107.91 110.76 105.23 108.05 105.32 104.82C105.41 101.48 107.63 99.2301 111.21 99.1401C114.59 99.0501 116.79 101.45 116.81 104.97Z" fill="#0C9DFE"/>
<path d="M39.3899 110.67C36.1999 110.73 33.4599 108.13 33.3999 104.96C33.3399 101.84 36.0699 99.0998 39.2399 99.0898C42.5199 99.0898 44.9899 101.59 45.0199 104.95C45.0499 108.06 42.5399 110.6 39.3799 110.66L39.3899 110.67Z" fill="#0C9DFE"/>
</svg>
