<svg width="500" height="500" viewBox="0 0 500 500" fill="none" xmlns="http://www.w3.org/2000/svg">
<g clip-path="url(#clip0_19_3887)">
<path d="M499.847 250.881C504.876 383.936 385.044 503.39 246.858 499.927C108.069 496.463 0.909622 388.503 0.00447541 246.715C-0.850386 109.042 120.892 -3.38523 253.546 0.0779223C391.531 3.69165 499.847 110.798 499.797 250.83L499.847 250.881ZM238.41 470.716C310.922 479.65 390.475 441.053 434.023 376.658C478.526 310.909 485.415 240.642 457.004 165.155H309.414C359.398 222.774 362.717 256.301 327.265 317.885C298.351 368.076 269.034 418.015 238.36 470.716H238.41ZM445.136 141.515C402.142 70.5456 342.753 32.8022 265.162 27.5824C186.264 22.2622 121.898 52.9287 71.7625 115.717C95.6986 156.623 118.528 195.721 143.42 238.283C161.573 166.46 209.043 144.878 274.867 146.333C330.081 147.538 385.447 143.422 445.186 141.515H445.136ZM59.0402 133.083C17.4537 211.029 14.688 284.709 55.0173 358.038C89.8655 421.328 144.325 457.515 215.781 470.716C239.718 429.509 262.296 390.762 287.389 347.598C216.133 365.014 174.396 335.151 144.275 279.238C118.428 231.256 89.4632 184.98 59.0402 133.083ZM330.685 251.834C331.037 205.207 294.328 167.112 248.518 166.51C202.908 165.958 163.786 204.404 163.836 249.726C163.886 294.848 203.964 335.502 247.612 334.749C291.914 333.996 330.333 295.651 330.635 251.834H330.685Z" fill="#0C9DFE"/>
</g>
<defs>
<clipPath id="clip0_19_3887">
<rect width="500" height="500" fill="white"/>
</clipPath>
</defs>
</svg>
