<svg width="500" height="500" viewBox="0 0 500 500" fill="none" xmlns="http://www.w3.org/2000/svg">
<path d="M242.598 289.318H227.892C227.892 294.994 231.159 300.165 236.289 302.6L242.598 289.318ZM154.362 289.318L160.671 302.6C165.801 300.165 169.068 294.994 169.068 289.318H154.362ZM227.892 58.8235V289.318H257.304V58.8235H227.892ZM198.48 29.4118C214.724 29.4118 227.892 42.58 227.892 58.8235H257.304C257.304 26.3362 230.968 0 198.48 0V29.4118ZM169.068 58.8235C169.068 42.58 182.236 29.4118 198.48 29.4118V0C165.992 0 139.657 26.3362 139.657 58.8235H169.068ZM169.068 289.318V58.8235H139.657V289.318H169.068ZM110.245 382.353C110.245 347.176 130.828 316.78 160.671 302.6L148.054 276.035C108.339 294.9 80.833 335.4 80.833 382.353H110.245ZM198.48 470.588C149.748 470.588 110.245 431.085 110.245 382.353H80.833C80.833 447.326 133.505 500 198.48 500V470.588ZM286.715 382.353C286.715 431.085 247.213 470.588 198.48 470.588V500C263.453 500 316.127 447.326 316.127 382.353H286.715ZM236.289 302.6C266.133 316.78 286.715 347.176 286.715 382.353H316.127C316.127 335.4 288.621 294.9 248.907 276.035L236.289 302.6Z" fill="#0C9DFE"/>
<path d="M198.48 397.059V338.235" stroke="#0C9DFE" stroke-width="33.3333" stroke-linecap="round" stroke-linejoin="round"/>
<path d="M301.421 250H360.244" stroke="#0C9DFE" stroke-width="33.3333" stroke-linecap="round" stroke-linejoin="round"/>
<path d="M301.421 191.177H360.244" stroke="#0C9DFE" stroke-width="33.3333" stroke-linecap="round" stroke-linejoin="round"/>
<path d="M301.421 132.353H360.244" stroke="#0C9DFE" stroke-width="33.3333" stroke-linecap="round" stroke-linejoin="round"/>
<path d="M301.421 73.5295H419.068" stroke="#0C9DFE" stroke-width="33.3333" stroke-linecap="round" stroke-linejoin="round"/>
</svg>
