<svg width="86" height="103" viewBox="0 0 86 103" fill="none" xmlns="http://www.w3.org/2000/svg">
<g clip-path="url(#clip0_35_316)">
<path d="M12.3876 59.0948C7.78648 61.4877 4.12912 65.3655 2.00922 70.0987C-0.110682 74.8318 -0.568695 80.1425 0.709525 85.1688C1.98775 90.195 4.92716 94.6417 9.05067 97.7871C13.1742 100.932 18.2397 102.592 23.425 102.496C28.6104 102.4 33.6111 100.555 37.6156 97.2592C41.62 93.9636 44.3931 89.4113 45.4847 84.3412C46.5764 79.2712 45.9224 73.9811 43.6291 69.3295C41.3357 64.6779 37.5376 60.9379 32.8512 58.7166L31 63.5001C34.5148 65.1661 36.7518 68.3834 38.4718 71.8721C40.1918 75.3608 40.6823 79.3284 39.8636 83.131C39.0448 86.9335 36.965 90.3477 33.9617 92.8194C30.9583 95.2911 27.2078 96.6753 23.3188 96.7471C19.4298 96.819 15.6306 95.5744 12.538 93.2154C9.44538 90.8563 7.24081 87.5213 6.28215 83.7516C5.32348 79.9819 5.66699 75.9989 7.25692 72.449C8.84685 68.8992 11.5491 65.2948 15 63.5001L12.3876 59.0948Z" fill="#0C9DFE"/>
<path d="M15 13.5H9V63.5H15V13.5Z" fill="#0C9DFE"/>
<path d="M37 13.5H31V63.5H37V13.5Z" fill="#0C9DFE"/>
<path d="M12 13.5C12 13.5 12.0001 3 23.0001 3C34.0001 3 34 13.5 34 13.5" stroke="#0C9DFE" stroke-width="6"/>
<path d="M23.5 86.5C27.0899 86.5 30 83.5899 30 80C30 76.4101 27.0899 73.5 23.5 73.5C19.9101 73.5 17 76.4101 17 80C17 83.5899 19.9101 86.5 23.5 86.5Z" stroke="#0C9DFE" stroke-width="4"/>
<path d="M25 40.5H21V73.5H25V40.5Z" fill="#0C9DFE"/>
<path d="M65 62.5C75.2173 62.5 83.5 54.2173 83.5 44C83.5 33.7827 75.2173 25.5 65 25.5C54.7827 25.5 46.5 33.7827 46.5 44C46.5 54.2173 54.7827 62.5 65 62.5Z" stroke="#0C9DFE" stroke-width="5"/>
<path d="M67 34H64V47H67V34Z" fill="#0C9DFE"/>
<path d="M57 44V47H64V44H57Z" fill="#0C9DFE"/>
</g>
<defs>
<clipPath id="clip0_35_316">
<rect width="86" height="103" fill="white"/>
</clipPath>
</defs>
</svg>
