<svg width="500" height="500" viewBox="0 0 500 500" fill="none" xmlns="http://www.w3.org/2000/svg">
<rect x="325.801" y="268.301" width="59.4921" height="17.8008" fill="#0C9DFE"/>
<rect x="325.801" y="176.018" width="59.4921" height="17.8008" fill="#0C9DFE"/>
<rect x="325.801" y="79.0503" width="59.4921" height="17.8008" fill="#0C9DFE"/>
<path d="M165.768 292.464C146.124 304.371 130.907 322.369 122.434 343.719C113.96 365.07 112.693 388.604 118.826 410.741C124.959 432.877 138.156 452.405 156.408 466.351C174.661 480.297 196.97 487.898 219.94 487.999C242.911 488.099 270.193 480.692 288.566 466.905C306.939 453.119 320.306 433.707 326.632 411.625C332.957 389.542 331.896 365.998 323.608 344.574C315.321 323.151 300.262 305.021 280.722 292.944L267.528 314.889C282.408 324.086 293.857 337.327 300.168 353.642C306.479 369.957 307.288 387.887 302.47 404.704C297.653 421.521 287.474 436.303 273.482 446.802C259.49 457.301 237.543 462.942 220.05 462.866C202.557 462.79 185.567 457.001 171.667 446.38C157.767 435.759 147.717 420.889 143.047 404.03C138.376 387.172 139.341 369.25 145.794 352.99C152.247 336.731 163.901 323.956 178.861 314.889L165.768 292.464Z" fill="#0C9DFE"/>
<path d="M165.668 314.889L165.668 76.333" stroke="#0C9DFE" stroke-width="25"/>
<path d="M280.723 314.889L280.723 77.3886" stroke="#0C9DFE" stroke-width="25"/>
<circle cx="223.311" cy="385.096" r="31.1465" stroke="#0C9DFE" stroke-width="15"/>
<rect x="213.711" y="195.611" width="19.6746" height="155.523" fill="#0C9DFE"/>
<path d="M165.668 77.3889C165.668 -8.46255 280.724 -8.4625 280.724 77.3863" stroke="#0C9DFE" stroke-width="25"/>
</svg>
