<svg width="139" height="152" viewBox="0 0 139 152" fill="none" xmlns="http://www.w3.org/2000/svg">
<path d="M72.25 124.99C46.58 125.53 24.8 103.39 25.72 76.6598C26.53 53.0498 46.77 30.6998 74.33 31.7798C96.44 32.6398 119.87 51.6298 118.64 80.8498C117.68 103.72 98.47 125.27 72.25 124.99ZM71.98 120.02C94.94 120.29 113.2 101.25 113.69 79.5198C114.23 55.6998 95.02 37.0398 72.85 36.7398C49.45 36.4198 30.57 55.6698 30.66 78.8598C30.74 101.16 49.56 120.01 71.98 120.02Z" fill="#0C9DFE"/>
<path d="M71.23 77.5699V46.6299H76.91V83.0399H48.21V77.5699H71.22H71.23Z" fill="#0C9DFE"/>
</svg>
