<svg width="500" height="500" viewBox="0 0 500 500" fill="none" xmlns="http://www.w3.org/2000/svg">
<path d="M279.085 370.308C247.352 402.39 215.139 434.995 181.095 469.431V370.874C176.038 370.656 172.246 370.308 168.41 370.308C124.82 370.308 81.2736 370.308 37.6836 370.308C17.6757 370.308 0.065385 352.915 0.065385 332.951C-0.021795 244.332 -0.021795 155.714 0.065385 67.139C0.065385 47.785 17.7629 30.349 37.1169 30.349C179.09 30.349 321.106 30.567 463.079 30.0003C479.643 29.9131 500.13 49.5722 499.999 67.0954C499.476 155.714 499.433 244.332 499.999 332.907C500.13 350.954 479.294 371.092 461.422 370.744C401.53 369.61 341.593 370.308 278.998 370.308H279.085ZM474.543 67.8364C467.786 57.2876 459.025 55.3261 448.563 55.3697C315.701 55.5876 182.795 55.5005 49.9324 55.5441C32.104 55.5441 25.7399 61.7774 25.7399 79.1263C25.7399 160.073 25.7399 241.063 25.7399 322.01C25.7399 325.977 25.7399 329.943 25.7399 333.91C31.9297 343.195 40.299 345.113 50.4119 345.025C97.2276 344.72 144.087 344.895 190.903 344.895C195.174 344.895 199.446 344.895 205.462 344.895V404.787C206.203 404.918 206.987 405.092 207.728 405.223C227.431 384.954 247.134 364.641 266.313 344.895C272.895 344.895 277.559 344.895 282.267 344.895C338.193 344.895 394.076 344.677 450.002 345.069C460.725 345.156 468.876 342.41 474.63 332.602V67.8364H474.543Z" fill="#0C9DFE"/>
<path d="M173.38 237.751C181.662 229.862 189.072 222.8 196.439 215.738C205.419 224.674 213.657 232.869 223.203 242.328C226.342 240.236 229.698 238.71 232.183 236.269C253.978 214.823 275.642 193.246 297.263 171.625C306.068 162.82 308.814 162.646 317.358 171.059C328.299 181.782 328.342 183.264 317.488 194.118C289.024 222.582 260.516 251.046 231.965 279.467C223.29 288.141 220.501 288.098 212.001 279.423C201.19 268.395 190.38 257.367 179.744 246.208C177.434 243.767 175.69 240.759 173.423 237.708L173.38 237.751Z" fill="#0C9DFE"/>
</svg>
