<svg width="384" height="384" viewBox="0 0 384 384" fill="none" xmlns="http://www.w3.org/2000/svg">
<path d="M165.517 197.229L186.73 218.442C198.446 230.158 198.446 249.153 186.73 260.869L133.697 313.902C116.124 331.475 87.631 331.475 70.0574 313.902C52.4838 296.328 52.4838 267.836 70.0574 250.262L123.091 197.229C134.806 185.513 153.801 185.513 165.517 197.229Z" stroke="#0C9DFE" stroke-width="10"/>
<path d="M81.3709 302.696C92.3056 313.63 110.034 313.63 120.969 302.696C131.904 291.761 131.904 274.032 120.969 263.098C110.034 252.163 92.3056 252.163 81.3709 263.098C70.4363 274.032 70.4363 291.761 81.3709 302.696Z" fill="#0C9DFE"/>
<path d="M89.8564 304.11L79.2498 293.503L29.7523 343L40.3589 353.607L89.8564 304.11Z" fill="#0C9DFE"/>
<path d="M345.122 67.229L327.444 84.9067L299.16 56.6224L316.838 38.9447C324.648 31.1343 337.311 31.1343 345.122 38.9447C352.932 46.7552 352.932 59.4185 345.122 67.229Z" stroke="#0C9DFE" stroke-width="10"/>
<path d="M327.444 84.9063L299.16 56.6221L270.876 84.9063L299.16 113.191L327.444 84.9063Z" stroke="#0C9DFE" stroke-width="10"/>
<path d="M267.34 88.4424L176.123 179.659" stroke="#0C9DFE" stroke-width="10"/>
<path d="M295.624 116.726L204.408 207.943" stroke="#0C9DFE" stroke-width="10"/>
</svg>
