<svg width="500" height="500" viewBox="0 0 500 500" fill="none" xmlns="http://www.w3.org/2000/svg">
<g clip-path="url(#clip0_2_149)">
<g clip-path="url(#clip1_2_149)">
<path d="M499.998 250.216C499.489 388.531 386.465 501.293 249.64 499.989C111.106 498.67 -0.119807 387.601 9.68528e-05 250.68C0.120001 111.437 112.979 -1.11568 251.348 0.00834624C389.297 1.13237 500.493 113.025 499.998 250.216ZM474.624 255.207C476.992 129.301 378.191 26.6552 251.303 25.3813C133.303 24.1973 28.6721 116.172 25.2998 245.615C22.0474 370.486 122.212 473.312 248.95 474.436C370.038 475.53 470.592 380.408 474.639 255.207H474.624Z" fill="#0C9DFE"/>
<path d="M270.653 37.2817C361.06 44.3706 449.414 122.168 458.227 232.472C467.819 352.653 379.72 450.503 270.653 463.062V37.2817Z" fill="#0C9DFE"/>
</g>
</g>
<defs>
<clipPath id="clip0_2_149">
<rect width="500" height="500" fill="white"/>
</clipPath>
<clipPath id="clip1_2_149">
<rect width="500" height="500" fill="white"/>
</clipPath>
</defs>
</svg>
