<svg width="500" height="500" viewBox="0 0 500 500" fill="none" xmlns="http://www.w3.org/2000/svg">
<g clip-path="url(#clip0_19_3617)">
<path d="M499.93 250.727C499.721 389.843 387.906 501.037 249.268 499.993C110.144 498.948 -0.139202 388.728 0.000131882 250.797C0.0697988 112.309 111.885 0.209011 249.965 0.000129199C388.045 -0.139125 500.209 112.309 500 250.727H499.93ZM249.477 474.648C373.067 473.743 471.367 377.936 474.014 255.95C476.801 128.462 376.55 26.3192 250.522 26.4584C126.933 26.6673 26.5432 121.778 25.7072 249.683C24.8712 375.29 125.331 473.047 249.477 474.648Z" fill="#0C9DFE"/>
<path d="M249.547 474.647C125.331 473.046 24.8709 375.219 25.7766 249.682C26.6126 121.777 127.003 26.6662 250.592 26.4573C376.619 26.2484 476.87 128.391 474.083 255.948C471.436 377.935 373.136 473.812 249.547 474.647ZM271.91 38.642V462.88C376.968 452.645 459.941 357.673 459.593 249.403C459.244 141.411 375.783 47.1366 271.91 38.642Z" fill="white"/>
<path d="M271.841 38.5737C375.714 47.0682 459.175 141.343 459.524 249.335C459.872 357.605 376.899 452.577 271.841 462.812V38.5737Z" fill="#0C9DFE"/>
</g>
<defs>
<clipPath id="clip0_19_3617">
<rect width="500" height="500" fill="white"/>
</clipPath>
</defs>
</svg>
