<svg width="453" height="453" viewBox="0 0 453 453" fill="none" xmlns="http://www.w3.org/2000/svg">
<path d="M118.44 334.108C97.1127 312.78 82.5885 285.608 76.7042 256.025C70.82 226.443 73.84 195.781 85.3823 167.915C96.9247 140.049 116.471 116.232 141.55 99.4753C166.628 82.7183 196.113 73.7744 226.274 73.7744C256.436 73.7744 285.92 82.7183 310.999 99.4753C336.077 116.232 355.623 140.049 367.166 167.915C378.708 195.781 381.728 226.443 375.844 256.025C369.96 285.608 355.435 312.78 334.108 334.108" stroke="#0C9DFE" stroke-width="15"/>
<path d="M225.774 249.274C238.753 249.274 249.274 238.753 249.274 225.774C249.274 212.796 238.753 202.274 225.774 202.274C212.795 202.274 202.274 212.796 202.274 225.774C202.274 238.753 212.795 249.274 225.774 249.274Z" stroke="#0C9DFE" stroke-width="10"/>
<path d="M233.274 80.2744H218.274V95.2744H233.274V80.2744Z" fill="#0C9DFE"/>
<path d="M372.274 218.274H357.274V233.274H372.274V218.274Z" fill="#0C9DFE"/>
<path d="M358.764 289.774L345.774 282.274L338.274 295.265L351.264 302.765L358.764 289.774Z" fill="#0C9DFE"/>
<path d="M95.2744 218.274H80.2744V233.274H95.2744V218.274Z" fill="#0C9DFE"/>
<path d="M105.265 282.274L92.2744 289.774L99.7744 302.765L112.765 295.265L105.265 282.274Z" fill="#0C9DFE"/>
<path d="M311.764 107.774L298.774 100.274L291.274 113.265L304.264 120.765L311.764 107.774Z" fill="#0C9DFE"/>
<path d="M140.274 106.774L147.774 119.765L160.764 112.265L153.264 99.2743L140.274 106.774Z" fill="#0C9DFE"/>
<path d="M95.2738 162.265L108.264 169.765L115.764 156.774L102.774 149.274L95.2738 162.265Z" fill="#0C9DFE"/>
<path d="M349.625 149.274L336.635 156.774L344.135 169.765L357.125 162.265L349.625 149.274Z" fill="#0C9DFE"/>
<path d="M276.321 136.093C281.757 129.611 291.89 136.54 287.822 143.957L251.321 210.51C249.332 214.137 244.648 215.257 241.233 212.922L228.962 204.532C225.547 202.197 224.891 197.425 227.549 194.256L276.321 136.093Z" fill="#0C9DFE"/>
<path d="M291.274 352.274H161.274V382.274H291.274V352.274Z" stroke="#0C9DFE" stroke-width="10"/>
</svg>
