<svg width="500" height="500" viewBox="0 0 500 500" fill="none" xmlns="http://www.w3.org/2000/svg">
<path d="M0 246.068C11.5965 232.263 22.1499 219.5 32.9488 206.922C62.8911 171.949 91.6062 135.748 123.267 102.37C158.67 65.0033 202.601 40.215 254.448 34.6316C338.201 25.5507 406.982 54.3272 458.031 122.188C495.214 171.642 507.117 228.765 496.011 288.159C481.715 364.671 437.415 420.077 364.216 450.571C275.984 487.324 177.199 460.695 116.333 391.362C90.6245 362.094 67.2474 330.802 42.8886 300.369C29.0219 283.066 15.4006 265.58 0 246.068ZM31.1081 245.393C32.4579 249.32 32.5193 250.486 33.1329 251.222C65.1613 291.718 95.5331 333.686 129.586 372.402C182.292 432.287 249.846 457.505 328.138 438.545C401.644 420.752 449.993 372.464 470.18 298.958C484.721 246.068 476.99 195.203 448.03 148.326C422.567 107.094 386.55 78.9314 340.348 64.0216C306.111 52.9773 271.444 51.8115 236.777 60.8924C191.68 72.673 155.172 98.5041 124.985 133.355C97.8033 164.709 71.3584 196.614 44.668 228.397C39.8821 234.103 35.4031 240.116 31.1081 245.454V245.393Z" fill="#0C9DFE"/>
<path d="M182.722 164.095C187.324 158.818 190.821 154.707 195.239 149.676C224.383 178.514 252.546 206.493 281.814 235.453C310.099 207.413 336.912 180.845 364.4 153.603C369.37 158.388 373.236 162.009 378.267 166.856C350.779 194.467 324.395 220.973 296.11 249.443C323.905 277.728 350.595 304.848 378.758 333.44C373.788 338.594 370.106 342.46 364.339 348.534C336.237 319.206 310.038 291.84 282.55 263.125C252.914 292.577 224.935 320.371 194.073 351.111C189.594 346.448 185.974 342.583 180.942 337.306C210.885 306.996 238.434 279.139 267.456 249.749C238.679 220.666 211.069 192.687 182.783 164.156L182.722 164.095Z" fill="#0C9DFE"/>
</svg>
