<svg width="500" height="500" viewBox="0 0 500 500" fill="none" xmlns="http://www.w3.org/2000/svg">
<g clip-path="url(#clip0_19_3595)">
<path d="M468.897 500.371C427.023 456.881 385.149 413.458 343.342 369.968C313.586 339.068 283.964 308.032 245.994 268.38C222.836 295.443 203.918 319.544 182.914 341.693C132.288 395.079 80.6517 447.523 29.4197 500.371H22.7548C15.4167 492.36 8.14597 484.416 1.14447 476.808C76.3431 401.879 150.061 328.565 223.172 255.723C147.166 179.986 74.4581 107.615 0 33.4262C10.9735 21.6449 18.1769 13.9028 27.4 4.07385C101.387 78.2625 173.825 150.835 246.6 223.812C321.328 149.018 393.16 77.118 466.878 3.33331C477.918 12.7584 485.728 19.4906 493.604 26.2228C419.281 100.075 346.506 172.311 272.048 246.365C350.478 324.526 424.532 398.378 500 473.577C490.104 484.416 482.766 492.36 475.495 500.304H468.83L468.897 500.371Z" fill="#0C9DFE"/>
</g>
<defs>
<clipPath id="clip0_19_3595">
<rect width="500" height="500" fill="white"/>
</clipPath>
</defs>
</svg>
