<svg width="500" height="500" viewBox="0 0 500 500" fill="none" xmlns="http://www.w3.org/2000/svg">
<path d="M0 246.401C11.5965 232.596 22.1499 219.834 32.9488 207.256C62.8911 172.282 91.6062 136.081 123.267 102.703C158.67 65.3366 202.601 40.5484 254.448 34.9649C338.201 25.884 406.982 54.6605 458.031 122.521C495.214 171.975 507.117 229.099 496.011 288.492C481.715 365.005 437.415 420.41 364.216 450.905C275.984 487.658 177.199 461.029 116.333 391.695C90.6245 362.428 67.2474 331.136 42.8886 300.702C29.0219 283.4 15.4006 265.913 0 246.401ZM31.1081 245.726C32.4579 249.653 32.5193 250.819 33.1329 251.555C65.1613 292.051 95.5331 334.019 129.586 372.736C182.292 432.62 249.846 457.838 328.138 438.879C401.644 421.085 449.993 372.797 470.18 299.291C484.721 246.401 476.99 195.536 448.03 148.659C422.567 107.427 386.55 79.2647 340.348 64.3549C306.111 53.3106 271.444 52.1449 236.777 61.2257C191.68 73.0063 155.172 98.8375 124.985 133.688C97.8033 165.042 71.3584 196.948 44.668 228.731C39.8821 234.437 35.4031 240.45 31.1081 245.788V245.726Z" fill="#0C9DFE"/>
<path d="M182.722 164.428C187.324 159.151 190.821 155.041 195.239 150.009C224.383 178.847 252.546 206.826 281.814 235.787C310.099 207.746 336.912 181.179 364.4 153.936C369.37 158.722 373.236 162.342 378.267 167.189C350.779 194.8 324.395 221.306 296.11 249.776C323.905 278.062 350.595 305.181 378.758 333.774C373.788 338.928 370.106 342.793 364.339 348.868C336.237 319.539 310.038 292.174 282.55 263.459C252.914 292.91 224.935 320.705 194.073 351.445C189.594 346.782 185.974 342.916 180.942 337.639C210.885 307.329 238.434 279.473 267.456 250.083C238.679 220.999 211.069 193.021 182.783 164.49L182.722 164.428Z" fill="#EC4E3E"/>
</svg>
