<svg width="500" height="500" viewBox="0 0 500 500" fill="none" xmlns="http://www.w3.org/2000/svg">
<path d="M108.273 0V172.951H319.35V1.38361H383.764C413.127 31.0542 445.411 63.1846 476.927 96.0836C481.078 100.388 483.076 108.459 483.153 114.839C483.537 234.06 483.46 353.28 483.384 472.578C483.384 492.486 475.697 499.865 455.481 499.942C318.35 500.019 181.22 500.019 44.0892 499.942C22.874 499.942 16.7246 493.87 16.7246 472.655C16.6478 324.071 16.6478 175.564 16.7246 26.9803C16.7246 5.53442 22.4128 0.230602 44.1661 0.0768687C64.5359 1.76106e-06 84.9056 0.0768687 108.35 0.0768687L108.273 0ZM341.872 193.781H85.6742V23.5981H38.5548V476.882H86.8273V430.224H412.435V477.113H459.478C460.17 474.423 461.015 472.655 461.015 470.887C461.092 354.895 461.246 238.902 460.862 122.833C460.862 116.761 457.249 109.305 452.867 104.77C430.576 81.3252 406.44 59.6487 385.148 35.3588C372.388 20.8309 359.09 20.6003 341.795 23.9056V193.705L341.872 193.781Z" fill="#0C9DFE"/>
<path d="M279.301 132.903H174.762V19.3704H279.301V132.903ZM262.544 115.07V36.896H190.673V115.07H262.544Z" fill="#0C9DFE"/>
</svg>
