<svg width="118" height="110" viewBox="0 0 118 110" fill="none" xmlns="http://www.w3.org/2000/svg">
<path d="M45.2202 21.9297V44.4297H72.6802V22.1097H81.0602C84.8802 25.9697 89.0802 30.1497 93.1802 34.4297C93.7202 34.9897 93.9802 36.0397 93.9902 36.8697C94.0402 52.3797 94.0302 67.8897 94.0202 83.4097C94.0202 85.9997 93.0202 86.9597 90.3902 86.9697C72.5502 86.9797 54.7102 86.9797 36.8702 86.9697C34.1102 86.9697 33.3102 86.1797 33.3102 83.4197C33.3002 64.0897 33.3002 44.7697 33.3102 25.4397C33.3102 22.6497 34.0502 21.9597 36.8802 21.9397C39.5302 21.9297 42.1802 21.9397 45.2302 21.9397L45.2202 21.9297ZM75.6102 47.1397H42.2802V24.9997H36.1502V83.9697H42.4302V77.8997H84.7902V83.9997H90.9102C91.0002 83.6497 91.1102 83.4197 91.1102 83.1897C91.1202 68.0997 91.1402 53.0097 91.0902 37.9097C91.0902 37.1197 90.6202 36.1497 90.0502 35.5597C87.1502 32.5097 84.0102 29.6897 81.2402 26.5297C79.5802 24.6397 77.8502 24.6097 75.6002 25.0397V47.1297L75.6102 47.1397Z" fill="#0C9DFE"/>
<path d="M67.4701 39.2192H53.8701V24.4492H67.4701V39.2192ZM65.2901 36.8992V26.7292H55.9401V36.8992H65.2901Z" fill="#0C9DFE"/>
</svg>
