<svg width="500" height="500" viewBox="0 0 500 500" fill="none" xmlns="http://www.w3.org/2000/svg">
<path d="M374.711 498.212C334.682 498.904 298.109 486.183 263.473 468C172.422 420.228 101.974 349.987 46.8736 264.122C24.2665 228.932 8.71123 190.217 2.14343 148.46C-1.52071 124.954 -1.10591 101.448 8.29641 79.2558C11.9606 70.5448 17.6987 62.1795 24.1974 55.266C37.7478 40.6786 52.7501 27.4739 66.577 13.0938C82.6854 -3.63676 105.569 -1.77012 117.46 9.84452C145.736 37.4293 173.943 65.1523 201.182 93.7741C215.078 108.292 213.557 128.411 199.316 143.205C187.01 155.995 174.704 168.854 161.637 180.746C149.953 191.323 149.677 203.007 154.447 216.557C161.637 236.745 173.183 254.443 187.01 270.413C209.824 296.754 234.713 321.02 265.823 337.681C272.322 341.138 279.305 344.111 286.356 346.116C299.976 349.987 311.729 348.052 321.822 336.16C332.124 323.993 344.153 313.208 355.698 302.077C373.743 284.724 390.611 283.48 408.517 300.625C436.31 327.104 463.203 354.481 489.751 382.135C503.508 396.446 503.301 415.389 489.82 429.907C473.158 447.882 456.497 465.996 438.176 482.173C425.663 493.235 409.07 497.728 392.063 498.281C386.325 498.489 380.587 498.281 374.849 498.281L374.711 498.212ZM144.215 158.692C113.312 128.48 82.4088 98.2678 50.8143 67.3646C50.9525 67.2955 48.7402 68.1251 47.081 69.5769C28.6912 86.1001 25.8566 107.878 27.3776 130.692C30.2121 175.215 46.9427 215.313 70.7251 251.954C122.784 332.012 188.876 397.898 273.636 443.527C303.502 459.635 335.511 470.697 369.664 472.909C394.206 474.43 417.851 471.457 432.922 448.09C432.231 446.638 432.023 445.324 431.263 444.564C403.332 416.08 375.402 387.597 347.264 359.251C341.872 353.79 337.309 356.279 332.884 361.395C324.035 371.696 311.798 376.535 299.146 374.392C283.591 371.765 267.206 368.308 253.586 360.842C206.229 334.778 168.62 297.514 141.381 251.056C121.47 217.041 114.764 187.521 144.284 158.622L144.215 158.692ZM360.123 337.197C378.236 354.481 395.589 370.935 412.804 387.597C424.28 398.727 435.48 410.135 446.68 421.542C450.759 425.69 455.46 427.971 460.023 423.339C465.346 417.947 469.771 411.586 476.269 403.636C450.759 379.093 426.562 355.795 402.434 332.496C388.56 319.039 374.457 320.605 360.123 337.197ZM73.2139 48.1452C101.697 76.5595 130.388 105.181 159.218 133.665C161.015 135.462 165.44 137.606 166.408 136.845C172.077 132.351 178.091 127.65 182.032 121.705C185.834 115.966 180.926 111.542 176.57 107.186C154.309 85.1322 132.462 62.5943 110.201 40.4712C92.9173 23.3258 90.4976 23.6715 74.804 43.444C74.4584 43.8588 74.4584 44.481 73.2831 48.076L73.2139 48.1452Z" fill="#0C9DFE"/>
<path d="M403.125 235.085C386.809 219.253 372.153 205.15 356.459 189.871C340.558 205.288 325.694 219.668 309.724 235.154C303.571 229.555 298.248 224.715 291.127 218.216C306.613 202.039 321.201 186.76 336.963 170.306C321.961 154.889 307.788 140.371 292.51 124.677C297.626 118.939 302.327 113.685 308.618 106.564C324.588 121.912 339.59 136.223 355.63 151.571C371.392 136.499 386.325 122.188 403.125 106.149C409.555 112.302 414.74 117.28 421.238 123.571C405.13 140.371 390.888 155.304 375.471 171.412C390.612 187.106 404.646 201.693 419.856 217.456C414.325 223.332 409.416 228.518 403.194 235.085H403.125Z" fill="#EC4E3E"/>
</svg>
