<svg width="107" height="98" viewBox="0 0 107 98" fill="none" xmlns="http://www.w3.org/2000/svg">
<path d="M67.65 85.1104C61.86 85.2104 56.57 83.3704 51.56 80.7404C38.39 73.8304 28.2 63.6704 20.23 51.2504C16.96 46.1604 14.71 40.5604 13.76 34.5204C13.23 31.1204 13.29 27.7204 14.65 24.5104C15.18 23.2504 16.01 22.0404 16.95 21.0404C18.91 18.9304 21.08 17.0204 23.08 14.9404C25.41 12.5204 28.72 12.7904 30.44 14.4704C34.53 18.4604 38.61 22.4704 42.55 26.6104C44.56 28.7104 44.34 31.6204 42.28 33.7604C40.5 35.6104 38.72 37.4704 36.83 39.1904C35.14 40.7204 35.1 42.4104 35.79 44.3704C36.83 47.2904 38.5 49.8504 40.5 52.1604C43.8 55.9704 47.4 59.4804 51.9 61.8904C52.84 62.3904 53.85 62.8204 54.87 63.1104C56.84 63.6704 58.54 63.3904 60 61.6704C61.49 59.9104 63.23 58.3504 64.9 56.7404C67.51 54.2304 69.95 54.0504 72.54 56.5304C76.56 60.3604 80.45 64.3204 84.29 68.3204C86.28 70.3904 86.25 73.1304 84.3 75.2304C81.89 77.8304 79.48 80.4504 76.83 82.7904C75.02 84.3904 72.62 85.0404 70.16 85.1204C69.33 85.1504 68.5 85.1204 67.67 85.1204L67.65 85.1104ZM34.31 36.0004C29.84 31.6304 25.37 27.2604 20.8 22.7904C20.82 22.7804 20.5 22.9004 20.26 23.1104C17.6 25.5004 17.19 28.6504 17.41 31.9504C17.82 38.3904 20.24 44.1904 23.68 49.4904C31.21 61.0704 40.77 70.6004 53.03 77.2004C57.35 79.5304 61.98 81.1304 66.92 81.4504C70.47 81.6704 73.89 81.2404 76.07 77.8604C75.97 77.6504 75.94 77.4604 75.83 77.3504C71.79 73.2304 67.75 69.1104 63.68 65.0104C62.9 64.2204 62.24 64.5804 61.6 65.3204C60.32 66.8104 58.55 67.5104 56.72 67.2004C54.47 66.8204 52.1 66.3204 50.13 65.2404C43.28 61.4704 37.84 56.0804 33.9 49.3604C31.02 44.4404 30.05 40.1704 34.32 35.9904L34.31 36.0004ZM65.54 61.8204C68.16 64.3204 70.67 66.7004 73.16 69.1104C74.82 70.7204 76.44 72.3704 78.06 74.0204C78.65 74.6204 79.33 74.9504 79.99 74.2804C80.76 73.5004 81.4 72.5804 82.34 71.4304C78.65 67.8804 75.15 64.5104 71.66 61.1404C69.6533 59.1937 67.6133 59.4204 65.54 61.8204ZM24.04 20.0104C28.16 24.1204 32.31 28.2604 36.48 32.3804C36.74 32.6404 37.38 32.9504 37.52 32.8404C38.34 32.1904 39.21 31.5104 39.78 30.6504C40.33 29.8204 39.62 29.1804 38.99 28.5504C35.77 25.3604 32.61 22.1004 29.39 18.9004C26.89 16.4204 26.54 16.4704 24.27 19.3304C24.22 19.3904 24.22 19.4804 24.05 20.0004L24.04 20.0104Z" fill="#0C9DFE"/>
<path d="M71.7601 47.0504C69.4001 44.7604 67.2801 42.7204 65.0101 40.5104C62.7101 42.7404 60.5601 44.8204 58.2501 47.0604C57.3601 46.2504 56.5901 45.5504 55.5601 44.6104C57.8001 42.2704 59.9101 40.0604 62.1901 37.6804C60.0201 35.4504 57.9701 33.3504 55.7601 31.0804C56.5001 30.2504 57.1801 29.4904 58.0901 28.4604C60.4001 30.6804 62.5701 32.7504 64.8901 34.9704C67.1701 32.7904 69.3301 30.7204 71.7601 28.4004C72.6901 29.2904 73.4401 30.0104 74.3801 30.9204C72.0501 33.3504 69.9901 35.5104 67.7601 37.8404C69.9501 40.1104 71.9801 42.2204 74.1801 44.5004C73.3801 45.3504 72.6701 46.1004 71.7701 47.0504H71.7601Z" fill="#0C9DFE"/>
</svg>
