<svg width="162" height="150" viewBox="0 0 162 150" fill="none" xmlns="http://www.w3.org/2000/svg">
<path d="M83.4999 71.7698C83.4999 88.3798 83.4999 104.98 83.4999 121.59C83.4999 125.47 82.4799 126.27 78.8299 124.98C71.3399 122.33 63.8799 119.56 56.4099 116.85C55.4999 116.52 54.6099 116.02 53.6699 115.91C50.1099 115.49 49.7299 113.27 49.7399 110.19C49.8499 85.9398 49.8399 61.6998 49.7399 37.4498C49.7299 34.9498 50.5099 33.6798 52.7199 32.5298C61.6499 27.8898 70.4599 23.0098 79.3399 18.2498C81.9099 16.8698 83.4399 17.7798 83.4899 20.6998C83.5499 24.1898 83.5099 27.6698 83.5099 31.1598C83.5099 44.6898 83.5099 58.2298 83.5099 71.7598L83.4999 71.7698ZM78.1399 118.96V25.1898C77.5099 25.3398 77.0699 25.3598 76.7299 25.5498C70.0699 29.2198 63.4599 32.9798 56.7399 36.5198C55.3799 37.2398 54.7799 37.8298 54.7799 39.3998C54.8299 62.4798 54.8299 85.5598 54.7799 108.64C54.7799 110.36 55.4399 111.09 56.9999 111.61C61.4299 113.08 65.7999 114.73 70.1999 116.27C72.7799 117.17 75.3699 118.02 78.1299 118.95L78.1399 118.96Z" fill="#0C9DFE"/>
<path d="M117.11 116.53H86.8401V111.65H111.91V36.9101H86.8301V31.8301H117.11V116.54V116.53Z" fill="#0C9DFE"/>
<path d="M66.04 83.7203C66.06 81.0903 67.4 79.7303 70 79.7403C72.37 79.7403 74.28 81.6203 74.2 83.8403C74.12 85.9803 72.21 87.7603 69.99 87.7903C67.61 87.8203 66.04 86.1903 66.05 83.7203H66.04Z" fill="#0C9DFE"/>
</svg>
