<svg width="500" height="500" viewBox="0 0 500 500" fill="none" xmlns="http://www.w3.org/2000/svg">
<path d="M222.133 344.492V363.24C217.926 363.603 214.187 364.175 210.448 364.175C177.99 364.227 145.532 364.434 113.125 364.175C44.5222 363.603 -8.18964 303.621 1.0544 235.797C5.52063 203.235 21.9833 177.268 48.521 157.534C52.9353 154.21 57.038 148.861 58.6479 143.616C71.9947 100.719 113.749 75.0645 157.32 84.5163C164.227 86.0223 167.447 84.3086 171.238 79.5307C214.498 24.8455 276.662 5.26676 341.786 29.2597C388.577 46.4495 419.27 81.0368 431.474 129.958C435.421 145.797 441.133 157.274 455.519 167.557C493.222 194.406 506.257 234.135 497.273 278.226C487.977 323.771 458.479 353.165 412.103 363.136C402.547 365.213 392.316 364.175 382.345 364.227C346.512 364.33 310.73 364.227 273.962 364.227V345.271C278.584 345.011 283.154 344.492 287.724 344.492C319.714 344.44 351.757 344.856 383.748 344.336C422.074 343.765 452.247 328.705 469.541 292.871C490.729 248.884 470.372 194.095 425.294 174.672C417.816 171.452 415.011 168.024 414.751 159.767C412.207 87.788 342.513 31.5448 271.521 42.8661C230.286 49.4616 200.165 71.2734 179.911 106.899C174.77 115.936 169.732 112.508 164.02 110.171C133.483 97.7591 100.246 105.082 88.0419 135.307C77.6553 161.117 57.9728 175.866 41.8736 195.289C-0.503581 246.235 27.4363 327.147 92.4562 339.714C118.838 344.804 146.518 343.35 173.627 344.336C189.467 344.908 205.41 344.44 222.081 344.44L222.133 344.492Z" fill="#0C9DFE"/>
<path d="M237.66 214.607H258.278V444.099C259.42 444.671 260.563 445.294 261.705 445.865C274.533 431.168 287.36 416.418 300.759 401.046C307.198 407.122 310.834 410.55 315.456 414.912C294.942 437.348 275.052 459.316 254.746 480.816C253.396 482.27 247.112 481.595 245.346 479.777C226.443 460.354 207.695 440.776 189.571 420.626C181.521 411.692 190.35 408.265 197.412 403.747C210.032 417.509 222.6 431.272 237.66 447.735V214.659V214.607Z" fill="#0C9DFE"/>
</svg>
