<svg width="500" height="500" viewBox="0 0 500 500" fill="none" xmlns="http://www.w3.org/2000/svg">
<mask id="mask0_19_3875" style="mask-type:luminance" maskUnits="userSpaceOnUse" x="0" y="29" width="500" height="442">
<path d="M500 29H0V470.667H500V29Z" fill="white"/>
</mask>
<g mask="url(#mask0_19_3875)">
<path d="M37.4997 95.6668C53.608 95.6668 66.6663 82.6085 66.6663 66.5002C66.6663 50.3919 53.608 37.3335 37.4997 37.3335C21.3914 37.3335 8.33301 50.3919 8.33301 66.5002C8.33301 82.6085 21.3914 95.6668 37.4997 95.6668Z" stroke="#0C9DFE" stroke-width="20"/>
<path d="M462.5 95.6668C478.608 95.6668 491.666 82.6085 491.666 66.5002C491.666 50.3919 478.608 37.3335 462.5 37.3335C446.391 37.3335 433.333 50.3919 433.333 66.5002C433.333 82.6085 446.391 95.6668 462.5 95.6668Z" stroke="#0C9DFE" stroke-width="20"/>
<path d="M433.333 58.167H66.666V74.8337H433.333V58.167Z" fill="#0C9DFE"/>
<path d="M254.166 74.8335H245.833V408.167H254.166V74.8335Z" fill="#0C9DFE"/>
<path d="M75 66.5V444.81C113.368 405.098 135.937 452.475 158.507 444.81C172.049 440.63 212.222 423.491 237.5 430.18V66.5" stroke="#0C9DFE" stroke-width="20"/>
<path d="M425 70.667V444.82C386.632 405.544 364.062 452.4 341.493 444.82C327.951 440.686 287.778 423.735 262.5 430.35V70.667" stroke="#0C9DFE" stroke-width="20"/>
</g>
</svg>
