<svg width="500" height="500" viewBox="0 0 500 500" fill="none" xmlns="http://www.w3.org/2000/svg">
<mask id="mask0_19_3943" style="mask-type:luminance" maskUnits="userSpaceOnUse" x="0" y="38" width="500" height="425">
<path d="M500 38H0V463H500V38Z" fill="white"/>
</mask>
<g mask="url(#mask0_19_3943)">
<path d="M37.4997 104.667C53.608 104.667 66.6663 91.6085 66.6663 75.5002C66.6663 59.3919 53.608 46.3335 37.4997 46.3335C21.3914 46.3335 8.33301 59.3919 8.33301 75.5002C8.33301 91.6085 21.3914 104.667 37.4997 104.667Z" stroke="#0C9DFE" stroke-width="15"/>
<path d="M462.5 104.667C478.608 104.667 491.666 91.6085 491.666 75.5002C491.666 59.3919 478.608 46.3335 462.5 46.3335C446.391 46.3335 433.333 59.3919 433.333 75.5002C433.333 91.6085 446.391 104.667 462.5 104.667Z" stroke="#0C9DFE" stroke-width="15"/>
<path d="M433.333 67.1665H66.666V83.8332H433.333V67.1665Z" fill="#0C9DFE"/>
<path d="M354.166 75.5H145.833V408.833H354.166V75.5Z" stroke="#0C9DFE" stroke-width="15"/>
<path d="M258.333 83.8335H241.666V400.5H258.333V83.8335Z" fill="#0C9DFE"/>
<path d="M345.833 250.5V233.833H154.166V250.5H345.833Z" fill="#0C9DFE"/>
<path d="M79.166 83.8335H95.8327V446.333L79.166 463V83.8335Z" fill="#0C9DFE"/>
<path d="M420.833 83.8335H404.166V446.333L420.833 463V83.8335Z" fill="#0C9DFE"/>
<path d="M125 83.8335H108.333V446.333H125V83.8335Z" fill="#0C9DFE"/>
<path d="M391.667 83.8335H375V446.333H391.667V83.8335Z" fill="#0C9DFE"/>
<path d="M87.5 75.5H145.833V425.5C145.833 434.705 138.371 442.167 129.167 442.167H104.167C94.9621 442.167 87.5 434.705 87.5 425.5V75.5Z" stroke="#0C9DFE" stroke-width="15"/>
<path d="M354.166 75.5H412.499V425.5C412.499 434.705 405.037 442.167 395.833 442.167H370.833C361.628 442.167 354.166 434.705 354.166 425.5V75.5Z" stroke="#0C9DFE" stroke-width="15"/>
</g>
</svg>
