<svg width="500" height="500" viewBox="0 0 500 500" fill="none" xmlns="http://www.w3.org/2000/svg">
<g clip-path="url(#clip0_19_2980)">
<path d="M284.739 176.43C284.739 176.43 250.381 218.736 252.139 221.433C254.576 218.736 239.804 175.968 239.804 175.968C239.804 175.968 236.721 166.975 227.049 137.5H192.026H107.031H42.9378L36.5378 165.17H84.7857H96.2332C127.271 165.17 146.221 178 140.928 200.733C135.211 225.486 108.121 236.053 79.2657 236.053H68.4757L82.3557 175.533H34.1178L13.6377 263.953H82.1332C133.663 263.953 182.548 236.286 191.363 200.733C192.906 194.198 192.688 177.77 188.728 168.1C188.728 167.868 188.501 167.423 188.283 166.758C188.066 166.525 187.838 164.953 188.728 164.723C189.158 164.493 190.041 165.4 190.041 165.618C190.041 165.618 190.488 166.758 190.918 167.65L234.519 293.438L345.529 165.398L392.432 165.168H403.88C434.94 165.168 454.105 177.998 448.802 200.73C443.077 225.483 415.79 236.051 386.927 236.051H375.915L390.002 175.533H341.784L321.289 263.953H389.785C441.312 263.953 490.642 236.286 498.795 200.733C507.162 165.17 471.042 137.5 419.07 137.5H373.712H316.894C289.809 170.123 284.739 176.43 284.739 176.43Z" fill="#0C9DFE"/>
<path d="M236.061 293.889C105.703 293.889 0 309.189 0 328.096C0 346.991 105.703 362.291 236.061 362.291C366.659 362.291 472.372 346.991 472.372 328.096C472.375 309.189 366.661 293.889 236.061 293.889ZM227.696 340.249C197.746 340.249 173.746 335.069 173.746 328.761C173.746 322.454 197.743 317.286 227.696 317.286C257.416 317.286 281.441 322.451 281.441 328.761C281.441 335.069 257.416 340.249 227.696 340.249Z" fill="#0C9DFE"/>
</g>
<defs>
<clipPath id="clip0_19_2980">
<rect width="500" height="500" fill="white"/>
</clipPath>
</defs>
</svg>
