<svg width="67" height="67" viewBox="0 0 67 67" fill="none" xmlns="http://www.w3.org/2000/svg">
<g clip-path="url(#clip0_17_1067)">
<path d="M66.98 0.120191C64.3 6.22019 61.33 11.8802 59.31 17.8702C56.68 25.6502 50.74 30.6002 45.27 36.0502C35.96 45.3202 26.67 54.6002 17.3 63.8102C13.81 67.2502 8.61005 67.0802 4.99005 63.7902C2.01005 61.0702 -0.669953 58.1802 0.450047 53.7902C0.900047 52.0302 1.85005 50.1702 3.12005 48.8902C15.38 36.5102 27.66 24.1502 40.2 12.0502C42.4 9.92019 45.8 8.97019 48.72 7.65019C54.38 5.08019 60.09 2.63019 65.79 0.15019C65.99 0.0601898 66.26 0.14019 66.97 0.14019L66.98 0.120191ZM17.59 57.2502C28.43 46.5102 38.83 36.2102 49.2 25.9402C47.37 25.5702 46.57 24.1502 46.48 22.3802C46.38 20.5102 45.7 18.9102 43.9 18.6102C41.82 18.2702 39.61 17.5702 37.63 19.5702C30.43 26.8702 23.1 34.0402 15.83 41.2802C13.52 43.5902 11.26 45.9502 9.13004 48.1302C12.19 51.4202 14.99 54.4302 17.6 57.2402L17.59 57.2502ZM52.63 23.1402C54.67 18.6802 56.33 15.1802 57.84 11.6102C58.1 11.0002 57.95 9.79019 57.51 9.44019C56.94 8.97019 55.77 8.74019 55.08 9.00019C52.45 10.0002 49.91 11.2202 47.35 12.3802C45.92 13.0302 44.51 13.7202 43.09 14.4002C48.67 15.2602 48.65 15.3002 50.33 20.5702C50.6 21.4102 51.59 22.0102 52.63 23.1402ZM14.86 60.7302C11.86 57.5302 9.03005 54.5002 6.22005 51.5002C3.04005 53.7102 2.70005 55.1902 4.96005 58.0602C6.06005 59.4602 7.40005 60.7702 8.86005 61.7902C11.85 63.8702 12.78 63.5802 14.86 60.7302Z" fill="#0C9DFE"/>
<path d="M63.27 63.1699C63.21 64.2399 63.16 65.0299 63.1 66.0099H22.41C22.36 65.1199 22.32 64.2599 22.26 63.1699H63.27Z" fill="#0C9DFE"/>
</g>
<defs>
<clipPath id="clip0_17_1067">
<rect width="67" height="67" fill="white"/>
</clipPath>
</defs>
</svg>
