<svg width="500" height="500" viewBox="0 0 500 500" fill="none" xmlns="http://www.w3.org/2000/svg">
<g clip-path="url(#clip0_19_3528)">
<path d="M87.5952 225.736V10.8334H411.645V225.736H87.5952ZM114.93 37.7878V198.836H384.799V37.7878H114.93Z" fill="#0C9DFE"/>
<path d="M411.89 488.684H87.8125V273.808H411.89V488.684ZM384.745 461.811V300.057H114.957V461.811H384.745Z" fill="#0C9DFE"/>
<path d="M41.8568 11.0504V50.6542H0.814453V11.0504H41.8568Z" fill="#0C9DFE"/>
<path d="M458.36 50.5728V11.4304H499.43V50.5728H458.36Z" fill="#0C9DFE"/>
<path d="M0.895996 97.8853H40.8254V138.955H0.895996V97.8853Z" fill="#0C9DFE"/>
<path d="M458.958 138.249V98.2655H500V138.249H458.958Z" fill="#0C9DFE"/>
<path d="M41.0152 226.55H0.73291V185.779H41.0152V226.55Z" fill="#0C9DFE"/>
<path d="M500 185.698V225.654H459.636V185.698H500Z" fill="#0C9DFE"/>
<path d="M40.527 313.792H0.244629V273.673H40.527V313.792Z" fill="#0C9DFE"/>
<path d="M499.593 314.579H460.016V273.51H499.593V314.579Z" fill="#0C9DFE"/>
<path d="M0 401.17V360.888H40.7709V401.17H0Z" fill="#0C9DFE"/>
<path d="M458.958 400.519V360.535H500V400.519H458.958Z" fill="#0C9DFE"/>
<path d="M40.1198 489.362H0.977539V448.293H40.1198V489.362Z" fill="#0C9DFE"/>
<path d="M460.043 446.99H499.186V488.059H460.043V446.99Z" fill="#0C9DFE"/>
</g>
<defs>
<clipPath id="clip0_19_3528">
<rect width="500" height="500" fill="white"/>
</clipPath>
</defs>
</svg>
