<svg width="500" height="500" viewBox="0 0 500 500" fill="none" xmlns="http://www.w3.org/2000/svg">
<path d="M336.408 105.266C367.419 138.743 385.29 176.853 370.288 222.966C353.827 273.661 309.928 289.468 259.183 306.534C265.728 285.743 270.107 270.338 275.444 255.236C285.26 227.245 276.601 204.541 255.709 185.612C243.98 174.99 231.042 165.777 219.161 155.356C165.949 108.89 171.386 41.9855 235.875 0C209.546 55.2759 245.993 82.1587 278.363 110.703C283.951 115.636 289.741 120.57 296.084 124.547C322.061 140.858 341.895 160.441 334.747 196.134C365.305 164.972 346.175 135.673 336.458 105.215L336.408 105.266Z" fill="#0C9DFE"/>
<path d="M350.1 499.899C321.154 489.579 295.026 478.906 268.093 471.254C256.363 467.932 242.116 467.982 230.386 471.355C203.403 479.007 177.326 489.68 148.731 499.849C136.347 468.687 124.063 439.186 113.341 409.132C111.629 404.349 116.814 396.999 119.029 390.958C128.343 365.334 137.757 339.71 147.775 312.324C176.268 322.644 203 333.669 230.638 341.673C242.368 345.097 256.715 345.046 268.395 341.623C295.328 333.77 321.405 322.946 350 312.525C362.032 342.831 373.912 372.432 385.39 402.235C386.448 405.004 386.045 409.031 384.937 411.951C373.912 440.395 362.535 468.737 350.151 500L350.1 499.899ZM161.266 471.909C227.819 447.694 292.861 424.033 359.162 399.919C351.56 379.229 344.563 360.3 337.313 340.616C269.653 365.334 205.215 388.894 139.569 412.857C147.12 433.447 153.866 451.873 161.266 471.909ZM144.049 387.283C169.774 377.869 190.264 370.318 216.089 360.854C194.392 352.9 178.584 347.11 161.266 340.767C155.829 355.467 150.997 368.506 144.049 387.283ZM353.725 425.695C329.51 434.706 309.676 442.056 282.843 452.024C305.85 460.129 321.405 465.666 337.968 471.506C343.304 455.95 347.734 443.113 353.725 425.745V425.695Z" fill="#0C9DFE"/>
<path d="M226.309 300.846C210.954 292.993 195.348 285.29 180.044 277.085C113.391 241.493 103.625 176.45 160.411 117.5C146.063 163.915 169.422 183.649 204.46 200.111C249.718 221.356 256.514 258.609 226.309 300.846Z" fill="#0C9DFE"/>
</svg>
