<svg width="90" height="78" viewBox="0 0 90 78" fill="none" xmlns="http://www.w3.org/2000/svg">
<path d="M35.5 14.8903C38.17 14.8903 40.74 14.8903 43.32 14.8903C52.5 14.8903 61.69 14.8903 70.87 14.8903C75.06 14.8903 76.94 16.7903 76.94 21.0203C76.94 33.7803 76.94 46.5403 76.94 59.3103C76.94 63.3403 75.0099 65.2703 70.9499 65.2703C52.5799 65.2803 34.22 65.2803 15.85 65.2703C11.84 65.2703 9.95996 63.3203 9.95996 59.2603C9.95996 44.1603 9.95996 29.0603 9.95996 13.9703C9.95996 9.92027 11.85 8.04027 15.91 8.03027C19.83 8.03027 23.76 8.03027 27.68 8.03027C33.33 8.03027 34.54 9.04026 35.5 14.9003V14.8903ZM73.55 29.2803H13.41C13.41 39.4103 13.41 49.3203 13.41 59.2403C13.41 61.3303 14.63 61.9903 16.47 61.9903C34.49 61.9903 52.5099 61.9903 70.5199 61.9903C72.5899 61.9903 73.56 60.9703 73.54 58.9003C73.51 55.7303 73.54 52.5703 73.54 49.4003C73.54 42.7503 73.54 36.0903 73.54 29.2903L73.55 29.2803ZM31.91 18.1503C31.91 16.7403 31.91 15.6703 31.91 14.6003C31.91 12.5703 30.91 11.4803 28.87 11.4703C24.54 11.4403 20.2 11.3703 15.87 11.5303C15.06 11.5603 13.64 12.5803 13.61 13.2003C13.41 17.3203 13.5 21.4503 13.5 25.4903H73.55C73.55 24.3603 73.55 23.4603 73.55 22.5503C73.54 18.6603 73.0199 18.1503 69.0199 18.1503C63.5199 18.1503 58.02 18.1503 52.52 18.1503C45.78 18.1503 39.04 18.1503 31.91 18.1503Z" fill="#0C9DFE"/>
</svg>
