<svg width="500" height="500" viewBox="0 0 500 500" fill="none" xmlns="http://www.w3.org/2000/svg">
<mask id="mask0_19_3580" style="mask-type:luminance" maskUnits="userSpaceOnUse" x="0" y="107" width="500" height="287">
<path d="M500 107.5H0V393.214H500V107.5Z" fill="white"/>
</mask>
<g mask="url(#mask0_19_3580)">
<path d="M252.232 107.5C326.027 149.821 399.777 192.143 473.572 234.509C480.447 238.438 487.188 242.545 497.277 248.571C413.661 296.071 332.456 342.143 248.259 389.955V250.223C163.348 297.589 81.6966 343.214 0.000125484 388.795C0.000125484 300.848 -0.08916 212.857 0.178697 124.911C0.22334 119.107 2.94656 113.304 4.41977 107.5C84.2412 153.438 164.063 199.33 247.768 247.5V107.5C249.286 107.5 250.759 107.5 252.232 107.5ZM18.8841 356.518C83.1251 320 144.777 285 209.732 248.125C143.706 210.714 82.3216 175.938 18.8841 140V356.518ZM266.518 139.732V356.563C330.714 320.089 392.366 285.089 457.411 248.125C392.054 210.982 331.116 176.384 266.518 139.732Z" fill="#0C9DFE"/>
</g>
</svg>
