<svg width="512" height="512" viewBox="0 0 512 512" fill="none" xmlns="http://www.w3.org/2000/svg">
<g clip-path="url(#clip0_17_1104)">
<mask id="mask0_17_1104" style="mask-type:luminance" maskUnits="userSpaceOnUse" x="0" y="0" width="512" height="512">
<path d="M512 0H0V512H512V0Z" fill="white"/>
</mask>
<g mask="url(#mask0_17_1104)">
<mask id="mask1_17_1104" style="mask-type:luminance" maskUnits="userSpaceOnUse" x="0" y="0" width="512" height="512">
<path d="M512 0H0V512H512V0Z" fill="white"/>
</mask>
<g mask="url(#mask1_17_1104)">
<path d="M240.516 213.114C280.334 213.114 312.612 180.836 312.612 141.018C312.612 101.2 280.334 68.9219 240.516 68.9219C200.698 68.9219 168.419 101.2 168.419 141.018C168.419 180.836 200.698 213.114 240.516 213.114Z" stroke="#0C9DFE" stroke-width="21.8431"/>
<path d="M240.361 213.419V366.905" stroke="#0C9DFE" stroke-width="21.8431"/>
<mask id="mask2_17_1104" style="mask-type:luminance" maskUnits="userSpaceOnUse" x="38" y="333" width="403" height="152">
<path d="M419.101 462.954C419.101 434.408 400.184 407.031 366.512 386.846C332.84 366.66 287.171 355.32 239.551 355.32C191.931 355.32 146.261 366.66 112.589 386.846C78.9169 407.031 60 434.408 60 462.954H239.551H419.101Z" stroke="black" stroke-width="43.6863"/>
</mask>
<g mask="url(#mask2_17_1104)">
<path d="M419.101 462.954C419.101 434.408 400.184 407.031 366.512 386.846C332.84 366.66 287.171 355.32 239.551 355.32C191.931 355.32 146.261 366.66 112.589 386.846C78.9169 407.031 60 434.408 60 462.954H239.551H419.101Z" stroke="#0C9DFE" stroke-width="43.6863"/>
</g>
<path d="M174.807 345.21L126.209 361.046C123.915 361.794 122.661 364.259 123.408 366.553L131.007 389.871C131.754 392.165 134.22 393.419 136.514 392.671L185.112 376.835C187.406 376.088 188.66 373.622 187.912 371.328L180.314 348.01C179.566 345.716 177.101 344.462 174.807 345.21Z" fill="#0C9DFE"/>
<path d="M344.308 399.204C316.905 379.418 279.224 368 239.5 368C199.776 368 162.095 379.418 134.692 399.204C110.839 416.428 96.8856 438.378 93.7026 461H239.5H385.297C382.114 438.378 368.162 416.428 344.308 399.204ZM344.308 399.204L350.125 391.148" stroke="#0C9DFE" stroke-width="20"/>
</g>
</g>
</g>
<defs>
<clipPath id="clip0_17_1104">
<rect width="512" height="512" fill="white"/>
</clipPath>
</defs>
</svg>
