<svg width="111" height="124" viewBox="0 0 111 124" fill="none" xmlns="http://www.w3.org/2000/svg">
<path d="M50.8999 100.18C50.1099 100.86 49.1699 101.53 48.3999 102.37C45.1799 105.89 40.5299 105.43 38.0399 102.27C36.9699 100.91 35.5599 99.8297 34.4199 98.5197C32.4499 96.2697 32.4499 92.8797 34.3499 90.5597C35.0299 89.7297 35.8399 89.0097 36.5099 88.1697C37.9999 86.2997 37.4599 84.4297 35.1799 83.7497C34.2499 83.4697 33.2199 83.4597 32.2399 83.4297C28.0499 83.2897 26.1299 81.4297 26.0299 77.2997C25.9899 75.4697 25.9799 73.6297 26.0299 71.7997C26.1499 67.7997 28.0999 65.8997 32.0699 65.7897C32.9799 65.7697 33.9099 65.7897 34.7899 65.6197C37.4299 65.0897 38.1399 62.8397 36.3399 60.8097C35.7399 60.1297 35.0299 59.5397 34.4399 58.8497C32.3599 56.4397 32.4199 52.8397 34.5999 50.4797C35.8899 49.0797 37.2299 47.7297 38.5699 46.3797C41.0599 43.8797 44.8699 43.7397 47.5499 46.0797C48.2399 46.6797 48.8299 47.3797 49.5199 47.9797C51.3099 49.5397 53.2199 49.0197 53.8699 46.7197C54.1599 45.6997 54.1599 44.5897 54.1999 43.5097C54.3499 39.5497 56.4899 37.3997 60.4499 37.3197C61.6099 37.2997 62.7699 37.2997 63.9299 37.3197C68.2099 37.3797 70.3799 39.4597 70.3299 43.7597C70.2999 45.8897 70.8399 47.4697 72.8399 48.4197C74.3799 49.1497 75.5999 48.9397 76.8899 47.7397C78.1299 46.5797 79.5099 45.4397 81.0399 44.7597C83.2899 43.7597 85.4399 44.5597 87.1999 46.1597C88.6599 47.4897 90.0099 48.9497 91.3799 50.3897C93.6199 52.7297 93.6899 56.5697 91.5299 58.9597C90.8699 59.6897 90.0699 60.3097 89.4399 61.0597C88.0299 62.7297 88.7299 64.9997 90.8799 65.4997C91.9899 65.7597 93.1799 65.7397 94.3399 65.7897C97.7299 65.9397 99.9299 67.9897 100.09 71.3597C100.19 73.5197 100.19 75.6997 100.09 77.8597C99.9299 81.1697 97.8699 83.1697 94.5299 83.3997C93.3799 83.4797 92.1799 83.3997 91.0799 83.6697C88.5199 84.3197 87.9999 86.3397 89.7099 88.3597C90.7599 89.6097 91.9199 90.8497 92.6199 92.2897C93.8499 94.8297 93.03 97.1497 91.16 99.1197C89.96 100.38 88.7399 101.63 87.4799 102.83C84.7699 105.42 81.4699 105.52 78.5599 103.11C77.7399 102.43 77.0299 101.59 76.1699 100.96C74.5699 99.7897 72.6299 100.49 72.1699 102.43C71.8999 103.55 71.9199 104.74 71.8699 105.9C71.7199 109.54 69.7199 111.61 66.1299 111.7C64.0599 111.76 61.9799 111.75 59.9099 111.7C56.4499 111.6 54.4299 109.58 54.2399 106.1C54.1999 105.44 54.2399 104.77 54.2199 104.1C54.1399 102.19 53.4799 100.7 50.9199 100.17L50.8999 100.18ZM43.2999 47.9397C42.3999 48.4397 41.6399 48.7497 41.0199 49.2297C40.3099 49.7797 39.7199 50.4997 39.0599 51.1297C36.0299 54.0497 35.6399 55.1497 38.8699 57.9197C39.1799 58.1897 39.4399 58.5197 39.6899 58.8497C42.0699 62.0497 41.4199 66.3597 37.9699 68.3297C36.7099 69.0497 34.9699 69.0597 33.4399 69.1597C30.3999 69.3597 29.6299 70.0397 29.4899 73.0397C29.4699 73.4597 29.4899 73.8697 29.4799 74.2897C29.4599 79.5697 29.5799 79.6697 34.8599 79.9397C37.4499 80.0697 39.3299 81.1897 40.4699 83.7197C41.9199 86.9497 40.7499 89.3397 38.5499 91.5397C35.3399 94.7397 36.6599 95.4897 38.6399 97.6297C38.8599 97.8697 39.1699 98.0297 39.4099 98.2597C43.0599 101.82 42.9999 101.76 46.8199 98.4897C48.6199 96.9497 50.7099 95.9397 53.2099 96.8897C55.7399 97.8497 57.6599 99.5097 57.6099 102.33C57.4999 109.05 59.2099 108.24 64.7599 108.28C65.0099 108.28 65.2499 108.23 65.4999 108.22C67.3199 108.15 68.1599 107.05 68.3899 105.39C68.4999 104.65 68.4999 103.89 68.4699 103.15C68.3199 100.2 69.7199 98.3497 72.3399 97.1297C75.0299 95.8797 77.1599 96.8997 79.2099 98.4597C79.8599 98.9597 80.3799 99.6297 80.9899 100.2C82.2199 101.36 83.4999 101.4 84.7199 100.24C86.0499 98.9897 87.3699 97.7197 88.5899 96.3597C89.6899 95.1397 89.6599 93.8197 88.4799 92.5997C88.0799 92.1797 87.6599 91.7797 87.2599 91.3597C84.9999 89.0397 84.3199 86.3397 85.7099 83.3797C86.9399 80.7697 89.2299 79.8897 92.0399 79.8997C95.9099 79.9097 96.6 79.1097 96.66 75.1797C96.72 70.9397 96.7399 68.8197 91.0299 69.1697C87.0899 69.4097 84.1699 65.1497 85.2599 61.4197C85.6999 59.9197 86.7599 58.4997 87.8299 57.2997C89.8599 55.0197 89.9299 54.1797 87.6999 51.9397C86.9999 51.2397 86.3099 50.5297 85.6299 49.8197C83.5299 47.6397 82.3599 47.5997 80.2799 49.7797C78.1699 51.9797 75.7499 53.0997 72.6899 52.2797C68.8899 51.2597 67.1499 49.0197 67.0099 44.9597C66.9499 43.3497 66.8399 41.7997 64.9899 41.0897C60.6999 39.4597 57.7999 41.3297 57.6999 45.8497C57.6999 46.1797 57.6999 46.5197 57.6799 46.8497C57.2799 50.8597 53.4199 53.5397 49.6099 52.1897C48.1199 51.6697 46.8899 50.4097 45.5399 49.4797C44.8199 48.9897 44.1099 48.4797 43.3299 47.9297L43.2999 47.9397Z" fill="#0C9DFE"/>
<path d="M80.3302 74.6397C80.3102 84.4697 72.8402 91.9497 63.0702 91.9397C53.1602 91.9397 45.7902 84.4197 45.7202 74.4397C45.6502 64.8997 53.9002 57.1597 63.1402 57.1797C72.3902 57.1997 80.7202 65.2797 80.3402 74.6397H80.3302ZM63.0802 88.1697C70.3102 88.7597 76.7902 81.7897 76.7302 74.4897C76.6702 67.3197 70.2202 60.9097 63.1302 60.8597C56.1602 60.8097 49.4102 66.9797 49.3902 74.5597C49.3602 82.2597 56.1702 88.8197 63.0802 88.1697Z" fill="#0C9DFE"/>
</svg>
