<svg width="650" height="650" viewBox="0 0 650 650" fill="none" xmlns="http://www.w3.org/2000/svg">
<g clip-path="url(#clip0_17_1137)">
<path d="M0 325C0 238.805 34.241 156.14 95.1903 95.1903C156.14 34.241 238.805 0 325 0C411.195 0 493.86 34.241 554.81 95.1903C615.759 156.14 650 238.805 650 325C650 411.195 615.759 493.86 554.81 554.81C493.86 615.759 411.195 650 325 650C238.805 650 156.14 615.759 95.1903 554.81C34.241 493.86 0 411.195 0 325ZM304.688 43.7531C277.469 52.0406 250.453 77.0656 228.028 119.112C220.64 133.091 214.285 147.593 209.016 162.5H304.688V43.7531ZM166.156 162.5C172.927 140.921 181.629 119.995 192.156 99.9781C199.181 86.696 207.293 74.0183 216.409 62.075C166.075 82.9492 122.769 117.797 91.6094 162.5H166.156ZM142.512 304.688C143.731 269.059 148.119 234.894 155.188 203.125H68.0062C52.8579 235.018 43.8187 269.466 41.3563 304.688H142.512ZM196.909 203.125C188.919 236.429 184.319 270.457 183.178 304.688H304.688V203.125H196.909ZM345.312 203.125V304.688H466.781C465.656 270.458 461.069 236.431 453.091 203.125H345.312ZM183.219 345.312C184.346 379.542 188.933 413.569 196.909 446.875H304.688V345.312H183.219ZM345.312 345.312V446.875H453.091C460.688 415.797 465.522 381.55 466.822 345.312H345.312ZM209.016 487.5C214.622 503.181 221 517.725 228.028 530.888C250.453 572.934 277.509 597.919 304.688 606.247V487.5H209.016ZM216.409 587.925C207.292 575.982 199.18 563.304 192.156 550.022C181.629 530.004 172.928 509.079 166.156 487.5H91.6094C122.767 532.204 166.074 567.053 216.409 587.925ZM155.188 446.875C147.841 413.484 143.598 379.485 142.512 345.312H41.3563C43.875 381.469 53.1781 415.716 68.0062 446.875H155.188ZM433.591 587.925C483.926 567.053 527.233 532.204 558.391 487.5H483.844C477.072 509.079 468.37 530.004 457.844 550.022C450.821 563.305 442.709 575.983 433.591 587.925ZM345.312 487.5V606.247C372.531 597.959 399.547 572.934 421.972 530.888C429 517.725 435.378 503.181 440.984 487.5H345.312ZM494.812 446.875H581.994C596.822 415.716 606.125 381.469 608.644 345.312H507.487C506.402 379.485 502.159 413.484 494.812 446.875ZM608.644 304.688C606.18 269.466 597.141 235.018 581.994 203.125H494.812C501.881 234.894 506.269 269.059 507.487 304.688H608.644ZM457.844 99.9781C467.878 118.828 476.612 139.791 483.844 162.5H558.391C527.233 117.796 483.926 82.9472 433.591 62.075C442.447 73.6125 450.572 86.3688 457.844 99.9781ZM440.984 162.5C435.715 147.592 429.361 133.091 421.972 119.112C399.547 77.0656 372.531 52.0812 345.312 43.7531V162.5H440.984Z" fill="#0C9DFE"/>
</g>
<defs>
<clipPath id="clip0_17_1137">
<rect width="650" height="650" fill="white"/>
</clipPath>
</defs>
</svg>
