<svg width="54" height="51" viewBox="0 0 54 51" fill="none" xmlns="http://www.w3.org/2000/svg">
<g clip-path="url(#clip0_17_1152)">
<path d="M0 0H24.05V3.77H19.78H0V0Z" fill="#0C9DFE"/>
<path d="M24.05 19.5195H0V23.4795H24.05V19.5195Z" fill="#0C9DFE"/>
<path d="M4.43 3.76953H0V19.5195H4.43V3.76953Z" fill="#0C9DFE"/>
<path d="M24.0499 3.76953H20.6499V19.5195H24.0499V3.76953Z" fill="#0C9DFE"/>
<path d="M19.7 19.5195L19.78 3.76953H22.35L22.03 19.5195" fill="#0C9DFE"/>
<path d="M29.3899 0H53.4399V3.77H49.1699H29.3899V0Z" fill="#0C9DFE"/>
<path d="M53.4399 19.5195H29.3899V23.4795H53.4399V19.5195Z" fill="#0C9DFE"/>
<path d="M33.8199 3.76953H29.3899V19.5195H33.8199V3.76953Z" fill="#0C9DFE"/>
<path d="M53.4498 3.76953H50.0498V19.5195H53.4498V3.76953Z" fill="#0C9DFE"/>
<path d="M49.0898 19.5195L49.1698 3.76953H51.7398L51.4298 19.5195" fill="#0C9DFE"/>
<path d="M0 27.1504H24.05V30.9204H19.78H0V27.1504Z" fill="#0C9DFE"/>
<path d="M24.05 46.6699H0V50.6299H24.05V46.6699Z" fill="#0C9DFE"/>
<path d="M4.43 30.9199H0V46.6699H4.43V30.9199Z" fill="#0C9DFE"/>
<path d="M24.0499 30.9199H20.6499V46.6699H24.0499V30.9199Z" fill="#0C9DFE"/>
<path d="M19.7 46.6699L19.78 30.9199H22.35L22.03 46.6699" fill="#0C9DFE"/>
<path d="M29.3899 27.1504H53.4399V30.9204H49.1699H29.3899V27.1504Z" fill="#0C9DFE"/>
<path d="M53.4399 46.6699H29.3899V50.6299H53.4399V46.6699Z" fill="#0C9DFE"/>
<path d="M33.8199 30.9199H29.3899V46.6699H33.8199V30.9199Z" fill="#0C9DFE"/>
<path d="M53.4498 30.9199H50.0498V46.6699H53.4498V30.9199Z" fill="#0C9DFE"/>
<path d="M49.0898 46.6699L49.1698 30.9199H51.7398L51.4298 46.6699" fill="#0C9DFE"/>
</g>
<defs>
<clipPath id="clip0_17_1152">
<rect width="53.44" height="50.63" fill="white"/>
</clipPath>
</defs>
</svg>
