<svg width="500" height="500" viewBox="0 0 500 500" fill="none" xmlns="http://www.w3.org/2000/svg">
<path d="M0 13.333H224.977V48.5996H185.033H0V13.333Z" fill="#0C9DFE"/>
<path d="M224.977 195.929H0V232.973H224.977V195.929Z" fill="#0C9DFE"/>
<path d="M41.4406 48.5957H0V195.93H41.4406V48.5957Z" fill="#0C9DFE"/>
<path d="M224.975 48.5957H193.17V195.93H224.975V48.5957Z" fill="#0C9DFE"/>
<path d="M184.284 195.93L185.033 48.5957H209.074L206.08 195.93" fill="#0C9DFE"/>
<path d="M274.929 13.333H499.905V48.5996H459.961H274.929V13.333Z" fill="#0C9DFE"/>
<path d="M499.905 195.929H274.929V232.973H499.905V195.929Z" fill="#0C9DFE"/>
<path d="M316.369 48.5957H274.929V195.93H316.369V48.5957Z" fill="#0C9DFE"/>
<path d="M499.998 48.5957H468.192V195.93H499.998V48.5957Z" fill="#0C9DFE"/>
<path d="M459.213 195.93L459.961 48.5957H484.002L481.103 195.93" fill="#0C9DFE"/>
<path d="M0 267.312H224.977V302.579H185.033H0V267.312Z" fill="#0C9DFE"/>
<path d="M224.977 449.908H0V486.952H224.977V449.908Z" fill="#0C9DFE"/>
<path d="M41.4406 302.574H0V449.908H41.4406V302.574Z" fill="#0C9DFE"/>
<path d="M224.975 302.574H193.17V449.908H224.975V302.574Z" fill="#0C9DFE"/>
<path d="M184.284 449.908L185.033 302.574H209.074L206.08 449.908" fill="#0C9DFE"/>
<path d="M274.929 267.312H499.905V302.579H459.961H274.929V267.312Z" fill="#0C9DFE"/>
<path d="M499.905 449.908H274.929V486.952H499.905V449.908Z" fill="#0C9DFE"/>
<path d="M316.369 302.574H274.929V449.908H316.369V302.574Z" fill="#0C9DFE"/>
<path d="M499.998 302.574H468.192V449.908H499.998V302.574Z" fill="#0C9DFE"/>
<path d="M459.213 449.908L459.961 302.574H484.002L481.103 449.908" fill="#0C9DFE"/>
</svg>
