<svg width="500" height="500" viewBox="0 0 500 500" fill="none" xmlns="http://www.w3.org/2000/svg">
<g clip-path="url(#clip0_19_3392)">
<path d="M1.56164 149.713H33.713V51.2284L185.284 203.81L204.942 184.02L52.7283 30.8842H147.988V2.40234H0L1.56164 149.713Z" fill="#0C9DFE"/>
<path d="M498.437 350.292H466.378V448.777L314.807 296.195L295.148 315.985L447.27 469.121H352.102V497.603H499.999L498.437 350.292Z" fill="#0C9DFE"/>
<path d="M351.276 1.57205V33.9378H449.108L297.537 186.519L317.195 206.308L469.409 53.0798V148.975H497.611V0L351.276 1.57205Z" fill="#0C9DFE"/>
<path d="M148.723 498.428V466.155H50.8913L202.462 313.574L182.804 293.784L30.6819 446.92V351.118H2.38867V500L148.723 498.428Z" fill="#0C9DFE"/>
</g>
<defs>
<clipPath id="clip0_19_3392">
<rect width="500" height="500" fill="white"/>
</clipPath>
</defs>
</svg>
