<svg width="55" height="55" viewBox="0 0 55 55" fill="none" xmlns="http://www.w3.org/2000/svg">
<g clip-path="url(#clip0_17_1183)">
<path d="M0.17 16.1898H3.67V5.53977L20.17 22.0398L22.31 19.8998L5.74 3.33977H16.11V0.259766H0L0.17 16.1898Z" fill="#0C9DFE"/>
<path d="M54.2599 37.8803H50.7699V48.5303L34.2699 32.0303L32.1299 34.1703L48.6899 50.7303H38.3299V53.8103H54.4299L54.2599 37.8803Z" fill="#0C9DFE"/>
<path d="M38.2399 0.17V3.67H48.8899L32.3899 20.17L34.5299 22.31L51.0999 5.74V16.11H54.1699V0L38.2399 0.17Z" fill="#0C9DFE"/>
<path d="M16.19 53.8995V50.4095H5.54001L22.04 33.9095L19.9 31.7695L3.34001 48.3295V37.9695H0.26001V54.0695L16.19 53.8995Z" fill="#0C9DFE"/>
</g>
<defs>
<clipPath id="clip0_17_1183">
<rect width="54.43" height="54.07" fill="white"/>
</clipPath>
</defs>
</svg>
