<svg width="500" height="500" viewBox="0 0 500 500" fill="none" xmlns="http://www.w3.org/2000/svg">
<path d="M251.086 71.7842C321.398 71.7842 391.771 71.7842 462.083 71.7842C488.209 71.7842 500 83.5131 500 109.391C500 203.037 500 296.682 500 390.328C500 416.33 487.154 429.051 461.028 429.051C320.343 429.051 179.72 429.051 39.0344 429.051C13.7148 429.051 0.0620578 415.398 0 390.141C0 296.496 0 202.85 0 109.205C0 84.8784 12.846 71.7842 36.9244 71.7222C108.291 71.598 179.657 71.7222 251.024 71.7222L251.086 71.7842ZM250.031 410.931C318.791 410.931 387.613 410.993 456.373 410.931C476.666 410.931 482.686 405.283 482.748 385.176C482.996 295.627 482.996 206.139 482.748 116.59C482.748 95.5524 475.86 89.0983 454.45 89.0983C318.419 88.9742 182.388 88.9742 46.3572 89.0983C23.4579 89.0983 18.1209 94.6836 18.1209 117.769C18.1209 205.767 18.1209 293.703 18.1209 381.701C18.1209 406.648 22.6511 411.054 48.281 411.054C115.49 411.054 182.76 411.054 249.969 411.054L250.031 410.931Z" fill="#0C9DFE"/>
<path d="M235.262 351.788H202.123V259.818H147.946V351.416H113.008V153.203H147.078V231.582H200.944V153.513H235.324V351.85L235.262 351.788Z" fill="#0C9DFE"/>
<path d="M282.922 152.709C307.249 152.709 330.52 151.158 353.482 153.082C380.849 155.378 401.266 174.802 405.052 206.389C409.334 242.445 412.623 279.245 398.101 314.742C389.475 335.718 374.954 349.557 352.923 351.667C330.086 353.839 306.876 352.163 282.922 352.163V152.771V152.709ZM314.323 178.836V325.665C350.131 328.519 365.273 319.769 370.361 288.864C373.899 267.33 374.767 244.617 372.223 222.959C367.817 185.29 354.475 176.291 314.385 178.898L314.323 178.836Z" fill="#0C9DFE"/>
</svg>
