<svg width="113" height="92" viewBox="0 0 113 92" fill="none" xmlns="http://www.w3.org/2000/svg">
<path d="M53.92 22.3997C65.25 22.3997 76.59 22.3997 87.92 22.3997C92.13 22.3997 94.03 24.2897 94.03 28.4597C94.03 43.5497 94.03 58.6398 94.03 73.7298C94.03 77.9198 91.96 79.9698 87.75 79.9698C65.08 79.9698 42.42 79.9698 19.75 79.9698C15.67 79.9698 13.47 77.7697 13.46 73.6997C13.46 58.6097 13.46 43.5197 13.46 28.4297C13.46 24.5097 15.53 22.3997 19.41 22.3897C30.91 22.3697 42.41 22.3897 53.91 22.3897L53.92 22.3997ZM53.75 77.0498C64.83 77.0498 75.92 77.0598 87 77.0498C90.27 77.0498 91.24 76.1397 91.25 72.8997C91.29 58.4697 91.29 44.0497 91.25 29.6197C91.25 26.2297 90.14 25.1897 86.69 25.1897C64.77 25.1697 42.85 25.1697 20.93 25.1897C17.24 25.1897 16.38 26.0897 16.38 29.8097C16.38 43.9897 16.38 58.1597 16.38 72.3397C16.38 76.3597 17.11 77.0698 21.24 77.0698C32.07 77.0698 42.91 77.0698 53.74 77.0698L53.75 77.0498Z" fill="#0C9DFE"/>
<path d="M51.3699 67.5195H46.0299V52.6995H37.2999V67.4595H31.6699V35.5195H37.1599V48.1495H45.8399V35.5695H51.3799V67.5295L51.3699 67.5195Z" fill="#0C9DFE"/>
<path d="M59.05 35.44C62.97 35.44 66.72 35.19 70.42 35.5C74.83 35.87 78.1201 39 78.7301 44.09C79.4201 49.9 79.9501 55.83 77.6101 61.55C76.2201 64.93 73.8801 67.16 70.3301 67.5C66.6501 67.85 62.91 67.58 59.05 67.58V35.45V35.44ZM64.1101 39.65V63.31C69.8801 63.77 72.32 62.36 73.14 57.38C73.71 53.91 73.8501 50.25 73.4401 46.76C72.7301 40.69 70.5801 39.24 64.1201 39.66L64.1101 39.65Z" fill="#0C9DFE"/>
</svg>
