<svg width="103" height="92" viewBox="0 0 103 92" fill="none" xmlns="http://www.w3.org/2000/svg">
<path d="M52.0199 26.0204C55.0699 22.6404 58.7399 20.0804 63.3099 19.3304C72.9499 17.7504 80.7399 20.6704 84.2599 29.1604C87.4099 36.7704 86.4899 44.3004 81.8599 51.2504C75.1999 61.2504 66.4799 69.3004 57.5399 77.1504C56.1699 78.3504 54.7299 79.4704 53.3599 80.6704C52.2999 81.6104 51.4199 81.5204 50.3299 80.6104C40.5599 72.4604 31.1499 63.9604 23.4199 53.7604C17.9999 46.6004 16.0199 38.8604 18.9199 30.1104C20.9899 23.8904 27.1699 19.1904 33.7499 19.0004C41.7199 18.7704 42.9499 19.2404 52.0099 26.0104L52.0199 26.0204ZM51.3999 31.4304C50.9399 30.9104 50.0899 30.0104 49.3299 29.0404C45.6099 24.2904 40.7499 22.2204 34.7499 22.4904C28.6999 22.7604 24.2599 26.0404 22.2099 31.7104C19.7699 38.4504 21.3399 44.5004 25.2599 50.0904C32.3699 60.2304 41.4699 68.4804 50.8999 76.3704C51.2899 76.6904 52.4599 76.5804 52.9199 76.2204C55.0099 74.5904 57.0299 72.8604 58.9899 71.0604C66.6999 64.0004 74.3099 56.8404 79.7499 47.7704C83.3699 41.7304 83.4999 35.4004 80.3199 29.2004C77.2099 23.1304 67.8699 20.3004 61.3099 23.7504C57.7599 25.6104 54.8499 28.6904 51.3899 31.4304H51.3999Z" fill="#0C9DFE"/>
</svg>
