<svg width="114" height="114" viewBox="0 0 114 114" fill="none" xmlns="http://www.w3.org/2000/svg">
<path d="M56.99 94.5701C36.64 95.0501 18.37 77.5201 18.93 55.5101C19.43 35.9001 35.88 17.8301 58.38 18.4501C77.63 18.9801 95.92 35.4401 95.13 58.1401C94.46 77.3601 78.02 94.9801 56.99 94.5701ZM22.92 56.5101C22.86 74.7601 38.06 90.2801 55.75 90.7001C75.89 91.1801 90.63 75.0001 91.16 57.8501C91.77 37.7501 75.67 23.0101 58.34 22.4201C38.46 21.7401 22.78 38.0201 22.93 56.5201L22.92 56.5101Z" fill="#0C9DFE"/>
<path d="M49.9599 50.2402H43.4199C42.5199 42.2602 48.5299 35.5002 56.3599 35.2902C60.5599 35.1802 64.4699 35.7302 67.6799 38.6302C71.9299 42.4602 72.2299 51.7402 67.7999 55.3702C67.2299 55.8402 66.7599 56.4302 66.1599 56.8502C62.6599 59.2702 60.1599 62.2702 60.3699 67.0002H53.7199C53.5499 61.8302 54.9899 57.5202 59.1699 54.3502C61.3099 52.7302 63.2599 51.0102 63.2799 47.9902C63.3099 44.5902 61.3699 41.7502 58.5899 41.3102C54.8399 40.7202 51.9299 42.3402 50.8199 45.8002C50.3999 47.1202 50.2799 48.5402 49.9699 50.2402H49.9599Z" fill="#0C9DFE"/>
<path d="M61.4399 79.2001H52.6799V71.9102H61.4399V79.2001Z" fill="#0C9DFE"/>
</svg>
