<svg width="500" height="500" viewBox="0 0 500 500" fill="none" xmlns="http://www.w3.org/2000/svg">
<g clip-path="url(#clip0_19_3284)">
<path d="M249.698 499.333C116.233 502.481 -3.59046 387.511 0.0822848 243.159C3.36152 114.547 111.248 -3.96457 258.814 0.101686C385.065 3.57768 505.019 111.53 499.838 260.408C495.444 386.461 387.623 502.022 249.698 499.333ZM26.2506 249.717C25.8571 369.409 125.546 471.197 241.565 473.952C373.653 477.1 470.325 370.983 473.801 258.506C477.802 126.68 372.21 30.0083 258.552 26.1388C128.169 21.6791 25.3324 128.451 26.3162 249.783L26.2506 249.717Z" fill="#0C9DFE"/>
<path d="M203.592 208.597H160.699C154.797 156.26 194.213 111.925 245.566 110.548C273.112 109.826 298.755 113.433 319.808 132.453C347.682 157.572 349.649 218.434 320.595 242.242C316.857 245.324 313.774 249.194 309.839 251.948C286.885 267.82 270.488 287.495 271.866 318.517H228.252C227.137 284.609 236.581 256.342 263.995 235.552C278.031 224.927 290.82 213.647 290.951 193.84C291.148 171.541 278.424 152.915 260.192 150.03C235.597 146.16 216.512 156.785 209.232 179.477C206.478 188.134 205.691 197.447 203.657 208.597H203.592Z" fill="#0C9DFE"/>
<path d="M278.883 398.529H221.431V350.719H278.883V398.529Z" fill="#0C9DFE"/>
</g>
<defs>
<clipPath id="clip0_19_3284">
<rect width="500" height="500" fill="white"/>
</clipPath>
</defs>
</svg>
