<svg width="100" height="100" viewBox="0 0 100 100" fill="none" xmlns="http://www.w3.org/2000/svg">
<path d="M0 48.51C1.36 47.39 2.83 46.38 4.07 45.14C17.79 31.48 31.48 17.79 45.15 4.07C46.39 2.83 47.4 1.36 48.52 0C49.18 0 49.84 0 50.5 0C58.19 7.87 65.85 15.78 73.59 23.61C81.23 31.34 89.04 38.92 96.59 46.75C98.05 48.27 98.64 50.62 99.63 52.59C99.13 52.92 98.63 53.25 98.13 53.58C82.13 37.35 66.14 21.13 49.39 4.14C45.3 8.56 41.96 12.39 38.39 15.99C26.9 27.58 15.35 39.09 3.78 50.59C2.67 51.7 1.27 52.52 0 53.47C0 51.82 0 50.17 0 48.52V48.51Z" fill="#0C9DFE"/>
<path d="M91.05 98.8601H55.7V71.5901H43.72V98.5901H7.95002C7.95002 92.6001 7.95002 86.5501 7.95002 80.5101C7.95002 71.7701 7.81002 63.0201 8.05002 54.2801C8.11002 52.2101 9.46002 50.1801 10.21 48.1301C10.71 48.2801 11.21 48.4301 11.71 48.5801V94.6901H39.52V67.6001H59.22V94.7801H87.01V48.7101C87.43 48.5101 87.84 48.3201 88.26 48.1201C89.19 49.7301 90.9 51.3201 90.92 52.9401C91.13 68.0801 91.04 83.2301 91.04 98.8501L91.05 98.8601Z" fill="#0C9DFE"/>
<path d="M87.16 12.0598H79.27V24.7598C72.52 19.8498 76.56 13.6898 75.03 8.25977H90.82V36.1098C85.3 33.3598 87.5 28.5798 87.22 24.7098C86.93 20.6398 87.16 16.5398 87.16 12.0598Z" fill="#0C9DFE"/>
</svg>
