<svg width="131" height="106" viewBox="0 0 131 106" fill="none" xmlns="http://www.w3.org/2000/svg">
<path d="M46.8999 80.8999V77.9999C49.3699 77.4199 51.0499 78.4799 52.5399 80.0299C52.9399 80.4499 53.2799 80.9199 53.6999 81.3199C55.2599 82.8499 57.0599 82.9499 58.7899 81.5899C59.6399 80.9199 60.4499 80.1999 61.2499 79.4799C62.5599 78.3099 64.0599 77.9599 65.8099 77.8799C68.4299 77.7599 70.4899 78.5599 72.1699 80.5399C72.6499 81.0999 73.2699 81.5699 73.8999 81.9499C75.2099 82.7599 76.5799 82.7699 77.8399 81.8399C78.5099 81.3499 79.1399 80.7899 79.6899 80.1799C82.5799 76.9999 88.5999 77.0099 91.1999 80.3899C92.1699 81.6499 93.3099 82.7099 95.1699 82.4999C96.6099 82.3399 97.6299 81.5699 98.5499 80.5999C100.36 78.6699 102.47 77.7999 105.19 77.8599C107.39 77.9099 108.96 78.8699 110.52 80.1699C111.71 81.1599 112.95 82.0899 114.33 83.1799V86.4199C112.57 86.6299 111.13 86.1799 109.87 85.1599C109.16 84.5899 108.57 83.8799 107.89 83.2799C105.61 81.2499 103.81 81.2799 101.54 83.3599C100.99 83.8599 100.49 84.4199 99.9099 84.8699C96.4499 87.5499 91.4999 87.1799 88.6899 83.8699C86.0599 80.7599 84.5099 81.2899 81.9599 83.7999C79.3199 86.3999 76.3599 87.3299 72.9099 86.0199C71.7199 85.5699 70.7299 84.5799 69.6699 83.7999C69.0699 83.3599 68.5399 82.8399 67.9599 82.3699C66.7399 81.3899 65.4899 81.4999 64.2999 82.3899C63.3799 83.0899 62.5399 83.8999 61.6299 84.5999C57.6699 87.6499 53.5199 87.2499 50.1699 83.6099C49.2999 82.6599 48.1799 81.9299 46.8999 80.8799V80.8999Z" fill="#0C9DFE"/>
<path d="M35.1799 69.49C35.2399 68.38 35.2999 67.26 35.3599 66.06C37.9599 66.02 39.8499 66.85 41.1599 68.76C43.2299 71.77 45.8499 71.42 48.0599 69.2C49.7499 67.5 51.5599 66.29 54.1199 66.24C56.5999 66.2 58.6799 66.84 60.3899 68.66C60.8999 69.2 61.4599 69.69 62.0699 70.12C63.6299 71.22 64.8299 71.22 66.3599 70.06C67.3499 69.31 68.1999 68.39 69.1699 67.62C71.6799 65.65 76.2099 65.81 78.6199 67.92C79.3099 68.52 79.8999 69.22 80.5899 69.83C82.1599 71.22 83.5599 71.35 85.3299 70.17C86.3599 69.49 87.2899 68.65 88.2599 67.87C91.1699 65.56 95.6699 65.73 98.5399 68.19C99.8399 69.31 101.23 70.32 102.79 71.54V74.85C100.36 75.09 98.6399 74.04 97.0899 72.59C96.7299 72.25 96.4499 71.82 96.0699 71.51C93.7799 69.57 92.4399 69.59 90.1999 71.58C88.7799 72.84 87.4599 74.18 85.4799 74.66C82.0899 75.48 79.2899 74.7 76.9899 72.05C74.7299 69.44 72.9599 69.38 70.5599 71.93C68.0499 74.6 65.1199 75.76 61.5999 74.49C60.3299 74.03 59.2299 73.04 58.0999 72.23C57.4299 71.75 56.8599 71.13 56.1999 70.62C55.1499 69.81 54.0099 69.87 52.9399 70.54C52.1799 71.02 51.4499 71.6 50.8399 72.26C47.3199 76 41.1899 75.91 38.4199 71.9C37.7599 70.94 36.5999 70.32 35.6699 69.54C35.5099 69.53 35.3399 69.51 35.1799 69.5V69.49Z" fill="#0C9DFE"/>
<path d="M44.3199 57.7903C44.3199 52.9703 41.7999 49.5003 38.6099 46.5003C36.0899 44.1403 35.0599 41.3303 35.2199 38.0303C35.3599 35.2203 35.7199 32.4203 36.0699 29.6203C36.1399 29.0603 36.6099 28.5603 36.8899 28.0303C37.0799 28.0703 37.2699 28.1203 37.4499 28.1603C37.4499 29.3603 37.5399 30.5703 37.4299 31.7603C37.0699 35.8803 38.6599 39.1403 41.5199 42.0203C45.1199 45.6503 46.2099 50.1203 45.3399 55.0903C45.1799 56.0203 44.6699 56.8903 44.3199 57.7903Z" fill="#0C9DFE"/>
<path d="M98.5601 57.2407C98.5601 52.6807 96.1101 49.2507 93.0401 46.4307C90.1101 43.7307 89.5601 40.4807 89.6501 36.9607C89.7101 34.4807 90.1801 32.0107 90.5401 29.5507C90.6101 29.0807 91.0101 28.6607 91.2601 28.2207L91.7901 28.3207C91.8401 29.0007 92.0001 29.7007 91.9101 30.3707C91.3001 34.9707 92.6501 38.7607 96.0201 42.0507C99.6001 45.5507 100.5 50.0707 99.8801 54.9207C99.7801 55.7007 99.3901 56.4507 99.1401 57.2107C98.9501 57.2207 98.7501 57.2307 98.5601 57.2507V57.2407Z" fill="#0C9DFE"/>
<path d="M71.75 58.1105C71.42 57.4505 71.22 57.2505 71.22 57.0405C71.22 52.9105 69.19 49.7105 66.37 47.0305C63.6 44.4005 62.16 41.4305 62.41 37.5505C62.59 34.8105 62.43 32.0505 63.4 29.4205C63.55 29.0005 63.85 28.6305 64.08 28.2305C64.25 28.2605 64.42 28.2905 64.59 28.3205C64.59 29.2605 64.63 30.1905 64.59 31.1305C64.39 35.1405 65.37 38.6805 68.36 41.5605C73.08 46.1205 73.56 51.6405 71.77 58.1105H71.75Z" fill="#0C9DFE"/>
</svg>
