<svg width="500" height="500" viewBox="0 0 500 500" fill="none" xmlns="http://www.w3.org/2000/svg">
<path d="M113.59 308.154C72.6419 271.897 51.9777 234.117 51.9777 198.24C51.9777 162.363 72.1348 124.838 98.7575 108.103C111.815 102.525 117.267 118.499 108.899 124.077C87.7283 137.388 70.9938 168.575 70.9938 198.494C70.9938 228.412 89.63 261.374 126.267 293.828C135.142 304.857 121.45 314.746 113.717 308.027L113.59 308.154ZM175.076 275.827C147.312 260.233 128.677 229.807 128.677 200.522C128.677 171.237 144.523 145.122 169.624 132.064C182.936 127.373 187.373 143.854 178.499 148.798C159.482 158.687 147.692 178.337 147.692 199.762C147.819 223.088 162.525 246.922 184.457 259.219C195.487 268.22 183.697 280.39 175.076 275.953V275.827ZM251.267 248.062C228.575 248.062 210.066 229.68 210.066 206.987C210.066 184.295 228.575 165.786 251.267 165.786V126.866C226.673 90.2282 184.331 65 136.79 65C61.2321 65 0 126.232 0 201.79C0 249.711 30.4259 284.32 62.1196 316.267L186.232 433.661C194.219 438.605 203.347 435.309 203.473 426.308V334.903C203.473 308.407 224.898 286.982 251.394 286.982L251.267 248.062Z" fill="#0C9DFE"/>
<path d="M386.41 308.154C427.358 271.897 448.022 234.117 448.022 198.24C448.022 162.363 427.865 124.838 401.242 108.103C388.185 102.525 382.733 118.499 391.1 124.077C412.271 137.388 429.005 168.575 429.005 198.494C429.005 228.412 410.37 261.374 373.732 293.828C364.858 304.857 378.55 314.746 386.283 308.027L386.41 308.154ZM324.924 275.827C352.687 260.233 371.323 229.807 371.323 200.522C371.323 171.237 355.476 145.122 330.375 132.064C317.064 127.373 312.626 143.854 321.5 148.798C340.517 158.687 352.307 178.337 352.307 199.762C352.18 223.088 337.475 246.922 315.542 259.219C304.513 268.22 316.303 280.39 324.924 275.953V275.827ZM248.732 248.062C271.425 248.062 289.934 229.68 289.934 206.987C289.934 184.295 271.425 165.786 248.732 165.786V126.866C273.326 90.2282 315.669 65 363.21 65C438.767 65 500 126.232 500 201.79C500 249.711 469.574 284.32 437.88 316.267L313.768 433.661C305.78 438.605 296.653 435.309 296.526 426.308V334.903C296.526 308.407 275.101 286.982 248.605 286.982L248.732 248.062Z" fill="#0C9DFE"/>
</svg>
