<svg width="500" height="500" viewBox="0 0 500 500" fill="none" xmlns="http://www.w3.org/2000/svg">
<path d="M65 249.043C65 177.562 65 106.121 65 34.6402C65 14.3044 79.1821 0 99.3549 0C199.852 0 300.39 0 400.888 0C420.409 0 435.243 14.8342 435.243 34.4772C435.243 177.073 435.283 319.667 435.243 462.263C435.243 484.065 419.227 500 397.709 500C298.883 500 200.056 500 101.23 500C81.179 500 65 483.699 65 463.485C65 392.004 65 320.564 65 249.083V249.043ZM411.81 106.61H89.0036V397.547H411.81V106.651V106.61ZM412.095 83.0142C412.095 66.5092 412.217 50.9822 412.054 35.496C411.973 27.6714 406.186 24.6149 399.706 23.1071C396.16 22.292 392.289 22.618 388.58 22.618C295.908 22.618 203.235 22.618 110.562 22.618C106.854 22.618 102.574 21.803 99.5587 23.3516C95.5241 25.43 89.6964 29.2608 89.4927 32.6433C88.4738 49.3114 89.0036 66.0609 89.0036 83.055H412.095V83.0142ZM412.013 421.55H88.3923C88.3923 432.635 88.3516 443.027 88.3923 453.46C88.4738 472.003 93.6495 477.056 112.559 477.056C204.62 477.056 296.641 477.056 388.703 477.056C391.392 477.056 394.204 477.382 396.812 476.852C405.452 475.059 411.321 469.68 411.81 460.877C412.543 448.08 412.013 435.202 412.013 421.509V421.55Z" fill="#0C9DFE"/>
<path d="M258.659 64.5132H242.072V47.1523H258.659V64.5132Z" fill="#0C9DFE"/>
<path d="M241.869 457.127V440.174H258.863V457.127H241.869Z" fill="#0C9DFE"/>
</svg>
