<svg width="151" height="196" viewBox="0 0 151 196" fill="none" xmlns="http://www.w3.org/2000/svg">
<path d="M30.47 92.0202C30.47 74.4802 30.47 56.9502 30.47 39.4102C30.47 34.4202 33.95 30.9102 38.9 30.9102C63.56 30.9102 88.23 30.9102 112.89 30.9102C117.68 30.9102 121.32 34.5502 121.32 39.3702C121.32 74.3602 121.33 109.35 121.32 144.34C121.32 149.69 117.39 153.6 112.11 153.6C87.86 153.6 63.61 153.6 39.36 153.6C34.44 153.6 30.47 149.6 30.47 144.64C30.47 127.1 30.47 109.57 30.47 92.0302V92.0202ZM115.57 57.0702H36.36V128.46H115.57V57.0802V57.0702ZM115.64 51.2802C115.64 47.2302 115.67 43.4202 115.63 39.6202C115.61 37.7002 114.19 36.9502 112.6 36.5802C111.73 36.3802 110.78 36.4602 109.87 36.4602C87.13 36.4602 64.39 36.4602 41.65 36.4602C40.74 36.4602 39.69 36.2602 38.95 36.6402C37.96 37.1502 36.53 38.0902 36.48 38.9202C36.23 43.0102 36.36 47.1202 36.36 51.2902H115.64V51.2802ZM115.62 134.35H36.21C36.21 137.07 36.2 139.62 36.21 142.18C36.23 146.73 37.5 147.97 42.14 147.97C64.73 147.97 87.31 147.97 109.9 147.97C110.56 147.97 111.25 148.05 111.89 147.92C114.01 147.48 115.45 146.16 115.57 144C115.75 140.86 115.62 137.7 115.62 134.34V134.35Z" fill="#0C9DFE"/>
<path d="M77.9899 46.7405H73.9199V42.4805H77.9899V46.7405Z" fill="#0C9DFE"/>
<path d="M73.8701 143.08V138.92H78.0401V143.08H73.8701Z" fill="#0C9DFE"/>
</svg>
