<svg width="164" height="173" viewBox="0 0 164 173" fill="none" xmlns="http://www.w3.org/2000/svg">
<path d="M45.2199 88.3405C45.2199 70.8905 45.3899 53.4405 45.0999 35.9905C45.0299 31.6505 49.6499 27.2405 53.7799 27.2905C72.2199 27.5205 90.6499 27.3905 109.09 27.3905C114.16 27.3905 117.79 31.0305 117.79 36.1305C117.79 70.9505 117.79 105.76 117.79 140.58C117.79 146.56 114.2 150.12 108.25 150.12C90.1399 150.12 72.0399 149.98 53.9299 150.22C49.3799 150.28 45.1199 145.43 45.1499 141.44C45.2899 123.74 45.2099 106.04 45.2099 88.3505L45.2199 88.3405ZM50.7999 88.2105C50.7999 105.41 50.7999 122.62 50.7999 139.82C50.7999 142.9 52.4499 144.57 55.4199 144.57C72.6199 144.57 89.8099 144.58 107.01 144.57C110.47 144.57 112.15 142.9 112.15 139.51C112.15 105.6 112.15 71.7005 112.15 37.7905C112.15 34.1605 111.29 33.1605 107.65 33.1405C90.1199 33.0805 72.5899 33.0905 55.0699 33.1205C52.0099 33.1205 50.7099 34.2005 50.7399 37.6105C50.8499 54.4805 50.7899 71.3505 50.7999 88.2205V88.2105Z" fill="#0C9DFE"/>
<path d="M79.1801 56.4502C82.0101 57.1202 84.5301 57.5002 86.8801 58.3302C90.5001 59.6202 94.1401 60.9701 96.9601 63.8001C99.2401 66.0901 100.43 68.8202 100.79 72.0102C101 73.8702 100.45 74.5601 98.4601 74.2701C94.2801 73.6701 90.0801 73.2402 85.8801 72.7902C84.9901 72.6902 84.0801 72.7801 82.7501 72.7801C82.7501 73.9001 82.7501 74.8502 82.7501 75.8002C82.7501 87.6802 82.7401 99.5602 82.7501 111.44C82.7501 115.01 82.0301 118.41 78.5401 119.93C76.3401 120.89 73.6701 121.05 71.2201 121.03C69.3401 121.01 67.3201 120.43 65.6301 119.58C62.5801 118.04 61.3801 114.25 62.3201 110.38C62.9101 107.95 66.0001 105.83 69.1501 105.75C71.4701 105.7 73.8101 105.6 76.1201 105.76C78.4701 105.93 79.2601 105.18 79.2401 102.71C79.1301 88.4201 79.1801 74.1301 79.1801 59.8501V56.4601V56.4502Z" fill="#0C9DFE"/>
<path d="M90.5601 38.9805V43.1305H72.5601V38.9805H90.5601Z" fill="#0C9DFE"/>
<path d="M79.4399 135.63H83.5999V139.81H79.4399V135.63Z" fill="#0C9DFE"/>
</svg>
