<svg width="89" height="86" viewBox="0 0 89 86" fill="none" xmlns="http://www.w3.org/2000/svg">
<path d="M34.99 58.42V52.04H66.92V58.42H34.99Z" fill="#0C9DFE"/>
<path d="M65.52 43H76.52V49.46H65.52V43Z" fill="#0C9DFE"/>
<path d="M25.5 49.4598V43.0098H35.23V49.4598H25.5Z" fill="#0C9DFE"/>
<path d="M61.04 34.1494H67.49V40.6694H61.04V34.1494Z" fill="#0C9DFE"/>
<path d="M52.1699 34.1592H58.6399V40.6392H52.1699V34.1592Z" fill="#0C9DFE"/>
<path d="M76.51 40.6795H69.96V34.1895H76.51V40.6795Z" fill="#0C9DFE"/>
<path d="M49.7799 40.6999H43.4099V34.1699H49.7799V40.6999Z" fill="#0C9DFE"/>
<path d="M25.5801 34.1494H31.9501V40.6494H25.5801V34.1494Z" fill="#0C9DFE"/>
<path d="M40.87 40.69H34.53V34.21H40.87V40.69Z" fill="#0C9DFE"/>
<path d="M76.5 58.48H70V52.04H76.5V58.48Z" fill="#0C9DFE"/>
<path d="M31.96 52.0498V58.4498H25.53V52.0498H31.96Z" fill="#0C9DFE"/>
<path d="M38.28 49.4195V43.0195H44.66V49.4195H38.28Z" fill="#0C9DFE"/>
<path d="M53.53 49.51H47.22V43H53.53V49.51Z" fill="#0C9DFE"/>
<path d="M62.4501 49.52H56.1201V43H62.4501V49.52Z" fill="#0C9DFE"/>
<path d="M51.47 32.1796C50.23 30.7496 50.47 28.8396 51.71 27.3296C52.98 25.7796 54.85 25.9696 56.89 25.4696C57.03 24.2696 57.19 22.9496 57.37 21.3896C57.81 21.7096 58.24 21.8596 58.35 22.1296C59.42 24.7396 58.19 26.8196 55.39 27.2196C52.96 27.5696 52.28 28.2496 51.9 30.6496C51.83 31.1096 51.64 31.5496 51.46 32.1796H51.47Z" fill="#0C9DFE"/>
</svg>
