<svg width="500" height="500" viewBox="0 0 500 500" fill="none" xmlns="http://www.w3.org/2000/svg">
<path d="M500 404.041H0V424.995H500V404.041Z" fill="#0C9DFE"/>
<path d="M250.53 394.398C181.814 394.398 113.097 394.398 44.3302 394.398C26.5579 394.398 21.8623 389.804 21.8623 372.334C21.8623 280.695 21.8623 189.056 21.8623 97.4174C21.8623 79.847 26.6588 75 44.0273 75C182.319 75 320.61 75 458.902 75C475.109 75 480.865 80.5034 480.865 96.4581C480.915 188.501 480.915 280.544 480.865 372.637C480.865 389.147 475.563 394.348 459.205 394.398C389.63 394.398 320.055 394.398 250.53 394.398ZM42.7146 373.091H459.255V96.3572H42.7651V373.041L42.7146 373.091Z" fill="#0C9DFE"/>
</svg>
