<svg width="500" height="500" viewBox="0 0 500 500" fill="none" xmlns="http://www.w3.org/2000/svg">
<g clip-path="url(#clip0_19_3129)">
<path d="M250.418 499.276C112.343 502.76 0.436702 384.409 0.00126975 250.864C-0.434162 118.144 111.167 -7.12976 264.526 0.31612C380.612 5.97673 506.408 106.561 499.746 263.883C494.652 384.148 390.192 502.063 250.418 499.276ZM474.491 250.21C473.098 124.196 373.776 30.6222 259.649 26.3985C126.015 21.4781 24.3855 129.073 26.2578 252.954C28.1302 376.876 126.32 470.32 241.709 474.108C374.56 478.419 473.664 372.565 474.491 250.21Z" fill="#0C9DFE"/>
<path d="M248.589 274.289C251.288 281.822 252.159 288.745 255.817 293.578C262.044 301.808 257.428 305.379 252.29 311.344C226.687 340.91 174.173 347.79 140.515 332.114C115.564 320.488 97.2762 302.81 87.3919 277.99C75.5482 248.337 77.377 218.641 93.575 190.207C108.554 163.907 131.632 148.362 160.109 141.918C181.053 137.172 202.477 138.87 222.855 147.709C241.665 155.852 256.949 168.174 267.182 185.766C274.192 197.871 279.287 211.108 285.296 223.779C296.835 248.25 308.069 272.852 320.13 297.062C327.271 311.431 341.858 311.3 355.052 311.431C361.453 311.518 368.463 309.21 374.211 306.119C389.146 298.15 392.76 290.226 390.017 272.721C388.232 261.226 378.87 258.265 369.16 254.521C350.741 247.423 332.366 239.716 315.166 230.093C299.621 221.428 294.614 199.438 298.141 182.065C303.714 154.937 322.612 144.4 346.517 141.439C367.766 138.826 385.358 148.449 398.203 165.78C399.292 167.217 399.771 169.96 399.205 171.658C396.592 179.017 379.828 182.195 374.124 176.578C360.625 163.385 339.159 165.214 329.884 177.144C319.651 190.251 321.915 207.146 343.948 215.549C360.451 221.82 377.477 226.914 393.457 234.229C429.38 250.602 428.901 301.503 399.771 323.754C360.321 353.886 304.15 342.608 284.86 292.577C275.15 267.409 261.129 243.896 251.288 218.772C242.885 197.305 229.952 181.412 208.355 173.704C187.236 166.171 165.857 166.346 145.914 177.754C114.998 195.432 105.201 223.474 111.21 256.915C115.216 279.253 129.542 296.147 150.355 304.856C184.145 319.008 219.85 311.3 240.969 281.256C242.71 278.774 245.541 277.032 248.632 274.289H248.589Z" fill="#0C9DFE"/>
</g>
<defs>
<clipPath id="clip0_19_3129">
<rect width="500" height="500" fill="white"/>
</clipPath>
</defs>
</svg>
