<svg width="235" height="330" viewBox="0 0 235 330" fill="none" xmlns="http://www.w3.org/2000/svg">
<path d="M111.84 204.49C107.27 204.49 102.69 204.35 98.1201 204.52C92.2201 204.74 86.9801 199.75 87.2301 193.53C87.4301 188.55 87.2101 183.55 87.2901 178.56C87.3501 174.75 86.0101 171.39 84.7601 167.86C82.4001 161.19 77.1401 156.73 73.2701 151.22C71.9801 149.39 70.7301 147.44 69.9401 145.36C68.3601 141.17 66.7601 136.92 65.8401 132.56C65.1501 129.28 65.4701 125.78 65.4301 122.38C65.3801 118.01 66.4501 113.86 68.1801 109.88C69.5501 106.73 70.7801 103.49 72.5001 100.54C75.6001 95.1904 79.7401 90.7004 84.9201 87.2404C88.8501 84.6104 93.0101 82.6004 97.5101 81.0104C103.93 78.7404 110.43 78.0204 117.07 78.5804C120.07 78.8304 123.02 80.0204 125.92 81.0104C128.58 81.9104 131.18 83.0204 133.75 84.1804C140.36 87.1804 145.56 91.9804 149.7 97.8104C153.44 103.07 155.98 108.85 157.5 115.29C158.54 119.69 158.77 123.98 158.47 128.27C158.2 132.19 157.08 136.12 155.82 139.87C154.58 143.59 153.02 147.27 151.03 150.64C149.36 153.48 146.7 155.73 144.8 158.46C142.86 161.24 141.3 164.29 139.58 167.22C134.81 175.34 137.06 184.27 136.78 192.87C136.64 197.16 135.15 200.53 131.91 202.9C130.38 204.02 128.04 204.33 126.04 204.42C121.31 204.63 116.57 204.49 111.83 204.49H111.84ZM111.84 197.76C111.84 197.76 111.84 197.76 111.84 197.75C115.83 197.75 119.82 197.8 123.81 197.73C127.32 197.67 129.42 195.58 129.47 192.08C129.54 187.01 129.6 181.93 129.48 176.86C129.38 172.69 130.5 168.91 131.97 165.03C134.16 159.26 137.74 154.46 141.67 150C147.57 143.3 150.38 135.48 151.03 126.85C151.27 123.65 150.27 120.36 149.91 117.1C149.27 111.23 146.46 106.35 142.98 101.8C138.84 96.3804 133.71 92.3304 127.4 89.4704C122.96 87.4604 118.35 86.6804 113.71 86.1704C108.97 85.6504 104.32 86.9104 99.7201 88.3004C95.6901 89.5104 92.0901 91.4204 88.8601 93.9504C83.7001 98.0004 79.2701 102.67 76.6001 108.9C74.5801 113.62 73.3101 118.46 72.8601 123.52C72.4201 128.54 73.5001 133.38 75.4301 137.98C76.8901 141.45 78.2101 145.17 80.4901 148.07C83.4401 151.82 86.5801 155.35 89.1001 159.49C92.5301 165.14 94.7601 170.93 94.4901 177.64C94.3001 182.46 94.4201 187.29 94.4901 192.11C94.5401 195.63 96.6401 197.7 100.11 197.75C104.02 197.8 107.92 197.76 111.83 197.76H111.84Z" fill="#0C9DFE"/>
<path d="M123.472 139.819C125.058 133.1 120.897 126.368 114.178 124.782C107.459 123.196 100.727 127.357 99.1409 134.076C97.5551 140.795 101.716 147.528 108.435 149.114C115.154 150.699 121.887 146.538 123.472 139.819Z" stroke="#0C9DFE" stroke-width="8" stroke-miterlimit="10"/>
<path d="M114.8 147.66H108.13V192.84H114.8V147.66Z" fill="#0C9DFE"/>
<path d="M120.55 207.62H102.39C99.6066 207.62 97.3501 209.877 97.3501 212.66C97.3501 215.444 99.6066 217.7 102.39 217.7H120.55C123.334 217.7 125.59 215.444 125.59 212.66C125.59 209.877 123.334 207.62 120.55 207.62Z" fill="#0C9DFE"/>
</svg>
