<svg width="96" height="108" viewBox="0 0 96 108" fill="none" xmlns="http://www.w3.org/2000/svg">
<path d="M49.8102 91.8002C48.9302 89.9902 48.0402 88.1902 47.1902 86.3702C42.1302 75.5302 37.0802 64.6802 32.0402 53.8302C30.0502 49.5402 28.3502 45.2002 28.5502 40.2902C29.0302 28.6202 38.8602 19.9402 49.1902 19.8202C57.5002 19.7302 63.9502 22.9202 68.3402 29.9402C72.6402 36.8102 72.6402 43.9802 69.2402 51.2602C64.2502 61.9502 59.3202 72.6702 54.3502 83.3702C53.0702 86.1302 51.7502 88.8802 50.4502 91.6402C50.2402 91.6902 50.0202 91.7502 49.8102 91.8002ZM50.0802 83.9302C51.0702 81.9202 51.8602 80.4102 52.5802 78.8702C56.1202 71.2402 59.6602 63.6002 63.1602 55.9502C64.6702 52.6502 66.5302 49.4402 67.4702 45.9802C69.3402 39.1302 67.5202 33.0202 62.3202 28.1202C57.2402 23.3402 51.1702 22.1302 44.6002 24.1002C35.2802 26.8902 28.4402 38.1602 33.9802 49.6302C38.5702 59.1402 42.8902 68.7802 47.3502 78.3602C48.1602 80.1002 49.0402 81.8102 50.0802 83.9202V83.9302Z" fill="#0C9DFE"/>
<path d="M60.0702 39.7698V42.9498C53.4502 43.0098 46.9102 42.9898 40.1802 42.9498V39.7598H60.0702V39.7698Z" fill="#0C9DFE"/>
</svg>
