<svg width="500" height="500" viewBox="0 0 500 500" fill="none" xmlns="http://www.w3.org/2000/svg">
<path d="M247.787 500C241.675 487.427 235.493 474.924 229.588 462.282C194.441 386.985 159.362 311.619 124.354 236.253C110.531 206.454 98.7221 176.307 100.111 142.201C103.446 61.1394 171.727 0.846399 243.481 0.0128554C301.204 -0.612302 346.007 21.5461 376.5 70.3083C406.369 118.029 406.369 167.833 382.752 218.401C348.09 292.656 313.846 367.119 279.323 441.444C270.432 460.615 261.263 479.717 252.233 498.889C250.774 499.236 249.246 499.653 247.787 500ZM249.663 445.333C256.54 431.372 262.027 420.883 267.028 410.186C291.618 357.186 316.207 304.117 340.519 250.979C351.008 228.056 363.928 205.759 370.457 181.725C383.447 134.144 370.805 91.7026 334.684 57.6663C299.398 24.4635 257.234 16.0586 211.598 29.7426C146.859 49.1225 99.3473 127.406 137.829 207.079C169.712 273.137 199.72 340.099 230.7 406.643C236.326 418.729 242.439 430.607 249.663 445.264V445.333Z" fill="#0C9DFE"/>
<path d="M319.055 138.586V160.675C273.072 161.092 227.643 160.953 180.896 160.675V138.517H319.055V138.586Z" fill="#0C9DFE"/>
<path d="M261.055 218.821H238.966C238.549 172.837 238.688 127.409 238.966 80.6611H261.125V218.821H261.055Z" fill="#0C9DFE"/>
</svg>
