<svg width="99" height="109" viewBox="0 0 99 109" fill="none" xmlns="http://www.w3.org/2000/svg">
<path d="M66.06 46.4802H70.4001C70.2901 52.1702 70.9701 57.7702 70.0801 63.2602C68.9401 70.3002 64.94 75.6402 58.66 79.0002C56.08 80.3802 53.1301 81.1002 49.9501 82.2602C49.6101 85.5302 49.77 89.2202 49.91 93.2002H60.8801V97.0302H34.3101V93.3202H45.37V81.9702C43.4 81.4102 41.53 81.0202 39.76 80.3602C31.82 77.4102 27.06 71.6502 25.14 63.4602C25.08 63.2202 25.05 62.9702 25.05 62.7202C25.05 57.4002 25.05 52.0702 25.05 46.5302H28.9401C29.0001 47.2202 29.1101 47.9402 29.1101 48.6602C29.1301 51.8302 29.09 54.9902 29.13 58.1602C29.21 64.5502 31.23 70.1002 36.46 74.0802C42.46 78.6502 49.83 79.4302 56.55 75.5902C62.74 72.0602 65.87 66.5902 66.03 59.4602C66.1 56.0502 66.06 52.6302 66.07 49.2102C66.07 48.3902 66.07 47.5702 66.07 46.4502L66.06 46.4802Z" fill="#0C9DFE"/>
<path d="M33.5 46.8399C33.5 42.5899 33.73 38.3299 33.45 34.1099C33.02 27.6499 38.93 20.1399 47.22 20.0499C54.32 19.9699 60 24.1799 61.74 31.5299C61.89 32.1699 61.88 32.8499 61.88 33.5099C61.88 42.3299 61.91 51.16 61.88 59.9799C61.85 67.4599 55.31 73.3 48.68 73.65C41.28 74.04 35.48 69.28 33.89 63.27C33.64 62.32 33.53 61.31 33.52 60.33C33.48 55.83 33.5 51.3399 33.5 46.8399ZM37.02 46.74C37.02 46.74 37.03 46.74 37.04 46.74C37.04 51.24 36.82 55.74 37.09 60.22C37.51 67.15 44.57 71.5699 50.64 69.5599C55.6 67.9099 58.18 64.46 58.32 58.83C58.51 50.84 58.46 42.8399 58.3 34.8499C58.26 32.9199 57.79 30.7899 56.85 29.1299C53.91 23.9699 49.91 23.1499 44.72 24.1099C40.37 24.9099 36.92 29.9899 37.01 33.9999C37.11 38.2399 37.03 42.49 37.03 46.74H37.02Z" fill="#0C9DFE"/>
<path d="M38.1799 40.9301C39.3499 39.8401 40.0099 39.2301 40.9199 38.3901C43.1299 40.5201 45.2999 42.6001 47.6599 44.8801C49.9599 42.6601 52.0799 40.6101 54.6499 38.1201C55.3199 38.9201 55.9299 39.6501 56.6799 40.5301C54.4399 42.8401 52.3899 44.9601 50.0899 47.3401C52.2899 49.5901 54.3499 51.7001 56.5999 54.0001C55.8299 54.8401 55.1399 55.6001 54.1799 56.6601C51.9699 54.3501 49.9299 52.2001 47.6299 49.8001C45.3599 52.0101 43.1399 54.1701 40.8599 56.3901C40.1199 55.5901 39.5099 54.9301 38.6999 54.0601C40.7899 51.9001 42.9299 49.6801 45.2699 47.2601C42.8799 45.1201 40.6699 43.1501 38.1799 40.9301Z" fill="#FF3C31"/>
</svg>
