<svg width="500" height="500" viewBox="0 0 500 500" fill="none" xmlns="http://www.w3.org/2000/svg">
<path d="M368.367 171.669H396.557C395.842 208.627 400.259 244.999 394.478 280.658C387.074 326.384 361.092 361.069 320.303 382.892C303.545 391.856 284.385 396.532 263.73 404.067C261.522 425.306 262.561 449.272 263.47 475.123H334.723V500H162.146V475.903H233.982V402.183C221.186 398.546 209.04 396.013 197.544 391.726C145.972 372.565 115.055 335.152 102.585 281.957C102.195 280.398 102 278.775 102 277.151C102 242.597 102 207.977 102 171.994H127.267C127.657 176.475 128.371 181.152 128.371 185.829C128.501 206.419 128.24 226.943 128.5 247.533C129.02 289.037 142.14 325.085 176.11 350.936C215.081 380.619 262.95 385.685 306.598 360.743C346.803 337.815 367.133 302.287 368.172 255.976C368.627 233.828 368.367 211.614 368.432 189.401C368.432 184.075 368.432 178.749 368.432 171.475L368.367 171.669Z" fill="#0C9DFE"/>
<path d="M156.884 174.013C156.884 146.408 158.378 118.739 156.56 91.3294C153.767 49.3706 192.153 0.591839 245.998 0.00727339C292.114 -0.51234 329.006 26.8323 340.308 74.5718C341.282 78.7287 341.217 83.1454 341.217 87.4322C341.217 144.72 341.412 202.073 341.217 259.359C341.022 307.943 298.544 345.876 255.481 348.149C207.417 350.682 169.745 319.765 159.417 280.729C157.794 274.559 157.079 267.999 157.014 261.633C156.754 232.405 156.884 203.241 156.884 174.013ZM179.747 173.364C179.747 173.364 179.812 173.364 179.877 173.364C179.877 202.592 178.448 231.821 180.202 260.919C182.93 305.93 228.786 334.638 268.212 321.583C300.428 310.866 317.185 288.458 318.094 251.891C319.329 199.994 319.004 148.032 317.965 96.1358C317.705 83.6001 314.652 69.7654 308.547 58.9834C289.451 25.4683 263.47 20.1423 229.76 26.3777C201.506 31.5738 179.098 64.5693 179.682 90.6149C180.332 118.154 179.812 145.76 179.812 173.364H179.747Z" fill="#0C9DFE"/>
<path d="M187.281 135.621C194.881 128.541 199.167 124.579 205.078 119.123C219.432 132.958 233.527 146.468 248.855 161.277C263.794 146.857 277.564 133.542 294.257 117.369C298.608 122.565 302.571 127.307 307.442 133.022C292.893 148.026 279.578 161.796 264.639 177.255C278.928 191.869 292.308 205.574 306.922 220.512C301.921 225.968 297.439 230.905 291.204 237.79C276.85 222.786 263.599 208.821 248.661 193.233C233.917 207.587 219.497 221.617 204.688 236.036C199.882 230.84 195.92 226.553 190.659 220.902C204.234 206.873 218.133 192.453 233.332 176.735C217.809 162.835 203.454 150.04 187.281 135.621Z" fill="#EC4E3E"/>
</svg>
