<svg width="500" height="500" viewBox="0 0 500 500" fill="none" xmlns="http://www.w3.org/2000/svg">
<g clip-path="url(#clip0_19_3836)">
<path d="M368.864 171.673H397.053C396.338 208.63 400.755 245.003 394.974 280.661C387.57 326.386 361.589 361.07 320.8 382.893C304.043 391.857 284.882 396.533 264.228 404.068C262.02 425.306 263.059 449.273 263.968 475.124H335.219V500H162.645V475.903H234.48V402.184C221.685 398.547 209.539 396.014 198.043 391.727C146.472 372.566 115.555 335.154 103.085 281.96C102.695 280.401 102.5 278.777 102.5 277.153C102.5 242.599 102.5 207.98 102.5 171.998H127.766C128.156 176.479 128.87 181.156 128.87 185.832C129 206.422 128.74 226.946 129 247.536C129.52 289.039 142.64 325.087 176.609 350.938C215.58 380.62 263.449 385.686 307.096 360.745C347.3 337.817 367.63 302.289 368.669 255.979C369.124 233.831 368.864 211.618 368.929 189.404C368.929 184.079 368.929 178.753 368.929 171.478L368.864 171.673Z" fill="#0C9DFE"/>
<path d="M157.384 174.011C157.384 146.407 158.878 118.738 157.059 91.3284C154.266 49.37 192.652 0.591832 246.497 0.00727331C292.612 -0.512335 329.504 26.832 340.805 74.571C341.78 78.7279 341.715 83.1445 341.715 87.4313C341.715 144.718 341.91 202.07 341.715 259.357C341.52 307.94 299.042 345.871 255.979 348.145C207.916 350.678 170.244 319.761 159.917 280.725C158.293 274.555 157.579 267.995 157.514 261.63C157.254 232.402 157.384 203.239 157.384 174.011ZM180.247 173.361C180.247 173.361 180.312 173.361 180.377 173.361C180.377 202.589 178.948 231.817 180.701 260.915C183.429 305.926 229.285 334.635 268.71 321.58C300.926 310.863 317.683 288.455 318.592 251.887C319.826 199.991 319.502 148.031 318.462 96.1347C318.202 83.5992 315.15 69.7646 309.044 58.9828C289.949 25.4681 263.968 20.1421 230.259 26.3774C202.005 31.5735 179.597 64.5686 180.182 90.6139C180.831 118.153 180.312 145.757 180.312 173.361H180.247Z" fill="#0C9DFE"/>
<path d="M187.781 135.625C195.38 128.545 199.667 124.583 205.577 119.127C219.931 132.962 234.026 146.472 249.354 161.281C264.293 146.862 278.063 133.547 294.755 117.374C299.107 122.57 303.069 127.311 307.94 133.027C293.391 148.031 280.076 161.8 265.137 177.259C279.427 191.873 292.806 205.577 307.42 220.516C302.419 225.972 297.938 230.908 291.702 237.793C277.348 222.789 264.098 208.825 249.159 193.237C234.416 207.591 219.996 221.62 205.188 236.039C200.381 230.843 196.419 226.556 191.158 220.906C204.733 206.876 218.632 192.457 233.831 176.739C218.308 162.839 203.954 150.044 187.781 135.625Z" fill="#EC4E3E"/>
</g>
<defs>
<clipPath id="clip0_19_3836">
<rect width="500" height="500" fill="white"/>
</clipPath>
</defs>
</svg>
