<svg width="136" height="168" viewBox="0 0 136 168" fill="none" xmlns="http://www.w3.org/2000/svg">
<path d="M30.2901 60.7598H36.9401C36.9401 61.7898 36.9401 62.6798 36.9401 63.5598C36.9401 69.0398 36.9001 74.5198 36.9401 79.9998C37.0601 92.7198 42.5501 102.39 53.9101 108.17C60.1001 111.32 66.8001 111.85 73.7601 110.04C81.8401 107.94 87.7201 103.26 91.9101 96.2698C94.2801 92.3198 95.8401 87.9898 95.9701 83.3898C96.1801 75.9398 96.0301 68.4698 96.0301 60.8198H102.47C102.57 61.1198 102.76 61.4198 102.76 61.7198C102.77 69.7698 103.33 77.8798 102.61 85.8698C101.76 95.1898 97.2701 102.89 89.8201 108.9C85.4301 112.45 80.4701 114.55 75.3001 116.39C74.8401 116.55 74.3201 116.56 73.8301 116.6C71.1901 116.82 69.8701 118.29 69.8701 121.01C69.8701 125 69.9301 128.98 69.8401 132.97C69.8001 134.79 70.4501 135.5 72.3001 135.47C76.5301 135.39 80.7701 135.58 84.9901 135.4C87.4801 135.29 88.5601 136.02 88.1601 138.59C88.0201 139.47 88.1401 140.4 88.1401 141.54H45.2901C45.1401 141.35 45.0601 141.29 45.0501 141.22C44.6034 137.366 46.3168 135.44 50.1901 135.44C53.7601 135.44 57.3301 135.39 60.8901 135.46C62.5801 135.49 63.2701 134.87 63.2401 133.13C63.1601 128.48 63.2001 123.83 63.2201 119.18C63.2201 117.72 62.7301 116.91 61.1501 116.69C48.6601 114.94 39.6301 108.22 33.7801 97.1898C31.3801 92.6698 30.1801 87.7798 30.2701 82.5798C30.3801 76.2698 30.3001 69.9598 30.3001 63.6498C30.3001 62.7598 30.3001 61.8598 30.3001 60.7698L30.2901 60.7598Z" fill="#0C9DFE"/>
<path d="M43.8499 61.1297C43.8499 54.3197 44.1599 47.4997 43.7699 40.7097C43.2499 31.5697 50.7699 22.1997 58.2199 19.8497C71.0899 15.7897 82.2499 20.4097 87.8599 32.4697C88.7899 34.4697 89.1099 36.9197 89.1199 39.1597C89.2299 53.1897 89.0099 67.2197 89.2399 81.2497C89.3799 89.2797 86.0899 95.5797 79.9099 100.02C74.0099 104.26 67.1899 105.5 59.9099 103.24C53.0599 101.12 48.3499 96.7597 45.4499 90.3897C44.5599 88.4297 43.9699 86.1697 43.9199 84.0297C43.7399 76.3997 43.8499 68.7597 43.8499 61.1197V61.1297ZM83.6399 61.2797C83.6399 61.2797 83.6099 61.2797 83.5999 61.2797C83.5999 54.5497 83.5999 47.8197 83.5999 41.0897C83.6099 32.5997 76.1099 24.0497 66.2499 24.2097C57.3899 24.3497 49.6799 31.9497 49.5499 40.4097C49.3599 53.1197 49.4699 65.8297 49.3999 78.5397C49.3799 82.2897 49.9899 85.7797 51.6199 89.2697C55.0899 96.6897 65.5599 100.75 73.5399 96.7997C80.3999 93.3997 83.5499 87.7397 83.6199 80.2297C83.6699 73.9197 83.6299 67.5997 83.6299 61.2897L83.6399 61.2797Z" fill="#0C9DFE"/>
</svg>
