<svg width="500" height="500" viewBox="0 0 500 500" fill="none" xmlns="http://www.w3.org/2000/svg">
<g clip-path="url(#clip0_19_3234)">
<path d="M102.6 171.974H129.604C129.604 176.156 129.604 179.77 129.604 183.344C129.604 205.596 129.442 227.849 129.604 250.102C130.091 301.754 152.385 341.022 198.515 364.493C223.65 377.285 250.857 379.437 279.12 372.087C311.931 363.559 335.808 344.555 352.822 316.17C362.446 300.13 368.781 282.547 369.309 263.868C370.161 233.615 369.552 203.282 369.552 172.217H395.703C396.109 173.435 396.881 174.654 396.881 175.872C396.922 208.561 399.196 241.493 396.272 273.938C392.82 311.784 374.588 343.053 344.335 367.458C326.509 381.873 306.367 390.401 285.374 397.872C283.506 398.522 281.394 398.563 279.404 398.725C268.684 399.619 263.324 405.588 263.324 416.633C263.324 432.835 263.567 448.997 263.202 465.199C263.04 472.59 265.679 475.473 273.191 475.351C290.368 475.026 307.586 475.798 324.722 475.067C334.833 474.62 339.219 477.584 337.594 488.021C337.026 491.594 337.513 495.37 337.513 500H163.511C162.902 499.228 162.577 498.985 162.537 498.7C160.723 483.05 167.68 475.229 183.409 475.229C197.906 475.229 212.402 475.026 226.858 475.311C233.721 475.432 236.523 472.915 236.401 465.849C236.076 446.967 236.239 428.084 236.32 409.202C236.32 403.273 234.33 399.984 227.914 399.091C177.196 391.984 140.527 364.696 116.772 319.906C107.027 301.551 102.154 281.694 102.519 260.579C102.966 234.955 102.641 209.332 102.641 183.709C102.641 180.095 102.641 176.44 102.641 172.014L102.6 171.974Z" fill="#0C9DFE"/>
<path d="M157.664 173.476C157.664 145.823 158.923 118.129 157.339 90.5563C155.227 53.4413 185.764 15.3924 216.016 5.84966C268.278 -10.6369 313.596 8.12366 336.376 57.096C340.153 65.2174 341.452 75.1662 341.493 84.2622C341.939 141.234 341.046 198.206 341.98 255.178C342.548 287.786 329.189 313.368 304.093 331.399C280.135 348.616 252.441 353.652 222.879 344.475C195.063 335.866 175.937 318.16 164.161 292.293C160.547 284.334 158.151 275.157 157.948 266.467C157.217 235.484 157.664 204.46 157.664 173.436V173.476ZM319.24 174.085C319.24 174.085 319.118 174.085 319.078 174.085C319.078 146.757 319.078 119.428 319.078 92.0994C319.118 57.6239 288.663 22.9047 248.624 23.5544C212.646 24.1229 181.338 54.9844 180.81 89.3381C180.038 140.95 180.485 192.562 180.201 244.173C180.12 259.401 182.597 273.573 189.216 287.745C203.306 317.876 245.822 334.363 278.227 318.322C306.083 304.516 318.874 281.532 319.159 251.036C319.362 225.413 319.199 199.749 319.199 174.126L319.24 174.085Z" fill="#0C9DFE"/>
</g>
<defs>
<clipPath id="clip0_19_3234">
<rect width="500" height="500" fill="white"/>
</clipPath>
</defs>
</svg>
