<svg width="91" height="132" viewBox="0 0 91 132" fill="none" xmlns="http://www.w3.org/2000/svg">
<path d="M61.46 69.7692C61.46 74.7692 61.3 79.7792 61.5 84.7692C61.83 93.0492 56.01 100.359 48.77 102.379C40.24 104.759 32.05 101.519 27.89 93.9292C26.55 91.4792 25.73 88.4492 25.66 85.6592C25.41 75.0792 25.55 64.4992 25.56 53.9192C25.57 42.6492 36.44 34.3592 47.44 36.6792C55.14 38.3092 61.99 46.2692 61.52 54.7892C61.24 59.7692 61.47 64.7892 61.47 69.7892L61.46 69.7692ZM57.98 69.8692C57.98 69.8692 57.96 69.8692 57.95 69.8692C57.95 64.4592 58.09 59.0492 57.92 53.6392C57.67 46.1892 51.25 40.0292 43.82 39.8592C36.36 39.6892 29.36 45.7892 29.17 53.2992C28.89 64.1892 28.86 75.1092 29.17 85.9992C29.43 95.1092 39.15 101.659 47.64 98.8992C53.65 96.9492 57.81 91.4892 57.95 85.0992C58.06 80.0292 57.97 74.9492 57.97 69.8692H57.98Z" fill="#0C9DFE"/>
<path d="M56.5 20.4395C56.52 24.4995 55.59 25.6295 52.08 26.2895C48.56 26.9562 46.4 29.1262 45.6 32.7995C45.5 33.2295 44.97 33.5695 44.64 33.9495C44.28 33.5195 43.66 33.1295 43.59 32.6595C42.99 28.6595 45.76 24.9895 49.73 24.4095C54.4 23.7295 54.38 23.7295 54.27 19.0495C54.26 18.5495 54.75 18.0295 55.01 17.5195C55.48 17.9795 56.12 18.3595 56.37 18.9195C56.62 19.4895 56.49 20.2295 56.5 20.4295V20.4395Z" fill="#0C9DFE"/>
<path d="M48.47 53.8494C48.47 54.8494 48.5 55.8494 48.47 56.8494C48.37 59.6694 46.3 61.6294 43.48 61.6094C40.71 61.5894 38.62 59.5494 38.56 56.7594C38.52 54.7594 38.51 52.7594 38.56 50.7594C38.63 47.9894 40.78 45.9694 43.56 45.9894C46.36 46.0094 48.38 47.9994 48.47 50.8494C48.5 51.8494 48.47 52.8494 48.47 53.8494ZM46.47 53.8194C46.47 53.8194 46.48 53.8194 46.49 53.8194C46.49 53.0794 46.54 52.3294 46.49 51.5894C46.35 49.7494 45.62 48.3694 43.53 48.3294C41.37 48.2894 40.72 49.8094 40.58 51.5794C40.46 53.1394 40.46 54.7294 40.6 56.2794C40.75 58.0094 41.66 59.3694 43.53 59.3694C45.37 59.3694 46.29 58.0594 46.46 56.2994C46.54 55.4794 46.47 54.6494 46.47 53.8194Z" fill="#0C9DFE"/>
</svg>
