<svg width="500" height="500" viewBox="0 0 500 500" fill="none" xmlns="http://www.w3.org/2000/svg">
<path opacity="0.96" fill-rule="evenodd" clip-rule="evenodd" d="M398.929 159.315C411.94 158.578 418.133 164.665 417.506 177.577C416.07 185.803 412.397 192.835 406.486 198.673C400.292 199.203 395.989 196.579 393.577 190.801C390.3 181.292 390.93 172.056 395.466 163.094C396.751 161.916 397.905 160.656 398.929 159.315Z" fill="#0C9DFE"/>
<path opacity="0.976" fill-rule="evenodd" clip-rule="evenodd" d="M322.733 163.723C339.681 162.735 349.127 170.607 351.071 187.338C351.112 192.462 349.748 197.184 346.977 201.507C345.035 204.764 342.935 207.912 340.68 210.952C339.861 212.15 339.441 213.41 339.421 214.731C351.862 213.031 364.352 211.457 376.889 210.008C383.186 209.588 389.484 209.588 395.781 210.008C399.165 210.264 402.418 210.999 405.542 212.212C407.346 217.802 407.556 223.469 406.171 229.214C402.747 239.421 398.969 249.497 394.836 259.441C393.348 263.99 393.033 268.608 393.892 273.295C397.847 271.948 401.416 269.954 404.597 267.312C407.64 263.849 410.685 260.385 413.728 256.922C417.309 240.626 424.76 226.457 436.083 214.416C447.251 205.513 459.215 204.254 471.977 210.638C477.989 216.92 480.193 224.372 478.589 232.993C472.407 250.819 459.918 260.894 441.121 263.219C440.53 273.65 445.358 277.954 455.605 276.129C463.438 273.891 470.574 270.323 477.015 265.423C481.837 259.552 486.875 253.885 492.129 248.421C498.021 247.677 500.436 250.301 499.37 256.292C498.289 261.392 496.19 266.01 493.073 270.146C482.433 284.777 468.474 294.748 451.197 300.058C443.3 301.651 435.533 301.231 427.897 298.799C420.575 294.977 416.062 288.995 414.358 280.851C408.013 285.095 402.031 289.817 396.411 295.02C390.853 299.374 384.556 301.787 377.519 302.262C366.616 302.275 361.159 296.817 361.146 285.889C361.621 279.261 362.776 272.753 364.61 266.368C368.328 255.214 371.791 243.984 375 232.678C374.256 231.585 373.206 230.955 371.851 230.789C369.748 230.503 367.649 230.188 365.554 229.844C358.016 230.861 350.46 231.7 342.884 232.363C345.621 235.414 348.455 238.353 351.385 241.179C356.705 252.195 358.174 263.74 355.794 275.814C351.44 297.857 341.26 316.643 325.252 332.174C316.522 339.814 306.447 342.543 295.025 340.36C288.644 338.426 284.97 334.124 284.005 327.451C283.503 321.964 283.713 316.506 284.635 311.078C286.544 302.213 289.062 293.607 292.192 285.26C286.806 289.596 281.243 293.689 275.504 297.539C269.841 301.246 263.649 303.45 256.927 304.151C243.997 302.45 238.54 295.103 240.554 282.111C243.22 272.223 246.265 262.462 249.685 252.829C249.579 250.408 248.53 248.519 246.537 247.161C245.361 246.714 244.416 247.028 243.703 248.106C236.427 259.579 228.66 270.704 220.403 281.481C213.324 289.896 204.613 295.879 194.27 299.428C179.769 303.06 172.737 297.497 173.174 282.741C166.281 292.739 157.15 299.771 145.781 303.836C139.684 305.037 134.961 303.043 131.612 297.854C130.435 293.107 129.7 288.279 129.408 283.37C122.613 289.389 115.477 294.952 107.998 300.058C103.311 303.19 98.1676 304.974 92.5693 305.411C85.0045 304.981 79.9667 301.203 77.456 294.076C77.036 290.297 77.036 286.519 77.456 282.741C80.6487 272.954 84.2173 263.297 88.1613 253.773C88.9138 251.096 89.2287 248.367 89.1059 245.587C81.4188 247.075 76.0662 251.483 73.0479 258.811C71.4044 263.112 70.1449 267.52 69.2696 272.035C67.7803 281.45 66.5209 290.896 65.4913 300.373C58.5225 303.151 51.7005 302.836 45.0253 299.428C42.3715 296.724 40.7972 293.471 40.3023 289.668C39.7178 282.887 40.1375 276.171 41.5618 269.516C43.6705 261.29 45.8745 253.104 48.1739 244.957C41.0188 246.336 36.2959 250.534 34.0051 257.552C32.1855 262.661 30.926 267.909 30.2268 273.295C29.3001 281.498 28.3556 289.684 27.393 297.854C17.7342 301.737 9.86267 299.428 3.77842 290.927C2.55631 288.693 1.50677 286.384 0.629803 284C0.209987 278.333 0.209987 272.665 0.629803 266.998C2.65356 261.662 4.22787 256.204 5.35273 250.625C1.90158 240.763 3.05607 231.528 8.8162 222.917C17.1967 214.419 27.2722 211.27 39.0429 213.471C40.2588 215.945 40.7836 218.568 40.6172 221.343C40.3567 225.993 39.622 230.506 38.4132 234.882C43.4704 226.255 50.0825 219.013 58.2494 213.157C63.4182 210.539 68.6657 210.329 73.9925 212.527C77.3357 214.62 79.1197 217.664 79.3452 221.658C79.4176 227.023 78.7879 232.272 77.456 237.401C81.8968 231.911 86.0952 226.243 90.0505 220.398C93.9793 215.448 98.9119 211.984 104.849 210.008C117.125 208.324 123.632 213.677 124.37 226.066C123.993 231.773 122.629 237.231 120.277 242.438C115.211 251.52 111.013 260.965 107.683 270.776C107.263 273.085 107.263 275.394 107.683 277.703C111.412 276.731 114.875 275.156 118.073 272.98C124.629 266.426 130.717 259.499 136.335 252.199C134.212 236.736 139.25 224.141 151.448 214.416C159.185 209.006 167.581 207.642 176.637 210.323C178.054 217.575 177.109 224.501 173.804 231.103C171.444 235.614 168.925 240.022 166.247 244.328C161.11 252.484 159.326 261.3 160.894 270.776C168.958 269.735 174.73 265.537 178.212 258.181C179.85 254.316 181.11 250.328 181.99 246.217C183.563 233.734 185.662 221.35 188.287 209.063C195.3 207.016 202.122 207.54 208.753 210.638C212.675 214.03 214.354 218.333 213.791 223.547C213.595 229.131 212.651 234.588 210.957 239.92C206.88 250.996 202.998 262.121 199.307 273.295C204.288 272.903 208.696 271.118 212.532 267.942C216.473 264.003 219.936 259.7 222.922 255.033C225.4 250.251 228.129 245.633 231.108 241.179C230.648 237.957 230.123 234.704 229.534 231.418C231.805 216.4 239.781 205.484 253.464 198.673C258.518 196.604 263.556 196.604 268.577 198.673C275.419 205.892 274.159 211.349 264.799 215.046C263.253 216.141 262.309 217.506 261.965 219.139C262.729 220.114 263.674 220.849 264.799 221.343C269.169 222.908 273.577 224.377 278.023 225.751C280.165 226.632 281.95 227.997 283.375 229.844C283.841 233.659 283.631 237.437 282.746 241.179C279.177 248.945 275.609 256.712 272.04 264.479C270.926 268.658 270.821 272.855 271.726 277.073C286.062 271.87 296.242 262.214 302.267 248.106C303.677 244.296 304.831 240.413 305.731 236.456C305.677 235.759 305.467 235.129 305.101 234.567C300.902 233.547 299.538 230.923 301.008 226.695C302.086 222.151 304.709 218.793 308.879 216.62C309.089 216.095 309.299 215.57 309.509 215.046C310.814 204.884 311.969 194.703 312.972 184.504C313.801 177.827 315.795 171.53 318.955 165.612C320.179 164.793 321.438 164.164 322.733 163.723ZM450.567 228.584C452.203 228.615 453.568 229.245 454.66 230.474C455.984 240.009 451.996 245.887 442.695 248.106C442.996 242.37 444.465 236.913 447.103 231.733C448.193 230.535 449.347 229.486 450.567 228.584ZM329.66 249.365C331.164 249.818 332.108 250.867 332.494 252.514C337.828 272.862 334.26 291.544 321.788 308.559C319.703 310.547 317.394 312.226 314.862 313.597C314.997 309.977 315.627 306.408 316.751 302.892C320.237 290.964 323.596 278.999 326.826 266.998C328.249 261.192 329.193 255.314 329.66 249.365Z" fill="#0C9DFE"/>
</svg>
