<svg width="794" height="290" viewBox="0 0 794 290" fill="none" xmlns="http://www.w3.org/2000/svg">
<path opacity="0.96" fill-rule="evenodd" clip-rule="evenodd" d="M633.5 0.500229C654.161 -0.671171 663.995 8.99553 663 29.5002C660.719 42.563 654.886 53.7297 645.5 63.0002C635.663 63.8416 628.83 59.6749 625 50.5002C619.797 35.4 620.797 20.7333 628 6.50023C630.04 4.62999 631.873 2.62999 633.5 0.500229Z" fill="#0C9DFE"/>
<path opacity="0.976" fill-rule="evenodd" clip-rule="evenodd" d="M512.5 7.50044C539.413 5.93101 554.413 18.431 557.5 45.0004C557.566 53.1367 555.399 60.6367 551 67.5004C547.915 72.6724 544.581 77.6724 541 82.5004C539.699 84.4025 539.032 86.4025 539 88.5004C558.757 85.8015 578.591 83.3015 598.5 81.0004C608.5 80.3337 618.5 80.3337 628.5 81.0004C633.874 81.4076 639.04 82.5743 644 84.5004C646.866 93.3773 647.199 102.377 645 111.5C639.562 127.709 633.562 143.709 627 159.5C624.636 166.724 624.136 174.058 625.5 181.5C631.781 179.361 637.448 176.195 642.5 172C647.333 166.5 652.167 161 657 155.5C662.686 129.622 674.519 107.122 692.5 88.0004C710.234 73.863 729.234 71.863 749.5 82.0004C759.046 91.9775 762.546 103.81 760 117.5C750.183 145.808 730.35 161.808 700.5 165.5C699.562 182.064 707.229 188.898 723.5 186C735.939 182.447 747.272 176.781 757.5 169C765.157 159.677 773.157 150.677 781.5 142C790.858 140.819 794.692 144.986 793 154.5C791.283 162.599 787.95 169.932 783 176.5C766.103 199.733 743.936 215.567 716.5 224C703.96 226.53 691.626 225.863 679.5 222C667.873 215.932 660.706 206.432 658 193.5C647.925 200.238 638.425 207.738 629.5 216C620.675 222.913 610.675 226.746 599.5 227.5C582.186 227.52 573.52 218.853 573.5 201.5C574.254 190.974 576.088 180.64 579 170.5C584.904 152.788 590.404 134.954 595.5 117C594.318 115.265 592.651 114.265 590.5 114C587.16 113.547 583.826 113.047 580.5 112.5C568.53 114.115 556.53 115.448 544.5 116.5C548.846 121.345 553.346 126.012 558 130.5C566.447 147.993 568.78 166.327 565 185.5C558.086 220.504 541.92 250.337 516.5 275C502.637 287.133 486.637 291.466 468.5 288C458.366 284.929 452.532 278.096 451 267.5C450.202 258.787 450.536 250.12 452 241.5C455.031 227.422 459.031 213.756 464 200.5C455.448 207.386 446.614 213.886 437.5 220C428.507 225.886 418.674 229.386 408 230.5C387.467 227.799 378.801 216.132 382 195.5C386.234 179.798 391.068 164.298 396.5 149C396.332 145.156 394.665 142.156 391.5 140C389.633 139.289 388.133 139.789 387 141.5C375.446 159.719 363.112 177.386 350 194.5C338.758 207.863 324.925 217.363 308.5 223C285.473 228.767 274.306 219.933 275 196.5C264.054 212.378 249.554 223.544 231.5 230C221.818 231.907 214.318 228.74 209 220.5C207.131 212.962 205.964 205.295 205.5 197.5C194.71 207.058 183.377 215.891 171.5 224C164.057 228.974 155.89 231.807 147 232.5C134.987 231.818 126.987 225.818 123 214.5C122.333 208.5 122.333 202.5 123 196.5C128.07 180.958 133.737 165.624 140 150.5C141.195 146.249 141.695 141.915 141.5 137.5C129.293 139.863 120.793 146.863 116 158.5C113.39 165.329 111.39 172.329 110 179.5C107.635 194.451 105.635 209.451 104 224.5C92.9336 228.912 82.1003 228.412 71.5 223C67.2858 218.706 64.7858 213.539 64 207.5C63.0717 196.733 63.7383 186.067 66 175.5C69.3486 162.437 72.8486 149.437 76.5 136.5C65.1378 138.689 57.6378 145.356 54 156.5C51.1104 164.614 49.1104 172.947 48 181.5C46.5285 194.526 45.0285 207.526 43.5 220.5C28.1618 226.666 15.6618 223 6 209.5C4.05929 205.952 2.39262 202.286 1 198.5C0.333332 189.5 0.333332 180.5 1 171.5C4.21373 163.027 6.71373 154.36 8.5 145.5C3.01958 129.84 4.85291 115.174 14 101.5C27.3082 88.0048 43.3082 83.0048 62 86.5004C63.9309 90.4278 64.7643 94.5945 64.5 99.0004C64.0863 106.385 62.9196 113.551 61 120.5C69.0309 106.8 79.5309 95.3003 92.5 86.0004C100.708 81.8431 109.041 81.5098 117.5 85.0004C122.809 88.3247 125.642 93.158 126 99.5004C126.115 108.021 125.115 116.355 123 124.5C130.052 115.782 136.719 106.782 143 97.5004C149.239 89.6391 157.072 84.1391 166.5 81.0004C185.995 78.3268 196.328 86.8268 197.5 106.5C196.901 115.563 194.734 124.23 191 132.5C182.955 146.921 176.288 161.921 171 177.5C170.333 181.167 170.333 184.833 171 188.5C176.922 186.956 182.422 184.456 187.5 181C197.911 170.593 207.578 159.593 216.5 148C213.129 123.444 221.129 103.444 240.5 88.0004C252.786 79.4101 266.119 77.2434 280.5 81.5004C282.749 93.0163 281.249 104.016 276 114.5C272.253 121.663 268.253 128.663 264 135.5C255.843 148.453 253.009 162.453 255.5 177.5C268.305 175.847 277.471 169.18 283 157.5C285.602 151.361 287.602 145.028 289 138.5C291.498 118.678 294.831 99.0114 299 79.5004C310.137 76.2487 320.97 77.082 331.5 82.0004C337.728 87.3867 340.394 94.22 339.5 102.5C339.189 111.368 337.689 120.034 335 128.5C328.526 146.089 322.36 163.756 316.5 181.5C324.409 180.878 331.409 178.044 337.5 173C343.759 166.745 349.259 159.912 354 152.5C357.935 144.906 362.268 137.573 367 130.5C366.269 125.384 365.435 120.218 364.5 115C368.106 91.1503 380.772 73.817 402.5 63.0004C410.527 59.7144 418.527 59.7144 426.5 63.0004C437.365 74.464 435.365 83.1307 420.5 89.0004C418.046 90.7405 416.546 92.9071 416 95.5004C417.214 97.0494 418.714 98.2154 420.5 99.0004C427.44 101.486 434.44 103.819 441.5 106C444.902 107.4 447.736 109.567 450 112.5C450.739 118.558 450.406 124.558 449 130.5C443.333 142.833 437.667 155.167 432 167.5C430.23 174.136 430.063 180.802 431.5 187.5C454.266 179.237 470.432 163.904 480 141.5C482.239 135.45 484.072 129.283 485.5 123C485.415 121.893 485.081 120.893 484.5 120C477.833 118.381 475.667 114.214 478 107.5C479.712 100.284 483.878 94.9511 490.5 91.5004C490.833 90.6671 491.167 89.8337 491.5 89.0004C493.573 72.8636 495.406 56.6969 497 40.5004C498.316 29.897 501.483 19.897 506.5 10.5004C508.444 9.19974 510.444 8.19974 512.5 7.50044ZM715.5 110.5C718.099 110.549 720.266 111.549 722 113.5C724.103 128.642 717.77 137.976 703 141.5C703.477 132.392 705.81 123.725 710 115.5C711.73 113.598 713.563 111.931 715.5 110.5ZM523.5 143.5C525.888 144.219 527.388 145.885 528 148.5C536.471 180.813 530.804 210.48 511 237.5C507.688 240.656 504.021 243.323 500 245.5C500.215 239.751 501.215 234.084 503 228.5C508.536 209.558 513.87 190.558 519 171.5C521.259 162.28 522.759 152.946 523.5 143.5Z" fill="#0C9DFE"/>
</svg>
