<svg width="500" height="500" viewBox="0 0 500 500" fill="none" xmlns="http://www.w3.org/2000/svg">
<path d="M426.988 95.0025C422.425 95.0025 417.861 95.0025 413.298 95.6417H412.647L411.994 95.0025C373.532 46.4107 312.907 17 250.326 17C187.744 17 126.467 46.4107 88.6567 95.6417L88.005 96.2812H87.3533C82.79 95.6417 78.2268 95.6417 73.6635 95.6417H44.9804V145.512L44.3285 146.151C17.601 158.299 0 185.153 0 214.564C0 243.973 17.601 270.827 44.3285 282.976H45.6323V284.254C46.2842 394.225 138.201 483.736 250.326 483.736C362.45 483.736 454.367 394.225 455.02 284.254V282.976L455.671 282.337C482.399 269.549 500 242.695 500 213.923C500 184.512 482.399 157.66 455.671 145.512L455.02 144.873V95.0025H426.988ZM142.112 111.626C170.796 83.4939 209.908 67.5097 250.326 67.5097C290.742 67.5097 329.857 83.4939 358.539 111.626L359.843 112.905L357.888 114.183C350.065 118.659 342.894 123.134 335.723 128.249L335.071 128.889L334.419 128.249C315.515 118.659 285.528 107.79 250.978 107.79C216.428 107.79 186.44 118.659 167.536 128.249L166.884 128.889L166.232 128.249C159.061 123.134 151.238 118.019 144.067 114.183L140.157 112.905L142.112 111.626ZM398.957 282.337C398.957 362.897 331.812 428.751 249.674 428.751C167.536 428.751 101.042 362.897 101.042 282.337V155.742L102.998 156.382C129.074 162.775 153.847 190.907 159.713 197.941C166.232 190.907 196.871 163.414 250.326 163.414C303.78 163.414 334.419 191.547 340.939 197.941C346.806 190.907 370.926 162.775 397.653 156.382L399.609 155.742V282.337H398.957Z" fill="#0C9DFE"/>
</svg>
