<svg width="500" height="500" viewBox="0 0 500 500" fill="none" xmlns="http://www.w3.org/2000/svg">
<path d="M248.993 60.833C325.632 113.452 402.272 166.071 478.911 218.69C485.084 222.907 491.05 227.382 500 233.76C414.514 291.677 331.033 348.308 243.644 407.562V301.45C168.342 274.96 82.8037 325.059 3.54106 439.761C-15.7988 298.57 41.295 171.009 243.901 171.163V60.833C245.598 60.833 247.296 60.833 248.993 60.833ZM35.1227 345.633C99.6747 277.018 180.069 263.079 269.876 270.743V356.229C331.599 314.36 389.824 274.909 450.982 233.452C389.619 191.84 331.393 152.389 268.539 109.8V189.731C215.097 201.664 164.072 207.374 117.574 224.965C65.727 244.562 40.9349 290.443 35.1227 345.633Z" fill="#0C9DFE"/>
</svg>
