<svg width="500" height="500" viewBox="0 0 500 500" fill="none" xmlns="http://www.w3.org/2000/svg">
<mask id="mask0_19_3778" style="mask-type:luminance" maskUnits="userSpaceOnUse" x="0" y="114" width="500" height="272">
<path d="M500 114.167H0V385.353H500V114.167Z" fill="white"/>
</mask>
<g mask="url(#mask0_19_3778)">
<path d="M244.025 114.592C249.915 118.957 255.466 123.914 261.822 127.516C331.186 167.177 400.72 206.584 473.517 247.982C393.898 293.152 316.906 336.838 236.737 382.346V249.762C226.906 255.016 220.381 258.363 213.983 261.965C150.339 298.024 86.737 334.211 23.093 370.185C15.8472 374.253 8.17771 377.516 0.677699 381.118C0.677699 296.372 0.635326 211.626 0.804817 126.838C0.762444 121.626 -3.72908 112.05 9.02517 114.592C13.093 117.94 16.7794 121.923 21.2709 124.508C87.0336 162.007 152.923 199.338 218.813 236.668C223.432 239.296 228.305 241.414 235.635 245.058V114.592C238.432 114.592 241.229 114.592 244.025 114.592ZM192.373 247.855C133.983 214.846 79.9573 184.253 23.9828 152.601V343.321C80.5505 311.245 134.534 280.652 192.373 247.855ZM427.373 247.855C369.11 214.889 315.084 184.296 258.898 152.516V343.321C315.466 311.287 369.491 280.652 427.373 247.855Z" fill="#0C9DFE"/>
<path d="M495.806 114.593V379.593C488.263 380.144 482.458 380.568 474.831 381.076V114.593H495.806Z" fill="#0C9DFE"/>
</g>
</svg>
