<svg width="84" height="77" viewBox="0 0 84 77" fill="none" xmlns="http://www.w3.org/2000/svg">
<path d="M23.0101 43.7603C22.5001 33.0503 32.4601 23.0603 43.6801 23.4103C55.0101 23.7603 63.9301 32.5203 63.9201 44.0003C63.9201 55.2503 54.6801 64.4803 43.4201 64.4603C31.8901 64.4403 22.4901 54.6703 23.0101 43.7603ZM60.4401 43.9603C60.4401 34.6203 52.8401 26.9903 43.4901 26.9803C34.0301 26.9703 26.5201 34.4303 26.5101 43.8703C26.5101 53.1903 34.1601 60.9503 43.3801 60.9803C52.5101 61.0103 60.4301 53.1103 60.4401 43.9703V43.9603Z" fill="#0C9DFE"/>
<path d="M43.1301 54.2898C37.2301 54.0198 32.7101 49.3198 32.9001 43.6398C33.1001 37.7698 38.1101 33.0798 43.8401 33.3798C49.6701 33.6898 54.2101 38.5998 53.8801 44.2298C53.5201 50.2598 48.9301 54.5498 43.1301 54.2898Z" fill="#0C9DFE"/>
</svg>
