<svg width="99" height="109" viewBox="0 0 99 109" fill="none" xmlns="http://www.w3.org/2000/svg">
<path d="M52.4801 90.4999C44.4001 90.4999 36.3301 90.5099 28.2501 90.4999C24.5301 90.4999 22.3301 88.3799 22.3201 84.6599C22.2901 68.3399 22.2901 52.0199 22.3201 35.6999C22.3201 32.0799 24.4801 29.9899 28.0701 29.9899C44.3901 29.9799 60.7101 29.9799 77.0301 29.9899C80.4501 29.9899 82.7301 32.1299 82.7401 35.5299C82.7901 52.0199 82.7901 68.4999 82.7401 84.9899C82.7301 88.3499 80.3701 90.4799 76.9501 90.4899C68.7901 90.5099 60.6301 90.4899 52.4701 90.4899L52.4801 90.4999ZM25.9601 59.9899C25.9601 67.6499 25.9601 75.3199 25.9601 82.9799C25.9601 86.0699 26.7301 86.8899 29.7301 86.8899C44.9701 86.8999 60.2201 86.8999 75.4601 86.8899C78.2001 86.8899 79.0601 86.0499 79.0601 83.3099C79.0801 67.9799 79.0801 52.6599 79.0601 37.3299C79.0601 34.2999 78.2501 33.5499 75.1601 33.5499C60.0801 33.5499 45.0101 33.5499 29.9301 33.5499C26.6901 33.5499 25.9601 34.2699 25.9601 37.4999C25.9501 44.9999 25.9601 52.4899 25.9601 59.9899Z" fill="#0C9DFE"/>
<path d="M44.0601 80.8799C43.7201 76.1599 47.1801 73.0799 52.5501 73.0899C57.9201 73.0899 61.3701 76.2099 60.9701 80.8799H44.0601Z" fill="#0C9DFE"/>
<path d="M40.9 44.4199V67.3299H38.23V44.5399C39.1 44.4999 39.9 44.4599 40.9 44.4199Z" fill="#0C9DFE"/>
<path d="M64.0901 67.3596V44.5996H66.8301V67.3596H64.0901Z" fill="#0C9DFE"/>
</svg>
