<svg width="117" height="129" viewBox="0 0 117 129" fill="none" xmlns="http://www.w3.org/2000/svg">
<path d="M80.1299 61.0005H91.6299C91.6299 62.0505 91.6299 62.7905 91.6299 63.5205C91.6299 76.3005 91.6299 89.0705 91.6299 101.84C91.6299 106.22 88.7999 109.02 84.3799 109.02C65.5599 109.02 46.7299 108.91 27.9099 109.12C24.1999 109.16 20.3799 105.39 20.4399 101.7C20.6399 89.0105 20.5199 76.3205 20.5199 63.6305C20.5199 62.8905 20.5199 62.1505 20.5199 61.0805H31.9799C32.0499 59.9005 32.1499 59.0305 32.1499 58.1605C32.1599 51.8605 32.1299 45.5505 32.1699 39.2505C32.2299 29.1905 40.1299 19.8505 49.8699 17.2605C62.5399 13.8905 75.0299 21.2805 78.6899 32.1605C79.4399 34.3905 79.9999 36.7805 80.0699 39.1105C80.2599 45.4905 80.1299 51.8805 80.1299 58.2705C80.1299 59.0805 80.1299 59.8905 80.1299 61.0005ZM87.1199 65.5405H24.8999C24.8999 77.2205 24.8999 88.6705 24.8999 100.12C24.8999 103.64 25.9099 104.61 29.5299 104.62C47.2899 104.62 65.0399 104.62 82.7999 104.62C86.3299 104.62 87.2299 103.75 87.2299 100.26C87.2399 89.3905 87.2299 78.5105 87.2299 67.6405C87.2299 66.9905 87.1599 66.3305 87.1199 65.5505V65.5405ZM75.7099 60.8305C75.7099 55.9005 75.8299 51.1105 75.6699 46.3305C75.5499 42.5605 75.4199 38.7405 74.7099 35.0505C73.3699 28.0805 65.1999 21.4305 58.0899 20.9405C46.8499 20.1705 37.0699 28.4505 36.6099 39.9305C36.3499 46.5505 36.4999 53.1805 36.4799 59.8105C36.4799 60.1205 36.6499 60.4305 36.7599 60.8305H75.7099Z" fill="#0C9DFE"/>
</svg>
