<svg width="500" height="500" viewBox="0 0 500 500" fill="none" xmlns="http://www.w3.org/2000/svg">
<g clip-path="url(#clip0_19_3118)">
<path d="M499.948 250.455C499.948 390.422 389.736 499.704 248.881 499.999C112.614 500.295 -2.26075 385.468 0.0337911 245.132C2.1803 114.408 114.317 -3.89445 258.651 0.098249C386.775 3.64732 504.389 114.925 499.874 250.382H499.948V250.455ZM248.881 474.269C373.378 474.269 474.338 374.821 474.412 252.156C474.412 126.312 375.821 26.4205 251.323 26.4205C126.826 26.4205 26.236 126.09 26.236 252.526C26.236 378.961 128.158 474.195 248.881 474.195V474.269Z" fill="#0C9DFE"/>
<path d="M251.397 264.803C251.397 276.042 250.953 289.573 251.472 303.029C252.804 338.003 253.026 338.003 288.702 341.847C289.146 346.801 289.591 352.051 290.109 358.631H161.466V342.809C198.919 335.636 199.289 335.636 199.733 296.966C200.177 261.254 199.733 225.615 199.733 189.903C199.733 164.911 193.886 149.68 166.351 149.754C164.575 149.754 162.725 147.536 156.581 143.469C166.055 142.138 170.94 140.955 175.9 140.955C213.501 140.807 251.101 140.364 288.628 141.177C300.767 141.473 313.202 143.839 324.823 147.462C347.768 154.56 359.907 171.788 360.869 195.67C362.054 224.063 354.282 240.995 328.82 249.35C304.838 257.261 279.08 259.627 251.397 264.877V264.803ZM251.916 240.107C274.861 240.255 296.548 241.808 307.429 219.552C314.682 204.691 314.534 188.498 303.432 174.376C289.369 156.482 270.494 159.662 251.842 160.993V240.033H251.916V240.107Z" fill="#0C9DFE"/>
</g>
<defs>
<clipPath id="clip0_19_3118">
<rect width="500" height="500" fill="white"/>
</clipPath>
</defs>
</svg>
