<svg width="500" height="500" viewBox="0 0 500 500" fill="none" xmlns="http://www.w3.org/2000/svg">
<g clip-path="url(#clip0_19_3156)">
<path d="M0 500.243C8.13609 481.542 14.8757 466.12 21.6153 450.698C40.9841 406.134 60.0492 361.446 79.9644 317.183C83.7289 308.804 90.3471 301.336 96.9652 294.718C186.523 204.857 276.324 115.178 366.063 25.4378C397.636 -6.13514 437.406 -6.43871 468.311 25.6199C478.269 35.9418 488.53 47.2352 494.237 60.0465C506.806 88.1585 497.82 113.235 476.933 134.182C389.318 222.161 301.035 309.412 214.149 398.119C193.445 419.249 167.458 428.296 142.078 439.647C98.2403 459.259 54.2811 478.506 10.3219 497.814C8.56112 498.604 6.49673 498.786 0.0607185 500.365L0 500.243ZM129.085 304.069C146.268 308.076 154.646 317.973 154.464 333.273C154.282 346.206 159.686 357.317 170.979 358.896C185.491 360.96 206.56 363.268 214.939 355.253C286.767 286.4 356.288 215.057 426.902 144.929C433.945 137.886 433.338 134.182 426.902 128.171C408.626 110.867 390.593 93.3195 372.682 75.6508C366.549 69.5791 362.117 70.672 356.288 76.5008C281.302 151.851 206.135 227.019 129.024 304.19L129.085 304.069ZM180.269 391.319C165.09 386.947 149.121 386.704 140.621 378.629C131.574 370.068 130.117 353.796 124.288 341.41C122.284 337.159 117.305 332.181 113.116 331.634C109.655 331.209 103.583 335.884 101.762 339.77C90.4078 363.693 80.268 388.162 69.0353 412.145C65.453 419.795 65.2102 426.292 72.9212 429.935C77.9 432.303 85.0647 433.76 89.922 431.999C105.83 426.231 121.191 419.006 136.613 412.024C150.943 405.466 165.09 398.544 180.208 391.319H180.269ZM408.323 26.4092C403.526 30.5987 395.329 36.1847 389.804 43.7136C388.286 45.8387 393.75 54.7034 397.697 58.8929C412.391 74.4365 427.509 89.6157 443.113 104.188C447.181 108.013 456.775 112.567 458.718 110.927C465.457 105.038 474.929 96.2339 474.383 89.2514C472.136 61.7466 437.345 29.2022 408.323 26.47V26.4092Z" fill="#0C9DFE"/>
</g>
<defs>
<clipPath id="clip0_19_3156">
<rect width="500" height="500" fill="white"/>
</clipPath>
</defs>
</svg>
