<svg width="500" height="500" viewBox="0 0 500 500" fill="none" xmlns="http://www.w3.org/2000/svg">
<g clip-path="url(#clip0_17_43)">
<path d="M444.921 214.929L444.204 214.491L443.435 214.153C388.287 189.898 241.567 146.565 97.1951 188.608L96.66 188.764L96.1409 188.967C73.0405 197.992 53.8515 210.601 40.0116 222.265C33.0899 228.099 27.3694 233.812 23.0967 238.88C19.2378 243.458 15.3596 248.887 13.9197 254.03C12.8324 257.913 12.285 263.794 12.0872 269.522C11.8773 275.602 12.0246 282.772 12.7684 289.728C13.4901 296.48 14.8639 303.95 17.5583 310.1C19.951 315.561 25.6959 324.825 37.1646 324.852C49.3687 324.924 69.889 324.372 89.3734 321.931C99.1068 320.711 108.929 318.98 117.461 316.49C125.552 314.129 134.317 310.587 140.228 304.678C143.486 301.42 146.067 296.417 147.949 292.255C150.069 287.567 152.171 281.922 154.03 275.956C157.316 265.408 160.187 252.758 160.717 241.75C160.719 241.702 160.748 241.659 160.792 241.638C163.8 240.219 169.021 238.734 176.605 237.482C191.525 235.017 212.253 233.961 234.381 234.046C256.393 234.131 279.248 235.34 298.208 237.237C307.692 238.186 316.079 239.295 322.83 240.493C329.848 241.738 334.256 242.94 336.31 243.814C341.054 245.831 342.059 247.575 342.473 248.437C343.257 250.069 343.623 252.38 343.953 257.97C343.972 258.297 343.991 258.629 344.011 258.967C344.635 269.805 345.557 285.798 361.167 302.326C377.173 319.271 402.565 325.636 422.576 327.53C432.916 328.508 442.702 328.379 450.519 327.546C454.406 327.132 458.06 326.517 461.177 325.675C462.731 325.255 464.368 324.721 465.929 324.022C467.328 323.395 469.488 322.279 471.414 320.353C477.476 314.29 487.008 298.289 487 278.471C486.992 257.248 476.112 233.992 444.921 214.929Z" stroke="#0C9DFE" stroke-width="25"/>
</g>
<defs>
<clipPath id="clip0_17_43">
<rect width="500" height="500" fill="white"/>
</clipPath>
</defs>
</svg>
