<svg width="500" height="500" viewBox="0 0 500 500" fill="none" xmlns="http://www.w3.org/2000/svg">
<g clip-path="url(#clip0_3_472)">
<path d="M249.256 499.33C117.863 503.497 -4.06358 386.869 0.103832 242.261C3.73544 116.167 111.612 -1.5328 253.78 0.0150998C383.685 1.44393 505.075 113.131 499.836 260.24C495.431 385.023 387.138 503.199 249.256 499.33ZM250.506 26.1507C128.043 25.3768 24.632 125.871 25.8823 251.786C27.1325 376.391 126.138 472.42 245.803 474.147C376.064 476.052 471.379 373.533 474.117 255.775C477.154 125.454 370.885 25.6745 250.506 26.1507Z" fill="#0C9DFE"/>
<path d="M181.087 133.49C248.004 172.545 312.956 210.469 380.885 250.119C312.36 290.126 247.587 327.93 181.087 366.687V133.431V133.49ZM205.972 178.32V321.858C247.23 297.746 286.403 274.825 328.732 250.119C286.463 225.412 247.468 202.61 205.972 178.32Z" fill="#0C9DFE"/>
</g>
<defs>
<clipPath id="clip0_3_472">
<rect width="500" height="500" fill="white"/>
</clipPath>
</defs>
</svg>
