<svg width="500" height="500" viewBox="0 0 500 500" fill="none" xmlns="http://www.w3.org/2000/svg">
<g clip-path="url(#clip0_19_3301)">
<path d="M499.852 141.329C453.147 135.251 408.514 129.43 361.205 123.267C360.428 132.597 359.306 139.959 359.392 147.406C359.738 230.098 360.86 312.874 360.342 395.566C360.169 417.394 358.098 440.164 351.364 460.623C340.486 493.751 310.616 500 279.796 500C248.113 500 218.415 492.724 203.912 461.308C185.696 421.846 215.307 382.554 263.738 380.671C287.997 379.729 312.342 380.5 339.191 380.5V0C385.033 12.4123 429.234 20.1164 464.111 49.9058C490.874 72.6759 500.888 103.321 499.938 141.329H499.852ZM333.321 404.383C304.141 406.608 276.256 406.78 249.321 411.83C240.516 413.457 228.947 427.41 228.17 436.483C227.393 445.557 236.285 459.339 244.918 464.475C267.019 477.658 292.228 478.343 314.501 464.475C334.961 451.721 331.853 429.036 333.407 404.297L333.321 404.383ZM366.558 96.1308C399.968 100.668 433.378 105.29 468.255 109.998C457.464 70.4503 416.025 42.3729 366.558 38.692V96.1308Z" fill="#0C9DFE"/>
<path d="M0.0869141 131.395V109.652H258.042C258.56 116.158 259.078 122.835 259.768 131.395H0.173246H0.0869141Z" fill="#0C9DFE"/>
<path d="M0 219.479V197.394H258.214C258.646 204.413 258.991 211.09 259.509 219.479H0Z" fill="#0C9DFE"/>
<path d="M0.172852 312.787V290.787H257.869V312.787H0.172852Z" fill="#0C9DFE"/>
</g>
<defs>
<clipPath id="clip0_19_3301">
<rect width="500" height="500" fill="white"/>
</clipPath>
</defs>
</svg>
