<svg width="143" height="144" viewBox="0 0 143 144" fill="none" xmlns="http://www.w3.org/2000/svg">
<path d="M73.1101 121.51C51.0401 122.21 30.5601 102.62 31.2601 78.3302C31.8701 57.1502 49.9901 37.3802 73.8701 37.6402C95.6901 37.8802 116.08 56.6402 115.2 81.3502C114.46 102.31 96.2701 122.16 73.1101 121.51ZM73.3201 42.0302C52.7501 41.9002 35.3801 58.7802 35.5901 79.9302C35.8001 100.86 52.4301 116.99 72.5301 117.28C94.4101 117.6 110.42 100.38 110.88 80.6002C111.39 58.7102 93.5401 41.9502 73.3201 42.0302Z" fill="#0C9DFE"/>
<path d="M61.6599 60.0598C72.8999 66.6198 83.8099 72.9898 95.2199 79.6498C83.7099 86.3698 72.8299 92.7198 61.6599 99.2298V60.0498V60.0598ZM65.8399 67.5898V91.6998C72.7699 87.6498 79.3499 83.7998 86.4599 79.6498C79.3599 75.4998 72.8099 71.6698 65.8399 67.5898Z" fill="#0C9DFE"/>
</svg>
