<svg width="500" height="500" viewBox="0 0 500 500" fill="none" xmlns="http://www.w3.org/2000/svg">
<path d="M116.292 474.253V405.607C76.1325 428.827 39.0179 450.208 0 472.794V28.1804C38.32 50.2588 75.3077 71.5759 115.023 94.4791V25.833C244.385 101.268 370.131 174.609 500 250.36C370.829 325.731 245.273 399.072 116.292 474.317V474.253ZM25.3775 425.719C126.38 366.716 224.781 309.3 326.037 250.17C224.02 190.723 125.682 133.37 25.3775 74.9384V425.719ZM142.114 426.67C243.624 367.351 342.596 309.553 444.36 250.17C341.391 190.216 242.989 132.863 143.383 74.8116C141.099 97.8626 148.733 114.506 166.286 124.742C222.307 157.352 278.264 190.025 334.285 222.699C348.877 231.2 363.342 239.892 379.774 249.599C373.747 254.167 370.321 257.276 366.451 259.56C294.696 301.369 222.814 342.988 151.123 384.988C147.253 387.272 143.129 392.094 142.558 396.217C141.289 405.353 142.177 414.743 142.177 426.734L142.114 426.67Z" fill="#0C9DFE"/>
</svg>
