<svg width="133" height="148" viewBox="0 0 133 148" fill="none" xmlns="http://www.w3.org/2000/svg">
<path d="M103.86 104.57H97.55V111.19C96.55 111.25 95.76 111.35 94.96 111.35C75.8 111.35 56.64 111.36 37.48 111.35C32.95 111.35 30.45 108.82 30.44 104.27C30.44 81.0301 30.53 57.7801 30.34 34.5401C30.31 30.7601 33.64 27.3901 37.45 27.4201C58.69 27.6101 79.94 27.5101 101.18 27.5101H103.85V104.57H103.86ZM33.77 37.6101C33.72 38.4501 33.64 39.1001 33.64 39.7501C33.64 60.8301 33.63 81.9101 33.64 103C33.64 106.74 34.98 108 38.81 108C56.39 108 73.97 108 91.56 108H93.89V37.6101H33.77Z" fill="#0C9DFE"/>
<path d="M50.75 49.8799C61.82 56.3399 72.65 62.6599 84.19 69.3899C72.84 76.0199 61.98 82.3699 50.75 88.9399V49.8799ZM54.7 81.5099C61.74 77.3999 68.33 73.5399 75.45 69.3799C68.22 65.1799 61.63 61.3399 54.7 57.3099V81.5099Z" fill="#0C9DFE"/>
</svg>
