<svg width="100" height="76" viewBox="0 0 100 76" fill="none" xmlns="http://www.w3.org/2000/svg">
<path d="M50.5 0V21.46C66.27 21.97 80.73 24.38 90.46 37.73C96.53 46.07 99.45 60.95 97.54 74.75C87.28 55.99 73.48 44.11 50.91 46.02V67.62C33.75 56.02 17.52 45.04 0.719971 33.68C17.22 22.29 33.36 11.14 49.5 0C49.83 0 50.16 0 50.49 0H50.5ZM10.22 33.55C22.19 41.66 33.51 49.33 45.72 57.6V40.75C63.29 39.29 78.89 42.32 91.43 56.32C90.01 41.82 80.79 31.59 66.69 28.7C59.86 27.3 52.8 26.97 45.44 26.11V9.7C33.51 17.78 22.27 25.39 10.22 33.55Z" fill="#0C9DFE"/>
</svg>
