<svg width="500" height="500" viewBox="0 0 500 500" fill="none" xmlns="http://www.w3.org/2000/svg">
<path d="M255.544 58.3335V168.498C336.498 171.116 410.728 183.487 460.677 252.019C491.837 294.832 506.827 371.218 497.022 442.06C444.352 345.756 373.511 284.77 257.648 294.575V405.458C169.558 345.91 86.2421 289.545 0 231.228C84.7021 172.758 167.556 115.52 250.41 58.3335C252.104 58.3335 253.798 58.3335 255.492 58.3335H255.544ZM48.7679 230.561C110.215 272.193 168.326 311.567 231.006 354.021V267.522C321.201 260.027 401.283 275.582 465.656 347.45C458.367 273.015 411.036 220.5 338.654 205.664C303.593 198.477 267.351 196.783 229.568 192.368V108.128C168.326 149.606 110.626 188.672 48.7679 230.561Z" fill="#0C9DFE"/>
</svg>
