<svg width="500" height="500" viewBox="0 0 500 500" fill="none" xmlns="http://www.w3.org/2000/svg">
<path d="M250.545 99.1665C322.058 99.1665 393.525 99.1665 465.038 99.1665C487.014 99.1665 499.955 112.152 500 134.128C500 199.966 500 265.803 500 331.641C500 354.252 490.783 364.196 468.08 367.102C456.684 368.555 447.784 372.46 444.197 385.673C441.019 397.296 429.123 399.93 418.816 400.702C403.015 401.837 386.987 402.064 371.186 400.702C359.517 399.657 348.302 396.751 344.034 381.859C340.992 371.325 329.368 367.556 319.197 367.42C273.066 366.83 226.934 366.693 180.803 367.556C169.088 367.783 158.691 372.914 154.377 386.671C150.926 397.705 139.484 400.066 129.586 400.747C113.785 401.837 97.7116 402.109 81.956 400.611C70.3778 399.521 58.8449 396.978 55.2579 381.45C53.0331 372.006 42.9077 368.055 32.9186 367.057C9.48965 364.695 0 354.116 0 330.415C0 264.577 0 198.74 0 132.902C0 113.197 13.9393 99.2119 33.7359 99.1665C105.975 99.1665 178.26 99.1665 250.499 99.1665H250.545ZM250.954 120.053C181.711 120.053 112.468 120.053 43.2256 120.053C27.1522 120.053 21.5674 125.638 21.5674 141.802C21.522 185.708 21.5674 229.615 21.5674 273.522C21.5674 292.047 21.522 310.618 21.7036 329.143C21.7944 339.178 25.4722 344.808 37.2321 345.081C51.0806 345.398 65.2924 351.437 70.968 363.515C78.3236 379.18 89.4479 379.815 103.024 379.134C109.063 378.816 115.147 378.635 121.186 379.043C128.814 379.543 134.036 376.864 137.259 369.781C145.205 352.3 161.596 345.807 178.078 345.308C226.072 343.855 274.155 344.218 322.194 345.126C336.724 345.398 352.57 350.438 359.517 363.833C367.054 378.408 377.588 379.861 390.937 379.134C397.748 378.771 404.604 378.362 411.324 378.998C419.088 379.77 423.674 375.865 426.126 369.645C432.392 353.753 446.331 348.213 460.815 345.217C477.979 341.675 479.114 341.811 479.159 324.421C479.205 263.85 479.159 203.326 479.159 142.755C479.159 125.547 473.574 120.007 456.457 120.007C387.986 120.007 319.515 120.007 250.999 120.007L250.954 120.053Z" fill="#0C9DFE"/>
<path d="M366.418 296.858C331.82 296.585 300.899 267.98 302.67 229.885C304.213 196.558 330.276 167.907 367.78 168.498C404.559 169.088 431.756 197.602 431.12 234.063C430.53 268.797 402.742 296.494 366.464 296.858H366.418ZM366.736 273.61C393.298 273.837 407.782 253.541 408.69 232.791C409.689 210.815 389.348 191.155 366.872 191.064C344.215 190.973 325.418 209.907 325.554 232.7C325.69 255.948 343.489 273.656 366.736 273.61Z" fill="#0C9DFE"/>
<path d="M144.706 231.205C144.706 214.541 144.933 197.878 144.615 181.259C144.433 173.404 148.157 171.861 155.058 171.951C161.551 172.042 166.092 172.633 166.046 180.76C165.91 215.222 165.865 249.639 166.046 284.102C166.046 292.411 161.279 292.638 154.922 292.82C147.975 293.001 144.388 291.321 144.57 283.466C144.933 266.076 144.706 248.641 144.706 231.25V231.205Z" fill="#0C9DFE"/>
<path d="M105.294 292.002H86.0879V173.449C98.8921 171.361 105.294 176.325 105.294 188.342C105.294 218.491 105.294 248.685 105.294 278.834C105.294 282.875 105.294 286.962 105.294 292.002Z" fill="#0C9DFE"/>
<path d="M206.502 291.638V172.768H224.709V291.638H206.502Z" fill="#0C9DFE"/>
</svg>
