<svg width="163" height="164" viewBox="0 0 163 164" fill="none" xmlns="http://www.w3.org/2000/svg">
<path d="M141.48 75.1098H149.94C149.94 75.9198 149.94 76.7098 149.94 77.4898C149.94 82.8198 150.06 88.1599 149.91 93.4799C149.68 101.69 146.53 108.64 140.26 114C135.71 117.9 130.36 119.92 124.33 119.92C100.67 119.93 77.01 119.92 53.35 119.92H50.49C50.34 120.2 50.19 120.48 50.03 120.76C51.9 122.47 53.77 124.18 55.65 125.89C57.3 127.39 58.91 128.93 60.61 130.37C61.79 131.37 61.8 132.18 60.61 133.18C59.33 134.25 58.15 135.44 56.63 136.85C49.07 129.84 41.38 122.71 33.25 115.17C35.3 113.29 37.4 111.35 39.52 109.42C44.7 104.72 49.95 100.1 55.02 95.2898C56.41 93.9698 57.11 94.0198 58.39 95.3398C62.21 99.2798 62.25 99.2099 58.22 102.91C55.37 105.53 52.56 108.21 49.45 111.13C50.42 111.27 51.12 111.45 51.82 111.45C75.98 111.43 100.14 111.56 124.29 111.27C131.79 111.18 137.96 105.64 140.24 98.1199C142.34 91.2199 140.98 84.2398 141.44 77.3098C141.48 76.6598 141.44 75.9998 141.44 75.0898L141.48 75.1098Z" fill="#0C9DFE"/>
<path d="M132.72 39.9396C130.52 37.3996 128.48 34.9696 126.33 32.6296C125.21 31.3996 123.75 30.4496 122.74 29.1496C122.3 28.5896 122.25 27.2096 122.65 26.6196C123.57 25.2496 124.87 24.1296 126.35 22.5596C134.25 29.8696 141.96 37.0196 149.9 44.3696C146.12 47.9696 142.27 51.6896 138.35 55.3396C134.98 58.4796 131.48 61.4896 128.12 64.6496C127.13 65.5796 126.52 66.0196 125.37 64.7796C121.57 60.6996 121.48 60.7096 125.48 56.6796C128.1 54.0296 130.83 51.4996 133.74 48.6996C133.03 48.5996 132.3 48.4096 131.57 48.4096C107.57 48.4196 83.5698 48.3396 59.5798 48.5496C52.4298 48.6096 47.3098 52.2896 44.2398 58.9596C42.5998 62.5196 41.8998 66.0996 41.9598 69.9596C42.0398 74.7696 41.9798 79.5796 41.9798 84.5296H33.5098C33.5098 83.6596 33.5098 82.8496 33.5098 82.0496C33.5098 76.4696 33.1698 70.8596 33.5798 65.3096C34.3598 54.9196 39.0198 46.8596 48.7598 42.2396C52.2498 40.5896 55.8698 39.9096 59.7498 39.9196C83.1598 39.9896 106.58 39.9496 129.99 39.9496C130.96 39.9496 131.93 39.9496 132.72 39.9496V39.9396Z" fill="#0C9DFE"/>
<path d="M96.3102 99.1493H89.3802V75.0393H82.2002V67.7993C87.1902 68.0093 89.5402 65.0293 90.5002 60.5693H96.3202V99.1493H96.3102Z" fill="#0C9DFE"/>
</svg>
