<svg width="500" height="500" viewBox="0 0 500 500" fill="none" xmlns="http://www.w3.org/2000/svg">
<g clip-path="url(#clip0_3_446)">
<path d="M463.609 233.796H499.794C499.794 245.085 499.794 256.031 499.794 266.976C499.794 281.27 500.309 295.608 499.708 309.902C497.519 360.381 475.155 398.24 427.939 418.586C416.564 423.48 403.085 425.282 390.551 425.325C288.992 425.84 187.433 425.583 85.9168 425.669C81.5385 425.669 77.1602 426.184 69.3479 426.699C81.4956 438.246 91.1535 447.431 100.854 456.574C106.091 461.511 111.199 466.576 116.737 471.126C121.587 475.075 120.943 478.294 116.994 482.458C112.058 487.695 107.594 493.361 101.67 500.314C66.9871 468.207 34.0641 437.73 0.583008 406.696C12.8165 394.506 25.0928 381.585 38.0989 369.438C56.3848 352.397 75.2715 335.957 93.8578 319.216C98.0644 315.439 100.683 314.28 105.748 319.517C122.403 336.686 122.875 336.386 106.048 352.654C94.287 363.986 82.3111 375.104 69.305 387.423C72.4814 388.196 75.5291 389.612 78.5767 389.612C182.282 389.526 285.945 389.999 389.65 388.668C423.732 388.239 450.173 364.974 458.2 331.278C461.72 316.598 462.707 301.231 463.48 286.078C464.339 269.037 463.695 251.91 463.695 233.839L463.609 233.796Z" fill="#0C9DFE"/>
<path d="M36.4254 273.93H0.111326C0.111326 270.453 0.111326 267.062 0.111326 263.671C0.111326 240.792 -0.189143 217.913 0.197177 195.034C0.969817 148.461 28.5702 106.095 72.3531 88.8394C83.5564 84.4182 96.5625 82.7871 108.71 82.7013C210.269 82.2291 311.829 82.4437 413.388 82.4437C417.895 82.4437 422.359 82.4437 429.742 82.4437C417.981 70.5107 408.623 60.8098 399.008 51.3235C393.685 46.0867 387.376 41.7084 382.611 35.9995C380.851 33.8532 380.808 27.9297 382.568 25.6976C386.903 20.0745 392.698 15.5245 399.609 9C432.403 39.3905 465.283 69.8239 498.979 101.03C486.831 113.135 474.34 126.184 461.12 138.503C443.091 155.286 424.333 171.297 406.219 187.995C401.584 192.244 399.48 194.133 394.072 188.124C378.705 171.168 378.018 171.34 394.029 155.158C405.661 143.396 418.024 132.322 431.073 120.003C426.523 119.359 422.531 118.371 418.539 118.329C320.929 118.243 223.318 118.414 125.665 118.157C93.8153 118.071 65.9574 126.742 50.2041 156.231C42.9928 169.752 38.4428 185.849 37.0263 201.13C34.8801 224.824 36.4683 248.905 36.4683 273.93H36.4254Z" fill="#0C9DFE"/>
<path d="M298.908 187.006C304.875 192.973 310.326 198.424 317.108 205.163C304.016 217.783 291.096 230.488 277.918 242.851C269.033 251.221 265.599 253.496 278.219 265.129C291.354 277.191 303.887 289.894 317.194 302.814C310.712 309.167 305.218 314.533 298.307 321.358C284.571 307.064 270.664 293.07 257.272 278.521C251.949 272.726 248.214 272.297 242.806 278.35C229.499 293.156 215.721 307.493 202.5 321.658C194.988 314.189 189.58 308.781 181.725 300.926C196.319 287.404 210.999 273.542 226.066 260.063C231.388 255.299 231.131 252.166 225.894 247.401C211.214 233.966 197.049 220.015 181.682 205.335C189.15 199.196 195.246 194.175 203.273 187.564C215.334 200.27 229.285 214.435 242.591 229.201C248.644 235.897 252.636 234.309 258.001 228.686C271.437 214.607 285.258 200.871 298.994 187.006H298.908Z" fill="#EE3C37"/>
</g>
<defs>
<clipPath id="clip0_3_446">
<rect width="500" height="500" fill="white"/>
</clipPath>
</defs>
</svg>
