<svg width="100" height="100" viewBox="0 0 100 100" fill="none" xmlns="http://www.w3.org/2000/svg">
<path d="M17.8134 60.3051C18.8974 59.9792 19.7954 59.7099 20.6704 59.4478C29.3247 80.4085 47.8411 82.7519 59.4958 78.7418C73.3556 73.9736 81.9602 59.2423 79.3441 45.2036C76.5863 30.4103 63.2933 19.5385 47.7791 20.3409C34.1442 21.0458 22.0679 31.8538 19.9903 46.6046C22.2964 44.0098 24.2855 41.7727 26.3809 39.417C27.4117 40.3982 27.998 40.958 28.7277 41.6505C25.0879 45.5685 21.5915 49.3323 17.8967 53.3105C14.2108 49.3447 10.7144 45.5844 6.84424 41.422C7.56159 40.7631 8.1585 40.2158 8.68986 39.7269C11.2953 42.2155 13.5961 44.4136 16.2087 46.9093C17.67 37.1445 21.9404 29.1368 29.8312 23.3201C37.8425 17.4148 46.9165 15.5851 56.4847 17.5459C73.0846 20.9484 83.8094 35.3467 83.0478 52.478C82.3658 67.8186 69.7512 81.6838 54.8852 83.4355C37.6246 85.4689 22.4877 76.1841 17.8152 60.3069L17.8134 60.3051Z" fill="#0C9DFE"/>
</svg>
