<svg width="224" height="193" viewBox="0 0 224 193" fill="none" xmlns="http://www.w3.org/2000/svg">
<path d="M185.19 71.2899C184.39 77.3199 183.94 83.4199 182.7 89.3599C181.01 97.4399 172.67 100.1 166.4 94.5999C159.24 88.3099 151.54 82.8199 143.05 78.5799C134.3 74.2199 125.8 69.2199 116.06 67.0999C107.39 65.2099 99.32 66.1399 93.16 72.9499C90.42 75.9799 88.39 79.9799 87.06 83.8899C83.12 95.4599 83.31 107.21 87.12 118.84C89.21 125.22 92.35 131.07 97.92 135.05C105.12 140.19 113 140.25 121.21 137.52C133.47 133.45 143.92 126.34 153.86 118.38C158.74 114.47 163.36 110.24 168.11 106.16C168.75 105.61 169.39 105.01 170.13 104.63C172.65 103.32 175.36 102.84 177.92 104.26C179.9 105.36 180.53 109.08 179.51 112.23C175.92 123.35 171.88 134.27 165.45 144.14C160.03 152.45 153.61 159.64 144.53 164.26C136.09 168.56 127.24 168.94 118.25 167.53C104.77 165.41 93.62 158.29 83.32 149.87C73.05 141.49 64.29 131.69 58 119.9C50.67 106.16 48.83 91.9899 55.55 77.5099C58.65 70.8399 63.64 65.5299 69.29 60.7899C80 51.8299 92.66 46.6399 105.57 42.0399C118 37.6099 130.55 33.4799 143.71 31.6099C150.81 30.5999 157.82 30.2399 164.87 32.2499C173.37 34.6699 178.68 39.9899 181.82 48.1999C184.7 55.7299 184.75 63.4299 185.2 71.2899H185.19ZM174.51 109.91C174.13 109.67 173.76 109.44 173.38 109.2C171.93 110.33 170.35 111.32 169.04 112.6C158.78 122.56 147.38 131 134.82 137.8C127.49 141.76 119.65 144.57 111.15 144.47C106.23 144.42 101.47 143.62 97.03 141.03C89.72 136.78 85.62 130.19 82.6 122.66C78.97 113.62 78.74 104.19 79.29 94.6499C79.77 86.3499 81.91 78.5199 86.88 71.8399C89.13 68.8099 92.21 66.1499 95.43 64.1499C102.51 59.7399 110.51 59.9699 118.11 61.9999C133.44 66.1099 147.21 73.6899 160.23 82.6299C163.7 85.0199 166.85 87.8799 170.18 90.4699C173.78 93.2799 176.67 92.3699 177.42 87.9599C178.22 83.2899 178.56 78.5499 179.13 73.8399C180.09 65.9699 179.25 58.1499 176.9 50.7199C174.79 44.0099 170.24 39.1299 162.85 37.4099C153.99 35.3399 145.17 36.1899 136.68 38.4699C124.13 41.8399 111.67 45.7299 99.47 50.1999C88.52 54.2199 78.26 59.6799 69.65 67.9399C55.38 81.6299 53.21 98.1799 62.01 115.63C65.46 122.47 69.86 128.62 75.03 134.24C85.81 145.97 97.99 155.69 113.37 160.78C127.46 165.44 139.98 162.87 151.02 152.81C159.11 145.44 164.17 136.11 168.54 126.38C170.93 121.06 172.53 115.4 174.49 109.89L174.51 109.91Z" fill="#0C9DFE"/>
<path d="M102.97 102.15C102.97 96.3798 102.91 90.6198 102.99 84.8598C103.08 78.3798 108.07 75.3498 113.67 78.4998C123.98 84.2898 134.25 90.1498 144.43 96.1498C149.94 99.3998 150.03 104.98 144.56 108.25C134.26 114.41 123.86 120.41 113.38 126.25C107.96 129.27 103.09 126.21 102.99 119.96C102.89 114.03 102.97 108.09 102.97 102.16V102.15Z" fill="#0C9DFE"/>
</svg>
