<svg width="44" height="84" viewBox="0 0 44 84" fill="none" xmlns="http://www.w3.org/2000/svg">
<path d="M43.9999 40.5C38.1999 34.7 32.2999 28.9 26.5999 23C19.2999 15.4 12.0999 7.7 4.8999 0C4.5999 0 4.1999 0 3.8999 0C2.9999 1.2 2.1999 2.3 0.999898 3.9C12.6999 16.2 24.4999 28.6 36.6999 41.5C24.6999 54.1 12.8999 66.6 0.899902 79.3C2.0999 80.6 3.0999 81.6 3.6999 82.3C9.99988 76.3 16.2999 70.4 22.3999 64.4C29.6999 57.2 36.7999 49.8 43.9999 42.5C43.9999 41.8 43.9999 41.2 43.9999 40.5Z" fill="#0C9DFE"/>
</svg>
