<svg width="500" height="500" viewBox="0 0 500 500" fill="none" xmlns="http://www.w3.org/2000/svg">
<mask id="mask0_19_3989" style="mask-type:luminance" maskUnits="userSpaceOnUse" x="0" y="172" width="500" height="157">
<path d="M500 172H0V328.425H500V172Z" fill="white"/>
</mask>
<g mask="url(#mask0_19_3989)">
<mask id="mask1_19_3989" style="mask-type:luminance" maskUnits="userSpaceOnUse" x="-60" y="109" width="620" height="293">
<path d="M-59.2832 401.452H559.285V109.053H-59.2832V401.452Z" fill="white"/>
</mask>
<g mask="url(#mask1_19_3989)">
<path d="M78.9196 223.52C78.9196 209.253 67.5037 197.764 53.5442 197.764H40.9604V249.048H53.5442C67.5037 249.048 78.9196 237.551 78.9196 223.52ZM136.163 325.757H89.9693L53.2948 274.587H40.9604V325.647H0.25V172.251H58.5702C92.1914 172.251 119.634 195.237 119.634 223.52C119.634 240.769 109.113 256.175 93.102 265.601L136.163 325.757Z" fill="#0C9DFE"/>
<path d="M182.075 232.725C171.324 232.725 162.179 247.417 162.179 265.605C162.179 283.792 171.324 298.504 182.075 298.504C193.075 298.504 202.205 283.792 202.205 265.605C202.205 247.417 193.075 232.725 182.075 232.725ZM244.737 265.605C244.737 300.35 216.633 328.173 182.075 328.173C147.528 328.173 119.632 300.35 119.632 265.605C119.632 230.886 147.528 203.048 182.075 203.048C216.633 203.048 244.737 230.886 244.737 265.605Z" fill="#0C9DFE"/>
<path d="M340.271 205.593L293.375 252.736V205.438H252.673V325.646H293.375V276.885L342.335 325.646H393.567L331.349 263.085L382.883 211.292V282.629C382.883 306.315 397.05 328.172 432.726 328.172C449.665 328.172 465.207 318.514 472.76 309.776L491.062 325.646H499.752V205.593H459.048V268.139V283.321C454.464 291.364 448.078 296.421 438.207 296.421C428.193 296.421 423.598 290.452 423.598 271.36V266.322V205.593H340.271Z" fill="#0C9DFE"/>
</g>
</g>
</svg>
