<svg width="500" height="500" viewBox="0 0 500 500" fill="none" xmlns="http://www.w3.org/2000/svg">
<path d="M13 87.8685V60.3935H290.359C303.485 21.0969 326.476 -2.05717 368.627 0.144092C400.912 1.85619 418.603 15.9606 438.089 58.7629C453.334 59.4967 469.395 60.312 486.924 61.2088V86.8902H437.273C423.332 121.54 401.972 144.694 362.92 144.042C325.987 143.471 304.627 122.437 291.99 87.9501H13.0815L13 87.8685ZM364.876 115.262C388.846 114.936 408.575 94.6354 408.005 70.7476C407.516 47.5936 385.829 26.6408 363.001 27.13C339.521 27.6191 320.036 48.4904 320.525 72.6228C321.014 97.4889 339.847 115.507 364.958 115.262H364.876Z" fill="#0C9DFE"/>
<path d="M328.596 417.404H487.332V442.188H328.025C315.47 478.387 292.805 500.481 254.487 499.992C217.228 499.584 194.564 478.55 183.15 442.352H13.1631V417.567H181.193C193.83 377.373 218.207 352.67 261.335 355.85C297.371 358.54 318.405 380.961 328.596 417.404ZM211.195 427.269C210.951 452.053 229.376 470.479 254.65 470.723C279.924 470.968 299.164 452.869 299.572 428.41C299.898 405.011 279.598 384.385 255.873 384.059C231.985 383.733 211.521 403.544 211.277 427.187L211.195 427.269Z" fill="#0C9DFE"/>
<path d="M210.625 258.831C196.194 301.47 172.796 321.526 139.043 322.667C103.741 323.89 81.81 306.28 62.1616 259.727H13.3262V234.454H64.1998C76.4291 197.603 100.561 177.058 138.309 177.873C174.263 178.607 197.009 199.152 208.75 233.72H487.087V258.749H210.625V258.831ZM137.086 293.562C161.055 293.154 181.193 272.853 180.867 249.21C180.622 225.812 159.751 205.837 135.863 206.082C111.568 206.326 92.4086 226.056 92.7347 250.433C93.0609 275.218 112.383 293.969 137.005 293.643L137.086 293.562Z" fill="#0C9DFE"/>
</svg>
