<svg width="102" height="96" viewBox="0 0 102 96" fill="none" xmlns="http://www.w3.org/2000/svg">
<path d="M37.5702 81.7394H34.2002V47.7194C29.3802 46.1094 26.5402 43.2894 26.8102 38.1194C27.0202 34.1594 28.7502 31.9894 34.0002 29.5994C34.0902 27.7294 34.1902 25.7594 34.3002 23.6094H37.4502V29.6994C41.7002 31.4094 44.5402 34.0294 44.4602 38.8194C44.3902 43.3494 41.8102 45.9694 37.5802 47.5194V81.7294L37.5702 81.7394ZM40.9302 38.5794C40.8902 35.6394 38.4002 33.2194 35.4702 33.2894C32.6302 33.3494 30.0602 36.0094 30.1202 38.8094C30.1802 41.6894 32.7402 44.0794 35.7002 44.0194C38.7502 43.9594 40.9602 41.6494 40.9302 38.5694V38.5794Z" fill="#0C9DFE"/>
<path d="M77.9904 43.0296V23.5596H81.0304V43.0996C85.4704 44.6396 88.1804 47.4196 88.1204 52.1196C88.0704 56.6896 85.4904 59.4696 81.0504 60.8696V81.7196H78.0104V61.1096C73.0804 59.5596 70.0504 56.5696 70.4404 51.2796C70.7704 46.8596 73.5204 44.2796 77.9904 43.0296ZM79.2004 57.4296C82.2404 57.4596 84.5004 55.1996 84.5304 52.0996C84.5604 48.9996 82.3404 46.6396 79.3404 46.5896C76.4704 46.5496 73.9404 49.0396 73.9004 51.9496C73.8604 54.8796 76.2904 57.3896 79.1904 57.4196L79.2004 57.4296Z" fill="#0C9DFE"/>
<path d="M58.5403 57.4998C63.7703 59.2698 66.2303 62.1398 66.3703 66.2798C66.5203 70.6098 64.3603 73.2998 58.6503 75.7098V81.6998H55.5503V75.4598C51.0303 73.9598 48.5103 70.9998 48.6103 66.3698C48.7003 61.9598 51.2203 59.1698 55.4603 57.7298V23.5898H58.5303V57.4998H58.5403ZM62.8003 66.5198C62.7503 63.5798 60.2603 61.1098 57.3603 61.1498C54.4903 61.1798 52.0403 63.7398 52.0703 66.6698C52.1003 69.6498 54.5203 71.9998 57.5103 71.9598C60.5503 71.9198 62.8503 69.5498 62.8103 66.5298L62.8003 66.5198Z" fill="#0C9DFE"/>
</svg>
