<svg width="92" height="89" viewBox="0 0 92 89" fill="none" xmlns="http://www.w3.org/2000/svg">
<path d="M54.2702 59.8295C48.4202 56.2095 42.6402 52.6295 36.6102 48.8995C34.3202 51.4395 31.3902 52.4995 27.9602 51.9395C26.0802 51.6395 24.5302 50.6695 23.2902 49.2595C20.5602 46.1495 20.4402 41.0895 23.2102 37.9995C24.8402 36.1695 26.9502 35.0995 29.5702 35.0095C32.2002 34.9195 34.1402 36.2895 36.3402 37.7895C42.2402 34.3095 48.1602 30.8195 54.0102 27.3595C54.0102 26.2195 54.0102 25.2395 54.0102 24.2595C54.0102 20.4195 55.7502 17.7695 59.2902 16.3095C62.6602 14.9095 65.7202 15.6695 68.3502 17.9495C71.0002 20.2495 71.7802 24.1295 70.4502 27.3495C67.9402 33.3895 61.3402 33.6795 57.5002 31.1995C57.0202 30.8895 56.6002 30.4795 55.9502 29.9495C49.9902 33.4795 44.0102 37.0195 38.1202 40.4995V46.0795C44.0502 49.7495 49.9702 53.4195 56.1002 57.2095C58.3802 54.8795 61.1702 54.0595 64.3002 54.6095C66.0802 54.9195 67.5102 55.9195 68.7602 57.1995C71.7102 60.2395 71.5602 65.0595 69.5902 67.7895C67.2002 71.0995 63.5502 72.5195 59.4702 70.9795C55.7002 69.5595 53.1402 66.4195 54.2802 59.8395L54.2702 59.8295ZM67.9102 63.0795C67.9502 60.2795 65.3602 57.6195 62.5502 57.5795C59.7102 57.5395 57.1002 60.0795 57.0602 62.9295C57.0202 65.7795 59.5502 68.3895 62.4002 68.4295C65.2002 68.4695 67.8702 65.8895 67.9102 63.0795ZM67.9102 24.2395C67.9302 21.3495 65.4102 18.8495 62.4702 18.8495C59.5102 18.8495 57.0302 21.3395 57.0602 24.2595C57.0902 27.0695 59.5002 29.4395 62.3602 29.5095C65.2802 29.5695 67.8802 27.0995 67.9102 24.2395ZM29.7702 48.9595C32.7502 48.9395 35.1102 46.4795 35.0402 43.4795C34.9702 40.6395 32.5802 38.1995 29.8102 38.1595C26.9502 38.1095 24.4302 40.6395 24.4102 43.5695C24.3902 46.5495 26.8102 48.9795 29.7802 48.9595H29.7702Z" fill="#0C9DFE"/>
</svg>
