<svg width="500" height="500" viewBox="0 0 500 500" fill="none" xmlns="http://www.w3.org/2000/svg">
<path d="M322.91 394.891C270.674 362.567 219.062 330.6 165.219 297.294C144.77 319.974 118.607 329.439 87.9799 324.439C71.1928 321.76 57.3524 313.098 46.28 300.508C21.9029 272.738 20.8314 227.556 45.5656 199.964C60.1204 183.623 78.9613 174.069 102.356 173.265C125.84 172.462 143.163 184.695 162.808 198.089C215.491 167.015 268.352 135.851 320.589 104.956C320.589 94.7765 320.589 86.0258 320.589 77.275C320.589 42.9864 336.126 19.3237 367.736 6.28693C397.827 -6.21412 425.151 0.572172 448.635 20.931C472.298 41.4685 479.263 76.1142 467.387 104.867C444.974 158.8 386.041 161.389 351.752 139.245C347.466 136.476 343.716 132.815 337.912 128.083C284.693 159.603 231.296 191.213 178.702 222.287V272.113C231.653 304.883 284.514 337.654 339.251 371.496C359.61 350.691 384.523 343.369 412.471 348.28C428.366 351.048 441.135 359.977 452.296 371.407C478.638 398.552 477.298 441.591 459.708 465.968C438.366 495.524 405.774 508.204 369.343 494.453C335.679 481.773 312.82 453.735 323 394.98L322.91 394.891ZM444.706 423.911C445.064 398.909 421.937 375.157 396.845 374.8C371.486 374.443 348.18 397.123 347.823 422.572C347.466 448.02 370.057 471.326 395.506 471.683C420.508 472.04 444.349 449.003 444.706 423.911ZM444.706 77.0964C444.885 51.2907 422.383 28.9674 396.131 28.9674C369.7 28.9674 347.555 51.2014 347.823 77.275C348.091 102.366 369.611 123.529 395.149 124.154C421.222 124.69 444.438 102.634 444.706 77.0964ZM104.142 297.829C130.751 297.651 151.825 275.685 151.2 248.897C150.574 223.537 129.233 201.75 104.499 201.393C78.9613 200.946 56.4594 223.537 56.2808 249.7C56.1022 276.31 77.7112 298.008 104.231 297.829H104.142Z" fill="#0C9DFE"/>
<path d="M178.75 222.5C183.333 230.972 189.75 252.833 178.75 272.5C167.75 292.167 174.167 247.361 178.75 222.5Z" fill="#0C9DFE"/>
</svg>
