<svg width="89" height="82" viewBox="0 0 89 82" fill="none" xmlns="http://www.w3.org/2000/svg">
<path d="M47.1201 72.5204C36.1201 66.9104 26.8501 59.9104 22.8301 47.8204C22.0501 45.4904 21.6301 42.9504 21.5801 40.4904C21.4201 32.9204 21.5201 25.3504 21.5201 17.5204C30.5801 16.5204 39.6301 15.8604 46.9801 9.44043C54.2001 15.8004 63.3001 16.5604 72.3701 17.4804C72.3701 26.2304 73.0801 34.7904 72.1901 43.1804C71.0301 54.1904 63.8701 61.7604 55.0601 67.8004C52.5401 69.5304 49.8001 70.9404 47.1201 72.5204ZM24.5101 20.3804C24.5101 26.1504 24.6201 31.5604 24.4801 36.9604C24.3201 43.5104 25.9901 49.4504 29.8601 54.7604C34.3701 60.9304 40.2101 65.4304 47.1601 68.8704C56.1101 63.8304 64.0201 57.9304 67.7401 47.9604C71.0901 39.0004 68.7801 29.6904 69.6101 20.4004C61.4101 19.5804 53.7601 18.2104 47.0001 13.6504C40.2401 18.2204 32.5801 19.5804 24.5101 20.3804Z" fill="#0C9DFE"/>
<path d="M45.3604 22.6504H48.6903V58.7904H45.3604V22.6504Z" fill="#0C9DFE"/>
</svg>
