<svg width="132" height="116" viewBox="0 0 132 116" fill="none" xmlns="http://www.w3.org/2000/svg">
<path d="M98.4802 27.0801C102.25 30.5601 106.66 34.6201 111.4 38.9901C106.85 43.2201 102.42 47.3301 97.7802 51.6401C96.7202 50.5001 95.8102 49.5201 94.7502 48.3901C97.1902 46.0701 99.4402 43.9201 101.89 41.5801C96.8102 40.6101 92.7202 41.8401 89.4702 45.8501C88.0702 44.8301 86.8302 43.9401 85.4902 42.9701C87.2402 40.1501 89.6602 38.1801 92.6102 37.3101C95.4102 36.4801 98.4402 36.3901 101.66 35.9401C99.4102 33.8401 97.1702 31.7501 94.3502 29.1201C95.7602 28.4301 96.9602 27.8401 98.4902 27.0901L98.4802 27.0801Z" fill="#0C9DFE"/>
<path d="M97.7701 89.0903C96.6701 87.8903 95.7701 86.9003 94.7601 85.8003C97.2201 83.4603 99.4801 81.3203 101.87 79.0503C98.6701 78.6603 95.4801 78.8203 92.7501 77.7903C90.0201 76.7703 87.7401 74.5603 84.8701 72.6003C86.7501 71.2003 87.9701 70.3003 89.4001 69.2303C92.6201 73.0203 96.6101 74.4303 101.76 73.4503C99.3901 71.2503 97.2001 69.2003 94.7801 66.9503C95.7401 65.9303 96.6001 65.0203 97.7301 63.8203C102.29 68.0103 106.69 72.0503 111.43 76.4103C106.86 80.6503 102.44 84.7503 97.7901 89.0703L97.7701 89.0903Z" fill="#0C9DFE"/>
<path d="M65.5999 45.6798C59.2199 38.7598 50.8199 42.3598 43.1699 41.0198V36.2298C50.0199 36.8298 57.0099 34.9698 63.5599 37.9698C65.7999 38.9898 67.6599 40.8298 69.9999 42.5098C68.1899 43.8198 66.9499 44.7098 65.5999 45.6798Z" fill="#0C9DFE"/>
<path d="M43.0601 78.5698V73.6698C46.4801 73.6698 49.8501 73.5698 53.2101 73.6898C57.8501 73.8498 62.1901 73.3098 65.4901 69.2998C66.9001 70.2998 68.1501 71.1798 69.5401 72.1698C66.9401 75.9698 63.3001 78.1298 58.9801 78.4598C53.7901 78.8598 48.5501 78.5598 43.0601 78.5598V78.5698Z" fill="#0C9DFE"/>
<path d="M79.8302 68.6499H75.7502V54.8699C74.2702 54.7799 73.0602 54.7099 71.6802 54.6299V50.5699C74.1402 50.3099 76.0802 49.2699 76.2602 46.4199H79.8302V68.6499Z" fill="#0C9DFE"/>
</svg>
