<svg width="101" height="88" viewBox="0 0 101 88" fill="none" xmlns="http://www.w3.org/2000/svg">
<path d="M75.1099 35.8298C70.1999 35.1998 68.3999 35.8398 64.4399 39.4398C63.4199 38.7198 62.3699 37.9698 61.1399 37.0998C64.4299 32.1798 69.1399 30.9098 74.7099 31.5598L74.7799 30.9398C72.9599 29.1998 71.1399 27.4698 69.1099 25.5398C69.8599 24.7198 70.5999 23.8998 71.5699 22.8398C75.5099 26.4898 79.3099 30.0098 83.2899 33.6898C79.3299 37.3598 75.5799 40.8298 71.6499 44.4798C70.7399 43.5098 69.9699 42.6898 68.9999 41.6598C71.0299 39.7198 72.9199 37.9098 75.1099 35.8198V35.8298Z" fill="#0C9DFE"/>
<path d="M61.1899 62.1602C62.2599 61.3302 63.2699 60.5502 64.5399 59.5702C67.1699 62.9302 70.5299 64.0902 74.8499 63.3202C72.8099 61.4502 70.9099 59.7102 68.8799 57.8502C69.8599 56.8102 70.5899 56.0302 71.5599 54.9902C75.4299 58.5602 79.2399 62.0802 83.2799 65.8202C79.3399 69.4802 75.5499 73.0102 71.6399 76.6402C70.7399 75.6902 70.0099 74.9302 69.0599 73.9302C71.1099 72.1702 73.0899 70.4602 75.0799 68.7502C74.9499 68.5602 74.8099 68.3802 74.6799 68.1902C72.2199 67.8002 69.7099 67.6102 67.3199 66.9602C64.7899 66.2702 62.8199 64.5802 61.1899 62.1502V62.1602Z" fill="#0C9DFE"/>
<path d="M61.5701 55.32C60.9101 56.05 60.3701 56.65 59.2601 57.87C57.5401 55.73 55.9301 53.73 54.0001 51.34C52.1101 53.72 50.5101 55.73 48.8101 57.88C47.6601 56.66 47.1201 56.08 46.4301 55.34C48.2601 53.42 50.0001 51.6 51.9001 49.6C49.9601 47.56 48.2001 45.72 46.3701 43.81C47.0201 43.2 47.5601 42.7 48.2601 42.04C50.1501 43.82 51.9901 45.55 54.0201 47.45C55.9801 45.59 57.7701 43.9 59.6901 42.08C60.3401 42.63 60.9501 43.13 61.7001 43.76C59.8401 45.71 58.0901 47.55 56.1301 49.6C57.9701 51.53 59.6701 53.31 61.5801 55.32H61.5701Z" fill="#FF3C31"/>
<path d="M24.99 67.5299V63.4699C27.9 63.4699 30.71 63.4099 33.51 63.4799C37.44 63.5799 41.19 63.2599 43.98 59.6699C45.2 60.5199 46.26 61.2599 47.44 62.0899C45.4 65.4099 42.36 67.1399 38.85 67.4299C34.34 67.7999 29.78 67.5199 24.99 67.5199V67.5299Z" fill="#0C9DFE"/>
<path d="M47.4 37.0794C46.28 37.8894 45.28 38.6094 44.12 39.4294C38.79 33.5294 31.54 36.4394 25 35.3094V31.1094C30.39 31.4394 35.65 31.6294 40.89 32.1494C43.15 32.3694 45.82 34.7194 47.4 37.0794Z" fill="#0C9DFE"/>
</svg>
