<svg width="114" height="106" viewBox="0 0 114 106" fill="none" xmlns="http://www.w3.org/2000/svg">
<path d="M58.1601 58.2405C55.7201 61.3405 53.4001 64.4005 50.9501 67.3605C48.0001 70.9205 44.9801 74.4605 40.3601 75.9805C39.2601 76.3405 38.1201 76.8005 37.0001 76.8105C30.8601 76.8905 24.7101 76.8505 18.3501 76.8505V71.4305C22.4801 71.4305 26.6201 71.2505 30.7301 71.4705C36.8601 71.8105 41.6701 69.6005 45.3901 64.7605C48.3901 60.8405 51.4801 56.9905 54.6401 52.9605C53.8601 51.7905 53.2901 50.7905 52.5901 49.9105C49.6101 46.1705 46.6101 42.4505 43.5801 38.7505C40.8101 35.3605 37.0801 34.0505 32.8201 34.0305C28.0801 34.0105 23.3301 34.0305 18.3601 34.0305V28.5605C18.5601 28.4205 18.6901 28.2405 18.8201 28.2405C24.6401 28.3005 30.4801 28.1405 36.2801 28.5205C42.2001 28.9105 46.4501 32.5005 50.0001 36.9605C52.2601 39.8105 54.4701 42.6905 56.6901 45.5705C57.1201 46.1305 57.4901 46.7505 58.0501 47.5905C60.7701 43.7905 63.0101 40.4705 65.4501 37.2905C68.5401 33.2605 72.0801 29.6305 77.3101 28.6205C79.8901 28.1205 82.5801 28.2305 85.8401 28.0305C82.9901 25.3605 80.4701 23.0005 77.6401 20.3405C78.7201 19.2005 79.7401 18.1105 81.0401 16.7305C86.3501 21.6305 91.4701 26.3605 96.8201 31.3005C91.5601 36.1905 86.4601 40.9305 81.2301 45.7905C79.9201 44.6305 78.7801 43.6205 77.3801 42.3805C80.4401 39.4705 83.0901 36.9405 85.9801 34.1805C80.8801 33.5805 76.2901 33.7805 72.9901 37.8805C69.1801 42.6105 65.5901 47.5205 61.5801 52.7905C65.9001 58.3105 69.7501 63.7705 74.2001 68.7005C77.0501 71.8605 81.3101 71.8905 85.8801 71.3005C83.0101 68.5905 80.3801 66.1205 77.6201 63.5205C78.8601 62.1805 79.8401 61.1105 80.9801 59.8805C86.3801 64.8905 91.4801 69.6305 96.8101 74.5805C91.5901 79.4205 86.5401 84.1105 81.1601 89.1105C79.9301 87.8205 78.8501 86.6805 77.6301 85.4005C80.5101 82.6505 83.1601 80.1305 86.3201 77.1105C84.6001 77.1105 83.4601 77.0305 82.3401 77.1205C76.3101 77.6505 71.5101 75.2705 67.7801 70.7405C64.5401 66.8105 61.5501 62.6705 58.1501 58.2505L58.1601 58.2405Z" fill="#0C9DFE"/>
</svg>
