<svg width="500" height="500" viewBox="0 0 500 500" fill="none" xmlns="http://www.w3.org/2000/svg">
<path d="M361.741 314.226H296.859V329.674H351.442L368.95 365.204L387.745 316.543L409.115 365.204L426.88 316.543L434.861 329.674H500V314.226H441.041L426.88 283.33L409.115 325.039L387.745 283.33L368.95 329.674L361.741 314.226Z" fill="#0C9DFE"/>
<path opacity="0.961" fill-rule="evenodd" clip-rule="evenodd" d="M339.594 134.036C340.797 133.939 341.985 134.039 343.156 134.332C333.996 155.774 324.891 177.248 315.842 198.758C320.958 197.956 325.213 195.383 328.608 191.039C332.191 185.557 335.061 179.717 337.218 173.522C344.897 171.879 352.617 170.692 360.376 169.96C357.115 177.966 353.454 185.784 349.391 193.414C346.517 196.877 343.053 199.549 339 201.431C342.94 202.904 344.919 205.774 344.938 210.04C344.514 213.913 343.623 217.674 342.266 221.322C339.727 226.994 337.351 232.734 335.14 238.542C334.744 240.521 334.744 242.501 335.14 244.48C336.648 246.681 338.528 247.177 340.781 245.965C343.125 244.611 345.302 243.027 347.313 241.214C346.587 238.476 346.587 235.706 347.313 232.901C354.355 214.362 361.975 196.053 370.174 177.976C374.385 171.2 380.422 166.944 388.284 165.209C393.597 164.311 398.941 164.113 404.316 164.616C413.655 165.74 418.603 170.985 419.161 180.351C418.585 187.606 416.803 194.534 413.817 201.134C400.973 205.513 388.207 210.066 375.518 214.791C373.306 219.445 371.327 224.195 369.58 229.042C368.725 232.166 368.528 235.333 368.986 238.542C370.346 243.232 373.414 244.914 378.19 243.589C386.324 240.81 393.648 236.653 400.16 231.12C407.743 224.725 414.968 217.897 421.833 210.634C430.146 190.841 438.459 171.048 446.772 151.255C449.009 150.22 451.384 149.627 453.898 149.474C455.106 149.387 456.095 149.783 456.867 150.662C465.746 162.115 474.851 173.397 484.181 184.508C486.96 188.533 487.554 192.887 485.962 197.571C482.796 205.488 479.628 213.405 476.462 221.322C475.313 225.56 476.798 228.331 480.915 229.635C484.111 228.731 487.08 227.345 489.822 225.479C490.925 227.601 491.915 229.777 492.791 232.011C486.241 239.394 478.026 243.749 468.149 245.074C460.122 243.975 455.372 239.423 453.898 231.417C453.523 228.024 453.72 224.659 454.492 221.322C459.038 209.957 463.492 198.576 467.852 187.18C467.784 185.557 467.289 184.073 466.367 182.726C464.245 180.26 462.265 177.687 460.429 175.007C449.389 200.845 438.205 226.576 426.88 252.199C421.714 246.735 416.865 240.996 412.333 234.98C403.846 245.053 393.653 252.871 381.753 258.434C372.952 261.657 364.441 261.063 356.22 256.653C354.809 255.361 353.424 254.074 352.063 252.793C347.457 257.566 342.31 261.624 336.625 264.966C318.053 269.757 309.641 262.533 311.389 243.293C313.062 236.978 315.239 230.842 317.92 224.885C321.267 213.334 317.902 210.959 307.826 217.76C299.864 237.045 291.749 256.244 283.481 275.357C279.126 270.211 274.771 265.065 270.417 259.919C261.534 270.347 250.549 277.571 237.462 281.592C226.065 283.769 217.158 280.107 210.742 270.607C206.296 274.754 201.942 279.01 197.678 283.373C193.427 287.081 188.479 289.16 182.833 289.608C176.128 289.141 172.071 285.579 170.661 278.92C163.654 288.51 154.252 294.052 142.456 295.546C140.141 295.262 137.964 294.569 135.924 293.468C133.926 291.531 132.145 289.453 130.58 287.233C124.64 291.193 118.505 294.855 112.173 298.218C105.781 301.274 99.6455 300.878 93.7653 297.03C88.8362 291.531 86.9557 285.098 88.1243 277.732C88.6866 272.315 90.1711 267.168 92.5777 262.294C92.3799 262.096 92.1816 261.898 91.9839 261.7C87.6516 263.243 83.2974 264.728 78.9205 266.153C78.0708 266.43 77.3785 266.925 76.8423 267.638C73.6726 289.194 62.4892 304.93 43.2932 314.844C33.8556 318.898 24.1572 319.69 14.1976 317.219C3.49276 312.543 -1.15863 304.329 0.243605 292.577C0.670598 289.087 1.56128 285.723 2.91565 282.483C20.0708 276.236 37.2906 270.1 54.5752 264.075C56.5009 255.746 54.6209 248.422 48.9342 242.105C30.3706 227.675 27.7978 210.851 41.215 191.633C54.998 177.671 71.3272 173.416 90.2025 178.867C101.624 183.6 106.077 192.012 103.563 204.103C103.027 206.659 101.938 208.935 100.297 210.931C92.016 212.707 83.7029 214.092 75.3578 215.088C77.6011 209.279 79.3825 203.341 80.7019 197.274C78.4087 190.712 74.2522 189.327 68.2324 193.117C61.1378 200.28 56.9813 208.89 55.7628 218.947C55.9279 223.104 57.214 226.865 59.6224 230.229C63.7789 234.386 67.9355 238.542 72.092 242.699C75.1126 246.817 77.0923 251.37 78.0299 256.356C84.8056 253.899 91.5356 251.327 98.2187 248.637C109.04 222.442 120.025 196.315 131.174 170.257C131.486 169.846 131.882 169.549 132.361 169.366C139.876 168.193 147.398 167.105 154.925 166.1C140.045 202.324 125.102 238.545 110.094 274.763C108.802 277.317 108.605 279.89 109.501 282.483C111.487 283.951 113.566 284.05 115.735 282.779C120.141 280.33 124.396 277.658 128.502 274.763C129.232 269.531 130.42 264.385 132.065 259.325C138.118 245.32 144.056 231.267 149.878 217.166C153.508 209.776 158.951 204.135 166.207 200.243C172.37 197.586 178.505 197.586 184.615 200.243C186.552 201.782 188.036 203.663 189.068 205.884C190.269 203.669 191.358 201.393 192.334 199.055C200.591 197.466 208.805 195.783 216.976 194.008C217.372 194.8 217.372 195.592 216.976 196.383C207.058 219.881 197.062 243.336 186.99 266.747C187.765 268.611 189.151 269.7 191.147 270.013C193.091 269.437 194.872 268.546 196.491 267.341C200.521 263.885 204.38 260.223 208.069 256.356C215.377 236.608 223.492 217.21 232.415 198.165C237.81 190.961 245.034 186.904 254.088 185.992C261.952 184.762 269.275 186.147 276.058 190.149C277.879 192.106 279.166 194.383 279.918 196.977C280.899 204.535 279.81 211.76 276.652 218.65C268.793 221.6 260.876 224.174 252.9 226.37C256.687 218.599 259.458 210.483 261.214 202.024C261.288 197.535 259.309 196.15 255.276 197.868C254.187 198.956 253.098 200.045 252.01 201.134C244.421 217.963 237.296 234.984 230.633 252.199C230.128 255.615 230.326 258.98 231.227 262.294C233.635 265.153 236.703 266.044 240.431 264.966C253.384 259.227 264.765 251.211 274.574 240.917C288.981 206.898 303.332 172.854 317.623 138.786C324.957 137.005 332.281 135.422 339.594 134.036ZM396.597 175.007C399.044 176.037 400.033 177.918 399.566 180.648C398.885 186.158 397.301 191.403 394.816 196.383C390.349 198.301 385.797 199.786 381.159 200.837C384.14 193.784 387.208 186.758 390.362 179.757C392.058 177.554 394.136 175.971 396.597 175.007ZM178.083 213.009C181.396 213.649 183.474 215.629 184.318 218.947C177.922 235.909 170.994 252.733 163.535 269.419C161.297 272.176 158.625 274.452 155.519 276.248C151.897 276.674 150.313 274.991 150.769 271.201C150.833 268.928 151.328 266.751 152.253 264.669C158.191 250.418 164.129 236.167 170.067 221.916C171.443 217.675 174.115 214.706 178.083 213.009ZM49.8249 275.951C50.4169 275.933 50.813 276.23 51.0125 276.842C48.5168 284.134 45.4493 291.161 41.8088 297.921C37.065 303.519 31.7209 304.311 25.7765 300.296C24.6346 298.489 24.14 296.51 24.292 294.358C24.6026 290.939 25.1964 287.574 26.0734 284.264C34.162 281.832 42.079 279.061 49.8249 275.951Z" fill="#0C9DFE"/>
</svg>
