<svg width="800" height="306" viewBox="0 0 800 306" fill="none" xmlns="http://www.w3.org/2000/svg">
<path opacity="0.961" fill-rule="evenodd" clip-rule="evenodd" d="M530.961 0.0555569C532.842 -0.0948436 534.699 0.0601989 536.531 0.519756C522.208 34.0433 507.973 67.6197 493.825 101.251C501.823 99.9958 508.477 95.973 513.785 89.1818C519.386 80.6099 523.874 71.48 527.247 61.794C539.253 59.2252 551.322 57.3684 563.454 56.2236C558.356 68.7412 552.631 80.9655 546.279 92.8954C541.785 98.3089 536.369 102.487 530.032 105.429C536.193 107.732 539.287 112.22 539.316 118.891C538.653 124.945 537.261 130.825 535.138 136.53C531.168 145.398 527.455 154.373 523.998 163.454C523.378 166.548 523.378 169.643 523.998 172.738C526.355 176.179 529.295 176.953 532.817 175.059C536.482 172.942 539.885 170.466 543.03 167.631C541.895 163.351 541.895 159.019 543.03 154.634C554.04 125.647 565.955 97.0212 578.773 68.757C585.358 58.1631 594.796 51.5092 607.089 48.7965C615.396 47.3918 623.751 47.0826 632.156 47.8681C646.757 49.6255 654.493 57.8261 655.366 72.4706C654.464 83.8138 651.679 94.6454 647.01 104.965C626.929 111.812 606.968 118.93 587.129 126.318C583.671 133.594 580.577 141.022 577.845 148.599C576.509 153.485 576.199 158.437 576.916 163.454C579.042 170.786 583.839 173.416 591.306 171.345C604.025 166.999 615.475 160.5 625.657 151.849C637.514 141.851 648.81 131.174 659.544 119.819C672.541 88.8726 685.539 57.9254 698.536 26.9791C702.034 25.3609 705.747 24.4325 709.677 24.1939C711.566 24.0584 713.113 24.6767 714.319 26.0507C728.202 43.9586 742.438 61.5981 757.025 78.9694C761.37 85.263 762.299 92.071 759.811 99.3942C754.86 111.772 749.907 124.152 744.956 136.53C743.161 143.155 745.482 147.488 751.919 149.528C756.916 148.113 761.558 145.946 765.845 143.029C767.57 146.346 769.118 149.75 770.487 153.241C760.246 164.785 747.403 171.594 731.959 173.666C719.409 171.948 711.981 164.83 709.677 152.313C709.09 147.008 709.4 141.747 710.606 136.53C717.714 118.761 724.677 100.966 731.495 83.1472C731.388 80.6108 730.614 78.2898 729.174 76.1842C725.855 72.3286 722.759 68.3058 719.89 64.115C702.627 104.513 685.141 144.744 667.435 184.807C659.357 176.264 651.776 167.29 644.689 157.883C631.421 173.633 615.483 185.857 596.877 194.555C583.117 199.594 569.809 198.666 556.956 191.77C554.751 189.75 552.585 187.738 550.457 185.735C543.254 193.198 535.208 199.542 526.319 204.767C497.282 212.259 484.129 200.963 486.862 170.881C489.478 161.007 492.881 151.414 497.074 142.1C502.306 124.04 497.045 120.327 481.291 130.96C468.842 161.113 456.155 191.131 443.227 221.014C436.419 212.968 429.61 204.922 422.802 196.876C408.913 213.181 391.738 224.476 371.276 230.763C353.456 234.166 339.53 228.441 329.498 213.587C322.548 220.072 315.74 226.726 309.073 233.548C302.426 239.346 294.69 242.595 285.863 243.296C275.38 242.566 269.036 236.996 266.831 226.585C255.875 241.579 241.176 250.244 222.732 252.58C219.113 252.136 215.709 251.053 212.52 249.33C209.396 246.303 206.611 243.054 204.164 239.582C194.878 245.775 185.284 251.5 175.384 256.758C165.391 261.535 155.798 260.916 146.604 254.901C138.897 246.303 135.957 236.245 137.784 224.728C138.663 216.257 140.984 208.211 144.747 200.59C144.438 200.28 144.128 199.97 143.818 199.661C137.045 202.074 130.237 204.395 123.394 206.624C122.065 207.056 120.983 207.83 120.144 208.945C115.188 242.649 97.703 267.251 67.6898 282.753C52.9338 289.091 37.7703 290.329 22.1982 286.466C5.46098 279.155 -1.81153 266.313 0.380881 247.938C1.04849 242.482 2.44109 237.221 4.55867 232.155C31.381 222.388 58.3046 212.795 85.3293 203.375C88.3401 190.351 85.4008 178.901 76.5095 169.024C47.485 146.463 43.4623 120.158 64.4404 90.1102C85.9903 68.2808 111.521 61.6269 141.033 70.1496C158.891 77.5499 165.854 90.7025 161.922 109.607C161.084 113.603 159.381 117.163 156.816 120.283C143.869 123.06 130.871 125.226 117.823 126.782C121.331 117.699 124.116 108.415 126.179 98.93C122.593 88.6702 116.095 86.5043 106.682 92.4312C95.59 103.63 89.0912 117.092 87.1861 132.817C87.4442 139.315 89.4551 145.196 93.2207 150.456C99.7195 156.955 106.218 163.454 112.717 169.952C117.44 176.392 120.535 183.51 122.001 191.306C132.595 187.465 143.117 183.442 153.567 179.236C170.486 138.28 187.661 97.4306 205.093 56.6878C205.58 56.0454 206.199 55.5812 206.949 55.2952C218.699 53.4617 230.459 51.7599 242.229 50.1891C218.963 106.825 195.599 163.457 172.135 220.086C170.114 224.079 169.805 228.102 171.206 232.155C174.313 234.451 177.562 234.606 180.954 232.619C187.842 228.79 194.496 224.612 200.915 220.086C202.057 211.905 203.914 203.858 206.485 195.948C215.95 174.051 225.234 152.079 234.337 130.031C240.013 118.476 248.522 109.657 259.868 103.572C269.503 99.4174 279.096 99.4174 288.649 103.572C291.677 105.978 293.998 108.919 295.612 112.392C297.49 108.929 299.191 105.37 300.718 101.715C313.628 99.2298 326.471 96.5988 339.246 93.8238C339.865 95.0613 339.865 96.2998 339.246 97.5374C323.738 134.277 308.11 170.949 292.362 207.553C293.575 210.467 295.741 212.169 298.861 212.659C301.9 211.758 304.686 210.366 307.216 208.481C313.518 203.078 319.552 197.352 325.32 191.306C336.746 160.429 349.434 130.101 363.385 100.323C371.82 89.0602 383.115 82.7164 397.271 81.2904C409.566 79.3668 421.016 81.5327 431.622 87.7892C434.469 90.8501 436.48 94.4096 437.656 98.4658C439.191 110.283 437.488 121.579 432.55 132.352C420.263 136.965 407.884 140.988 395.414 144.421C401.335 132.272 405.668 119.583 408.412 106.357C408.529 99.3385 405.434 97.1725 399.128 99.8584C397.426 101.56 395.723 103.263 394.022 104.965C382.157 131.277 371.016 157.891 360.599 184.807C359.809 190.148 360.119 195.409 361.528 200.59C365.292 205.061 370.089 206.453 375.918 204.767C396.171 195.794 413.965 183.261 429.301 167.167C451.828 113.977 474.264 60.7487 496.61 7.48274C508.076 4.69848 519.527 2.22337 530.961 0.0555569ZM620.087 64.115C623.912 65.7258 625.459 68.666 624.729 72.9348C623.663 81.5494 621.187 89.7509 617.302 97.5374C610.317 100.536 603.2 102.857 595.948 104.5C600.61 93.4738 605.406 82.488 610.339 71.5422C612.989 68.0969 616.239 65.6218 620.087 64.115ZM278.436 123.533C283.616 124.532 286.865 127.628 288.184 132.817C278.184 159.336 267.352 185.641 255.69 211.73C252.191 216.041 248.013 219.599 243.157 222.407C237.493 223.073 235.017 220.442 235.73 214.516C235.83 210.963 236.604 207.559 238.051 204.303C247.335 182.022 256.619 159.74 265.903 137.458C268.054 130.828 272.232 126.186 278.436 123.533ZM77.9021 221.943C78.8277 221.915 79.447 222.379 79.7589 223.335C75.8569 234.737 71.0608 245.724 65.3688 256.293C57.9518 265.046 49.5962 266.284 40.302 260.007C38.5167 257.181 37.7433 254.087 37.981 250.723C38.4666 245.377 39.395 240.116 40.7662 234.94C53.4128 231.139 65.7912 226.806 77.9021 221.943Z" fill="#0C9DFE"/>
<path opacity="0.932" fill-rule="evenodd" clip-rule="evenodd" d="M760.274 241.44C773.967 239.704 785.262 244.037 794.16 254.437C805.462 276.228 800.356 292.785 778.842 304.106C757.255 309.639 742.556 302.056 734.743 281.361C732.064 260.693 740.574 247.386 760.274 241.44ZM763.059 256.294C778.731 256.977 784.766 265.024 781.163 280.432C776.417 290.87 768.834 293.5 758.417 288.324C752.297 282.655 750.286 275.692 752.382 267.435C754.281 261.979 757.839 258.266 763.059 256.294Z" fill="#0C9DFE"/>
<path opacity="0.923" fill-rule="evenodd" clip-rule="evenodd" d="M474.328 242.368C485.518 242.005 496.659 242.469 507.75 243.76C516.415 246.837 520.748 253.026 520.748 262.328C520.924 271.58 516.593 277.46 507.75 279.968C513.127 287.779 518.387 295.671 523.533 303.642C517.057 304.722 510.558 304.878 504.037 304.106C499.742 297.22 495.564 290.257 491.503 283.217C491.039 290.328 490.885 297.446 491.039 304.57C485.469 304.57 479.899 304.57 474.328 304.57C474.328 283.836 474.328 263.101 474.328 242.368ZM491.039 256.293C501.619 255.398 505.023 259.729 501.252 269.291C498.049 270.892 494.644 271.511 491.039 271.148C491.039 266.197 491.039 261.245 491.039 256.293Z" fill="#0C9DFE"/>
<path opacity="0.925" fill-rule="evenodd" clip-rule="evenodd" d="M559.741 242.368C567.576 241.796 575.158 242.415 582.487 244.225C589.272 264.271 596.235 284.231 603.376 304.107C597.496 304.726 591.616 304.726 585.736 304.107C584.448 300.656 583.519 297.097 582.951 293.43C575.19 293.123 567.453 293.432 559.741 294.358C558.376 297.652 557.448 301.057 556.956 304.571C551.076 304.571 545.196 304.571 539.316 304.571C546.124 283.837 552.933 263.102 559.741 242.368ZM570.882 255.366C573.701 263.523 576.177 271.879 578.309 280.432C573.348 280.586 568.397 280.431 563.455 279.968C566.433 271.925 568.908 263.725 570.882 255.366Z" fill="#0C9DFE"/>
<path opacity="0.936" fill-rule="evenodd" clip-rule="evenodd" d="M621.943 242.368C633.12 242.082 644.261 242.546 655.366 243.76C670.203 248.044 677.631 257.947 677.647 273.469C677.121 291.635 667.837 301.848 649.795 304.106C640.517 304.571 631.233 304.725 621.943 304.571C621.943 283.837 621.943 263.102 621.943 242.368ZM639.583 257.222C656.431 256.901 662.775 264.947 658.615 281.361C654.198 288.246 647.854 291.031 639.583 289.716C639.583 278.885 639.583 268.054 639.583 257.222Z" fill="#0C9DFE"/>
<path opacity="0.936" fill-rule="evenodd" clip-rule="evenodd" d="M697.145 242.367C703.024 242.367 708.905 242.367 714.784 242.367C714.784 263.101 714.784 283.836 714.784 304.57C708.905 304.57 703.024 304.57 697.145 304.57C697.145 283.836 697.145 263.101 697.145 242.367Z" fill="#0C9DFE"/>
</svg>
