<svg width="500" height="500" viewBox="0 0 500 500" fill="none" xmlns="http://www.w3.org/2000/svg">
<path opacity="0.961" fill-rule="evenodd" clip-rule="evenodd" d="M344.562 156.036C345.783 155.938 346.988 156.039 348.177 156.337C338.882 178.092 329.644 199.881 320.463 221.706C325.653 220.891 329.971 218.281 333.416 213.874C337.05 208.311 339.963 202.386 342.152 196.101C349.943 194.434 357.775 193.229 365.648 192.486C362.34 200.609 358.624 208.542 354.502 216.284C351.586 219.797 348.071 222.508 343.959 224.417C347.957 225.912 349.965 228.824 349.984 233.153C349.554 237.082 348.65 240.898 347.273 244.6C344.696 250.355 342.287 256.179 340.043 262.072C339.641 264.08 339.641 266.088 340.043 268.097C341.573 270.33 343.481 270.832 345.766 269.603C348.145 268.229 350.353 266.622 352.394 264.782C351.657 262.005 351.657 259.194 352.394 256.348C359.539 237.537 367.271 218.961 375.589 200.619C379.862 193.744 385.987 189.426 393.964 187.666C399.355 186.754 404.777 186.554 410.231 187.064C419.707 188.204 424.727 193.526 425.293 203.029C424.708 210.39 422.901 217.419 419.871 224.116C406.839 228.559 393.886 233.178 381.012 237.973C378.768 242.695 376.76 247.515 374.987 252.432C374.12 255.603 373.919 258.816 374.384 262.072C375.764 266.83 378.877 268.537 383.722 267.193C391.976 264.372 399.406 260.155 406.014 254.541C413.708 248.053 421.039 241.124 428.005 233.755C436.439 213.673 444.874 193.59 453.308 173.508C455.578 172.458 457.988 171.855 460.538 171.7C461.764 171.612 462.768 172.014 463.55 172.905C472.56 184.527 481.798 195.973 491.264 207.246C494.084 211.331 494.686 215.749 493.072 220.501C489.859 228.533 486.645 236.567 483.432 244.6C482.267 248.899 483.773 251.711 487.95 253.035C491.193 252.116 494.206 250.71 496.988 248.817C498.107 250.97 499.112 253.179 500 255.444C493.354 262.936 485.02 267.354 474.998 268.699C466.853 267.584 462.033 262.965 460.538 254.842C460.157 251.399 460.358 247.985 461.141 244.6C465.753 233.069 470.272 221.521 474.697 209.958C474.627 208.312 474.125 206.805 473.19 205.439C471.037 202.937 469.027 200.326 467.166 197.607C455.963 223.823 444.616 249.93 433.125 275.929C427.883 270.385 422.964 264.561 418.365 258.457C409.754 268.677 399.412 276.61 387.337 282.255C378.408 285.525 369.772 284.922 361.431 280.447C360 279.136 358.595 277.831 357.214 276.531C352.539 281.374 347.318 285.491 341.55 288.882C322.706 293.743 314.171 286.413 315.944 266.892C317.642 260.484 319.85 254.259 322.571 248.214C325.967 236.495 322.552 234.085 312.329 240.985C304.25 260.553 296.017 280.033 287.628 299.425C283.21 294.204 278.791 288.982 274.373 283.761C265.36 294.342 254.215 301.672 240.936 305.751C229.372 307.96 220.335 304.245 213.824 294.605C209.314 298.814 204.896 303.132 200.57 307.559C196.256 311.321 191.236 313.43 185.508 313.885C178.705 313.411 174.588 309.796 173.157 303.04C166.048 312.77 156.509 318.393 144.54 319.909C142.191 319.621 139.982 318.918 137.913 317.8C135.885 315.836 134.078 313.728 132.49 311.474C126.464 315.493 120.238 319.208 113.814 322.621C107.329 325.721 101.104 325.319 95.1372 321.416C90.1359 315.836 88.228 309.309 89.4136 301.835C89.984 296.338 91.4902 291.116 93.9321 286.171C93.7316 285.97 93.5304 285.769 93.3293 285.568C88.934 287.134 84.516 288.64 80.0753 290.087C79.2129 290.367 78.5107 290.869 77.9663 291.593C74.7501 313.465 63.4034 329.43 43.9266 339.49C34.3509 343.603 24.5107 344.406 14.4053 341.899C3.54385 337.155 -1.17558 328.821 0.247169 316.897C0.680407 313.356 1.58412 309.942 2.9583 306.655C20.3644 300.317 37.8362 294.091 55.3736 287.978C57.3274 279.526 55.42 272.096 49.6501 265.686C30.8149 251.046 28.2044 233.975 41.818 214.476C55.8026 200.31 72.3705 195.992 91.522 201.523C103.111 206.325 107.629 214.861 105.078 227.128C104.534 229.722 103.429 232.032 101.764 234.056C93.3624 235.859 84.9275 237.264 76.4601 238.274C78.7366 232.38 80.5439 226.355 81.8826 220.2C79.5555 213.542 75.3387 212.136 69.2302 215.982C62.0322 223.25 57.8149 231.986 56.5786 242.19C56.7461 246.407 58.051 250.224 60.4947 253.637C64.712 257.854 68.9291 262.072 73.1466 266.289C76.2115 270.468 78.22 275.087 79.1714 280.146C86.0462 277.654 92.8744 275.043 99.6558 272.313C110.635 245.735 121.781 219.227 133.093 192.787C133.409 192.37 133.811 192.069 134.298 191.883C141.923 190.693 149.554 189.589 157.192 188.57C142.094 225.323 126.932 262.074 111.705 298.823C110.394 301.414 110.193 304.025 111.102 306.655C113.119 308.145 115.227 308.245 117.428 306.956C121.898 304.471 126.216 301.76 130.382 298.823C131.123 293.514 132.328 288.292 133.996 283.159C140.139 268.949 146.163 254.69 152.071 240.382C155.754 232.884 161.276 227.161 168.639 223.212C174.891 220.516 181.117 220.516 187.316 223.212C189.281 224.773 190.787 226.682 191.835 228.936C193.053 226.688 194.157 224.379 195.148 222.007C203.526 220.394 211.86 218.687 220.15 216.886C220.552 217.689 220.552 218.493 220.15 219.296C210.087 243.138 199.945 266.936 189.725 290.689C190.513 292.58 191.918 293.685 193.943 294.003C195.915 293.418 197.723 292.515 199.365 291.292C203.454 287.785 207.37 284.07 211.113 280.146C218.528 260.109 226.762 240.428 235.815 221.104C241.289 213.795 248.619 209.678 257.805 208.753C265.784 207.504 273.214 208.91 280.097 212.97C281.944 214.956 283.249 217.266 284.013 219.898C285.009 227.567 283.904 234.898 280.699 241.889C272.726 244.882 264.692 247.493 256.6 249.721C260.442 241.837 263.254 233.602 265.035 225.019C265.111 220.465 263.102 219.059 259.01 220.802C257.906 221.906 256.801 223.012 255.697 224.116C247.997 241.191 240.767 258.462 234.007 275.929C233.495 279.395 233.696 282.809 234.61 286.171C237.053 289.072 240.166 289.976 243.948 288.882C257.091 283.059 268.639 274.925 278.591 264.481C293.209 229.964 307.769 195.422 322.27 160.856C329.711 159.049 337.142 157.443 344.562 156.036ZM402.399 197.607C404.882 198.652 405.885 200.56 405.412 203.33C404.72 208.921 403.113 214.243 400.592 219.296C396.059 221.242 391.441 222.748 386.735 223.814C389.76 216.659 392.872 209.53 396.074 202.427C397.793 200.191 399.902 198.585 402.399 197.607ZM180.688 236.166C184.05 236.814 186.158 238.823 187.014 242.19C180.525 259.4 173.495 276.47 165.928 293.4C163.657 296.198 160.946 298.507 157.794 300.329C154.119 300.761 152.512 299.054 152.975 295.208C153.04 292.902 153.542 290.693 154.481 288.58C160.506 274.121 166.53 259.662 172.555 245.202C173.951 240.9 176.662 237.887 180.688 236.166ZM50.5538 300.028C51.1545 300.01 51.5564 300.311 51.7588 300.931C49.2266 308.33 46.1142 315.46 42.4204 322.319C37.6073 327.999 32.185 328.802 26.1536 324.729C24.995 322.895 24.4931 320.887 24.6474 318.704C24.9625 315.235 25.565 311.821 26.4548 308.462C34.6617 305.995 42.6946 303.184 50.5538 300.028Z" fill="#0C9DFE"/>
</svg>
