<svg width="500" height="500" viewBox="0 0 500 500" fill="none" xmlns="http://www.w3.org/2000/svg">
<g clip-path="url(#clip0_19_4034)">
<path d="M254.075 36.4993C243.92 45.8694 236.329 50.6853 229.42 55.9723C159.222 110.204 130.955 183.28 148.073 269.914C165.923 360.317 224.499 414.601 313.593 435.801C326.889 438.942 337.725 441.246 351.387 442.921C359.03 443.863 369.866 443.182 378.765 445.433C335.579 506.051 208.428 518.195 124.045 472.863C19.4564 416.747 -27.0799 291.167 16.0015 181.552C54.6335 83.245 164.405 13.3096 254.075 36.4469V36.4993ZM198.011 55.9723C119.91 63.4055 50.8122 126.588 27.0467 209.558C3.64766 291.324 35.4745 384.606 103.63 436.848C174.979 491.551 271.035 492.859 322.754 460.614C123.103 422.872 60.8628 195.32 198.011 55.9723Z" fill="#0C9DFE"/>
<path d="M386.46 377.277C388.397 357.333 389.81 343.2 391.119 329.537C381.382 318.597 372.379 308.546 360.025 294.726C377.718 290.696 390.648 287.764 405.724 284.309C412.215 273.264 419.439 260.91 429.332 244.107C438.912 259.288 446.345 271.118 454.563 284.205C467.231 287.084 480.998 290.172 500 294.517C487.018 309.122 477.596 319.748 468.697 329.851C470.006 344.404 471.262 357.909 472.937 376.806C455.977 369.268 443.152 363.562 430.013 357.7C417.345 363.405 404.991 368.954 386.408 377.382L386.46 377.277ZM405.148 323.308C405.567 332.154 405.881 340.32 406.352 350.266C415.408 346.969 422.527 344.403 430.327 341.577C437.027 344.142 444.094 346.864 452.993 350.266V325.297C459.013 317.288 463.567 311.268 469.011 304.044C460.06 301.531 452.731 299.49 445.403 297.448C440.116 290.434 435.09 283.734 429.489 276.353C423.783 284.466 418.915 291.324 414.466 297.658C406.142 299.909 398.919 301.898 390.229 304.253C395.987 311.634 400.646 317.654 405.096 323.308H405.148Z" fill="#0C9DFE"/>
<path d="M310.351 240.391C311.555 252.64 312.916 266.041 314.748 284.362C297.787 277.871 284.701 272.846 270.881 267.559C258.998 272.532 246.54 277.767 229.161 285.043C230.522 267.192 231.516 254.001 232.668 239.135C224.135 229.503 214.608 218.824 201.783 204.376C219.633 200.136 233.296 196.838 248.058 193.331C254.444 181.815 260.987 169.932 270.253 153.233C279.885 168.152 287.423 179.773 296.479 193.855C307.576 196.21 320.925 199.037 340.084 203.12C329.667 216.207 321.239 226.781 310.351 240.391ZM310.194 214.322C300.509 210.867 292.71 208.093 285.276 205.476C280.932 198.88 276.901 192.808 271.666 184.903C266.222 193.017 262.034 199.299 257.847 205.58C250.047 208.407 242.247 211.234 232.825 214.689C238.792 222.122 243.451 227.985 247.639 233.219C248.058 242.118 248.372 250.127 248.791 259.55C258.265 256.095 265.385 253.53 271.3 251.331C280.146 254.263 287.632 256.671 296.74 259.655C296.06 249.185 295.536 241.595 295.065 234.057C299.881 227.775 304.383 221.912 310.194 214.375V214.322Z" fill="#0C9DFE"/>
</g>
<defs>
<clipPath id="clip0_19_4034">
<rect width="500" height="500" fill="white"/>
</clipPath>
</defs>
</svg>
