<svg width="500" height="500" viewBox="0 0 500 500" fill="none" xmlns="http://www.w3.org/2000/svg">
<path d="M39.6266 226.244C63.3143 212.54 84.3701 200.359 107.781 186.793C98.6843 180.887 91.2501 175.673 83.4004 171.105C66.6389 161.323 49.508 152.049 32.9312 141.99C30.3916 140.467 27.9443 135.115 28.7293 132.577C30.6225 126.671 33.9932 120.95 37.9181 116.151C39.0725 114.767 44.7982 115.736 47.5225 117.258C69.9173 129.855 92.0351 142.867 114.338 155.602C116.185 156.663 118.632 156.663 122.418 157.54V84.9596C143.89 87.8204 151.231 95.5721 151.231 114.259C151.231 131.516 151.416 148.773 151.139 165.983C151 173.274 153.355 177.842 160.051 181.625C183.323 194.729 206.226 208.618 229.313 222.091C230.514 222.783 232.268 222.46 234.669 222.737C235.085 219.553 235.731 216.739 235.778 213.878C235.87 187.808 235.778 161.738 235.87 135.715C235.87 129.67 234.9 125.61 228.251 122.334C214.768 115.736 202.255 107.154 189.279 99.5402C175.427 91.4194 169.409 78.1616 171.225 59.7666C192.604 71.8094 212.921 83.2524 235.824 96.1258C235.824 86.1132 235.824 78.3153 235.824 70.5174C235.824 50.9536 236.239 31.4359 235.639 11.8721C235.362 2.92068 237.855 -0.95517 247.183 0.198359C252.401 0.844335 257.757 0.290634 264.452 0.290634V96.0335C287.355 83.2063 307.857 71.671 328.728 59.9511C334.546 82.0527 332.699 86.8975 315.522 97.0486C300.607 105.862 285.508 114.398 270.686 123.441C268.192 124.964 265.33 128.425 265.283 131.008C264.914 161.185 265.052 191.407 265.052 224.49C272.302 220.292 277.566 217.292 282.83 214.247C302.454 202.942 321.894 191.177 341.888 180.564C348.675 176.965 350.014 172.535 349.922 165.891C349.691 148.265 349.83 130.639 349.83 113.013C349.83 95.1107 357.264 87.359 377.719 84.9596V157.309C384.646 154.54 390.094 153.064 394.896 150.342C414.105 139.591 433.36 128.978 451.969 117.305C458.618 113.152 461.758 113.106 464.62 120.396C465.729 123.164 467.068 125.979 468.915 128.286C474.548 135.3 473.763 138.852 464.99 143.467C444.165 154.448 424.264 167.137 404.039 179.226C400.853 181.118 397.852 183.379 392.818 186.793C415.444 199.989 436.361 212.171 457.417 224.444C455.293 233.58 438.024 242.116 429.897 237.548C411.058 226.982 392.495 215.954 373.333 206.08C369.131 203.911 361.835 203.819 357.726 206.034C334.176 218.769 311.227 232.611 287.909 245.808C281.675 249.36 281.629 251.668 287.771 255.22C312.012 269.247 336.023 283.736 360.496 297.393C363.59 299.147 369.639 298.132 373.148 296.194C390.417 286.735 407.225 276.538 424.264 266.663C436.592 259.512 448.829 262.926 458.572 276.814C437.562 289.088 416.552 301.315 393.049 315.019C404.962 322.402 415.121 328.908 425.464 335.045C438.855 342.936 452.199 350.826 465.96 358.024C473.255 361.853 473.809 365.775 469.884 372.42C460.372 388.615 460.557 388.754 443.796 379.249C425.603 368.959 407.502 358.531 389.263 348.334C386.262 346.673 382.799 345.796 378.043 343.951V415.746C357.679 415.839 349.783 408.41 349.783 389.953C349.783 372.327 349.553 354.702 349.876 337.076C350.014 329.185 348.306 324.063 340.41 319.91C318.061 308.006 296.405 294.763 274.426 282.213C272.025 280.829 269.116 280.367 265.052 279.029C265.052 310.959 264.868 341.136 265.33 371.359C265.33 374.127 268.977 377.68 271.794 379.433C286.57 388.615 301.531 397.474 316.584 406.195C332.191 415.239 335.1 423.36 328.312 441.954C307.81 430.419 287.401 418.93 265.283 406.472V500H235.962V405.595C213.429 418.423 192.881 430.142 170.255 443.062C170.255 432.726 169.886 424.836 170.486 416.946C170.671 414.777 173.488 412.286 175.704 410.948C193.481 400.243 211.443 389.861 229.175 379.11C231.76 377.541 235.27 374.542 235.316 372.189C235.731 341.228 235.593 310.267 235.593 276.676C223.911 283.136 214.122 288.396 204.425 293.887C190.849 301.592 177.551 309.805 163.745 317.003C154.648 321.756 150.4 327.8 150.954 338.506C151.832 354.563 151.185 370.666 151.185 386.77C151.185 407.21 144.998 413.947 122.741 416.438V341.598C108.935 349.395 97.2529 355.901 85.7091 362.499C72.5493 370.02 59.2971 377.403 46.4143 385.432C41.1042 388.754 38.2413 388.661 36.4867 382.386C36.2096 381.371 35.0553 380.633 34.5012 379.664C23.4654 360.562 25.4047 363.561 40.8271 354.609C60.0359 343.443 79.2908 332.414 98.4534 321.202C100.947 319.726 102.932 317.372 106.257 314.466C84.093 301.546 62.8987 289.18 41.6121 276.768C51.7706 262.557 63.6837 259.604 76.9821 267.356C93.6512 277.045 110.136 287.104 127.082 296.194C130.683 298.132 137.102 298.501 140.565 296.563C164.437 283.366 187.802 269.293 211.443 255.682C218.231 251.76 219.386 249.73 211.305 245.3C188.448 232.842 166.1 219.507 143.612 206.357C137.517 202.804 132.531 202.389 125.881 206.495C107.504 217.8 88.5258 228.136 69.5479 238.425C66.9621 239.809 62.4832 239.809 59.8512 238.517C53.2482 235.287 47.1531 230.996 39.5342 226.29L39.6266 226.244Z" fill="#0C9DFE"/>
</svg>
