<svg width="159" height="153" viewBox="0 0 159 153" fill="none" xmlns="http://www.w3.org/2000/svg">
<path d="M30.4299 76.0398C35.5599 73.0698 40.1199 70.4298 45.1899 67.4898C43.2199 66.2098 41.6099 65.0798 39.9099 64.0898C36.2799 61.9698 32.5699 59.9598 28.9799 57.7798C28.4299 57.4498 27.8999 56.2898 28.0699 55.7398C28.4799 54.4598 29.2099 53.2198 30.0599 52.1798C30.3099 51.8798 31.5499 52.0898 32.1399 52.4198C36.9899 55.1498 41.7799 57.9698 46.6099 60.7298C47.0099 60.9598 47.5399 60.9598 48.3599 61.1498V45.4198C53.0099 46.0398 54.5999 47.7198 54.5999 51.7698C54.5999 55.5098 54.6399 59.2498 54.5799 62.9798C54.5499 64.5598 55.0599 65.5498 56.5099 66.3698C61.5499 69.2098 66.5099 72.2198 71.5099 75.1398C71.7699 75.2898 72.1499 75.2198 72.6699 75.2798C72.7599 74.5898 72.8999 73.9798 72.9099 73.3598C72.9299 67.7098 72.9099 62.0598 72.9299 56.4198C72.9299 55.1098 72.7199 54.2298 71.2799 53.5198C68.3599 52.0898 65.6499 50.2298 62.8399 48.5798C59.8399 46.8198 58.5366 43.9465 58.9299 39.9598C63.5599 42.5698 67.9599 45.0498 72.9199 47.8398C72.9199 45.6698 72.9199 43.9798 72.9199 42.2898C72.9199 38.0498 73.0099 33.8198 72.8799 29.5798C72.8199 27.6398 73.3599 26.7998 75.3799 27.0498C76.5099 27.1898 77.6699 27.0698 79.1199 27.0698V47.8198C84.0799 45.0398 88.5199 42.5398 93.0399 39.9998C94.2999 44.7898 93.8999 45.8398 90.1799 48.0398C86.9499 49.9498 83.6799 51.7998 80.4699 53.7598C79.9299 54.0898 79.3099 54.8398 79.2999 55.3998C79.2199 61.9398 79.2499 68.4898 79.2499 75.6598C80.8199 74.7498 81.9599 74.0998 83.0999 73.4398C87.3499 70.9898 91.5599 68.4398 95.8899 66.1398C97.3599 65.3598 97.6499 64.3998 97.6299 62.9598C97.5799 59.1398 97.6099 55.3198 97.6099 51.4998C97.6099 47.6198 99.2199 45.9398 103.65 45.4198V61.0998C105.15 60.4998 106.33 60.1798 107.37 59.5898C111.53 57.2598 115.7 54.9598 119.73 52.4298C121.17 51.5298 121.85 51.5198 122.47 53.0998C122.71 53.6998 123 54.3098 123.4 54.8098C124.62 56.3298 124.45 57.0998 122.55 58.0998C118.04 60.4798 113.73 63.2298 109.35 65.8498C108.66 66.2598 108.01 66.7498 106.92 67.4898C111.82 70.3498 116.35 72.9898 120.91 75.6498C120.45 77.6298 116.71 79.4798 114.95 78.4898C110.87 76.1998 106.85 73.8098 102.7 71.6698C101.79 71.1998 100.21 71.1798 99.3199 71.6598C94.2199 74.4198 89.2499 77.4198 84.1999 80.2798C82.8499 81.0498 82.8399 81.5498 84.1699 82.3198C89.4199 85.3598 94.6199 88.4998 99.9199 91.4598C100.59 91.8398 101.9 91.6198 102.66 91.1998C106.4 89.1498 110.04 86.9398 113.73 84.7998C116.4 83.2498 119.05 83.9898 121.16 86.9998C116.61 89.6598 112.06 92.3098 106.97 95.2798C109.55 96.8798 111.75 98.2898 113.99 99.6198C116.89 101.33 119.78 103.04 122.76 104.6C124.34 105.43 124.46 106.28 123.61 107.72C121.55 111.23 121.59 111.26 117.96 109.2C114.02 106.97 110.1 104.71 106.15 102.5C105.5 102.14 104.75 101.95 103.72 101.55V117.11C99.3099 117.13 97.5999 115.52 97.5999 111.52C97.5999 107.7 97.5499 103.88 97.6199 100.06C97.6499 98.3498 97.2799 97.2398 95.5699 96.3398C90.7299 93.7598 86.0399 90.8898 81.2799 88.1698C80.7599 87.8698 80.1299 87.7698 79.2499 87.4798C79.2499 94.3998 79.2099 100.94 79.3099 107.49C79.3099 108.09 80.0999 108.86 80.7099 109.24C83.9099 111.23 87.1499 113.15 90.4099 115.04C93.7899 117 94.4199 118.76 92.9499 122.79C88.5099 120.29 84.0899 117.8 79.2999 115.1V135.37H72.9499V114.91C68.0699 117.69 63.6199 120.23 58.7199 123.03C58.7199 120.79 58.6399 119.08 58.7699 117.37C58.8099 116.9 59.4199 116.36 59.8999 116.07C63.7499 113.75 67.6399 111.5 71.4799 109.17C72.0399 108.83 72.7999 108.18 72.8099 107.67C72.8999 100.96 72.8699 94.2498 72.8699 86.9698C70.3399 88.3698 68.2199 89.5098 66.1199 90.6998C63.1799 92.3698 60.2999 94.1498 57.3099 95.7098C55.3399 96.7398 54.4199 98.0498 54.5399 100.37C54.7299 103.85 54.5899 107.34 54.5899 110.83C54.5899 115.26 53.2499 116.72 48.4299 117.26V101.04C45.4399 102.73 42.9099 104.14 40.4099 105.57C37.5599 107.2 34.6899 108.8 31.8999 110.54C30.7499 111.26 30.1299 111.24 29.7499 109.88C29.6899 109.66 29.4399 109.5 29.3199 109.29C26.9299 105.15 27.3499 105.8 30.6899 103.86C34.8499 101.44 39.0199 99.0498 43.1699 96.6198C43.7099 96.2998 44.1399 95.7898 44.8599 95.1598C40.0599 92.3598 35.4699 89.6798 30.8599 86.9898C33.0599 83.9098 35.6399 83.2698 38.5199 84.9498C42.1299 87.0498 45.6999 89.2298 49.3699 91.1998C50.1499 91.6198 51.5399 91.6998 52.2899 91.2798C57.4599 88.4198 62.5199 85.3698 67.6399 82.4198C69.1099 81.5698 69.3599 81.1298 67.6099 80.1698C62.6599 77.4698 57.8199 74.5798 52.9499 71.7298C51.6299 70.9598 50.5499 70.8698 49.1099 71.7598C45.1299 74.2098 41.0199 76.4498 36.9099 78.6798C36.3499 78.9798 35.3799 78.9798 34.8099 78.6998C33.3799 77.9998 32.0599 77.0698 30.4099 76.0498L30.4299 76.0398Z" fill="#0C9DFE"/>
</svg>
