<svg width="500" height="500" viewBox="0 0 500 500" fill="none" xmlns="http://www.w3.org/2000/svg">
<g clip-path="url(#clip0_19_3774)">
<path d="M328.985 378.602V0C381.298 11.8034 432.875 20.4501 471.189 57.782C491.894 77.9577 503.535 111.515 499.041 139.583C450.558 134.093 402.003 128.603 351.163 122.838V143.906C351.163 236.206 352.047 328.506 350.352 420.738C349.984 438.924 344.163 460.129 332.816 474.471C308.649 505.215 271.293 501.784 235.705 496.568C216.474 493.755 200.043 485.039 189.507 469.256C161.95 427.875 191.643 382.651 248.23 380.112C267.756 379.22 287.355 380.044 306.954 379.838C313.512 379.838 320.143 379.083 328.911 378.534L328.985 378.602ZM322.132 402.072C288.902 405.572 258.619 406.807 229.368 412.503C202.843 417.65 206.453 452.031 221.042 461.776C240.789 475.02 279.913 477.765 301.06 465.344C324.564 451.55 321.469 429.11 322.206 402.003L322.132 402.072ZM466.031 108.702C460.284 70.8894 409.444 43.0963 357.131 37.1946C357.131 53.7331 356.615 70.1345 357.573 86.3986C357.794 89.9671 363.025 95.8002 366.636 96.2805C399.055 100.878 431.622 104.515 466.031 108.702Z" fill="#0C9DFE"/>
<path d="M76.6281 167.031H104.701V236.342C125.7 236.342 144.488 236.616 163.277 236.273C176.715 237.371 180.739 238.058 180.445 250.273C176.42 262.9 173.224 262.968 163.719 262.9C144.93 262.694 126.068 262.9 105.585 262.9V332.005H76.6281C76.6281 314.711 75.6702 297.692 76.9228 280.879C77.9543 266.262 71.7651 261.733 56.8817 262.694C42.8823 263.586 28.7356 262.762 14.7362 262.831C5.23135 262.831 0 259.606 0 249.792C0 240.185 0.690776 236.411 10.4167 236.479C25.6686 236.479 45.0191 235.862 60.2711 236.548C73.3124 237.097 77.3649 232.019 76.8491 220.421C76.1123 202.922 76.6281 185.422 76.6281 167.1V167.031Z" fill="#0C9DFE"/>
</g>
<defs>
<clipPath id="clip0_19_3774">
<rect width="500" height="500" fill="white"/>
</clipPath>
</defs>
</svg>
