<svg width="500" height="500" viewBox="0 0 500 500" fill="none" xmlns="http://www.w3.org/2000/svg">
<g clip-path="url(#clip0_19_3054)">
<path d="M0.0801488 249.709C-3.49724 115.646 113.117 -6.48372 262.495 0.267369C381.683 5.62469 507.023 107.762 499.693 265.041C494.24 382.073 392.59 505.597 237.366 499.804C115.167 495.231 -3.01735 389.957 0.0801488 249.709ZM249.101 474.367C375.881 473.496 470.114 373.145 473.648 259.161C477.924 121.7 369.206 30.2771 259.703 26.3135C123.195 21.3918 23.6822 130.367 25.0783 252.41C26.4743 373.188 123.631 473.017 249.145 474.367H249.101Z" fill="#0C9DFE"/>
<path d="M245.655 140.646C293.426 143.477 339.845 146.831 384.519 161.291C397.301 165.429 409.779 170.569 422.038 176.057C436.522 182.546 442.542 197.791 436.434 210.248C429.236 224.839 416.89 227.452 400.661 221.79C376.23 213.253 351.45 204.193 326.103 200.404C290.983 195.177 255.078 192.085 219.61 192.826C180.956 193.61 142.303 198.967 105.875 214.298C94.0084 219.307 77.343 211.641 74.5509 201.145C69.752 183.156 76.8195 168.957 91.8707 165.298C116.869 159.244 141.474 151.056 166.778 147.049C193.172 142.867 220.177 142.519 245.699 140.603L245.655 140.646Z" fill="#0C9DFE"/>
<path d="M383.995 304.373C381.334 303.327 374.964 300.235 368.333 298.319C340.281 290.217 312.491 280.112 283.872 275.234C258.786 270.966 232.436 270.095 207.132 272.621C179.909 275.321 153.21 283.466 126.379 289.651C112.157 292.918 99.7668 289.172 95.3606 279.154C91.6087 270.617 96.7566 254.981 105.918 251.409C117.916 246.705 130.48 243.439 142.914 240.041C186.759 228.151 231.738 227.541 276.324 231.33C303.765 233.639 330.77 242.35 357.601 249.58C371.169 253.239 384.257 259.249 396.865 265.521C405.721 269.92 410.956 278.457 407.902 288.693C405.198 297.752 400.006 305.81 383.995 304.46V304.373Z" fill="#0C9DFE"/>
<path d="M239.373 310.384C287.406 311.821 330.684 319.443 370.995 339.96C381.989 345.535 383.079 355.814 378.804 364.7C375.314 371.886 368.595 376.416 357.645 371.233C313.756 350.501 267.163 340.439 218.65 345.927C190.293 349.15 162.284 355.945 134.276 361.912C124.591 363.959 112.55 360.431 110.543 351.807C108.1 341.354 112.245 333.732 122.933 330.073C161.717 316.743 201.985 312.736 239.373 310.384Z" fill="#0C9DFE"/>
</g>
<defs>
<clipPath id="clip0_19_3054">
<rect width="500" height="500" fill="white"/>
</clipPath>
</defs>
</svg>
