<svg width="177" height="180" viewBox="0 0 177 180" fill="none" xmlns="http://www.w3.org/2000/svg">
<path d="M32.41 83.3402C31.59 52.5602 58.32 24.5202 92.56 26.0702C119.88 27.3002 148.61 50.7502 146.93 86.8602C145.68 113.73 122.38 142.09 86.8 140.76C58.79 139.71 31.7 115.54 32.41 83.3402ZM89.49 134.92C118.55 134.72 140.15 111.68 140.96 85.5102C141.94 53.9502 117.02 32.9602 91.92 32.0502C60.63 30.9202 37.82 55.9402 38.14 83.9602C38.46 111.69 60.73 134.61 89.5 134.92H89.49Z" fill="#0C9DFE"/>
<path d="M88.7001 58.3C99.6501 58.95 110.29 59.72 120.53 63.04C123.46 63.99 126.32 65.17 129.13 66.43C132.45 67.92 133.83 71.42 132.43 74.28C130.78 77.63 127.95 78.23 124.23 76.93C118.63 74.97 112.95 72.89 107.14 72.02C99.0901 70.82 90.8601 70.11 82.7301 70.28C73.8701 70.46 65.0101 71.69 56.6601 75.21C53.9401 76.36 50.1201 74.6 49.4801 72.19C48.3801 68.06 50.0001 64.8 53.4501 63.96C59.1801 62.57 64.8201 60.69 70.6201 59.77C76.6701 58.81 82.8601 58.73 88.7101 58.29L88.7001 58.3Z" fill="#0C9DFE"/>
<path d="M120.41 95.8905C119.8 95.6505 118.34 94.9405 116.82 94.5005C110.39 92.6405 104.02 90.3205 97.46 89.2005C91.71 88.2205 85.67 88.0205 79.87 88.6005C73.63 89.2205 67.51 91.0905 61.36 92.5105C58.1 93.2605 55.26 92.4005 54.25 90.1005C53.39 88.1405 54.57 84.5505 56.67 83.7305C59.42 82.6505 62.3 81.9005 65.15 81.1205C75.2 78.3905 85.51 78.2505 95.73 79.1205C102.02 79.6505 108.21 81.6505 114.36 83.3105C117.47 84.1505 120.47 85.5305 123.36 86.9705C125.39 87.9805 126.59 89.9405 125.89 92.2905C125.27 94.3705 124.08 96.2205 120.41 95.9105V95.8905Z" fill="#0C9DFE"/>
<path d="M87.26 97.2705C98.27 97.6005 108.19 99.3505 117.43 104.061C119.95 105.341 120.2 107.701 119.22 109.741C118.42 111.391 116.88 112.431 114.37 111.241C104.31 106.481 93.63 104.171 82.51 105.431C76.01 106.171 69.59 107.731 63.17 109.101C60.95 109.571 58.19 108.761 57.73 106.781C57.17 104.381 58.12 102.631 60.57 101.791C69.46 98.7305 78.69 97.8105 87.26 97.2705Z" fill="#0C9DFE"/>
</svg>
