<svg width="114" height="113" viewBox="0 0 114 113" fill="none" xmlns="http://www.w3.org/2000/svg">
<path d="M27.5402 91.5002C28.5102 88.3802 29.4502 85.2602 30.4702 82.1602C32.4802 76.0302 34.6002 69.9202 36.4902 63.7502C36.6902 63.0902 35.9202 61.7702 35.2302 61.2502C28.1302 55.8202 20.9502 50.4902 13.7902 45.1302C13.2902 44.7602 12.8402 44.3302 11.7402 43.4102C13.3502 43.4102 14.2202 43.4102 15.0802 43.4102C23.5002 43.4102 31.9102 43.3602 40.3302 43.4502C42.1602 43.4702 43.1202 43.0702 43.7102 41.1402C46.3502 32.4202 49.1802 23.7602 51.9502 15.0802C52.0902 14.6402 52.3402 14.2402 52.8402 13.1602C53.5202 14.9802 54.0402 16.2002 54.4402 17.4602C57.0102 25.6002 59.5102 33.7602 62.2002 41.8602C62.4402 42.5902 63.9102 43.3302 64.8102 43.3502C73.3902 43.4602 81.9802 43.4202 90.5602 43.4202C91.4402 43.4202 92.3302 43.4202 93.2102 43.4202C93.2702 43.6002 93.3402 43.7702 93.4002 43.9502C90.4102 46.2302 87.4302 48.5302 84.4102 50.7902C79.7702 54.2702 75.1302 57.7502 70.4402 61.1602C69.1902 62.0702 68.8002 62.8702 69.3402 64.4802C72.1402 72.7102 74.7702 81.0002 77.4502 89.2702C77.6902 90.0102 77.8502 90.7802 77.5802 91.8302C73.9702 89.2602 70.3302 86.7202 66.7402 84.1202C62.5802 81.1102 58.4302 78.0802 54.3202 74.9902C53.2002 74.1502 52.4102 74.2002 51.2502 75.0402C43.5902 80.6702 35.8602 86.2102 28.1502 91.7802C27.9402 91.6902 27.7302 91.5902 27.5102 91.5002H27.5402ZM81.8402 47.3602C80.2302 47.2902 79.3602 47.2202 78.4702 47.2202C72.8102 47.2102 67.1402 47.1902 61.4802 47.2302C60.0302 47.2402 59.2602 46.8402 58.8502 45.2802C57.9702 41.9202 56.8502 38.6202 55.7802 35.3102C54.9302 32.6802 54.0002 30.0802 52.8702 26.8102C52.3902 27.9202 52.1502 28.3702 52.0002 28.8502C50.2502 34.2902 48.4802 39.7302 46.8102 45.1902C46.3402 46.7302 45.5402 47.2602 43.9402 47.2402C38.2802 47.1602 32.6102 47.2002 26.9502 47.2202C26.1102 47.2202 25.2602 47.3102 23.7802 47.4002C28.6502 51.0402 32.9602 54.2402 37.2502 57.4502C40.2435 59.6902 41.2069 62.5835 40.1402 66.1302C39.9002 66.9202 39.6202 67.7002 39.3602 68.4802C38.0402 72.5502 36.7102 76.6102 35.3902 80.6802C39.8702 78.0702 43.8902 75.0902 47.9902 72.2302C54.0602 68.0002 51.5602 68.0502 57.6702 72.2902C61.7202 75.1102 65.6902 78.0502 69.7002 80.9302C68.5902 75.7502 67.0302 70.9002 65.3602 66.0802C63.6302 61.0702 63.5802 61.0802 67.8102 57.8802C72.2802 54.5102 76.7602 51.1502 81.8202 47.3402L81.8402 47.3602Z" fill="#0C9DFE"/>
</svg>
