<svg width="331" height="356" viewBox="0 0 331 356" fill="none" xmlns="http://www.w3.org/2000/svg">
<g clip-path="url(#clip0_17_1614)">
<path d="M165.5 348.5C252.761 348.5 323.5 277.761 323.5 190.5C323.5 103.239 252.761 32.5 165.5 32.5C78.239 32.5 7.5 103.239 7.5 190.5C7.5 277.761 78.239 348.5 165.5 348.5Z" stroke="#0C9DFE" stroke-width="15"/>
<path d="M166 211C177.046 211 186 202.046 186 191C186 179.954 177.046 171 166 171C154.954 171 146 179.954 146 191C146 202.046 154.954 211 166 211Z" fill="#0C9DFE"/>
<path d="M310.355 53.1421L303.284 46.0711C299.379 42.1658 293.047 42.1658 289.142 46.0711L282.071 53.1421C278.166 57.0474 278.166 63.379 282.071 67.2843L289.142 74.3553C293.047 78.2606 299.379 78.2606 303.284 74.3553L310.355 67.2843C314.26 63.379 314.26 57.0474 310.355 53.1421Z" fill="#0C9DFE"/>
<path d="M189 0H144C138.477 0 134 4.47715 134 10C134 15.5228 138.477 20 144 20H189C194.523 20 199 15.5228 199 10C199 4.47715 194.523 0 189 0Z" fill="#0C9DFE"/>
<path d="M269.894 257.036C270.906 257.756 269.96 259.309 268.856 258.74L156.099 200.561C155.584 200.295 155.402 199.648 155.704 199.152L165.046 183.817C165.348 183.322 166.006 183.186 166.479 183.522L269.894 257.036Z" fill="#0C9DFE"/>
</g>
<defs>
<clipPath id="clip0_17_1614">
<rect width="331" height="356" fill="white"/>
</clipPath>
</defs>
</svg>
