<svg width="96" height="96" viewBox="0 0 96 96" fill="none" xmlns="http://www.w3.org/2000/svg">
<path d="M50.95 27.29C61.4 27.29 69.26 35.1 69.27 45.49C69.27 55.76 61.17 63.84 50.93 63.79C40.68 63.74 32.72 55.68 32.71 45.34C32.71 35.2 40.7 27.29 50.96 27.29H50.95ZM65.9 45.39C65.87 37.23 59.12 30.51 50.97 30.53C42.71 30.55 36.04 37.36 36.1 45.7C36.16 53.67 42.87 60.38 50.9 60.5C59.02 60.62 65.92 53.66 65.89 45.39H65.9Z" fill="#0C9DFE"/>
<path d="M52.1199 81.5594H49.8699V67.2794C50.5599 67.2294 51.2399 67.1694 52.1199 67.1094V81.5694V81.5594Z" fill="#0C9DFE"/>
<path d="M52.1298 23.8798C51.1898 23.7998 50.5698 23.7498 49.8298 23.6898V9.4398C50.5798 9.3898 51.2598 9.3498 52.1298 9.2998V23.8898V23.8798Z" fill="#0C9DFE"/>
<path d="M36.0601 29.3802C35.7501 29.6702 35.2401 30.1502 34.8001 30.5602C31.3301 27.1402 28.0101 23.8702 24.5601 20.4702C24.9401 20.0302 25.4001 19.4902 25.9001 18.9102C29.3201 22.4302 32.6101 25.8302 36.0501 29.3802H36.0601Z" fill="#0C9DFE"/>
<path d="M67.01 30.99C66.49 30.39 66.04 29.86 65.55 29.3C69.22 25.72 72.58 22.45 76.12 19C76.52 19.43 77.04 19.99 77.53 20.53C74.1 23.94 70.84 27.19 67.01 31V30.99Z" fill="#0C9DFE"/>
<path d="M34.4899 60C35.1799 60.62 35.6599 61.04 36.2199 61.54C32.7299 64.87 29.3099 68.13 25.7199 71.55C25.4599 71.25 24.9399 70.68 24.3699 70.05C27.7899 66.65 31.0499 63.41 34.4899 60Z" fill="#0C9DFE"/>
<path d="M65.98 61.3996C66.33 61.0796 66.85 60.6096 67.41 60.0996C70.72 63.5096 73.91 66.7996 77.33 70.3096C77.1 70.5996 76.64 71.1996 76.1 71.8796C72.69 68.3496 69.46 64.9996 65.98 61.3996Z" fill="#0C9DFE"/>
<path d="M29.0499 44.3799V46.5999H14.7099C14.6299 45.9599 14.5499 45.2699 14.4399 44.3799H29.0499Z" fill="#0C9DFE"/>
<path d="M72.95 46.6296V44.3496H87.33V46.6296H72.95Z" fill="#0C9DFE"/>
</svg>
