<svg width="113" height="116" viewBox="0 0 113 116" fill="none" xmlns="http://www.w3.org/2000/svg">
<path d="M25.46 91.7901C25.46 90.5601 25.46 89.7501 25.46 88.9401C25.46 81.5601 25.57 74.1701 25.4 66.7901C25.35 64.4501 26.21 62.9701 28.26 62.5601C31.05 62.0001 32.36 60.2501 33.47 57.8701C35.99 52.4901 38.9 47.2801 41.22 41.8101C42.12 39.7101 41.98 37.1201 42.09 34.7401C42.22 31.8501 42.12 28.9601 42.12 26.2801C47.38 23.3701 51.63 24.5301 54.07 29.4901C56.95 35.3401 57.68 41.6501 57.37 48.1101C57.33 48.8501 57.23 49.5901 57.18 50.3401C57.17 50.4901 57.25 50.6501 57.36 51.1101C58.25 51.0401 59.2 50.9801 60.14 50.8901C65.17 50.4201 70.21 50.0001 75.23 49.4701C80.46 48.9201 83.62 52.2801 82.63 57.4701C82.51 58.1101 82.28 58.7301 82.06 59.4801C83.94 60.8701 85.71 62.32 86.08 64.84C86.46 67.41 85.18 69.3001 83.5 71.1201C85.37 75.0801 85.67 78.7901 81.8 81.5401C81.98 83.3401 82.32 84.97 82.27 86.59C82.17 89.85 80.03 91.7801 76.76 92.1101C70.66 92.7401 64.58 93.4601 58.49 94.1801C50.5 95.1301 42.62 94.9301 34.94 92.2001C32 91.1501 29.01 90.7201 25.45 91.7801L25.46 91.7901ZM29.04 87.1101C32.89 88.1501 36.37 89.1601 39.89 90.0401C47.01 91.8301 54.19 91.2701 61.37 90.3901C66.22 89.7901 71.06 89.1801 75.92 88.6601C78.27 88.4101 79.05 87.6601 78.72 85.3301C78.6 84.4701 78.13 83.6401 77.7 82.8601C77.21 81.9601 76.59 81.1301 75.88 80.0501C77.12 79.5501 78.01 79.1801 78.92 78.8201C81.6 77.7401 82.16 75.86 80.42 73.59C79.64 72.57 78.74 71.6201 77.74 70.4601C79 69.6201 80.06 69.0001 81.02 68.2701C83.26 66.5601 83.03 64.2301 80.51 63.0701C79.2 62.4701 77.82 62.0001 76.25 61.3801C77.07 60.1801 77.78 59.1801 78.46 58.1601C79.33 56.8401 79.69 55.55 78.78 54.01C77.88 52.49 76.55 52.7601 75.28 52.8901C69.68 53.4401 64.09 54.1201 58.48 54.6101C56.3 54.8001 54.09 54.6401 51.6 54.6401C52.04 53.5501 52.47 52.6601 52.76 51.7401C53.16 50.4901 53.77 49.2001 53.75 47.9401C53.68 44.3901 53.59 40.8101 53.01 37.3201C52.58 34.7601 51.99 32.0801 50.18 29.9901C49.08 28.7201 47.89 27.5801 45.63 28.5001C45.63 30.6001 45.79 32.7601 45.59 34.8801C45.31 37.8201 45.31 40.9601 44.21 43.6101C41.81 49.4001 38.7 54.8801 36.08 60.5801C34.76 63.4601 32.81 65.2201 29.72 65.7801C29.5 65.8201 29.31 66.0201 29.03 66.1901V87.1201L29.04 87.1101Z" fill="#0C9DFE"/>
</svg>
