<svg width="500" height="500" viewBox="0 0 500 500" fill="none" xmlns="http://www.w3.org/2000/svg">
<path d="M33.7763 479.24C33.7763 470.453 33.7763 464.666 33.7763 458.879C33.7763 406.157 34.5622 353.363 33.3477 300.64C32.9905 283.923 39.1343 273.35 53.7795 270.421C73.7112 266.421 83.0698 253.919 90.9996 236.916C109.002 198.481 129.791 161.261 146.365 122.184C152.795 107.181 151.795 88.6784 152.581 71.6757C153.509 51.0296 152.795 30.3835 152.795 11.2376C190.372 -9.55135 220.734 -1.26434 238.166 34.1698C258.74 75.9621 263.955 121.041 261.741 167.191C261.455 172.477 260.741 177.764 260.383 183.122C260.312 184.193 260.883 185.336 261.669 188.623C268.027 188.123 274.814 187.694 281.53 187.051C317.464 183.693 353.469 180.693 389.332 176.907C426.695 172.977 449.27 196.981 442.198 234.058C441.34 238.631 439.697 243.06 438.126 248.418C451.556 258.348 464.201 268.707 466.844 286.71C469.559 305.07 460.415 318.572 448.413 331.574C461.772 359.864 463.915 386.368 436.268 406.014C437.554 418.873 439.983 430.518 439.626 442.091C438.911 465.38 423.623 479.168 400.263 481.526C356.684 486.027 313.249 491.17 269.742 496.314C212.662 503.101 156.367 501.672 101.501 482.169C80.4979 474.668 59.1375 471.596 33.7049 479.168L33.7763 479.24ZM59.3518 445.806C86.8561 453.236 111.717 460.451 136.864 466.738C187.729 479.526 239.023 475.525 290.317 469.238C324.965 464.952 359.542 460.594 394.262 456.879C411.05 455.093 416.622 449.735 414.265 433.09C413.407 426.946 410.05 421.016 406.978 415.444C403.477 409.014 399.048 403.085 393.976 395.369C402.834 391.798 409.192 389.154 415.693 386.582C434.839 378.867 438.84 365.436 426.409 349.219C420.837 341.932 414.408 335.146 407.264 326.859C416.265 320.858 423.838 316.428 430.696 311.213C446.698 298.997 445.055 282.352 427.052 274.065C417.694 269.778 407.835 266.421 396.619 261.991C402.477 253.419 407.549 246.275 412.407 238.988C418.623 229.558 421.194 220.342 414.693 209.34C408.264 198.481 398.762 200.41 389.689 201.339C349.683 205.268 309.748 210.126 269.671 213.627C254.097 214.984 238.308 213.841 220.52 213.841C223.663 206.054 226.735 199.696 228.807 193.123C231.665 184.193 236.022 174.978 235.88 165.976C235.379 140.615 234.736 115.04 230.593 90.1072C227.521 71.8186 223.306 52.6727 210.376 37.7418C202.517 28.6689 194.016 20.5248 177.87 27.0973C177.87 42.0996 179.013 57.5306 177.585 72.6759C175.584 93.6792 175.584 116.111 167.726 135.043C150.58 176.406 128.363 215.555 109.645 256.276C100.215 276.851 86.2846 289.424 64.2097 293.425C62.638 293.711 61.2807 295.139 59.2803 296.354V445.877L59.3518 445.806Z" fill="#0C9DFE"/>
</svg>
