<svg width="500" height="500" viewBox="0 0 500 500" fill="none" xmlns="http://www.w3.org/2000/svg">
<path d="M466.777 20.6757C466.777 28.9585 466.777 34.6707 466.777 40.3116C466.777 93.6497 466.777 146.916 466.777 200.255C466.777 219.605 464.992 224.246 445.999 229.887C428.719 235.028 418.509 243.953 410.94 260.662C393.303 299.862 371.811 337.42 354.674 376.834C348.391 391.258 349.248 409.109 348.105 425.46C346.891 443.168 346.748 460.947 346.963 478.727C347.034 487.723 343.892 492.293 335.253 495.649C307.548 506.288 280.201 497.149 265.277 471.158C249.569 443.953 243.571 413.678 240.643 383.189C238.358 359.912 240.215 336.206 240.215 311.144C208.583 313.786 178.166 316.285 147.748 318.927C135.395 319.998 123.042 321.568 110.69 322.996C75.845 327.066 55.0667 307.145 58.137 272.015C58.7083 265.089 60.779 258.305 62.1356 251.665C27.2195 223.104 25.2916 207.323 49.6401 170.622C47.4266 154.2 44.3562 140.49 44.142 126.781C43.9278 112.072 53.4958 101.79 64.9917 94.0781C63.5637 82.5108 61.0646 71.5147 61.0646 60.5187C61.136 35.1706 76.1306 20.9614 101.407 18.3908C144.321 14.0353 187.234 8.96562 230.076 3.7532C288.341 -3.31571 345.82 -1.45923 401.657 18.5336C422.15 25.8168 442.928 28.0303 466.848 20.6043L466.777 20.6757ZM441.358 53.307C422.364 48.88 404.299 46.0952 387.091 40.383C341.322 25.1027 294.624 21.961 247.07 27.2448C199.515 32.5287 151.961 38.0981 104.406 43.3819C90.3398 44.9528 85.1274 49.594 86.4841 63.8746C87.1981 71.0863 90.7682 78.298 94.1242 84.9385C97.1945 91.0792 101.693 96.5772 106.763 104.146C98.9082 107.502 92.6961 110.358 86.4127 112.857C65.2774 121.069 61.493 134.849 75.7736 152.486C81.1288 159.126 87.0553 165.41 93.6958 172.979C84.1992 179.333 76.7019 183.76 69.8472 189.044C53.9957 201.254 55.8521 217.82 74.0599 226.102C83.3423 230.387 93.1246 233.743 104.121 238.098C98.0514 246.881 92.9104 253.95 88.1977 261.304C82.4855 270.087 79.7008 278.727 85.413 289.437C91.2681 300.362 100.265 299.79 109.761 298.791C149.747 294.792 189.662 290.08 229.719 286.581C245.784 285.224 262.064 286.367 279.272 286.367C277.916 290.794 277.416 294.364 275.774 297.291C264.278 317.784 262.564 339.99 264.206 362.697C265.349 377.977 266.063 393.543 269.633 408.395C274.131 427.174 277.487 446.738 290.411 462.518C299.837 474.014 307.12 476.656 322.828 472.086C322.828 456.877 322.114 440.954 322.971 425.103C324.185 402.183 323.899 378.977 334.681 357.627C354.674 318.141 374.953 278.798 393.732 238.812C401.443 222.318 413.01 212.893 429.933 208.537C433.789 207.538 437.43 205.824 441.5 204.325V53.3784L441.358 53.307Z" fill="#0C9DFE"/>
</svg>
