<svg width="113" height="116" viewBox="0 0 113 116" fill="none" xmlns="http://www.w3.org/2000/svg">
<path d="M88.04 25.6798C88.04 26.8398 88.04 27.6398 88.04 28.4298C88.04 35.8998 88.04 43.3598 88.04 50.8298C88.04 53.5398 87.79 54.1898 85.13 54.9798C82.71 55.6998 81.28 56.9498 80.22 59.2898C77.75 64.7798 74.74 70.0398 72.34 75.5598C71.46 77.5798 71.58 80.0798 71.42 82.3698C71.25 84.8498 71.23 87.3398 71.26 89.8298C71.27 91.0898 70.83 91.7298 69.62 92.1998C65.74 93.6898 61.91 92.4098 59.82 88.7698C57.62 84.9598 56.78 80.7198 56.37 76.4498C56.05 73.1898 56.31 69.8698 56.31 66.3598C51.88 66.7298 47.62 67.0798 43.36 67.4498C41.63 67.5998 39.9 67.8198 38.17 68.0198C33.29 68.5898 30.38 65.7998 30.81 60.8798C30.89 59.9098 31.18 58.9598 31.37 58.0298C26.48 54.0298 26.21 51.8198 29.62 46.6798C29.31 44.3798 28.88 42.4598 28.85 40.5398C28.82 38.4798 30.16 37.0398 31.77 35.9598C31.57 34.3398 31.22 32.7998 31.22 31.2598C31.23 27.7098 33.33 25.7198 36.87 25.3598C42.88 24.7498 48.89 24.0398 54.89 23.3098C63.05 22.3198 71.1 22.5798 78.92 25.3798C81.79 26.3998 84.7 26.7098 88.05 25.6698L88.04 25.6798ZM84.48 30.2498C81.82 29.6298 79.29 29.2398 76.88 28.4398C70.47 26.2998 63.93 25.8598 57.27 26.5998C50.61 27.3398 43.95 28.1198 37.29 28.8598C35.32 29.0798 34.59 29.7298 34.78 31.7298C34.88 32.7398 35.38 33.7498 35.85 34.6798C36.28 35.5398 36.91 36.3098 37.62 37.3698C36.52 37.8398 35.65 38.2398 34.77 38.5898C31.81 39.7398 31.28 41.6698 33.28 44.1398C34.03 45.0698 34.86 45.9498 35.79 47.0098C34.46 47.8998 33.41 48.5198 32.45 49.2598C30.23 50.9698 30.49 53.2898 33.04 54.4498C34.34 55.0498 35.71 55.5198 37.25 56.1298C36.4 57.3598 35.68 58.3498 35.02 59.3798C34.22 60.6098 33.83 61.8198 34.63 63.3198C35.45 64.8498 36.71 64.7698 38.04 64.6298C43.64 64.0698 49.23 63.4098 54.84 62.9198C57.09 62.7298 59.37 62.8898 61.78 62.8898C61.59 63.5098 61.52 64.0098 61.29 64.4198C59.68 67.2898 59.44 70.3998 59.67 73.5798C59.83 75.7198 59.93 77.8998 60.43 79.9798C61.06 82.6098 61.53 85.3498 63.34 87.5598C64.66 89.1698 65.68 89.5398 67.88 88.8998C67.88 86.7698 67.78 84.5398 67.9 82.3198C68.07 79.1098 68.03 75.8598 69.54 72.8698C72.34 67.3398 75.18 61.8298 77.81 56.2298C78.89 53.9198 80.51 52.5998 82.88 51.9898C83.42 51.8498 83.93 51.6098 84.5 51.3998V30.2598L84.48 30.2498Z" fill="#0C9DFE"/>
</svg>
