<svg width="98" height="106" viewBox="0 0 98 106" fill="none" xmlns="http://www.w3.org/2000/svg">
<path d="M21.2202 31.6404V28.5304H34.9402C35.1802 28.1004 35.3202 27.9604 35.3302 27.8204C35.6702 21.6204 36.7402 20.6104 42.9402 20.6104C46.9202 20.6104 50.9002 20.6104 54.8802 20.6104C59.4402 20.6104 61.0502 22.2304 61.1402 26.8604C61.1402 27.2704 61.1902 27.6804 61.2302 28.3604H75.3202C75.3902 29.5604 75.4402 30.5004 75.4902 31.4104C71.9902 32.5104 71.9302 32.5004 71.6502 36.3204C70.7502 48.2904 69.9202 60.2703 69.0102 72.2403C68.6402 77.1103 68.1602 81.9704 67.6702 86.8304C67.3902 89.6104 64.8402 92.0304 61.9802 92.0504C52.8602 92.1104 43.7402 92.1104 34.6202 92.0504C31.6502 92.0304 29.1102 89.6104 28.8502 86.6204C28.1702 78.8704 27.5302 71.1103 26.9402 63.3503C26.1902 53.5203 25.4302 43.7004 24.8202 33.8604C24.6602 31.2404 22.6702 32.1904 21.2302 31.6304L21.2202 31.6404ZM28.1802 32.0303C28.5902 37.4903 28.9802 42.6803 29.3802 47.8703C30.3302 60.2604 31.2702 72.6403 32.2602 85.0303C32.4802 87.8103 33.4102 88.6504 36.2002 88.6604C44.2402 88.6904 52.2802 88.6904 60.3202 88.6604C63.1202 88.6604 64.0402 87.8204 64.2602 85.0504C65.6002 68.1304 66.9102 51.2004 68.2202 34.2704C68.2702 33.5704 68.1402 32.8503 68.0802 32.0303H28.1802ZM38.4402 28.3304H58.0702C58.6102 24.1704 57.9502 23.3704 54.0902 23.3604C50.2102 23.3604 46.3202 23.3604 42.4402 23.3604C38.5702 23.3604 37.9302 24.1404 38.4302 28.3304H38.4402Z" fill="#0C9DFE"/>
<path d="M49.5302 82.6804H46.9902V37.3604C47.8202 37.3104 48.5902 37.2604 49.5302 37.1904V82.6704V82.6804Z" fill="#0C9DFE"/>
</svg>
