<svg width="500" height="500" viewBox="0 0 500 500" fill="none" xmlns="http://www.w3.org/2000/svg">
<path d="M254.741 500H244.442C242.462 482.74 243.743 465.559 243.51 448.441C243.277 431.441 243.459 414.427 243.459 397.18C240.509 396.857 238.089 396.585 235.01 396.249V327.793H162V120.977H178.431C178.587 118.713 178.794 117.005 178.794 115.297C178.794 81.8776 178.794 48.4584 178.768 15.0521C178.768 3.977 182.455 0.0696765 193.595 0.0438002C230.96 -0.0208906 268.339 -0.0079524 305.704 0.0438002C316.818 0.0438002 320.674 3.8088 320.686 14.9486C320.751 48.7301 320.699 82.4987 320.686 116.28C320.686 117.509 320.686 118.751 320.686 120.589H337.403V327.547H264.794V396.314C261.598 396.572 259.166 396.779 256.177 397.025C256.073 398.578 255.892 400.104 255.892 401.631C255.892 431.273 255.944 460.914 255.879 490.555C255.879 493.66 255.142 496.765 254.728 500H254.741ZM307.994 13.2537H191.59V120.317H307.994V13.2537Z" fill="#0C9DFE"/>
<path d="M204.761 86.7043V52.2241H229.809V86.7043H204.761Z" fill="#0C9DFE"/>
<path d="M269.581 86.7166V52.1329H294.409V86.7166H269.581Z" fill="#0C9DFE"/>
</svg>
