<svg width="500" height="500" viewBox="0 0 500 500" fill="none" xmlns="http://www.w3.org/2000/svg">
<path d="M343.144 265.67C306.733 302.152 271.381 337.645 235.817 372.927C233.488 375.256 229.678 376.032 225.444 378.078C220.857 374.832 215.706 372.151 211.755 368.199C165.818 322.474 120.022 276.608 74.2968 230.671C71.1215 227.496 68.7223 223.473 64.8413 218.393C69.1457 212.536 72.6033 206.538 77.3311 201.81C106.05 172.738 134.981 143.878 163.913 115.017C179.154 99.8461 183.317 99.705 198.136 114.523C238.922 155.238 279.637 196.095 320.352 236.881C326.138 242.667 331.924 248.382 337.287 254.521C339.404 256.991 340.463 260.378 343.144 265.459V265.67ZM315.271 262.918C291.774 239.068 270.746 216.629 248.448 195.53C225.938 174.22 205.898 150.228 179.154 128.918C149.8 158.555 121.504 187.063 91.7966 216.982C115.224 241.044 136.746 263.483 158.691 285.499C180.636 307.444 203.005 328.966 226.432 351.829C256.562 321.698 285.211 292.979 315.271 262.918Z" fill="#0C9DFE"/>
<path d="M100.053 328.687C88.2686 317.679 79.9422 310.34 72.1802 302.437C63.2892 293.193 63.2186 287.971 71.1923 278.163C74.8616 273.647 78.9543 269.413 81.0006 267.085C92.7142 262.992 99.2766 265.814 105.698 272.447C126.796 294.252 148.53 315.562 169.84 337.225C182.4 349.926 181.977 354.301 167.864 368.978C157.562 379.704 149.659 379.704 138.016 368.696C129.619 360.722 121.575 352.396 112.401 343.293C98.7121 353.666 86.928 363.192 81.0006 378.646C71.7568 402.919 89.0449 426.135 114.518 428.181C123.55 428.887 134.982 422.395 142.391 415.833C176.755 385.773 217.4 401.72 232.571 431.709C243.015 452.243 240.545 477.223 224.033 495.075C218.952 500.579 212.46 501.567 208.579 497.545C203.711 492.394 204.628 486.961 209.073 481.88C224.527 464.521 219.023 438.625 204.063 427.617C191.15 418.091 174.921 416.962 161.725 426.205C156.998 429.522 152.552 433.403 147.754 436.719C126.373 451.397 98.5004 450.479 78.0369 433.544C59.1259 417.879 53.5514 393.534 62.513 368.132C67.2407 354.795 78.8837 345.763 88.7626 335.955C91.1618 333.555 94.5488 332.074 99.7705 328.687H100.053Z" fill="#0C9DFE"/>
<path d="M331.783 230.461C329.102 227.497 327.056 225.168 323.669 221.428C358.104 186.711 391.903 152.7 426.197 118.194C407.851 99.8474 389.998 82.0654 371.44 63.5072C357.539 72.9627 347.59 85.8758 335.029 97.7305C338.91 103.093 342.509 108.103 347.378 114.736C336.723 129.272 323.669 141.621 308.921 153.546C303.276 149.454 298.619 146.137 293.75 142.609C282.459 143.738 280.201 160.038 265.313 159.615C271.452 148.395 280.695 142.468 286.693 135.694C298.336 130.684 302.147 141.057 309.485 144.655C318.729 135.129 327.902 125.603 337.499 115.583C332.912 109.021 329.314 103.799 325.009 97.6599C337.852 84.394 350.765 71.0575 365.089 56.2391C351.823 42.9732 339.475 30.4835 325.997 17.0058C311.884 30.8363 298.971 43.326 286.34 56.0274C269.052 73.3861 252.117 91.0975 234.547 108.174C230.313 112.267 226.361 118.758 218.317 116.783C213.025 111.138 215.283 106.269 219.87 101.682C251.059 70.4224 282.107 39.1628 313.437 8.04424C316.612 4.86888 321.058 2.96367 325.574 0C329.243 2.46972 332.912 4.2338 335.664 6.98578C368.335 39.5861 400.936 72.1865 433.395 104.999C444.967 116.642 444.967 119.111 433.465 130.613C402.982 161.238 372.357 191.792 341.733 222.346C338.91 225.168 335.664 227.497 331.854 230.743L331.783 230.461Z" fill="#0C9DFE"/>
</svg>
