<svg width="79" height="123" viewBox="0 0 79 123" fill="none" xmlns="http://www.w3.org/2000/svg">
<g clip-path="url(#clip0_17_1675)">
<path fill-rule="evenodd" clip-rule="evenodd" d="M25.37 109.05C25.37 102.02 29.76 97.21 35.71 95.67V89.4C32.29 85.82 27.48 83.76 23.01 81.85C13.36 77.71 4.96 74.12 7.69 60.28C3.26 59.09 0 55.05 0 50.24C0 44.5 4.65 39.84 10.39 39.84C16.13 39.84 20.79 44.5 20.79 50.24C20.79 54.38 18.37 57.95 14.86 59.63L14.98 59.66C14.58 61.16 14.38 62.5 14.35 63.7C14.2 70.49 19.6 72.81 25.73 75.43C26.1 75.59 26.47 75.75 26.85 75.91C29.81 77.19 32.85 78.56 35.7 80.43V22.8H26.14L27.27 20.9L39.67 0L53.2 22.81H42.69V66.78C45.54 64.87 48.6 63.47 51.58 62.18C52.03 61.98 52.49 61.79 52.94 61.59C59.14 58.94 64.6 56.59 64.31 49.61C64.27 48.67 64.13 47.65 63.87 46.53H58.93C58.1 46.53 57.43 45.85 57.43 45.03V26.79C57.43 25.96 58.11 25.29 58.93 25.29H77.48C78.31 25.29 78.98 25.96 78.98 26.79V45.03C78.98 45.85 78.3 46.53 77.48 46.53H71C73.67 60.28 65.29 63.88 55.66 68C51.07 69.97 46.12 72.09 42.68 75.85V95.66C48.63 97.21 53.02 102.01 53.02 109.04C53.02 116.07 46.83 122.88 39.2 122.88C31.57 122.88 25.37 116.09 25.37 109.05Z" fill="#0C9DFE"/>
</g>
<defs>
<clipPath id="clip0_17_1675">
<rect width="78.98" height="122.88" fill="white"/>
</clipPath>
</defs>
</svg>
