<svg width="500" height="500" viewBox="0 0 500 500" fill="none" xmlns="http://www.w3.org/2000/svg">
<g clip-path="url(#clip0_22_284)">
<path d="M500.213 500H37C41.9209 422.044 77.2896 363.102 143.396 322.848C175.092 303.563 210.081 294.173 246.897 291.749C289.231 288.963 330.841 292.961 369.901 310.691C439.354 342.224 482.321 395.359 497.102 470.565C498.929 479.846 499.146 489.452 500.213 500ZM76.765 463.799H459.779C458.947 460.687 458.404 458.263 457.644 455.911C441.163 405.291 409.159 368.023 360.964 345.282C319.444 325.689 275.481 321.817 230.687 328.891C166.643 338.986 118.918 372.636 89.5376 430.927C84.4177 441.076 81.2155 452.184 76.765 463.799Z" fill="#0C9DFE"/>
<path d="M387.811 122.631C387.142 170.917 374.261 208.294 344.735 238.343C298.331 285.58 228.426 282.921 186.508 231.559C149.004 185.589 139.253 132.925 158.972 76.6783C176.793 25.9318 222.908 -2.85174 276.983 0.223801C328.109 3.13652 369.991 38.7043 382.963 91.0791C386.02 103.399 386.87 116.244 387.811 122.649V122.631ZM350.543 129.252C351.447 113.133 348.354 97.5015 341.027 82.8293C326.572 53.883 303.577 37.3474 270.778 36.5876C238.864 35.8639 214.043 49.3783 199.135 77.7276C178.366 117.203 183.251 156.263 204.4 194.11C214.586 212.31 229.439 225.607 249.484 231.939C278.105 240.985 308.896 229.171 327.657 202.179C342.782 180.415 351.339 156.371 350.543 129.234V129.252Z" fill="#0C9DFE"/>
</g>
<defs>
<clipPath id="clip0_22_284">
<rect width="500" height="500" fill="white"/>
</clipPath>
</defs>
</svg>
