<svg width="500" height="500" viewBox="0 0 500 500" fill="none" xmlns="http://www.w3.org/2000/svg">
<path d="M86.4041 393.578C112.672 385.727 136.715 378.618 162.426 370.952C170.461 357.969 169.039 341.957 168.359 326.131C168.359 324.709 167.679 322.731 166.629 321.989C149.941 309.996 152.289 291.388 149.817 274.449C149.694 273.46 149.508 272.409 149.137 270.43C146.232 268.019 142.709 265.114 138.63 261.714C136.652 244.404 125.466 227.65 134.922 208.609C137.394 203.601 137.27 196.492 136.22 190.742C132.388 170.651 133.747 150.806 136.9 130.9C138.012 124.038 139.99 118.226 146.109 113.899C153.587 108.582 159.953 101.596 167.617 96.7122C202.291 74.5804 254.578 78.1038 286.779 106.913C297.781 116.742 305.505 126.881 305.01 142.336C304.52 156.617 305.257 170.96 304.889 185.303C304.641 194.946 305.383 204.219 306.805 213.864C308.968 228.701 305.505 244.342 304.52 258.622C298.955 263.63 294.752 267.339 290.797 270.925C289.437 279.889 287.521 288.482 286.965 297.137C286.408 305.73 284.801 312.901 277.199 318.527C274.047 320.876 271.822 326.379 271.637 330.521C270.895 344.369 272.626 358.093 276.767 370.828C302.23 378.308 326.707 385.48 353.157 393.207C368.053 383.625 376.459 365.202 389.439 351.231H412.616C396.73 400.626 315.642 478.707 202.476 469.927C102.536 462.137 14.2146 384.861 1.73012 278.467C-12.1765 160.326 59.086 62.5252 167.493 35.8182C268.855 10.9041 370.837 57.2705 417.437 153.217C408.72 153.65 400.935 154.021 393.456 154.392C336.223 71.5511 260.574 33.6544 161.993 63.0815C88.8764 84.9044 43.3255 137.514 27.936 212.133C13.2877 283.351 36.4648 344.121 86.6515 393.516L86.4041 393.578Z" fill="#0C9DFE"/>
<path d="M500 251.195H344.781V275.448H500V251.195Z" fill="#0C9DFE"/>
</svg>
