<svg width="124" height="102" viewBox="0 0 124 102" fill="none" xmlns="http://www.w3.org/2000/svg">
<path d="M43.7399 77.1696C47.9899 75.8996 51.8799 74.7496 56.0399 73.5096C57.3399 71.4096 57.1099 68.8196 56.9999 66.2596C56.9999 66.0296 56.8899 65.7096 56.7199 65.5896C54.0199 63.6496 54.3999 60.6396 53.9999 57.8996C53.9799 57.7396 53.9499 57.5696 53.8899 57.2496C53.4199 56.8596 52.8499 56.3896 52.1899 55.8396C51.8699 53.0396 50.0599 50.3296 51.5899 47.2496C51.9899 46.4396 51.9699 45.2896 51.7999 44.3596C51.1799 41.1096 51.3999 37.8996 51.9099 34.6796C52.0899 33.5696 52.4099 32.6296 53.3999 31.9296C54.6099 31.0696 55.6399 29.9396 56.8799 29.1496C62.4899 25.5696 70.9499 26.1396 76.1599 30.7996C77.9399 32.3896 79.1899 34.0296 79.1099 36.5296C79.0299 38.8396 79.1499 41.1596 79.0899 43.4796C79.0499 45.0396 79.1699 46.5396 79.3999 48.0996C79.7499 50.4996 79.1899 53.0296 79.0299 55.3396C78.1299 56.1496 77.4499 56.7496 76.8099 57.3296C76.5899 58.7796 76.2799 60.1696 76.1899 61.5696C76.0999 62.9596 75.8399 64.1196 74.6099 65.0296C74.0999 65.4096 73.7399 66.2996 73.7099 66.9696C73.5899 69.2096 73.8699 71.4296 74.5399 73.4896C78.6599 74.6996 82.6199 75.8596 86.8999 77.1096C89.3099 75.5596 90.6699 72.5796 92.7699 70.3196H96.5199C93.9499 78.3096 80.8299 90.9396 62.5199 89.5196C46.3499 88.2596 32.0599 75.7596 30.0399 58.5496C27.7899 39.4396 39.3199 23.6196 56.8599 19.2996C73.2599 15.2696 89.7599 22.7696 97.2999 38.2896C95.8899 38.3596 94.6299 38.4196 93.4199 38.4796C84.1599 25.0796 71.9199 18.9496 55.9699 23.7096C44.1399 27.2396 36.7699 35.7496 34.2799 47.8196C31.9099 59.3396 35.6599 69.1696 43.7799 77.1596L43.7399 77.1696Z" fill="#0C9DFE"/>
<path d="M105.57 41.9492C106.69 43.1492 107.54 44.0592 108.49 45.0792C103.37 50.1992 98.5599 55.1992 93.4599 59.9992C91.0299 57.4592 88.8199 55.1492 86.4099 52.6392C87.3499 51.6192 88.3499 50.5292 89.4299 49.3492C91.0899 50.9092 92.3999 52.1292 93.8599 53.5092C97.7299 49.6892 101.49 45.9792 105.57 41.9492Z" fill="#0C9DFE"/>
</svg>
