<svg width="158" height="130" viewBox="0 0 158 130" fill="none" xmlns="http://www.w3.org/2000/svg">
<path d="M55.7332 98.3538C61.1485 96.7352 66.1052 95.2695 71.4058 93.6891C73.0623 91.0126 72.7692 87.7116 72.629 84.4489C72.629 84.1557 72.489 83.7479 72.2724 83.595C68.832 81.1224 69.3161 77.2861 68.8064 73.794C68.781 73.5901 68.7427 73.3734 68.6663 72.9656C68.0674 72.4685 67.3411 71.8695 66.5002 71.1685C66.0924 67.5999 63.7862 64.1459 65.7357 60.2205C66.2454 59.1881 66.2198 57.7224 66.0032 56.5371C65.2132 52.395 65.4936 48.3038 66.1435 44.1999C66.3728 42.7852 66.7806 41.5871 68.042 40.695C69.5838 39.5989 70.8961 38.1587 72.4761 37.1518C79.6244 32.5891 90.4041 33.3155 97.0427 39.2548C99.3107 41.2812 100.903 43.3714 100.801 46.5577C100.7 49.5018 100.852 52.4587 100.776 55.4156C100.725 57.4038 100.878 59.3155 101.171 61.3038C101.617 64.3626 100.903 67.5871 100.7 70.5312C99.5527 71.5636 98.6863 72.3283 97.8708 73.0675C97.5905 74.9156 97.1956 76.6871 97.0809 78.4714C96.9662 80.243 96.6348 81.7214 95.0676 82.8812C94.4177 83.3655 93.959 84.4999 93.9208 85.3538C93.7679 88.2087 94.1248 91.0381 94.9785 93.6636C100.228 95.2057 105.274 96.6842 110.727 98.2773C113.798 96.3018 115.531 92.5038 118.207 89.6234H122.985C119.71 99.8067 102.993 115.904 79.6626 114.094C59.0589 112.488 40.8506 96.5567 38.2768 74.6224C35.4098 50.2665 50.1013 30.1038 72.4506 24.5979C93.3474 19.4616 114.372 29.0205 123.979 48.8008C122.182 48.8901 120.577 48.9665 119.035 49.043C107.236 31.9646 91.64 24.1518 71.3166 30.2185C56.2429 34.7175 46.8522 45.5636 43.6795 60.9469C40.6596 75.6293 45.4377 88.1577 55.7842 98.341L55.7332 98.3538Z" fill="#0C9DFE"/>
<path d="M141 69H109V74H141V69Z" fill="#0C9DFE"/>
</svg>
