<svg width="500" height="500" viewBox="0 0 500 500" fill="none" xmlns="http://www.w3.org/2000/svg">
<path d="M386.586 458.896H0C0.634863 435.572 4.92773 413.367 14.8437 392.477C43.73 331.636 92.2365 296.854 158.262 286.772C199.407 280.484 240.144 283.537 278.433 300.981C336.145 327.282 371.833 371.768 383.986 434.408C385.498 442.162 385.694 450.174 386.571 458.881L386.586 458.896ZM32.7408 428.725H352.273C352.273 427.757 352.379 427.122 352.258 426.533C351.941 425.097 351.593 423.676 351.14 422.285C337.505 380.203 311.022 349.049 271.102 329.928C236.32 313.27 199.377 309.899 161.709 315.795C107.927 324.199 67.885 352.36 43.337 401.365C39.0894 409.83 36.429 419.081 32.7559 428.725H32.7408Z" fill="#0C9DFE"/>
<path d="M292.672 143.975C291.916 184.364 281.048 215.518 256.288 240.565C218.075 279.216 160.076 277.311 125.325 235.531C92.9468 196.593 84.5726 151.82 101.88 104.039C117.192 61.7902 155.844 38.3002 200.571 41.2478C243.258 44.0745 277.767 73.4898 288.56 117.038C291.16 127.529 291.855 138.488 292.672 143.975ZM261.503 149.144C262.244 135.676 259.704 122.616 253.597 110.342C241.55 86.1417 222.368 72.2805 194.963 71.6306C168.299 70.9806 147.333 82.136 135.09 105.943C116.24 142.584 122.105 177.849 144.597 210.998C152.579 222.758 163.855 230.921 177.58 235.002C201.463 242.122 226.782 232.402 242.336 210.076C254.988 191.892 262.153 171.818 261.518 149.159L261.503 149.144Z" fill="#0C9DFE"/>
<path d="M500 236.242V259.55H339.742V236.242H500Z" fill="#0C9DFE"/>
</svg>
