<svg width="500" height="500" viewBox="0 0 500 500" fill="none" xmlns="http://www.w3.org/2000/svg">
<mask id="mask0_19_2941" style="mask-type:luminance" maskUnits="userSpaceOnUse" x="0" y="0" width="500" height="500">
<path d="M500 0H0V500H500V0Z" fill="white"/>
</mask>
<g mask="url(#mask0_19_2941)">
<path fill-rule="evenodd" clip-rule="evenodd" d="M0.303711 250C0.303711 112.097 112.097 0.303711 250 0.303711C387.903 0.303711 499.696 112.097 499.696 250C499.696 387.903 387.903 499.696 250 499.696C112.097 499.696 0.303711 387.903 0.303711 250ZM250 21.137C123.603 21.137 21.137 123.603 21.137 250C21.137 376.397 123.603 478.863 250 478.863C376.397 478.863 478.863 376.397 478.863 250C478.863 123.603 376.397 21.137 250 21.137Z" fill="#0C9DFE"/>
<path d="M271.957 231.761C271.957 231.761 285.914 174.146 271.957 154.613C258 135.112 252.45 122.112 221.761 112.805C191.072 103.498 202.254 105.353 179.939 106.305C157.608 107.257 139.021 119.323 139.021 125.839C139.021 125.839 125.064 126.758 119.514 132.339C113.931 137.919 104.637 163.92 104.637 170.42C104.637 176.92 109.284 220.648 113.931 229.922L108.397 231.793C103.734 285.682 126.952 292.198 126.952 292.198C135.326 342.394 143.701 321.022 143.701 334.022C143.701 347.022 135.326 342.394 135.326 342.394C135.326 342.394 127.904 362.829 109.317 370.265C90.7291 377.685 69.6822 390.857 61.2916 399.228C52.8845 407.6 179.939 479.846 179.939 479.846L292.424 487.993C292.424 487.993 415.156 434.396 406.75 426.009C398.375 417.637 295.175 377.685 276.588 370.265C258 362.829 250.578 342.394 250.578 342.394C250.578 342.394 242.204 347.022 242.204 334.022C242.204 321.022 250.578 342.394 258.953 292.198C258.953 292.198 282.154 285.682 277.507 231.793H271.925L271.957 231.761Z" fill="#0C9DFE"/>
<path d="M453.072 287.882C453.072 287.882 465.163 237.923 453.072 220.985C440.981 204.075 436.173 192.803 409.588 184.732C383.003 176.662 392.689 178.27 373.359 179.096C354.014 179.921 337.911 190.382 337.911 196.033C337.911 196.033 325.821 196.831 321.014 201.67C316.177 206.509 308.126 229.055 308.126 234.691C308.126 240.328 312.152 278.246 316.177 286.288L311.383 287.911C307.344 334.639 327.457 340.29 327.457 340.29C334.712 383.816 341.965 365.284 341.965 376.557C341.965 387.829 334.712 383.816 334.712 383.816C334.712 383.816 328.282 401.536 312.18 407.984C296.078 414.418 206.692 449.062 199.423 456.321C192.14 463.58 175.386 476.415 175.386 476.415L388.478 453.259C388.478 453.259 441.834 418.937 434.552 411.664C427.297 404.405 460.326 398.371 444.224 391.938C428.122 385.49 434.552 383.816 434.552 383.816C434.552 383.816 427.297 387.829 427.297 376.557C427.297 365.284 434.552 383.816 441.806 340.29C441.806 340.29 461.905 334.639 457.88 287.911H453.044L453.072 287.882Z" fill="#0C9DFE"/>
</g>
</svg>
