<svg width="500" height="500" viewBox="0 0 500 500" fill="none" xmlns="http://www.w3.org/2000/svg">
<path d="M88.784 397.689C115.775 389.623 140.48 382.32 166.899 374.445C175.155 361.108 173.695 344.659 172.996 328.401C172.996 326.941 172.297 324.908 171.218 324.146C154.071 311.826 156.484 292.71 153.943 275.308C153.816 274.292 153.626 273.213 153.245 271.18C150.26 268.704 146.64 265.719 142.448 262.226C140.416 244.443 128.921 227.233 138.638 207.672C141.178 202.528 141.051 195.224 139.972 189.318C136.034 168.678 137.431 148.292 140.67 127.842C141.813 120.793 143.846 114.823 150.133 110.377C157.818 104.916 164.359 97.7393 172.234 92.7221C207.862 69.9862 261.59 73.6061 294.678 103.201C305.982 113.299 313.921 123.714 313.413 139.591C312.905 154.262 313.667 168.996 313.286 183.729C313.032 193.637 313.794 203.163 315.254 213.07C317.477 228.312 313.921 244.38 312.905 259.05C307.189 264.194 302.87 268.005 298.806 271.688C297.409 280.897 295.44 289.725 294.868 298.616C294.297 307.444 292.646 314.811 284.834 320.59C281.595 323.003 279.309 328.655 279.118 332.91C278.356 347.136 280.134 361.235 284.389 374.318C310.555 382.002 335.704 389.369 362.886 397.308C378.191 387.464 386.828 368.539 400.165 354.186H423.981C407.659 404.929 324.336 485.14 208.053 476.121C105.36 468.119 14.6064 388.734 1.7777 279.436C-12.5117 158.072 60.7134 57.602 172.107 30.1665C276.26 4.57264 381.049 52.2039 428.934 150.769C419.98 151.213 411.978 151.594 404.293 151.975C345.484 66.8743 267.75 27.9437 166.455 58.1736C91.3244 80.592 44.5187 134.638 28.7052 211.292C13.6537 284.454 37.4693 346.882 89.038 397.625L88.784 397.689Z" fill="#0C9DFE"/>
<path d="M481.455 174.013C488.568 181.634 493.966 187.413 500 193.891C467.483 226.407 436.936 258.161 404.547 288.645C389.114 272.514 375.079 257.844 359.773 241.903C365.743 235.425 372.094 228.503 378.953 221.009C389.495 230.916 397.815 238.664 407.087 247.428C431.665 223.168 455.544 199.607 481.455 174.013Z" fill="#0C9DFE"/>
</svg>
