<svg width="129" height="116" viewBox="0 0 129 116" fill="none" xmlns="http://www.w3.org/2000/svg">
<path d="M49.9999 98.58V95.39C51.4399 95.39 52.7399 95.39 54.0299 95.39C58.5099 95.39 62.9899 95.39 67.4699 95.39C68.5699 95.39 69.7699 95.48 69.2899 93.4C68.4099 93.35 67.4699 93.24 66.5199 93.24C57.3899 93.23 48.2599 93.24 39.1399 93.23C33.9799 93.23 31.4799 90.76 31.4699 85.67C31.4499 71.16 31.4399 56.64 31.4299 42.13C31.4299 38.7 33.4099 36.53 36.8299 36.2C37.6499 36.12 38.4899 36.14 39.3199 36.14C61.1399 36.14 82.9699 36.24 104.79 36.06C109.76 36.02 111.58 38.56 111.31 42.6C111.15 45.06 111.28 47.54 111.28 50.19H107.89C107.89 48.4 107.94 46.69 107.88 44.97C107.82 43.34 107.63 41.72 107.49 39.89C105.91 39.75 104.61 39.54 103.31 39.53C82.3999 39.51 61.4899 39.52 40.5799 39.52C40.2499 39.52 39.9199 39.52 39.5799 39.52C35.4299 39.68 34.9499 40.18 34.9499 44.42C34.9499 57.69 34.9499 70.96 34.9499 84.23C34.9499 88.71 36.0199 89.76 40.5799 89.76C61.4899 89.76 82.3999 89.76 103.31 89.76C107.11 89.76 107.76 89.13 107.88 85.28C107.94 83.47 107.88 81.66 107.88 79.68H111.13C111.13 82.77 111.36 85.75 111.07 88.67C110.78 91.56 108.55 93.2 105.5 93.21C95.7899 93.23 86.0799 93.21 76.3699 93.23C75.3299 93.23 74.2899 93.39 73.1899 93.48C73.0099 95.39 74.1299 95.37 75.2099 95.37C79.9399 95.37 84.6699 95.37 89.3999 95.37C90.3799 95.37 91.3699 95.37 92.5899 95.37V98.56H50.0099L49.9999 98.58Z" fill="#0C9DFE"/>
<path d="M62.8398 67.4299V63.9399H109.31C109.39 63.7599 109.48 63.5799 109.56 63.3999C107.02 61.0299 104.49 58.6599 101.83 56.1699C102.63 55.1799 103.12 54.5799 103.89 53.6299C108.13 57.5399 112.2 61.2899 116.48 65.2399C112.17 69.2599 108.11 73.0499 103.89 76.9899C103.18 76.1299 102.69 75.5299 102.09 74.7999C104.63 72.4499 107.08 70.1699 110.04 67.4299H62.8498H62.8398Z" fill="#0C9DFE"/>
</svg>
