<svg width="153" height="161" viewBox="0 0 153 161" fill="none" xmlns="http://www.w3.org/2000/svg">
<path d="M87.2599 123.7C74.5199 123.7 61.7699 123.7 49.0299 123.7C43.9199 123.7 41.6999 121.44 41.6899 116.27C41.6899 99.5299 41.6899 82.7799 41.6899 66.0399C41.6899 60.9699 43.8799 58.7599 48.9199 58.7599C74.5799 58.7599 100.23 58.8499 125.89 58.6799C130.54 58.6499 133.16 61.7899 133.11 66.0499C132.89 82.8699 132.89 99.6999 133.11 116.53C133.16 120.73 130.31 123.87 125.75 123.79C112.93 123.56 100.1 123.71 87.2699 123.71L87.2599 123.7ZM87.2799 119.8C99.7699 119.8 112.27 119.81 124.76 119.8C128.15 119.8 129.01 118.9 129.01 115.54C129.01 99.5499 129.01 83.5499 129.01 67.5599C129.01 63.2199 128.5 62.6699 124.18 62.6699C99.6899 62.6599 75.1999 62.6599 50.7099 62.6699C46.2599 62.6699 45.7899 63.1799 45.7899 67.7599C45.7899 83.4199 45.7899 99.0799 45.7899 114.74C45.7899 119.18 46.3899 119.8 50.7899 119.81C62.9499 119.81 75.1099 119.81 87.2699 119.81L87.2799 119.8Z" fill="#0C9DFE"/>
<path d="M41.2 52.9902H133.71V56.4902H41.2V52.9902Z" fill="#0C9DFE"/>
<path d="M72.32 91.69C72.32 88.45 72.37 85.2 72.3 81.96C72.25 79.5 72.6 77.22 75.01 76C77.42 74.78 79.84 75.17 82.12 76.55C86.55 79.23 90.98 81.91 95.42 84.59C96.69 85.36 98.01 86.04 99.24 86.87C103.35 89.64 103.41 93.78 99.25 96.4C94.25 99.55 89.18 102.6 84.04 105.52C82.16 106.59 80.06 107.61 77.96 107.86C74.72 108.25 72.44 105.95 72.35 102.68C72.25 99.02 72.33 95.36 72.33 91.7L72.32 91.69ZM98.38 91.99C97.82 91.31 97.67 90.99 97.42 90.84C91.36 87.17 85.31 83.47 79.19 79.9C77.55 78.94 76.62 79.64 76.6 81.75C76.55 88.33 76.55 94.91 76.6 101.49C76.61 103.67 77.48 104.28 79.4 103.18C85.67 99.6 91.85 95.86 98.38 92V91.99Z" fill="#0C9DFE"/>
</svg>
