<svg width="500" height="500" viewBox="0 0 500 500" fill="none" xmlns="http://www.w3.org/2000/svg">
<path d="M465.192 58H33.8084C22.8685 58 14 66.8591 14 77.7874V368.003C14 378.932 22.8685 387.791 33.8084 387.791H465.192C476.13 387.791 485 378.932 485 368.003V77.7874C485 66.8591 476.13 58 465.192 58Z" stroke="#0C9DFE" stroke-width="25"/>
<path d="M303.774 213.586C312.774 218.624 312.774 231.564 303.774 236.602L231.745 276.922C222.943 281.849 212.084 275.494 212.084 265.414V184.774C212.084 174.694 222.943 168.339 231.745 173.266L303.774 213.586Z" fill="#0C9DFE"/>
<path d="M259.771 387.418H237.762V431.39H259.771V387.418Z" fill="#0C9DFE"/>
<path d="M390.36 420.771H108.641V442.757H390.36V420.771Z" fill="#0C9DFE"/>
</svg>
