<svg width="121" height="91" viewBox="0 0 121 91" fill="none" xmlns="http://www.w3.org/2000/svg">
<g clip-path="url(#clip0_17_1701)">
<path d="M34.71 90.9902C34.45 89.4302 34.18 87.8602 33.84 85.8602C35.54 85.6502 36.78 85.3702 38.02 85.3602C44.3 85.3102 50.58 85.3602 56.86 85.3302C58.42 85.3302 59.97 85.1702 61.55 85.0902C61.42 82.3502 59.78 82.8302 58.61 82.8202C51.01 82.7702 43.41 82.7902 35.81 82.7902C30.19 82.7902 24.57 82.8502 18.96 82.7702C12.06 82.6802 8.28997 78.8902 8.24997 71.9902C8.20997 66.3902 8.30997 60.7902 8.37997 55.1902C8.37997 54.9002 8.64997 54.6202 8.94997 54.0202H13.61C13.61 57.1102 13.61 60.0202 13.61 62.9402C13.61 66.0702 13.51 69.2102 13.65 72.3302C13.81 75.8202 15.03 77.0202 18.49 77.3702C19.47 77.4702 20.47 77.4202 21.46 77.4202C50.54 77.4202 79.62 77.4202 108.7 77.4202C110.49 77.4202 112.28 77.2702 114.57 77.1602C114.84 75.3402 115.28 73.7802 115.28 72.2202C115.33 52.1202 115.32 32.0102 115.28 11.9102C115.28 10.7902 115 9.67019 114.79 8.05019C112.96 7.90019 111.21 7.63019 109.46 7.63019C79.88 7.60019 50.31 7.61019 20.73 7.63019C18.46 7.63019 16.07 7.36019 13.63 9.63019V34.7102C12.48 34.9902 11.86 35.2502 11.25 35.2602C10.46 35.2802 9.65997 35.0902 8.57997 34.9602C8.44997 33.5602 8.22997 32.3002 8.21997 31.0302C8.17997 24.7702 8.48997 18.4902 8.11997 12.2502C7.73997 5.71019 12.62 2.62019 17.38 2.28019C18.53 2.20019 19.69 2.25019 20.85 2.25019C50.59 2.25019 80.33 2.35019 110.08 2.15019C115.1 2.11019 118.6 3.61019 120.98 7.90019V76.1402C118.66 81.5402 114.61 83.2502 108.79 82.8902C101.07 82.4202 93.3 82.7702 85.55 82.7702C80.28 82.7702 75 82.7302 69.73 82.8402C68.87 82.8602 68.02 83.5202 67.17 83.8802C67.25 84.3002 67.33 84.7302 67.4 85.1502C76.34 85.6302 85.33 85.0402 94.92 85.5002C94.65 87.6102 94.43 89.2902 94.21 90.9702H34.71V90.9902Z" fill="#0C9DFE"/>
<path d="M57.0301 57.0103C60.8801 53.4603 64.2501 50.3603 68.3701 46.5603H2.3501V41.6203C24.0601 41.4603 45.8001 41.6403 68.5601 41.5203C64.3901 37.5003 60.8401 34.0603 56.6901 30.0503C57.9501 28.9203 58.8701 28.0903 60.0001 27.0703C66.0601 32.6403 71.7401 37.8503 77.7901 43.4003C71.7501 49.0303 66.0001 54.3803 60.1301 59.8503C59.0701 58.8703 58.2601 58.1203 57.0501 57.0003L57.0301 57.0103Z" fill="#0C9DFE"/>
</g>
<defs>
<clipPath id="clip0_17_1701">
<rect width="120.99" height="90.99" fill="white"/>
</clipPath>
</defs>
</svg>
