<svg width="500" height="500" viewBox="0 0 500 500" fill="none" xmlns="http://www.w3.org/2000/svg">
<path d="M136.39 437.445C135.294 430.87 134.156 424.253 132.723 415.823C139.888 414.938 145.114 413.758 150.341 413.716C176.809 413.505 203.278 413.716 229.747 413.59C236.322 413.59 242.855 412.915 249.515 412.578C248.967 401.029 242.054 403.053 237.123 403.01C205.091 402.8 173.058 402.884 141.026 402.884C117.339 402.884 93.6516 403.137 70.0067 402.8C40.9246 402.42 25.0349 386.446 24.8663 357.364C24.6977 333.761 25.1192 310.159 25.4142 286.556C25.4142 285.333 26.5522 284.153 27.8166 281.624H47.4575C47.4575 294.648 47.4575 306.913 47.4575 319.22C47.4575 332.413 47.0361 345.647 47.6261 358.797C48.3005 373.507 53.4425 378.565 68.0257 380.04C72.1562 380.461 76.371 380.25 80.5436 380.25C203.11 380.25 325.676 380.25 448.242 380.25C455.786 380.25 463.331 379.618 472.983 379.155C474.121 371.484 475.975 364.909 475.975 358.334C476.186 273.616 476.144 188.857 475.975 104.14C475.975 99.4191 474.795 94.6985 473.91 87.8705C466.197 87.2383 458.821 86.1003 451.445 86.1003C326.772 85.9739 202.14 86.016 77.4668 86.1003C67.8993 86.1003 57.8259 84.9623 47.5418 94.5299V200.237C42.6948 201.417 40.0817 202.513 37.5106 202.555C34.181 202.639 30.8091 201.838 26.2572 201.291C25.7092 195.39 24.782 190.079 24.7398 184.726C24.5712 158.342 25.8778 131.873 24.3183 105.573C22.7167 78.0079 43.2849 64.9842 63.3473 63.5512C68.1943 63.214 73.0835 63.4248 77.9726 63.4248C203.32 63.4248 328.668 63.8462 454.058 63.0033C475.217 62.8347 489.968 69.1569 500 87.2383V374.856C490.221 397.615 473.151 404.823 448.621 403.305C416.083 401.324 383.334 402.8 350.67 402.8C328.458 402.8 306.204 402.631 283.992 403.095C280.367 403.179 276.784 405.961 273.202 407.478C273.539 409.248 273.876 411.061 274.171 412.831C311.851 414.854 349.742 412.367 390.162 414.306C389.024 423.199 388.097 430.28 387.17 437.361H136.39V437.445Z" fill="#0C9DFE"/>
<path d="M230.465 294.227C246.692 279.264 260.896 266.199 278.26 250.182H0V229.361C91.5031 228.687 183.133 229.446 279.061 228.94C261.486 211.996 246.523 197.498 229.032 180.596C234.342 175.833 238.22 172.335 242.983 168.036C268.524 191.513 292.464 213.472 317.964 236.864C292.506 260.593 268.271 283.142 243.531 306.197C239.063 302.066 235.649 298.905 230.549 294.185L230.465 294.227Z" fill="#0C9DFE"/>
</svg>
