<svg width="127" height="128" viewBox="0 0 127 128" fill="none" xmlns="http://www.w3.org/2000/svg">
<path d="M48.51 58.44H61.25C64.9 54.85 68.56 51.26 72.55 47.34V85.59C68.6 81.69 65.02 78.14 61.33 74.5H48.51V58.44ZM63.85 62.56H52.57V70.51H64.2C65.35 71.85 66.78 73.52 68.44 75.46V57.81C68.28 57.71 68.13 57.6 67.97 57.5C66.53 59.28 65.08 61.05 63.86 62.56H63.85Z" fill="#0C9DFE"/>
<path d="M87.47 73.98C89.85 71.54 92.24 69.1 94.82 66.45C92.22 63.78 89.82 61.32 87.16 58.58C88.18 57.58 89.09 56.68 90.18 55.61C92.83 58.21 95.28 60.6 97.98 63.25C100.6 60.72 103.11 58.29 106 55.5C106.95 56.58 107.79 57.55 108.78 58.68C106.24 61.28 103.85 63.74 101.21 66.44C103.73 69.03 106.12 71.47 108.71 74.13C107.75 75.17 106.84 76.15 105.82 77.25C103.18 74.67 100.72 72.26 98.03 69.63C95.38 72.22 92.92 74.61 90.15 77.31C89.28 76.23 88.47 75.22 87.46 73.97L87.47 73.98Z" fill="#EB5445"/>
</svg>
