<svg width="500" height="500" viewBox="0 0 500 500" fill="none" xmlns="http://www.w3.org/2000/svg">
<path d="M414.81 363.453H438.573C421.905 415.997 335.677 482.499 246.911 485.614C112.35 490.343 23.3532 391.369 5.30015 300.988C-24.4614 152.18 76.2435 45.0731 179.198 20.7909C293.226 -6.08685 398.199 52.1097 440.131 136.088H414.061C367.919 69.9898 303.493 34.6911 220.264 39.5937C165.182 42.8237 118.002 66.183 80.7423 106.903C-1.62115 196.88 8.2417 330.865 96.892 409.249C181.966 484.518 330.832 485.498 414.868 363.395L414.81 363.453Z" fill="#0C9DFE"/>
<path d="M152.378 204.032H225.859C246.911 183.326 268.021 162.62 291.035 140.01V360.627C268.252 338.132 247.603 317.657 226.32 296.662H152.378V204.032ZM240.855 227.795H175.795V273.649H242.874C249.507 281.378 257.755 291.01 267.329 302.199V200.399C266.406 199.822 265.541 199.187 264.618 198.611C256.313 208.877 247.95 219.086 240.913 227.795H240.855Z" fill="#0C9DFE"/>
<path d="M377.089 293.663C390.816 279.59 404.601 265.517 419.482 250.232C404.486 234.832 390.643 220.644 375.301 204.84C381.184 199.072 386.433 193.881 392.719 187.71C408.004 202.706 422.135 216.491 437.708 231.775C452.819 217.183 467.296 203.167 483.965 187.075C489.445 193.304 494.289 198.899 499.999 205.417C485.349 220.413 471.564 234.601 456.338 250.174C470.872 265.113 484.657 279.186 499.596 294.528C494.059 300.527 488.81 306.179 482.927 312.524C467.7 297.643 453.511 283.743 437.996 268.573C422.712 283.512 408.523 297.297 392.546 312.87C387.528 306.641 382.857 300.815 377.031 293.606L377.089 293.663Z" fill="#0C9DFE"/>
</svg>
