<svg width="90" height="82" viewBox="0 0 90 82" fill="none" xmlns="http://www.w3.org/2000/svg">
<path d="M77.2126 21.1982H72.7604C59.0378 1.23725 33.6664 -0.655174 17.5754 12.8535C1.57589 26.2917 -0.365597 49.1316 13.3976 64.9655C21.438 74.2162 32.0095 78.4842 44.2886 77.548C56.5576 76.6119 66.0516 70.5119 72.7706 60.6773H77.1415C72.1403 72.4848 55.9477 83.7789 37.1834 81.7657C15.827 79.4707 1.3726 62.8818 0.101988 43.9777C-1.51422 19.8091 16.3658 3.81416 33.3512 0.733942C55.8867 -3.35288 72.6892 10.4779 77.2024 21.1982H77.2126Z" fill="#0C9DFE"/>
<path d="M51.0076 60.023C47.6634 56.7415 44.6851 53.6512 41.4933 50.7925C40.487 49.8966 38.9419 49.2222 37.6002 49.1416C34.012 48.9202 30.4034 49.0611 26.6628 49.0611V32.9051H40.2735C43.6788 29.4323 47.206 25.8488 51.0076 21.9733V60.013V60.023ZM46.3013 50.0576C46.5046 49.8764 46.6977 49.7053 46.901 49.5241V32.291C46.6977 32.1703 46.4944 32.0595 46.2911 31.9387C44.8477 33.65 43.4043 35.3612 42.0422 36.9818H30.8405V44.9139H42.2455C43.445 46.4339 44.868 48.2457 46.3013 50.0677V50.0576Z" fill="#0C9DFE"/>
<path d="M90 39.2567V42.8101H63.9373V39.2567H90Z" fill="#0C9DFE"/>
</svg>
