<svg width="500" height="500" viewBox="0 0 500 500" fill="none" xmlns="http://www.w3.org/2000/svg">
<path d="M0 183.086H105.691C135.971 153.303 166.335 123.52 199.436 91V408.322C166.667 375.968 136.967 346.517 106.355 316.319H0V183.086ZM127.261 217.265H33.6818V283.218H130.164C139.705 294.335 151.568 308.189 165.339 324.283V177.859C164.012 177.03 162.768 176.117 161.44 175.287C149.494 190.054 137.465 204.738 127.344 217.265H127.261Z" fill="#0C9DFE"/>
<path d="M323.212 312.007C342.957 291.765 362.784 271.523 384.188 249.538C362.618 227.388 342.708 206.98 320.641 184.249C329.103 175.953 336.652 168.487 345.695 159.61C367.679 181.179 388.004 201.007 410.403 222.991C432.139 202.002 452.962 181.843 476.937 158.697C484.818 167.657 491.787 175.704 500 185.079C478.928 206.648 459.101 227.056 437.199 249.456C458.105 270.942 477.933 291.184 499.419 313.252C491.455 321.88 483.906 330.01 475.444 339.135C453.542 317.732 433.134 297.738 410.818 275.92C388.834 297.406 368.426 317.234 345.446 339.633C338.228 330.673 331.508 322.294 323.129 311.924L323.212 312.007Z" fill="#FD4339"/>
</svg>
