<svg width="140" height="133" viewBox="0 0 140 133" fill="none" xmlns="http://www.w3.org/2000/svg">
<path d="M84.57 81.29C81.28 78.03 78.35 74.96 75.21 72.12C74.22 71.23 72.7 70.56 71.38 70.48C67.85 70.26 64.3 70.4 60.62 70.4V54.35H74.01C77.36 50.9 80.83 47.34 84.57 43.49V81.28V81.29ZM79.94 71.39C80.14 71.21 80.33 71.04 80.53 70.86V53.74C80.33 53.62 80.13 53.51 79.93 53.39C78.51 55.09 77.09 56.79 75.75 58.4H64.73V66.28H75.95C77.13 67.79 78.53 69.59 79.94 71.4V71.39Z" fill="#0C9DFE"/>
<path d="M122.93 60.66V64.19H97.29V60.66H122.93Z" fill="#0C9DFE"/>
</svg>
