<svg width="174" height="165" viewBox="0 0 174 165" fill="none" xmlns="http://www.w3.org/2000/svg">
<path d="M56 71.24V55.01H69.77C72.9 51.67 76.31 48.02 80.06 44V81.96C76.52 78.11 73.14 74.44 70.21 71.25H56V71.24ZM71.44 59.08H60.09V67.24C63.22 67.24 66.19 67.12 69.15 67.3C70.24 67.37 71.39 68.02 72.32 68.68C73.58 69.58 74.65 70.73 75.95 71.91V53.98C74.2 55.97 72.85 57.5 71.44 59.09V59.08Z" fill="#0C9DFE"/>
<path d="M103.36 50.15H107.64V61.08H118.44V65H107.72V75.93H103.54V65.05H92.76V61.3H103.36V50.15Z" fill="#0C9DFE"/>
</svg>
