<svg width="500" height="500" viewBox="0 0 500 500" fill="none" xmlns="http://www.w3.org/2000/svg">
<path d="M295.42 449.544C260.395 449.544 225.37 449.544 190.295 449.544C147.888 449.544 112.762 413.145 114.187 370.738C115.206 339.43 136.281 311.482 166.063 299.926C170.492 298.246 175.837 291.068 175.684 286.639C173.444 221.069 236.774 167.463 300.001 174.285C339.404 178.51 370.203 197.601 390.261 232.218C394.232 239.091 398.304 242.094 406.653 242.858C475.023 249.221 517.378 320.492 493.095 384.28C479.655 419.559 440.711 450.563 396.726 449.646C362.974 448.933 329.172 449.493 295.42 449.493V449.544ZM197.473 316.98C189.837 318.1 183.422 318.201 177.517 320.034C150.994 328.23 133.991 353.43 137.045 378.069C140.456 405.712 162.754 427.348 193.909 426.839C261.413 425.821 329.019 425.057 396.523 426.992C452.267 428.57 491.873 368.753 474.463 322.732C462.907 292.086 431.904 259.352 391.585 266.581C383.796 267.955 380.436 263.526 377.585 257.01C358.189 212.16 321.535 192.052 273.326 198.568C233.21 203.964 197.473 243.672 197.473 284.5C197.473 294.988 197.473 305.475 197.473 317.082V316.98Z" fill="#0C9DFE"/>
<path d="M130.58 306.189C116.122 327.825 114.9 328.029 96.5733 312.044C60.1742 280.277 47.5999 239.653 59.2069 193.988C70.1012 151.073 99.3223 121.241 143.001 112.128C189.328 102.456 230.156 111.874 263.551 155.807C265.639 158.556 266.504 162.222 268.286 166.192C255.559 170.011 246.497 171.538 236.876 160.389C209.08 128.215 163.059 121.648 125.845 142.724C87.3081 164.513 70.3557 205.952 82.2682 247.645C88.9371 271.012 102.428 288.524 123.249 300.691C125.693 302.117 127.78 304.051 130.529 306.138L130.58 306.189Z" fill="#0C9DFE"/>
<path d="M60.7337 352.414C48.6853 343.216 46.3609 334.918 53.7593 327.52C58.4938 322.785 63.4827 318.356 67.9626 313.418C72.3916 308.582 77.177 308.429 80.2314 313.571C82.1659 316.829 83.0823 323.04 81.2496 325.84C75.1407 335.258 67.6063 343.708 60.6828 352.414H60.7337Z" fill="#0C9DFE"/>
<path d="M58.1364 96.8044C65.6708 105.102 74.0196 113.248 80.9431 122.462C82.8776 125.058 82.0631 131.575 80.0268 134.629C78.8559 136.411 71.627 136.411 69.0307 134.578C63.329 130.556 59.3582 124.244 53.8092 119.968C43.3731 111.924 44.0349 105.204 58.1364 96.9063V96.8044Z" fill="#0C9DFE"/>
<path d="M281.368 95.0745C292.568 104.543 294.316 113.164 286.612 120.935C282.488 125.059 278.008 128.877 274.292 133.357C269.914 138.601 265.79 139.466 260.699 134.63C255.812 130.048 255.812 125.925 260.343 120.783C267.776 112.383 274.546 103.423 281.317 95.0745H281.368Z" fill="#0C9DFE"/>
<path d="M176.497 92.2214H161.021V50.8333H176.497V92.2214Z" fill="#0C9DFE"/>
<path d="M0 212.516H40.0645V228.297H0V212.516Z" fill="#0C9DFE"/>
</svg>
