<svg width="126" height="112" viewBox="0 0 126 112" fill="none" xmlns="http://www.w3.org/2000/svg">
<path d="M32.5898 33.5296C50.2698 17.9896 83.0898 15.3396 105.26 33.3696C104.15 34.5496 103.05 35.6996 101.84 36.9696C91.9998 29.6996 81.0998 25.8796 68.9698 25.8596C56.8298 25.8296 45.9198 29.6196 35.9698 36.9396C34.8298 35.7896 33.7098 34.6596 32.5898 33.5296Z" fill="#0C9DFE"/>
<path d="M48.7798 49.8295C57.3598 41.6295 81.3898 41.6995 88.6998 49.6995C88.6098 49.8995 88.5698 50.1795 88.4098 50.3395C87.4898 51.2795 86.5298 52.1995 85.4998 53.2095C74.5598 46.9795 63.5498 46.8495 52.2198 53.2695C51.1798 52.2295 50.0498 51.0995 48.7798 49.8295Z" fill="#0C9DFE"/>
<path d="M68.8396 78.1294C64.5296 78.1294 61.6096 75.1094 61.5396 70.7794C61.4696 66.4294 64.9396 63.2994 68.8796 63.3794C73.2196 63.4694 76.1696 66.4394 76.2496 70.8394C76.3296 75.3494 72.3996 78.4394 68.8396 78.1294Z" fill="#0C9DFE"/>
</svg>
