<svg width="500" height="500" viewBox="0 0 500 500" fill="none" xmlns="http://www.w3.org/2000/svg">
<path d="M0 139.818C121.646 32.8958 347.461 14.6627 500 138.717C492.363 146.836 484.794 154.748 476.469 163.486C408.766 113.466 333.769 87.1823 250.31 87.0447C166.781 86.8383 91.716 112.915 23.2558 163.28C15.4121 155.367 7.70607 147.592 0 139.818Z" fill="#0C9DFE"/>
<path d="M111.394 251.968C170.428 195.549 335.764 196.031 386.06 251.074C385.441 252.45 385.165 254.376 384.065 255.477C377.735 261.945 371.129 268.275 364.043 275.224C288.771 232.359 213.017 231.465 135.062 275.637C127.907 268.481 120.132 260.706 111.394 251.968Z" fill="#0C9DFE"/>
<path d="M249.415 446.684C219.76 446.684 199.669 425.905 199.188 396.113C198.706 366.183 222.581 344.647 249.69 345.198C279.551 345.817 299.848 366.252 300.399 396.526C300.949 427.556 273.909 448.817 249.415 446.684Z" fill="#0C9DFE"/>
</svg>
