<svg width="89" height="90" viewBox="0 0 89 90" fill="none" xmlns="http://www.w3.org/2000/svg">
<path d="M27.0301 47.2197V50.6097C25.3201 50.6097 23.7701 50.6197 22.2201 50.6097C20.6101 50.5997 19.7701 51.2797 19.8001 52.9897C19.8501 55.7997 19.8201 58.6197 19.8101 61.4297C19.8101 63.2397 20.5701 64.1997 22.4801 64.1997C35.4701 64.1797 48.4701 64.1797 61.4601 64.1997C63.1701 64.1997 64.1401 63.4797 64.1601 61.7197C64.1801 58.7397 64.1601 55.7597 64.1801 52.7797C64.1901 51.3297 63.4701 50.6398 62.0701 50.6198C60.4301 50.5998 58.7901 50.6198 56.9601 50.6198V47.2597C59.1901 47.2597 61.4901 47.0997 63.7601 47.3097C66.0401 47.5197 67.5701 49.4197 67.6001 51.7597C67.6501 55.3197 67.6601 58.8797 67.6001 62.4397C67.5501 65.4497 65.4201 67.5998 62.4301 67.6098C48.7701 67.6398 35.1201 67.6398 21.4601 67.6098C18.5701 67.6098 16.4901 65.5197 16.4301 62.5897C16.3501 58.9497 16.3501 55.3097 16.4301 51.6597C16.4801 49.0997 18.2301 47.3697 20.8401 47.2397C22.8201 47.1397 24.8001 47.2197 27.0401 47.2197H27.0301Z" fill="#0C9DFE"/>
<path d="M67.62 22.25C66.74 22.87 65.88 23.47 64.88 24.17C49.78 14.13 34.35 14.05 18.5 24.57C17.87 23.86 17.18 23.09 16.48 22.31C28.81 11 52.62 9.50002 67.62 22.25Z" fill="#0C9DFE"/>
<path d="M56.25 33.6902C55.38 34.5802 54.66 35.3202 53.91 36.0902C45.91 31.6202 38.19 31.5502 30.12 36.0902C29.34 35.3602 28.55 34.6102 27.73 33.8402C34.67 27.8402 48.37 27.7902 56.25 33.7002V33.6902Z" fill="#0C9DFE"/>
<path d="M41.9199 52.8504C39.2999 52.8204 37.3699 50.9104 37.3799 48.3504C37.3899 45.7204 39.5099 43.6804 42.1499 43.7704C44.6799 43.8604 46.6099 45.9104 46.5599 48.4604C46.5199 51.0204 44.5499 52.8804 41.9099 52.8504H41.9199Z" fill="#0C9DFE"/>
</svg>
