<svg width="500" height="500" viewBox="0 0 500 500" fill="none" xmlns="http://www.w3.org/2000/svg">
<path d="M112.173 312.33V343.497C96.4519 343.497 82.2014 343.589 67.951 343.497C53.1489 343.405 45.4261 349.657 45.7019 365.379C46.1616 391.213 45.8858 417.14 45.7938 442.975C45.7938 459.616 52.7811 468.442 70.3414 468.442C189.769 468.258 309.289 468.258 428.717 468.442C444.439 468.442 453.357 461.822 453.541 445.641C453.725 418.243 453.541 390.846 453.725 363.448C453.817 350.117 447.197 343.773 434.326 343.589C419.248 343.406 404.17 343.589 387.345 343.589V312.698C407.847 312.698 428.993 311.227 449.863 313.158C470.825 315.088 484.892 332.557 485.168 354.07C485.627 386.8 485.719 419.531 485.168 452.261C484.708 479.934 465.125 499.701 437.636 499.793C312.048 500.069 186.552 500.069 60.9637 499.793C34.3934 499.793 15.2703 480.578 14.7186 453.64C13.9831 420.174 13.9831 386.708 14.7186 353.151C15.1783 329.615 31.2675 313.709 55.2635 312.514C73.4673 311.595 91.6711 312.33 112.265 312.33H112.173Z" fill="#0C9DFE"/>
<path d="M485.35 82.7626C477.26 88.4628 469.353 93.9791 460.159 100.415C321.332 8.10861 179.471 7.3731 33.7483 104.092C27.9562 97.5647 21.6125 90.4855 15.1768 83.3143C128.537 -20.6681 347.442 -34.4588 485.35 82.7626Z" fill="#0C9DFE"/>
<path d="M380.816 187.942C372.817 196.125 366.198 202.928 359.302 210.008C285.752 168.911 214.775 168.268 140.581 210.008C133.41 203.296 126.146 196.401 118.607 189.321C182.413 134.158 308.368 133.699 380.816 188.034V187.942Z" fill="#0C9DFE"/>
<path d="M249.068 364.098C224.98 363.822 207.236 346.262 207.328 322.726C207.419 298.546 226.91 279.791 251.182 280.618C274.443 281.446 292.187 300.293 291.727 323.737C291.359 347.274 273.247 364.374 248.976 364.098H249.068Z" fill="#0C9DFE"/>
</svg>
