<svg width="83" height="82" viewBox="0 0 83 82" fill="none" xmlns="http://www.w3.org/2000/svg">
<path d="M54.3201 7.00025C54.4901 7.00025 54.6501 7.00025 54.8201 7.00025C55.9701 7.00025 57.2301 6.77025 57.8201 8.18025C58.3901 9.53025 57.5501 10.3602 56.6901 11.2002C55.3201 12.5402 53.9701 13.9002 52.6301 15.2702C50.7301 17.2002 50.5301 17.9902 51.9301 20.3102C52.6801 21.5502 53.7001 22.7502 54.8701 23.6102C57.6501 25.6702 58.6401 25.5002 61.0801 23.1002C62.4401 21.7502 63.7101 20.2902 65.1901 19.0902C65.8601 18.5402 67.1101 18.0702 67.7901 18.3402C68.4201 18.5902 68.9801 19.8702 68.9801 20.7002C68.9701 25.0202 68.1301 29.1302 65.3301 32.6202C63.1601 35.3202 60.3801 36.8702 56.9001 36.7102C51.7201 36.4702 47.6301 38.3202 44.0301 42.0902C37.7101 48.7202 31.1401 55.1102 24.6401 61.5502C22.7001 63.4702 20.8501 65.5702 17.7001 65.4802C14.6001 65.4002 12.4501 63.9102 11.2201 61.2002C10.0201 58.5302 10.3801 55.9202 12.4601 53.8002C17.4101 48.7402 22.4301 43.7602 27.4301 38.7402C30.1301 36.0202 32.8901 33.3602 35.5101 30.5702C37.7401 28.1902 38.8401 25.2302 39.2101 22.0102C39.2401 21.7602 39.2301 21.5102 39.2301 21.2602C39.0101 10.9802 47.2101 7.00025 54.3501 7.03025L54.3201 7.00025ZM40.9601 27.6902C40.3401 28.6002 39.4001 30.3602 38.1101 31.8102C35.9601 34.2302 33.6001 36.4602 31.3101 38.7502C25.7901 44.2702 20.2301 49.7602 14.7401 55.3102C12.9601 57.1102 13.0001 59.7002 14.6401 61.3502C16.3401 63.0502 19.0701 63.0302 20.8901 61.2102C26.4701 55.6302 31.9501 49.9402 37.6201 44.4502C41.2701 40.9202 44.3001 36.6002 48.0901 35.2402C45.8301 32.8502 43.2901 30.1602 40.9801 27.7002L40.9601 27.6902ZM66.2101 22.7702C66.0601 22.6602 65.9101 22.5502 65.7501 22.4302C64.5901 23.5702 63.3701 24.6502 62.3001 25.8602C60.5101 27.8802 58.3001 28.1602 55.9401 27.3702C52.7001 26.2802 50.4101 24.0302 49.0001 20.9602C47.6701 18.0502 48.1901 15.8002 50.4401 13.5302C51.4901 12.4702 52.5201 11.3902 53.5601 10.3202C53.4001 10.0802 53.2401 9.83025 53.0901 9.59025C51.0801 10.2702 48.9601 10.7202 47.0901 11.6702C42.2701 14.1102 40.8301 18.8502 43.2501 23.7002C45.1601 27.5302 48.0401 30.4502 51.7701 32.5402C54.7901 34.2302 57.8701 34.8202 60.9401 32.7602C64.5201 30.3602 65.8401 26.7802 66.2201 22.7602L66.2101 22.7702Z" fill="#0C9DFE"/>
</svg>
