<svg width="800" height="347" viewBox="0 0 800 347" fill="none" xmlns="http://www.w3.org/2000/svg">
<path d="M0 188.554C0 461.818 0 325.177 0 188.554ZM282.84 0H340.225V82.4069C360.921 68.8 385.137 61.5274 409.905 61.4805C443.603 61.4897 475.919 74.881 499.746 98.7102C523.574 122.539 536.963 154.856 536.97 188.554C536.961 222.251 523.57 254.565 499.743 278.392C475.916 302.22 443.602 315.61 409.905 315.619C376.208 315.61 343.894 302.22 320.066 278.392C296.239 254.565 282.849 222.251 282.84 188.554V0ZM143.463 61.4719C177.16 61.481 209.474 74.8711 233.302 98.6985C257.129 122.526 270.519 154.84 270.528 188.537V315.602H213.16V294.675C192.465 308.282 168.249 315.555 143.481 315.602C109.785 315.595 77.4714 302.208 53.6427 278.384C29.814 254.561 16.4207 222.25 16.4069 188.554C16.4161 154.857 29.8062 122.543 53.6335 98.7158C77.4608 74.8885 109.775 61.4984 143.472 61.4892L143.463 61.4719ZM676.329 61.4719C705.013 61.5131 732.839 71.2557 755.285 89.1156C777.73 106.976 793.474 131.903 799.957 159.844H739.758C733.161 145.383 721.821 133.612 707.616 126.48C693.412 119.349 677.197 117.288 661.66 120.637C646.122 123.986 632.197 132.545 622.191 144.895C612.186 157.244 606.702 172.643 606.649 188.537C606.711 204.424 612.198 219.813 622.202 232.155C632.207 244.497 646.127 253.051 661.658 256.399C677.188 259.747 693.396 257.689 707.597 250.565C721.798 243.442 733.138 231.68 739.74 217.229H800C792.783 247.442 774.752 273.966 749.313 291.791C723.874 309.616 692.788 317.508 661.927 313.976C631.066 310.444 602.567 295.733 581.812 272.622C561.058 249.51 549.486 219.599 549.281 188.537C549.291 154.84 562.681 122.526 586.508 98.6985C610.335 74.8711 642.649 61.481 676.346 61.4719H676.329ZM143.463 118.874C124.984 118.879 107.264 126.222 94.1973 139.288C81.1309 152.355 73.7881 170.075 73.7836 188.554C73.7881 207.033 81.1309 224.754 94.1973 237.82C107.264 250.886 124.984 258.229 143.463 258.234C161.942 258.229 179.663 250.886 192.729 237.82C205.796 224.754 213.138 207.033 213.143 188.554C213.138 170.075 205.796 152.355 192.729 139.288C179.663 126.222 161.942 118.879 143.463 118.874ZM409.896 118.874C391.417 118.879 373.697 126.222 360.63 139.288C347.564 152.355 340.221 170.075 340.217 188.554C340.221 207.033 347.564 224.754 360.63 237.82C373.697 250.886 391.417 258.229 409.896 258.234C428.375 258.229 446.096 250.886 459.162 237.82C472.229 224.754 479.571 207.033 479.576 188.554C479.571 170.075 472.229 152.355 459.162 139.288C446.096 126.222 428.375 118.879 409.896 118.874Z" fill="white" fill-opacity="0.5"/>
</svg>
