<svg width="500" height="500" viewBox="0 0 500 500" fill="none" xmlns="http://www.w3.org/2000/svg">
<path fill-rule="evenodd" clip-rule="evenodd" d="M25.3208 306.64C28.9508 309.8 32.9907 313 37.4906 316.22C39.8706 317.93 42.1705 319.21 44.2205 320.23C46.2104 321.2 47.9404 321.92 49.2504 322.53C50.7803 323.25 52.2203 322.27 52.1303 320.56C51.8503 314.95 51.8803 309.63 52.1803 304.661V304.641C54.0503 273.851 66.66 253.212 87.6996 235.282C110.639 215.702 142.969 198.683 200.257 192.493C273.956 184.553 333.195 224.602 301.126 253.592C299.116 255.421 301.495 258.431 303.675 256.801C333.665 234.492 320.295 217.392 305.625 204.132C267.716 169.863 163.618 171.113 88.1296 193.553C19.5709 213.912 -30.2681 254.062 21.2909 302.971C22.6109 304.231 23.9609 305.451 25.3208 306.64ZM78.8498 304.671C72.2699 255.581 123.139 201.073 204.757 200.863C233.297 200.803 265.466 202.893 286.586 227.122C288.386 229.162 285.686 231.872 283.686 230.032C248.127 197.183 151.208 209.462 129.329 244.062C115.059 266.661 119.289 285.551 132.179 302.601C135.299 306.76 139.339 311.18 143.239 315.01C165.328 336.68 199.467 355.22 267.006 374.569C269.316 375.239 269.176 378.179 266.806 378.609C263.446 379.209 258.536 380.349 250.796 380.799C135.809 387.489 84.7197 348.22 78.8598 304.681L78.8498 304.671ZM153.448 304.671C134.269 285.121 129.259 263.831 149.138 245.482C163.728 232.022 183.438 218.642 232.697 221.052C235.437 221.182 235.327 225.202 232.597 225.192C157.978 225.012 135.589 274.881 178.628 300.481C181.078 301.951 183.578 303.351 186.088 304.691H186.128C222.877 324.22 264.186 329.83 305.465 330.5C351.915 331.24 398.864 325.04 462.832 304.621H463.042C463.942 304.291 464.842 303.971 465.732 303.691C466.912 303.311 467.912 303.811 468.282 304.691C468.502 305.251 468.482 305.881 468.242 306.431C467.882 307.36 467.562 308.52 466.922 309.95C466.052 311.88 464.922 313.68 463.562 315.29C413.013 376.099 315.765 375.879 241.027 352.57C204.947 341.3 172.388 323.87 153.508 304.681H153.448V304.671ZM205.057 303.121C201.237 300.941 197.658 298.351 194.368 295.391C179.708 282.131 166.328 265.041 196.318 242.712C198.498 241.092 200.887 244.102 198.867 245.932C175.518 267.031 200.567 294.001 244.357 304.051C246.357 304.501 248.347 304.931 250.356 305.321C266.656 308.27 283.276 308.84 299.736 307.03C306.715 306.28 313.735 305.361 320.665 304.161C365.184 296.411 392.314 281.301 412.293 264.241C436.783 243.372 449.853 218.882 447.873 178.973C447.793 177.273 449.223 176.273 450.743 176.993C452.063 177.613 453.803 178.333 455.783 179.303C457.832 180.313 460.152 181.603 462.522 183.303C535.011 235.312 491.602 279.041 423.273 302.351C419.503 303.631 415.703 304.841 411.883 305.961C344.975 325.85 255.576 329.1 209.717 305.681C208.147 304.851 206.607 303.991 205.077 303.101L205.057 303.121ZM36.4506 184.283C87.0096 123.474 184.248 123.694 258.976 147.004C331.835 169.743 390.284 217.682 350.875 254.062C336.295 267.531 316.575 280.911 267.316 278.521C264.576 278.371 264.686 274.361 267.426 274.381C342.035 274.571 364.434 224.682 321.405 199.093C282.806 176.133 238.677 169.783 194.548 169.093C147.408 168.343 99.7394 174.743 34.2807 195.893C32.4507 196.493 31.0707 194.983 31.7707 193.163C32.1307 192.243 32.4607 191.063 33.0907 189.633C33.7807 188.073 34.7807 186.283 36.4706 184.283H36.4506ZM292.546 298.671C264.686 298.571 233.857 295.871 213.407 272.411C211.627 270.371 214.307 267.651 216.307 269.511C251.866 302.351 348.805 290.081 370.664 255.491C388.484 227.272 377.464 204.832 356.764 184.543C334.665 162.873 300.536 144.334 232.997 124.984C230.697 124.324 230.847 121.374 233.207 120.954C236.557 120.354 241.477 119.204 249.217 118.754C491.922 104.564 449.923 295.281 298.826 298.611C296.716 298.651 294.636 298.651 292.546 298.651V298.671Z" fill="white"/>
</svg>
