<svg width="500" height="500" viewBox="0 0 500 500" fill="none" xmlns="http://www.w3.org/2000/svg">
<path d="M469.898 0V458.501C457.508 459.408 445.522 460.264 431.823 461.271V500C422.154 500 414.197 500 406.239 500C297.053 500 187.917 500 78.7311 500C43.0744 500 31.0881 487.913 31.0378 452.105C30.9874 317.083 30.9874 182.111 31.0378 47.089C31.0378 12.6914 43.3766 0.100718 77.1195 0.100718C207.105 -7.29824e-06 337.041 0.100718 469.898 0.100718V0ZM409.462 480.258V61.7446H50.7799C50.7799 192.889 50.7799 322.069 50.7799 451.249C50.7799 470.79 60.9532 480.258 80.2924 480.258C189.428 480.258 298.514 480.258 409.412 480.258H409.462ZM430.967 39.5346C430.967 51.8735 430.967 60.8884 430.967 69.9033C430.967 186.644 430.917 303.384 431.018 420.075C431.018 440.169 431.37 440.169 450.004 436.342V19.994C323.896 19.994 199.047 19.7925 74.2489 20.5479C66.8959 20.5479 59.5934 28.7067 52.2404 33.0882C53.2477 35.2538 54.2046 37.369 55.2118 39.5346H431.018H430.967Z" fill="white"/>
<path d="M333.667 366.842H131.008C130.101 321.616 168.629 286.211 223.121 281.377C278.318 276.441 323.594 310.134 333.667 366.842Z" fill="white"/>
<path d="M289.448 195.205C289.801 233.481 264.72 264.152 232.539 264.857C198.745 265.562 172.506 235.344 172.557 195.759C172.557 160.052 196.68 133.008 229.466 131.849C262.706 130.691 289.096 158.592 289.448 195.205Z" fill="white"/>
</svg>
