<svg width="500" height="500" viewBox="0 0 500 500" fill="none" xmlns="http://www.w3.org/2000/svg">
<path d="M462.71 267.356C465.867 383.434 365.711 482.537 246.888 479.883C131.771 477.321 37.5632 384.623 38.0665 265.297C38.5698 145.879 133.281 52.678 251.097 52.5865C370.195 52.495 466.507 150.637 462.755 267.356H462.71ZM440.427 266.532C440.427 160.795 356.148 75.6923 250.64 75.738C146.504 75.738 60.7147 159.697 60.7147 266.304C60.7147 371.584 145.863 456.366 250.868 456.64C355.188 456.915 441.846 369.113 440.427 266.578V266.532Z" fill="white"/>
<path d="M333.547 44.6255C337.665 35.5204 341.005 28.1083 344.299 20.8334C418.832 44.9 488.516 125.519 500 199.411C492.634 201.562 485.176 203.712 475.75 206.412C454.017 130.14 407.302 75.8755 333.593 44.6255H333.547Z" fill="white"/>
<path d="M151.537 22.6631C155.06 30.8531 158.629 39.1345 162.244 47.416C90.1354 80.4962 44.8389 134.76 24.9359 211.673C15.4649 209.34 7.68668 207.418 0 205.542C13.6805 124.649 79.612 49.9782 151.537 22.7088V22.6631Z" fill="white"/>
<path d="M271.916 121.675V288.906H140.281V263.055H245.287V121.675H271.87H271.916Z" fill="white"/>
</svg>
