<svg width="67" height="62" viewBox="0 0 67 62" fill="none" xmlns="http://www.w3.org/2000/svg">
<g clip-path="url(#clip0_17_859)">
<path d="M33.428 61.462C25.8163 61.462 18.1991 61.4901 10.5875 61.4564C2.52707 61.4171 -1.85363 54.3552 1.85957 47.2877C8.87107 33.9379 16.0284 20.6554 23.0118 7.28879C25.3283 2.85759 28.5873 0.507295 33.7365 0.518595C38.9137 0.529795 42.0773 2.99779 44.3826 7.41779C51.3099 20.6891 58.4055 33.8762 65.4114 47.1082C69.1358 54.1421 64.8617 61.4059 56.9303 61.4564C49.0943 61.5125 41.264 61.4676 33.428 61.4676V61.462ZM33.5682 58.1863C33.5682 58.1863 33.5682 58.1582 33.5682 58.147C41.292 58.147 49.0214 58.2816 56.7452 58.1021C62.3039 57.9675 64.828 53.5475 62.3095 48.7685C55.3822 35.6206 48.41 22.4952 41.5164 9.33049C39.8112 6.07159 37.6012 3.86159 33.6075 3.88409C29.7652 3.90649 27.5832 5.99869 25.9285 9.15669C18.9676 22.4167 11.9449 35.6431 4.96707 48.8975C2.66167 53.2783 4.82127 57.4066 9.73487 58.0797C10.8231 58.2312 11.9393 58.1807 13.0387 58.1807C19.8819 58.1863 26.725 58.1807 33.5682 58.1807V58.1863Z" fill="white"/>
<path d="M29.7034 22.4505C29.7483 18.7428 31.2066 17.0264 33.7252 17.1498C36.6195 17.2901 37.8815 19.085 37.5843 21.7886C36.8495 28.4467 35.9913 35.0935 35.077 41.7291C34.9872 42.3798 34.1515 42.9295 33.6635 43.5297C33.2203 42.9968 32.4743 42.5088 32.3846 41.9198C31.3974 35.1833 30.5111 28.4298 29.6978 22.4505H29.7034Z" fill="white"/>
<path d="M33.6354 46.2168C36.0361 46.4412 37.5169 47.5854 37.6067 50.1096C37.6908 52.4991 35.9127 54.2828 33.5176 54.165C31.0271 54.0416 29.7314 52.6112 29.7314 50.1656C29.7314 47.6527 31.2347 46.4692 33.6298 46.2224L33.6354 46.2168Z" fill="white"/>
</g>
<defs>
<clipPath id="clip0_17_859">
<rect width="67" height="62" fill="white"/>
</clipPath>
</defs>
</svg>
