<svg width="500" height="500" viewBox="0 0 500 500" fill="none" xmlns="http://www.w3.org/2000/svg">
<mask id="mask0_19_4678" style="mask-type:luminance" maskUnits="userSpaceOnUse" x="46" y="0" width="408" height="500">
<path d="M453.015 0H46.666V500H453.015V0Z" fill="white"/>
</mask>
<g mask="url(#mask0_19_4678)">
<path d="M386.036 265.129C386.737 340.651 452.288 365.783 453.015 366.103C452.461 367.875 442.541 401.917 418.48 437.081C397.68 467.482 376.091 497.771 342.085 498.4C308.669 499.014 297.925 478.584 259.722 478.584C221.529 478.584 209.591 497.771 177.96 499.014C145.134 500.257 120.138 466.141 99.165 435.851C56.3093 373.894 23.5587 260.771 67.5346 184.413C89.3807 146.493 128.422 122.481 170.797 121.865C203.031 121.25 233.456 143.551 253.161 143.551C272.853 143.551 309.826 116.733 348.695 120.671C364.966 121.348 410.641 127.244 439.969 170.173C437.606 171.638 385.469 201.989 386.036 265.129ZM323.236 79.6805C340.663 58.5854 352.393 29.2192 349.193 0C324.072 1.0096 293.698 16.7394 275.679 37.8229C259.531 56.4932 245.39 86.3762 249.206 115.017C277.204 117.183 305.807 100.789 323.236 79.6805Z" fill="white"/>
</g>
</svg>
