<svg width="256" height="315" viewBox="0 0 256 315" fill="none" xmlns="http://www.w3.org/2000/svg">
<g clip-path="url(#clip0_17_869)">
<mask id="mask0_17_869" style="mask-type:luminance" maskUnits="userSpaceOnUse" x="0" y="0" width="256" height="315">
<path d="M256 0H0V315H256V0Z" fill="white"/>
</mask>
<g mask="url(#mask0_17_869)">
<path d="M213.803 167.031C214.245 214.61 255.542 230.443 256 230.645C255.651 231.761 249.401 253.208 234.243 275.361C221.139 294.514 207.538 313.596 186.114 313.992C165.062 314.379 158.293 301.508 134.225 301.508C110.164 301.508 102.643 313.596 82.7151 314.379C62.035 315.162 46.2874 293.669 33.0744 274.586C6.07528 235.553 -14.5576 164.286 13.1472 116.18C26.9103 92.2909 51.5061 77.163 78.2026 76.7751C98.5099 76.3877 117.678 90.4372 130.092 90.4372C142.498 90.4372 165.791 73.5415 190.278 76.0229C200.529 76.4495 229.304 80.1637 247.781 107.209C246.292 108.132 213.446 127.253 213.803 167.031ZM174.239 50.1987C185.218 36.9088 192.608 18.4081 190.592 0C174.766 0.63605 155.63 10.5458 144.278 23.8284C134.105 35.5907 125.196 54.417 127.6 72.4608C145.239 73.8255 163.259 63.497 174.239 50.1987Z" fill="white"/>
</g>
</g>
<defs>
<clipPath id="clip0_17_869">
<rect width="256" height="315" fill="white"/>
</clipPath>
</defs>
</svg>
