<svg width="500" height="500" viewBox="0 0 500 500" fill="none" xmlns="http://www.w3.org/2000/svg">
<g clip-path="url(#clip0_19_5165)">
<path d="M444.673 412.685C430.854 425.46 424.824 431.093 416.231 439.091C367.136 389.75 318.543 340.962 265.477 287.597V500H235.93V287.697C183.317 341.364 135.176 390.554 84.3216 442.461C74.8241 431.898 68.9447 425.36 62.7638 418.469C112.412 368.977 160.854 320.642 209.347 272.357C208.442 270.244 207.538 268.182 206.683 266.07H0V235.289H214.221C159.749 181.672 110.653 133.337 59.8995 83.3925C69.4472 75.1941 76.1809 69.4603 82.7136 63.8271C131.407 112.716 179.799 161.201 228.141 209.737C230.05 208.933 231.96 208.128 233.869 207.323V0H264.523V209.436C316.03 157.48 363.97 109.044 413.367 59.2501C423.568 68.4544 430.05 74.3386 436.633 80.2736C386.784 129.715 337.789 178.352 288.794 226.989C290.151 229.403 291.457 231.818 292.814 234.232H500V263.857H292.462C343.869 314.104 392.915 362.036 444.673 412.635V412.685Z" fill="white"/>
</g>
<defs>
<clipPath id="clip0_19_5165">
<rect width="500" height="500" fill="white"/>
</clipPath>
</defs>
</svg>
