<svg width="57" height="96" viewBox="0 0 57 96" fill="none" xmlns="http://www.w3.org/2000/svg">
<g clip-path="url(#clip0_17_875)">
<path d="M0 80.1595C3.19 74.4595 8.11 71.9595 14.53 72.1095C18.25 72.1995 21.97 72.1295 26.23 72.1295V0.479492C44.21 0.499492 57.53 11.8195 56.69 26.6395C48.16 25.5895 39.65 24.5495 30.5 23.4295C30.5 25.8695 30.5 27.9595 30.5 30.0495C30.5 46.0395 30.5 62.0195 30.5 78.0095C30.5 88.0895 27.74 93.3695 20.77 94.5595C11.99 96.0595 4.44 95.6095 0 86.1095V80.1695V80.1595ZM25.26 76.8995C20.14 77.2895 15.1 77.2195 10.31 78.2895C8.46 78.6995 5.94 81.7195 5.97 83.5195C6 85.4095 8.36 88.1995 10.33 88.9495C19.64 92.4995 25.03 88.4895 25.27 76.9095L25.26 76.8995ZM31.75 6.64949V18.0495C37.95 18.8495 44.04 19.6295 51.07 20.5295C47.35 11.0795 39.74 8.98949 31.75 6.64949Z" fill="white"/>
</g>
<defs>
<clipPath id="clip0_17_875">
<rect width="57" height="96" fill="white"/>
</clipPath>
</defs>
</svg>
