<svg width="500" height="500" viewBox="0 0 500 500" fill="none" xmlns="http://www.w3.org/2000/svg">
<g clip-path="url(#clip0_3_497)">
<g clip-path="url(#clip1_3_497)">
<mask id="mask0_3_497" style="mask-type:luminance" maskUnits="userSpaceOnUse" x="0" y="0" width="500" height="500">
<path d="M500 0H0V500H500V0Z" fill="white"/>
</mask>
<g mask="url(#mask0_3_497)">
<path d="M251.111 0.0736536C389.701 2.94669 501.532 110.355 499.984 254.45C498.51 389.704 388.595 501.459 246.024 499.986C113.847 498.66 -1.96512 389.704 0.0252841 246.641C1.94199 111.534 110.529 1.25236 251.111 0V0.0736536ZM401.275 82.14C348.566 34.5503 288.412 15.6913 222.139 25.1208C121.292 39.4125 55.5353 98.8627 29.0704 196.547C8.7241 271.762 28.923 339.905 80.8945 402.228C188.597 295.557 294.162 189.916 401.275 82.14ZM102.863 419.908C126.747 453.206 218.969 493.797 303.598 471.55C386.237 449.744 459.218 384.769 474.92 283.622C485.535 215.258 466.663 153.598 421.105 102.104C314.14 208.923 209.017 313.9 102.863 419.982V419.908Z" fill="white"/>
</g>
</g>
</g>
<defs>
<clipPath id="clip0_3_497">
<rect width="500" height="500" fill="white"/>
</clipPath>
<clipPath id="clip1_3_497">
<rect width="500" height="500" fill="white"/>
</clipPath>
</defs>
</svg>
