<svg width="500" height="500" viewBox="0 0 500 500" fill="none" xmlns="http://www.w3.org/2000/svg">
<path d="M140.062 273.357C140.062 212.31 140.062 151.193 140.062 90.1453C140.062 66.4241 153.215 51.7029 176.652 50.5866C187.007 50.0983 192.114 46.261 195.892 36.7725C205.267 13.4698 224.507 0.35337 248.364 0.00452826C272.361 -0.274545 291.95 12.3535 301.465 35.726C305.523 45.6331 310.42 50.168 321.684 50.6564C347.151 51.7029 359.044 65.0287 359.114 90.9128C359.184 213.635 359.184 336.358 359.114 459.081C359.114 483.5 343.653 499.477 319.096 499.686C272.431 500.105 225.766 500.105 179.171 499.686C155.804 499.477 140.132 483.221 140.062 459.988C139.922 397.754 140.062 335.521 140.062 273.287V273.357ZM336.306 275.381C336.306 214.891 336.097 154.472 336.446 93.9826C336.516 79.0522 330.64 73.1218 315.668 73.2614C271.941 73.7498 228.215 73.8195 184.558 73.2614C168.887 73.0521 162.73 78.7033 162.8 94.6803C163.22 214.473 163.15 334.195 162.8 453.988C162.8 470.104 168.257 477.29 185.118 477.081C227.655 476.453 270.192 476.942 312.729 476.802C332.738 476.802 336.167 473.314 336.167 453.36C336.306 394.057 336.167 334.753 336.167 275.45L336.306 275.381ZM218.7 48.4238H280.057C274.95 29.5863 262.146 22.3304 247.175 23.1676C234.092 23.8653 221.918 30.7724 218.7 48.4238Z" fill="#EB5445"/>
</svg>
