<svg width="92" height="115" viewBox="0 0 92 115" fill="none" xmlns="http://www.w3.org/2000/svg">
<path d="M30.0899 62.4404C30.0899 53.6904 30.0899 44.9304 30.0899 36.1804C30.0899 32.7804 31.9699 30.6704 35.3199 30.5104C36.7999 30.4404 37.5299 29.8904 38.0699 28.5304C39.4099 25.1904 42.1599 23.3104 45.5699 23.2604C48.9999 23.2204 51.7999 25.0304 53.1599 28.3804C53.7399 29.8004 54.4399 30.4504 56.0499 30.5204C59.6899 30.6704 61.3899 32.5804 61.3999 36.2904C61.4099 53.8804 61.4099 71.4704 61.3999 89.0604C61.3999 92.5604 59.1899 94.8504 55.6799 94.8804C49.0099 94.9404 42.3399 94.9404 35.6799 94.8804C32.3399 94.8504 30.0999 92.5204 30.0899 89.1904C30.0699 80.2704 30.0899 71.3504 30.0899 62.4304V62.4404ZM58.1399 62.7304C58.1399 54.0604 58.1099 45.4004 58.1599 36.7304C58.1699 34.5904 57.3299 33.7404 55.1899 33.7604C48.9399 33.8304 42.6899 33.8404 36.4499 33.7604C34.2099 33.7304 33.3299 34.5404 33.3399 36.8304C33.3999 54.0004 33.3899 71.1604 33.3399 88.3304C33.3399 90.6404 34.1199 91.6704 36.5299 91.6404C42.6099 91.5504 48.6899 91.6204 54.7699 91.6004C57.6299 91.6004 58.1199 91.1004 58.1199 88.2404C58.1399 79.7404 58.1199 71.2404 58.1199 62.7404L58.1399 62.7304ZM41.3299 30.2004H50.0999C49.3699 27.5004 47.5399 26.4604 45.3999 26.5804C43.5299 26.6804 41.7899 27.6704 41.3299 30.2004Z" fill="#75F95C"/>
<path d="M58.14 62.7308C58.14 71.2308 58.15 79.7308 58.14 88.2308C58.14 91.1008 57.65 91.5808 54.79 91.5908C48.71 91.6108 42.63 91.5308 36.55 91.6308C34.13 91.6708 33.35 90.6408 33.36 88.3208C33.41 71.1508 33.41 53.9908 33.36 36.8208C33.36 34.5308 34.24 33.7208 36.47 33.7508C42.72 33.8308 48.97 33.8208 55.21 33.7508C57.35 33.7308 58.19 34.5808 58.18 36.7208C58.12 45.3908 58.16 54.0508 58.16 62.7208L58.14 62.7308Z" fill="#75F95C"/>
</svg>
