<svg width="500" height="500" viewBox="0 0 500 500" fill="none" xmlns="http://www.w3.org/2000/svg">
<path d="M140.896 273.357C140.896 212.31 140.896 151.193 140.896 90.1453C140.896 66.4241 154.012 51.7029 177.385 50.5866C187.711 50.0983 192.804 46.261 196.571 36.7725C205.92 13.4698 225.106 0.35337 248.898 0.00452826C272.828 -0.274545 292.363 12.3535 301.852 35.726C305.898 45.6331 310.782 50.168 322.015 50.6564C347.411 51.7029 359.271 65.0287 359.341 90.9128C359.411 213.635 359.411 336.358 359.341 459.081C359.341 483.5 343.922 499.477 319.433 499.686C272.898 500.105 226.362 500.105 179.897 499.686C156.594 499.477 140.966 483.221 140.896 459.988C140.756 397.754 140.896 335.521 140.896 273.287V273.357ZM336.596 275.381C336.596 214.891 336.387 154.472 336.736 93.9826C336.806 79.0522 330.945 73.1218 316.015 73.2614C272.409 73.7498 228.804 73.8195 185.269 73.2614C169.641 73.0521 163.501 78.7033 163.571 94.6803C163.989 214.473 163.92 334.195 163.571 453.988C163.571 470.104 169.013 477.29 185.827 477.081C228.246 476.453 270.665 476.942 313.084 476.802C333.038 476.802 336.457 473.314 336.457 453.36C336.596 394.057 336.457 334.753 336.457 275.45L336.596 275.381ZM219.316 48.4238H280.503C275.41 29.5863 262.642 22.3304 247.711 23.1676C234.665 23.8653 222.525 30.7724 219.316 48.4238Z" fill="#75F95C"/>
<path d="M336.596 275.383C336.596 334.686 336.666 393.99 336.596 453.293C336.596 473.316 333.177 476.665 313.223 476.735C270.804 476.874 228.385 476.316 185.966 477.014C169.082 477.293 163.64 470.107 163.71 453.921C164.058 334.128 164.058 214.406 163.71 94.6132C163.71 78.6362 169.849 72.985 185.408 73.1943C229.013 73.7524 272.618 73.6827 316.154 73.1943C331.084 73.0548 336.945 78.9851 336.875 93.9155C336.456 154.405 336.735 214.824 336.735 275.313L336.596 275.383Z" fill="#75F95C"/>
</svg>
