<svg width="768" height="332" viewBox="0 0 768 332" fill="none" xmlns="http://www.w3.org/2000/svg">
<g clip-path="url(#clip0_17_892)">
<path d="M80.8099 28C80.0199 28 80.0199 28.4 79.6299 28.79C45.3599 76.63 25.2699 108.39 3.98993 147.61L1.62993 151.92L1.22993 153.49C-0.740075 157.42 -0.350075 161.72 2.40993 165.25C15.0099 184.86 85.5299 207.99 242.72 207.99C360.12 207.99 485 189.17 485 153.88C485 120.54 362.09 100.55 242.72 100.55C202.93 100.55 163.93 105.65 152.9 107.61C163.54 91.14 208.45 31.13 208.45 30.75C208.977 30.23 209.24 29.8367 209.24 29.57V28.79C208.45 28.4 208.06 28 207.27 28H80.8199H80.8099ZM126.51 153.88C126.51 146.82 171.03 136.63 242.73 136.63C314.43 136.63 358.55 146.82 358.55 153.88C358.55 161.72 314.43 171.53 242.73 171.53C171.03 171.53 126.51 161.73 126.51 153.88Z" fill="white"/>
<path d="M170.15 331.3C190.23 331.7 755.22 351.41 767.82 150.67C778.04 -15.3804 362.28 0.399568 362.28 0.399568C361.5 0.399568 358.74 0.399568 358.74 2.36957C358.74 4.73957 359.92 5.13957 361.5 5.13957C476.85 5.13957 664.27 51.2796 658.36 150.67C653.63 231.13 507.17 325.78 170.15 325.78C168.58 325.78 167 327.36 167 328.54C167 329.73 168.18 330.91 170.15 331.3Z" fill="white"/>
</g>
<defs>
<clipPath id="clip0_17_892">
<rect width="768" height="332" fill="white"/>
</clipPath>
</defs>
</svg>
