<svg width="500" height="500" viewBox="0 0 500 500" fill="none" xmlns="http://www.w3.org/2000/svg">
<path d="M81.666 294.184C131.175 228.768 180.967 163.588 230.005 97.8415C253.959 65.7461 276.596 32.6609 299.845 0C301.398 0 302.951 0 304.504 0C295.892 67.6313 287.232 135.31 278.385 204.779H417.499C342.2 305.872 269.866 402.96 197.579 500C196.215 499.529 194.803 499.01 193.438 498.539C205.156 432.887 216.828 367.235 229.017 298.897H81.666C81.666 297.342 81.666 295.787 81.666 294.231V294.184ZM249.206 228.297C255.277 182.958 260.972 140.07 267.654 90.2064C219.887 154.444 176.072 213.451 128.869 276.982H258.383C251.324 317.655 244.688 356.066 238.005 394.524C239.7 395.23 241.394 395.89 243.088 396.597C283.844 341.927 324.552 287.256 368.461 228.344H249.206V228.297Z" fill="white"/>
</svg>
