<svg width="500" height="500" viewBox="0 0 500 500" fill="none" xmlns="http://www.w3.org/2000/svg">
<g clip-path="url(#clip0_19_4977)">
<path d="M250.044 375.531C183.633 378.431 122.583 318.75 123.858 247.906C125.088 179.655 182.402 126.478 243.891 124.06C320.763 121.028 372.978 184.005 375.747 243.291C379.351 320.288 314.566 378.299 250.044 375.531ZM353.2 250.015C353.156 193.234 307.182 147.045 250.528 146.606C193.214 146.166 145.702 193.103 146.273 249.971C146.888 309.081 192.511 353.908 250.264 353.688C307.402 353.469 352.628 308.686 353.244 250.015H353.2Z" fill="white"/>
<path d="M148.426 134.475C138.889 149.329 137.263 149.549 126.45 138.65C108.694 120.807 91.0689 102.876 73.1363 85.2529C68.1258 80.3307 66.5435 76.9907 72.4771 71.1456C78.2348 65.4324 81.3115 67.8056 85.7067 72.1564C106.408 92.8998 127.285 113.467 148.426 134.431V134.475Z" fill="white"/>
<path d="M362.693 349.909C385.592 372.63 406.777 393.901 428.27 414.82C432.357 418.819 432.797 421.588 428.665 425.5C424.842 429.103 421.194 433.322 415.875 428.049C395.657 408.008 375.132 388.276 355.661 367.576C347.046 358.435 359.836 356.457 362.693 349.909Z" fill="white"/>
<path d="M258.482 99.6248H242V0.390342C252.959 -1.39702 258.453 2.95381 258.482 13.4429C258.482 41.8332 258.482 70.1797 258.482 99.6687V99.6248Z" fill="white"/>
<path d="M400.096 257.486V242.016H499.999V257.486H400.096Z" fill="white"/>
<path d="M432.489 78.0452C430.379 80.6381 428.402 83.6705 425.94 86.1316C407.612 104.59 389.24 122.96 370.736 141.242C366.737 145.198 363.264 149.768 356.628 142.693C350.782 136.452 352.672 133.288 357.463 128.541C375.307 110.918 392.932 93.0314 410.733 75.3204C417.941 68.1424 425.193 69.0508 432.489 78.0452Z" fill="white"/>
<path d="M98.4969 257.838H0V241.181C18.0204 241.181 35.4694 241.181 52.9624 241.181C63.5549 241.181 74.1474 241.181 84.7838 241.181C95.3324 241.181 99.9034 246.733 98.4969 257.838Z" fill="white"/>
<path d="M257.78 499.859H242.045V400.889H257.78V499.859Z" fill="white"/>
<path d="M135.109 350.744C149.438 360.412 149.701 362.258 139.241 372.718C121.616 390.341 103.947 407.876 86.3663 425.543C81.8832 430.026 78.2791 432.663 72.1258 426.554C65.8406 420.313 68.7415 417.325 73.4004 412.667C94.014 392.275 114.408 371.575 135.153 350.744H135.109Z" fill="white"/>
</g>
<defs>
<clipPath id="clip0_19_4977">
<rect width="500" height="500" fill="white"/>
</clipPath>
</defs>
</svg>
