<svg width="500" height="500" viewBox="0 0 500 500" fill="none" xmlns="http://www.w3.org/2000/svg">
<g clip-path="url(#clip0_19_4962)">
<path d="M376.192 250.382C376.192 320.129 319.963 376.221 250.559 375.986C179.391 375.75 123.751 315.774 125.692 248.381C127.692 179.223 181.274 124.544 251.148 124.602C320.787 124.602 376.251 180.4 376.251 250.441L376.192 250.382ZM147.16 250.382C147.16 307.357 193.096 353.619 250.148 354.208C307.023 354.797 355.077 307.122 355.018 250.088C355.018 193.761 307.612 146.262 251.324 146.086C193.801 145.909 147.101 192.642 147.101 250.323L147.16 250.382Z" fill="white"/>
<path d="M362.428 146.439C359.605 143.32 356.547 139.965 353.547 136.727C376.956 113.42 399.247 91.1712 422.656 67.8046C425.715 70.5709 429.067 73.6315 432.773 76.9864C409.305 100.177 386.719 122.484 362.487 146.439H362.428Z" fill="white"/>
<path d="M77.8729 430.9C74.9909 427.781 71.8148 424.367 68.6387 421.012C91.93 397.999 114.398 375.809 138.16 352.384C140.924 354.915 144.63 358.211 148.57 361.742C124.809 384.991 102.164 407.181 77.8729 430.959V430.9Z" fill="white"/>
<path d="M99.2824 242.849V257.975H1.29397C0.882251 253.149 0.470533 248.558 0 242.849H99.3412H99.2824Z" fill="white"/>
<path d="M243.619 401.295H258.147V500H243.619V401.295Z" fill="white"/>
<path d="M257.911 99.176H243.736V0.647432C248.324 0.470857 252.618 0.235433 257.911 0V99.176Z" fill="white"/>
<path d="M499.941 242.672V257.857H401.953C401.658 252.796 401.364 248.205 401.07 242.672H500H499.941Z" fill="white"/>
<path d="M147.629 138.14C145.159 140.377 141.747 143.437 137.983 146.91C115.103 123.19 92.8708 100.176 69.7559 76.1623C71.9909 74.1023 75.4022 70.9828 79.4018 67.3336C102.046 90.818 123.926 113.537 147.688 138.14H147.629Z" fill="white"/>
<path d="M432.95 420.541C429.48 424.426 426.421 427.898 422.951 431.783C400.072 408.181 378.192 385.638 354.9 361.624C356.724 359.329 359.841 355.503 363.252 351.324C387.014 374.926 409.6 397.41 432.95 420.6V420.541Z" fill="white"/>
<path d="M249.617 159.152V341.436C199.447 344.497 158.922 302.825 157.805 250.088C156.687 194.703 208.916 153.208 249.617 159.152Z" fill="white"/>
</g>
<defs>
<clipPath id="clip0_19_4962">
<rect width="500" height="500" fill="white"/>
</clipPath>
</defs>
</svg>
