<svg width="128" height="101" viewBox="0 0 128 101" fill="none" xmlns="http://www.w3.org/2000/svg">
<path d="M72.81 70.6895C61.75 70.9995 51.2 61.0895 51.62 48.6295C51.98 37.9795 61.57 27.9095 73.45 28.1995C83.83 28.4595 94.55 37.5795 94.16 50.2795C93.82 61.3495 84.3 70.7195 72.81 70.6895ZM72.9 31.8795C63.25 31.8795 55.32 39.7295 55.31 49.3195C55.3 59.0695 63.23 67.1295 72.85 67.1495C82.27 67.1595 90.5 58.9895 90.52 49.5995C90.54 39.9195 82.56 31.8895 72.9 31.8795Z" fill="white"/>
<path d="M42.0601 20.0197C42.5201 19.5497 43.0801 18.9897 43.6301 18.4297C47.6601 22.4897 51.4901 26.3297 55.4601 30.3297C55.0201 30.8097 54.4901 31.3997 53.9701 31.9697C49.9701 27.9597 46.1101 24.0897 42.0601 20.0197Z" fill="white"/>
<path d="M74.1601 75.1094V91.5994H71.6201V75.1094H74.1601Z" fill="white"/>
<path d="M74.0801 23.8396H71.6401V7.13965H74.0801V23.8296V23.8396Z" fill="white"/>
<path d="M90.1802 68.3893C90.8802 67.7293 91.3902 67.2493 91.9302 66.7393C95.7902 70.7093 99.5102 74.5293 103.44 78.5693C103.13 78.8893 102.56 79.4993 101.97 80.1293C98.0002 76.1693 94.2202 72.4093 90.1802 68.3893Z" fill="white"/>
<path d="M91.4699 31.6495C91.2999 31.4495 90.7899 30.8695 90.1499 30.1395C94.1499 26.3195 98.0399 22.5895 102.33 18.4795C102.57 18.8595 103 19.5295 103.48 20.2695C99.6099 23.9295 95.6899 27.6395 91.4599 31.6495H91.4699Z" fill="white"/>
<path d="M53.67 66.71C54.3 67.24 54.89 67.74 55.45 68.21C51.48 72.23 47.68 76.07 43.76 80.03C43.18 79.52 42.6 79 41.98 78.46C45.94 74.47 49.74 70.65 53.66 66.71H53.67Z" fill="white"/>
<path d="M30.52 50.6193V48.2793H47.2V50.6193H30.52Z" fill="white"/>
<path d="M115.06 48.29V50.65H98.4501C98.4101 49.9 98.3701 49.2 98.3301 48.29H115.07H115.06Z" fill="white"/>
<path d="M57.1501 49.3292C56.8001 40.9492 64.6601 33.2792 73.4301 33.7192C81.8301 34.1392 88.6401 40.8592 88.6601 49.4992C88.6901 58.0792 81.5301 65.3592 72.9101 65.2892C64.1601 65.2192 56.8601 58.2392 57.1401 49.3292H57.1501Z" fill="white"/>
</svg>
