<svg width="162" height="161" viewBox="0 0 162 161" fill="none" xmlns="http://www.w3.org/2000/svg">
<path d="M83.4503 117.68C68.3403 118.34 54.4503 104.76 54.7403 88.6395C55.0203 73.1095 68.0603 61.0095 82.0503 60.4595C99.5403 59.7695 111.42 74.0995 112.05 87.5895C112.87 105.11 98.1303 118.31 83.4503 117.68ZM106.92 89.1195C106.91 76.1995 96.4503 65.6895 83.5603 65.5895C70.5203 65.4895 59.7103 76.1695 59.8403 89.1095C59.9803 102.56 70.3603 112.76 83.5003 112.71C96.5003 112.66 106.79 102.47 106.93 89.1195H106.92Z" fill="white"/>
<path d="M60.3301 62.8296C58.1601 66.2096 57.7901 66.2596 55.3301 63.7796C51.2901 59.7196 47.2801 55.6396 43.2001 51.6296C42.0601 50.5096 41.7001 49.7496 43.0501 48.4196C44.3601 47.1196 45.0601 47.6596 46.0601 48.6496C50.7701 53.3696 55.5201 58.0496 60.3301 62.8196V62.8296Z" fill="white"/>
<path d="M109.08 111.85C114.29 117.02 119.11 121.86 124 126.62C124.93 127.53 125.03 128.16 124.09 129.05C123.22 129.87 122.39 130.83 121.18 129.63C116.58 125.07 111.91 120.58 107.48 115.87C105.52 113.79 108.43 113.34 109.08 111.85Z" fill="white"/>
<path d="M85.3701 54.9003H81.6201V32.3203C84.1135 31.9136 85.3635 32.9036 85.3701 35.2903C85.3701 41.7503 85.3701 48.2003 85.3701 54.9103V54.9003Z" fill="white"/>
<path d="M117.59 90.8198V87.2998H140.32V90.8198H117.59Z" fill="white"/>
<path d="M124.96 49.9896C124.48 50.5796 124.03 51.2696 123.47 51.8296C119.3 56.0296 115.12 60.2096 110.91 64.3696C110 65.2696 109.21 66.3096 107.7 64.6996C106.37 63.2796 106.8 62.5596 107.89 61.4796C111.95 57.4696 115.96 53.3996 120.01 49.3696C121.65 47.7363 123.3 47.943 124.96 49.9896Z" fill="white"/>
<path d="M48.9701 90.9004H26.5601V87.1104C30.6601 87.1104 34.6301 87.1104 38.6101 87.1104C41.0201 87.1104 43.4301 87.1104 45.8501 87.1104C48.2501 87.1104 49.2901 88.3737 48.9701 90.9004Z" fill="white"/>
<path d="M85.2099 145.97H81.6299V123.45H85.2099V145.97Z" fill="white"/>
<path d="M57.3003 112.04C60.5603 114.24 60.6203 114.66 58.2403 117.04C54.2303 121.05 50.2103 125.04 46.2103 129.06C45.1903 130.08 44.3703 130.68 42.9703 129.29C41.5403 127.87 42.2003 127.19 43.2603 126.13C47.9503 121.49 52.5903 116.78 57.3103 112.04H57.3003Z" fill="white"/>
</svg>
