<svg width="500" height="500" viewBox="0 0 500 500" fill="none" xmlns="http://www.w3.org/2000/svg">
<g clip-path="url(#clip0_19_4988)">
<path d="M250.088 376.83C184.683 378.66 122.294 320.157 124.778 246.6C126.907 183.729 183.619 124.281 253.873 125.993C315.257 127.528 378.651 181.367 376.345 256.341C374.334 321.692 318.036 377.007 250.088 376.83ZM250.621 147.718C193.554 147.718 146.658 194.06 146.599 250.674C146.54 308.232 193.435 355.814 250.325 355.932C306.031 355.991 354.701 307.76 354.819 252.327C354.937 195.181 307.746 147.777 250.621 147.718Z" fill="white"/>
<path d="M68.2432 77.7029C70.9634 74.9283 74.2751 71.6223 77.5276 68.3164C101.36 92.2844 124.009 114.954 147.486 138.567C144.884 141.401 141.75 144.884 138.675 148.249C115.02 124.576 92.1935 101.73 68.2432 77.7029Z" fill="white"/>
<path d="M258.072 402.923V500.271H243.052V402.923H258.072Z" fill="white"/>
<path d="M257.599 100.254H243.17V1.66675H257.599V100.195V100.254Z" fill="white"/>
<path d="M352.809 363.252C356.948 359.356 359.964 356.522 363.157 353.512C385.984 376.948 407.983 399.499 431.224 423.349C429.391 425.238 426.02 428.839 422.531 432.559C399.053 409.181 376.7 386.984 352.809 363.252Z" fill="white"/>
<path d="M360.438 146.36C359.433 145.179 356.417 141.755 352.632 137.446C376.286 114.895 399.291 92.8747 424.66 68.6116C426.079 70.8549 428.622 74.8102 431.461 79.1787C408.575 100.785 385.393 122.687 360.379 146.36H360.438Z" fill="white"/>
<path d="M136.901 353.334C140.627 356.463 144.116 359.415 147.428 362.19C123.95 385.921 101.478 408.591 78.2968 431.968C74.8669 428.958 71.437 425.888 67.7705 422.7C91.1886 399.145 113.661 376.594 136.842 353.334H136.901Z" fill="white"/>
<path d="M0 258.348V244.534H98.6399V258.348H0Z" fill="white"/>
<path d="M499.941 244.593V258.525H401.715C401.479 254.098 401.242 249.965 401.006 244.593H500.001H499.941Z" fill="white"/>
<path d="M157.481 250.733C155.411 201.262 201.893 155.982 253.756 158.58C303.43 161.059 343.702 200.73 343.821 251.736C343.998 302.388 301.656 345.365 250.681 344.951C198.936 344.538 155.766 303.332 157.422 250.733H157.481Z" fill="white"/>
</g>
<defs>
<clipPath id="clip0_19_4988">
<rect width="500" height="500" fill="white"/>
</clipPath>
</defs>
</svg>
