<svg width="142" height="138" viewBox="0 0 142 138" fill="none" xmlns="http://www.w3.org/2000/svg">
<path d="M97.0198 65.32C102.31 62.15 107.32 59.53 111.88 56.28C115.74 53.53 119.77 53.82 124.19 54.06V93.2C118.9 94.7 114.55 92.8 110.28 89.94C106.16 87.19 101.8 84.8 97.2698 82.08C97.1698 82.98 97.0398 83.59 97.0398 84.19C97.0198 87.77 97.0598 91.35 97.0198 94.93C96.9898 97.89 95.3199 99.62 92.4099 99.62C76.1699 99.64 59.9298 99.64 43.6898 99.62C40.5498 99.62 38.9598 98 38.9598 94.84C38.9398 80.77 38.9398 66.69 38.9598 52.62C38.9598 49.47 40.5598 47.86 43.7098 47.85C59.8698 47.83 76.0198 47.83 92.1798 47.85C95.4098 47.85 97.0098 49.52 97.0298 52.81C97.0498 56.8 97.0298 60.79 97.0298 65.31L97.0198 65.32ZM68.0798 51.73C60.6598 51.73 53.2498 51.77 45.8298 51.7C43.8898 51.68 42.9598 52.18 42.9698 54.36C43.0498 67.27 43.0398 80.19 42.9698 93.1C42.9698 95.08 43.7098 95.74 45.5998 95.73C60.4298 95.69 75.2598 95.69 90.0898 95.73C92.1998 95.73 92.9798 95.02 92.9698 92.81C92.8798 80.06 92.8798 67.31 92.9698 54.57C92.9898 52.34 92.1898 51.66 90.0598 51.68C82.7298 51.76 75.3998 51.71 68.0598 51.71L68.0798 51.73ZM120.22 89.81V57.59C118.61 58.09 117.2 58.26 116.06 58.92C110.91 61.92 105.98 65.34 100.68 68.05C97.4398 69.71 96.4398 71.89 97.0598 75.12C97.2298 76.02 97.7598 77.15 98.4898 77.61C104.51 81.4 110.6 85.1 116.73 88.73C117.66 89.28 118.84 89.4 120.22 89.81Z" fill="white"/>
</svg>
