<svg width="500" height="500" viewBox="0 0 500 500" fill="none" xmlns="http://www.w3.org/2000/svg">
<path d="M340.635 200.891C371.664 182.297 401.05 166.93 427.796 147.867C450.437 131.737 474.075 133.438 500 134.846V364.419C468.972 373.217 443.457 362.073 418.412 345.298C394.246 329.168 368.673 315.149 342.102 299.196C341.515 304.474 340.753 308.052 340.753 311.572C340.635 332.57 340.87 353.568 340.635 374.566C340.459 391.928 330.665 402.075 313.596 402.075C218.342 402.193 123.086 402.193 27.8315 402.075C9.41403 402.075 0.0879816 392.573 0.0879816 374.038C-0.0293272 291.512 -0.0293272 208.926 0.0879816 126.4C0.0879816 107.923 9.47268 98.4801 27.9488 98.4215C122.734 98.3042 217.461 98.3042 312.247 98.4215C331.192 98.4215 340.577 108.217 340.694 127.514C340.811 150.917 340.694 174.32 340.694 200.832L340.635 200.891ZM170.89 121.179C127.368 121.179 83.9051 121.414 40.3835 121.003C29.0046 120.886 23.5497 123.819 23.6084 136.606C24.0776 212.328 24.019 288.11 23.6084 363.833C23.6084 375.446 27.9488 379.317 39.0345 379.259C126.019 379.024 213.003 379.024 299.988 379.259C312.364 379.259 316.939 375.094 316.88 362.132C316.352 287.347 316.352 212.563 316.88 137.837C316.998 124.757 312.305 120.769 299.812 120.886C256.818 121.355 213.825 121.062 170.772 121.062L170.89 121.179ZM476.714 344.535V155.551C467.271 158.484 459.001 159.481 452.314 163.352C422.107 180.948 393.19 201.008 362.103 216.903C343.099 226.64 337.233 239.427 340.87 258.372C341.867 263.651 344.976 270.279 349.258 272.977C384.568 295.207 420.289 316.909 456.244 338.201C461.699 341.427 468.62 342.13 476.714 344.535Z" fill="white"/>
</svg>
