<svg width="500" height="500" viewBox="0 0 500 500" fill="none" xmlns="http://www.w3.org/2000/svg">
<path d="M0 51.4056V22.5974C21.3471 22.5974 42.2796 22.1829 63.1604 23.0638C66.0619 23.1674 69.8961 28.9705 71.2951 32.8047C81.8131 61.4056 81.6577 61.4574 111.399 61.4574C235.284 61.4574 359.17 61.4574 483.107 61.4574C488.133 61.4574 493.211 61.4574 499.065 61.4574C499.325 66.9496 499.687 71.1465 499.687 75.3434C499.687 137.312 499.376 199.28 499.998 261.197C500.102 273.58 495.957 276.845 484.091 278.141C436.268 283.218 388.651 289.695 340.931 295.343C319.688 297.881 298.289 299.384 277.046 301.975C236.735 306.845 196.32 311.145 156.269 317.622C124.818 322.699 100.207 344.202 87.3054 374.669H498.599V403.84H55.9065C48.0309 370.161 68.1863 327.881 101.865 307.519C106.891 304.513 111.968 301.094 117.461 299.539C129.378 296.068 128.29 288.089 125.284 279.539C101.813 212.493 78.3417 145.499 54.6112 78.6076C44.9739 51.4056 44.7149 51.5092 16.5803 51.4574C11.5026 51.4574 6.37303 51.4574 0 51.4574V51.4056ZM91.295 91.3018C93.7302 97.2604 95.5955 101.354 97.0981 105.55C116.735 161.561 136.632 217.467 155.543 273.788C158.704 283.218 162.642 284.41 171.191 283.425C220.206 277.778 269.325 272.648 318.393 267.311C334.558 265.549 350.724 263.632 366.89 261.56C389.739 258.658 412.589 255.602 435.491 252.597C446.734 251.146 458.029 249.695 468.91 248.296V91.3018H91.295Z" fill="white"/>
<path d="M491.242 447.828C491.346 464.564 479.429 476.947 462.9 477.362C445.128 477.828 431.242 463.787 431.709 447.051C432.175 429.745 443.678 418.088 462.227 417.621C479.74 417.155 491.138 429.59 491.242 447.828Z" fill="white"/>
<path d="M90.1037 477.362C73.5752 477.673 59.3784 464.201 59.0675 447.777C58.7566 431.611 72.9017 417.416 89.3265 417.364C106.321 417.364 119.119 430.315 119.275 447.725C119.43 463.839 106.425 476.999 90.0519 477.31L90.1037 477.362Z" fill="white"/>
</svg>
