<svg width="500" height="500" viewBox="0 0 500 500" fill="none" xmlns="http://www.w3.org/2000/svg">
<g clip-path="url(#clip0_19_4808)">
<path d="M0.0216109 250.556C-1.80564 114.231 112.473 -2.56329 254.879 0.0427917C386.95 2.46914 502.127 112.075 499.97 255.11C497.993 386.612 387.789 504.605 241.638 500.381C111.724 496.637 -0.966904 388.32 0.0216109 250.556ZM250.715 26.4631C125.533 26.4331 24.2252 126.752 25.6631 252.474C27.071 374.75 124.305 473.272 248.229 474.32C372.332 475.369 472.621 374.93 473.79 252.414C474.988 126.962 371.853 25.6843 250.745 26.4631H250.715Z" fill="white"/>
<path d="M159.951 250.886C156.476 204.696 200.45 159.104 249.307 159.883C299.571 160.692 339.98 199.873 340.07 249.598C340.16 300.102 300.53 340.242 250.535 340.332C199.521 340.392 159.981 301.36 159.951 250.886ZM250.654 186.034C215.847 185.704 185.862 214.551 185.113 249.119C184.364 283.807 214.948 314.9 249.995 315.08C284.054 315.259 313.8 285.304 313.979 250.617C314.159 215.15 285.971 186.363 250.654 186.034Z" fill="white"/>
</g>
<defs>
<clipPath id="clip0_19_4808">
<rect width="500" height="500" fill="white"/>
</clipPath>
</defs>
</svg>
