<svg width="167" height="168" viewBox="0 0 167 168" fill="none" xmlns="http://www.w3.org/2000/svg">
<g clip-path="url(#clip0_17_953)">
<path d="M0.0299195 84.3699C-0.580081 38.8599 37.5699 -0.130129 85.1099 0.739871C129.2 1.54987 167.65 38.1399 166.93 85.8899C166.27 129.79 129.48 169.18 80.6899 167.77C37.3199 166.52 -0.300081 130.36 0.0299195 84.3699ZM83.7199 9.55987C41.9299 9.54987 8.10992 43.0399 8.58992 85.0099C9.05992 125.83 41.5199 158.72 82.8899 159.07C124.32 159.42 157.8 125.89 158.19 84.9899C158.59 43.1099 124.16 9.29987 83.7299 9.55987H83.7199Z" fill="white"/>
<path d="M53.4199 84.48C52.2599 69.06 66.9399 53.84 83.2499 54.1C100.03 54.37 113.52 67.45 113.55 84.05C113.58 100.91 100.35 114.31 83.6599 114.34C66.6299 114.36 53.4299 101.33 53.4199 84.48ZM83.6999 62.83C72.0799 62.72 62.0699 72.35 61.8199 83.89C61.5699 95.47 71.7799 105.85 83.4799 105.91C94.8499 105.97 104.78 95.97 104.84 84.39C104.9 72.55 95.4899 62.94 83.6999 62.83Z" fill="white"/>
</g>
<defs>
<clipPath id="clip0_17_953">
<rect width="167" height="168" fill="white"/>
</clipPath>
</defs>
</svg>
