<svg width="448" height="638" viewBox="0 0 448 638" fill="none" xmlns="http://www.w3.org/2000/svg">
<g clip-path="url(#clip0_17_962)">
<path d="M206.25 368.88H187.5C187.5 376.117 191.666 382.71 198.206 385.815L206.25 368.88ZM93.75 368.88L101.794 385.815C108.334 382.71 112.5 376.117 112.5 368.88H93.75ZM187.5 75V368.88H225V75H187.5ZM150 37.5C170.711 37.5 187.5 54.2895 187.5 75H225C225 33.5786 191.422 0 150 0V37.5ZM112.5 75C112.5 54.2895 129.289 37.5 150 37.5V0C108.578 0 75 33.5786 75 75H112.5ZM112.5 368.88V75H75V368.88H112.5ZM37.5 487.5C37.5 442.65 63.744 403.894 101.794 385.815L85.7062 351.945C35.0707 375.997 0 427.635 0 487.5H37.5ZM150 600C87.8662 600 37.5 549.634 37.5 487.5H0C0 570.341 67.1572 637.5 150 637.5V600ZM262.5 487.5C262.5 549.634 212.134 600 150 600V637.5C232.841 637.5 300 570.341 300 487.5H262.5ZM198.206 385.815C236.257 403.894 262.5 442.65 262.5 487.5H300C300 427.635 264.93 375.997 214.294 351.945L198.206 385.815Z" fill="white"/>
<path d="M150 506.25V431.25" stroke="white" stroke-width="33.3333" stroke-linecap="round" stroke-linejoin="round"/>
<path d="M281.25 318.75H356.25" stroke="white" stroke-width="33.3333" stroke-linecap="round" stroke-linejoin="round"/>
<path d="M281.25 243.75H356.25" stroke="white" stroke-width="33.3333" stroke-linecap="round" stroke-linejoin="round"/>
<path d="M281.25 168.75H356.25" stroke="white" stroke-width="33.3333" stroke-linecap="round" stroke-linejoin="round"/>
<path d="M281.25 93.75H431.25" stroke="white" stroke-width="33.3333" stroke-linecap="round" stroke-linejoin="round"/>
</g>
<defs>
<clipPath id="clip0_17_962">
<rect width="448" height="638" fill="white"/>
</clipPath>
</defs>
</svg>
