<svg width="500" height="500" viewBox="0 0 500 500" fill="none" xmlns="http://www.w3.org/2000/svg">
<path d="M242.599 289.318H227.893C227.893 294.994 231.16 300.165 236.29 302.6L242.599 289.318ZM154.363 289.318L160.672 302.6C165.802 300.165 169.069 294.994 169.069 289.318H154.363ZM227.893 58.8235V289.318H257.305V58.8235H227.893ZM198.481 29.4118C214.725 29.4118 227.893 42.58 227.893 58.8235H257.305C257.305 26.3362 230.969 0 198.481 0V29.4118ZM169.069 58.8235C169.069 42.58 182.237 29.4118 198.481 29.4118V0C165.993 0 139.658 26.3362 139.658 58.8235H169.069ZM169.069 289.318V58.8235H139.658V289.318H169.069ZM110.246 382.353C110.246 347.176 130.829 316.78 160.672 302.6L148.055 276.035C108.34 294.9 80.834 335.4 80.834 382.353H110.246ZM198.481 470.588C149.749 470.588 110.246 431.085 110.246 382.353H80.834C80.834 447.326 133.506 500 198.481 500V470.588ZM286.716 382.353C286.716 431.085 247.214 470.588 198.481 470.588V500C263.454 500 316.128 447.326 316.128 382.353H286.716ZM236.29 302.6C266.134 316.78 286.716 347.176 286.716 382.353H316.128C316.128 335.4 288.622 294.9 248.908 276.035L236.29 302.6Z" fill="white"/>
<path d="M198.48 397.059V338.235" stroke="white" stroke-width="33.3333" stroke-linecap="round" stroke-linejoin="round"/>
<path d="M301.422 250H360.245" stroke="white" stroke-width="33.3333" stroke-linecap="round" stroke-linejoin="round"/>
<path d="M301.422 191.177H360.245" stroke="white" stroke-width="33.3333" stroke-linecap="round" stroke-linejoin="round"/>
<path d="M301.422 132.353H360.245" stroke="white" stroke-width="33.3333" stroke-linecap="round" stroke-linejoin="round"/>
<path d="M301.422 73.5295H419.069" stroke="white" stroke-width="33.3333" stroke-linecap="round" stroke-linejoin="round"/>
</svg>
