<svg width="500" height="500" viewBox="0 0 500 500" fill="none" xmlns="http://www.w3.org/2000/svg">
<mask id="mask0_19_5193" style="mask-type:luminance" maskUnits="userSpaceOnUse" x="41" y="0" width="418" height="500">
<path d="M458.476 0H41V500H458.476V0Z" fill="white"/>
</mask>
<g mask="url(#mask0_19_5193)">
<path d="M101.134 286.869C78.7984 298.485 61.0443 317.309 50.7535 340.286C40.4627 363.262 38.2393 389.042 44.4443 413.442C50.6493 437.841 64.9183 459.427 84.9353 474.696C104.952 489.962 129.542 498.021 154.714 497.555C179.885 497.089 204.161 488.132 223.6 472.133C243.039 456.135 256.5 434.037 261.799 409.424C267.099 384.813 263.924 359.133 252.792 336.552C241.659 313.972 223.221 295.816 200.472 285.033L191.485 308.254C208.548 316.341 219.407 331.959 227.756 348.895C236.106 365.83 238.487 385.09 234.513 403.55C230.538 422.008 220.442 438.582 205.863 450.581C191.283 462.579 173.077 469.299 154.198 469.647C135.319 469.996 116.877 463.955 101.864 452.503C86.8514 441.051 76.1496 424.862 71.4959 406.562C66.8421 388.263 68.5097 368.928 76.2278 351.695C83.9459 334.463 97.0636 316.966 113.816 308.254L101.134 286.869Z" fill="white"/>
<path d="M113.816 65.5337H84.6895V308.252H113.816V65.5337Z" fill="white"/>
<path d="M220.612 65.5337H191.485V308.252H220.612V65.5337Z" fill="white"/>
<path d="M99.252 65.5339C99.252 65.5339 99.2524 14.563 152.65 14.563C206.049 14.563 206.048 65.5339 206.048 65.5339" stroke="white" stroke-width="35"/>
<path d="M155.078 419.903C172.505 419.903 186.631 405.776 186.631 388.35C186.631 370.923 172.505 356.796 155.078 356.796C137.651 356.796 123.524 370.923 123.524 388.35C123.524 405.776 137.651 419.903 155.078 419.903Z" stroke="white" stroke-width="25"/>
<path d="M162.359 196.602H142.941V356.796H162.359V196.602Z" fill="white"/>
<path d="M356.534 303.398C406.133 303.398 446.34 263.191 446.34 213.592C446.34 163.994 406.133 123.787 356.534 123.787C306.936 123.787 266.729 163.994 266.729 213.592C266.729 263.191 306.936 303.398 356.534 303.398Z" stroke="white" stroke-width="25"/>
<path d="M366.243 165.048H351.68V228.155H366.243V165.048Z" fill="white"/>
<path d="M317.699 213.592V228.155H351.68V213.592H317.699Z" fill="white"/>
</g>
</svg>
