<svg width="115" height="102" viewBox="0 0 115 102" fill="none" xmlns="http://www.w3.org/2000/svg">
<g clip-path="url(#clip0_17_975)">
<path d="M64.0802 78.99C56.8002 86.35 49.4102 93.83 41.6002 101.73V79.12C40.4402 79.07 39.5702 78.99 38.6902 78.99C28.6902 78.99 18.7002 78.99 8.70017 78.99C4.11017 78.99 0.0701758 75 0.0701758 70.42C0.0501758 50.09 0.0501758 29.76 0.0701758 9.43999C0.0701758 4.99999 4.13017 0.999988 8.57017 0.999988C41.1402 0.999988 73.7202 1.04999 106.29 0.919988C110.09 0.899988 114.79 5.40999 114.76 9.42999C114.64 29.76 114.63 50.09 114.76 70.41C114.79 74.55 110.01 79.17 105.91 79.09C92.1702 78.83 78.4202 78.99 64.0602 78.99H64.0802ZM108.92 9.59999C107.37 7.17999 105.36 6.72999 102.96 6.73999C72.4802 6.78999 41.9902 6.76999 11.5102 6.77999C7.42017 6.77999 5.96017 8.20999 5.96017 12.19C5.96017 30.76 5.96017 49.34 5.96017 67.91C5.96017 68.82 5.96017 69.73 5.96017 70.64C7.38017 72.77 9.30017 73.21 11.6202 73.19C22.3602 73.12 33.1102 73.16 43.8502 73.16C44.8302 73.16 45.8102 73.16 47.1902 73.16V86.9C47.3602 86.93 47.5402 86.97 47.7102 87C52.2302 82.35 56.7502 77.69 61.1502 73.16C62.6602 73.16 63.7302 73.16 64.8102 73.16C77.6402 73.16 90.4602 73.11 103.29 73.2C105.75 73.22 107.62 72.59 108.94 70.34V9.59999H108.92Z" fill="white"/>
<path d="M39.8301 48.5802C41.7301 46.7702 43.4301 45.1502 45.1201 43.5302C47.1801 45.5802 49.0701 47.4602 51.2601 49.6302C51.9801 49.1502 52.7501 48.8002 53.3201 48.2402C58.3201 43.3202 63.2901 38.3702 68.2501 33.4102C70.2701 31.3902 70.9001 31.3502 72.8601 33.2802C75.3701 35.7402 75.3801 36.0802 72.8901 38.5702C66.3601 45.1002 59.8201 51.6302 53.2701 58.1502C51.2801 60.1402 50.6401 60.1302 48.6901 58.1402C46.2101 55.6102 43.7301 53.0802 41.2901 50.5202C40.7601 49.9602 40.3601 49.2702 39.8401 48.5702L39.8301 48.5802Z" fill="white"/>
</g>
<defs>
<clipPath id="clip0_17_975">
<rect width="115" height="102" fill="white"/>
</clipPath>
</defs>
</svg>
