<svg width="75" height="96" viewBox="0 0 75 96" fill="none" xmlns="http://www.w3.org/2000/svg">
<g clip-path="url(#clip0_17_980)">
<path d="M74.5298 48.1099C74.5298 55.6599 68.9298 61.0299 61.3198 61.2399C54.6198 61.4199 47.8998 55.4199 48.0698 47.8399C48.2298 40.4299 53.9998 34.8099 61.5898 34.7099C68.7298 34.6199 75.1698 41.2299 74.5298 48.1099ZM61.4698 39.4799C56.7698 39.4499 52.9098 43.2899 52.9098 47.9799C52.9098 52.5699 56.6798 56.3599 61.1698 56.5499C65.5798 56.7299 69.9598 52.4999 69.9698 48.0299C69.9798 43.4899 65.6398 39.2799 61.4698 39.4799Z" fill="white"/>
<path d="M61.4701 69.0097C68.4501 68.4397 74.7201 75.4397 74.6901 82.2397C74.6601 88.4297 68.9601 95.6497 61.1901 95.4997C54.2201 95.3697 47.9701 89.2097 48.0501 81.9697C48.1301 74.9497 54.6001 68.3797 61.4701 69.0097ZM52.9101 82.1497C52.9101 86.8697 56.7201 90.5997 61.4301 90.6797C65.6901 90.7497 69.91 86.9097 69.96 82.1997C70.01 77.7097 65.8401 73.5697 61.3601 73.5797C56.8201 73.5797 52.9101 77.5497 52.9001 82.1597L52.9101 82.1497Z" fill="white"/>
<path d="M61.2298 26.9699C54.5498 27.4699 48.0398 20.9599 48.0398 13.7699C48.0398 7.02987 54.1298 0.329869 61.6798 0.459869C68.7398 0.579869 74.7698 7.30987 74.6898 13.9799C74.6098 20.1199 68.8398 27.5999 61.2298 26.9699ZM52.9098 13.7599C52.9098 18.4099 56.7598 22.3699 61.3198 22.3899C65.8298 22.4099 69.9998 18.2999 69.9698 13.7999C69.9398 9.14987 65.8198 5.26987 61.4798 5.27987C56.7898 5.28987 52.9198 9.06987 52.9098 13.7599Z" fill="white"/>
<path d="M0.719971 49.8699V46.2199C1.63997 46.1799 2.51997 46.1099 3.38997 46.1099C9.37997 46.1099 15.38 46.0599 21.37 46.1399C22.89 46.1599 23.76 45.6999 24.48 44.3099C26.11 41.1399 29.73 39.6299 33.14 40.6499C36.42 41.6299 38.54 44.9399 38.57 47.8499C38.61 51.3499 36.29 54.3299 33.18 55.3299C29.87 56.3999 26.11 54.8499 24.51 51.7199C23.74 50.2199 22.77 49.8199 21.18 49.8399C14.46 49.9199 7.72997 49.8699 0.729971 49.8699H0.719971Z" fill="white"/>
</g>
<defs>
<clipPath id="clip0_17_980">
<rect width="75" height="96" fill="white"/>
</clipPath>
</defs>
</svg>
