<svg width="500" height="500" viewBox="0 0 500 500" fill="none" xmlns="http://www.w3.org/2000/svg">
<g clip-path="url(#clip0_19_4829)">
<path d="M444.127 250.683C444.127 290.402 414.667 318.652 374.633 319.757C339.386 320.703 304.034 289.139 304.929 249.263C305.77 210.281 336.125 180.716 376.054 180.19C413.615 179.716 447.494 214.49 444.127 250.683ZM375.422 205.283C350.697 205.125 330.391 225.327 330.391 249.999C330.391 274.146 350.224 294.084 373.844 295.084C397.044 296.031 420.086 273.778 420.139 250.262C420.191 226.379 397.36 204.231 375.422 205.283Z" fill="white"/>
<path d="M375.423 360.631C412.143 357.633 445.128 394.458 444.97 430.231C444.812 462.795 414.826 500.777 373.95 499.988C337.283 499.304 304.403 466.898 304.824 428.81C305.245 391.88 339.282 357.317 375.423 360.631ZM330.391 429.757C330.391 454.588 350.435 474.21 375.213 474.631C397.623 475 419.823 454.798 420.086 430.02C420.349 406.4 398.413 384.62 374.845 384.673C350.961 384.673 330.391 405.558 330.339 429.81L330.391 429.757Z" fill="white"/>
<path d="M374.158 139.472C339.017 142.102 304.77 107.855 304.77 70.0302C304.77 34.5727 336.807 -0.6741 376.526 0.00979377C413.666 0.64108 445.389 36.0457 444.968 71.1349C444.547 103.436 414.193 142.786 374.158 139.472ZM330.389 69.9776C330.389 94.4399 350.643 115.272 374.632 115.378C398.358 115.483 420.295 93.8612 420.137 70.188C419.979 45.7255 398.305 25.3139 375.474 25.3665C350.801 25.4191 330.442 45.3046 330.389 69.9776Z" fill="white"/>
<path d="M55.834 259.942V240.741C60.6738 240.53 65.3033 240.162 69.8801 240.162C101.392 240.162 132.956 239.899 164.468 240.32C172.464 240.425 177.041 238.005 180.829 230.693C189.404 214.016 208.448 206.072 226.387 211.438C243.642 216.594 254.795 234.007 254.952 249.316C255.163 267.728 242.958 283.405 226.597 288.666C209.184 294.295 189.404 286.141 180.987 269.675C176.936 261.783 171.833 259.679 163.468 259.784C128.116 260.205 92.7116 259.942 55.8866 259.942H55.834Z" fill="white"/>
</g>
<defs>
<clipPath id="clip0_19_4829">
<rect width="500" height="500" fill="white"/>
</clipPath>
</defs>
</svg>
