<svg width="73" height="73" viewBox="0 0 73 73" fill="none" xmlns="http://www.w3.org/2000/svg">
<g clip-path="url(#clip0_17_993)">
<path d="M72.6101 36.4602C72.5801 56.4402 56.5301 72.4102 36.6301 72.2602C16.6601 72.1102 0.830117 56.2802 0.850117 36.4702C0.860117 16.5802 16.9101 0.480214 36.7301 0.450214C56.5501 0.430214 72.6501 16.5802 72.6201 36.4602H72.6101ZM36.6601 68.6202C54.4001 68.4902 68.5101 54.7302 68.8901 37.2102C69.2901 18.9002 54.9001 4.23021 36.8101 4.25021C19.0701 4.28021 4.66011 17.9402 4.54011 36.3102C4.42011 54.3502 18.8401 68.3902 36.6601 68.6202Z" fill="white"/>
<path d="M36.67 68.62C18.84 68.39 4.41994 54.34 4.54994 36.31C4.66994 17.94 19.08 4.28005 36.82 4.25005C54.91 4.22005 69.3 18.89 68.9 37.21C68.52 54.73 54.41 68.5 36.67 68.62ZM39.88 6.00005V66.93C54.96 65.46 66.87 51.82 66.82 36.27C66.77 20.76 54.79 7.22005 39.88 6.00005Z" fill="white"/>
<path d="M39.8701 5.99023C54.7801 7.21023 66.7601 20.7502 66.8101 36.2602C66.8601 51.8102 54.9501 65.4502 39.8701 66.9202V5.99023Z" fill="white"/>
</g>
<defs>
<clipPath id="clip0_17_993">
<rect width="73" height="73" fill="white"/>
</clipPath>
</defs>
</svg>
