<svg width="500" height="500" viewBox="0 0 500 500" fill="none" xmlns="http://www.w3.org/2000/svg">
<path d="M80.1718 414.355C46.6661 381.228 23.848 339.024 14.6036 293.075C5.35929 247.128 10.1038 199.503 28.2372 156.221C46.3708 112.939 77.0784 75.9461 116.478 49.919C155.877 23.8918 202.199 10 249.583 10C296.969 10 343.289 23.8918 382.689 49.919C422.088 75.9461 452.795 112.939 470.93 156.221C489.063 199.503 493.807 247.128 484.563 293.075C475.319 339.024 452.5 381.228 418.994 414.355" stroke="white" stroke-width="15"/>
<path d="M248.798 282.589C269.188 282.589 285.718 266.247 285.718 246.089C285.718 225.93 269.188 209.588 248.798 209.588C228.408 209.588 211.879 225.93 211.879 246.089C211.879 266.247 228.408 282.589 248.798 282.589Z" stroke="white" stroke-width="10"/>
<path d="M260.581 20.0962H237.016V43.3944H260.581V20.0962Z" fill="white"/>
<path d="M478.954 234.439H455.389V257.737H478.954V234.439Z" fill="white"/>
<path d="M457.731 345.494L437.322 333.845L425.539 354.022L445.948 365.671L457.731 345.494Z" fill="white"/>
<path d="M43.7765 234.439H20.2109V257.737H43.7765V234.439Z" fill="white"/>
<path d="M59.4728 333.845L39.0645 345.494L50.8472 365.671L71.2556 354.022L59.4728 333.845Z" fill="white"/>
<path d="M383.891 62.809L363.482 51.1599L351.7 71.3368L372.108 82.9859L383.891 62.809Z" fill="white"/>
<path d="M114.473 61.2567L126.256 81.4336L146.664 69.7845L134.881 49.6076L114.473 61.2567Z" fill="white"/>
<path d="M43.7772 147.446L64.1855 159.095L75.9683 138.918L55.56 127.269L43.7772 147.446Z" fill="white"/>
<path d="M443.373 127.268L422.965 138.917L434.748 159.094L455.156 147.444L443.373 127.268Z" fill="white"/>
<path d="M328.21 106.795C336.75 96.7267 352.669 107.489 346.278 119.009L288.934 222.38C285.809 228.014 278.45 229.753 273.085 226.127L253.807 213.095C248.442 209.468 247.411 202.056 251.587 197.134L328.21 106.795Z" fill="white"/>
<path d="M351.7 442.571H147.465V489.167H351.7V442.571Z" stroke="white" stroke-width="10"/>
</svg>
