<svg width="75" height="74" viewBox="0 0 75 74" fill="none" xmlns="http://www.w3.org/2000/svg">
<g clip-path="url(#clip0_17_1016)">
<path d="M70.2301 73.9999C64.0101 67.5399 57.7901 61.0899 51.5801 54.6299C47.1601 50.0399 42.7601 45.4299 37.1201 39.5399C33.6801 43.5599 30.8701 47.1399 27.7501 50.4299C20.2301 58.3599 12.5601 66.1499 4.95008 73.9999H3.96008C2.87008 72.8099 1.79008 71.6299 0.750078 70.4999C11.9201 59.3699 22.8701 48.4799 33.7301 37.6599C22.4401 26.4099 11.6401 15.6599 0.580078 4.63992C2.21008 2.88992 3.28008 1.73992 4.65008 0.279922C15.6401 11.2999 26.4001 22.0799 37.2101 32.9199C48.3101 21.8099 58.9801 11.1299 69.9301 0.169922C71.5701 1.56992 72.7301 2.56992 73.9001 3.56992C62.8601 14.5399 52.0501 25.2699 40.9901 36.2699C52.6401 47.8799 63.6401 58.8499 74.8501 70.0199C73.3801 71.6299 72.2901 72.8099 71.2101 73.9899H70.2201L70.2301 73.9999Z" fill="white"/>
</g>
<defs>
<clipPath id="clip0_17_1016">
<rect width="75" height="74" fill="white"/>
</clipPath>
</defs>
</svg>
