<svg width="82" height="71" viewBox="0 0 82 71" fill="none" xmlns="http://www.w3.org/2000/svg">
<g clip-path="url(#clip0_17_1013)">
<path d="M0.5 34.9495C2.39 32.6995 4.11 30.6195 5.87 28.5695C10.75 22.8695 15.43 16.9695 20.59 11.5295C26.36 5.43954 33.52 1.39954 41.97 0.489545C55.62 -0.990455 66.83 3.69954 75.15 14.7595C81.21 22.8195 83.15 32.1295 81.34 41.8095C79.01 54.2795 71.79 63.3095 59.86 68.2795C45.48 74.2695 29.38 69.9295 19.46 58.6295C15.27 53.8595 11.46 48.7595 7.49 43.7995C5.23 40.9795 3.01 38.1295 0.5 34.9495ZM5.57 34.8395C5.79 35.4795 5.8 35.6695 5.9 35.7895C11.12 42.3895 16.07 49.2295 21.62 55.5395C30.21 65.2995 41.22 69.4095 53.98 66.3195C65.96 63.4195 73.84 55.5495 77.13 43.5695C79.5 34.9495 78.24 26.6595 73.52 19.0195C69.37 12.2995 63.5 7.70954 55.97 5.27954C50.39 3.47954 44.74 3.28954 39.09 4.76954C31.74 6.68954 25.79 10.8995 20.87 16.5795C16.44 21.6895 12.13 26.8895 7.78 32.0695C7 32.9995 6.27 33.9795 5.57 34.8495V34.8395Z" fill="white"/>
<path d="M30.2802 21.5902C31.0302 20.7302 31.6002 20.0602 32.3202 19.2402C37.0702 23.9402 41.6602 28.5002 46.4302 33.2202C51.0402 28.6502 55.4102 24.3202 59.8902 19.8802C60.7002 20.6602 61.3302 21.2502 62.1502 22.0402C57.6702 26.5402 53.3702 30.8602 48.7602 35.5002C53.2902 40.1102 57.6402 44.5302 62.2302 49.1902C61.4202 50.0302 60.8202 50.6602 59.8802 51.6502C55.3002 46.8702 51.0302 42.4102 46.5502 37.7302C41.7202 42.5302 37.1602 47.0602 32.1302 52.0702C31.4002 51.3102 30.8102 50.6802 29.9902 49.8202C34.8702 44.8802 39.3602 40.3402 44.0902 35.5502C39.4002 30.8102 34.9002 26.2502 30.2902 21.6002L30.2802 21.5902Z" fill="white"/>
</g>
<defs>
<clipPath id="clip0_17_1013">
<rect width="82" height="71" fill="white"/>
</clipPath>
</defs>
</svg>
