<svg width="500" height="500" viewBox="0 0 500 500" fill="none" xmlns="http://www.w3.org/2000/svg">
<path d="M108.272 0V172.951H319.349V1.38361H383.763C413.126 31.0542 445.41 63.1846 476.926 96.0836C481.077 100.388 483.075 108.459 483.152 114.839C483.536 234.06 483.459 353.28 483.383 472.578C483.383 492.486 475.696 499.865 455.48 499.942C318.349 500.019 181.219 500.019 44.0883 499.942C22.873 499.942 16.7237 493.87 16.7237 472.655C16.6468 324.071 16.6468 175.564 16.7237 26.9803C16.7237 5.53442 22.4118 0.230602 44.1651 0.0768687C64.5349 1.76106e-06 84.9046 0.0768687 108.349 0.0768687L108.272 0ZM341.871 193.781H85.6733V23.5981H38.5539V476.882H86.8263V430.224H412.435V477.113H459.477C460.169 474.423 461.014 472.655 461.014 470.887C461.091 354.895 461.245 238.902 460.861 122.833C460.861 116.761 457.248 109.305 452.867 104.77C430.575 81.3252 406.439 59.6487 385.147 35.3588C372.387 20.8309 359.089 20.6003 341.794 23.9056V193.705L341.871 193.781Z" fill="white"/>
<path d="M279.301 132.903H174.762V19.3704H279.301V132.903ZM262.544 115.07V36.896H190.673V115.07H262.544Z" fill="white"/>
</svg>
