<svg width="107" height="98" viewBox="0 0 107 98" fill="none" xmlns="http://www.w3.org/2000/svg">
<path d="M67.6502 85.1104C61.8602 85.2104 56.5702 83.3704 51.5602 80.7404C38.3902 73.8304 28.2002 63.6704 20.2302 51.2504C16.9602 46.1604 14.7102 40.5604 13.7602 34.5204C13.2302 31.1204 13.2902 27.7204 14.6502 24.5104C15.1802 23.2504 16.0102 22.0404 16.9502 21.0404C18.9102 18.9304 21.0802 17.0204 23.0802 14.9404C25.4102 12.5204 28.7202 12.7904 30.4402 14.4704C34.5302 18.4604 38.6102 22.4704 42.5502 26.6104C44.5602 28.7104 44.3402 31.6204 42.2802 33.7604C40.5002 35.6104 38.7202 37.4704 36.8302 39.1904C35.1402 40.7204 35.1002 42.4104 35.7902 44.3704C36.8302 47.2904 38.5002 49.8504 40.5002 52.1604C43.8002 55.9704 47.4002 59.4804 51.9002 61.8904C52.8402 62.3904 53.8502 62.8204 54.8702 63.1104C56.8402 63.6704 58.5402 63.3904 60.0002 61.6704C61.4902 59.9104 63.2302 58.3504 64.9002 56.7404C67.5102 54.2304 69.9502 54.0504 72.5402 56.5304C76.5602 60.3604 80.4502 64.3204 84.2902 68.3204C86.2802 70.3904 86.2502 73.1304 84.3002 75.2304C81.8902 77.8304 79.4802 80.4504 76.8302 82.7904C75.0202 84.3904 72.6202 85.0404 70.1602 85.1204C69.3302 85.1504 68.5002 85.1204 67.6702 85.1204L67.6502 85.1104ZM34.3102 36.0004C29.8402 31.6304 25.3702 27.2604 20.8002 22.7904C20.8202 22.7804 20.5002 22.9004 20.2602 23.1104C17.6002 25.5004 17.1902 28.6504 17.4102 31.9504C17.8202 38.3904 20.2402 44.1904 23.6802 49.4904C31.2102 61.0704 40.7702 70.6004 53.0302 77.2004C57.3502 79.5304 61.9802 81.1304 66.9202 81.4504C70.4702 81.6704 73.8902 81.2404 76.0702 77.8604C75.9702 77.6504 75.9402 77.4604 75.8302 77.3504C71.7902 73.2304 67.7502 69.1104 63.6802 65.0104C62.9002 64.2204 62.2402 64.5804 61.6002 65.3204C60.3202 66.8104 58.5502 67.5104 56.7202 67.2004C54.4702 66.8204 52.1002 66.3204 50.1302 65.2404C43.2802 61.4704 37.8402 56.0804 33.9002 49.3604C31.0202 44.4404 30.0502 40.1704 34.3202 35.9904L34.3102 36.0004ZM65.5402 61.8204C68.1602 64.3204 70.6702 66.7004 73.1602 69.1104C74.8202 70.7204 76.4402 72.3704 78.0602 74.0204C78.6502 74.6204 79.3302 74.9504 79.9902 74.2804C80.7602 73.5004 81.4002 72.5804 82.3402 71.4304C78.6502 67.8804 75.1502 64.5104 71.6602 61.1404C69.6535 59.1938 67.6135 59.4204 65.5402 61.8204ZM24.0402 20.0104C28.1602 24.1204 32.3102 28.2604 36.4802 32.3804C36.7402 32.6404 37.3802 32.9504 37.5202 32.8404C38.3402 32.1904 39.2102 31.5104 39.7802 30.6504C40.3302 29.8204 39.6202 29.1804 38.9902 28.5504C35.7702 25.3604 32.6102 22.1004 29.3902 18.9004C26.8902 16.4204 26.5402 16.4704 24.2702 19.3304C24.2202 19.3904 24.2202 19.4804 24.0502 20.0004L24.0402 20.0104Z" fill="white"/>
<path d="M71.7601 47.0504C69.4001 44.7604 67.2801 42.7204 65.0101 40.5104C62.7101 42.7404 60.5601 44.8204 58.2501 47.0604C57.3601 46.2504 56.5901 45.5504 55.5601 44.6104C57.8001 42.2704 59.9101 40.0604 62.1901 37.6804C60.0201 35.4504 57.9701 33.3504 55.7601 31.0804C56.5001 30.2504 57.1801 29.4904 58.0901 28.4604C60.4001 30.6804 62.5701 32.7504 64.8901 34.9704C67.1701 32.7904 69.3301 30.7204 71.7601 28.4004C72.6901 29.2904 73.4401 30.0104 74.3801 30.9204C72.0501 33.3504 69.9901 35.5104 67.7601 37.8404C69.9501 40.1104 71.9801 42.2204 74.1801 44.5004C73.3801 45.3504 72.6701 46.1004 71.7701 47.0504H71.7601Z" fill="#FF3C31"/>
</svg>
