<svg width="500" height="500" viewBox="0 0 500 500" fill="none" xmlns="http://www.w3.org/2000/svg">
<g clip-path="url(#clip0_18_297)">
<path d="M27.4238 134.444L27.6651 135.444L28.0378 136.402C54.771 205.111 144.236 369.571 305.546 458.119L306.144 458.447L306.769 458.721C334.568 470.9 362.083 476.595 384.154 478.477C395.191 479.418 405.085 479.425 413.168 478.737C420.468 478.115 428.522 476.773 434.219 473.568C438.52 471.149 444.082 466.533 449.21 461.748C454.653 456.669 460.73 450.337 466.106 443.674C471.323 437.207 476.599 429.554 479.589 421.9C482.244 415.104 485.289 402.117 475.388 392.169C464.89 381.547 446.655 364.267 427.683 349.519C418.205 342.151 408.208 335.15 398.67 329.922C389.625 324.963 378.975 320.444 368.747 320.443C363.109 320.443 356.546 322.539 351.316 324.511C345.425 326.733 338.721 329.799 331.949 333.353C319.979 339.636 306.548 348.099 296.565 357.166C296.521 357.206 296.459 357.218 296.403 357.198C292.572 355.823 286.769 352.59 279.122 347.111C264.079 336.334 245.228 319.31 226.153 300.089C207.179 280.968 188.449 260.144 173.684 242.096C166.298 233.068 159.999 224.851 155.195 217.973C150.199 210.822 147.425 205.967 146.403 203.434C144.044 197.583 144.683 195.204 145.071 194.1C145.805 192.009 147.488 189.694 152.04 184.571C152.307 184.271 152.577 183.968 152.853 183.658C161.692 173.739 174.733 159.102 175.526 131.292C176.34 102.778 159.874 75.2986 144.197 56.3436C136.096 46.5494 127.516 38.1926 120.031 32.1498C116.309 29.1444 112.615 26.5145 109.189 24.5458C107.481 23.5645 105.602 22.61 103.646 21.864C101.893 21.196 99.0581 20.2925 95.7256 20.2916C85.2339 20.2934 63.1386 25.8914 45.9965 43.0473C27.6385 61.4192 16.9295 90.9585 27.4238 134.444Z" stroke="white" stroke-width="25"/>
<path d="M309.511 107.337L289.945 126.902L337.228 174.185L289.945 221.468L309.511 241.033L356.386 194.158L403.261 241.033L422.826 221.468L375.543 174.185L422.826 126.902L403.261 107.337L356.386 154.212L309.511 107.337Z" fill="#F23B2F"/>
</g>
<defs>
<clipPath id="clip0_18_297">
<rect width="500" height="500" fill="white"/>
</clipPath>
</defs>
</svg>
