<svg width="500" height="500" viewBox="0 0 500 500" fill="none" xmlns="http://www.w3.org/2000/svg">
<path d="M250.562 250.858C250.562 327.804 250.562 404.705 250.562 481.651C250.562 499.625 245.837 503.331 228.928 497.356C194.23 485.079 159.672 472.247 125.067 459.693C120.851 458.164 116.728 455.848 112.374 455.339C95.8819 453.393 94.1215 443.109 94.1679 428.841C94.6774 316.501 94.6311 204.209 94.1679 91.8702C94.1215 80.2889 97.7349 74.4056 107.973 69.0782C149.341 47.5833 190.154 24.9766 231.29 2.92586C243.196 -3.46702 250.284 0.748576 250.515 14.2755C250.793 30.443 250.608 46.5642 250.608 62.7317C250.608 125.41 250.608 188.134 250.608 250.812L250.562 250.858ZM225.731 469.468V35.0755C222.813 35.7704 220.775 35.8631 219.2 36.7432C188.347 53.7446 157.726 71.1629 126.595 87.562C120.295 90.8974 117.516 93.6306 117.516 100.904C117.747 207.822 117.747 314.741 117.516 421.66C117.516 429.628 120.573 433.01 127.8 435.419C148.322 442.229 168.566 449.872 188.949 457.006C200.901 461.176 212.899 465.113 225.685 469.421L225.731 469.468Z" fill="white"/>
<path d="M406.261 458.211H266.035V435.604H382.172V89.3679H265.988V65.8347H406.261V458.257V458.211Z" fill="white"/>
<path d="M169.678 306.217C169.77 294.033 175.978 287.733 188.023 287.78C199.002 287.78 207.85 296.489 207.479 306.773C207.108 316.686 198.26 324.932 187.976 325.071C176.951 325.21 169.678 317.659 169.724 306.217H169.678Z" fill="white"/>
</svg>
