<svg width="136" height="128" viewBox="0 0 136 128" fill="none" xmlns="http://www.w3.org/2000/svg">
<path d="M64.2401 85.3495V88.9595C63.4301 89.0295 62.7101 89.1395 61.9901 89.1395C55.7401 89.1495 49.4901 89.1895 43.2501 89.1395C30.0401 89.0295 19.8901 77.4795 21.6701 64.4195C22.5301 58.1495 25.7001 53.1495 30.8101 49.3495C31.6601 48.7095 32.4501 47.6795 32.7601 46.6695C35.3301 38.4095 43.3701 33.4695 51.7601 35.2895C53.0901 35.5795 53.7101 35.2495 54.4401 34.3295C62.7701 23.7995 74.7401 20.0295 87.2801 24.6495C96.2901 27.9595 102.2 34.6195 104.55 44.0395C105.31 47.0895 106.41 49.2995 109.18 51.2795C116.44 56.4495 118.95 64.0995 117.22 72.5895C115.43 81.3595 109.75 87.0195 100.82 88.9395C98.9801 89.3395 97.0101 89.1395 95.0901 89.1495C88.1901 89.1695 81.3001 89.1495 74.2201 89.1495V85.4995C75.1101 85.4495 75.9901 85.3495 76.8701 85.3495C83.0301 85.3395 89.2001 85.4195 95.3601 85.3195C102.74 85.2095 108.55 82.3095 111.88 75.4095C115.96 66.9395 112.04 56.3895 103.36 52.6495C101.92 52.0295 101.38 51.3695 101.33 49.7795C100.84 35.9195 87.4201 25.0895 73.7501 27.2695C65.8101 28.5395 60.0101 32.7395 56.1101 39.5995C55.1201 41.3395 54.1501 40.6795 53.0501 40.2295C47.1701 37.8395 40.7701 39.2495 38.4201 45.0695C36.4201 50.0395 32.6301 52.8795 29.5301 56.6195C21.3701 66.4295 26.7501 82.0095 39.2701 84.4295C44.3501 85.4095 49.6801 85.1295 54.9001 85.3195C57.9501 85.4295 61.0201 85.3395 64.2301 85.3395L64.2401 85.3495Z" fill="white"/>
<path d="M67.23 60.3398H71.2V104.53C71.42 104.64 71.64 104.76 71.86 104.87C74.33 102.04 76.8 99.1998 79.38 96.2398C80.62 97.4098 81.32 98.0698 82.21 98.9098C78.26 103.23 74.43 107.46 70.52 111.6C70.26 111.88 69.05 111.75 68.71 111.4C65.07 107.66 61.46 103.89 57.97 100.01C56.42 98.2898 58.12 97.6298 59.48 96.7598C61.91 99.4098 64.33 102.06 67.23 105.23V60.3498V60.3398Z" fill="white"/>
</svg>
