<svg width="500" height="500" viewBox="0 0 500 500" fill="none" xmlns="http://www.w3.org/2000/svg">
<path d="M75.8646 80H196.882M311.432 80H426.907V457C369.632 418.602 346.537 450.019 311.432 436.056V397.657M311.432 80H250.462M311.432 80V234.465M250.462 80V397.657M250.462 80H196.882M196.882 80V234.465M73.0933 82.6181L75.8646 457C121.131 416.856 170.092 447.4 196.882 436.056V397.657M196.882 234.465H311.432M196.882 234.465V397.657M311.432 234.465V397.657M196.882 397.657H311.432" stroke="white" stroke-width="20"/>
<path d="M69.4492 80C69.4492 94.2544 56.8221 107 39.7246 107C22.6271 107 10 94.2544 10 80C10 65.7456 22.6271 53 39.7246 53C56.8221 53 69.4492 65.7456 69.4492 80Z" stroke="white" stroke-width="20"/>
<path d="M490 80C490 94.2544 477.373 107 460.275 107C443.178 107 430.551 94.2544 430.551 80C430.551 65.7456 443.178 53 460.275 53C477.373 53 490 65.7456 490 80Z" stroke="white" stroke-width="20"/>
</svg>
