<svg width="500" height="500" viewBox="0 0 500 500" fill="none" xmlns="http://www.w3.org/2000/svg">
<mask id="mask0_19_5107" style="mask-type:luminance" maskUnits="userSpaceOnUse" x="0" y="29" width="500" height="442">
<path d="M500 29H0V470.667H500V29Z" fill="white"/>
</mask>
<g mask="url(#mask0_19_5107)">
<path d="M37.5006 95.6668C53.609 95.6668 66.6673 82.6085 66.6673 66.5002C66.6673 50.3919 53.609 37.3335 37.5006 37.3335C21.3924 37.3335 8.33398 50.3919 8.33398 66.5002C8.33398 82.6085 21.3924 95.6668 37.5006 95.6668Z" stroke="white" stroke-width="20"/>
<path d="M462.501 95.6668C478.609 95.6668 491.667 82.6085 491.667 66.5002C491.667 50.3919 478.609 37.3335 462.501 37.3335C446.392 37.3335 433.334 50.3919 433.334 66.5002C433.334 82.6085 446.392 95.6668 462.501 95.6668Z" stroke="white" stroke-width="20"/>
<path d="M433.335 58.167H66.668V74.8337H433.335V58.167Z" fill="white"/>
<path d="M254.167 74.8335H245.834V408.167H254.167V74.8335Z" fill="white"/>
<path d="M75 66.5V444.81C113.368 405.098 135.937 452.475 158.507 444.81C172.049 440.63 212.222 423.491 237.5 430.18V66.5" stroke="white" stroke-width="20"/>
<path d="M425 70.667V444.82C386.632 405.544 364.062 452.4 341.493 444.82C327.951 440.686 287.778 423.735 262.5 430.35V70.667" stroke="white" stroke-width="20"/>
</g>
</svg>
