<svg width="120" height="102" viewBox="0 0 120 102" fill="none" xmlns="http://www.w3.org/2000/svg">
<g clip-path="url(#clip0_35_376)">
<path d="M9 16C12.866 16 16 12.866 16 9C16 5.13401 12.866 2 9 2C5.13401 2 2 5.13401 2 9C2 12.866 5.13401 16 9 16Z" stroke="white" stroke-width="4"/>
<path d="M111 16C114.866 16 118 12.866 118 9C118 5.13401 114.866 2 111 2C107.134 2 104 5.13401 104 9C104 12.866 107.134 16 111 16Z" stroke="white" stroke-width="4"/>
<path d="M104 7H16V11H104V7Z" fill="white"/>
<path d="M85 9H35V89H85V9Z" stroke="white" stroke-width="4"/>
<path d="M62 11H58V87H62V11Z" fill="white"/>
<path d="M83 51V47H37V51H83Z" fill="white"/>
<path d="M19 11H23V98L19 102V11Z" fill="white"/>
<path d="M101 11H97V98L101 102V11Z" fill="white"/>
<path d="M30 11H26V98H30V11Z" fill="white"/>
<path d="M94 11H90V98H94V11Z" fill="white"/>
<path d="M21 9H35V93C35 95.2091 33.2091 97 31 97H25C22.7909 97 21 95.2091 21 93V9Z" stroke="white" stroke-width="4"/>
<path d="M85 9H99V93C99 95.2091 97.2091 97 95 97H89C86.7909 97 85 95.2091 85 93V9Z" stroke="white" stroke-width="4"/>
</g>
<defs>
<clipPath id="clip0_35_376">
<rect width="120" height="102" fill="white"/>
</clipPath>
</defs>
</svg>
