<svg width="500" height="500" viewBox="0 0 500 500" fill="none" xmlns="http://www.w3.org/2000/svg">
<g clip-path="url(#clip0_19_4212)">
<path d="M284.74 176.43C284.74 176.43 250.382 218.736 252.14 221.433C254.577 218.736 239.805 175.968 239.805 175.968C239.805 175.968 236.722 166.975 227.05 137.5H192.027H107.032H42.9388L36.5388 165.17H84.7867H96.2342C127.272 165.17 146.222 178 140.929 200.733C135.212 225.486 108.122 236.053 79.2667 236.053H68.4766L82.3567 175.533H34.1188L13.6387 263.953H82.1342C133.664 263.953 182.549 236.286 191.364 200.733C192.907 194.198 192.689 177.77 188.729 168.1C188.729 167.868 188.502 167.423 188.284 166.758C188.067 166.525 187.839 164.953 188.729 164.723C189.159 164.493 190.042 165.4 190.042 165.618C190.042 165.618 190.489 166.758 190.919 167.65L234.52 293.438L345.53 165.398L392.433 165.168H403.881C434.941 165.168 454.106 177.998 448.803 200.73C443.078 225.483 415.791 236.051 386.928 236.051H375.916L390.003 175.533H341.785L321.29 263.953H389.786C441.313 263.953 490.643 236.286 498.796 200.733C507.163 165.17 471.043 137.5 419.071 137.5H373.713H316.895C289.81 170.123 284.74 176.43 284.74 176.43Z" fill="white"/>
<path d="M236.061 293.889C105.703 293.889 0 309.189 0 328.096C0 346.991 105.703 362.291 236.061 362.291C366.659 362.291 472.372 346.991 472.372 328.096C472.375 309.189 366.661 293.889 236.061 293.889ZM227.696 340.249C197.746 340.249 173.746 335.069 173.746 328.761C173.746 322.454 197.743 317.286 227.696 317.286C257.416 317.286 281.441 322.451 281.441 328.761C281.441 335.069 257.416 340.249 227.696 340.249Z" fill="white"/>
</g>
<defs>
<clipPath id="clip0_19_4212">
<rect width="500" height="500" fill="white"/>
</clipPath>
</defs>
</svg>
