<svg width="58" height="42" viewBox="0 0 58 42" fill="none" xmlns="http://www.w3.org/2000/svg">
<g clip-path="url(#clip0_17_1058)">
<path d="M29.5497 0.979492C39.1297 11.6295 48.4197 21.9595 57.9497 32.5595H1.15967C10.6397 22.0195 19.9497 11.6595 29.5497 0.979492ZM9.52967 29.0195H49.2797C48.8997 28.3895 48.7097 27.9295 48.3997 27.5795C42.5697 21.0695 36.7097 14.5895 30.8897 8.06949C29.8297 6.87949 29.1097 7.08949 28.1097 8.20949C23.3197 13.6195 18.4497 18.9695 13.6097 24.3495C12.3597 25.7395 11.1497 27.1495 9.51967 29.0195H9.52967Z" fill="white"/>
<path d="M57.97 38.35V41.61C57.15 41.69 56.43 41.81 55.72 41.81C38.31 41.82 20.9 41.81 3.48995 41.82C2.08995 41.82 0.799954 41.91 0.929954 39.83C1.00995 38.58 1.35995 38.04 2.65995 38.04C20.82 38.07 38.97 38.07 57.13 38.09C57.36 38.09 57.59 38.22 57.97 38.35Z" fill="white"/>
</g>
<defs>
<clipPath id="clip0_17_1058">
<rect width="58" height="42" fill="white"/>
</clipPath>
</defs>
</svg>
