<svg width="77" height="73" viewBox="0 0 77 73" fill="none" xmlns="http://www.w3.org/2000/svg">
<g clip-path="url(#clip0_17_1061)">
<mask id="mask0_17_1061" style="mask-type:luminance" maskUnits="userSpaceOnUse" x="0" y="0" width="77" height="73">
<path d="M77 0H0V73H77V0Z" fill="white"/>
</mask>
<g mask="url(#mask0_17_1061)">
<path d="M76.9999 59.2002H10.7499C14.8999 63.0802 18.2999 66.2602 21.6699 69.4102C20.3199 72.1302 18.9699 72.6202 16.7399 70.4502C11.9099 65.7602 6.87992 61.2702 1.41992 56.2202C7.27992 50.7802 12.9799 45.4802 19.1599 39.7302C20.3099 40.8102 21.2099 41.6502 22.5299 42.8702C18.3699 46.7202 14.8299 50.0002 10.5199 54.0002H71.9699V1.31023C73.8699 1.19023 75.4299 1.09023 76.9899 0.990234V59.2002H76.9999Z" fill="white"/>
</g>
</g>
<defs>
<clipPath id="clip0_17_1061">
<rect width="77" height="73" fill="white"/>
</clipPath>
</defs>
</svg>
