<svg width="500" height="500" viewBox="0 0 500 500" fill="none" xmlns="http://www.w3.org/2000/svg">
<path d="M500 4.26234C479.937 49.9278 457.703 92.2995 442.581 137.141C422.893 195.384 378.425 232.44 337.476 273.24C267.78 342.636 198.234 412.108 128.088 481.055C101.962 506.807 63.0341 505.535 35.9343 480.905C13.6256 460.543 -6.4373 438.908 1.94719 406.044C5.31595 392.868 12.4278 378.944 21.9352 369.362C113.715 276.683 205.645 184.154 299.521 93.5721C315.991 77.6265 341.443 70.5147 363.303 60.633C405.675 41.3936 448.42 23.0526 491.091 4.48692C492.589 3.81316 494.61 4.41205 499.925 4.41205L500 4.26234ZM130.259 431.946C211.409 351.545 289.265 274.437 366.896 197.555C353.197 194.785 347.208 184.154 346.534 170.904C345.785 156.905 340.695 144.927 327.22 142.681C311.649 140.136 295.104 134.896 280.282 149.868C226.381 204.517 171.508 258.192 117.084 312.392C99.7907 329.685 82.872 347.352 66.9269 363.672C89.8342 388.302 110.795 410.835 130.334 431.871L130.259 431.946ZM392.574 176.593C407.846 143.205 420.273 117.004 431.577 90.2782C433.523 85.7116 432.4 76.6533 429.106 74.0332C424.839 70.5147 416.08 68.7929 410.915 70.7393C391.226 78.2255 372.211 87.3586 353.047 96.0425C342.342 100.909 331.786 106.074 321.156 111.165C362.929 117.603 362.779 117.902 375.356 157.354C377.377 163.642 384.788 168.134 392.574 176.593ZM109.822 457.998C87.3637 434.042 66.1783 411.359 45.1423 388.9C21.3363 405.445 18.791 416.524 35.7097 438.01C43.9445 448.49 53.9759 458.297 64.9057 465.933C87.2889 481.504 94.251 479.333 109.822 457.998Z" fill="white"/>
<path d="M472.226 476.265C471.776 484.276 471.402 490.19 470.953 497.526H166.342C165.967 490.863 165.668 484.425 165.219 476.265H472.226Z" fill="white"/>
</svg>
