<svg width="500" height="500" viewBox="0 0 500 500" fill="none" xmlns="http://www.w3.org/2000/svg">
<path d="M0.0418481 248.705C39.3371 211.837 75.5357 170.867 118.597 139.021C188.902 87.0459 268.288 79.848 347.38 118.599C409.315 148.939 456.478 198.027 500 253.517C483.972 269.922 469.618 285.405 454.386 300.01C414.253 338.51 374.54 377.973 318.798 394.21C227.444 420.825 147.682 401.994 80.2645 333.907C54.1932 307.585 26.8246 282.56 0 256.949C0 254.187 0 251.467 0 248.705H0.0418481ZM29.5865 255.275C58.8383 281.765 87.7553 306.999 115.584 333.405C160.32 375.839 213.969 387.933 273.519 381.781C326.122 376.383 367.007 348.428 404.67 314.406C425.971 295.156 446.895 275.487 469.367 254.731C427.477 197.022 375.628 154.421 312.354 129.48C254.478 106.673 197.23 114.038 144.376 151.534C102.779 181.036 62.228 210.832 29.5865 255.233V255.275Z" fill="white"/>
<path d="M348.555 250.464C348.555 310.097 305.284 355.795 248.873 355.795C192.504 355.795 149.568 310.013 149.609 250.003C149.651 191.709 191.332 149.861 249.333 149.903C307.083 149.903 348.555 191.96 348.597 250.505L348.555 250.464ZM331.062 251.384C331.313 204.891 295.826 167.898 250.212 167.228C204.681 166.558 167.73 202.882 167.06 249.041C166.349 296.455 202.589 334.16 248.915 334.243C294.487 334.327 330.769 297.668 331.062 251.384Z" fill="white"/>
<path d="M291.918 252.081C291.791 277.484 274.062 294.808 248.21 294.839C221.568 294.839 204.281 277.453 204.344 250.76C204.407 224.22 221.916 207.111 248.81 207.265C275.199 207.418 292.076 224.958 291.918 252.081ZM278.676 252.726C279.023 234.603 266.73 220.842 249.442 220.043C231.618 219.244 260.08 208.216 259.795 226.984C259.543 243.417 238.164 218.534 254.945 218.841C271.695 219.149 284.928 244.554 278.676 252.726Z" fill="white"/>
</svg>
