<svg width="185" height="177" viewBox="0 0 185 177" fill="none" xmlns="http://www.w3.org/2000/svg">
<g clip-path="url(#clip0_17_1078)">
<path d="M32.27 79.17V0H151.65V79.17H32.27ZM42.34 9.93V69.26H141.76V9.93H42.34Z" fill="white"/>
<path d="M151.74 176.04H32.3501V96.8799H151.74V176.04ZM141.74 166.14V106.55H42.3501V166.14H141.74Z" fill="white"/>
<path d="M15.42 0.0800781V14.6701H0.300049V0.0800781H15.42Z" fill="white"/>
<path d="M168.86 14.6398V0.219727H183.99V14.6398H168.86Z" fill="white"/>
<path d="M0.330078 32.0703H15.0401V47.2004H0.330078V32.0703Z" fill="white"/>
<path d="M169.08 46.94V32.21H184.2V46.94H169.08Z" fill="white"/>
<path d="M15.11 79.4702H0.27002V64.4502H15.11V79.4702Z" fill="white"/>
<path d="M184.2 64.4199V79.1399H169.33V64.4199H184.2Z" fill="white"/>
<path d="M14.9301 111.61H0.0900879V96.8301H14.9301V111.61Z" fill="white"/>
<path d="M184.05 111.9H169.47V96.7695H184.05V111.9Z" fill="white"/>
<path d="M0 143.8V128.96H15.02V143.8H0Z" fill="white"/>
<path d="M169.08 143.56V128.83H184.2V143.56H169.08Z" fill="white"/>
<path d="M14.7801 176.29H0.360107V161.16H14.7801V176.29Z" fill="white"/>
<path d="M169.48 160.68H183.9V175.81H169.48V160.68Z" fill="white"/>
</g>
<defs>
<clipPath id="clip0_17_1078">
<rect width="185" height="177" fill="white"/>
</clipPath>
</defs>
</svg>
