<svg width="500" height="500" viewBox="0 0 500 500" fill="none" xmlns="http://www.w3.org/2000/svg">
<g clip-path="url(#clip0_19_4760)">
<path d="M87.5947 225.736V10.8334H411.645V225.736H87.5947ZM114.929 37.7878V198.836H384.799V37.7878H114.929Z" fill="white"/>
<path d="M411.89 488.684H87.8125V273.808H411.89V488.684ZM384.745 461.811V300.057H114.957V461.811H384.745Z" fill="white"/>
<path d="M41.8568 11.0504V50.6542H0.814453V11.0504H41.8568Z" fill="white"/>
<path d="M458.36 50.5728V11.4304H499.43V50.5728H458.36Z" fill="white"/>
<path d="M0.895508 97.8853H40.8249V138.955H0.895508V97.8853Z" fill="white"/>
<path d="M458.958 138.249V98.2655H500V138.249H458.958Z" fill="white"/>
<path d="M41.0157 226.55H0.733398V185.779H41.0157V226.55Z" fill="white"/>
<path d="M500 185.698V225.654H459.637V185.698H500Z" fill="white"/>
<path d="M40.5265 313.792H0.244141V273.673H40.5265V313.792Z" fill="white"/>
<path d="M499.593 314.579H460.017V273.51H499.593V314.579Z" fill="white"/>
<path d="M0 401.17V360.888H40.7709V401.17H0Z" fill="white"/>
<path d="M458.958 400.519V360.535H500V400.519H458.958Z" fill="white"/>
<path d="M40.1198 489.362H0.977539V448.293H40.1198V489.362Z" fill="white"/>
<path d="M460.044 446.99H499.186V488.059H460.044V446.99Z" fill="white"/>
</g>
<defs>
<clipPath id="clip0_19_4760">
<rect width="500" height="500" fill="white"/>
</clipPath>
</defs>
</svg>
