<svg width="150" height="150" viewBox="0 0 150 150" fill="none" xmlns="http://www.w3.org/2000/svg">
<g clip-path="url(#clip0_35_163)">
<path d="M92.8001 48.28C98.9601 54.93 102.51 62.5 99.5301 71.66C96.2601 81.73 87.5401 84.87 77.4601 88.26C78.7601 84.13 79.6301 81.07 80.6901 78.07C82.6401 72.51 80.9201 68 76.7701 64.24C74.4401 62.13 71.8701 60.3 69.5101 58.23C58.9401 49 60.0201 35.71 72.8301 27.37C67.6001 38.35 74.8401 43.69 81.2701 49.36C82.3801 50.34 83.5301 51.32 84.7901 52.11C89.9501 55.35 93.8901 59.24 92.4701 66.33C98.5401 60.14 94.7401 54.32 92.8101 48.27L92.8001 48.28Z" fill="white"/>
<path d="M95.52 126.67C89.77 124.62 84.58 122.5 79.23 120.98C76.9 120.32 74.07 120.33 71.74 121C66.38 122.52 61.2 124.64 55.52 126.66C53.06 120.47 50.62 114.61 48.49 108.64C48.15 107.69 49.18 106.23 49.62 105.03C51.47 99.94 53.34 94.85 55.33 89.41C60.99 91.46 66.3 93.65 71.79 95.24C74.12 95.92 76.97 95.91 79.29 95.23C84.64 93.67 89.82 91.52 95.5 89.45C97.89 95.47 100.25 101.35 102.53 107.27C102.74 107.82 102.66 108.62 102.44 109.2C100.25 114.85 97.99 120.48 95.53 126.69L95.52 126.67ZM58.01 121.11C71.23 116.3 84.15 111.6 97.32 106.81C95.81 102.7 94.42 98.94 92.98 95.03C79.54 99.94 66.74 104.62 53.7 109.38C55.2 113.47 56.54 117.13 58.01 121.11ZM54.59 104.3C59.7 102.43 63.77 100.93 68.9 99.05C64.59 97.47 61.45 96.32 58.01 95.06C56.93 97.98 55.97 100.57 54.59 104.3ZM96.24 111.93C91.43 113.72 87.49 115.18 82.16 117.16C86.73 118.77 89.82 119.87 93.11 121.03C94.17 117.94 95.05 115.39 96.24 111.94V111.93Z" fill="white"/>
<path d="M70.9301 87.13C67.8801 85.57 64.7801 84.04 61.7401 82.41C48.5001 75.34 46.5601 62.42 57.8401 50.71C54.9901 59.93 59.6301 63.85 66.5901 67.12C75.5801 71.34 76.9301 78.74 70.9301 87.13Z" fill="white"/>
</g>
<defs>
<clipPath id="clip0_35_163">
<rect width="150" height="150" fill="white"/>
</clipPath>
</defs>
</svg>
