<svg width="163" height="174" viewBox="0 0 163 174" fill="none" xmlns="http://www.w3.org/2000/svg">
<path d="M88.3701 150.45C88.9601 147.73 89.0601 144.77 90.2401 142.34C94.1201 134.41 96.4301 126.21 95.5801 117.36C95.2301 113.77 93.6901 110.51 91.5601 107.52C86.5701 100.52 79.4101 95.9598 72.8701 90.7198C65.7101 84.9798 59.6901 78.2998 57.1601 69.3898C55.8801 64.8898 55.5301 59.8398 56.0601 55.1898C56.7801 48.8598 59.5901 43.1298 63.5901 37.9298C67.4801 32.8698 71.9701 28.6198 77.8201 24.5898C76.4201 27.3098 75.2301 29.3098 74.3301 31.4398C72.4901 35.7798 71.9801 40.2198 73.2301 44.8998C75.6301 53.8898 81.6601 60.2598 88.3901 66.0098C94.9101 71.5898 101.76 76.7898 108.52 82.0798C112.75 85.3798 115.77 89.1698 117.3 94.6298C118.89 100.32 116.56 105.36 116.58 110.96C116.98 110.89 117.71 110.96 117.92 110.68C122.52 104.3 126.86 97.6998 126.09 89.3798C125.8 86.2198 124.47 83.1098 123.34 80.0698C122.24 77.0998 120.78 74.2598 119.54 71.3398C119.31 70.7998 119.42 70.1198 119.37 69.5098C119.65 69.3698 119.92 69.2198 120.2 69.0798C122.45 72.3698 125.1 75.4598 126.87 78.9898C129.49 84.2098 132.09 89.5898 133.58 95.1998C134.7 99.4198 134.43 104.13 134.11 108.57C133.25 120.8 127.02 130.04 117.49 137.41C110.72 142.64 102.79 145.4 95.0301 148.58C93.0901 149.38 91.1101 150.07 89.1501 150.82C88.8901 150.7 88.6301 150.57 88.3701 150.45ZM129.61 104.65C129.32 104.49 129.04 104.32 128.75 104.16C128.19 104.89 127.61 105.6 127.07 106.34C124.52 109.79 122.1 113.33 119.4 116.66C118.14 118.21 114.54 118.41 112.94 117.44C111.06 116.31 109.8 113.31 110.38 111.21C110.95 109.15 111.75 107.14 112.17 105.06C113.58 98.1098 112.58 91.6298 106.41 87.1598C97.7001 80.8498 89.0101 74.4898 81.4201 66.7898C75.2601 60.5398 69.3601 54.1498 68.0201 44.9198C67.9101 44.1898 67.1201 43.5598 66.2201 42.2998C64.6601 46.1798 63.2001 49.3398 62.1001 52.6098C60.1601 58.3898 60.7801 64.2198 62.8501 69.7698C65.5901 77.0998 70.9101 82.4898 77.0301 87.1898C81.4301 90.5798 85.7501 94.0898 89.9701 97.7098C95.4601 102.43 99.3901 108.4 100.74 115.44C101.88 121.43 101.25 127.62 99.2401 133.53C98.3401 136.18 97.5101 138.85 96.4501 142.13C105.98 138.84 114.33 134.86 120.59 127.5C126.2 120.91 129.38 113.31 129.62 104.64L129.61 104.65Z" fill="white"/>
<path d="M45.25 75.2393C44.82 77.4593 44.68 79.7694 43.92 81.8694C41.6 88.2494 46.78 99.5793 52.38 102.29C58.07 105.05 63.69 108.01 69.1 111.29C74.11 114.32 77.81 118.65 79.32 124.5C79.85 126.55 80.58 128.68 80.46 130.74C80.11 136.98 77.65 142.61 74.5 147.92C74.23 148.38 72.59 148.54 71.92 148.2C64.03 144.16 55.98 140.36 48.42 135.77C41.98 131.85 37.13 126.22 33.98 119.12C30.84 112.06 30.56 104.71 32.21 97.5693C34.18 89.0493 38.68 81.5494 45.24 75.2594L45.25 75.2393ZM39.19 93.6493C35.98 100.8 35.3 107.46 37.6 114.17C40.1 121.45 44.7 127.32 51.33 131.25C57.75 135.05 64.45 138.36 71.06 141.91C73.12 140.2 73.29 137.87 74.12 135.78C76.63 129.46 74.8 124.02 70.51 119.56C67.63 116.57 63.84 114.37 60.24 112.18C56.94 110.17 53.32 108.69 49.89 106.88C44.74 104.15 41.78 99.5193 39.18 93.6493H39.19Z" fill="white"/>
</svg>
