<svg width="500" height="500" viewBox="0 0 500 500" fill="none" xmlns="http://www.w3.org/2000/svg">
<path d="M272.391 498.534C274.728 487.76 275.124 476.036 279.798 466.411C295.167 435 304.317 402.519 300.95 367.464C299.564 353.244 293.464 340.331 285.027 328.488C265.261 300.761 236.9 282.698 210.995 261.942C182.635 239.206 158.789 212.746 148.768 177.454C143.698 159.629 142.311 139.626 144.411 121.207C147.263 96.1339 158.393 73.4372 174.237 52.84C189.646 32.7972 207.43 15.9629 230.602 0C225.057 10.774 220.343 18.696 216.779 27.133C209.49 44.3238 207.47 61.9107 212.421 80.4483C221.928 116.058 245.813 141.289 272.47 164.065C298.296 186.168 325.429 206.765 352.205 227.719C368.96 240.79 380.923 255.802 386.983 277.43C393.281 299.969 384.052 319.932 384.131 342.114C385.715 341.837 388.607 342.114 389.439 341.005C407.66 315.733 424.85 289.59 421.8 256.634C420.652 244.117 415.383 231.799 410.908 219.757C406.55 207.993 400.767 196.744 395.856 185.178C394.945 183.039 395.38 180.345 395.182 177.929C396.291 177.374 397.361 176.78 398.47 176.226C407.382 189.257 417.879 201.497 424.89 215.479C435.268 236.156 445.566 257.466 451.468 279.687C455.905 296.403 454.835 315.06 453.568 332.647C450.161 381.09 425.484 417.69 387.736 446.883C360.92 467.599 329.509 478.531 298.772 491.127C291.087 494.296 283.244 497.029 275.481 500C274.451 499.525 273.421 499.01 272.391 498.534ZM435.743 317.12C434.594 316.486 433.485 315.813 432.337 315.179C430.118 318.07 427.821 320.883 425.682 323.814C415.582 337.479 405.996 351.501 395.301 364.692C390.31 370.831 376.051 371.623 369.713 367.781C362.266 363.305 357.275 351.422 359.573 343.104C361.831 334.944 364.999 326.983 366.663 318.744C372.248 291.214 368.287 265.547 343.848 247.841C309.347 222.847 274.926 197.655 244.862 167.155C220.462 142.399 197.092 117.088 191.784 80.5275C191.349 77.6359 188.22 75.1405 184.655 70.1496C178.475 85.5184 172.692 98.0352 168.335 110.988C160.651 133.882 163.107 156.975 171.306 178.959C182.159 207.993 203.232 229.343 227.473 247.96C244.902 261.387 262.013 275.291 278.729 289.63C300.475 308.326 316.042 331.974 321.389 359.859C325.904 383.586 323.409 408.104 315.447 431.514C311.883 442.011 308.595 452.587 304.396 465.579C342.144 452.547 375.219 436.782 400.015 407.629C422.236 381.526 434.832 351.422 435.783 317.08L435.743 317.12Z" fill="white"/>
<path d="M101.592 200.625C99.8883 209.418 99.3338 218.569 96.3234 226.887C87.1339 252.158 107.652 297.036 129.834 307.772C152.372 318.704 174.633 330.429 196.062 343.421C215.907 355.423 230.563 372.574 236.544 395.746C238.643 403.866 241.535 412.303 241.059 420.463C239.673 445.179 229.929 467.48 217.452 488.513C216.382 490.335 209.886 490.969 207.232 489.622C175.98 473.619 144.094 458.568 114.148 440.387C88.6391 424.859 69.4281 402.559 56.9509 374.436C44.5133 346.471 43.4042 317.357 49.9399 289.075C57.7431 255.327 75.5677 225.619 101.552 200.705L101.592 200.625ZM77.5878 273.547C64.8729 301.87 62.1794 328.25 71.2898 354.829C81.1923 383.665 99.4131 406.916 125.675 422.483C151.105 437.535 177.643 450.646 203.826 464.707C211.986 457.934 212.659 448.705 215.947 440.426C225.889 415.393 218.64 393.845 201.647 376.178C190.24 364.335 175.227 355.621 160.968 346.946C147.896 338.985 133.557 333.122 119.971 325.953C99.5714 315.139 87.8468 296.798 77.5482 273.547H77.5878Z" fill="white"/>
</svg>
