<svg width="500" height="500" viewBox="0 0 500 500" fill="none" xmlns="http://www.w3.org/2000/svg">
<path d="M190.654 87.8761C210.585 87.8761 229.77 87.8761 249.029 87.8761C317.557 87.8761 386.16 87.8761 454.688 87.8761C485.966 87.8761 500 102.059 500 133.636C500 228.888 500 324.141 500 419.468C500 449.551 485.593 463.959 455.285 463.959C318.155 464.033 181.099 464.033 43.9683 463.959C14.034 463.959 0 449.402 0 419.094C0 306.374 0 193.654 0 81.0084C0 50.7754 14.1086 36.7414 44.4162 36.6667C73.6786 36.6667 103.016 36.6667 132.278 36.6667C174.455 36.6667 183.488 44.2062 190.654 87.9508V87.8761ZM474.694 195.296H25.7539C25.7539 270.916 25.7539 344.893 25.7539 418.945C25.7539 434.547 34.8611 439.474 48.5965 439.474C183.114 439.474 317.632 439.474 452.075 439.474C467.528 439.474 474.769 431.859 474.619 416.407C474.395 392.743 474.619 369.154 474.619 345.49C474.619 295.849 474.619 246.132 474.619 195.371L474.694 195.296ZM163.855 112.212C163.855 101.686 163.855 93.6988 163.855 85.7113C163.855 70.5575 156.39 62.4208 141.161 62.3461C108.838 62.1222 76.4407 61.5996 44.1176 62.794C38.071 63.018 27.4708 70.6322 27.2469 75.2604C25.7539 106.016 26.4257 136.846 26.4257 167.004H474.694C474.694 158.569 474.694 151.85 474.694 145.057C474.619 116.019 470.737 112.212 440.878 112.212C399.821 112.212 358.764 112.212 317.707 112.212C267.393 112.212 217.08 112.212 163.855 112.212Z" fill="white"/>
</svg>
