<svg width="500" height="500" viewBox="0 0 500 500" fill="none" xmlns="http://www.w3.org/2000/svg">
<mask id="mask0_19_4812" style="mask-type:luminance" maskUnits="userSpaceOnUse" x="0" y="107" width="500" height="287">
<path d="M500 107.5H0V393.214H500V107.5Z" fill="white"/>
</mask>
<g mask="url(#mask0_19_4812)">
<path d="M252.232 107.5C326.026 149.821 399.776 192.143 473.571 234.509C480.446 238.438 487.187 242.545 497.276 248.571C413.66 296.071 332.455 342.143 248.259 389.955V250.223C163.348 297.589 81.6961 343.214 -0.000362797 388.795C-0.000362797 300.848 -0.0896483 212.857 0.178209 124.911C0.222852 119.107 2.94607 113.304 4.41928 107.5C84.2407 153.438 164.062 199.33 247.768 247.5V107.5C249.285 107.5 250.759 107.5 252.232 107.5ZM18.8836 356.518C83.1247 320 144.776 285 209.732 248.125C143.705 210.714 82.3211 175.938 18.8836 140V356.518ZM266.518 139.732V356.563C330.714 320.089 392.366 285.089 457.41 248.125C392.053 210.982 331.116 176.384 266.518 139.732Z" fill="white"/>
</g>
</svg>
