<svg width="500" height="500" viewBox="0 0 500 500" fill="none" xmlns="http://www.w3.org/2000/svg">
<g clip-path="url(#clip0_19_5039)">
<path d="M251.129 188.645C297.7 188.645 335.452 150.893 335.452 104.323C335.452 57.7521 297.7 20 251.129 20C204.559 20 166.806 57.7521 166.806 104.323C166.806 150.893 204.559 188.645 251.129 188.645Z" stroke="white" stroke-width="21.8431"/>
<path d="M250.948 189.002V368.517" stroke="white" stroke-width="21.8431"/>
<mask id="mask0_19_5039" style="mask-type:luminance" maskUnits="userSpaceOnUse" x="18" y="333" width="464" height="170">
<path d="M460 480.855C460 447.468 437.875 415.448 398.493 391.84C359.11 368.23 305.696 354.967 250.001 354.967C194.305 354.967 140.89 368.23 101.507 391.84C62.125 415.448 40 447.468 40 480.855H250.001H460Z" stroke="black" stroke-width="43.6863"/>
</mask>
<g mask="url(#mask0_19_5039)">
<path d="M460 480.855C460 447.468 437.875 415.448 398.493 391.84C359.11 368.23 305.696 354.967 250.001 354.967C194.305 354.967 140.89 368.23 101.507 391.84C62.125 415.448 40 447.468 40 480.855H250.001H460Z" stroke="white" stroke-width="43.6863"/>
</g>
<path d="M174.276 343.143L117.437 361.665C114.754 362.54 113.287 365.423 114.161 368.106L123.048 395.378C123.922 398.061 126.806 399.528 129.489 398.653L186.329 380.131C189.012 379.258 190.479 376.373 189.604 373.69L180.717 346.418C179.842 343.735 176.959 342.268 174.276 343.143Z" fill="white"/>
<path d="M372.523 406.294C340.473 383.152 296.401 369.798 249.941 369.798C203.48 369.798 159.409 383.152 127.359 406.294C99.4604 426.439 83.1408 452.111 79.418 478.569H249.941H420.463C416.74 452.111 400.422 426.439 372.523 406.294ZM372.523 406.294L379.326 396.871" stroke="white" stroke-width="20"/>
</g>
<defs>
<clipPath id="clip0_19_5039">
<rect width="500" height="500" fill="white"/>
</clipPath>
</defs>
</svg>
