<svg width="122" height="109" viewBox="0 0 122 109" fill="none" xmlns="http://www.w3.org/2000/svg">
<path d="M64.68 74.7997C58.46 74.7997 52.25 74.8297 46.03 74.7897C42.72 74.7697 40.06 73.4797 38.58 70.3797C38.17 69.5197 37.95 68.4897 37.91 67.5297C37.81 65.2897 37.87 63.0397 37.88 60.7897C37.91 56.7297 40.66 53.6797 44.69 53.3497C46.25 53.2197 47.84 53.2997 49.41 53.2997C60.68 53.2997 71.95 53.3297 83.22 53.2797C86.35 53.2597 88.89 54.1697 90.62 56.9097C92.02 59.1397 92.05 68.7297 90.66 70.9597C89.02 73.5897 86.59 74.7697 83.57 74.7897C77.27 74.8197 70.97 74.7897 64.68 74.7897V74.7997ZM64.79 56.9697C58.49 56.9697 52.2 56.9397 45.9 56.9797C43.07 56.9997 41.49 58.6097 41.38 61.4597C41.33 62.7097 41.36 63.9597 41.37 65.1997C41.39 69.7597 42.6 71.0097 47.08 71.0197C58.85 71.0197 70.61 71.0197 82.38 71.0197C82.96 71.0197 83.54 71.0497 84.12 70.9897C86.58 70.7397 87.99 69.2897 88.12 66.7697C88.19 65.3597 88.16 63.9397 88.15 62.5297C88.13 58.3197 86.82 56.9797 82.71 56.9697C76.74 56.9697 70.78 56.9697 64.81 56.9697H64.79Z" fill="white"/>
<path d="M45.26 81.7797C44.8 79.7197 44.44 78.0997 44.01 76.1797H53.8C54.83 78.1597 53.82 79.7097 52.63 81.5297H76.99C76.62 79.7697 76.28 78.1297 75.88 76.1997H85.53C86.73 78.1697 85.38 79.6997 84.61 81.6097C85.63 81.6797 86.41 81.7697 87.2 81.7697C90.19 81.7897 93.17 81.7697 96.16 81.7997C97.32 81.7997 98.43 82.0597 98.3 83.5597C98.19 84.8297 97.36 85.4397 96.09 85.4197C95.59 85.4197 95.09 85.4197 94.6 85.4197C74.69 85.4197 54.78 85.4197 34.87 85.4197C34.21 85.4197 33.4 85.6297 32.91 85.3297C32.23 84.9097 31.5 84.1797 31.32 83.4497C31.05 82.3397 31.96 81.8297 33 81.8197C36.23 81.7797 39.47 81.7797 42.7 81.7697C43.58 81.7697 44.47 81.7697 45.26 81.7697V81.7797Z" fill="white"/>
<path d="M64.2901 20.1201C63.8101 20.3501 63.3701 20.5501 62.9301 20.7601C54.8801 24.5801 46.8401 28.4001 38.7901 32.2301C35.0601 34.0001 31.3101 35.7601 27.6001 37.5801C26.3601 38.1901 25.2601 38.1601 24.6201 36.9001C24.0401 35.7601 24.5701 34.9001 25.7701 34.3301C29.9401 32.3301 34.0501 30.2201 38.2201 28.2301C46.1901 24.4201 54.2101 20.7201 62.1501 16.8601C63.6701 16.1201 64.8701 16.2101 66.3301 16.9001C74.3201 20.6601 82.3401 24.3401 90.3501 28.0501C94.7001 30.0701 99.0301 32.1201 103.38 34.1201C104.66 34.7101 105.62 35.5601 104.84 36.9801C104.09 38.3601 102.88 38.0201 101.6 37.4201C92.1801 33.0201 82.7201 28.6901 73.2801 24.3401C70.6601 23.1301 68.0301 21.9301 65.4101 20.7201C65.0401 20.5501 64.6901 20.3301 64.2901 20.1201Z" fill="white"/>
<path d="M82.8499 51.1504C82.2499 47.6304 81.1899 44.4904 78.5899 41.9904C76.3099 39.8004 73.7099 38.6104 70.5899 38.6204C66.5299 38.6404 62.4699 38.7004 58.4099 38.7804C53.1699 38.8804 49.1799 43.0704 47.8299 47.4704C47.4899 48.5804 47.2799 49.7304 47.0099 50.8604C46.9899 50.9404 46.9199 51.0004 46.7599 51.2304H43.8799C43.0899 49.1304 43.9699 47.1104 44.7099 45.2804C47.1799 39.0804 52.5599 34.6904 59.5799 34.9804C63.3899 35.1404 67.2099 35.2104 71.0199 35.0704C77.6099 34.8204 83.0499 39.8204 85.0799 45.0404C85.4999 46.1104 85.8299 47.2404 86.0399 48.3804C86.5899 51.3604 86.3099 51.6004 82.8699 51.1504H82.8499Z" fill="white"/>
<path d="M49.4702 66.4002C47.9702 66.3602 46.7002 65.0502 46.7002 63.5302C46.7002 61.9002 48.0802 60.5302 49.6702 60.6002C51.0902 60.6502 52.4902 62.0802 52.4902 63.4802C52.4902 65.0302 51.0302 66.4402 49.4702 66.4002Z" fill="white"/>
<path d="M83.4699 63.3802C83.5199 65.0102 82.4099 66.3002 80.8499 66.4002C79.2199 66.5102 78.0299 65.4302 77.9299 63.7602C77.8199 61.9302 78.9199 60.6302 80.5999 60.6002C82.1599 60.5702 83.4099 61.7902 83.4699 63.3802Z" fill="white"/>
</svg>
