<svg width="500" height="500" viewBox="0 0 500 500" fill="none" xmlns="http://www.w3.org/2000/svg">
<path d="M249.551 397.858C211.03 397.858 172.572 398.044 134.052 397.796C113.553 397.672 97.0798 389.683 87.9142 370.485C85.375 365.159 84.0126 358.781 83.7649 352.835C83.1456 338.963 83.5172 325.029 83.5791 311.095C83.7649 285.951 100.796 267.063 125.753 265.019C135.414 264.214 145.261 264.709 154.984 264.709C224.779 264.709 294.573 264.895 364.368 264.586C383.752 264.462 399.482 270.097 410.196 287.066C418.866 300.876 419.052 360.267 410.444 374.077C400.287 390.365 385.238 397.672 366.536 397.796C327.52 397.982 288.504 397.796 249.551 397.796V397.858ZM250.232 287.438C211.216 287.438 172.262 287.252 133.247 287.5C115.721 287.623 105.936 297.594 105.254 315.244C104.945 322.985 105.131 330.726 105.193 338.406C105.316 366.646 112.81 374.387 140.554 374.449C213.446 374.449 286.275 374.449 359.166 374.449C362.758 374.449 366.35 374.635 369.942 374.263C385.177 372.715 393.909 363.735 394.714 348.129C395.147 339.397 394.961 330.603 394.899 321.87C394.776 295.798 386.663 287.5 361.21 287.438C324.238 287.438 287.328 287.438 250.356 287.438H250.232Z" fill="white"/>
<path d="M129.284 441.085C126.435 428.327 124.205 418.295 121.542 406.404H182.172C188.55 418.666 182.295 428.265 174.926 439.537H325.786C323.495 428.637 321.389 418.481 318.912 406.528H378.674C386.106 418.728 377.745 428.204 372.977 440.032C379.294 440.466 384.124 441.023 389.017 441.023C407.534 441.147 425.989 441.023 444.506 441.209C451.69 441.209 458.564 442.819 457.759 452.108C457.077 459.973 451.937 463.751 444.072 463.627C440.976 463.627 437.879 463.627 434.845 463.627C311.543 463.627 188.241 463.627 64.9388 463.627C60.8514 463.627 55.8351 464.928 52.8006 463.07C48.5894 460.469 44.0685 455.948 42.9538 451.427C41.2817 444.553 46.9173 441.395 53.358 441.333C73.3612 441.085 93.4264 441.085 113.43 441.023C118.88 441.023 124.391 441.023 129.284 441.023V441.085Z" fill="white"/>
<path d="M247.135 59.2263C244.163 60.6507 241.438 61.8893 238.713 63.1898C188.86 86.8469 139.068 110.504 89.2148 134.223C66.115 145.185 42.8914 156.084 19.9155 167.355C12.2362 171.133 5.42396 170.947 1.46046 163.144C-2.13146 156.084 1.15081 150.758 8.58237 147.228C34.407 134.842 59.8601 121.775 85.6848 109.451C135.043 85.856 184.71 62.9421 233.882 39.0372C243.296 34.4544 250.727 35.0118 259.769 39.2849C309.251 62.5705 358.918 85.3606 408.524 108.336C435.463 120.846 462.279 133.542 489.218 145.928C497.145 149.582 503.091 154.846 498.26 163.64C493.615 172.186 486.122 170.08 478.195 166.365C419.857 139.116 361.272 112.3 302.81 85.3606C286.585 77.8671 270.297 70.4355 254.072 62.9421C251.78 61.8893 249.613 60.5268 247.135 59.2263Z" fill="white"/>
<path d="M362.077 251.394C358.361 229.595 351.796 210.149 335.695 194.667C321.575 181.104 305.473 173.734 286.151 173.796C261.007 173.92 235.864 174.292 210.721 174.787C178.269 175.406 153.559 201.355 145.199 228.604C143.093 235.478 141.793 242.6 140.121 249.598C139.997 250.094 139.563 250.465 138.572 251.89H120.737C115.844 238.884 121.294 226.375 125.877 215.041C141.174 176.645 174.492 149.458 217.966 151.254C241.562 152.245 265.219 152.678 288.814 151.811C329.625 150.263 363.315 181.228 375.887 213.555C378.488 220.182 380.532 227.18 381.832 234.24C385.238 252.695 383.504 254.181 362.2 251.394H362.077Z" fill="white"/>
<path d="M155.356 345.837C146.066 345.59 138.201 337.477 138.201 328.064C138.201 317.969 146.747 309.485 156.594 309.918C165.388 310.228 174.058 319.084 174.058 327.754C174.058 337.353 165.017 346.085 155.356 345.837Z" fill="white"/>
<path d="M365.916 327.134C366.226 337.228 359.352 345.217 349.691 345.837C339.596 346.518 332.227 339.829 331.607 329.487C330.926 318.154 337.738 310.103 348.143 309.917C357.804 309.732 365.545 317.287 365.916 327.134Z" fill="white"/>
</svg>
