<svg width="500" height="500" viewBox="0 0 500 500" fill="none" xmlns="http://www.w3.org/2000/svg">
<g clip-path="url(#clip0_19_4100)">
<path d="M0 250C0 183.696 26.3392 120.108 73.2233 73.2233C120.108 26.3392 183.696 0 250 0C316.304 0 379.892 26.3392 426.777 73.2233C473.661 120.108 500 183.696 500 250C500 316.304 473.661 379.892 426.777 426.777C379.892 473.661 316.304 500 250 500C183.696 500 120.108 473.661 73.2233 426.777C26.3392 379.892 0 316.304 0 250ZM234.375 33.6562C213.438 40.0312 192.656 59.2812 175.406 91.6246C169.723 102.378 164.835 113.533 160.782 125H234.375V33.6562ZM127.812 125C133.021 108.401 139.715 92.3038 147.812 76.9062C153.216 66.6892 159.456 56.9372 166.468 47.75C127.75 63.8071 94.4377 90.6131 70.4688 125H127.812ZM109.625 234.375C110.562 206.968 113.938 180.688 119.375 156.25H52.3125C40.6599 180.783 33.7067 207.282 31.8125 234.375H109.625ZM151.468 156.25C145.322 181.868 141.784 208.044 140.906 234.375H234.375V156.25H151.468ZM265.625 156.25V234.375H359.062C358.197 208.045 354.668 181.87 348.532 156.25H265.625ZM140.938 265.625C141.805 291.955 145.333 318.13 151.468 343.75H234.375V265.625H140.938ZM265.625 265.625V343.75H348.532C354.375 319.844 358.094 293.5 359.094 265.625H265.625ZM160.782 375C165.094 387.062 170 398.25 175.406 408.375C192.656 440.718 213.468 459.938 234.375 466.344V375H160.782ZM166.468 452.25C159.455 443.063 153.215 433.311 147.812 423.094C139.715 407.695 133.022 391.599 127.812 375H70.4688C94.4362 409.388 127.749 436.195 166.468 452.25ZM119.375 343.75C113.724 318.065 110.46 291.912 109.625 265.625H31.8125C33.75 293.438 40.9062 319.782 52.3125 343.75H119.375ZM333.532 452.25C372.251 436.195 405.564 409.388 429.532 375H372.188C366.978 391.599 360.285 407.695 352.188 423.094C346.785 433.312 340.545 443.064 333.532 452.25ZM265.625 375V466.344C286.562 459.968 307.344 440.718 324.594 408.375C330 398.25 334.906 387.062 339.218 375H265.625ZM380.625 343.75H447.688C459.094 319.782 466.25 293.438 468.188 265.625H390.375C389.54 291.912 386.276 318.065 380.625 343.75ZM468.188 234.375C466.292 207.282 459.339 180.783 447.688 156.25H380.625C386.062 180.688 389.438 206.968 390.375 234.375H468.188ZM352.188 76.9062C359.906 91.4062 366.625 107.532 372.188 125H429.532C405.564 90.6123 372.251 63.8055 333.532 47.75C340.344 56.625 346.594 66.4375 352.188 76.9062ZM339.218 125C335.165 113.532 330.278 102.378 324.594 91.6246C307.344 59.2812 286.562 40.0625 265.625 33.6562V125H339.218Z" fill="white"/>
</g>
<defs>
<clipPath id="clip0_19_4100">
<rect width="500" height="500" fill="white"/>
</clipPath>
</defs>
</svg>
