<svg width="72" height="61" viewBox="0 0 72 61" fill="none" xmlns="http://www.w3.org/2000/svg">
<g clip-path="url(#clip0_17_1139)">
<path d="M71.26 0H0V3.52H71.26V0Z" fill="white"/>
<path d="M0 60.2295L3.17 3.51953V56.5895H67.97V60.2295H0Z" fill="white"/>
<path d="M71.26 3.51953H67.97V60.2195H71.26V3.51953Z" fill="white"/>
<path d="M6.92993 44.73L21.1299 30.52L25.7099 35.1L41.3199 19.49L48.3099 26.47L57.6399 17.14H51.5399V14.21H63.0399V25.83H59.8699V19.37L48.5999 30.64L41.4999 23.54L25.3599 39.68L21.0099 35.34L9.21993 47.14L6.92993 44.73Z" fill="white"/>
<path d="M3.17 3.51953H0V60.2195H3.17V3.51953Z" fill="white"/>
</g>
<defs>
<clipPath id="clip0_17_1139">
<rect width="71.26" height="60.23" fill="white"/>
</clipPath>
</defs>
</svg>
