<svg width="500" height="500" viewBox="0 0 500 500" fill="none" xmlns="http://www.w3.org/2000/svg">
<path d="M0 13.333H224.977V48.5996H185.033H0V13.333Z" fill="white"/>
<path d="M224.977 195.929H0V232.973H224.977V195.929Z" fill="white"/>
<path d="M41.4406 48.5957H0V195.93H41.4406V48.5957Z" fill="white"/>
<path d="M224.975 48.5957H193.17V195.93H224.975V48.5957Z" fill="white"/>
<path d="M184.283 195.93L185.032 48.5957H209.073L206.079 195.93" fill="white"/>
<path d="M274.93 13.333H499.906V48.5996H459.962H274.93V13.333Z" fill="white"/>
<path d="M499.906 195.929H274.93V232.973H499.906V195.929Z" fill="white"/>
<path d="M316.37 48.5957H274.93V195.93H316.37V48.5957Z" fill="white"/>
<path d="M499.999 48.5957H468.193V195.93H499.999V48.5957Z" fill="white"/>
<path d="M459.213 195.93L459.961 48.5957H484.002L481.103 195.93" fill="white"/>
<path d="M0 267.312H224.977V302.579H185.033H0V267.312Z" fill="white"/>
<path d="M224.977 449.908H0V486.952H224.977V449.908Z" fill="white"/>
<path d="M41.4406 302.574H0V449.908H41.4406V302.574Z" fill="white"/>
<path d="M224.975 302.574H193.17V449.908H224.975V302.574Z" fill="white"/>
<path d="M184.283 449.908L185.032 302.574H209.073L206.079 449.908" fill="white"/>
<path d="M274.93 267.312H499.906V302.579H459.962H274.93V267.312Z" fill="white"/>
<path d="M499.906 449.908H274.93V486.952H499.906V449.908Z" fill="white"/>
<path d="M316.37 302.574H274.93V449.908H316.37V302.574Z" fill="white"/>
<path d="M499.999 302.574H468.193V449.908H499.999V302.574Z" fill="white"/>
<path d="M459.213 449.908L459.961 302.574H484.002L481.103 449.908" fill="white"/>
</svg>
