<svg width="500" height="500" viewBox="0 0 500 500" fill="none" xmlns="http://www.w3.org/2000/svg">
<path d="M251.252 74.3108C273.507 49.6475 300.287 30.9676 333.633 25.495C403.975 13.966 460.817 35.2727 486.502 97.2228C509.487 152.752 502.774 207.697 468.989 258.41C420.392 331.378 356.764 390.118 291.53 447.398C281.534 456.154 271.026 464.326 261.03 473.083C253.295 479.942 246.874 479.285 238.92 472.645C167.63 413.176 98.9671 351.152 42.5626 276.725C3.01375 224.48 -11.434 168.002 9.72684 104.155C24.8313 58.7685 69.9257 24.4734 117.939 23.087C176.095 21.4088 185.07 24.8383 251.179 74.2378L251.252 74.3108ZM246.728 113.787C243.371 109.992 237.169 103.425 231.623 96.3472C204.479 61.6873 169.017 46.5828 125.236 48.553C81.0898 50.5231 48.6919 74.4567 33.7334 115.83C15.9291 165.01 27.3852 209.156 55.9887 249.945C107.869 323.935 174.27 384.134 243.079 441.706C245.925 444.041 254.462 443.238 257.819 440.612C273.069 428.718 287.809 416.094 302.111 402.96C358.369 351.444 413.898 299.199 453.593 233.017C480.008 188.944 480.956 142.755 457.752 97.5147C435.059 53.2229 366.907 32.5729 319.039 57.747C293.136 71.3191 271.902 93.7933 246.655 113.787H246.728Z" fill="white"/>
</svg>
