<svg width="500" height="500" viewBox="0 0 500 500" fill="none" xmlns="http://www.w3.org/2000/svg">
<path d="M0 245.118C6.82525 239.497 14.2026 234.428 20.4256 228.205C89.2803 159.652 157.985 90.9473 226.588 22.0926C232.811 15.8695 237.88 8.49225 243.501 1.66699C246.813 1.66699 250.125 1.66699 253.438 1.66699C292.031 41.1631 330.473 80.86 369.316 120.155C407.658 158.949 446.853 196.99 484.744 236.285C492.071 243.913 495.032 255.707 500 265.594C497.491 267.25 494.981 268.906 492.472 270.562C412.175 189.111 331.928 107.709 247.867 22.4439C227.341 44.6259 210.579 63.8471 192.663 81.9139C135 140.079 77.035 197.843 18.9702 255.556C13.3996 261.127 6.37358 265.242 0 270.01C0 261.729 0 253.449 0 245.168V245.118Z" fill="white"/>
<path d="M456.94 497.803H279.534V360.947H219.411V496.448H39.8971C39.8971 466.387 39.8971 436.025 39.8971 405.713C39.8971 361.85 39.1945 317.938 40.3989 274.076C40.7 263.687 47.4751 253.499 51.239 243.211C53.7483 243.964 56.2576 244.717 58.7669 245.47V476.876H198.333V340.923H297.199V477.328H436.665V246.122C438.773 245.118 440.831 244.165 442.938 243.161C447.606 251.241 456.187 259.221 456.288 267.351C457.342 343.332 456.89 419.363 456.89 497.753L456.94 497.803Z" fill="white"/>
<path d="M437.418 62.1899H397.822V125.926C363.946 101.285 384.221 70.3701 376.543 43.1191H455.786V182.886C428.084 169.085 439.125 145.097 437.719 125.675C436.264 105.249 437.418 84.673 437.418 62.1899Z" fill="white"/>
</svg>
