<svg width="500" height="500" viewBox="0 0 500 500" fill="none" xmlns="http://www.w3.org/2000/svg">
<g clip-path="url(#clip0_19_4560)">
<path d="M74.0371 398.984V380.665C89.6404 377.001 100.253 383.697 109.666 393.488C112.193 396.141 114.34 399.111 116.994 401.637C126.848 411.303 138.219 411.934 149.148 403.343C154.517 399.111 159.634 394.562 164.688 390.014C172.963 382.623 182.439 380.412 193.494 379.906C210.045 379.148 223.058 384.202 233.671 396.71C236.703 400.248 240.62 403.217 244.599 405.617C252.875 410.734 261.529 410.797 269.489 404.922C273.721 401.827 277.701 398.289 281.175 394.436C299.432 374.347 337.461 374.411 353.885 395.762C360.013 403.722 367.215 410.418 378.964 409.092C388.061 408.081 394.505 403.217 400.316 397.089C411.75 384.897 425.079 379.401 442.262 379.78C456.16 380.096 466.078 386.16 475.932 394.373C483.45 400.627 491.283 406.502 500 413.387V433.855C488.882 435.181 479.786 432.339 471.826 425.895C467.341 422.294 463.614 417.809 459.318 414.019C444.915 401.195 433.544 401.385 419.205 414.524C415.73 417.683 412.572 421.22 408.908 424.063C387.05 440.993 355.781 438.656 338.03 417.746C321.416 398.1 311.624 401.448 295.515 417.304C278.838 433.728 260.139 439.603 238.345 431.328C230.828 428.485 224.574 422.231 217.878 417.304C214.088 414.524 210.74 411.239 207.076 408.27C199.369 402.08 191.472 402.774 183.955 408.397C178.143 412.819 172.837 417.936 167.088 422.358C142.072 441.625 115.856 439.098 94.6941 416.104C89.1982 410.102 82.123 405.491 74.0371 398.858V398.984Z" fill="white"/>
<path d="M0 326.906C0.379027 319.894 0.758056 312.819 1.13708 305.238C17.5616 304.986 29.5009 310.229 37.7764 322.294C50.8528 341.309 67.4037 339.098 81.3645 325.074C92.0404 314.335 103.474 306.691 119.646 306.375C135.313 306.123 148.452 310.166 159.255 321.663C162.476 325.074 166.014 328.169 169.867 330.886C179.722 337.835 187.303 337.835 196.968 330.507C203.222 325.769 208.591 319.957 214.719 315.093C230.575 302.648 259.191 303.659 274.416 316.988C278.774 320.778 282.502 325.2 286.86 329.054C296.778 337.835 305.622 338.656 316.804 331.202C323.31 326.906 329.185 321.6 335.313 316.672C353.696 302.08 382.123 303.154 400.253 318.694C408.465 325.769 417.246 332.149 427.1 339.856V360.766C411.75 362.282 400.884 355.649 391.093 346.489C388.819 344.341 387.05 341.625 384.649 339.667C370.183 327.411 361.718 327.538 347.568 340.109C338.598 348.068 330.259 356.533 317.751 359.565C296.336 364.745 278.648 359.818 264.119 343.078C249.842 326.59 238.661 326.211 223.5 342.32C207.644 359.186 189.135 366.514 166.898 358.492C158.876 355.586 151.927 349.332 144.788 344.215C140.556 341.183 136.955 337.266 132.786 334.044C126.153 328.927 118.951 329.306 112.192 333.539C107.391 336.571 102.78 340.235 98.9261 344.404C76.6898 368.03 37.9659 367.462 20.4675 342.13C16.2982 336.066 8.9703 332.149 3.09537 327.222C2.08464 327.159 1.01074 327.032 0 326.969V326.906Z" fill="white"/>
<path d="M57.7385 252.997C57.7385 222.549 41.8194 200.629 21.6678 181.677C5.74861 166.769 -0.758017 149.018 0.252722 128.171C1.13712 110.42 3.41127 92.7322 5.62226 75.0442C6.06446 71.5066 9.03351 68.3481 10.8023 65C12.0026 65.2527 13.2028 65.5685 14.3399 65.8212C14.3399 73.4018 14.9084 81.0455 14.2135 88.5629C11.9394 114.589 21.9836 135.183 40.0506 153.377C62.7922 176.308 69.6779 204.545 64.182 235.941C63.1712 241.816 59.9495 247.312 57.7385 252.997Z" fill="white"/>
<path d="M400.379 249.526C400.379 220.72 384.902 199.052 365.509 181.238C347 164.182 343.525 143.651 344.094 121.415C344.473 105.748 347.442 90.145 349.716 74.6049C350.158 71.6358 352.685 68.9827 354.264 66.2031L357.612 66.8348C357.928 71.1305 358.939 75.5525 358.37 79.7849C354.517 108.844 363.045 132.786 384.334 153.569C406.949 175.679 412.634 204.232 408.718 234.87C408.086 239.798 405.622 244.535 404.043 249.336C402.843 249.4 401.579 249.463 400.379 249.589V249.526Z" fill="white"/>
<path d="M231.017 255.02C228.932 250.851 227.669 249.587 227.669 248.261C227.669 222.171 214.845 201.956 197.031 185.026C179.532 168.412 170.436 149.651 172.015 125.14C173.152 107.831 172.141 90.396 178.269 73.782C179.217 71.1288 181.112 68.7915 182.565 66.2646C183.639 66.4542 184.712 66.6437 185.786 66.8332C185.786 72.7713 186.039 78.6462 185.786 84.5843C184.523 109.916 190.714 132.279 209.602 150.472C239.419 179.278 242.451 214.148 231.143 255.02H231.017Z" fill="white"/>
</g>
<defs>
<clipPath id="clip0_19_4560">
<rect width="500" height="500" fill="white"/>
</clipPath>
</defs>
</svg>
