<svg width="142" height="139" viewBox="0 0 142 139" fill="none" xmlns="http://www.w3.org/2000/svg">
<path d="M69.8599 14.4102C96.5099 13.5602 122.52 36.9102 121.16 68.2102C120.09 92.7902 98.6699 118.02 67.4599 116.82C42.7999 115.87 17.3699 94.5502 18.6899 62.9402C19.7399 37.9302 41.1999 13.9402 69.8599 14.4002V14.4102ZM23.9099 65.5902C24.1699 91.5602 44.3899 110.45 67.2199 111.47C96.5199 112.78 114.91 90.1102 115.83 68.1402C117.03 39.3802 94.7999 20.6602 72.2899 19.6302C44.9199 18.3802 23.9999 40.1202 23.8999 65.5902H23.9099Z" fill="white"/>
<path d="M65.9399 53.3701H73.7899V96.0701H65.9399V53.3701Z" fill="white"/>
<path d="M65.9199 37.0098H73.7999V47.0498H65.9199V37.0098Z" fill="white"/>
</svg>
