<svg width="127" height="158" viewBox="0 0 127 158" fill="none" xmlns="http://www.w3.org/2000/svg">
<path d="M27.2899 79.3802C27.2899 61.9402 27.2899 44.4902 27.2899 27.0502C27.2899 21.8502 30.6699 18.4602 35.8199 18.4502C54.3299 18.4502 72.8399 18.4502 91.3499 18.4502C96.0899 18.4502 99.7899 22.1402 99.7899 26.9102C99.7899 61.8802 99.7999 96.8502 99.7899 131.82C99.7899 137.26 95.9899 141.06 90.6399 141.06C72.3799 141.06 54.1199 140.92 35.8599 141.16C31.6299 141.22 27.2099 136.39 27.2399 132.45C27.3799 114.76 27.2999 97.0702 27.2999 79.3702L27.2899 79.3802ZM93.9899 116.06V44.7002H33.0199V116.06H93.9899ZM32.8899 38.7202H94.1599C94.1599 34.9802 94.0899 31.4202 94.1799 27.8602C94.2399 25.6902 93.0699 24.6802 91.1999 24.2702C90.2399 24.0602 89.2199 24.0702 88.2299 24.0702C71.6299 24.0602 55.0299 24.0602 38.4299 24.0702C37.4399 24.0702 36.4199 24.0902 35.4599 24.3002C33.8899 24.6502 32.8599 25.5402 32.8799 27.3402C32.9199 31.0702 32.8899 34.8002 32.8899 38.7102V38.7202ZM94.1299 121.94H33.0199C32.9499 122.38 32.8799 122.62 32.8799 122.87C32.8699 125.44 32.8499 128.02 32.8699 130.59C32.8899 133.9 34.5099 135.51 37.8599 135.52C46.8199 135.53 55.7799 135.52 64.7399 135.52C72.9499 135.52 81.1699 135.53 89.3799 135.52C91.9799 135.52 94.0099 133.88 94.0899 131.59C94.1999 128.44 94.1199 125.29 94.1199 121.94H94.1299Z" fill="white"/>
<path d="M54.51 34.1901V30.1201H72.52V34.1901H54.51Z" fill="white"/>
<path d="M61.48 126.49H65.55V130.77H61.48V126.49Z" fill="white"/>
</svg>
