<svg width="148" height="115" viewBox="0 0 148 115" fill="none" xmlns="http://www.w3.org/2000/svg">
<path d="M61.31 42.0902C55.57 42.1302 51.45 38.2102 51.38 32.6602C51.31 27.0702 55.36 22.8602 60.89 22.8102C66.71 22.7502 70.96 26.7902 70.97 32.3902C70.99 38.0202 66.97 42.0502 61.32 42.0902H61.31ZM61.14 39.0502C64.76 39.0702 67.89 35.9802 67.87 32.4102C67.85 28.9702 64.88 26.0002 61.35 25.8902C57.72 25.7902 54.52 28.7902 54.46 32.3502C54.41 35.9102 57.52 39.0302 61.13 39.0502H61.14Z" fill="white"/>
<path d="M124.8 86.5202C124.77 92.0202 120.55 96.1702 115.03 96.1302C109.44 96.0902 105.48 92.0102 105.48 86.3102C105.48 80.5002 109.56 76.5002 115.39 76.5702C120.83 76.6402 124.83 80.8802 124.79 86.5202H124.8ZM121.7 86.3302C121.7 82.7102 118.67 79.6402 115.11 79.6602C111.58 79.6802 108.5 82.8002 108.51 86.3602C108.51 89.9102 111.63 93.0502 115.14 93.0502C118.65 93.0502 121.7 89.9202 121.7 86.3302Z" fill="white"/>
<path d="M51.3701 86.2001C51.4101 80.8101 55.7801 76.5601 61.2401 76.5801C66.7801 76.6001 71.0501 81.0301 70.9601 86.6501C70.8701 92.0201 66.4401 96.2101 60.9501 96.1401C55.5601 96.0701 51.3401 91.6801 51.3801 86.2101L51.3701 86.2001ZM67.8601 86.2201C67.7901 82.7101 64.5401 79.6001 61.0301 79.6701C57.5201 79.7401 54.3801 82.9902 54.4501 86.4802C54.5301 89.9702 57.8101 93.1301 61.2801 93.0501C64.7701 92.9801 67.9201 89.7001 67.8501 86.2201H67.8601Z" fill="white"/>
<path d="M97.8002 86.2401C97.8302 91.9201 93.8502 96.0701 88.3102 96.1401C82.7802 96.2001 78.5002 92.0601 78.4502 86.6101C78.4002 80.8201 82.4702 76.5901 88.1002 76.5801C93.7102 76.5801 97.7702 80.6201 97.8002 86.2401ZM94.7702 86.4401C94.8202 82.9001 91.7502 79.7301 88.2302 79.6701C84.6802 79.6101 81.6102 82.6501 81.5602 86.2601C81.5102 89.8201 84.5602 93.0101 88.0502 93.0501C91.5602 93.0901 94.7202 89.9801 94.7702 86.4401Z" fill="white"/>
<path d="M61.1301 69.0899C55.6101 69.0899 51.3901 64.91 51.3801 59.45C51.3701 53.74 55.5501 49.6799 61.3701 49.7299C66.9301 49.7899 71.0001 53.9399 70.9701 59.5299C70.9401 64.9699 66.6901 69.0899 61.1401 69.0899H61.1301ZM67.8701 59.2999C67.8001 55.8199 64.5501 52.68 61.0701 52.74C57.5601 52.8 54.4201 56.0199 54.4701 59.4999C54.5201 63.0099 57.7001 66.04 61.2801 65.98C64.8701 65.92 67.9401 62.81 67.8801 59.29L67.8701 59.2999Z" fill="white"/>
<path d="M88.0502 22.8106C93.8202 22.7906 97.7902 26.6806 97.8102 32.3706C97.8302 38.1306 93.9302 42.0706 88.2002 42.0906C82.4002 42.1006 78.4802 38.2506 78.4602 32.5206C78.4502 26.7106 82.2802 22.8306 88.0502 22.8106ZM94.7802 32.3706C94.7302 28.7506 91.6402 25.8106 87.9802 25.8906C84.3602 25.9706 81.5902 28.7806 81.5602 32.3906C81.5302 36.0806 84.4702 39.0506 88.1502 39.0506C91.7802 39.0506 94.8302 35.9706 94.7802 32.3706Z" fill="white"/>
<path d="M115.13 22.8105C120.93 22.8105 124.79 26.6605 124.79 32.4405C124.79 38.2205 120.92 42.0905 115.15 42.0905C109.37 42.0905 105.48 38.2205 105.48 32.4605C105.48 26.6905 109.36 22.8105 115.13 22.8105ZM115.05 25.9005C111.36 25.9605 108.42 28.9805 108.51 32.6105C108.6 36.2305 111.74 39.1805 115.36 39.0505C118.92 38.9205 121.69 36.0505 121.7 32.4605C121.71 28.7505 118.76 25.8405 115.05 25.9005Z" fill="white"/>
<path d="M97.8002 59.4605C97.8002 65.1605 93.8202 69.1005 88.0902 69.0905C82.3402 69.0905 78.4502 65.1605 78.4502 59.3905C78.4502 53.7205 82.4702 49.7205 88.1502 49.7305C93.8602 49.7405 97.8102 53.7205 97.8002 59.4505V59.4605ZM88.1402 65.9905C91.7802 65.9705 94.8202 62.9305 94.7802 59.3305C94.7302 55.7705 91.5202 52.6605 87.9902 52.7505C84.5602 52.8405 81.6202 55.8505 81.5702 59.3305C81.5102 63.0505 84.4402 66.0105 88.1502 66.0005L88.1402 65.9905Z" fill="white"/>
<path d="M115.03 69.0905C109.33 69.0705 105.45 65.1105 105.48 59.3205C105.5 53.6105 109.49 49.7005 115.25 49.7405C120.91 49.7705 124.82 53.7905 124.8 59.5405C124.77 65.2605 120.84 69.1205 115.03 69.1005V69.0905ZM115.13 65.9805C118.85 65.9905 121.76 63.0405 121.7 59.3105C121.64 55.8105 118.73 52.8305 115.28 52.7405C111.73 52.6505 108.56 55.7405 108.52 59.3205C108.48 62.9605 111.47 65.9705 115.14 65.9805H115.13Z" fill="white"/>
</svg>
