<svg width="127" height="86" viewBox="0 0 127 86" fill="none" xmlns="http://www.w3.org/2000/svg">
<g clip-path="url(#clip0_17_1267)">
<mask id="mask0_17_1267" style="mask-type:luminance" maskUnits="userSpaceOnUse" x="0" y="0" width="127" height="86">
<path d="M127 0H0V85.15H127V0Z" fill="white"/>
</mask>
<g mask="url(#mask0_17_1267)">
<path d="M113.01 81H13.98V85.15H113.01V81Z" fill="white"/>
<path d="M63.6001 79.0901C49.9901 79.0901 36.3801 79.0901 22.7601 79.0901C19.2401 79.0901 18.3101 78.1801 18.3101 74.7201C18.3101 56.5701 18.3101 38.4201 18.3101 20.2701C18.3101 16.7901 19.2601 15.8301 22.7001 15.8301C50.0901 15.8301 77.4801 15.8301 104.87 15.8301C108.08 15.8301 109.22 16.9201 109.22 20.0801C109.23 38.3101 109.23 56.5401 109.22 74.7801C109.22 78.0501 108.17 79.0801 104.93 79.0901C91.1501 79.0901 77.3701 79.0901 63.6001 79.0901ZM22.4401 74.8701H104.94V20.0601H22.4501V74.8601L22.4401 74.8701Z" fill="white"/>
</g>
</g>
<defs>
<clipPath id="clip0_17_1267">
<rect width="127" height="86" fill="white"/>
</clipPath>
</defs>
</svg>
