<svg width="500" height="500" viewBox="0 0 500 500" fill="none" xmlns="http://www.w3.org/2000/svg">
<path d="M500 404.041H0V424.995H500V404.041Z" fill="white"/>
<path d="M250.529 394.398C181.813 394.398 113.096 394.398 44.3293 394.398C26.5569 394.398 21.8613 389.804 21.8613 372.334C21.8613 280.695 21.8613 189.056 21.8613 97.4174C21.8613 79.847 26.6579 75 44.0263 75C182.318 75 320.609 75 458.901 75C475.108 75 480.864 80.5034 480.864 96.4581C480.914 188.501 480.914 280.544 480.864 372.637C480.864 389.147 475.562 394.348 459.204 394.398C389.629 394.398 320.054 394.398 250.529 394.398ZM42.7136 373.091H459.254V96.3572H42.7641V373.041L42.7136 373.091Z" fill="white"/>
</svg>
