<svg width="152" height="187" viewBox="0 0 152 187" fill="none" xmlns="http://www.w3.org/2000/svg">
<path d="M77.4898 153.55C45.7798 154.35 20.0798 127.17 19.9798 96.5003C19.8798 66.0203 45.5098 37.2503 80.7298 38.9603C107.39 40.2603 136.28 63.3603 134.75 99.4903C133.58 127.11 109.59 154.19 77.4898 153.55ZM128.95 96.3503C128.63 67.4103 105.82 45.9203 79.6098 44.9503C48.9198 43.8203 25.5798 68.5303 26.0098 96.9803C26.4398 125.44 48.9898 146.9 75.4898 147.77C106 148.76 128.76 124.45 128.95 96.3503Z" fill="white"/>
<path d="M77.0702 101.88C77.6902 103.61 77.8902 105.2 78.7302 106.31C80.1602 108.2 79.1002 109.02 77.9202 110.39C72.0402 117.18 59.9802 118.76 52.2502 115.16C46.5202 112.49 42.3202 108.43 40.0502 102.73C37.3302 95.9201 37.7502 89.1001 41.4702 82.5701C44.9102 76.5301 50.2102 72.9601 56.7502 71.4801C61.5602 70.3901 66.4802 70.7801 71.1602 72.8101C75.4802 74.6801 78.9902 77.5101 81.3402 81.5501C82.9502 84.3301 84.1202 87.3701 85.5002 90.2801C88.1502 95.9001 90.7302 101.55 93.5002 107.11C95.1402 110.41 98.4902 110.38 101.52 110.41C102.99 110.43 104.6 109.9 105.92 109.19C109.35 107.36 110.18 105.54 109.55 101.52C109.14 98.8801 106.99 98.2001 104.76 97.3401C100.53 95.7101 96.3102 93.9401 92.3602 91.7301C88.7902 89.7401 87.6402 84.6901 88.4502 80.7001C89.7302 74.4701 94.0702 72.0501 99.5602 71.3701C104.44 70.7701 108.48 72.9801 111.43 76.9601C111.68 77.2901 111.79 77.9201 111.66 78.3101C111.06 80.0001 107.21 80.7301 105.9 79.4401C102.8 76.4101 97.8702 76.8301 95.7402 79.5701C93.3902 82.5801 93.9102 86.4601 98.9702 88.3901C102.76 89.8301 106.67 91.0001 110.34 92.6801C118.59 96.4401 118.48 108.13 111.79 113.24C102.73 120.16 89.8302 117.57 85.4002 106.08C83.1702 100.3 79.9502 94.9001 77.6902 89.1301C75.7602 84.2001 72.7902 80.5501 67.8302 78.7801C62.9802 77.0501 58.0702 77.0901 53.4902 79.7101C46.3902 83.7701 44.1402 90.2101 45.5202 97.8901C46.4402 103.02 49.7302 106.9 54.5102 108.9C62.2702 112.15 70.4702 110.38 75.3202 103.48C75.7202 102.91 76.3702 102.51 77.0802 101.88H77.0702Z" fill="white"/>
</svg>
