<svg width="46" height="80" viewBox="0 0 46 80" fill="none" xmlns="http://www.w3.org/2000/svg">
<path d="M43.91 0.0996094C43.97 25.6896 44.04 51.2796 44.08 76.8696C44.08 77.2896 43.8 77.6996 43.45 78.6696C29.31 65.6696 15.41 52.8996 0 38.7496C1.91 37.5796 3.74 36.8096 5.14 35.5496C16.53 25.1996 27.85 14.7896 39.16 4.34961C40.54 3.06961 41.69 1.51961 42.95 0.0996094C43.27 0.0996094 43.59 0.0996094 43.91 0.0996094ZM38.76 67.0896V12.0096C28.47 21.4896 18.77 30.4296 8.84 39.5796C18.93 48.8596 28.55 57.7096 38.76 67.0896Z" fill="white"/>
</svg>
