<svg width="94" height="140" viewBox="0 0 94 140" fill="none" xmlns="http://www.w3.org/2000/svg">
<g clip-path="url(#clip0_17_1279)">
<path d="M46.8401 126.49C42.2701 126.49 37.6901 126.35 33.1201 126.52C27.2201 126.74 21.9801 121.75 22.2301 115.53C22.4301 110.55 22.2101 105.55 22.2901 100.56C22.3501 96.7494 21.0101 93.3894 19.7601 89.8594C17.4001 83.1894 12.1401 78.7294 8.27012 73.2194C6.98012 71.3894 5.73012 69.4394 4.94012 67.3594C3.36012 63.1694 1.76011 58.9194 0.840117 54.5594C0.150117 51.2794 0.470121 47.7794 0.430121 44.3794C0.380121 40.0094 1.45012 35.8594 3.18012 31.8794C4.55012 28.7294 5.78012 25.4894 7.50012 22.5394C10.6001 17.1894 14.7401 12.6994 19.9201 9.23945C23.8501 6.60945 28.0101 4.59945 32.5101 3.00945C38.9301 0.739455 45.4301 0.0194548 52.0701 0.579455C55.0701 0.829455 58.0201 2.01945 60.9201 3.00945C63.5801 3.90945 66.1801 5.01945 68.7501 6.17945C75.3601 9.17945 80.5601 13.9794 84.7001 19.8094C88.4401 25.0694 90.9801 30.8494 92.5001 37.2894C93.5401 41.6894 93.7701 45.9794 93.4701 50.2694C93.2001 54.1894 92.0801 58.1194 90.8201 61.8694C89.5801 65.5894 88.0201 69.2694 86.0301 72.6394C84.3601 75.4794 81.7001 77.7294 79.8001 80.4594C77.8601 83.2394 76.3001 86.2894 74.5801 89.2194C69.8101 97.3394 72.0601 106.27 71.7801 114.87C71.6401 119.16 70.1501 122.53 66.9101 124.9C65.3801 126.02 63.0401 126.33 61.0401 126.42C56.3101 126.63 51.5701 126.49 46.8301 126.49H46.8401ZM46.8401 119.76C46.8401 119.76 46.8401 119.76 46.8401 119.75C50.8301 119.75 54.8201 119.8 58.8101 119.73C62.3201 119.67 64.4201 117.58 64.4701 114.08C64.5401 109.01 64.6001 103.93 64.4801 98.8594C64.3801 94.6894 65.5001 90.9094 66.9701 87.0294C69.1601 81.2594 72.7401 76.4594 76.6701 71.9994C82.5701 65.2994 85.3801 57.4794 86.0301 48.8494C86.2701 45.6494 85.2701 42.3594 84.9101 39.0994C84.2701 33.2294 81.4601 28.3494 77.9801 23.7994C73.8401 18.3794 68.7101 14.3294 62.4001 11.4694C57.9601 9.45945 53.3501 8.67945 48.7101 8.16945C43.9701 7.64945 39.3201 8.90945 34.7201 10.2994C30.6901 11.5094 27.0901 13.4194 23.8601 15.9494C18.7001 19.9994 14.2701 24.6694 11.6001 30.8994C9.58012 35.6194 8.31012 40.4594 7.86012 45.5194C7.42012 50.5394 8.50012 55.3794 10.4301 59.9794C11.8901 63.4494 13.2101 67.1694 15.4901 70.0694C18.4401 73.8194 21.5801 77.3494 24.1001 81.4894C27.5301 87.1394 29.7601 92.9294 29.4901 99.6394C29.3001 104.46 29.4201 109.29 29.4901 114.11C29.5401 117.63 31.6401 119.7 35.1101 119.75C39.0201 119.8 42.9201 119.76 46.8301 119.76H46.8401Z" fill="white"/>
<path d="M57.5673 85.8182C58.8895 80.2163 55.4201 74.6033 49.8182 73.2811C44.2163 71.9589 38.6033 75.4283 37.2811 81.0302C35.9589 86.6321 39.4283 92.2452 45.0302 93.5674C50.6321 94.8895 56.2452 91.4201 57.5673 85.8182Z" fill="white" stroke="#FF3C31" stroke-width="5" stroke-miterlimit="10"/>
<path d="M51 94H44V110H51V94Z" fill="#FF3C31"/>
<path d="M55.5501 129.62H37.3901C34.6066 129.62 32.3501 131.876 32.3501 134.66C32.3501 137.443 34.6066 139.7 37.3901 139.7H55.5501C58.3336 139.7 60.5901 137.443 60.5901 134.66C60.5901 131.876 58.3336 129.62 55.5501 129.62Z" fill="white"/>
</g>
<defs>
<clipPath id="clip0_17_1279">
<rect width="94" height="140" fill="white"/>
</clipPath>
</defs>
</svg>
