<svg width="500" height="500" viewBox="0 0 500 500" fill="none" xmlns="http://www.w3.org/2000/svg">
<path d="M400.15 316.958H470.323C468.366 325.57 466.871 332.224 465.377 338.879H369.369C382.002 279.096 394.421 220.488 406.84 161.667H500C498.435 169.175 497.047 175.865 495.481 183.445H427.799C424.49 201.024 421.323 217.962 417.764 236.964H478.828C478.151 244.722 477.618 250.913 476.942 258.777H412.071C408.014 278.491 404.278 296.746 400.15 316.958Z" fill="white"/>
<path d="M283.005 338.7H251.976C250.232 279.914 248.488 221.59 246.709 162.2H274.429V293.187C275.995 293.329 277.561 293.471 279.127 293.614C298.52 249.845 317.914 206.075 337.521 161.844H364.53C337.13 221.341 310.406 279.344 283.041 338.735L283.005 338.7Z" fill="white"/>
<path d="M98.8186 316.886C97.6799 325.106 96.7903 331.547 95.8295 338.663H0C12.5614 279.273 24.9093 220.843 37.3639 161.879H62.9848C52.1671 213.583 41.5629 264.327 30.5672 316.886H98.8542H98.8186Z" fill="white"/>
<path d="M178.28 162.06H204.008C191.411 221.593 179.063 279.987 166.608 338.773H141.059C153.584 279.24 165.968 220.561 178.28 162.06Z" fill="white"/>
</svg>
