<svg width="100" height="111" viewBox="0 0 100 111" fill="none" xmlns="http://www.w3.org/2000/svg">
<path d="M52.51 95.2297C50.9 91.8097 49.26 88.3997 47.67 84.9697C42.86 74.5897 38.24 64.1197 33.24 53.8397C26.44 39.8797 36.78 23.2097 52.3 22.8997C62.57 22.6997 72.06 29.6097 74.24 40.7997C75.1 45.2197 74.38 49.5897 72.46 53.7097C67.78 63.7897 63.09 73.8597 58.41 83.9297C56.67 87.6697 54.94 91.4097 53.2 95.1497C52.97 95.1797 52.73 95.1997 52.5 95.2297H52.51ZM52.82 87.3197C53.23 86.5697 53.39 86.3097 53.51 86.0397C57.12 78.3097 60.7401 70.5797 64.3301 62.8297C66.3801 58.3997 68.77 54.0697 70.28 49.4497C72.69 42.0797 69.29 33.5797 62.86 29.3397C56.72 25.2897 47.82 25.4997 42.21 29.7497C35.71 34.6697 32.7 43.4997 35.75 50.3097C40.67 61.2697 45.74 72.1597 50.76 83.0697C51.36 84.3697 52 85.6397 52.82 87.3197Z" fill="white"/>
<path d="M62.9699 44.6093C62.9599 50.3393 58.6399 54.5593 52.7899 54.5493C46.9899 54.5493 42.6699 50.2693 42.6599 44.5193C42.6599 38.6693 47.0099 34.4293 52.9899 34.4493C58.7299 34.4693 62.9699 38.7993 62.9599 44.5993L62.9699 44.6093ZM52.9099 51.1393C56.5799 51.0893 59.4999 48.0893 59.4599 44.4193C59.4199 40.7293 56.4399 37.8393 52.7299 37.8893C49.1399 37.9393 46.0499 41.0593 46.0999 44.5893C46.1499 48.1193 49.3399 51.1793 52.9099 51.1293V51.1393Z" fill="white"/>
</svg>
