<svg width="44" height="72" viewBox="0 0 44 72" fill="none" xmlns="http://www.w3.org/2000/svg">
<g clip-path="url(#clip0_17_1311)">
<path d="M21.2799 71.9799C20.3999 70.1699 19.5099 68.3699 18.6599 66.5499C13.5999 55.7099 8.54994 44.8599 3.50994 34.0099C1.51994 29.7199 -0.180061 25.3799 0.0199387 20.4699C0.499939 8.7999 10.3299 0.119898 20.6599 -0.000102408C28.9699 -0.0901024 35.4199 3.0999 39.8099 10.1199C44.1099 16.9899 44.1099 24.1599 40.7099 31.4399C35.7199 42.1299 30.7899 52.8499 25.8199 63.5499C24.5399 66.3099 23.2199 69.0599 21.9199 71.8199C21.7099 71.8699 21.4899 71.9299 21.2799 71.9799ZM21.5499 64.1099C22.5399 62.0999 23.3299 60.5899 24.0499 59.0499C27.5899 51.4199 31.1299 43.7799 34.6299 36.1299C36.1399 32.8299 37.9999 29.6199 38.9399 26.1599C40.8099 19.3099 38.9899 13.1999 33.7899 8.2999C28.7099 3.5199 22.6399 2.3099 16.0699 4.2799C6.74994 7.0699 -0.0900617 18.3399 5.44994 29.8099C10.0399 39.3199 14.3599 48.9599 18.8199 58.5399C19.6299 60.2799 20.5099 61.9899 21.5499 64.0999V64.1099Z" fill="white"/>
<path d="M31.5399 19.9495V23.1295C24.9199 23.1895 18.3799 23.1695 11.6499 23.1295V19.9395H31.5399V19.9495Z" fill="white"/>
<path d="M23.19 31.5004H20.01C19.95 24.8804 19.97 18.3404 20.01 11.6104H23.2V31.5004H23.19Z" fill="white"/>
</g>
<defs>
<clipPath id="clip0_17_1311">
<rect width="43.15" height="71.98" fill="white"/>
</clipPath>
</defs>
</svg>
