<svg width="500" height="500" viewBox="0 0 500 500" fill="none" xmlns="http://www.w3.org/2000/svg">
<path d="M247.911 500C236.782 476.36 225.445 452.789 214.455 429.079C181.206 357.329 149.271 284.957 114.709 213.898C67.7054 117.401 139.179 2.17205 246.459 0.0292207C317.449 -1.35325 383.047 46.4111 398.116 123.76C404.061 154.313 399.084 184.52 385.812 212.999C353.462 282.675 321.043 352.283 288.693 421.89C276.666 447.743 264.708 473.595 252.68 499.447C251.09 499.654 249.431 499.793 247.841 500H247.911ZM250.053 445.323C252.887 440.139 253.993 438.342 254.823 436.475C279.776 383.043 304.799 329.61 329.615 276.04C343.785 245.418 360.305 215.487 370.743 183.552C387.402 132.608 363.9 73.8532 319.453 44.5448C277.012 16.5498 215.492 18.0014 176.713 47.3789C131.783 81.3877 110.977 142.424 132.059 189.497C166.068 265.256 201.114 340.532 235.814 415.946C239.961 424.932 244.385 433.711 250.053 445.323Z" fill="white"/>
<path d="M320.212 150.093C320.143 189.701 290.282 218.871 249.844 218.802C209.753 218.802 179.891 189.217 179.822 149.471C179.822 109.034 209.891 79.7255 251.227 79.8638C290.904 80.002 320.212 109.933 320.143 150.024L320.212 150.093ZM250.674 195.231C276.042 194.885 296.226 174.148 295.95 148.78C295.673 123.273 275.075 103.297 249.43 103.642C224.614 103.988 203.255 125.554 203.601 149.955C203.946 174.356 225.997 195.508 250.674 195.162V195.231Z" fill="white"/>
</svg>
