<svg width="146" height="167" viewBox="0 0 146 167" fill="none" xmlns="http://www.w3.org/2000/svg">
<path d="M26.0699 117.61C25.7699 111.44 28.7799 106.77 32.9199 102.63C39.9799 95.5702 47.0799 88.5502 54.0999 81.4502C61.9599 73.5102 73.7799 73.2702 81.8999 80.9902C83.1599 82.1902 84.3399 83.4702 85.6199 84.6402C86.7299 85.6602 86.6999 86.6502 85.4899 87.3902C84.2899 88.1202 83.7399 90.9402 81.5199 88.8202C80.1499 87.5202 78.8499 86.1402 77.4499 84.8702C71.9799 79.8702 64.8799 79.5102 59.4699 84.6802C51.1299 92.6402 42.9299 100.77 34.9999 109.14C30.7399 113.63 30.0599 120.02 34.2399 125.27C36.5799 128.22 39.1799 131.21 42.2799 133.24C47.6999 136.79 53.5899 136.02 58.6799 131.11C63.4999 126.45 68.2099 121.67 72.8899 116.86C74.1499 115.56 75.1599 115.03 76.4599 116.68C77.5099 118.02 79.5799 118.9 77.2299 121.11C72.4399 125.6 67.9299 130.37 63.2699 134.99C58.4399 139.76 52.5899 141.85 45.8899 140.85C43.6299 140.51 41.2599 139.54 39.3899 138.22C33.5399 134.09 28.3099 129.34 26.2299 122.09C26.1599 121.85 26.0799 121.61 26.0699 121.36C26.0499 120.11 26.0699 118.86 26.0699 117.61Z" fill="white"/>
<path d="M65.2402 104.9C66.2702 103.78 67.1602 102.59 68.2902 101.71C68.7102 101.39 69.9102 101.53 70.4002 101.92C74.3402 105.05 78.6402 106.47 83.4702 104.44C85.3702 103.64 87.2602 102.46 88.7302 101.02C96.4002 93.52 103.92 85.87 111.52 78.31C117.47 72.39 117.21 64.41 111.34 58.7C110.22 57.61 109.07 56.54 107.98 55.42C102.23 49.53 94.4802 49.65 88.7202 55.33C83.6602 60.32 78.6502 65.38 73.6402 70.41C72.4902 71.56 71.5902 72.7 69.9202 70.79C67.5302 68.05 67.4102 68.17 69.4502 66.13C74.3602 61.21 79.2802 56.29 84.1802 51.36C92.1002 43.39 104.28 43.28 112.15 51.28C114.8 53.97 117.67 56.71 119.44 59.96C123.47 67.38 122.03 75.9 116.23 81.9C108.42 89.98 100.45 97.91 92.4002 105.75C87.8702 110.17 82.1602 111.85 75.9802 110.86C71.9102 110.21 68.1602 108.4 65.2502 104.9H65.2402Z" fill="white"/>
</svg>
