<svg width="97" height="90" viewBox="0 0 97 90" fill="none" xmlns="http://www.w3.org/2000/svg">
<path d="M58.3099 58.3296C45.7999 67.1296 32.0399 62.9896 25.7899 55.0696C17.9199 45.1096 18.4699 32.2996 26.8699 23.7196C34.8499 15.5696 47.9199 14.4596 56.8199 20.7196C66.4699 27.5096 70.8599 41.9696 61.7199 55.0696C64.3899 57.5996 67.1299 60.2296 69.9099 62.8196C72.6399 65.3596 75.4099 67.8596 78.6699 70.8496C76.9999 72.3496 75.9199 73.3296 74.6099 74.5096C71.6799 71.6296 68.9699 68.9696 66.2799 66.2996C63.6299 63.6696 61.0099 61.0296 58.2999 58.3196L58.3099 58.3296ZM23.4899 40.0396C23.4899 51.2196 32.4199 60.1296 43.6199 60.1296C54.7899 60.1296 63.6799 51.1796 63.6599 39.9696C63.6399 28.8996 54.4299 19.6596 43.5199 19.7596C32.4199 19.8696 23.4799 28.9096 23.4899 40.0396Z" fill="white"/>
</svg>
