<svg width="213" height="213" viewBox="0 0 213 213" fill="none" xmlns="http://www.w3.org/2000/svg">
<path d="M111.81 145.58C110.78 148.54 111.48 150.21 113.87 151.56C121.56 155.89 121.42 167.99 113.84 172.66C109.06 175.6 104.15 175.52 99.0401 171.85C95.3801 169.23 93.4001 163.42 94.7901 158.84C95.7301 155.72 96.9601 152.61 100.31 151.3C102.82 150.32 103.28 148.6 102.63 145.9C101.54 145.8 100.31 145.59 99.0901 145.59C89.3901 145.56 79.6801 145.59 69.9801 145.57C64.0801 145.56 61.7001 143.31 61.5801 137.46C61.4701 131.96 61.4701 126.46 61.5801 120.96C61.6901 115.39 64.5001 112.62 69.9401 112.62C94.6901 112.6 119.43 112.6 144.18 112.62C149.78 112.62 152.35 115.22 152.4 120.91C152.45 126.57 152.45 132.23 152.4 137.89C152.35 142.97 149.77 145.53 144.66 145.56C135.28 145.6 125.9 145.57 116.52 145.57C114.94 145.57 113.36 145.57 111.82 145.57L111.81 145.58ZM107.05 141.65C119 141.65 130.95 141.7 142.9 141.62C147.29 141.59 148.39 140.44 148.47 136.15C148.55 131.79 148.53 127.43 148.47 123.07C148.41 117.92 147.05 116.57 141.75 116.57C118.66 116.55 95.5701 116.55 72.4701 116.57C66.8201 116.57 65.9101 117.45 65.8301 122.94C65.7701 127.14 65.7701 131.34 65.8301 135.54C65.9001 140.82 66.7301 141.63 72.1601 141.65C83.7901 141.68 95.4101 141.66 107.04 141.65H107.05ZM98.8901 161.9C98.8201 166.62 101.88 169.97 106.45 170.17C111.05 170.37 115.38 166.33 115.33 161.89C115.28 157.88 111.35 153.94 107.25 153.79C102.62 153.62 98.9701 157.17 98.8901 161.9Z" fill="white"/>
<path d="M107.03 39.7304C119.32 39.7304 131.62 39.9604 143.9 39.6204C149.18 39.4804 152.88 42.6304 152.48 48.0604C152.09 53.3704 152.43 58.7304 152.39 64.0704C152.34 70.1104 149.83 72.7004 143.94 72.7004C119.36 72.7204 94.7699 72.7204 70.1899 72.7004C64.4499 72.7004 61.6499 69.9304 61.5599 64.1204C61.4799 58.7804 61.6199 53.4404 61.5199 48.1104C61.4199 42.8404 64.5999 39.4504 70.1599 39.6204C82.4399 39.9904 94.7399 39.7404 107.03 39.7404V39.7304ZM107.21 43.6604C95.2599 43.6604 83.3099 43.6304 71.3599 43.6804C66.8499 43.7004 65.9499 44.5504 65.8499 49.0304C65.7399 53.8704 65.7399 58.7204 65.8699 63.5604C65.9699 67.1404 67.0899 68.3004 70.3899 68.6304C71.6699 68.7604 72.9699 68.6904 74.2599 68.6904C91.3799 68.6904 108.49 68.6904 125.61 68.6904C131.42 68.6904 137.24 68.7604 143.05 68.6604C146.72 68.5904 148.35 66.9604 148.45 63.3204C148.57 59.1204 148.35 54.9204 148.52 50.7304C148.74 45.0904 147.29 43.5204 141.61 43.6104C130.15 43.8004 118.68 43.6704 107.22 43.6704L107.21 43.6604Z" fill="white"/>
<path d="M107.26 76.7406C119.7 76.7406 132.15 76.7406 144.59 76.7406C146.54 76.7406 148.37 76.7806 150 78.2606C151.54 79.6606 152.45 81.1106 152.43 83.2506C152.36 89.5506 152.48 95.8606 152.38 102.161C152.32 105.731 149.89 108.161 146.39 108.521C145.59 108.601 144.78 108.561 143.97 108.561C119.41 108.561 94.8399 108.581 70.2799 108.521C68.5599 108.521 66.7099 108.281 65.1499 107.621C62.7199 106.581 61.6399 104.341 61.6099 101.741C61.5499 95.7606 61.4599 89.7806 61.6299 83.8006C61.7599 79.0706 64.2299 76.7706 68.9799 76.7506C81.7499 76.7006 94.5099 76.7306 107.28 76.7306L107.26 76.7406ZM107.25 104.481C118.24 104.481 129.22 104.481 140.21 104.481C141.66 104.481 143.14 104.521 144.56 104.281C147.46 103.771 148.41 102.701 148.46 99.7406C148.54 94.8906 148.55 90.0406 148.45 85.2006C148.39 82.5506 147.31 81.3306 144.79 80.9206C143.37 80.6906 141.89 80.7606 140.44 80.7606C118.14 80.7606 95.8499 80.7606 73.5499 80.7606C72.7399 80.7606 71.9299 80.7306 71.1299 80.7706C66.9199 80.9606 65.9499 81.8406 65.8699 85.9506C65.7799 90.3106 65.7999 94.6806 65.8699 99.0406C65.9299 103.221 66.7899 104.101 70.9199 104.441C72.1999 104.551 73.4999 104.491 74.7999 104.491C85.6299 104.491 96.4499 104.491 107.28 104.491L107.25 104.481Z" fill="white"/>
<path d="M144.61 166.14C139.28 166.14 133.95 166.14 128.62 166.14C127.49 166.14 126.33 166.22 125.25 165.96C123.3 165.5 122.23 164.19 122.33 162.1C122.43 160.08 123.43 158.76 125.41 158.31C126.18 158.14 127.02 158.19 127.82 158.19C139.28 158.19 150.75 158.17 162.21 158.21C163.3 158.21 164.81 158.2 165.38 158.84C166.34 159.94 167.25 161.59 167.17 162.95C167.06 164.78 165.56 166.06 163.49 166.11C161.55 166.16 159.62 166.14 157.68 166.14C153.32 166.14 148.96 166.14 144.6 166.14H144.61Z" fill="white"/>
<path d="M68.8898 166.131C62.9198 166.131 56.9498 166.131 50.9798 166.131C48.9998 166.131 47.3098 165.311 47.0098 163.331C46.8198 162.061 47.1698 160.161 48.0198 159.441C49.0798 158.541 50.9198 158.251 52.4298 158.241C62.4298 158.141 72.4298 158.191 82.4398 158.191C84.0498 158.191 85.6698 158.131 87.2798 158.211C89.8998 158.351 91.5498 160.061 91.4698 162.431C91.3998 164.611 89.9198 166.071 87.2798 166.121C81.1498 166.221 75.0198 166.151 68.8898 166.151V166.131Z" fill="white"/>
<path d="M137.26 121.931C141.86 121.971 144.87 124.911 144.85 129.321C144.83 133.831 141.39 137.111 136.8 136.991C132.5 136.881 129.16 133.561 129.13 129.371C129.1 124.901 132.39 121.891 137.26 121.941V121.931ZM137.26 132.361C139.1 132.331 140.25 131.161 140.19 129.391C140.12 127.411 138.74 126.051 136.88 126.151C135.38 126.231 133.89 127.731 133.81 129.231C133.72 130.941 135.32 132.391 137.26 132.361Z" fill="white"/>
<path d="M137.08 63.8205C132.7 63.8205 129.07 60.2106 129.13 55.8806C129.18 51.7806 132.76 48.2905 136.95 48.2505C141.2 48.2005 144.74 51.5705 144.85 55.7805C144.97 60.2905 141.56 63.8206 137.08 63.8306V63.8205ZM140.27 56.1705C140.38 54.3705 139.3 53.1705 137.42 53.0105C135.43 52.8405 133.78 54.1606 133.74 55.9506C133.71 57.3706 135.27 59.1205 136.69 59.2605C138.56 59.4405 140.15 58.0705 140.27 56.1705Z" fill="white"/>
<path d="M136.97 100.19C132.22 100.13 129.01 96.9101 129.14 92.3401C129.27 88.1201 132.6 85.0601 137.09 85.0401C141.78 85.0201 145.03 88.3201 144.87 92.9301C144.71 97.3701 141.58 100.25 136.97 100.19ZM133.38 92.6701C134.56 94.4801 135.43 96.8601 138.02 95.8101C139.05 95.3901 140.13 93.6401 140.1 92.5301C140.07 91.4501 138.84 89.8601 137.77 89.4701C135.46 88.6201 134.49 90.6301 133.38 92.6701Z" fill="white"/>
</svg>
