<svg width="500" height="500" viewBox="0 0 500 500" fill="none" xmlns="http://www.w3.org/2000/svg">
<g clip-path="url(#clip0_19_4450)">
<path d="M267.453 392.086C263.642 403.039 266.232 409.218 275.075 414.213C303.529 430.234 303.011 475.006 274.964 492.285C257.277 503.163 239.11 502.867 220.202 489.288C206.66 479.594 199.334 458.096 204.477 441.15C207.955 429.605 212.506 418.098 224.901 413.251C234.189 409.625 235.891 403.261 233.486 393.27C229.453 392.9 224.901 392.123 220.387 392.123C184.496 392.012 148.568 392.123 112.677 392.049C90.8466 392.012 82.0403 383.687 81.5963 362.041C81.1893 341.691 81.1893 321.34 81.5963 300.99C82.0033 280.38 92.4006 270.131 112.529 270.131C204.107 270.057 295.647 270.057 387.225 270.131C407.946 270.131 417.455 279.751 417.64 300.805C417.825 321.747 417.825 342.69 417.64 363.632C417.455 382.429 407.909 391.901 389.001 392.012C354.294 392.16 319.587 392.049 284.88 392.049C279.034 392.049 273.188 392.049 267.49 392.049L267.453 392.086ZM249.84 377.545C294.056 377.545 338.273 377.73 382.489 377.434C398.732 377.323 402.803 373.068 403.099 357.194C403.395 341.062 403.321 324.929 403.099 308.797C402.877 289.741 397.844 284.746 378.234 284.746C292.798 284.672 207.363 284.672 121.89 284.746C100.985 284.746 97.6177 288.002 97.3217 308.316C97.0997 323.856 97.0997 339.397 97.3217 354.937C97.5807 374.474 100.652 377.471 120.743 377.545C163.776 377.656 206.771 377.582 249.803 377.545H249.84ZM219.647 452.472C219.388 469.936 230.711 482.332 247.62 483.072C264.641 483.812 280.662 468.863 280.477 452.435C280.292 437.598 265.751 423.019 250.58 422.464C233.449 421.835 219.943 434.97 219.647 452.472Z" fill="white"/>
<path d="M249.768 0.429627C295.242 0.429627 340.753 1.28065 386.19 0.0226134C405.727 -0.495402 419.417 11.1599 417.937 31.2515C416.494 50.8991 417.752 70.7317 417.604 90.4902C417.419 112.839 408.132 122.422 386.339 122.422C295.39 122.496 204.404 122.496 113.456 122.422C92.217 122.422 81.8567 112.173 81.5237 90.6753C81.2277 70.9167 81.7457 51.1581 81.3757 31.4365C81.0056 11.937 92.772 -0.606405 113.345 0.0226134C158.782 1.39165 204.293 0.466636 249.768 0.466636V0.429627ZM250.434 14.9711C206.217 14.9711 162.001 14.8601 117.785 15.0451C101.097 15.1191 97.7671 18.2641 97.3971 34.8406C96.9901 52.7491 96.9901 70.6947 97.4711 88.6032C97.8411 101.85 101.985 106.142 114.196 107.363C118.932 107.844 123.742 107.585 128.515 107.585C191.861 107.585 255.17 107.585 318.516 107.585C340.013 107.585 361.548 107.844 383.045 107.474C396.625 107.215 402.656 101.184 403.026 87.7152C403.47 72.1747 402.656 56.6343 403.285 41.1308C404.099 20.2622 398.734 14.453 377.717 14.786C335.314 15.4891 292.874 15.008 250.471 15.008L250.434 14.9711Z" fill="white"/>
<path d="M250.619 137.372C296.648 137.372 342.715 137.372 388.744 137.372C395.959 137.372 402.73 137.52 408.762 142.996C414.46 148.176 417.827 153.541 417.753 161.459C417.494 184.77 417.938 208.118 417.568 231.429C417.346 244.638 408.355 253.629 395.404 254.961C392.444 255.257 389.447 255.109 386.45 255.109C295.575 255.109 204.664 255.183 113.789 254.961C107.425 254.961 100.58 254.073 94.8074 251.631C85.8162 247.783 81.82 239.495 81.709 229.874C81.487 207.748 81.154 185.621 81.783 163.495C82.264 145.993 91.4033 137.483 108.979 137.409C156.229 137.224 203.443 137.335 250.693 137.335L250.619 137.372ZM250.582 240.013C291.246 240.013 331.873 240.013 372.537 240.013C377.903 240.013 383.379 240.161 388.633 239.273C399.363 237.386 402.878 233.427 403.063 222.474C403.359 204.529 403.396 186.583 403.026 168.675C402.804 158.869 398.808 154.355 389.484 152.838C384.23 151.987 378.754 152.246 373.389 152.246C290.876 152.246 208.401 152.246 125.888 152.246C122.891 152.246 119.894 152.135 116.934 152.283C101.357 152.986 97.7675 156.242 97.4715 171.45C97.1385 187.582 97.2125 203.752 97.4715 219.884C97.6935 235.351 100.876 238.607 116.157 239.865C120.893 240.272 125.703 240.05 130.513 240.05C170.586 240.05 210.621 240.05 250.693 240.05L250.582 240.013Z" fill="white"/>
<path d="M388.818 468.161C369.096 468.161 349.374 468.161 329.653 468.161C325.472 468.161 321.18 468.457 317.184 467.495C309.968 465.793 306.009 460.946 306.379 453.213C306.749 445.738 310.449 440.854 317.776 439.189C320.625 438.56 323.733 438.745 326.693 438.745C369.096 438.745 411.536 438.671 453.94 438.819C457.973 438.819 463.56 438.782 465.669 441.15C469.221 445.22 472.588 451.325 472.292 456.358C471.885 463.129 466.335 467.865 458.676 468.05C451.497 468.235 444.356 468.161 437.178 468.161C421.046 468.161 404.913 468.161 388.781 468.161H388.818Z" fill="white"/>
<path d="M108.645 468.124C86.555 468.124 64.4654 468.124 42.3758 468.124C35.0496 468.124 28.7964 465.09 27.6863 457.763C26.9833 453.064 28.2784 446.034 31.4234 443.37C35.3456 440.04 42.1538 438.967 47.7409 438.93C84.742 438.56 121.743 438.745 158.781 438.745C164.738 438.745 170.732 438.523 176.69 438.819C186.384 439.337 192.489 445.664 192.193 454.433C191.934 462.5 186.458 467.902 176.69 468.087C154.008 468.457 131.326 468.198 108.645 468.198V468.124Z" fill="white"/>
<path d="M361.622 304.579C378.642 304.727 389.78 315.605 389.706 331.923C389.632 348.61 376.903 360.747 359.92 360.303C344.009 359.896 331.651 347.611 331.54 332.108C331.429 315.568 343.602 304.431 361.622 304.616V304.579ZM361.622 343.171C368.43 343.06 372.685 338.731 372.463 332.182C372.204 324.856 367.098 319.824 360.216 320.194C354.665 320.49 349.152 326.04 348.856 331.59C348.523 337.917 354.443 343.282 361.622 343.171Z" fill="white"/>
<path d="M360.956 89.5658C344.749 89.5658 331.318 76.2084 331.54 60.187C331.725 45.0165 344.971 32.1032 360.475 31.9552C376.2 31.7702 389.299 44.2395 389.706 59.817C390.15 76.5044 377.532 89.5658 360.956 89.6028V89.5658ZM372.759 61.26C373.166 54.5998 369.17 50.1597 362.214 49.5677C354.85 48.9386 348.745 53.8228 348.597 60.446C348.486 65.7001 354.258 72.1753 359.513 72.6933C366.432 73.3593 372.315 68.2902 372.759 61.26Z" fill="white"/>
<path d="M360.548 224.138C342.973 223.916 331.096 212.002 331.577 195.092C332.058 179.478 344.379 168.155 360.992 168.081C378.346 168.007 390.371 180.218 389.779 197.275C389.187 213.704 377.606 224.36 360.548 224.138ZM347.265 196.313C351.631 203.01 354.85 211.817 364.434 207.932C368.245 206.377 372.241 199.902 372.13 195.795C372.019 191.799 367.468 185.916 363.509 184.473C354.961 181.328 351.372 188.765 347.265 196.313Z" fill="white"/>
</g>
<defs>
<clipPath id="clip0_19_4450">
<rect width="500" height="500" fill="white"/>
</clipPath>
</defs>
</svg>
