<svg width="500" height="500" viewBox="0 0 500 500" fill="none" xmlns="http://www.w3.org/2000/svg">
<path d="M263.948 400.89V473.382H336.923V500H163.116V473.823H235.87V400.628C223.45 397.279 210.754 395.018 198.941 390.469C147.057 370.496 115.27 333.14 104.559 278.347C103.498 272.93 103.112 267.306 103.085 261.778C102.947 232.872 103.016 203.967 103.029 175.061C103.029 173.765 103.264 172.469 103.429 170.732H130.515C130.515 173.131 130.515 175.35 130.515 177.569C130.584 204.945 130.005 232.335 130.846 259.683C132.693 319.879 177.3 367.739 237.096 374.645C302.379 382.171 362.7 334.408 368.172 268.96C370.653 239.296 369.192 209.301 369.509 179.444C369.537 176.784 369.509 174.123 369.509 170.856H397.023C397.023 173.089 397.023 175.143 397.023 177.197C397.023 203.801 397.257 230.419 396.981 257.023C396.347 318.597 360.632 367.022 304.157 389.366C291.476 394.384 277.843 396.975 263.962 400.876L263.948 400.89Z" fill="white"/>
<path d="M341.871 173.434C341.871 200.989 341.871 228.544 341.871 256.099C341.871 309.486 295.845 351.68 242.651 347.076C193.965 342.858 158.139 303.876 158.139 255.107C158.139 200.19 158.139 145.259 158.139 90.3419C158.139 41.3798 198.28 1.52916 247.352 0.040442C287.947 -1.18637 327.536 25.5967 338.742 66.9774C340.714 74.2693 341.651 82.0437 341.747 89.6114C342.092 117.552 341.885 145.493 341.885 173.42L341.871 173.434ZM318.81 173.503C318.81 173.503 318.824 173.503 318.838 173.503C318.838 145.355 319.568 117.194 318.631 89.0876C317.666 60.1128 302.779 38.9813 276.037 28.5328C249.502 18.1669 224.111 22.1092 202.566 42.2482C187.224 56.584 180.939 74.614 181.008 95.3457C181.159 133.639 181.035 171.918 181.049 210.211C181.049 226.104 180.608 242.011 181.297 257.877C183.172 300.719 221.024 330.549 263.107 322.816C294.15 317.109 317.887 290.257 318.645 258.498C319.32 230.185 318.783 201.83 318.783 173.503H318.81Z" fill="white"/>
<path d="M233.099 177.941C217.715 162.089 203.903 147.864 189.871 133.404C195.922 127.725 201.271 122.693 207.763 116.601C220.969 130.716 234.615 145.313 249.047 160.724C264.21 144.693 277.953 130.164 291.655 115.677C298.547 122.762 303.895 128.248 309.657 134.176C295.818 147.629 281.496 161.551 266.512 176.108C282.268 191.05 296.783 204.793 310.705 217.998C303.882 225.194 298.616 230.763 292.813 236.883C279.483 222.63 265.947 208.143 251.79 192.994C235.621 208.846 221.354 222.837 208.19 235.739C201.836 230.666 195.826 225.856 188.424 219.928C203.917 205.358 218.349 191.794 233.085 177.941H233.099Z" fill="white"/>
</svg>
