<svg width="99" height="109" viewBox="0 0 99 109" fill="none" xmlns="http://www.w3.org/2000/svg">
<path d="M66.06 46.4799H70.4001C70.2901 52.17 70.9701 57.7699 70.0801 63.2599C68.9401 70.2999 64.94 75.64 58.66 79C56.08 80.38 53.1301 81.1 49.9501 82.26C49.6101 85.53 49.77 89.2199 49.91 93.1999H60.8801V97.0299H34.3101V93.32H45.37V81.97C43.4 81.41 41.53 81.02 39.76 80.36C31.82 77.41 27.06 71.6499 25.14 63.4599C25.08 63.2199 25.05 62.97 25.05 62.72C25.05 57.4 25.05 52.0699 25.05 46.5299H28.9401C29.0001 47.2199 29.1101 47.94 29.1101 48.66C29.1301 51.83 29.09 54.99 29.13 58.16C29.21 64.55 31.23 70.1 36.46 74.08C42.46 78.65 49.83 79.4299 56.55 75.5899C62.74 72.0599 65.87 66.5899 66.03 59.4599C66.1 56.0499 66.06 52.6299 66.07 49.2099C66.07 48.3899 66.07 47.57 66.07 46.45L66.06 46.4799Z" fill="white"/>
<path d="M33.5 46.8399C33.5 42.5899 33.73 38.3299 33.45 34.1099C33.02 27.6499 38.93 20.1399 47.22 20.0499C54.32 19.9699 60 24.1799 61.74 31.5299C61.89 32.1699 61.88 32.8499 61.88 33.5099C61.88 42.3299 61.91 51.16 61.88 59.9799C61.85 67.4599 55.31 73.3 48.68 73.65C41.28 74.04 35.48 69.28 33.89 63.27C33.64 62.32 33.53 61.31 33.52 60.33C33.48 55.83 33.5 51.3399 33.5 46.8399ZM37.02 46.74C37.02 46.74 37.03 46.74 37.04 46.74C37.04 51.24 36.82 55.74 37.09 60.22C37.51 67.15 44.57 71.5699 50.64 69.5599C55.6 67.9099 58.18 64.46 58.32 58.83C58.51 50.84 58.46 42.8399 58.3 34.8499C58.26 32.9199 57.79 30.7899 56.85 29.1299C53.91 23.9699 49.91 23.1499 44.72 24.1099C40.37 24.9099 36.92 29.9899 37.01 33.9999C37.11 38.2399 37.03 42.49 37.03 46.74H37.02Z" fill="white"/>
<path d="M38.1799 40.93C39.3499 39.84 40.0099 39.23 40.9199 38.39C43.1299 40.52 45.2999 42.6 47.6599 44.88C49.9599 42.66 52.0799 40.61 54.6499 38.12C55.3199 38.92 55.9299 39.65 56.6799 40.53C54.4399 42.84 52.3899 44.96 50.0899 47.34C52.2899 49.59 54.3499 51.7 56.5999 54C55.8299 54.84 55.1399 55.6 54.1799 56.66C51.9699 54.35 49.9299 52.2 47.6299 49.8C45.3599 52.01 43.1399 54.17 40.8599 56.39C40.1199 55.59 39.5099 54.93 38.6999 54.06C40.7899 51.9 42.9299 49.68 45.2699 47.26C42.8799 45.12 40.6699 43.15 38.1799 40.93Z" fill="#EB5445"/>
</svg>
