<svg width="500" height="500" viewBox="0 0 500 500" fill="none" xmlns="http://www.w3.org/2000/svg">
<g clip-path="url(#clip0_19_4466)">
<path d="M102.6 171.974H129.604C129.604 176.156 129.604 179.77 129.604 183.344C129.604 205.596 129.442 227.849 129.604 250.102C130.091 301.754 152.385 341.022 198.515 364.493C223.65 377.285 250.857 379.437 279.12 372.087C311.931 363.559 335.808 344.555 352.822 316.17C362.446 300.13 368.781 282.547 369.309 263.868C370.161 233.615 369.552 203.282 369.552 172.217H395.703C396.109 173.435 396.881 174.654 396.881 175.872C396.922 208.561 399.196 241.493 396.272 273.938C392.82 311.784 374.588 343.053 344.335 367.458C326.509 381.873 306.367 390.401 285.374 397.872C283.506 398.522 281.394 398.563 279.404 398.725C268.684 399.619 263.324 405.588 263.324 416.633C263.324 432.835 263.567 448.997 263.202 465.199C263.04 472.59 265.679 475.473 273.191 475.351C290.368 475.026 307.586 475.798 324.722 475.067C334.833 474.62 339.219 477.584 337.594 488.021C337.026 491.594 337.513 495.37 337.513 500H163.511C162.902 499.228 162.577 498.985 162.537 498.7C160.723 483.05 167.68 475.229 183.409 475.229C197.906 475.229 212.402 475.026 226.858 475.311C233.721 475.432 236.523 472.915 236.401 465.849C236.076 446.967 236.239 428.084 236.32 409.202C236.32 403.273 234.33 399.984 227.914 399.091C177.196 391.984 140.527 364.696 116.772 319.906C107.027 301.551 102.154 281.694 102.519 260.579C102.966 234.955 102.641 209.332 102.641 183.709C102.641 180.095 102.641 176.44 102.641 172.014L102.6 171.974Z" fill="white"/>
<path d="M157.663 173.476C157.663 145.823 158.922 118.129 157.338 90.5563C155.226 53.4413 185.763 15.3924 216.015 5.84966C268.277 -10.6369 313.595 8.12366 336.375 57.096C340.152 65.2174 341.451 75.1662 341.492 84.2622C341.938 141.234 341.045 198.206 341.979 255.178C342.548 287.786 329.188 313.368 304.092 331.399C280.134 348.616 252.44 353.652 222.878 344.475C195.062 335.866 175.936 318.16 164.16 292.293C160.546 284.334 158.15 275.157 157.947 266.467C157.216 235.484 157.663 204.46 157.663 173.436V173.476ZM319.239 174.085C319.239 174.085 319.117 174.085 319.077 174.085C319.077 146.757 319.077 119.428 319.077 92.0994C319.117 57.6239 288.662 22.9047 248.623 23.5544C212.645 24.1229 181.337 54.9844 180.809 89.3381C180.037 140.95 180.484 192.562 180.2 244.173C180.119 259.401 182.596 273.573 189.215 287.745C203.305 317.876 245.821 334.363 278.226 318.322C306.082 304.516 318.874 281.532 319.158 251.036C319.361 225.413 319.198 199.749 319.198 174.126L319.239 174.085Z" fill="white"/>
</g>
<defs>
<clipPath id="clip0_19_4466">
<rect width="500" height="500" fill="white"/>
</clipPath>
</defs>
</svg>
