<svg width="500" height="500" viewBox="0 0 500 500" fill="none" xmlns="http://www.w3.org/2000/svg">
<mask id="mask0_19_5234" style="mask-type:luminance" maskUnits="userSpaceOnUse" x="0" y="197" width="500" height="107">
<path d="M500 197H0V303.383H500V197Z" fill="white"/>
</mask>
<g mask="url(#mask0_19_5234)">
<path d="M53.1919 292.745C76.6935 292.745 95.7451 273.693 95.7451 250.191C95.7451 226.69 76.6935 207.638 53.1919 207.638C29.6904 207.638 10.6387 226.69 10.6387 250.191C10.6387 273.693 29.6904 292.745 53.1919 292.745Z" stroke="white" stroke-width="20"/>
<path d="M250 292.745C273.502 292.745 292.554 273.693 292.554 250.191C292.554 226.69 273.502 207.638 250 207.638C226.499 207.638 207.447 226.69 207.447 250.191C207.447 273.693 226.499 292.745 250 292.745Z" stroke="white" stroke-width="20"/>
<path d="M446.809 292.745C470.311 292.745 489.362 273.693 489.362 250.191C489.362 226.69 470.311 207.638 446.809 207.638C423.307 207.638 404.256 226.69 404.256 250.191C404.256 273.693 423.307 292.745 446.809 292.745Z" stroke="white" stroke-width="20"/>
</g>
</svg>
