<svg width="94" height="20" viewBox="0 0 94 20" fill="none" xmlns="http://www.w3.org/2000/svg">
<g clip-path="url(#clip0_35_253)">
<path d="M10 18C14.4183 18 18 14.4183 18 10C18 5.58172 14.4183 2 10 2C5.58172 2 2 5.58172 2 10C2 14.4183 5.58172 18 10 18Z" stroke="white" stroke-width="4"/>
<path d="M47 18C51.4183 18 55 14.4183 55 10C55 5.58172 51.4183 2 47 2C42.5817 2 39 5.58172 39 10C39 14.4183 42.5817 18 47 18Z" stroke="white" stroke-width="4"/>
<path d="M84 18C88.4183 18 92 14.4183 92 10C92 5.58172 88.4183 2 84 2C79.5817 2 76 5.58172 76 10C76 14.4183 79.5817 18 84 18Z" stroke="white" stroke-width="4"/>
</g>
<defs>
<clipPath id="clip0_35_253">
<rect width="94" height="20" fill="white"/>
</clipPath>
</defs>
</svg>
