<svg width="500" height="500" viewBox="0 0 500 500" fill="none" xmlns="http://www.w3.org/2000/svg">
<g clip-path="url(#clip0_19_5073)">
<path d="M354.909 305.097C354.909 334.293 353.974 363.548 355.142 392.685C357.069 441.034 323.085 483.718 280.809 495.513C231 509.41 183.177 490.491 158.886 446.173C151.061 431.867 146.273 414.174 145.864 397.882C144.405 336.103 145.222 274.324 145.281 212.546C145.339 146.738 208.811 98.3304 273.043 111.877C318.005 121.395 358.003 167.875 355.259 217.626C353.624 246.705 354.967 276.018 354.967 305.214L354.909 305.097ZM334.588 305.681C334.588 305.681 334.471 305.681 334.413 305.681C334.413 274.091 335.23 242.501 334.238 210.911C332.778 167.408 295.29 131.439 251.905 130.446C208.344 129.453 167.47 165.073 166.36 208.925C164.725 272.514 164.55 336.279 166.36 399.868C167.878 453.063 224.636 491.309 274.211 475.194C309.304 463.807 333.595 431.925 334.413 394.612C335.055 365.008 334.53 335.344 334.53 305.681H334.588Z" fill="white"/>
<path d="M325.946 17.0505C326.063 40.7578 320.633 47.3561 300.137 51.21C279.583 55.103 266.97 67.7741 262.299 89.2233C261.715 91.7341 258.62 93.7195 256.693 95.9384C254.591 93.4275 250.971 91.1502 250.562 88.4058C247.059 65.0489 263.233 43.619 286.415 40.2322C313.684 36.2616 313.567 36.2615 312.925 8.934C312.867 6.01439 315.728 2.978 317.246 0C319.99 2.68604 323.728 4.90494 325.187 8.17491C326.647 11.5033 325.888 15.8243 325.946 16.9921V17.0505Z" fill="white"/>
<path d="M279.057 212.138C279.057 217.977 279.232 223.817 279.057 229.656C278.473 246.122 266.385 257.567 249.919 257.45C233.744 257.334 221.54 245.422 221.19 229.13C220.956 217.452 220.898 205.773 221.19 194.095C221.599 177.92 234.153 166.125 250.386 166.242C266.736 166.359 278.531 177.979 279.057 194.62C279.232 200.46 279.057 206.299 279.057 212.138ZM267.378 211.963C267.378 211.963 267.436 211.963 267.495 211.963C267.495 207.642 267.787 203.262 267.495 198.941C266.677 188.197 262.415 180.139 250.211 179.906C237.598 179.672 233.803 188.548 232.985 198.883C232.284 207.992 232.284 217.277 233.102 226.327C233.978 236.429 239.291 244.371 250.211 244.371C260.955 244.371 266.327 236.721 267.32 226.444C267.787 221.656 267.378 216.809 267.378 211.963Z" fill="white"/>
</g>
<defs>
<clipPath id="clip0_19_5073">
<rect width="500" height="500" fill="white"/>
</clipPath>
</defs>
</svg>
