<svg width="500" height="500" viewBox="0 0 500 500" fill="none" xmlns="http://www.w3.org/2000/svg">
<path opacity="0.96" fill-rule="evenodd" clip-rule="evenodd" d="M398.929 159.315C411.94 158.578 418.133 164.665 417.506 177.577C416.07 185.803 412.397 192.835 406.486 198.673C400.292 199.203 395.989 196.579 393.577 190.801C390.3 181.292 390.93 172.056 395.466 163.094C396.751 161.916 397.905 160.656 398.929 159.315Z" fill="white"/>
<path opacity="0.976" fill-rule="evenodd" clip-rule="evenodd" d="M322.733 163.723C339.68 162.735 349.126 170.607 351.07 187.338C351.112 192.462 349.747 197.184 346.977 201.507C345.034 204.764 342.935 207.912 340.68 210.952C339.86 212.15 339.44 213.41 339.42 214.731C351.862 213.031 364.352 211.457 376.889 210.008C383.186 209.588 389.483 209.588 395.78 210.008C399.165 210.264 402.418 210.999 405.541 212.212C407.346 217.802 407.556 223.469 406.171 229.214C402.746 239.421 398.968 249.497 394.836 259.441C393.347 263.99 393.032 268.608 393.891 273.295C397.847 271.948 401.415 269.954 404.597 267.312C407.64 263.849 410.684 260.385 413.728 256.922C417.308 240.626 424.76 226.457 436.083 214.416C447.25 205.513 459.215 204.254 471.977 210.638C477.988 216.92 480.192 224.372 478.589 232.993C472.407 250.819 459.918 260.894 441.12 263.219C440.53 273.65 445.358 277.954 455.604 276.129C463.437 273.891 470.574 270.323 477.015 265.423C481.836 259.552 486.874 253.885 492.128 248.421C498.021 247.677 500.435 250.301 499.37 256.292C498.289 261.392 496.19 266.01 493.073 270.146C482.432 284.777 468.473 294.748 451.196 300.058C443.299 301.651 435.532 301.231 427.896 298.799C420.575 294.977 416.061 288.995 414.357 280.851C408.013 285.095 402.03 289.817 396.41 295.02C390.853 299.374 384.556 301.787 377.518 302.262C366.615 302.275 361.158 296.817 361.146 285.889C361.62 279.261 362.775 272.753 364.609 266.368C368.327 255.214 371.791 243.984 375 232.678C374.255 231.585 373.205 230.955 371.851 230.789C369.748 230.503 367.648 230.188 365.554 229.844C358.016 230.861 350.459 231.7 342.884 232.363C345.62 235.414 348.454 238.353 351.385 241.179C356.704 252.195 358.173 263.74 355.793 275.814C351.439 297.857 341.259 316.643 325.251 332.174C316.522 339.814 306.446 342.543 295.025 340.36C288.643 338.426 284.969 334.124 284.005 327.451C283.502 321.964 283.712 316.506 284.634 311.078C286.543 302.213 289.062 293.607 292.191 285.26C286.806 289.596 281.243 293.689 275.503 297.539C269.84 301.246 263.648 303.45 256.927 304.151C243.996 302.45 238.539 295.103 240.554 282.111C243.22 272.223 246.264 262.462 249.685 252.829C249.579 250.408 248.529 248.519 246.536 247.161C245.36 246.714 244.416 247.028 243.702 248.106C236.427 259.579 228.66 270.704 220.403 281.481C213.323 289.896 204.612 295.879 194.269 299.428C179.768 303.06 172.736 297.497 173.173 282.741C166.28 292.739 157.149 299.771 145.78 303.836C139.683 305.037 134.961 303.043 131.612 297.854C130.435 293.107 129.7 288.279 129.408 283.37C122.613 289.389 115.476 294.952 107.997 300.058C103.31 303.19 98.1671 304.974 92.5689 305.411C85.004 304.981 79.9662 301.203 77.4555 294.076C77.0355 290.297 77.0355 286.519 77.4555 282.741C80.6482 272.954 84.2168 263.297 88.1608 253.773C88.9133 251.096 89.2282 248.367 89.1054 245.587C81.4184 247.075 76.0657 251.483 73.0474 258.811C71.4039 263.112 70.1444 267.52 69.2691 272.035C67.7798 281.45 66.5204 290.896 65.4908 300.373C58.522 303.151 51.7 302.836 45.0248 299.428C42.371 296.724 40.7967 293.471 40.3019 289.668C39.7173 282.887 40.1371 276.171 41.5613 269.516C43.67 261.29 45.874 253.104 48.1734 244.957C41.0184 246.336 36.2954 250.534 34.0046 257.552C32.185 262.661 30.9255 267.909 30.2263 273.295C29.2997 281.498 28.3551 289.684 27.3925 297.854C17.7337 301.737 9.86219 299.428 3.77793 290.927C2.55582 288.693 1.50628 286.384 0.629315 284C0.209499 278.333 0.209499 272.665 0.629315 266.998C2.65307 261.662 4.22738 256.204 5.35224 250.625C1.90109 240.763 3.05558 231.528 8.81571 222.917C17.1962 214.419 27.2718 211.27 39.0424 213.471C40.2583 215.945 40.7832 218.568 40.6167 221.343C40.3562 225.993 39.6215 230.506 38.4127 234.882C43.4699 226.255 50.082 219.013 58.249 213.157C63.4177 210.539 68.6652 210.329 73.992 212.527C77.3352 214.62 79.1192 217.664 79.3447 221.658C79.4171 227.023 78.7874 232.272 77.4555 237.401C81.8963 231.911 86.0947 226.243 90.05 220.398C93.9788 215.448 98.9114 211.984 104.848 210.008C117.125 208.324 123.632 213.677 124.37 226.066C123.993 231.773 122.628 237.231 120.277 242.438C115.211 251.52 111.012 260.965 107.682 270.776C107.262 273.085 107.262 275.394 107.682 277.703C111.411 276.731 114.875 275.156 118.073 272.98C124.629 266.426 130.716 259.499 136.335 252.199C134.212 236.736 139.25 224.141 151.448 214.416C159.185 209.006 167.581 207.642 176.637 210.323C178.053 217.575 177.109 224.501 173.803 231.103C171.444 235.614 168.925 240.022 166.246 244.328C161.11 252.484 159.325 261.3 160.894 270.776C168.957 269.735 174.729 265.537 178.211 258.181C179.85 254.316 181.109 250.328 181.99 246.217C183.563 233.734 185.661 221.35 188.287 209.063C195.3 207.016 202.122 207.54 208.753 210.638C212.675 214.03 214.353 218.333 213.791 223.547C213.595 229.131 212.65 234.588 210.957 239.92C206.88 250.996 202.997 262.121 199.307 273.295C204.287 272.903 208.695 271.118 212.531 267.942C216.473 264.003 219.936 259.7 222.921 255.033C225.399 250.251 228.128 245.633 231.108 241.179C230.648 237.957 230.122 234.704 229.534 231.418C231.804 216.4 239.78 205.484 253.463 198.673C258.518 196.604 263.556 196.604 268.576 198.673C275.418 205.892 274.159 211.349 264.798 215.046C263.253 216.141 262.308 217.506 261.964 219.139C262.729 220.114 263.673 220.849 264.798 221.343C269.168 222.908 273.576 224.377 278.022 225.751C280.165 226.632 281.949 227.997 283.375 229.844C283.84 233.659 283.631 237.437 282.745 241.179C279.177 248.945 275.609 256.712 272.04 264.479C270.925 268.658 270.82 272.855 271.725 277.073C286.061 271.87 296.241 262.214 302.267 248.106C303.677 244.296 304.831 240.413 305.73 236.456C305.677 235.759 305.466 235.129 305.1 234.567C300.902 233.547 299.538 230.923 301.007 226.695C302.085 222.151 304.709 218.793 308.879 216.62C309.088 216.095 309.299 215.57 309.508 215.046C310.814 204.884 311.968 194.703 312.972 184.504C313.801 177.827 315.795 171.53 318.954 165.612C320.178 164.793 321.438 164.164 322.733 163.723ZM450.566 228.584C452.203 228.615 453.568 229.245 454.66 230.474C455.984 240.009 451.996 245.887 442.695 248.106C442.995 242.37 444.464 236.913 447.103 231.733C448.192 230.535 449.347 229.486 450.566 228.584ZM329.66 249.365C331.163 249.818 332.108 250.867 332.493 252.514C337.828 272.862 334.259 291.544 321.788 308.559C319.702 310.547 317.393 312.226 314.861 313.597C314.996 309.977 315.626 306.408 316.75 302.892C320.236 290.964 323.595 278.999 326.826 266.998C328.248 261.192 329.193 255.314 329.66 249.365Z" fill="white"/>
</svg>
