<svg width="600" height="561" viewBox="0 0 600 561" fill="none" xmlns="http://www.w3.org/2000/svg">
<path d="M512.386 93.603C506.91 93.603 501.433 93.603 495.958 94.3701H495.176L494.393 93.603C448.239 35.2929 375.489 0 300.391 0C225.293 0 151.76 35.2929 106.388 94.3701L105.606 95.1374H104.824C99.348 94.3701 93.8721 94.3701 88.3962 94.3701H53.9765V154.214L53.1942 154.981C21.1212 169.559 0 201.784 0 237.077C0 272.368 21.1212 304.593 53.1942 319.171H54.7587V320.705C55.541 452.67 165.841 560.083 300.391 560.083C434.94 560.083 545.241 452.67 546.024 320.705V319.171L546.805 318.404C578.879 303.059 600 270.834 600 236.308C600 201.015 578.879 168.792 546.805 154.214L546.024 153.447V93.603H512.386ZM170.534 113.551C204.955 79.7927 251.89 60.6117 300.391 60.6117C348.891 60.6117 395.828 79.7927 430.247 113.551L431.812 115.086L429.466 116.62C420.078 121.991 411.473 127.361 402.868 133.499L402.085 134.267L401.303 133.499C378.618 121.991 342.634 108.948 301.174 108.948C259.714 108.948 223.728 121.991 201.043 133.499L200.261 134.267L199.478 133.499C190.873 127.361 181.486 121.223 172.881 116.62L168.188 115.086L170.534 113.551ZM478.748 318.404C478.748 415.076 398.174 494.101 299.609 494.101C201.043 494.101 121.251 415.076 121.251 318.404V166.491L123.598 167.258C154.889 174.93 184.616 208.689 191.656 217.129C199.478 208.689 236.245 175.697 300.391 175.697C364.536 175.697 401.303 209.456 409.127 217.129C416.167 208.689 445.111 174.93 477.183 167.258L479.531 166.491V318.404H478.748Z" fill="white"/>
</svg>
