<svg width="500" height="500" viewBox="0 0 500 500" fill="none" xmlns="http://www.w3.org/2000/svg">
<path d="M298.536 412.914C284.79 421.505 268.038 426.23 249.997 426.23C231.955 426.23 215.203 421.505 201.457 412.914C201.457 412.914 202.316 407.33 205.323 403.464C208.759 398.309 211.766 397.021 211.766 397.021C223.794 400.457 236.68 402.175 249.997 402.175C263.313 402.175 276.199 400.457 288.227 397.021C288.227 397.021 292.093 399.168 295.1 404.323C298.106 409.048 298.536 412.914 298.536 412.914Z" fill="white"/>
<path d="M300.683 357.072C286.508 370.818 269.326 381.557 249.996 388C230.666 381.557 213.484 370.818 199.309 357.072H300.683Z" fill="white"/>
<path d="M301.538 282.33C329.03 279.323 375.421 279.753 375.421 279.753C374.562 287.914 375.421 312.399 349.219 327.433C344.923 330.01 333.755 333.447 323.445 333.876C298.102 335.165 261.59 335.165 261.59 335.165C267.604 306.385 278.342 284.907 301.538 282.33Z" fill="white"/>
<path d="M198.453 282.33C221.649 284.907 231.959 306.385 238.402 335.595C238.402 335.595 201.89 335.165 176.546 334.306C166.237 333.877 155.069 330.44 150.773 327.863C124.141 312.828 125 288.344 124.57 280.182C124.57 279.753 170.962 279.323 198.453 282.33Z" fill="white"/>
<path d="M154.639 156.041C134.45 139.289 110.825 126.402 84.622 119.529V276.316V282.76C84.622 374.254 158.505 446.849 250 446.849C341.495 446.849 415.378 373.825 415.378 282.33V274.598V119.959C389.175 126.832 365.55 139.289 345.361 156.471C318.299 137.57 285.653 126.402 250.43 126.402C214.777 125.973 181.701 137.141 154.639 156.041ZM155.069 108.361C183.419 93.7561 215.636 85.165 250 85.165C283.935 85.165 316.151 93.3265 344.502 108.361C351.375 104.065 358.247 100.199 365.12 96.7629C335.052 68.8419 294.244 51.6598 250 51.6598C205.326 51.6598 164.948 68.842 134.45 97.1925C141.323 100.199 149.055 104.495 155.069 108.361ZM95.3608 82.1581C133.591 39.6323 188.574 13 250.43 13C311.856 13 367.268 39.6323 405.498 82.1581C421.821 77.8626 438.574 75.2853 455.756 74.8557V144.443C482.388 161.196 500 190.406 500 224.34C500 257.845 482.388 287.485 455.326 304.237L454.897 305.955C443.729 408.619 355.241 487.227 249.141 487.227C142.612 487.227 55.4124 407.33 44.244 304.237C17.6117 287.485 0 257.845 0 224.34C0 190.835 17.6117 161.196 44.244 144.873V74.8557C61.8557 74.8557 79.0378 77.433 95.3608 82.1581Z" fill="white"/>
</svg>
