<svg width="118" height="64" viewBox="0 0 118 64" fill="none" xmlns="http://www.w3.org/2000/svg">
<g clip-path="url(#clip0_17_1376)">
<mask id="mask0_17_1376" style="mask-type:luminance" maskUnits="userSpaceOnUse" x="0" y="0" width="118" height="64">
<path d="M118 0H0V64H118V0Z" fill="white"/>
</mask>
<g mask="url(#mask0_17_1376)">
<path d="M57.59 0.100435C58.98 1.13043 60.29 2.30043 61.79 3.15043C78.16 12.5104 94.57 21.8104 111.75 31.5804C92.96 42.2404 74.79 52.5504 55.87 63.2904V32.0004C53.55 33.2404 52.01 34.0304 50.5 34.8804C35.48 43.3904 20.47 51.9304 5.44999 60.4204C3.73999 61.3804 1.92999 62.1504 0.159992 63.0004C0.159992 43.0004 0.149992 23.0004 0.189992 2.99043C0.179992 1.76043 -0.880009 -0.499565 2.12999 0.100435C3.08999 0.890435 3.95999 1.83043 5.01999 2.44043C20.54 11.2904 36.09 20.1004 51.64 28.9104C52.73 29.5304 53.88 30.0304 55.61 30.8904V0.100435C56.27 0.100435 56.93 0.100435 57.59 0.100435ZM45.4 31.5504C31.62 23.7604 18.87 16.5404 5.65999 9.07043V54.0804C19.01 46.5104 31.75 39.2904 45.4 31.5504ZM100.86 31.5504C87.11 23.7704 74.36 16.5504 61.1 9.05044V54.0804C74.45 46.5204 87.2 39.2904 100.86 31.5504Z" fill="white"/>
<path d="M117.01 0.100586V62.6406C115.23 62.7706 113.86 62.8706 112.06 62.9906V0.100586H117.01Z" fill="white"/>
</g>
</g>
<defs>
<clipPath id="clip0_17_1376">
<rect width="118" height="64" fill="white"/>
</clipPath>
</defs>
</svg>
