<svg width="500" height="500" viewBox="0 0 500 500" fill="none" xmlns="http://www.w3.org/2000/svg">
<g clip-path="url(#clip0_19_4631)">
<path d="M0.251475 247.923C-5.97858 117.501 115.691 -4.15339 252.752 0.108778C391.157 4.37094 500.122 111.047 500 250.846C500 387.844 387.126 500.243 249.576 500C108.728 499.756 -6.10074 380.781 0.251475 247.923ZM457.489 250.359C457.489 136.62 364.649 43.7046 250.431 43.5829C134.87 43.4611 43.1289 134.306 43.0068 249.263C43.0068 362.758 136.458 457.256 249.087 457.622C360.618 457.987 457.367 361.784 457.489 250.48V250.359Z" fill="white"/>
<path d="M246.032 376.147C173.959 372.86 118.744 315.625 121.065 246.456C123.508 174.973 184.709 117.86 254.706 121.514C325.924 125.289 381.383 185.081 377.352 253.641C372.955 327.072 316.884 379.314 246.032 376.147Z" fill="white"/>
</g>
<defs>
<clipPath id="clip0_19_4631">
<rect width="500" height="500" fill="white"/>
</clipPath>
</defs>
</svg>
