<svg width="500" height="500" viewBox="0 0 500 500" fill="none" xmlns="http://www.w3.org/2000/svg">
<g clip-path="url(#clip0_19_4492)">
<path d="M249.525 500.31C182.726 500.31 116.009 500.393 49.2105 500.31C18.4565 500.31 0.268684 482.784 0.186012 452.03C-0.062004 317.109 -0.062004 182.188 0.186012 47.2677C0.186012 17.3405 18.0432 0.062004 47.7224 0.062004C182.643 -0.020668 317.564 -0.020668 452.484 0.062004C480.758 0.062004 499.607 17.7538 499.69 45.8623C500.103 182.188 500.103 318.432 499.69 454.758C499.607 482.536 480.097 500.145 451.823 500.227C384.363 500.393 316.902 500.227 249.442 500.227L249.525 500.31ZM30.2786 248.078C30.2786 311.405 30.2786 374.814 30.2786 438.141C30.2786 463.686 36.6443 470.465 61.4459 470.465C187.438 470.548 313.513 470.548 439.505 470.465C462.157 470.465 469.267 463.521 469.267 440.869C469.432 314.133 469.432 187.479 469.267 60.7432C469.267 35.6936 462.57 29.4932 437.025 29.4932C312.355 29.4932 187.769 29.4932 63.0994 29.4932C36.3137 29.4932 30.2786 35.4456 30.2786 62.1486C30.1959 124.153 30.2786 186.074 30.2786 248.078Z" fill="white"/>
<path d="M179.915 420.78C177.104 381.758 205.708 356.295 250.103 356.378C294.498 356.378 323.02 382.172 319.713 420.78H179.915Z" fill="white"/>
<path d="M153.79 119.357V308.759H131.717V120.35C138.909 120.019 145.523 119.688 153.79 119.357Z" fill="white"/>
<path d="M345.506 309.004V120.843H368.158V309.004H345.506Z" fill="white"/>
</g>
<defs>
<clipPath id="clip0_19_4492">
<rect width="500" height="500" fill="white"/>
</clipPath>
</defs>
</svg>
