<svg width="110" height="132" viewBox="0 0 110 132" fill="none" xmlns="http://www.w3.org/2000/svg">
<path d="M15.4999 64.0402H26.9899C27.0399 62.9502 27.1199 62.0702 27.1199 61.1902C27.1299 55.0502 27.1499 48.9102 27.1199 42.7702C27.0599 32.3602 35.0699 22.8002 45.0699 20.2102C57.2999 17.0402 69.7399 24.2202 73.6699 34.8502C75.4599 39.7002 75.0799 44.5602 75.0899 49.6302H70.6899C70.6899 47.8002 70.7399 45.9302 70.6899 44.0602C70.4099 35.4602 66.4899 29.2802 58.6099 25.6102C48.8599 21.0702 37.3799 26.4702 33.4599 35.5602C32.3799 38.0702 31.7399 40.9402 31.6299 43.6702C31.3699 50.2902 31.5499 56.9302 31.5499 63.8702H86.5299C86.5799 64.9602 86.6399 65.7502 86.6399 66.5402C86.6399 79.3202 86.6399 92.1002 86.6399 104.88C86.6399 109.29 83.8299 112.05 79.3799 112.05C60.5599 112.05 41.7299 111.93 22.9099 112.15C19.1499 112.19 15.3699 108.35 15.4299 104.74C15.6399 92.0502 15.5099 79.3502 15.5099 66.6502C15.5099 65.9202 15.5099 65.1902 15.5099 64.0302L15.4999 64.0402ZM20.1999 68.5302C20.0899 68.9102 19.9599 69.1402 19.9599 69.3702C19.9399 80.9802 19.9199 92.5902 19.9599 104.2C19.9599 106.44 21.3799 107.59 23.8999 107.59C42.0499 107.6 60.1999 107.6 78.3499 107.59C81.1599 107.59 82.2099 106.55 82.2099 103.68C82.2299 92.5702 82.2199 81.4502 82.2099 70.3402C82.2099 69.7802 82.1099 69.2202 82.0399 68.5202H20.1999V68.5302Z" fill="white"/>
</svg>
