<svg width="500" height="500" viewBox="0 0 500 500" fill="none" xmlns="http://www.w3.org/2000/svg">
<path d="M0.381437 240.493H62.3676C62.6373 234.613 63.0689 229.867 63.0689 225.12C63.1228 192.001 63.2307 158.881 63.0689 125.762C62.7452 69.6103 105.957 18.0434 159.905 4.07292C225.884 -13.0261 292.995 25.703 314.196 83.0414C323.853 109.202 321.803 135.417 321.857 162.765H298.12C298.12 152.894 298.39 142.807 298.12 132.72C296.609 86.3318 275.462 52.9967 232.951 33.2006C180.352 8.71179 118.419 37.8395 97.2718 86.8712C91.4455 100.41 87.9928 115.891 87.3994 130.617C85.9967 166.325 86.9678 202.141 86.9678 239.576H383.573C383.843 245.455 384.167 249.717 384.167 253.978C384.167 322.914 384.167 391.849 384.167 460.784C384.167 484.571 369.007 499.459 345.001 499.459C243.471 499.459 141.887 498.812 40.3568 499.998C20.0724 500.214 -0.319884 479.501 0.0038032 460.029C1.13671 391.58 0.435386 323.075 0.435386 254.571C0.435386 250.634 0.435386 246.696 0.435386 240.439L0.381437 240.493ZM25.7369 264.712C25.1435 266.762 24.4422 268.002 24.4422 269.243C24.3343 331.868 24.2264 394.492 24.4422 457.116C24.4422 469.198 32.1028 475.402 45.6977 475.402C143.613 475.456 241.528 475.456 339.444 475.402C354.603 475.402 360.268 469.792 360.268 454.311C360.376 394.384 360.322 334.403 360.268 274.475C360.268 271.455 359.728 268.434 359.351 264.658H25.7369V264.712Z" fill="white"/>
</svg>
