<svg width="500" height="500" viewBox="0 0 500 500" fill="none" xmlns="http://www.w3.org/2000/svg">
<path d="M379.609 240.403H441.667C441.667 246.068 441.667 250.06 441.667 253.998C441.667 322.944 441.667 391.835 441.667 460.724C441.667 484.353 426.395 499.459 402.543 499.459C300.985 499.459 199.373 498.865 97.8142 499.998C77.7939 500.214 57.18 479.876 57.5038 459.969C58.583 391.512 57.9355 323.052 57.9355 254.592C57.9355 250.599 57.9355 246.607 57.9355 240.835H119.777C120.155 234.469 120.694 229.775 120.694 225.082C120.748 191.095 120.587 157.053 120.802 123.066C121.126 68.7945 163.757 18.4071 216.317 4.43457C284.688 -13.7459 352.088 26.1217 371.838 84.8171C375.886 96.8475 378.908 109.741 379.285 122.311C380.311 156.73 379.609 191.203 379.609 225.675C379.609 230.045 379.609 234.415 379.609 240.403ZM417.329 264.896H81.5713C81.5713 327.907 81.5713 389.677 81.5713 451.445C81.5713 470.435 87.0216 475.668 106.556 475.722C202.395 475.722 298.179 475.722 394.017 475.722C413.066 475.722 417.923 471.028 417.923 452.2C417.977 393.562 417.923 334.866 417.923 276.225C417.923 272.718 417.545 269.157 417.329 264.95V264.896ZM355.757 239.486C355.757 212.89 356.405 187.049 355.542 161.261C354.894 140.923 354.193 120.315 350.361 100.408C343.13 62.8063 299.042 26.9309 260.675 24.2874C200.02 20.1334 147.244 64.8024 144.762 126.735C143.359 162.448 144.168 198.216 144.06 233.983C144.06 235.656 144.978 237.328 145.571 239.486H355.757Z" fill="white"/>
</svg>
