<svg width="68" height="68" viewBox="0 0 68 68" fill="none" xmlns="http://www.w3.org/2000/svg">
<g clip-path="url(#clip0_17_1397)">
<path d="M67.5399 33.8704C67.5399 52.8004 52.6499 67.5804 33.6199 67.6204C15.2099 67.6604 -0.310073 52.1304 -7.33868e-05 33.1504C0.289927 15.4704 15.4399 -0.529642 34.9399 0.0103582C52.2499 0.490358 68.1399 15.5404 67.5299 33.8604H67.5399V33.8704ZM33.6199 64.1404C50.4399 64.1404 64.0799 50.6904 64.0899 34.1004C64.0899 17.0804 50.7699 3.57036 33.9499 3.57036C17.1299 3.57036 3.53993 17.0504 3.53993 34.1504C3.53993 51.2504 17.3099 64.1304 33.6199 64.1304V64.1404Z" fill="#FFFEFE"/>
<path d="M33.9599 35.8107C33.9599 37.3307 33.8999 39.1607 33.9699 40.9807C34.1499 45.7107 34.1799 45.7107 38.9999 46.2307C39.0599 46.9007 39.1199 47.6107 39.1899 48.5007H21.8099V46.3607C26.8699 45.3907 26.9199 45.3907 26.9799 40.1607C27.0399 35.3307 26.9799 30.5107 26.9799 25.6807C26.9799 22.3007 26.1899 20.2407 22.4699 20.2507C22.2299 20.2507 21.9799 19.9507 21.1499 19.4007C22.4299 19.2207 23.0899 19.0607 23.7599 19.0607C28.8399 19.0407 33.9199 18.9807 38.9899 19.0907C40.6299 19.1307 42.3099 19.4507 43.8799 19.9407C46.9799 20.9007 48.6199 23.2307 48.7499 26.4607C48.9099 30.3007 47.8599 32.5907 44.4199 33.7207C41.1799 34.7907 37.6999 35.1107 33.9599 35.8207V35.8107ZM34.0299 32.4707C37.1299 32.4907 40.0599 32.7007 41.5299 29.6907C42.5099 27.6807 42.4899 25.4907 40.9899 23.5807C39.0899 21.1607 36.5399 21.5907 34.0199 21.7707V32.4607H34.0299V32.4707Z" fill="#FFFEFE"/>
</g>
<defs>
<clipPath id="clip0_17_1397">
<rect width="67.55" height="67.62" fill="white"/>
</clipPath>
</defs>
</svg>
