<svg width="500" height="500" viewBox="0 0 500 500" fill="none" xmlns="http://www.w3.org/2000/svg">
<g clip-path="url(#clip0_19_4350)">
<path d="M499.948 250.455C499.948 390.422 389.736 499.704 248.881 499.999C112.614 500.295 -2.26075 385.468 0.0337911 245.132C2.1803 114.408 114.317 -3.89445 258.651 0.098249C386.775 3.64732 504.389 114.925 499.874 250.382H499.948V250.455ZM248.881 474.269C373.378 474.269 474.338 374.821 474.412 252.156C474.412 126.312 375.821 26.4205 251.323 26.4205C126.826 26.4205 26.236 126.09 26.236 252.526C26.236 378.961 128.158 474.195 248.881 474.195V474.269Z" fill="white"/>
<path d="M251.397 264.803C251.397 276.042 250.952 289.573 251.471 303.029C252.803 338.003 253.025 338.003 288.701 341.847C289.145 346.801 289.59 352.051 290.108 358.631H161.465V342.809C198.918 335.636 199.288 335.636 199.732 296.966C200.176 261.254 199.732 225.615 199.732 189.903C199.732 164.911 193.885 149.68 166.35 149.754C164.574 149.754 162.724 147.536 156.58 143.469C166.054 142.138 170.939 140.955 175.899 140.955C213.5 140.807 251.1 140.364 288.627 141.177C300.766 141.473 313.201 143.839 324.822 147.462C347.767 154.56 359.906 171.788 360.868 195.67C362.053 224.063 354.281 240.995 328.819 249.35C304.837 257.261 279.079 259.627 251.397 264.877V264.803ZM251.915 240.107C274.86 240.255 296.547 241.808 307.428 219.552C314.682 204.691 314.533 188.498 303.431 174.376C289.368 156.482 270.493 159.662 251.841 160.993V240.033H251.915V240.107Z" fill="white"/>
</g>
<defs>
<clipPath id="clip0_19_4350">
<rect width="500" height="500" fill="white"/>
</clipPath>
</defs>
</svg>
