<svg width="118" height="141" viewBox="0 0 118 141" fill="none" xmlns="http://www.w3.org/2000/svg">
<path d="M12.48 110.39C13.82 107.31 14.93 104.77 16.04 102.23C19.23 94.8904 22.37 87.5304 25.65 80.2404C26.27 78.8604 27.36 77.6304 28.45 76.5404C43.2 61.7404 57.99 46.9704 72.77 32.1904C77.97 26.9904 84.52 26.9404 89.61 32.2204C91.25 33.9204 92.94 35.7804 93.88 37.8904C95.95 42.5204 94.47 46.6504 91.03 50.1004C76.6 64.5904 62.06 78.9604 47.75 93.5704C44.34 97.0504 40.06 98.5404 35.88 100.41C28.66 103.64 21.42 106.81 14.18 109.99C13.89 110.12 13.55 110.15 12.49 110.41L12.48 110.39ZM33.74 78.0804C36.57 78.7404 37.95 80.3704 37.92 82.8904C37.89 85.0204 38.78 86.8504 40.64 87.1104C43.03 87.4504 46.5 87.8304 47.88 86.5104C59.71 75.1704 71.16 63.4204 82.79 51.8704C83.95 50.7104 83.85 50.1004 82.79 49.1104C79.78 46.2604 76.81 43.3704 73.86 40.4604C72.85 39.4604 72.12 39.6404 71.16 40.6004C58.81 53.0104 46.43 65.3904 33.73 78.1004L33.74 78.0804ZM42.17 92.4504C39.67 91.7304 37.04 91.6904 35.64 90.3604C34.15 88.9504 33.91 86.2704 32.95 84.2304C32.62 83.5304 31.8 82.7104 31.11 82.6204C30.54 82.5504 29.54 83.3204 29.24 83.9604C27.37 87.9004 25.7 91.9304 23.85 95.8804C23.26 97.1404 23.22 98.2104 24.49 98.8104C25.31 99.2004 26.49 99.4404 27.29 99.1504C29.91 98.2004 32.44 97.0104 34.98 95.8604C37.34 94.7804 39.67 93.6404 42.16 92.4504H42.17ZM79.73 32.3504C78.94 33.0404 77.59 33.9604 76.68 35.2004C76.43 35.5504 77.33 37.0104 77.98 37.7004C80.4 40.2604 82.89 42.7604 85.46 45.1604C86.13 45.7904 87.71 46.5404 88.03 46.2704C89.14 45.3004 90.7 43.8504 90.61 42.7004C90.24 38.1704 84.51 32.8104 79.73 32.3604V32.3504Z" fill="white"/>
</svg>
