<svg width="500" height="500" viewBox="0 0 500 500" fill="none" xmlns="http://www.w3.org/2000/svg">
<g clip-path="url(#clip0_19_4488)">
<path d="M376.776 499.127C325.048 495.876 280.021 477.403 238.343 451.441C147.598 394.934 74.5885 320.939 27.0976 224.233C16.1609 201.917 8.37714 177.432 3.10585 153.046C-10.0477 91.86 19.3631 30.378 76.4605 2.64217C87.2987 -2.6291 108.778 0.376009 118.089 8.20904C147.253 32.6934 173.462 60.8234 199.72 88.5593C215.632 105.358 214.795 123.192 198.932 140.73C188.044 152.751 176.763 164.673 164.447 175.166C150.259 187.236 148.633 200.783 156.17 216.45C183.118 272.66 224.401 314.486 281.252 340.596C296.278 347.493 308.939 345.867 320.418 332.615C331.059 320.348 342.882 309.067 354.853 298.081C373.278 281.084 390.915 280.395 408.749 297.391C435.795 323.205 462.003 349.956 488.114 376.706C501.858 390.747 504.272 408.876 492.252 423.163C474.024 444.79 454.072 466.023 431.213 482.231C416.483 492.674 395.152 493.856 376.825 499.226L376.776 499.127ZM46.8034 62.6462C40.8916 75.8983 29.6593 89.3968 30.0535 102.6C30.9895 132.01 33.4034 162.751 42.9607 190.241C68.1349 262.66 118.631 318.131 174.103 369.071C221.84 412.916 274.454 449.519 338.892 463.954C371.899 471.393 406.335 476.91 430.573 447.155C398.994 415.576 368.697 385.328 338.251 354.882C309.974 376.953 287.755 378.579 250.906 357.346C206.42 331.777 170.506 296.553 143.559 253.102C123.607 220.933 110.305 186.989 141.046 156.692C109.862 125.557 80.1061 95.8504 46.8034 62.6462ZM165.875 133.242C184.596 122.847 185.975 111.861 168.88 96.6386C148.288 78.3123 128.631 58.6558 110.305 38.0632C94.1957 19.9832 83.8995 24.6633 74.687 41.6595C104.985 72.105 134.74 101.959 165.875 133.242ZM362.884 330.152C394.314 361.681 423.971 391.437 457.767 425.281C461.462 414.936 470.132 400.945 467.078 397.545C440.278 367.74 411.36 339.857 381.161 309.461C373.081 318.575 367.81 324.536 362.884 330.152Z" fill="white"/>
</g>
<defs>
<clipPath id="clip0_19_4488">
<rect width="500" height="500" fill="white"/>
</clipPath>
</defs>
</svg>
