<svg width="91" height="100" viewBox="0 0 91 100" fill="none" xmlns="http://www.w3.org/2000/svg">
<path d="M79.96 34.0295C74.55 33.3195 69.38 32.6395 63.9 31.9195C63.81 33.0095 63.68 33.8695 63.69 34.7395C63.73 44.3995 63.86 54.0695 63.8 63.7295C63.78 66.2795 63.54 68.9395 62.76 71.3295C61.5 75.1995 58.04 75.9295 54.47 75.9295C50.8 75.9295 47.36 75.0795 45.68 71.4095C43.57 66.7995 47 62.2095 52.61 61.9895C55.42 61.8795 58.24 61.9695 61.35 61.9695V17.5195C66.66 18.9695 71.78 19.8695 75.82 23.3495C78.92 26.0095 80.08 29.5895 79.97 34.0295H79.96ZM60.67 64.7595C57.29 65.0195 54.06 65.0395 50.94 65.6295C49.92 65.8195 48.58 67.4495 48.49 68.5095C48.4 69.5695 49.43 71.1795 50.43 71.7795C52.99 73.3195 55.91 73.3995 58.49 71.7795C60.86 70.2895 60.5 67.6395 60.68 64.7495L60.67 64.7595ZM64.52 28.7495C68.39 29.2795 72.26 29.8195 76.3 30.3695C75.05 25.7495 70.25 22.4695 64.52 22.0395V28.7495Z" fill="white"/>
<path d="M22.0701 32.8691V30.3291H51.9501C52.0101 31.0891 52.0701 31.8691 52.1501 32.8691H22.0801H22.0701Z" fill="white"/>
<path d="M22.0601 43.1591V40.5791H51.9701C52.0201 41.3991 52.0601 42.1791 52.1201 43.1591H22.0601Z" fill="white"/>
<path d="M22.0801 54.0593V51.4893H51.9301V54.0593H22.0801Z" fill="white"/>
</svg>
