<svg width="500" height="500" viewBox="0 0 500 500" fill="none" xmlns="http://www.w3.org/2000/svg">
<path d="M468.795 459.585H431.207V499.02C425.25 499.378 420.544 499.974 415.778 499.974C301.641 499.974 187.505 500.033 73.3683 499.974C46.383 499.974 31.4905 484.902 31.4309 457.798C31.4309 319.357 31.967 180.856 30.8352 42.4152C30.6565 19.8976 50.4934 -0.177527 73.1896 0.00118418C199.717 1.13302 326.304 0.537317 452.831 0.537317H468.736V459.585H468.795ZM51.2678 60.7033C50.9699 65.7071 50.4934 69.5792 50.4934 73.4513C50.4934 199.025 50.4338 324.599 50.4934 450.232C50.4934 472.512 58.4758 480.018 81.2912 480.018C186.016 480.018 290.74 480.018 395.524 480.018H409.404V60.7033H51.2678Z" fill="white"/>
<path d="M152.418 133.794C218.362 172.276 282.877 209.925 351.621 250.015C284.009 289.511 219.315 327.338 152.418 366.475V133.794ZM175.948 322.215C217.886 297.731 257.142 274.737 299.556 249.956C256.487 224.936 217.23 202.061 175.948 178.055V322.215Z" fill="white"/>
</svg>
