<svg width="112" height="66" viewBox="0 0 112 66" fill="none" xmlns="http://www.w3.org/2000/svg">
<path d="M1.97999 0C5.66999 2.35 9.28999 4.82 13.07 7.03C27.37 15.41 41.72 23.7 56.86 32.5C38.13 43.37 20.04 53.87 0.98999 64.92V0H1.97999ZM46.16 32.49C32.4 24.52 19.56 17.08 6.20999 9.34V55.65C19.6 47.89 32.44 40.44 46.16 32.49Z" fill="white"/>
<path d="M111.87 64.0002H94.3999V0.990234H111.87V64.0002ZM99.3099 6.10023V58.7102H106.69V6.10023H99.3099Z" fill="white"/>
<path d="M81.8101 63.7302H64.6201V1.41016H81.8101V63.7302ZM69.4801 58.7402H77.0101V6.15016H69.4801V58.7302V58.7402Z" fill="white"/>
</svg>
