<svg width="124" height="113" viewBox="0 0 124 113" fill="none" xmlns="http://www.w3.org/2000/svg">
<path d="M46.9301 90.1898V79.3698C40.6001 83.0298 34.7501 86.3998 28.6001 89.9598V19.8798C34.6401 23.3598 40.4701 26.7198 46.7301 30.3298V19.5098C67.1201 31.3998 86.9401 42.9598 107.41 54.8998C87.0501 66.7798 67.2601 78.3398 46.9301 90.1998V90.1898ZM32.6001 82.5398C48.5201 73.2398 64.0301 64.1898 79.9901 54.8698C63.9101 45.4998 48.4101 36.4598 32.6001 27.2498V82.5398ZM51.0001 82.6898C67.0001 73.3398 82.6001 64.2298 98.6401 54.8698C82.4101 45.4198 66.9001 36.3798 51.2001 27.2298C50.8401 30.8631 52.0434 33.4864 54.8101 35.0998C63.6401 40.2398 72.4601 45.3898 81.2901 50.5398C83.5901 51.8798 85.8701 53.2498 88.4601 54.7798C87.5101 55.4998 86.9701 55.9898 86.3601 56.3498C75.0501 62.9398 63.7201 69.4998 52.4201 76.1198C51.8101 76.4798 51.1601 77.2398 51.0701 77.8898C50.8701 79.3298 51.0101 80.8098 51.0101 82.6998L51.0001 82.6898Z" fill="white"/>
</svg>
