<svg width="79" height="100" viewBox="0 0 79 100" fill="none" xmlns="http://www.w3.org/2000/svg">
<g clip-path="url(#clip0_17_1446)">
<mask id="mask0_17_1446" style="mask-type:luminance" maskUnits="userSpaceOnUse" x="0" y="0" width="79" height="100">
<path d="M79 0H0V100H79V0Z" fill="white"/>
</mask>
<g mask="url(#mask0_17_1446)">
<path d="M0.990084 0C20.0501 12.24 39.1001 24.48 58.1701 36.71C64.6301 40.85 71.1101 44.97 78.2201 49.51C73.4301 52.57 69.2101 55.3 64.9701 57.98C43.3101 71.66 21.6601 85.33 8.38954e-05 99.01C8.38954e-05 67.32 -0.00991606 35.63 0.0400839 3.94C0.0400839 2.63 0.660084 1.32 0.990084 0ZM5.21008 9.46V89.55C26.3301 76.12 46.8801 63.05 68.1801 49.5C46.8801 35.96 26.3201 22.89 5.21008 9.46Z" fill="white"/>
</g>
</g>
<defs>
<clipPath id="clip0_17_1446">
<rect width="79" height="100" fill="white"/>
</clipPath>
</defs>
</svg>
