<svg width="500" height="500" viewBox="0 0 500 500" fill="none" xmlns="http://www.w3.org/2000/svg">
<path d="M116.292 474.42V405.774C76.1325 428.994 39.0179 450.375 0 472.961V28.3474C38.32 50.4258 75.3077 71.7429 115.023 94.6461V26C244.385 101.435 370.131 174.776 500 250.527C370.829 325.898 245.273 399.239 116.292 474.484V474.42ZM25.3775 425.886C126.38 366.883 224.781 309.467 326.037 250.337C224.02 190.89 125.682 133.537 25.3775 75.1054V425.886ZM142.114 426.837C243.624 367.518 342.596 309.72 444.36 250.337C341.391 190.383 242.989 133.03 143.383 74.9785C141.099 98.0296 148.733 114.673 166.286 124.909C222.307 157.519 278.264 190.192 334.285 222.866C348.877 231.367 363.342 240.059 379.774 249.766C373.747 254.334 370.321 257.443 366.451 259.727C294.696 301.536 222.814 343.155 151.123 385.155C147.253 387.439 143.129 392.261 142.558 396.384C141.289 405.52 142.177 414.91 142.177 426.901L142.114 426.837Z" fill="white"/>
</svg>
