<svg width="500" height="500" viewBox="0 0 500 500" fill="none" xmlns="http://www.w3.org/2000/svg">
<path d="M356.195 246.974C341.976 248.071 332.936 240.917 330.654 229.113C323.15 190.757 310.336 154.948 282.249 125.984C266.451 109.703 246.791 99.9162 227.174 89.8228C211.99 82.0113 195.753 75.8675 181.446 66.6956C170.124 59.4547 161.611 63.6237 152.79 68.8899C121.017 87.848 89.5521 107.201 57.9552 126.423C52.6452 129.67 46.2819 133.225 50.6703 140.51C54.4883 146.785 59.3595 149.067 67.7415 143.845C95.5204 126.598 125.406 112.511 152.044 93.7285C169.071 81.7042 180.7 89.6473 194.173 96.2738C210.717 104.392 227.043 112.95 243.412 121.376C247.537 123.526 251.53 125.94 257.103 129.143C244.64 137.35 233.186 145.381 221.294 152.666C193.646 169.561 165.692 185.974 138.088 202.87C119.964 213.972 102.191 225.689 84.1543 237.012C76.4306 241.839 73.2709 234.203 71.1206 230.166C69.4969 227.138 70.8134 219.326 73.4026 217.703C115.005 191.196 157.047 165.348 198.956 139.281C202.862 136.867 206.505 134.058 212.078 130.153C198.123 123 187.941 116.9 177.058 112.687C172.494 110.931 165.385 111.59 161.084 114.047C131.199 131.074 101.796 149.023 72.0422 166.27C62.5631 171.755 45.9747 168.288 38.0755 160.345C28.0698 150.252 26.7533 137.964 30.6151 125.764C34.828 112.292 46.1503 107.684 56.0682 101.496C82.004 85.2588 108.466 69.8992 134.797 54.2763C143.925 48.8346 152.746 42.2519 162.664 38.9167C168.062 37.1174 176.005 39.7944 181.71 42.6907C211.507 57.787 241.261 72.9272 270.357 89.2962C293.967 102.593 310.467 123.526 324.423 146.215C340.133 171.711 346.716 200.324 351.368 229.507C352.289 235.169 354.396 240.61 356.195 247.017V246.974Z" fill="white"/>
<path d="M499.523 335.225V354.183C483.285 357.694 470.603 349.487 458.052 341.456C452.347 337.814 447.081 333.162 442.341 328.291C437.909 323.771 435.1 323.947 430.887 328.642C419.345 341.544 404.732 351.023 388.144 354.227C364.973 358.659 343.03 353.174 324.423 337.507C309.151 324.649 309.107 324.605 293.923 337.287C275.316 352.866 253.506 358.571 230.291 354.315C213.658 351.243 199.089 341.764 187.547 328.993C182.983 323.903 180.087 323.595 175.391 328.598C156.477 348.741 133.218 358.615 105.527 354.71C87.6657 352.208 72.7011 342.597 60.4573 329.652C55.1033 323.99 52.4703 323.2 46.9847 329.3C35.0042 342.597 19.469 350.102 2.44181 355.236C-2.20996 337.595 -0.849528 336.541 14.0712 328.028C29.387 319.339 40.1826 305.734 48.2573 290.024C49.3983 287.786 51.6364 286.162 53.3479 284.231C55.1472 286.03 57.6047 287.478 58.7019 289.629C68.927 309.947 83.4967 325.877 105.527 332.855C119.087 337.156 133.832 334.786 144.277 325.877C156.301 315.608 165.385 301.916 175.83 289.804C177.541 287.829 179.604 286.118 181.491 284.275C183.115 286.25 185.09 288.005 186.318 290.199C197.114 309.377 210.586 326.141 232.485 332.592C250.609 337.902 267.636 332.636 280.846 319.47C289.623 310.693 296.161 299.722 303.841 289.848C305.421 287.786 307.571 286.206 309.458 284.406C310.951 286.162 312.75 287.698 313.847 289.673C321.614 303.189 330.391 315.74 343.688 324.649C366.421 339.921 391.259 336.673 409.735 318.373C418.292 309.903 424.48 299.108 431.809 289.453C433.169 287.654 434.881 284.758 436.373 284.758C438.172 284.758 440.278 287.171 441.639 288.971C448.178 297.879 453.883 307.446 461.036 315.828C470.647 327.106 483.812 332.592 499.479 335.225H499.523Z" fill="white"/>
<path d="M499.961 442.743C499.961 445.814 500.049 449.369 499.961 452.968C499.917 455.425 499.61 457.883 499.39 460.999C483.504 463.368 471.041 455.645 458.71 448.843C452.302 445.288 447.08 439.276 441.858 433.834C437.864 429.709 435.67 429.577 431.501 434.097C415.22 451.695 395.647 462.359 370.765 461.788C348.033 461.262 330.128 450.773 315.075 435.019C310.292 430.016 308.229 429.314 303.314 434.624C284.883 454.547 262.019 465.036 234.679 461.306C215.808 458.717 199.527 449.194 187.02 434.712C182.544 429.533 180.218 429.533 176.005 434.053C159.46 452.002 139.537 462.622 114.479 461.745C92.0537 460.911 74.1049 450.686 59.3596 434.668C54.5323 429.446 52.4698 429.402 47.818 434.668C35.7936 448.316 20.5218 456.83 2.70463 460.779C-2.3421 444.761 -1.02555 442.128 12.6664 434.887C28.9037 426.33 39.7871 412.594 48.213 396.62C49.3978 394.382 51.5482 392.67 53.3036 390.695C55.1467 392.495 57.7359 393.943 58.7453 396.093C68.3999 416.587 83.6278 432.166 104.649 439.451C122.992 445.814 140.59 438.705 154.019 425.277C162.532 416.763 168.588 405.792 175.917 396.049C177.497 393.943 179.691 392.319 181.622 390.432C183.246 392.495 185.177 394.338 186.406 396.62C196.85 416.324 211.42 432.561 232.704 439.495C251.091 445.507 268.514 438.661 281.855 425.233C290.368 416.675 296.512 405.792 303.841 396.049C305.421 393.943 307.615 392.319 309.502 390.476C310.994 392.275 312.837 393.899 313.89 395.918C324.072 415.754 338.466 431.903 359.574 439.276C378.093 445.727 395.516 438.749 408.988 425.628C418.072 416.763 424.392 405.09 432.028 394.689C433.213 393.109 435.275 390.476 436.241 390.739C438.303 391.31 440.673 393.109 441.594 395.084C450.986 414.525 464.371 429.84 484.909 437.915C489.165 439.583 493.686 440.68 499.961 442.655V442.743Z" fill="white"/>
<path d="M473.762 122.212C476.658 156.003 443.086 185.713 409.646 185.186C376.645 184.703 345.224 153.721 346.408 119.491C347.506 87.806 376.733 56.4285 412.235 57.2624C441.726 57.9645 476.877 83.8564 473.762 122.212ZM453.004 121.641C454.54 97.9434 431.193 79.3363 412.367 78.3269C390.118 77.1421 367.78 99.5671 367.78 120.983C367.78 143.978 390.732 164.823 410.612 164.385C431.896 163.902 454.057 144.724 452.96 121.641H453.004Z" fill="white"/>
</svg>
