<svg width="500" height="500" viewBox="0 0 500 500" fill="none" xmlns="http://www.w3.org/2000/svg">
<g clip-path="url(#clip0_19_4222)">
<path d="M300.33 61.2884C352.222 73.6619 397.701 104.797 428.011 148.698C458.32 192.598 471.316 246.16 464.495 299.069C457.676 351.979 431.521 400.494 391.07 435.273C350.618 470.052 298.73 488.636 245.396 487.446C192.063 486.254 141.055 465.375 102.195 428.826C63.336 392.275 39.3727 342.642 34.9203 289.481C30.4677 236.32 45.8407 183.391 78.0787 140.886C110.317 98.3817 157.14 69.3074 209.534 59.2617" stroke="#EB5546" stroke-width="30"/>
<path d="M269 13H244V190H269V13Z" fill="#EB5546"/>
</g>
<defs>
<clipPath id="clip0_19_4222">
<rect width="500" height="500" fill="white"/>
</clipPath>
</defs>
</svg>
