<svg width="500" height="500" viewBox="0 0 500 500" fill="none" xmlns="http://www.w3.org/2000/svg">
<mask id="mask0_19_4392" style="mask-type:luminance" maskUnits="userSpaceOnUse" x="0" y="114" width="500" height="272">
<path d="M500 114.167H0V385.353H500V114.167Z" fill="white"/>
</mask>
<g mask="url(#mask0_19_4392)">
<path d="M495.805 114.167V382.811C416.356 337.853 340.296 294.803 261.356 250.142V383.32C180.211 337.345 103.008 293.616 23.3047 248.447C30.6352 243.701 35.9742 239.887 41.6521 236.667C106.483 199.845 171.398 163.192 236.186 126.243C241.949 122.981 246.822 118.235 252.076 114.167C254.872 114.167 257.669 114.167 260.466 114.167V243.065C264.364 242.303 266.567 242.43 268.178 241.498C340.211 200.735 412.203 159.845 484.11 118.87C485.593 118.023 486.271 115.777 487.33 114.167C490.127 114.167 492.923 114.167 495.72 114.167H495.805ZM68.5166 247.726C126.822 280.735 180.974 311.37 237.203 343.235V152.091C180.55 184.209 126.483 214.845 68.5166 247.726ZM303.898 247.726C361.906 280.608 416.313 311.455 472.118 343.065V152.218C415.466 184.379 361.398 215.057 303.898 247.726Z" fill="white"/>
<path d="M21.0169 114.167V380.142C13.4322 380.523 6.73729 380.862 0 381.201V114.167H21.0169Z" fill="white"/>
</g>
</svg>
