<svg width="118" height="64" viewBox="0 0 118 64" fill="none" xmlns="http://www.w3.org/2000/svg">
<g clip-path="url(#clip0_17_1472)">
<mask id="mask0_17_1472" style="mask-type:luminance" maskUnits="userSpaceOnUse" x="0" y="0" width="118" height="64">
<path d="M118 0H0V64H118V0Z" fill="white"/>
</mask>
<g mask="url(#mask0_17_1472)">
<path d="M117.01 0V63.4C98.26 52.79 80.31 42.63 61.68 32.09V63.52C42.53 52.67 24.31 42.35 5.5 31.69C7.23 30.57 8.49 29.67 9.83 28.91C25.13 20.22 40.45 11.57 55.74 2.85C57.1 2.08 58.25 0.96 59.49 0C60.15 0 60.81 0 61.47 0V30.42C62.39 30.24 62.91 30.27 63.29 30.05C80.29 20.43 97.28 10.78 114.25 1.11C114.6 0.91 114.76 0.38 115.01 0C115.67 0 116.33 0 116.99 0H117.01ZM16.17 31.52C29.93 39.31 42.71 46.54 55.98 54.06V8.95C42.61 16.53 29.85 23.76 16.17 31.52ZM71.72 31.52C85.41 39.28 98.25 46.56 111.42 54.02V8.98C98.05 16.57 85.29 23.81 71.72 31.52Z" fill="white"/>
<path d="M4.96 0V62.77C3.17 62.86 1.59 62.94 0 63.02V0H4.96Z" fill="white"/>
</g>
</g>
<defs>
<clipPath id="clip0_17_1472">
<rect width="118" height="64" fill="white"/>
</clipPath>
</defs>
</svg>
