<svg width="165" height="172" viewBox="0 0 165 172" fill="none" xmlns="http://www.w3.org/2000/svg">
<path d="M85.64 53.4199C101.39 53.4199 117.13 53.4199 132.88 53.4199C137.72 53.4199 140.57 56.2799 140.58 61.1199C140.58 75.6199 140.58 90.1199 140.58 104.62C140.58 109.6 138.55 111.79 133.55 112.43C131.04 112.75 129.08 113.61 128.29 116.52C127.59 119.08 124.97 119.66 122.7 119.83C119.22 120.08 115.69 120.13 112.21 119.83C109.64 119.6 107.17 118.96 106.23 115.68C105.56 113.36 103 112.53 100.76 112.5C90.6 112.37 80.44 112.34 70.28 112.53C67.7 112.58 65.41 113.71 64.46 116.74C63.7 119.17 61.18 119.69 59 119.84C55.52 120.08 51.98 120.14 48.51 119.81C45.96 119.57 43.42 119.01 42.63 115.59C42.14 113.51 39.91 112.64 37.71 112.42C32.55 111.9 30.46 109.57 30.46 104.35C30.46 89.8499 30.46 75.3499 30.46 60.8499C30.46 56.5099 33.53 53.4299 37.89 53.4199C53.8 53.4199 69.72 53.4199 85.63 53.4199H85.64ZM85.73 58.0199C70.48 58.0199 55.23 58.0199 39.98 58.0199C36.44 58.0199 35.21 59.2499 35.21 62.8099C35.2 72.4799 35.21 82.1499 35.21 91.8199C35.21 95.8999 35.2 99.9899 35.24 104.07C35.26 106.28 36.07 107.52 38.66 107.58C41.71 107.65 44.84 108.98 46.09 111.64C47.71 115.09 50.16 115.23 53.15 115.08C54.48 115.01 55.82 114.97 57.15 115.06C58.83 115.17 59.98 114.58 60.69 113.02C62.44 109.17 66.05 107.74 69.68 107.63C80.25 107.31 90.84 107.39 101.42 107.59C104.62 107.65 108.11 108.76 109.64 111.71C111.3 114.92 113.62 115.24 116.56 115.08C118.06 115 119.57 114.91 121.05 115.05C122.76 115.22 123.77 114.36 124.31 112.99C125.69 109.49 128.76 108.27 131.95 107.61C135.73 106.83 135.98 106.86 135.99 103.03C136 89.6899 135.99 76.3599 135.99 63.0199C135.99 59.2299 134.76 58.0099 130.99 58.0099C115.91 58.0099 100.83 58.0099 85.74 58.0099L85.73 58.0199Z" fill="white"/>
<path d="M111.16 96.9595C103.54 96.8995 96.73 90.5995 97.12 82.2095C97.46 74.8695 103.2 68.5595 111.46 68.6895C119.56 68.8195 125.55 75.0995 125.41 83.1295C125.28 90.7795 119.16 96.8795 111.17 96.9595H111.16ZM111.23 91.8395C117.08 91.8895 120.27 87.4195 120.47 82.8495C120.69 78.0095 116.21 73.6795 111.26 73.6595C106.27 73.6395 102.13 77.8095 102.16 82.8295C102.19 87.9495 106.11 91.8495 111.23 91.8395Z" fill="white"/>
<path d="M62.33 82.5C62.33 78.83 62.38 75.16 62.31 71.5C62.27 69.77 63.09 69.43 64.61 69.45C66.04 69.47 67.04 69.6 67.03 71.39C67 78.98 66.99 86.56 67.03 94.15C67.03 95.98 65.98 96.03 64.58 96.07C63.05 96.11 62.26 95.74 62.3 94.01C62.38 90.18 62.33 86.34 62.33 82.51V82.5Z" fill="white"/>
<path d="M53.6499 95.8899H49.4199V69.7799C52.2399 69.3199 53.6499 70.4132 53.6499 73.0599C53.6499 79.6999 53.6499 86.3499 53.6499 92.9899C53.6499 93.8799 53.6499 94.7799 53.6499 95.8899Z" fill="white"/>
<path d="M75.9399 95.8099V69.6299H79.9499V95.8099H75.9399Z" fill="white"/>
</svg>
