<svg width="52" height="46" viewBox="0 0 52 46" fill="none" xmlns="http://www.w3.org/2000/svg">
<g clip-path="url(#clip0_17_1485)">
<path d="M19.1601 10.0801L21.1501 12.2801C21.1501 12.2801 11.7001 17.5301 20.7301 25.9301L18.9901 27.8201C18.9901 27.8201 7.93008 19.8401 19.1601 10.0801Z" fill="white"/>
<path d="M30.29 12.1801C30.29 12.1801 39.32 19.0001 30.29 25.8301L32.3 27.8201C32.3 27.8201 42.81 19.1101 32.3 10.0801" fill="white"/>
<path d="M25.69 22.0905C27.4463 22.0905 28.87 20.6667 28.87 18.9105C28.87 17.1542 27.4463 15.7305 25.69 15.7305C23.9337 15.7305 22.51 17.1542 22.51 18.9105C22.51 20.6667 23.9337 22.0905 25.69 22.0905Z" fill="white"/>
<path d="M26.61 25.4004H24.2V45.9704H26.61V25.4004Z" fill="white"/>
<path d="M35.01 6.61027C35.01 6.61027 49.29 18.5803 35.01 30.8603L36.96 33.0603C36.96 33.0603 52.77 19.9403 36.96 5.03027L35.01 6.60027V6.61027Z" fill="white"/>
<path d="M16.0599 6.61027C16.0599 6.61027 1.77992 18.5803 16.0599 30.8603L14.1099 33.0603C14.1099 33.0603 -1.70008 19.9403 14.1099 5.03027L16.0599 6.60027V6.61027Z" fill="white"/>
<path d="M40.1599 2.1C40.1599 2.1 58.4199 18.26 40.1599 35.69L42.2599 37.68C42.2599 37.68 62.4099 20.68 42.0499 0L40.1599 2.1Z" fill="white"/>
<path d="M10.99 2.30996C10.99 2.30996 -7.27001 18.47 10.99 35.9L8.88999 37.89C8.88999 37.89 -11.26 20.89 9.10999 0.209961L11 2.30996H10.99Z" fill="white"/>
</g>
<defs>
<clipPath id="clip0_17_1485">
<rect width="51.15" height="45.98" fill="white"/>
</clipPath>
</defs>
</svg>
