<svg width="500" height="500" viewBox="0 0 500 500" fill="none" xmlns="http://www.w3.org/2000/svg">
<path d="M187.284 123.526L206.735 145.029C206.735 145.029 114.367 196.345 202.629 278.449L185.622 296.923C185.622 296.923 77.518 218.923 187.284 123.526Z" fill="white"/>
<path d="M296.071 144.052C296.071 144.052 384.334 210.713 296.071 277.472L315.718 296.923C315.718 296.923 418.446 211.788 315.718 123.526" fill="white"/>
<path d="M251.11 240.915C268.276 240.915 282.192 226.999 282.192 209.832C282.192 192.666 268.276 178.75 251.11 178.75C233.943 178.75 220.027 192.666 220.027 209.832C220.027 226.999 233.943 240.915 251.11 240.915Z" fill="white"/>
<path d="M260.102 273.267H236.546V474.325H260.102V273.267Z" fill="white"/>
<path d="M342.207 89.606C342.207 89.606 481.785 206.605 342.207 326.634L361.267 348.137C361.267 348.137 515.799 219.898 361.267 74.1626L342.207 89.5083V89.606Z" fill="white"/>
<path d="M156.983 89.606C156.983 89.606 17.4056 206.605 156.983 326.634L137.923 348.137C137.923 348.137 -16.6091 219.898 137.923 74.1626L156.983 89.5083V89.606Z" fill="white"/>
<path d="M392.544 45.5261C392.544 45.5261 571.023 203.479 392.544 373.846L413.07 393.297C413.07 393.297 610.023 227.133 411.017 25L392.544 45.5261Z" fill="white"/>
<path d="M107.427 47.5783C107.427 47.5783 -71.0523 205.532 107.427 375.898L86.9009 395.349C86.9009 395.349 -110.052 229.185 89.0513 27.0522L107.525 47.5783H107.427Z" fill="white"/>
</svg>
