<svg width="500" height="500" viewBox="0 0 500 500" fill="none" xmlns="http://www.w3.org/2000/svg">
<g clip-path="url(#clip0_3_439)">
<path d="M463.609 224.796H499.794C499.794 236.085 499.794 247.031 499.794 257.976C499.794 272.27 500.309 286.608 499.708 300.902C497.519 351.381 475.155 389.24 427.939 409.586C416.564 414.48 403.085 416.282 390.551 416.325C288.992 416.84 187.433 416.583 85.9168 416.669C81.5385 416.669 77.1602 417.184 69.3479 417.699C81.4956 429.246 91.1535 438.431 100.854 447.574C106.091 452.511 111.199 457.576 116.737 462.126C121.587 466.075 120.943 469.294 116.994 473.458C112.058 478.695 107.594 484.361 101.67 491.314C66.9871 459.207 34.0641 428.73 0.583008 397.696C12.8165 385.506 25.0928 372.585 38.0989 360.438C56.3848 343.397 75.2715 326.957 93.8578 310.216C98.0644 306.439 100.683 305.28 105.748 310.517C122.403 327.686 122.875 327.386 106.048 343.654C94.287 354.986 82.3111 366.104 69.305 378.423C72.4814 379.196 75.5291 380.612 78.5767 380.612C182.282 380.526 285.945 380.999 389.65 379.668C423.732 379.239 450.173 355.974 458.2 322.278C461.72 307.598 462.707 292.231 463.48 277.078C464.339 260.037 463.695 242.91 463.695 224.839L463.609 224.796Z" fill="white"/>
<path d="M36.4254 264.93H0.111326C0.111326 261.453 0.111326 258.062 0.111326 254.671C0.111326 231.792 -0.189143 208.913 0.197177 186.034C0.969817 139.461 28.5702 97.095 72.3531 79.8394C83.5564 75.4182 96.5625 73.7871 108.71 73.7013C210.269 73.2291 311.829 73.4437 413.388 73.4437C417.895 73.4437 422.359 73.4437 429.742 73.4437C417.981 61.5107 408.623 51.8098 399.008 42.3235C393.685 37.0867 387.376 32.7084 382.611 26.9995C380.851 24.8532 380.808 18.9297 382.568 16.6976C386.903 11.0745 392.698 6.52451 399.609 0C432.403 30.3905 465.283 60.8239 498.979 92.03C486.831 104.135 474.34 117.184 461.12 129.503C443.091 146.286 424.333 162.297 406.219 178.995C401.584 183.244 399.48 185.133 394.072 179.124C378.705 162.168 378.018 162.34 394.029 146.158C405.661 134.396 418.024 123.322 431.073 111.003C426.523 110.359 422.531 109.371 418.539 109.329C320.929 109.243 223.318 109.414 125.665 109.157C93.8153 109.071 65.9574 117.742 50.2041 147.231C42.9928 160.752 38.4428 176.849 37.0263 192.13C34.8801 215.824 36.4683 239.905 36.4683 264.93H36.4254Z" fill="white"/>
<path d="M298.908 178.006C304.875 183.973 310.326 189.424 317.108 196.163C304.016 208.783 291.096 221.488 277.918 233.851C269.033 242.221 265.599 244.496 278.219 256.129C291.354 268.191 303.887 280.894 317.194 293.814C310.712 300.167 305.218 305.533 298.307 312.358C284.571 298.064 270.664 284.07 257.272 269.521C251.949 263.726 248.214 263.297 242.806 269.35C229.499 284.156 215.721 298.493 202.5 312.658C194.988 305.189 189.58 299.781 181.725 291.926C196.319 278.404 210.999 264.542 226.066 251.063C231.388 246.299 231.131 243.166 225.894 238.401C211.214 224.966 197.049 211.015 181.682 196.335C189.15 190.196 195.246 185.175 203.273 178.564C215.334 191.27 229.285 205.435 242.591 220.201C248.644 226.897 252.636 225.309 258.001 219.686C271.437 205.607 285.258 191.871 298.994 178.006H298.908Z" fill="#EE3C37"/>
</g>
<defs>
<clipPath id="clip0_3_439">
<rect width="500" height="500" fill="white"/>
</clipPath>
</defs>
</svg>
