<svg width="500" height="500" viewBox="0 0 500 500" fill="none" xmlns="http://www.w3.org/2000/svg">
<path d="M463.57 230.083H499.805C499.805 233.552 499.805 236.936 499.805 240.277C499.805 263.106 500.319 285.979 499.677 308.765C498.692 343.931 485.2 373.699 458.344 396.657C438.856 413.361 415.94 422.013 390.113 422.013C288.773 422.056 187.432 422.013 86.0921 422.013H73.8422C73.1997 423.213 72.5572 424.412 71.8719 425.611C79.8815 432.935 87.891 440.26 95.9434 447.584C103.011 454.009 109.907 460.605 117.188 466.773C122.242 471.056 122.285 474.525 117.188 478.808C111.706 483.391 106.651 488.488 100.141 494.528C67.7601 464.503 34.8223 433.963 0 401.668C8.78054 393.616 17.7752 385.306 26.8556 377.04C49.0425 356.909 71.5293 337.12 93.245 316.518C99.1987 310.864 102.197 311.078 107.679 316.732C124.041 333.607 124.212 333.308 106.951 349.156C94.7441 360.378 82.7084 371.857 69.3877 384.364C73.5424 384.964 76.5406 385.735 79.5388 385.735C183.021 385.649 286.503 386.206 389.942 384.964C422.065 384.578 448.493 360.849 458.258 328.639C467.253 299.085 461.428 269.188 463.398 239.506C463.57 236.722 463.398 233.895 463.398 229.997L463.57 230.083Z" fill="white"/>
<path d="M426.049 79.4418C416.626 68.5625 407.888 58.1544 398.679 48.1317C393.882 42.8634 387.629 38.7944 383.303 33.2262C381.418 30.8276 381.204 24.9168 382.917 22.3897C386.858 16.5218 392.426 11.7246 398.765 5C432.602 36.3101 465.625 66.9349 499.634 98.4163C483.444 113.836 466.953 129.769 450.163 145.403C435.729 158.852 420.738 171.745 406.346 185.279C402.106 189.263 399.493 191.147 394.567 185.836C378.291 168.361 377.906 168.404 395.039 151.142C406.261 139.792 417.954 128.955 430.418 116.963C427.377 116.534 424.25 115.72 421.123 115.72C318.327 115.763 215.53 115.421 112.776 116.32C82.1516 116.577 60.2217 132.339 47.0723 160.908C40.0478 176.156 37.0496 191.49 37.3066 208.023C37.6492 228.625 37.3923 249.227 37.3923 270.429H1.11364C1.11364 266.703 1.11364 263.233 1.11364 259.807C1.11364 235.907 -0.342629 211.878 1.41348 188.106C4.75437 143.604 24.714 109.081 66.4323 89.2932C81.3806 82.2259 96.8858 79.3133 113.505 79.3562C213.774 79.656 314.086 79.4847 414.356 79.4847C418.51 79.4847 422.665 79.4847 426.049 79.4847V79.4418Z" fill="white"/>
<path d="M270.098 333.048H240.415V229.78H209.662V198.77C231.035 199.67 241.101 186.906 245.213 167.803H270.141V333.048H270.098Z" fill="white"/>
</svg>
