<svg width="500" height="500" viewBox="0 0 500 500" fill="none" xmlns="http://www.w3.org/2000/svg">
<path d="M71.9369 316.209C79.0459 314.072 84.9351 312.306 90.6734 310.587C147.429 448.049 268.861 463.418 345.294 437.119C436.188 405.849 492.618 309.239 475.461 217.172C457.375 120.157 370.198 48.8582 268.455 54.1204C179.036 58.7432 99.8383 129.623 86.2132 226.36C101.337 209.343 114.382 194.672 128.123 179.223C134.883 185.658 138.728 189.329 143.514 193.871C119.644 219.565 96.714 244.249 72.4832 270.338C48.3107 244.33 25.381 219.67 0 192.372C4.70445 188.051 8.61904 184.462 12.1038 181.256C29.1906 197.576 44.2795 211.991 61.4131 228.359C70.9965 164.32 99.0022 111.805 150.751 73.6583C203.29 34.9308 262.798 22.9314 325.547 35.7906C434.411 58.1045 504.745 152.53 499.75 264.879C495.278 365.484 412.55 456.413 315.057 467.901C201.861 481.236 102.591 420.345 71.9487 316.221L71.9369 316.209Z" fill="white"/>
</svg>
