<svg width="112" height="64" viewBox="0 0 112 64" fill="none" xmlns="http://www.w3.org/2000/svg">
<g clip-path="url(#clip0_17_1517)">
<mask id="mask0_17_1517" style="mask-type:luminance" maskUnits="userSpaceOnUse" x="0" y="0" width="112" height="64">
<path d="M112 0H0V64H112V0Z" fill="white"/>
</mask>
<g mask="url(#mask0_17_1517)">
<path d="M112 63.01C95.2201 53.59 78.4501 44.17 61.6701 34.76C60.2501 33.97 58.8101 33.23 56.6001 32.05V63.38C37.5501 52.59 19.4301 42.32 0.560059 31.62C19.2101 20.88 37.3301 10.44 55.4401 0C55.7701 0 56.1001 0 56.4301 0V30.26C57.2601 30.31 57.6501 30.46 57.8701 30.33C75.6001 20.23 93.3001 10.12 111.01 0C111.34 1.31 111.96 2.62 111.96 3.94C112.02 23.63 112 43.32 112 63.02V63.01ZM11.3501 31.52C25.1901 39.35 38.0001 46.6 51.1701 54.05V8.94C37.8401 16.5 25.0501 23.75 11.3501 31.52ZM106.89 8.83C93.3201 16.55 80.4801 23.84 66.9401 31.54C80.7901 39.38 93.6001 46.62 106.89 54.14V8.83Z" fill="white"/>
</g>
</g>
<defs>
<clipPath id="clip0_17_1517">
<rect width="112" height="64" fill="white"/>
</clipPath>
</defs>
</svg>
