<svg width="162" height="176" viewBox="0 0 162 176" fill="none" xmlns="http://www.w3.org/2000/svg">
<path d="M127.33 118.08H122.73C122.23 102.89 117.27 89.6905 106.49 78.9205C95.75 68.1805 82.69 63.0405 67.48 62.7905V58.2805C97.08 55.8705 128.56 83.2705 127.33 118.08Z" fill="white"/>
<path d="M67.3999 85.3109V81.1109C85.0199 78.9109 105.94 96.3009 104.48 118.031H100.08C98.2699 98.1809 87.3699 87.3909 67.3999 85.3109Z" fill="white"/>
<path d="M67.2999 110.76C67.3199 106.67 70.5599 103.52 74.7399 103.55C78.8299 103.57 81.8799 106.79 81.8499 111.06C81.8199 115.31 78.7699 118.28 74.4699 118.23C70.2799 118.18 67.2799 115.06 67.2999 110.76Z" fill="white"/>
</svg>
