<svg width="531" height="531" viewBox="0 0 531 531" fill="none" xmlns="http://www.w3.org/2000/svg">
<g clip-path="url(#clip0_17_1537)">
<path d="M149.364 381.636C55.7577 283.942 55.7577 128.877 149.364 33.2273L497.773 381.636C402.123 475.242 247.058 475.242 149.364 381.636ZM149.364 381.636C72.8298 381.636 10 450.157 10 521H288.727C288.727 494.544 280.133 473.756 265.5 451.318M462.932 10C447.531 10 432.761 16.1179 421.871 27.0078C410.981 37.8977 404.864 52.6675 404.864 68.0682C404.864 83.4688 410.981 98.2387 421.871 109.129C432.761 120.018 447.531 126.136 462.932 126.136C478.332 126.136 493.102 120.018 503.992 109.129C514.882 98.2387 521 83.4688 521 68.0682C521 52.6675 514.882 37.8977 503.992 27.0078C493.102 16.1179 478.332 10 462.932 10Z" fill="white"/>
<path d="M149.364 381.636C55.7577 283.942 55.7577 128.877 149.364 33.2273L497.773 381.636C402.123 475.242 247.058 475.242 149.364 381.636ZM149.364 381.636C72.8298 381.636 10 450.157 10 521H288.727C288.727 494.544 280.133 473.756 265.5 451.318M335.182 195.818L428.091 102.909M462.932 10C447.531 10 432.761 16.1179 421.871 27.0078C410.981 37.8977 404.864 52.6675 404.864 68.0682C404.864 83.4688 410.981 98.2387 421.871 109.129C432.761 120.018 447.531 126.136 462.932 126.136C478.332 126.136 493.102 120.018 503.992 109.129C514.882 98.2387 521 83.4688 521 68.0682C521 52.6675 514.882 37.8977 503.992 27.0078C493.102 16.1179 478.332 10 462.932 10Z" stroke="white" stroke-width="19"/>
</g>
<defs>
<clipPath id="clip0_17_1537">
<rect width="531" height="531" fill="white"/>
</clipPath>
</defs>
</svg>
