<svg width="500" height="500" viewBox="0 0 500 500" fill="none" xmlns="http://www.w3.org/2000/svg">
<path d="M250.662 500C163.471 455.533 89.9926 400.048 58.1283 304.217C51.9457 285.748 48.6166 265.615 48.2202 246.116C46.952 186.113 47.7446 126.11 47.7446 64.0457C119.558 56.1192 191.293 50.8878 249.552 0C306.781 50.4122 378.911 56.4363 450.804 63.7286C450.804 133.085 456.432 200.935 449.378 267.438C440.183 354.708 383.43 414.712 313.598 462.587C293.623 476.3 271.904 487.476 250.662 500ZM71.4447 86.7153C71.4447 132.451 72.3166 175.333 71.2069 218.136C69.9387 270.054 83.1758 317.137 113.851 359.226C149.599 408.133 195.89 443.802 250.979 471.069C321.92 431.119 384.618 384.353 414.105 305.327C440.658 234.306 422.348 160.51 428.927 86.8738C363.93 80.3741 303.293 69.5149 249.71 33.3703C196.128 69.5942 135.411 80.3741 71.4447 86.7153Z" fill="white"/>
<path d="M236.711 104.708H263.106V391.17H236.711V104.708Z" fill="white"/>
</svg>
