<svg width="500" height="500" viewBox="0 0 500 500" fill="none" xmlns="http://www.w3.org/2000/svg">
<path d="M253.664 283.663C238.116 303.416 223.334 322.914 207.723 341.774C188.926 364.458 169.683 387.015 140.245 396.7C133.236 398.994 125.972 401.925 118.835 401.988C79.712 402.498 40.525 402.243 0 402.243V367.708C26.3158 367.708 52.6953 366.561 78.8836 367.963C117.943 370.129 148.592 356.047 172.295 325.208C191.411 300.23 211.1 275.698 231.235 250.02C226.265 242.564 222.633 236.193 218.173 230.585C199.184 206.755 180.069 183.051 160.762 159.475C143.112 137.875 119.345 129.528 92.2008 129.4C61.9982 129.273 31.7319 129.4 0.0637201 129.4V94.5461C1.33809 93.6541 2.16643 92.5071 2.99477 92.5071C40.079 92.8894 77.2907 91.8699 114.247 94.2912C151.969 96.7763 179.049 119.651 201.669 148.07C216.07 166.23 230.152 184.581 244.297 202.931C247.037 206.5 249.395 210.45 252.963 215.803C270.294 191.59 284.567 170.435 300.115 150.172C319.804 124.494 342.36 101.364 375.685 94.9284C392.124 91.7425 409.265 92.4434 430.037 91.169C411.877 74.1562 395.82 59.1186 377.788 42.1694C384.669 34.9055 391.169 27.9602 399.452 19.167C433.287 50.3891 465.911 80.528 500 112.005C466.484 143.163 433.988 173.366 400.663 204.333C392.316 196.942 385.052 190.506 376.131 182.605C395.629 164.063 412.514 147.942 430.929 130.356C398.433 126.533 369.186 127.807 348.159 153.932C323.882 184.071 301.007 215.357 275.456 248.936C302.982 284.109 327.514 318.899 355.868 350.313C374.028 370.448 401.172 370.639 430.292 366.879C412.005 349.612 395.247 333.873 377.66 317.306C385.561 308.768 391.806 301.95 399.07 294.113C433.478 326.036 465.974 356.238 499.936 387.779C466.675 418.619 434.497 448.503 400.217 480.362C392.379 472.143 385.498 464.879 377.724 456.723C396.075 439.2 412.96 423.143 433.095 403.9C422.136 403.9 414.872 403.39 407.735 403.964C369.313 407.341 338.728 392.176 314.961 363.311C294.316 338.27 275.264 311.89 253.6 283.727L253.664 283.663Z" fill="white"/>
</svg>
