<svg width="500" height="500" viewBox="0 0 500 500" fill="none" xmlns="http://www.w3.org/2000/svg">
<g clip-path="url(#clip0_19_4637)">
<path d="M405.295 23.333C432.865 48.7828 465.116 78.4742 499.781 110.433C466.506 141.367 434.109 171.424 400.175 202.944C392.424 194.607 385.769 187.44 378.017 179.176C395.861 162.21 412.315 146.486 430.233 129.374C393.082 122.28 363.171 131.275 339.403 160.601C329.165 153.141 320.096 146.633 310.297 139.539C323.095 118.916 340.793 104.509 362.367 98.1465C382.843 92.0766 405.002 91.4184 428.551 88.1275C412.096 72.7699 395.714 57.4854 375.091 38.2518C385.403 33.2058 394.179 28.891 405.368 23.4061L405.295 23.333Z" fill="white"/>
<path d="M400.103 476.823C392.059 468.047 385.477 460.807 378.091 452.763C396.081 435.65 412.609 420 430.087 403.399C406.685 400.547 383.356 401.717 363.391 394.184C343.426 386.725 326.752 370.563 305.764 356.229C319.512 345.991 328.434 339.409 338.892 331.584C362.441 359.301 391.62 369.612 429.283 362.445C411.951 346.356 395.935 331.364 378.237 314.91C385.258 307.45 391.547 300.795 399.811 292.02C433.159 322.662 465.337 352.207 500.001 384.092C466.58 415.1 434.256 445.084 400.25 476.677L400.103 476.823Z" fill="white"/>
<path d="M164.84 159.355C118.182 108.748 56.7513 135.075 0.805664 125.276V90.2459C50.9007 94.6338 102.02 81.0313 149.921 102.971C166.302 110.43 179.905 123.886 197.017 136.172C183.781 145.753 174.712 152.261 164.84 159.355Z" fill="white"/>
<path d="M0 399.885V364.05C25.011 364.05 49.6563 363.319 74.2285 364.197C108.161 365.367 139.901 361.418 164.034 332.092C174.345 339.405 183.487 345.84 193.652 353.081C174.638 380.87 148.018 396.667 116.425 399.08C78.4701 402.005 40.1492 399.812 0 399.812V399.885Z" fill="white"/>
<path d="M268.905 327.34H239.067V226.565C228.244 225.906 219.395 225.395 209.303 224.81V195.118C227.293 193.217 241.481 185.611 242.797 164.769H268.905V327.34Z" fill="white"/>
</g>
<defs>
<clipPath id="clip0_19_4637">
<rect width="500" height="500" fill="white"/>
</clipPath>
</defs>
</svg>
