<svg width="500" height="500" viewBox="0 0 500 500" fill="none" xmlns="http://www.w3.org/2000/svg">
<path d="M429.845 130.574C387.735 125.171 372.297 130.659 338.335 161.534C329.587 155.359 320.582 148.927 310.033 141.466C338.249 99.27 378.644 88.3781 426.414 93.9527L427.015 88.6354C411.406 73.7125 395.797 58.8755 378.387 42.3231C384.819 35.2905 391.165 28.2579 399.484 19.167C433.275 50.4706 465.865 80.6594 499.999 112.22C466.037 143.696 433.876 173.455 400.171 204.759C392.366 196.44 385.762 189.407 377.443 180.574C394.853 163.936 411.063 148.413 429.845 130.488V130.574Z" fill="white"/>
<path d="M310.463 356.392C319.64 349.273 328.302 342.584 339.194 334.179C361.749 362.996 390.566 372.944 427.616 366.34C410.12 350.303 393.825 335.38 376.415 319.428C384.82 310.508 391.081 303.819 399.4 294.899C432.59 325.517 465.266 355.706 499.914 387.781C466.124 419.171 433.619 449.445 400.086 480.577C392.367 472.43 386.106 465.912 377.959 457.335C395.54 442.241 412.521 427.575 429.588 412.91C428.473 411.28 427.273 409.737 426.158 408.107C405.06 404.762 383.533 403.133 363.036 397.558C341.338 391.641 324.442 377.147 310.463 356.306V356.392Z" fill="white"/>
<path d="M313.724 297.728C308.063 303.989 303.432 309.134 293.912 319.597C279.161 301.244 265.353 284.091 248.801 263.594C232.592 284.006 218.869 301.244 204.29 319.683C194.427 309.22 189.796 304.246 183.878 297.899C199.573 281.433 214.495 265.824 230.79 248.671C214.152 231.175 199.058 215.395 183.363 199.014C188.938 193.783 193.569 189.494 199.573 183.834C215.782 199.1 231.562 213.937 248.972 230.232C265.782 214.28 281.134 199.786 297.6 184.177C303.175 188.894 308.406 193.182 314.839 198.585C298.887 215.309 283.878 231.09 267.068 248.671C282.849 265.223 297.429 280.489 313.809 297.728H313.724Z" fill="#EC4E3E"/>
<path d="M0 402.444V367.624C24.9572 367.624 49.0567 367.11 73.0704 367.71C106.775 368.568 138.937 365.823 162.865 335.034C173.328 342.324 182.419 348.671 192.539 355.789C175.043 384.262 148.971 399.099 118.868 401.587C80.1888 404.76 41.0807 402.358 0 402.358V402.444Z" fill="white"/>
<path d="M192.196 141.29C182.591 148.236 174.014 154.411 164.066 161.444C118.354 110.844 56.1752 135.801 0.0859375 126.11V90.0889C46.3124 92.9191 91.424 94.5486 136.364 99.0083C155.747 100.895 178.645 121.049 192.196 141.29Z" fill="white"/>
</svg>
