<svg width="155" height="155" viewBox="0 0 155 155" fill="none" xmlns="http://www.w3.org/2000/svg">
<g clip-path="url(#clip0_17_1578)">
<path d="M95.5832 75.6107C100.227 86.6967 104.492 91.4672 106.666 93.3518C107.621 94.1762 108.73 93.7217 109.014 93.3164C113.292 87.1443 117.186 74.1137 119.711 63.8453C120.214 61.7803 122.045 62.3237 121.999 64.4134C121.921 72.0489 120.634 80.8432 119.177 89.1406C117.364 99.4476 115.067 108.936 111.977 114H73.7897C73.1565 110.849 74.8005 108.822 77.407 107.945C79.823 107.118 86.9809 108.89 86.9809 108.89C84.819 104.919 84.1893 100.423 85.7781 97.8463C86.9683 95.9194 90.7936 95.139 93.5712 95.6238C94.0174 95.7017 94.0264 95.461 93.6457 95.2541C86.7102 91.4781 83.1857 96.321 82.8245 98.6515C82.4117 101.36 82.54 102.263 82.8582 104.726C73.5816 105.443 70.1336 100.63 69.1355 98.7982C68.9592 98.4992 68.7742 98.5929 68.7902 99.0286C68.9131 101.578 69.1176 108.557 68.3277 111.096C67.6355 113.367 66.6214 114 66.6214 114H49.3667C49.4272 112.549 50.1317 109.642 52.9179 108.95C56.2202 108.129 56.7094 108.258 58.0598 104.657C59.4529 100.941 60.3726 96.2379 61.419 88.4767C62.3174 81.8695 63.6056 75.1188 64.0328 72.9335C64.1269 72.4629 64.0096 72.3089 63.5808 72.4487C62.3939 72.8363 59.2038 73.5033 52.0283 72.9935C43.0558 72.3549 41.8868 65.8607 42.008 61.637C45.4969 59.873 59.1344 53.8158 65.924 46.499C66.2707 45.8673 66.8811 45.0765 65.5414 44.9844C64.3936 44.9011 64.3974 44.735 52.5211 44.3049C52.3807 44.2978 52.2044 44.2039 52.4162 44.0555C54.023 42.9017 61.483 37.8162 70.4894 35.4575C74.7683 34.3373 76.1953 35.4575 76.3838 37.9789C76.503 39.6052 76.2897 41.7055 76.1349 43.8465C76.0048 45.6372 77.9745 45.3594 78.2929 44.3544C78.2929 44.3544 81.4065 35.3901 85.9025 32.0493C88.5251 30.1065 92.6262 29.3366 94.1475 30.6604C91.9928 33.7552 89.8987 38.4179 89.3328 42.0152C88.9841 44.1792 88.6016 47.6333 88.3438 49.9638C88.0964 52.2994 87.1107 53.4991 86.7281 54.6352C86.3491 55.7711 86.9809 57.1887 87.8366 58.6431L95.5832 75.6107Z" fill="white"/>
<path d="M67.1333 54.6776L62 54.9648L65.9778 58.1443L64.681 63L68.9974 60.2893L73.3241 63L72.0224 58.1443L76 54.9648L70.8635 54.6776L68.9974 50L67.1333 54.6776Z" fill="white"/>
<path d="M77.5 151C118.093 151 151 118.093 151 77.5C151 36.9071 118.093 4 77.5 4C36.9071 4 4 36.9071 4 77.5C4 118.093 36.9071 151 77.5 151Z" stroke="white" stroke-width="8"/>
</g>
<defs>
<clipPath id="clip0_17_1578">
<rect width="155" height="155" fill="white"/>
</clipPath>
</defs>
</svg>
