<svg width="112" height="104" viewBox="0 0 112 104" fill="none" xmlns="http://www.w3.org/2000/svg">
<path d="M91.1399 59.9597C91.7599 79.2597 75.2699 95.5697 55.6999 95.4497C36.5399 95.3297 20.1299 79.5497 20.4899 59.2397C20.7999 41.0297 36.2899 24.0797 57.2599 24.7197C74.9999 25.2597 91.7099 40.7597 91.1399 59.9697V59.9597ZM24.2699 59.9597C24.0499 77.4197 38.3099 91.0797 54.4999 91.6697C73.5599 92.3597 86.9399 77.2697 87.5999 61.5897C88.3899 42.6197 73.1799 28.9897 57.2999 28.3497C38.8399 27.5997 24.0399 42.6897 24.2799 59.9597H24.2699Z" fill="white"/>
<path d="M55.97 40.4098C50.82 40.0098 46.27 41.8098 41.95 44.3798C41.32 44.7498 40.78 45.2398 39.93 44.7198C38.68 43.9398 38.48 42.9298 39.55 41.9598C41.16 40.4898 43.16 39.6498 45.13 38.8598C49.08 37.2798 53.21 36.5798 57.49 36.8298C62.2 37.0998 66.53 38.5298 70.62 40.7998C71.19 41.1198 71.69 41.5698 72.2 41.9898C72.78 42.4698 72.84 43.1398 72.67 43.8098C72.39 44.8898 71.39 45.2698 70.38 44.7098C68.3 43.5498 66.29 42.2898 63.96 41.5898C62.62 41.1898 61.3 40.6598 59.93 40.4598C58.64 40.2698 57.29 40.4198 55.97 40.4198V40.4098Z" fill="white"/>
<path d="M55.86 83.2399C50.45 83.2399 45.43 81.7899 40.78 79.0799C40.22 78.7599 39.76 78.2599 39.29 77.8099C38.72 77.2699 38.71 76.5199 39.1 75.9999C39.52 75.4399 40.2 74.9499 41.03 75.2899C41.64 75.5399 42.24 75.8299 42.8 76.1699C48.5 79.6499 54.61 80.4699 61.11 79.2499C64 78.7099 66.64 77.7199 69.08 76.1199C69.29 75.9799 69.49 75.8399 69.71 75.7299C70.88 75.1599 72.23 75.2899 72.62 75.9999C73.08 76.8199 72.51 78.3199 71.35 78.9099C70.39 79.3899 69.5 79.9899 68.54 80.4499C64.54 82.3699 60.29 83.2299 55.86 83.2399Z" fill="white"/>
<path d="M56.06 76.6295C52.2 76.5495 48.8 75.6595 45.64 73.9295C45 73.5795 44.44 73.0495 43.91 72.5295C43.32 71.9595 43.14 71.2695 43.65 70.5195C44.18 69.7295 44.88 69.4995 45.79 69.9195C46.69 70.3395 47.6 70.7695 48.4 71.3395C49.45 72.0995 50.64 72.3595 51.83 72.6795C56.68 73.9795 61.12 72.9395 65.25 70.2995C66.08 69.7695 66.82 69.3795 67.74 69.9795C68.74 70.6295 68.8901 71.6795 67.9801 72.4395C65.7301 74.3295 63.15 75.6395 60.25 76.0995C58.79 76.3295 57.34 76.8295 56.08 76.6195L56.06 76.6295Z" fill="white"/>
<path d="M55.8899 43.6994C59.4499 43.3294 62.8099 44.3293 65.9499 46.1693C66.5199 46.4993 67.0699 46.8793 67.5799 47.2993C68.6099 48.1593 68.7699 48.7994 68.2299 49.6094C67.6899 50.4194 66.5299 50.7094 65.5999 50.0394C64.7199 49.4094 63.7899 48.9394 62.8099 48.4894C57.2499 45.9194 51.9399 46.3593 46.8299 49.6693C46.6299 49.7993 46.4799 50.0393 46.2699 50.1393C45.2999 50.6093 43.9699 50.3694 43.5699 49.6794C43.0999 48.8594 43.3999 47.9793 44.4599 47.1693C47.7999 44.6193 51.5499 43.3794 55.8899 43.6994Z" fill="white"/>
<path d="M55.58 50.29C58.52 50.33 60.96 51.23 63.23 52.62C63.79 52.96 64.21 53.48 64.32 54.2C64.53 55.59 63.56 56.45 62.24 55.97C61.63 55.75 61.04 55.43 60.48 55.08C57.55 53.29 54.62 53.24 51.62 54.93C50.91 55.33 50.15 55.67 49.37 55.9C48.62 56.12 47.81 55.95 47.46 55.22C47.14 54.55 47.21 53.81 47.88 53.2C49.07 52.13 50.49 51.44 51.94 50.92C53.16 50.48 54.52 50.46 55.59 50.29H55.58Z" fill="white"/>
<path d="M56.33 69.7297C53.15 69.6497 50.51 68.8497 48.19 67.1197C47.33 66.4797 47.03 65.2497 47.55 64.5397C48 63.9397 49.2 63.7497 50.04 64.2497C50.88 64.7597 51.62 65.3997 52.6 65.6897C55.68 66.5797 58.61 66.4597 61.34 64.5997C61.54 64.4597 61.76 64.3397 61.99 64.2497C62.99 63.8897 63.87 64.0997 64.18 64.7497C64.54 65.5197 64.33 66.7397 63.61 67.1897C62.16 68.0997 60.79 69.1797 58.94 69.2597C57.96 69.2997 57.03 69.8197 56.33 69.7197V69.7297Z" fill="white"/>
</svg>
