<svg width="69" height="73" viewBox="0 0 69 73" fill="none" xmlns="http://www.w3.org/2000/svg">
<g clip-path="url(#clip0_17_1598)">
<path d="M45.1701 55.2999V0.129883C52.2701 1.84988 59.2701 3.10988 64.4701 8.54988C67.2801 11.4899 68.8601 16.3799 68.2501 20.4699C61.6701 19.6699 55.0801 18.8699 48.1801 18.0299V21.0999C48.1801 34.5499 48.3001 47.9999 48.0701 61.4399C48.0201 64.0899 47.2301 67.1799 45.6901 69.2699C42.4101 73.7499 37.3401 73.2499 32.5101 72.4899C29.9001 72.0799 27.6701 70.8099 26.2401 68.5099C22.5001 62.4799 26.5301 55.8899 34.2101 55.5199C36.8601 55.3899 39.5201 55.5099 42.1801 55.4799C43.0701 55.4799 43.9701 55.3699 45.1601 55.2899L45.1701 55.2999ZM44.2401 58.7199C39.7301 59.2299 35.6201 59.4099 31.6501 60.2399C28.0501 60.9899 28.5401 65.9999 30.5201 67.4199C33.2001 69.3499 38.5101 69.7499 41.3801 67.9399C44.5701 65.9299 44.1501 62.6599 44.2501 58.7099L44.2401 58.7199ZM63.7701 15.9699C62.9901 10.4599 56.0901 6.40988 48.9901 5.54988C48.9901 7.95988 48.9201 10.3499 49.0501 12.7199C49.0801 13.2399 49.7901 14.0899 50.2801 14.1599C54.6801 14.8299 59.1001 15.3599 63.7701 15.9699Z" fill="white"/>
<path d="M10.92 24.4697H14.73V34.5697C17.58 34.5697 20.13 34.6097 22.68 34.5597C24.14 34.5297 25.05 34.8197 25.01 36.5997C24.97 38.2797 24.03 38.4497 22.74 38.4397C20.19 38.4097 17.63 38.4397 14.85 38.4397V48.5097H10.92C10.92 45.9897 10.79 43.5097 10.96 41.0597C11.1 38.9297 10.26 38.2697 8.24002 38.4097C6.34002 38.5397 4.42002 38.4197 2.52002 38.4297C1.23002 38.4297 0.52002 37.9597 0.52002 36.5297C0.52002 35.1297 1.16002 34.5797 2.48002 34.5897C4.55002 34.5897 6.63002 34.4997 8.70002 34.5997C10.47 34.6797 11.02 33.9397 10.95 32.2497C10.85 29.6997 10.92 27.1497 10.92 24.4797V24.4697Z" fill="white"/>
</g>
<defs>
<clipPath id="clip0_17_1598">
<rect width="69" height="73" fill="white"/>
</clipPath>
</defs>
</svg>
