<svg width="500" height="500" viewBox="0 0 500 500" fill="none" xmlns="http://www.w3.org/2000/svg">
<path d="M230.274 242.034V284.94H220.279V217.805L265.01 262.611V219.475H275.011V286.855L230.274 242.034ZM333.893 216.842C314.324 216.842 298.409 232.754 298.409 252.327C298.409 271.891 314.324 287.803 333.893 287.803C353.457 287.803 369.379 271.891 369.379 252.327C369.379 232.754 353.457 216.842 333.893 216.842ZM333.893 277.726C320.023 277.726 308.729 266.329 308.729 252.327C308.729 238.323 320.023 226.929 333.893 226.929C347.77 226.929 359.051 238.323 359.051 252.327C359.051 266.329 347.77 277.726 333.893 277.726ZM161.363 216.842C141.794 216.842 125.879 232.754 125.879 252.327C125.879 271.891 141.794 287.803 161.363 287.803C180.935 287.803 196.847 271.891 196.847 252.327C196.847 232.754 180.936 216.842 161.363 216.842ZM161.363 277.726C147.487 277.726 136.207 266.329 136.207 252.327C136.207 238.323 147.487 226.929 161.363 226.929C175.235 226.929 186.526 238.323 186.526 252.327C186.526 266.329 175.235 277.726 161.363 277.726ZM82.3523 257.312L82.3116 257.295C75.6302 255.173 71.1587 253.082 67.7893 250.507C62.9729 246.839 60.5254 242.157 60.5254 236.596C60.5254 231.388 62.9473 226.312 67.1679 222.643C71.4803 218.899 77.4222 216.842 83.8946 216.842C97.4415 216.842 105.182 225.867 105.507 226.255L97.2876 231.807C95.3833 230.385 90.3817 227.193 83.8941 227.193C75.7449 227.193 70.8744 231.973 70.8744 236.596C70.8744 239.821 72.6432 243.367 85.4407 247.439L85.4904 247.447C92.1538 249.563 96.6424 251.66 100.007 254.228C104.829 257.905 107.272 262.586 107.272 268.148C107.272 273.356 104.85 278.44 100.62 282.102C96.317 285.838 90.377 287.894 83.8979 287.894C70.3553 287.894 62.6134 278.877 62.2894 278.488L70.5159 272.935C72.4168 274.36 77.4189 277.552 83.8974 277.552C92.05 277.552 96.9242 272.781 96.9242 268.148C96.9257 264.923 95.1617 261.376 82.3523 257.312ZM409.817 257.312L409.773 257.295C403.097 255.173 398.62 253.082 395.257 250.507C390.445 246.837 387.986 242.156 387.986 236.594C387.986 231.387 390.415 226.311 394.639 222.642C398.936 218.899 404.872 216.842 411.362 216.842C424.908 216.842 432.654 225.867 432.982 226.255L424.752 231.807C422.853 230.385 417.851 227.193 411.362 227.193C403.207 227.193 398.334 231.973 398.334 236.596C398.334 239.821 400.105 243.367 412.912 247.439L412.963 247.447C419.634 249.563 424.106 251.66 427.478 254.228C432.285 257.905 434.736 262.586 434.736 268.148C434.736 273.356 432.315 278.44 428.097 282.102C423.788 285.838 417.846 287.894 411.363 287.894C397.82 287.894 390.084 278.877 389.757 278.488L397.979 272.935C399.886 274.36 404.873 277.552 411.363 277.552C419.524 277.552 424.384 272.781 424.384 268.148C424.383 264.923 422.621 261.376 409.817 257.312Z" fill="white"/>
<path d="M250 475C374.264 475 475 374.264 475 250C475 125.736 374.264 25 250 25C125.736 25 25 125.736 25 250C25 374.264 125.736 475 250 475Z" stroke="white" stroke-width="25"/>
</svg>
