<svg width="100" height="100" viewBox="0 0 100 100" fill="none" xmlns="http://www.w3.org/2000/svg">
<path d="M45.8359 48.3184V57.3762H43.7257V43.2034L53.169 52.6623V43.5559H55.2803V57.7805L45.8359 48.3184ZM67.711 43C63.5797 43 60.2199 46.3592 60.2199 50.4914C60.2199 54.6216 63.5797 57.9806 67.711 57.9806C71.8411 57.9806 75.2025 54.6216 75.2025 50.4914C75.2025 46.3592 71.8411 43 67.711 43ZM67.711 55.8533C64.7828 55.8533 62.3986 53.4473 62.3986 50.4914C62.3986 47.535 64.7828 45.1296 67.711 45.1296C70.6405 45.1296 73.0221 47.535 73.0221 50.4914C73.0221 53.4474 70.6405 55.8533 67.711 55.8533ZM31.2879 43C27.1567 43 23.7968 46.3592 23.7968 50.4914C23.7968 54.6216 27.1567 57.9806 31.2879 57.9806C35.4199 57.9806 38.779 54.6216 38.779 50.4914C38.779 46.3592 35.42 43 31.2879 43ZM31.2879 55.8533C28.3585 55.8533 25.9773 53.4473 25.9773 50.4914C25.9773 47.535 28.3585 45.1296 31.2879 45.1296C34.2164 45.1296 36.6001 47.535 36.6001 50.4914C36.6001 53.4474 34.2164 55.8533 31.2879 55.8533ZM14.6079 51.5437L14.5993 51.5402C13.1888 51.0922 12.2448 50.6508 11.5335 50.1072C10.5167 49.3327 10 48.3444 10 47.1703C10 46.0708 10.5113 44.9992 11.4023 44.2246C12.3127 43.4343 13.5671 43 14.9335 43C17.7934 43 19.4276 44.9054 19.4962 44.9872L17.7609 46.1594C17.3589 45.8592 16.303 45.1852 14.9334 45.1852C13.213 45.1852 12.1848 46.1944 12.1848 47.1703C12.1848 47.8511 12.5582 48.5998 15.2599 49.4595L15.2704 49.4612C16.6771 49.9079 17.6247 50.3506 18.3351 50.8926C19.3529 51.6688 19.8688 52.6571 19.8688 53.8314C19.8688 54.9308 19.3574 56.0041 18.4644 56.7772C17.556 57.5658 16.302 58 14.9342 58C12.0752 58 10.4408 56.0963 10.3724 56.0142L12.1091 54.842C12.5104 55.1428 13.5664 55.8166 14.9341 55.8166C16.6552 55.8166 17.6842 54.8094 17.6842 53.8314C17.6845 53.1505 17.3121 52.4017 14.6079 51.5437ZM83.7394 51.5437L83.73 51.5402C82.3207 51.0922 81.3755 50.6508 80.6656 50.1071C79.6496 49.3324 79.1306 48.3441 79.1306 47.17C79.1306 46.0706 79.6433 44.9991 80.5351 44.2244C81.4423 43.4343 82.6955 43 84.0655 43C86.9252 43 88.5604 44.9054 88.6298 44.9872L86.8923 46.1594C86.4914 45.8592 85.4354 45.1852 84.0655 45.1852C82.3438 45.1852 81.3152 46.1944 81.3152 47.1703C81.3152 47.8511 81.689 48.5998 84.3928 49.4595L84.4034 49.4612C85.8118 49.9079 86.756 50.3506 87.4677 50.8926C88.4826 51.6688 89 52.6571 89 53.8314C89 54.9308 88.4889 56.0041 87.5985 56.7772C86.6888 57.5658 85.4344 58 84.0658 58C81.2067 58 79.5735 56.0963 79.5045 56.0142L81.2403 54.842C81.6427 55.1428 82.6957 55.8166 84.0658 55.8166C85.7885 55.8166 86.8147 54.8094 86.8147 53.8314C86.8144 53.1505 86.4423 52.4017 83.7394 51.5437Z" fill="white"/>
<circle cx="50" cy="50" r="47.5" stroke="white" stroke-width="5"/>
</svg>
