<svg width="500" height="500" viewBox="0 0 500 500" fill="none" xmlns="http://www.w3.org/2000/svg">
<g clip-path="url(#clip0_19_4286)">
<path d="M0.0801488 249.709C-3.49724 115.646 113.117 -6.48372 262.495 0.267369C381.683 5.62469 507.023 107.762 499.693 265.041C494.24 382.073 392.59 505.597 237.366 499.804C115.167 495.231 -3.01735 389.957 0.0801488 249.709ZM249.101 474.367C375.881 473.496 470.114 373.145 473.648 259.161C477.924 121.7 369.206 30.2771 259.703 26.3135C123.195 21.3918 23.6822 130.367 25.0783 252.41C26.4743 373.188 123.631 473.017 249.145 474.367H249.101Z" fill="white"/>
<path d="M245.656 140.646C293.427 143.477 339.846 146.831 384.52 161.291C397.302 165.429 409.78 170.569 422.039 176.057C436.523 182.546 442.543 197.791 436.435 210.248C429.237 224.839 416.891 227.452 400.662 221.79C376.231 213.253 351.451 204.193 326.104 200.404C290.984 195.177 255.079 192.085 219.611 192.826C180.957 193.61 142.304 198.967 105.876 214.298C94.0094 219.307 77.344 211.641 74.5519 201.145C69.7529 183.156 76.8205 168.957 91.8717 165.298C116.87 159.244 141.475 151.056 166.779 147.049C193.173 142.867 220.178 142.519 245.699 140.603L245.656 140.646Z" fill="white"/>
<path d="M383.996 304.373C381.335 303.327 374.965 300.235 368.334 298.319C340.282 290.217 312.492 280.112 283.873 275.234C258.787 270.966 232.437 270.095 207.133 272.621C179.91 275.321 153.211 283.466 126.38 289.651C112.158 292.918 99.7678 289.172 95.3615 279.154C91.6096 270.617 96.7576 254.981 105.919 251.409C117.917 246.705 130.481 243.439 142.915 240.041C186.76 228.151 231.739 227.541 276.325 231.33C303.766 233.639 330.771 242.35 357.602 249.58C371.17 253.239 384.258 259.249 396.866 265.521C405.722 269.92 410.957 278.457 407.903 288.693C405.199 297.752 400.007 305.81 383.996 304.46V304.373Z" fill="white"/>
<path d="M239.373 310.384C287.406 311.821 330.684 319.443 370.995 339.96C381.989 345.535 383.079 355.814 378.804 364.7C375.314 371.886 368.595 376.416 357.645 371.233C313.756 350.501 267.163 340.439 218.65 345.927C190.293 349.15 162.284 355.945 134.276 361.912C124.591 363.959 112.55 360.431 110.543 351.807C108.1 341.354 112.245 333.732 122.933 330.073C161.717 316.743 201.985 312.736 239.373 310.384Z" fill="white"/>
</g>
<defs>
<clipPath id="clip0_19_4286">
<rect width="500" height="500" fill="white"/>
</clipPath>
</defs>
</svg>
