<svg width="500" height="500" viewBox="0 0 500 500" fill="none" xmlns="http://www.w3.org/2000/svg">
<path d="M96.7426 488.838C102.682 469.735 108.437 450.631 114.683 431.65C126.99 394.116 139.971 356.705 151.543 318.926C152.768 314.885 148.053 306.803 143.828 303.619C100.355 270.371 56.3924 237.736 12.552 204.917C9.49057 202.652 6.73524 200.019 0 194.386C9.85795 194.386 15.1849 194.386 20.4506 194.386C72.0059 194.386 123.5 194.08 175.055 194.631C186.26 194.753 192.138 192.304 195.751 180.487C211.915 127.095 229.243 74.0698 246.204 20.9226C247.061 18.2285 248.592 15.7793 251.653 9.1665C255.817 20.3103 259.001 27.7803 261.45 35.4952C277.186 85.336 292.493 135.299 308.964 184.895C310.433 189.365 319.434 193.896 324.945 194.018C377.48 194.692 430.076 194.447 482.611 194.447C487.999 194.447 493.448 194.447 498.837 194.447C499.204 195.549 499.633 196.59 500 197.692C481.692 211.652 463.446 225.735 444.955 239.573C416.544 260.881 388.134 282.189 359.417 303.068C351.763 308.64 349.375 313.538 352.682 323.396C369.826 373.788 385.929 424.547 402.339 475.184C403.808 479.715 404.788 484.43 403.135 490.859C381.031 475.123 358.744 459.571 336.762 443.651C311.291 425.221 285.88 406.668 260.715 387.748C253.857 382.605 249.02 382.911 241.918 388.055C195.016 422.527 147.686 456.448 100.478 490.553C99.1918 490.002 97.906 489.389 96.5589 488.838H96.7426ZM429.219 218.571C419.361 218.143 414.034 217.714 408.584 217.714C373.928 217.653 339.211 217.53 304.555 217.775C295.677 217.837 290.963 215.387 288.452 205.836C283.064 185.263 276.206 165.057 269.655 144.79C264.45 128.686 258.756 112.767 251.837 92.7448C248.898 99.5412 247.428 102.297 246.51 105.236C235.795 138.544 224.957 171.853 214.732 205.285C211.854 214.714 206.956 217.959 197.159 217.837C162.503 217.347 127.786 217.592 93.1301 217.714C87.9868 217.714 82.7823 218.265 73.7203 218.816C103.539 241.104 129.929 260.697 156.196 280.352C174.524 294.067 180.423 311.783 173.892 333.499C172.422 338.336 170.708 343.112 169.116 347.888C161.034 372.808 152.89 397.668 144.808 422.588C172.239 406.607 196.853 388.361 221.957 370.849C259.123 344.949 243.816 345.255 281.227 371.216C306.025 388.483 330.333 406.485 354.886 424.119C348.09 392.402 338.538 362.706 328.313 333.193C317.72 302.517 317.414 302.578 343.314 282.985C370.683 262.35 398.114 241.777 429.096 218.449L429.219 218.571Z" fill="white"/>
</svg>
