<svg width="118" height="110" viewBox="0 0 118 110" fill="none" xmlns="http://www.w3.org/2000/svg">
<path d="M114 98L109 93H118V97C118 97.8 117.333 98 117 98H114Z" fill="white"/>
<path fill-rule="evenodd" clip-rule="evenodd" d="M4 18.5402V86C4 88.2091 5.79086 90 8 90H67.6153L4 18.5402ZM107.363 90H109C111.209 90 113 88.2091 113 86V18C113 15.7909 111.209 14 109 14H39.7064L107.363 90Z" fill="white"/>
<path d="M73.471 93H0V97C0 97.4 0.670968 97.8333 1.00645 98H78L73.471 93Z" fill="white"/>
<path d="M9.50997 7.80576L98.9988 107.193C100.385 108.732 102.756 108.857 104.295 107.471C105.834 106.085 105.958 103.714 104.572 102.175L15.0836 2.78728C13.6977 1.24817 11.3266 1.12391 9.78752 2.50972C8.24842 3.89554 8.12415 6.26665 9.50997 7.80576Z" fill="#EB5445"/>
</svg>
