<svg width="500" height="500" viewBox="0 0 500 500" fill="none" xmlns="http://www.w3.org/2000/svg">
<path d="M249.5 489.739C369.622 489.739 467 392.361 467 272.239C467 152.117 369.622 54.7388 249.5 54.7388C129.378 54.7388 32 152.117 32 272.239C32 392.361 129.378 489.739 249.5 489.739Z" stroke="white" stroke-width="20"/>
<path d="M250.188 300.459C265.393 300.459 277.72 288.133 277.72 272.928C277.72 257.722 265.393 245.396 250.188 245.396C234.983 245.396 222.656 257.722 222.656 272.928C222.656 288.133 234.983 300.459 250.188 300.459Z" fill="white"/>
<path d="M448.905 83.1548L439.171 73.4209C433.796 68.045 425.079 68.045 419.704 73.4209L409.97 83.1548C404.594 88.5307 404.594 97.2468 409.97 102.623L419.704 112.357C425.079 117.732 433.796 117.732 439.171 112.357L448.905 102.623C454.281 97.2468 454.281 88.5307 448.905 83.1548Z" fill="white"/>
<path d="M281.849 10H219.903C212.3 10 206.137 16.1632 206.137 23.7658C206.137 31.3685 212.3 37.5316 219.903 37.5316H281.849C289.451 37.5316 295.615 31.3685 295.615 23.7658C295.615 16.1632 289.451 10 281.849 10Z" fill="white"/>
<path d="M393.208 363.831C394.601 364.822 393.299 366.96 391.779 366.177L236.56 286.088C235.851 285.722 235.6 284.832 236.016 284.149L248.876 263.039C249.292 262.358 250.197 262.17 250.849 262.633L393.208 363.831Z" fill="white"/>
</svg>
