<svg width="500" height="500" viewBox="0 0 500 500" fill="none" xmlns="http://www.w3.org/2000/svg">
<path d="M483.05 432.702L461.863 411.515H499.999V428.464C499.999 431.854 497.173 432.702 495.762 432.702H483.05Z" fill="white"/>
<path fill-rule="evenodd" clip-rule="evenodd" d="M16.9492 96.0077V381.854C16.9492 391.215 24.5376 398.803 33.8984 398.803H286.506L16.9492 96.0077ZM454.928 398.803H461.864C471.225 398.803 478.814 391.215 478.814 381.854V93.7187C478.814 84.3581 471.225 76.7695 461.864 76.7695H168.248L454.928 398.803Z" fill="white"/>
<path d="M311.318 411.515H0V428.464C0 430.159 2.84309 431.995 4.26462 432.702H330.509L311.318 411.515Z" fill="white"/>
<path d="M40.2964 50.5224L419.486 471.655C425.36 478.176 435.407 478.706 441.928 472.833C448.449 466.96 448.974 456.913 443.102 450.392L63.9135 29.2576C58.041 22.736 47.994 22.2094 41.4724 28.0815C34.9508 33.9536 34.4243 44.0007 40.2964 50.5224Z" fill="#FD4339"/>
</svg>
