<svg width="500" height="500" viewBox="0 0 500 500" fill="none" xmlns="http://www.w3.org/2000/svg">
<path d="M250.454 127.601C321.186 127.601 374.387 180.463 374.455 250.789C374.455 320.303 319.629 374.993 250.319 374.654C180.941 374.316 127.063 319.761 126.995 249.774C126.995 181.14 181.076 127.601 250.522 127.601H250.454ZM351.645 250.112C351.442 194.88 305.754 149.395 250.59 149.531C194.681 149.666 149.535 195.76 149.941 252.211C150.347 306.156 195.764 351.574 250.116 352.386C305.077 353.198 351.78 306.089 351.577 250.112H351.645Z" fill="white"/>
<path d="M258.374 494.933H243.145V398.277C247.815 397.939 252.418 397.533 258.374 397.126V495V494.933Z" fill="white"/>
<path d="M258.442 104.52C252.079 103.978 247.883 103.64 242.874 103.234V6.7811C247.95 6.44267 252.553 6.17193 258.442 5.8335V104.587V104.52Z" fill="white"/>
<path d="M149.67 141.747C147.572 143.71 144.12 146.959 141.142 149.734C117.654 126.585 95.1827 104.452 71.8311 81.4389C74.4031 78.4607 77.5167 74.8057 80.901 70.8799C104.05 94.7054 126.318 117.719 149.602 141.747H149.67Z" fill="white"/>
<path d="M359.158 152.644C355.638 148.583 352.592 144.996 349.275 141.205C374.116 116.974 396.859 94.8404 420.819 71.4888C423.527 74.3993 427.047 78.1897 430.363 81.8447C407.147 104.926 385.081 126.924 359.158 152.712V152.644Z" fill="white"/>
<path d="M139.043 349.001C143.713 353.198 146.962 356.041 150.753 359.425C127.13 381.965 103.982 404.03 79.6825 427.179C77.9227 425.148 74.403 421.29 70.5449 417.026C93.6935 394.013 115.759 372.082 139.043 349.001Z" fill="white"/>
<path d="M352.188 358.477C354.557 356.311 358.076 353.13 361.867 349.678C384.271 372.759 405.862 395.028 429.011 418.786C427.454 420.749 424.341 424.81 420.686 429.412C397.605 405.519 375.742 382.844 352.188 358.477Z" fill="white"/>
<path d="M102.222 243.276V258.302H5.16053C4.61904 253.97 4.07755 249.3 3.33301 243.276H102.222Z" fill="white"/>
<path d="M399.363 258.505V243.073H496.696V258.505H399.363Z" fill="white"/>
</svg>
