<svg width="500" height="500" viewBox="0 0 500 500" fill="none" xmlns="http://www.w3.org/2000/svg">
<g clip-path="url(#clip0_19_4886)">
<path d="M58.777 235.517H235.44C235.44 207.012 235.919 180.006 234.824 153.069C234.687 149.318 226.956 144.886 221.961 142.567C192.129 128.86 174.956 103.423 176.119 71.8483C177.282 40.0011 193.292 17.5648 222.577 5.22137C257.334 -9.37245 301.192 7.88099 316.176 41.365C334.103 81.4639 318.64 124.427 278.271 141.544C266.64 146.454 263.219 152.046 263.629 163.776C264.45 186.826 263.834 209.944 263.834 234.699H440.497C440.497 267.774 441.044 299.212 440.223 330.65C439.881 345.38 441.523 354.041 458.765 360.247C488.734 371.022 504.95 408.257 498.655 440.445C492.702 470.928 465.881 496.365 436.46 499.434C401.634 503.048 369.955 484.567 357.845 453.47C342.176 413.167 360.65 372.386 400.745 357.11C405.123 355.405 411.145 350.086 411.281 346.267C412.171 319.807 411.76 293.347 411.76 265.933H87.8559C87.8559 293.143 87.4454 320.012 88.3348 346.881C88.4717 350.563 94.7664 355.541 99.2137 357.246C132.672 369.862 154.087 407.916 146.082 441.672C137.256 479.043 100.719 504.139 61.9244 499.434C27.3034 495.206 0.208712 463.904 0.00344927 427.829C-0.270234 392.572 15.7402 370.067 48.9244 356.633C53.4402 354.791 58.0244 347.017 58.1612 341.834C59.0507 312.442 58.5717 282.981 58.5717 253.589C58.5717 248.065 58.5717 242.542 58.5717 235.586L58.777 235.517ZM248.919 25.4754C224.834 26.2256 201.229 50.9805 201.913 74.7807C202.598 99.1947 226.819 122.995 250.492 122.381C274.919 121.767 297.976 97.4898 297.292 73.2123C296.54 48.2527 272.729 24.7253 248.987 25.4754H248.919ZM73.0769 473.451C98.1874 473.52 121.04 450.879 120.903 425.851C120.835 401.028 97.6401 377.978 72.9401 378.114C48.5823 378.25 25.1139 401.642 24.9771 425.919C24.9086 450.606 47.8981 473.383 73.0085 473.451H73.0769ZM426.813 473.451C452.402 472.906 474.571 450.265 473.955 425.305C473.408 400.414 450.213 377.773 425.718 378.114C400.745 378.523 377.892 401.846 378.303 426.397C378.713 451.629 401.839 473.997 426.813 473.383V473.451Z" fill="white"/>
</g>
<defs>
<clipPath id="clip0_19_4886">
<rect width="500" height="500" fill="white"/>
</clipPath>
</defs>
</svg>
