<svg width="500" height="500" viewBox="0 0 500 500" fill="none" xmlns="http://www.w3.org/2000/svg">
<path d="M35.9148 472.438C10.1254 461.364 0.847167 442.109 1.39588 414.025C2.7926 340.099 1.79495 266.123 1.89471 192.147C1.89471 162.217 7.48159 156.78 38.1595 156.78C180.525 156.73 322.891 156.68 465.256 156.78C493.989 156.78 499.376 162.317 499.426 191.598C499.526 265.574 498.528 339.55 499.975 413.477C500.523 441.311 491.944 460.865 466.404 472.388H35.9148V472.438ZM471.841 185.911H29.5797C29.5797 267.17 29.1806 346.833 30.4277 426.496C30.5275 432.183 42.4495 442.558 48.8843 442.608C183.269 443.556 317.703 443.257 452.087 443.456C465.256 443.456 471.99 438.767 471.941 424.8C471.741 345.885 471.841 266.971 471.841 185.911Z" fill="white"/>
<path d="M31.7255 114.73H497.881V140.121H3.09274C2.09508 122.113 1.14731 104.355 0 83.3041C161.72 55.669 323.39 27.9843 487.056 0C488.852 9.12856 490.199 15.9625 492.144 26.0887C337.507 52.6761 184.317 79.0142 31.1269 105.302C31.3264 108.445 31.526 111.588 31.6756 114.73H31.7255Z" fill="white"/>
<path d="M261.685 377.515H239.537V250.913C245.972 250.214 252.906 249.466 261.685 248.518V377.465V377.515Z" fill="white"/>
</svg>
