<svg width="102" height="96" viewBox="0 0 102 96" fill="none" xmlns="http://www.w3.org/2000/svg">
<path d="M7.92995 95.9996C2.75995 93.7796 0.899948 89.9196 1.00995 84.2896C1.28995 69.4696 1.08995 54.6396 1.10995 39.8096C1.10995 33.8096 2.22995 32.7196 8.37995 32.7196C36.92 32.7096 65.4599 32.6996 93.9999 32.7196C99.7599 32.7196 100.84 33.8296 100.85 39.6996C100.87 54.5296 100.67 69.3596 100.96 84.1796C101.07 89.7596 99.3499 93.6796 94.2299 95.9896H7.92995V95.9996ZM95.3199 38.5596H6.65995C6.65995 54.8496 6.57995 70.8196 6.82995 86.7896C6.84995 87.9296 9.23995 90.0096 10.5299 90.0196C37.4699 90.2096 64.4199 90.1496 91.3599 90.1896C93.9999 90.1896 95.3499 89.2496 95.3399 86.4496C95.2999 70.6296 95.3199 54.8096 95.3199 38.5596Z" fill="white"/>
<path d="M7.08998 24.29H100.54V29.38H1.34998C1.14998 25.77 0.95998 22.21 0.72998 17.99C33.15 12.45 65.56 6.90004 98.37 1.29004C98.73 3.12004 99 4.49004 99.39 6.52004C68.39 11.85 37.68 17.13 6.96998 22.4C7.00998 23.03 7.04998 23.66 7.07998 24.29H7.08998Z" fill="white"/>
<path d="M53.19 76.9703H48.75V51.5904C50.04 51.4504 51.43 51.3004 53.19 51.1104V76.9604V76.9703Z" fill="white"/>
</svg>
