<svg width="500" height="500" viewBox="0 0 500 500" fill="none" xmlns="http://www.w3.org/2000/svg">
<path d="M466.778 20.6757C466.778 28.9585 466.778 34.6707 466.778 40.3116C466.778 93.6497 466.778 146.916 466.778 200.255C466.778 219.605 464.993 224.246 446 229.887C428.72 235.028 418.51 243.953 410.941 260.662C393.304 299.862 371.812 337.42 354.675 376.834C348.392 391.258 349.248 409.109 348.106 425.46C346.892 443.168 346.749 460.947 346.964 478.727C347.035 487.723 343.893 492.293 335.254 495.649C307.549 506.288 280.202 497.149 265.278 471.158C249.57 443.953 243.572 413.678 240.644 383.189C238.359 359.912 240.216 336.206 240.216 311.144C208.584 313.786 178.167 316.285 147.749 318.927C135.396 319.998 123.043 321.568 110.691 322.996C75.846 327.066 55.0677 307.145 58.138 272.015C58.7092 265.089 60.7799 258.305 62.1366 251.665C27.2205 223.104 25.2926 207.323 49.641 170.622C47.4276 154.2 44.3572 140.49 44.143 126.781C43.9288 112.072 53.4968 101.79 64.9927 94.0781C63.5647 82.5108 61.0655 71.5147 61.0655 60.5187C61.1369 35.1706 76.1316 20.9614 101.408 18.3908C144.322 14.0353 187.235 8.96562 230.077 3.7532C288.342 -3.31571 345.821 -1.45923 401.658 18.5336C422.151 25.8168 442.929 28.0303 466.849 20.6043L466.778 20.6757ZM441.359 53.307C422.365 48.88 404.3 46.0952 387.092 40.383C341.323 25.1027 294.625 21.961 247.071 27.2448C199.516 32.5287 151.962 38.0981 104.407 43.3819C90.3408 44.9528 85.1284 49.594 86.485 63.8746C87.1991 71.0863 90.7692 78.298 94.1252 84.9385C97.1955 91.0792 101.694 96.5772 106.764 104.146C98.9092 107.502 92.6971 110.358 86.4136 112.857C65.2783 121.069 61.494 134.849 75.7746 152.486C81.1298 159.126 87.0563 165.41 93.6968 172.979C84.2002 179.333 76.7028 183.76 69.8481 189.044C53.9966 201.254 55.8531 217.82 74.0609 226.102C83.3433 230.387 93.1255 233.743 104.122 238.098C98.0524 246.881 92.9113 253.95 88.1987 261.304C82.4865 270.087 79.7018 278.727 85.414 289.437C91.2691 300.362 100.266 299.79 109.762 298.791C149.748 294.792 189.663 290.08 229.72 286.581C245.785 285.224 262.065 286.367 279.273 286.367C277.917 290.794 277.417 294.364 275.775 297.291C264.279 317.784 262.565 339.99 264.207 362.697C265.35 377.977 266.064 393.543 269.634 408.395C274.132 427.174 277.488 446.738 290.412 462.518C299.838 474.014 307.121 476.656 322.829 472.086C322.829 456.877 322.115 440.954 322.972 425.103C324.186 402.183 323.9 378.977 334.682 357.627C354.675 318.141 374.954 278.798 393.733 238.812C401.444 222.318 413.011 212.893 429.934 208.537C433.79 207.538 437.431 205.824 441.501 204.325V53.3784L441.359 53.307Z" fill="white"/>
</svg>
