<svg width="500" height="500" viewBox="0 0 500 500" fill="none" xmlns="http://www.w3.org/2000/svg">
<path d="M249.176 477.454C192.584 477.454 135.992 477.16 79.4 477.601C50.4736 477.822 26.3683 469.366 10.4217 444.074C-6.71165 416.943 -0.629689 390.915 13.611 364.74C41.7957 312.905 69.4612 260.849 97.2008 208.793C122.122 162.178 146.895 115.416 171.668 68.7272C190.804 32.6998 220.991 19.1712 261.414 22.0386C300.205 24.7591 319.267 49.9782 335.139 79.903C383.646 171.883 432.005 263.863 480.216 355.99C487.485 369.813 496.608 383.93 499.055 398.782C506.027 442.089 473.615 477.013 428.148 477.307C368.516 477.675 308.809 477.381 249.176 477.381V477.454ZM249.398 453.779C263.565 453.779 277.657 453.779 291.824 453.779C336.103 453.632 380.383 454.294 424.588 453.117C466.717 452.014 485.26 413.414 466.643 381.871C428.371 317.022 395.291 249.158 359.838 182.691C340.405 146.223 322.382 108.798 300.353 73.9475C275.506 34.6115 217.802 38.6553 195.847 79.6089C141.035 181.956 86.4461 284.524 31.7827 386.945C19.0996 410.767 26.665 435.618 51.5862 446.132C63.0084 450.985 76.4332 453.264 88.968 453.411C142.445 454.147 195.921 453.706 249.472 453.706L249.398 453.779Z" fill="white"/>
</svg>
