<svg width="114" height="115" viewBox="0 0 114 115" fill="none" xmlns="http://www.w3.org/2000/svg">
<path d="M64.9999 89.2797C57.3699 89.2797 49.7399 89.2397 42.1099 89.2997C38.2099 89.3297 34.9599 88.1797 32.8099 84.7397C30.4999 81.0497 31.3199 77.5097 33.2399 73.9497C37.0399 66.8997 40.7699 59.8197 44.5099 52.7397C47.8699 46.3997 51.2099 40.0397 54.5499 33.6897C57.1299 28.7897 61.1999 26.9497 66.6499 27.3397C71.8799 27.7097 74.4499 31.1397 76.5899 35.2097C83.1299 47.7197 89.6499 60.2297 96.1499 72.7597C97.1299 74.6397 98.3599 76.5597 98.6899 78.5797C99.6299 84.4697 95.2599 89.2197 89.1299 89.2597C81.0899 89.3097 73.0399 89.2697 64.9999 89.2697V89.2797ZM65.0299 86.0597C66.9399 86.0597 68.8399 86.0597 70.7499 86.0597C76.7199 86.0397 82.6899 86.1297 88.6499 85.9697C94.3299 85.8197 96.8299 80.5697 94.3199 76.2797C89.1599 67.4597 84.6999 58.2297 79.9199 49.1897C77.2999 44.2297 74.8699 39.1397 71.8999 34.3997C68.5499 29.0497 60.7699 29.5997 57.8099 35.1697C50.4199 49.0897 43.0599 63.0397 35.6899 76.9697C33.9799 80.2097 34.9999 83.5897 38.3599 85.0197C39.8999 85.6797 41.7099 85.9897 43.3999 86.0097C50.6099 86.1097 57.8199 86.0497 65.0399 86.0497L65.0299 86.0597Z" fill="white"/>
</svg>
