<svg width="500" height="500" viewBox="0 0 500 500" fill="none" xmlns="http://www.w3.org/2000/svg">
<path d="M236.616 406.144H222.479C160.468 406.144 98.5074 406.144 36.4963 406.144C14.4892 406.144 0.502857 392.007 0.502857 369.75C0.502857 275.405 1.10442 181.009 0.00155326 86.6644C-0.198967 67.9659 19.051 49.0668 37.0979 49.1671C179.367 49.8689 321.637 49.5681 463.956 49.5681C485.964 49.5681 500 63.7048 500 85.8623C500 180.659 500 275.405 500 370.201C500 392.91 486.615 406.144 463.555 406.144C400.742 406.144 337.929 406.144 275.116 406.144C270.604 406.144 266.093 406.144 260.578 406.144V428.502H392.02V450.008H108.734V428.803H236.616V406.144ZM250.602 383.987C319.231 383.987 387.859 383.987 456.537 383.987C473.08 383.987 477.842 379.625 477.842 363.784C477.893 273.6 477.893 183.366 477.842 93.1814C477.842 76.8389 472.579 71.8259 456.086 71.7758C319.231 71.7758 182.375 71.7758 45.5198 71.7758C27.9742 71.7758 22.911 76.9893 22.911 94.9359C22.911 183.466 22.911 271.996 22.911 360.576C22.911 380.127 26.7209 384.037 45.9709 384.037C114.198 384.037 182.425 384.037 250.652 384.037L250.602 383.987Z" fill="white"/>
</svg>
