<svg width="133" height="111" viewBox="0 0 133 111" fill="none" xmlns="http://www.w3.org/2000/svg">
<path d="M63.5499 88.13H60.7299C48.3599 88.13 35.9999 88.13 23.6299 88.13C19.2399 88.13 16.4499 85.31 16.4499 80.87C16.4499 62.05 16.5699 43.22 16.3499 24.4C16.3099 20.67 20.1499 16.9 23.7499 16.92C52.1299 17.06 80.5099 17 108.9 17C113.29 17 116.09 19.82 116.09 24.24C116.09 43.15 116.09 62.05 116.09 80.96C116.09 85.49 113.42 88.13 108.82 88.13C96.2899 88.13 83.7599 88.13 71.2299 88.13C70.3299 88.13 69.4299 88.13 68.3299 88.13V92.59H94.5499V96.88H38.0399V92.65H63.5499V88.13ZM66.3399 83.71C80.0299 83.71 93.7199 83.71 107.42 83.71C110.72 83.71 111.67 82.84 111.67 79.68C111.68 61.69 111.68 43.69 111.67 25.7C111.67 22.44 110.62 21.44 107.33 21.43C80.0299 21.43 52.7299 21.43 25.4299 21.43C21.9299 21.43 20.9199 22.47 20.9199 26.05C20.9199 43.71 20.9199 61.37 20.9199 79.04C20.9199 82.94 21.6799 83.72 25.5199 83.72C39.1299 83.72 52.7399 83.72 66.3499 83.72L66.3399 83.71Z" fill="white"/>
</svg>
