<svg width="114" height="134" viewBox="0 0 114 134" fill="none" xmlns="http://www.w3.org/2000/svg">
<path d="M72.8001 77.8002C67.6401 82.9702 62.6301 88.0002 57.5901 93.0002C57.2601 93.3302 56.7201 93.4402 56.1201 93.7302C55.4701 93.2702 54.7401 92.8902 54.1801 92.3302C47.6701 85.8502 41.1801 79.3502 34.7001 72.8402C34.2501 72.3902 33.9101 71.8202 33.3601 71.1002C33.9701 70.2702 34.4601 69.4202 35.1301 68.7502C39.2001 64.6302 43.3001 60.5402 47.4001 56.4502C49.5601 54.3002 50.1501 54.2802 52.2501 56.3802C58.0301 62.1502 63.8001 67.9402 69.5701 73.7202C70.3901 74.5402 71.2101 75.3502 71.9701 76.2202C72.2701 76.5702 72.4201 77.0502 72.8001 77.7702V77.8002ZM68.8501 77.4102C65.5201 74.0302 62.5401 70.8502 59.3801 67.8602C56.1901 64.8402 53.3501 61.4402 49.5601 58.4202C45.4001 62.6202 41.3901 66.6602 37.1801 70.9002C40.5001 74.3102 43.5501 77.4902 46.6601 80.6102C49.7701 83.7202 52.9401 86.7702 56.2601 90.0102C60.5301 85.7402 64.5901 81.6702 68.8501 77.4102Z" fill="white"/>
<path d="M38.35 86.7306C36.68 85.1706 35.5 84.1306 34.4 83.0106C33.14 81.7006 33.13 80.9606 34.26 79.5706C34.78 78.9306 35.36 78.3306 35.65 78.0006C37.31 77.4206 38.24 77.8206 39.15 78.7606C42.14 81.8506 45.22 84.8706 48.24 87.9406C50.02 89.7406 49.96 90.3606 47.96 92.4406C46.5 93.9606 45.38 93.9606 43.73 92.4006C42.54 91.2706 41.4 90.0906 40.1 88.8006C38.16 90.2706 36.49 91.6206 35.65 93.8106C34.34 97.2506 36.79 100.541 40.4 100.831C41.68 100.931 43.3 100.011 44.35 99.0806C49.22 94.8206 54.98 97.0806 57.13 101.331C58.61 104.241 58.26 107.781 55.92 110.311C55.2 111.091 54.28 111.231 53.73 110.661C53.04 109.931 53.17 109.161 53.8 108.441C55.99 105.981 55.21 102.311 53.09 100.751C51.26 99.4006 48.96 99.2406 47.09 100.551C46.42 101.021 45.79 101.571 45.11 102.041C42.08 104.121 38.13 103.991 35.23 101.591C32.55 99.3706 31.76 95.9206 33.03 92.3206C33.7 90.4306 35.35 89.1506 36.75 87.7606C37.09 87.4206 37.57 87.2106 38.31 86.7306H38.35Z" fill="white"/>
<path d="M71.1899 72.8104C70.8099 72.3904 70.5199 72.0604 70.0399 71.5304C74.9199 66.6104 79.7099 61.7904 84.5699 56.9004C81.9699 54.3004 79.4399 51.7804 76.8099 49.1504C74.8399 50.4904 73.4299 52.3204 71.6499 54.0004C72.1999 54.7604 72.7099 55.4704 73.3999 56.4104C71.8899 58.4704 70.0399 60.2204 67.9499 61.9104C67.1499 61.3304 66.4899 60.8604 65.7999 60.3604C64.1999 60.5204 63.8799 62.8304 61.7699 62.7704C62.6399 61.1804 63.9499 60.3404 64.7999 59.3804C66.4499 58.6704 66.9899 60.1404 68.0299 60.6504C69.3399 59.3004 70.6399 57.9504 71.9999 56.5304C71.3499 55.6004 70.8399 54.8604 70.2299 53.9904C72.0499 52.1104 73.8799 50.2204 75.9099 48.1204C74.0299 46.2404 72.2799 44.4704 70.3699 42.5604C68.3699 44.5204 66.5399 46.2904 64.7499 48.0904C62.2999 50.5504 59.8999 53.0604 57.4099 55.4804C56.8099 56.0604 56.2499 56.9804 55.1099 56.7004C54.3599 55.9004 54.6799 55.2104 55.3299 54.5604C59.7499 50.1304 64.1499 45.7004 68.5899 41.2904C69.0399 40.8404 69.6699 40.5704 70.3099 40.1504C70.8299 40.5004 71.3499 40.7504 71.7399 41.1404C76.3699 45.7604 80.9899 50.3804 85.5899 55.0304C87.2299 56.6804 87.2299 57.0304 85.5999 58.6604C81.2799 63.0004 76.9399 67.3304 72.5999 71.6604C72.1999 72.0604 71.7399 72.3904 71.1999 72.8504L71.1899 72.8104Z" fill="white"/>
</svg>
