<svg width="500" height="500" viewBox="0 0 500 500" fill="none" xmlns="http://www.w3.org/2000/svg">
<path d="M343.143 265.67C306.733 302.152 271.38 337.645 235.816 372.927C233.488 375.256 229.677 376.032 225.443 378.078C220.857 374.832 215.706 372.151 211.754 368.199C165.817 322.474 120.022 276.608 74.2963 230.671C71.121 227.496 68.7218 223.473 64.8408 218.393C69.1452 212.536 72.6028 206.538 77.3306 201.81C106.05 172.738 134.981 143.878 163.912 115.017C179.154 99.8461 183.317 99.705 198.135 114.523C238.921 155.238 279.636 196.095 320.351 236.881C326.138 242.667 331.924 248.382 337.287 254.521C339.404 256.991 340.462 260.378 343.143 265.459V265.67ZM315.271 262.918C291.773 239.068 270.745 216.629 248.447 195.53C225.937 174.22 205.897 150.228 179.154 128.918C149.799 158.555 121.503 187.063 91.7961 216.982C115.223 241.044 136.745 263.483 158.69 285.499C180.636 307.444 203.004 328.966 226.431 351.829C256.562 321.698 285.211 292.979 315.271 262.918Z" fill="white"/>
<path d="M100.052 328.687C88.2682 317.679 79.9417 310.34 72.1797 302.437C63.2887 293.193 63.2181 287.971 71.1918 278.163C74.8611 273.647 78.9538 269.413 81.0001 267.085C92.7137 262.992 99.2761 265.814 105.697 272.447C126.796 294.252 148.529 315.562 169.84 337.225C182.4 349.926 181.977 354.301 167.864 368.978C157.562 379.704 149.658 379.704 138.015 368.696C129.618 360.722 121.574 352.396 112.401 343.293C98.7116 353.666 86.9275 363.192 81.0001 378.646C71.7563 402.919 89.0444 426.135 114.518 428.181C123.55 428.887 134.981 422.395 142.39 415.833C176.755 385.773 217.399 401.72 232.571 431.709C243.014 452.243 240.544 477.223 224.032 495.075C218.952 500.579 212.46 501.567 208.579 497.545C203.71 492.394 204.627 486.961 209.073 481.88C224.526 464.521 219.022 438.625 204.063 427.617C191.15 418.091 174.92 416.962 161.725 426.205C156.997 429.522 152.552 433.403 147.753 436.719C126.372 451.397 98.4999 450.479 78.0365 433.544C59.1254 417.879 53.5509 393.534 62.5125 368.132C67.2402 354.795 78.8832 345.763 88.7621 335.955C91.1613 333.555 94.5483 332.074 99.77 328.687H100.052Z" fill="white"/>
<path d="M331.783 230.461C329.101 227.497 327.055 225.168 323.668 221.428C358.103 186.711 391.903 152.7 426.197 118.194C407.85 99.8474 389.998 82.0654 371.44 63.5072C357.539 72.9627 347.589 85.8758 335.029 97.7305C338.91 103.093 342.509 108.103 347.377 114.736C336.722 129.272 323.668 141.621 308.92 153.546C303.275 149.454 298.618 146.137 293.749 142.609C282.459 143.738 280.201 160.038 265.312 159.615C271.451 148.395 280.695 142.468 286.693 135.694C298.336 130.684 302.146 141.057 309.485 144.655C318.729 135.129 327.902 125.603 337.499 115.583C332.912 109.021 329.313 103.799 325.009 97.6599C337.851 84.394 350.764 71.0575 365.089 56.2391C351.823 42.9732 339.474 30.4835 325.997 17.0058C311.884 30.8363 298.971 43.326 286.34 56.0274C269.052 73.3861 252.117 91.0975 234.546 108.174C230.312 112.267 226.361 118.758 218.317 116.783C213.024 111.138 215.282 106.269 219.869 101.682C251.058 70.4224 282.106 39.1628 313.436 8.04424C316.612 4.86888 321.057 2.96367 325.573 0C329.243 2.46972 332.912 4.2338 335.664 6.98578C368.335 39.5861 400.935 72.1865 433.394 104.999C444.967 116.642 444.967 119.111 433.465 130.613C402.981 161.238 372.357 191.792 341.732 222.346C338.91 225.168 335.664 227.497 331.853 230.743L331.783 230.461Z" fill="white"/>
</svg>
