<svg width="500" height="500" viewBox="0 0 500 500" fill="none" xmlns="http://www.w3.org/2000/svg">
<path fill-rule="evenodd" clip-rule="evenodd" d="M192.397 443.726C192.397 415.12 210.26 395.549 234.47 389.282V363.77C220.554 349.203 200.982 340.82 182.794 333.049C143.528 316.203 109.348 301.595 120.457 245.28C102.431 240.438 89.166 223.999 89.166 204.427C89.166 181.071 108.087 162.109 131.443 162.109C154.799 162.109 173.761 181.071 173.761 204.427C173.761 221.273 163.914 235.799 149.632 242.635L150.12 242.757C148.492 248.861 147.678 254.313 147.556 259.196C146.946 286.825 168.919 296.265 193.862 306.925C195.367 307.577 196.873 308.228 198.419 308.879C210.463 314.087 222.833 319.661 234.43 327.271V92.7734H195.53L200.128 85.0423L250.584 0L305.637 92.8141H262.872V271.729C274.469 263.957 286.92 258.26 299.046 253.011C300.877 252.197 302.748 251.424 304.579 250.61C329.807 239.827 352.024 230.265 350.844 201.864C350.681 198.039 350.112 193.888 349.054 189.331H328.953C325.576 189.331 322.849 186.564 322.849 183.228V109.009C322.849 105.632 325.616 102.905 328.953 102.905H404.433C407.81 102.905 410.536 105.632 410.536 109.009V183.228C410.536 186.564 407.77 189.331 404.433 189.331H378.066C388.93 245.28 354.832 259.928 315.647 276.693C296.97 284.709 276.829 293.335 262.831 308.634V389.242C287.042 395.549 304.905 415.08 304.905 443.685C304.905 472.29 279.718 500 248.671 500C217.625 500 192.397 472.371 192.397 443.726Z" fill="white"/>
</svg>
