<svg width="500" height="500" viewBox="0 0 500 500" fill="none" xmlns="http://www.w3.org/2000/svg">
<path d="M349.595 438.358H0C3.71387 379.524 30.4073 335.039 80.2987 304.659C104.22 290.104 130.627 283.018 158.413 281.188C190.363 279.085 221.767 282.103 251.246 295.484C303.663 319.282 336.091 359.384 347.246 416.143C348.625 423.148 348.789 430.398 349.595 438.358ZM30.0113 411.037H319.078C318.45 408.688 318.041 406.859 317.467 405.084C305.029 366.88 280.875 338.753 244.501 321.59C213.165 306.803 179.986 303.881 146.179 309.22C97.844 316.838 61.8249 342.235 39.651 386.228C35.7869 393.887 33.3702 402.271 30.0113 411.037Z" fill="white"/>
<path d="M264.763 153.551C264.258 189.994 254.536 218.203 232.253 240.882C197.231 276.532 144.472 274.525 112.836 235.762C84.5314 201.067 77.1719 161.32 92.0547 118.87C105.504 80.5711 140.308 58.8477 181.119 61.1689C219.705 63.3672 251.314 90.2108 261.104 129.739C263.411 139.037 264.053 148.731 264.763 153.565V153.551ZM236.636 158.549C237.319 146.383 234.984 134.586 229.454 123.513C218.545 101.666 201.19 89.1867 176.436 88.6133C152.35 88.0671 133.617 98.2666 122.366 119.662C106.692 149.455 110.378 178.934 126.34 207.498C134.027 221.234 145.237 231.269 160.365 236.048C181.966 242.875 205.205 233.959 219.364 213.588C230.779 197.162 237.237 179.016 236.636 158.535V158.549Z" fill="white"/>
<path d="M427.122 172.619C426.686 204.088 418.291 228.448 399.049 248.032C368.806 278.817 323.247 277.084 295.928 243.61C271.486 213.65 265.131 179.328 277.983 142.671C289.597 109.598 319.651 90.8395 354.893 92.8439C388.213 94.7421 415.508 117.922 423.962 152.056C425.955 160.086 426.509 168.457 427.122 172.631V172.619ZM402.834 176.934C403.423 166.429 401.407 156.242 396.632 146.68C387.211 127.815 372.225 117.038 350.849 116.543C330.05 116.071 313.873 124.879 304.158 143.355C290.622 169.082 293.806 194.538 307.589 219.204C314.227 231.065 323.907 239.731 336.971 243.858C355.624 249.753 375.692 242.054 387.918 224.462C397.775 210.278 403.352 194.609 402.834 176.923V176.934Z" fill="white"/>
<path d="M306.534 307.487C335.433 299.751 371.332 296.407 403.401 305.747C423.479 311.594 441.953 322.366 456.618 340.144C469.335 355.561 479.642 376.802 485.308 405.858L364.559 405.858C364.266 404.787 363.943 403.643 363.589 402.432C361.199 394.261 357.362 382.978 351.534 370.376C342.41 350.645 328.172 327.181 306.534 307.487Z" stroke="white" stroke-width="25"/>
</svg>
