<svg width="500" height="500" viewBox="0 0 500 500" fill="none" xmlns="http://www.w3.org/2000/svg">
<g clip-path="url(#clip0_2_186)">
<path d="M481.213 500H18C22.9209 422.044 58.2896 363.102 124.396 322.848C156.092 303.563 191.081 294.173 227.897 291.749C270.231 288.963 311.841 292.961 350.901 310.691C420.354 342.224 463.321 395.359 478.102 470.565C479.929 479.846 480.146 489.452 481.213 500ZM57.765 463.799H440.779C439.947 460.687 439.404 458.263 438.644 455.911C422.163 405.291 390.159 368.023 341.964 345.282C300.444 325.689 256.481 321.817 211.687 328.891C147.643 338.986 99.918 372.636 70.5376 430.927C65.4177 441.076 62.2155 452.184 57.765 463.799Z" fill="white"/>
<path d="M368.811 122.631C368.142 170.917 355.261 208.294 325.735 238.343C279.331 285.58 209.426 282.921 167.508 231.559C130.004 185.589 120.253 132.925 139.972 76.6783C157.793 25.9318 203.908 -2.85174 257.983 0.2238C309.109 3.13652 350.991 38.7043 363.963 91.0791C367.02 103.399 367.87 116.244 368.811 122.649V122.631ZM331.543 129.252C332.447 113.133 329.354 97.5015 322.027 82.8293C307.572 53.883 284.577 37.3474 251.778 36.5876C219.864 35.8639 195.043 49.3783 180.135 77.7276C159.366 117.203 164.251 156.263 185.4 194.11C195.586 212.31 210.439 225.607 230.484 231.939C259.105 240.985 289.896 229.171 308.657 202.179C323.782 180.415 332.339 156.371 331.543 129.234V129.252Z" fill="white"/>
</g>
<defs>
<clipPath id="clip0_2_186">
<rect width="500" height="500" fill="white"/>
</clipPath>
</defs>
</svg>
