<svg width="500" height="500" viewBox="0 0 500 500" fill="none" xmlns="http://www.w3.org/2000/svg">
<g clip-path="url(#clip0_2_166)">
<path d="M0 458.67C2.2829 378.602 58.7808 309.314 137.79 290.809C190.221 278.533 241.881 281.148 290.185 306.744C341.134 333.73 372.687 376.153 383.754 433.104C385.341 441.284 385.689 449.705 386.687 458.67H0ZM32.7316 428.796H352.625C352.277 426.981 352.141 425.53 351.717 424.169C340.122 386.207 317.504 356.605 283.336 336.467C245.57 314.197 204.327 309.314 161.708 315.875C107.901 324.145 67.8671 352.432 43.2995 401.431C39.0511 409.897 36.3903 419.15 32.7014 428.811L32.7316 428.796Z" fill="white"/>
<path d="M292.71 143.978C291.969 184.375 281.084 215.534 256.335 240.585C218.115 279.259 160.105 277.354 125.348 235.581C92.9638 196.636 84.573 151.855 101.884 104.065C117.184 61.8239 155.842 38.2995 200.577 41.2476C243.257 44.0596 277.788 73.4803 288.598 117.037C291.198 127.529 291.909 138.49 292.71 143.978ZM261.535 148.725C262.306 135.255 259.63 122.192 253.462 109.976C241.292 85.8473 221.985 72.1196 194.575 71.6207C168.163 71.1369 147.375 82.2188 135.205 105.758C116.14 142.632 122.112 178.055 144.866 211.346C152.758 222.897 163.915 230.894 177.386 234.976C201.439 242.264 226.99 232.376 242.592 209.759C255.186 191.526 262.261 171.418 261.535 148.725Z" fill="white"/>
<path d="M404.904 262.748H339.623V237.893H404.708V167.41H429.789V237.469H500V262.551H430.213V327.893H404.919V262.763L404.904 262.748Z" fill="white"/>
</g>
<defs>
<clipPath id="clip0_2_166">
<rect width="500" height="500" fill="white"/>
</clipPath>
</defs>
</svg>
