<svg width="500" height="500" viewBox="0 0 500 500" fill="none" xmlns="http://www.w3.org/2000/svg">
<path d="M0 460.035C1.73643 377.539 62.9532 303.939 150.765 288.22C199.826 279.431 247.928 282.995 292.573 306.924C343.782 334.372 375.617 376.96 386.721 434.354C388.32 442.594 388.64 451.063 389.63 460.035H0ZM33.0226 429.861H355.313C354.962 428.033 354.825 426.57 354.399 425.2C342.716 386.952 319.929 357.129 285.505 336.84C247.456 314.403 205.904 309.483 162.965 316.094C108.755 324.426 68.4214 352.925 43.6696 402.291C39.3895 410.821 36.7087 420.143 32.9921 429.876L33.0226 429.861Z" fill="white"/>
<path d="M94.4528 146.975C94.9402 114.333 104.81 85.4993 129.669 63.1695C174.039 23.323 256.306 30.7713 285.871 100.305C305.337 146.092 292.086 209.395 255.545 243.164C213.215 282.279 150.521 273.932 117.91 224.642C102.389 201.185 93.8283 175.443 94.468 146.975H94.4528ZM263.557 148.026C264.318 134.454 261.713 121.294 255.545 108.941C243.374 84.5702 224.015 70.6483 196.399 70.0085C169.53 69.3993 148.632 80.7774 136.081 104.646C118.595 137.882 122.708 170.767 140.514 202.632C149.089 217.955 161.595 229.151 178.472 234.482C202.568 242.098 228.493 232.151 244.288 209.425C257.022 191.102 264.227 170.858 263.557 148.011V148.026Z" fill="white"/>
<path d="M394.87 287.961C379.592 272.759 363.188 256.431 346.737 240.041C353.515 233.4 361.116 225.967 369.296 217.955C378.1 227.536 387.208 237.437 396.972 248.053C425.928 218.824 453.33 191.147 480.747 163.471C487.952 170.798 494.242 177.21 500 183.074C465.073 217.91 429.72 253.187 394.87 287.946V287.961Z" fill="white"/>
</svg>
