<svg width="112" height="90" viewBox="0 0 112 90" fill="none" xmlns="http://www.w3.org/2000/svg">
<g clip-path="url(#clip0_35_351)">
<path d="M105 2.5H7C4.51472 2.5 2.5 4.51472 2.5 7V73C2.5 75.4853 4.51472 77.5 7 77.5H105C107.485 77.5 109.5 75.4853 109.5 73V7C109.5 4.51472 107.485 2.5 105 2.5Z" stroke="white" stroke-width="5"/>
<path d="M68.3297 37.8829C70.3743 39.0286 70.3743 41.9714 68.3297 43.1171L51.9665 52.2865C49.9668 53.4071 47.5 51.9617 47.5 49.6694V31.3306C47.5 29.0383 49.9668 27.5929 51.9665 28.7135L68.3297 37.8829Z" fill="white"/>
<path d="M58 80H53V90H58V80Z" fill="white"/>
<path d="M88 85H24V90H88V85Z" fill="white"/>
</g>
<defs>
<clipPath id="clip0_35_351">
<rect width="112" height="90" fill="white"/>
</clipPath>
</defs>
</svg>
