<svg width="500" height="500" viewBox="0 0 500 500" fill="none" xmlns="http://www.w3.org/2000/svg">
<path d="M248.946 440.509C180.089 440.509 111.177 440.509 42.3198 440.509C14.7012 440.509 2.70249 428.294 2.64844 400.351C2.64844 309.874 2.64844 219.344 2.64844 128.867C2.64844 101.465 14.485 89.52 41.7253 89.52C180.413 89.52 319.047 90.0064 457.734 89.0876C482.867 88.9254 497.027 105.897 496.757 128.921C495.568 219.83 495.568 310.793 496.757 401.756C497.027 424.457 481.624 441.428 456.978 440.995C387.688 439.752 318.344 440.563 249 440.563L248.946 440.509ZM249.054 419.43C316.56 419.43 384.121 419.484 451.627 419.43C469.949 419.43 474.597 414.566 474.597 396.406C474.597 309.983 474.597 223.505 474.597 137.082C474.597 113.625 471.841 110.653 448.492 110.653C316.128 110.599 183.764 110.599 51.3999 110.653C27.3485 110.653 24.8082 113.409 24.8082 138.163C24.8082 222.803 24.8082 307.442 24.8082 392.082C24.8082 416.079 28.0511 419.43 51.8323 419.484C117.555 419.484 183.278 419.484 249 419.484L249.054 419.43Z" fill="white"/>
<path d="M0 58.3335H500V77.2504H0V58.3335Z" fill="white"/>
<path d="M168.198 267.501C168.198 249.99 168.468 232.424 168.09 214.912C167.82 201.617 169.711 189.294 182.737 182.7C195.763 176.106 208.842 178.214 221.165 185.672C245.109 200.157 269.052 214.642 293.049 229.127C299.913 233.289 307.048 236.964 313.696 241.45C335.91 256.422 336.234 278.797 313.75 292.958C286.726 309.983 259.323 326.468 231.542 342.25C221.381 348.033 210.031 353.546 198.681 354.897C181.17 357.005 168.847 344.574 168.36 326.9C167.82 307.119 168.252 287.337 168.252 267.555L168.198 267.501ZM309.048 269.123C306.021 265.448 305.21 263.718 303.859 262.907C271.106 243.072 238.407 223.074 205.329 203.779C196.465 198.59 191.439 202.373 191.331 213.777C191.06 249.341 191.06 284.905 191.331 320.469C191.385 332.251 196.087 335.548 206.464 329.603C240.352 310.254 273.754 290.04 309.048 269.177V269.123Z" fill="white"/>
</svg>
