<svg width="90" height="82" viewBox="0 0 90 82" fill="none" xmlns="http://www.w3.org/2000/svg">
<path d="M74.6659 60.7312H78.9432C75.9428 69.8672 60.4218 81.4301 44.444 81.9716C20.2229 82.794 4.20358 65.585 0.954027 49.8703C-4.40306 23.9967 13.7238 5.37376 32.2556 1.15175C52.7807 -3.52154 71.6759 6.59724 79.2235 21.1988H74.5309C66.2253 9.70608 54.6287 3.56862 39.6475 4.42105C29.7328 4.98265 21.2404 9.0442 14.5336 16.1243C-0.291807 31.7688 1.48351 55.0651 17.4406 68.6939C32.7539 81.7811 59.5497 81.9516 74.6762 60.7212L74.6659 60.7312Z" fill="white"/>
<path d="M27.428 33.0124H40.6546C44.444 29.4121 48.2438 25.8119 52.3862 21.8807V60.2398C48.2853 56.3287 44.5686 52.7686 40.7376 49.1182H27.428V33.0124ZM43.3539 37.1441H31.6431V45.1168H43.7173C44.9112 46.4606 46.3958 48.1354 48.1192 50.0809V32.3806C47.9531 32.2803 47.7974 32.17 47.6313 32.0697C46.1363 33.8548 44.6309 35.6298 43.3643 37.1441H43.3539Z" fill="white"/>
<path d="M67.8761 48.5967C70.347 46.1497 72.8283 43.7028 75.5068 41.0452C72.8075 38.3676 70.3158 35.9006 67.5542 33.1528C68.6132 32.1499 69.5579 31.2473 70.6896 30.1743C73.4408 32.7817 75.9844 35.1785 78.7875 37.8361C81.5076 35.2989 84.1134 32.8619 87.1138 30.064C88.1001 31.1471 88.9722 32.1198 90 33.2531C87.363 35.8605 84.8817 38.3275 82.1409 41.0352C84.7571 43.6326 87.2384 46.0795 89.9273 48.7471C88.9307 49.7901 87.9859 50.7729 86.9269 51.876C84.1861 49.2887 81.6321 46.8718 78.8394 44.2343C76.0882 46.8317 73.5342 49.2285 70.6584 51.9362C69.7552 50.8531 68.9143 49.8402 67.8657 48.5867L67.8761 48.5967Z" fill="white"/>
</svg>
