<svg width="500" height="500" viewBox="0 0 500 500" fill="none" xmlns="http://www.w3.org/2000/svg">
<path d="M0 334.236V164.558C2.10145 164.442 4.04237 164.237 5.96871 164.237C48.1291 164.237 90.2749 164.325 132.421 164.062C135.777 164.048 139.966 162.311 142.359 159.947C178.186 124.704 213.779 89.2125 249.431 53.8089C250.555 52.6998 251.853 51.7804 254.028 50V447.758C253.502 448.211 252.977 448.649 252.452 449.101C250.671 446.795 249.124 444.271 247.081 442.228C211.911 407.189 176.741 372.15 141.308 337.374C139.09 335.199 134.814 334.251 131.487 334.236C90.7565 334.076 50.0117 334.192 9.28142 334.236C6.46489 334.236 3.64836 334.236 0 334.236ZM224.111 121.756C222.054 123.711 220.74 124.923 219.456 126.178C197.741 147.426 176.143 168.776 154.209 189.776C151.64 192.228 147.233 193.964 143.658 193.993C107.203 194.3 70.7343 194.168 34.28 194.183C32.952 194.183 31.6094 194.417 30.2084 194.562V303.721C31.6823 303.911 32.8498 304.174 34.0173 304.174C70.676 304.13 107.335 304.174 144.008 303.882C148.751 303.838 151.903 305.37 155.128 308.596C176.931 330.311 198.908 351.865 220.857 373.449C221.645 374.237 222.594 374.85 224.126 376.076V121.756H224.111Z" fill="white"/>
<path d="M350 262V237H413V175H438V237H500V262H438V325H413V262H350Z" fill="white"/>
</svg>
