<svg width="129" height="130" viewBox="0 0 129 130" fill="none" xmlns="http://www.w3.org/2000/svg">
<path d="M70.0301 99.9899C63.1501 99.9899 56.2701 99.9899 49.3801 99.9899C41.0501 99.9899 34.1501 92.8399 34.4301 84.5099C34.6301 78.3599 38.7701 72.8699 44.6201 70.5999C45.4901 70.2699 46.5401 68.8599 46.5101 67.9899C46.0701 55.1099 58.5101 44.5799 70.9301 45.9199C78.6701 46.7499 84.7201 50.4999 88.6601 57.2999C89.4401 58.6499 90.2401 59.2399 91.8801 59.3899C105.31 60.6399 113.63 74.6399 108.86 87.1699C106.22 94.0999 98.5701 100.19 89.9301 100.01C83.3001 99.8699 76.6601 99.9799 70.0301 99.9799V99.9899ZM50.7901 73.9499C49.2901 74.1699 48.0301 74.1899 46.8701 74.5499C41.6601 76.1599 38.3201 81.1099 38.9201 85.9499C39.5901 91.3799 43.9701 95.6299 50.0901 95.5299C63.3501 95.3299 76.6301 95.1799 89.8901 95.5599C100.84 95.8699 108.62 84.1199 105.2 75.0799C102.93 69.0599 96.8401 62.6299 88.9201 64.0499C87.3901 64.3199 86.7301 63.4499 86.1701 62.1699C82.3601 53.3599 75.1601 49.4099 65.6901 50.6899C57.8101 51.7499 50.7901 59.5499 50.7901 67.5699C50.7901 69.6299 50.7901 71.6899 50.7901 73.9699V73.9499Z" fill="white"/>
<path d="M37.6501 71.8303C34.8101 76.0803 34.5701 76.1203 30.9701 72.9803C23.8201 66.7403 21.3501 58.7603 23.6301 49.7903C25.7701 41.3603 31.5101 35.5003 40.0901 33.7103C49.1901 31.8103 57.2101 33.6603 63.7701 42.2903C64.1801 42.8303 64.3501 43.5503 64.7001 44.3303C62.2001 45.0803 60.4201 45.3803 58.5301 43.1903C53.0701 36.8703 44.0301 35.5803 36.7201 39.7203C29.1501 44.0003 25.8201 52.1403 28.1601 60.3303C29.4701 64.9203 32.1201 68.3603 36.2101 70.7503C36.6901 71.0303 37.1001 71.4103 37.6401 71.8203L37.6501 71.8303Z" fill="white"/>
<path d="M23.9301 80.9103C21.5634 79.1036 21.1068 77.4736 22.5601 76.0203C23.4901 75.0903 24.4701 74.2203 25.3501 73.2503C26.2201 72.3003 27.1601 72.2703 27.7601 73.2803C28.1401 73.9203 28.3201 75.1403 27.9601 75.6903C26.7601 77.5403 25.2801 79.2003 23.9201 80.9103H23.9301Z" fill="white"/>
<path d="M23.4199 30.7002C24.8999 32.3302 26.5399 33.9302 27.8999 35.7402C28.2799 36.2502 28.1199 37.5302 27.7199 38.1302C27.4899 38.4802 26.0699 38.4802 25.5599 38.1202C24.4399 37.3302 23.6599 36.0902 22.5699 35.2502C20.5199 33.6702 20.6499 32.3502 23.4199 30.7202V30.7002Z" fill="white"/>
<path d="M67.27 30.3604C69.47 32.2204 69.8133 33.9137 68.3 35.4403C67.49 36.2503 66.61 37.0004 65.88 37.8804C65.02 38.9104 64.21 39.0804 63.21 38.1304C62.25 37.2304 62.25 36.4204 63.14 35.4104C64.6 33.7604 65.93 32.0004 67.26 30.3604H67.27Z" fill="white"/>
<path d="M46.6699 29.7999H43.6299V21.6699H46.6699V29.7999Z" fill="white"/>
<path d="M12 53.4297H19.87V56.5297H12V53.4297Z" fill="white"/>
</svg>
