<svg width="500" height="500" viewBox="0 0 500 500" fill="none" xmlns="http://www.w3.org/2000/svg">
<g clip-path="url(#clip0_17_213)">
<path d="M374.58 0.118959C376.034 0.118959 377.403 0.118959 378.857 0.118959C388.696 0.118959 399.476 -1.84696 404.523 10.205C409.4 21.7441 402.213 28.8381 394.856 36.018C383.135 47.4717 371.585 59.0963 360.121 70.8063C343.866 87.303 342.155 94.0555 354.133 113.886C360.549 124.485 369.275 134.742 379.285 142.092C403.069 159.7 411.538 158.247 432.413 137.733C444.049 126.194 454.914 113.715 467.576 103.458C473.308 98.7566 484.002 94.7393 489.819 97.0471C495.209 99.184 500 110.125 500 117.219C499.914 154.144 492.728 189.275 468.773 219.105C450.208 242.184 426.425 255.432 396.652 254.065C352.336 252.013 317.345 267.826 286.546 300.05C232.476 356.72 176.268 411.339 120.659 466.384C104.062 482.796 88.2345 500.745 61.2854 499.976C34.7641 499.292 16.3702 486.557 5.84722 463.393C-4.41911 440.571 -1.33921 418.262 16.4558 400.141C58.8044 356.891 101.752 314.324 144.528 271.416C167.628 248.167 191.24 225.431 213.655 201.583C232.733 181.24 242.144 155.939 245.309 128.416C245.566 126.28 245.481 124.143 245.481 122.006C243.598 34.1376 313.752 0.118961 374.836 0.375386L374.58 0.118959ZM260.281 176.966C254.977 184.744 246.935 199.788 235.899 212.182C217.505 232.867 197.314 251.928 177.723 271.502C130.498 318.684 82.9303 365.609 35.9618 413.048C20.7334 428.434 21.0756 450.572 35.1063 464.675C49.6502 479.206 73.0061 479.035 88.5767 463.478C136.315 415.783 183.198 367.148 231.707 320.222C262.933 290.05 288.856 253.124 321.28 241.5C301.945 221.071 280.215 198.079 260.452 177.052L260.281 176.966ZM476.302 134.913C475.019 133.972 473.735 133.032 472.366 132.006C462.442 141.751 452.005 150.982 442.851 161.324C427.537 178.59 408.63 180.984 388.439 174.231C360.72 164.914 341.129 145.682 329.066 119.442C317.687 94.5684 322.136 75.3365 341.385 55.9337C350.368 46.8733 359.18 37.642 368.078 28.4962C366.709 26.4448 365.34 24.3084 364.057 22.257C346.861 28.0688 328.723 31.9152 312.725 40.0353C271.489 60.8912 259.169 101.406 279.873 142.862C296.213 175.599 320.853 200.557 352.764 218.422C378.601 232.867 404.951 237.91 431.216 220.302C461.843 199.788 473.136 169.188 476.387 134.827L476.302 134.913Z" fill="white"/>
<circle cx="67.5" cy="431.5" r="17.5" fill="white"/>
</g>
<defs>
<clipPath id="clip0_17_213">
<rect width="500" height="500" fill="white"/>
</clipPath>
</defs>
</svg>
