<svg width="500" height="500" viewBox="0 0 500 500" fill="none" xmlns="http://www.w3.org/2000/svg">
<path d="M499.719 253.509C499.719 391.953 388.612 500.087 246.458 500C108.752 500 0.0872598 388.896 4.87807e-05 248.531C-0.0871622 110.611 116.776 -2.15246 254.743 0.0311894C389.659 2.12749 505.388 119.87 499.806 253.509H499.719ZM250.819 26.4097C125.846 26.3223 25.2912 126.858 25.204 251.85C25.204 372.911 127.59 475.106 249.075 475.281C372.129 475.456 473.556 375.357 473.73 253.509C473.904 126.508 375.705 26.4097 250.819 26.3224V26.4097Z" fill="white"/>
<path d="M210.003 264.864C222.213 237 232.416 211.582 244.626 187.126C249.074 178.216 259.19 164.94 265.12 165.726C274.103 166.949 284.132 177.255 289.365 186.252C302.011 208.001 312.127 231.235 325.645 258.662C339.424 231.323 350.151 208.089 362.884 185.99C367.855 177.43 377.012 166.162 384.774 165.813C391.751 165.464 402.129 176.906 406.315 185.466C420.618 214.814 432.827 245.123 445.822 275.083C451.142 287.399 453.583 300.239 439.106 307.052C423.147 314.563 417.216 301.287 411.984 289.932C403.263 270.978 395.239 251.849 384.338 226.955C372.652 250.277 364.977 269.668 353.64 286.7C347.186 296.395 335.151 307.401 325.122 307.925C316.575 308.362 304.976 296.046 298.958 286.613C287.795 269.143 279.685 249.665 268.347 227.13C257.969 249.927 249.859 268.794 240.789 287.224C229.451 310.109 214.538 313.865 193.346 299.889C175.293 287.923 157.328 275.782 138.403 263.029C120.612 275.782 103.606 287.923 86.5996 300.151C76.1343 307.663 64.6224 315.175 54.506 301.461C45.1744 288.884 51.8896 278.315 62.9654 270.017C75.611 260.584 88.3438 251.15 103.606 239.795C90.7857 230.624 80.3204 221.977 68.8086 215.164C54.8548 206.778 43.4302 195.773 54.4188 180.575C64.8841 165.988 78.925 175.246 90.6113 183.37C105.96 194.026 121.484 204.595 137.792 215.775C153.403 204.507 168.055 193.938 182.706 183.37C194.392 174.984 208.259 166.25 218.811 181.186C229.19 195.773 217.765 206.254 205.119 214.552C194.392 221.627 184.45 229.838 172.154 239.096C185.148 247.918 195.788 255.081 210.178 264.864H210.003Z" fill="white"/>
</svg>
