<svg width="96" height="89" viewBox="0 0 96 89" fill="none" xmlns="http://www.w3.org/2000/svg">
<path d="M79.4802 46.88C79.4802 62.73 66.7402 75.11 50.4402 75.1C34.6502 75.1 22.1902 62.38 22.1802 46.31C22.1702 30.52 35.5702 17.61 51.3902 17.86C66.8602 18.1 80.1302 31.58 79.4902 46.88H79.4802ZM50.9402 20.88C36.6102 20.87 25.0802 32.38 25.0702 46.69C25.0702 60.55 36.8102 72.25 50.7402 72.27C64.8502 72.29 76.4802 60.83 76.5002 46.88C76.5202 32.34 65.2602 20.88 50.9402 20.87V20.88Z" fill="white"/>
<path d="M46.26 48.18C47.66 44.99 48.83 42.08 50.23 39.28C50.74 38.26 51.9 36.74 52.58 36.83C53.61 36.97 54.76 38.15 55.36 39.18C56.81 41.67 57.97 44.33 59.52 47.47C61.1 44.34 62.33 41.68 63.79 39.15C64.36 38.17 65.41 36.88 66.3 36.84C67.1 36.8 68.29 38.11 68.77 39.09C70.41 42.45 71.81 45.92 73.3 49.35C73.91 50.76 74.19 52.23 72.53 53.01C70.7 53.87 70.02 52.35 69.42 51.05C68.42 48.88 67.5 46.69 66.25 43.84C64.91 46.51 64.03 48.73 62.73 50.68C61.99 51.79 60.61 53.05 59.46 53.11C58.48 53.16 57.15 51.75 56.46 50.67C55.18 48.67 54.25 46.44 52.95 43.86C51.76 46.47 50.83 48.63 49.79 50.74C48.49 53.36 46.78 53.79 44.35 52.19C42.28 50.82 40.22 49.43 38.05 47.97C36.01 49.43 34.06 50.82 32.11 52.22C30.91 53.08 29.59 53.94 28.43 52.37C27.36 50.93 28.13 49.72 29.4 48.77C30.85 47.69 32.31 46.61 34.06 45.31C32.59 44.26 31.39 43.27 30.07 42.49C28.47 41.53 27.16 40.27 28.42 38.53C29.62 36.86 31.23 37.92 32.57 38.85C34.33 40.07 36.11 41.28 37.98 42.56C39.77 41.27 41.45 40.06 43.13 38.85C44.47 37.89 46.06 36.89 47.27 38.6C48.46 40.27 47.15 41.47 45.7 42.42C44.47 43.23 43.33 44.17 41.92 45.23C43.41 46.24 44.63 47.06 46.28 48.18H46.26Z" fill="white"/>
</svg>
