<svg width="20" height="32" viewBox="0 0 20 32" fill="none" xmlns="http://www.w3.org/2000/svg">
<path d="M12.28 13.0601C11.5087 13.0601 11.0222 13.6046 10.7546 14.016V13.2138H8.78967V18.6037H10.9292V15.9391C10.9292 15.2916 10.9441 14.732 11.5319 14.7469C12.102 14.7618 12.1487 15.0652 12.1487 15.8573V18.6037H14.2877V15.9396C14.2877 15.2917 14.2827 14.7499 14.8846 14.7479C15.4504 14.7462 15.5023 15.0649 15.5023 15.8572V18.6035H17.6413V15.4149C17.6413 13.9442 16.9739 13.0604 15.6175 13.0604C14.8374 13.0604 14.432 13.3986 13.9688 14.0465C13.7115 13.4704 13.1721 13.0601 12.28 13.0601Z" fill="#005480"/>
<path d="M4.88936 13.2158L5.56853 14.5635L6.28866 13.2158H8.63375L6.7924 15.7771L8.65448 18.6059H6.26793L5.50651 17.0627L4.72504 18.6059H2.35889L4.29293 15.7871L2.51326 13.2158H4.88936Z" fill="#005480"/>
<path d="M5.66031 9.38637C5.47623 9.53452 5.35841 9.74969 5.33271 9.98466C5.307 10.2196 5.37551 10.4552 5.5232 10.6397C5.59669 10.7309 5.68743 10.8068 5.79022 10.8629C5.89302 10.919 6.00586 10.9544 6.1223 10.9669C6.23874 10.9794 6.3565 10.9688 6.46886 10.9358C6.58122 10.9027 6.68597 10.8479 6.77714 10.7743C7.69743 10.0298 8.84631 9.62586 10.0298 9.63063C11.2024 9.63063 12.3087 10.0108 13.2296 10.7331C13.4159 10.8781 13.652 10.9433 13.8863 10.9146C14.1205 10.8858 14.3339 10.7655 14.4797 10.5798C14.5521 10.4877 14.6055 10.3822 14.637 10.2694C14.6685 10.1565 14.6774 10.0386 14.6632 9.9223C14.649 9.80601 14.6119 9.69368 14.5542 9.59176C14.4965 9.48984 14.4192 9.40034 14.3268 9.32839C13.0906 8.35894 11.6045 7.84823 10.0298 7.84823C8.44432 7.84823 6.8924 8.39474 5.65999 9.38669L5.66031 9.38637ZM16.6504 7.50322C16.7926 7.31469 16.8544 7.0774 16.822 6.8434C16.7896 6.6094 16.6659 6.39778 16.4778 6.25497C14.5962 4.82424 12.3486 4.06705 9.97754 4.06705C7.62735 4.06705 5.39496 4.81156 3.52164 6.22012C3.3331 6.36221 3.20856 6.57329 3.17532 6.8071C3.14208 7.04091 3.20285 7.27837 3.34432 7.46742C3.48632 7.65613 3.69739 7.78071 3.93115 7.8138C4.1649 7.84689 4.40223 7.78577 4.59098 7.64389C6.15334 6.47041 8.01589 5.84913 9.97723 5.84913C11.9557 5.84913 13.8309 6.47959 15.4015 7.6724C15.5897 7.81529 15.8269 7.87765 16.061 7.84582C16.2951 7.81399 16.5071 7.69055 16.6504 7.50259L16.6504 7.50322ZM10.0079 2.22065C12.8268 2.22065 15.5411 3.05831 17.8571 4.64555C18.0521 4.77915 18.2921 4.82979 18.5244 4.78633C18.7567 4.74287 18.9622 4.60887 19.0957 4.4138C19.2292 4.21874 19.2798 3.97859 19.2364 3.7462C19.193 3.5138 19.059 3.30818 18.8641 3.17458C16.2498 1.38331 13.1881 0.436035 10.0073 0.436035C6.81926 0.436035 3.7509 1.38743 1.13282 3.18852C1.0364 3.25474 0.953977 3.33934 0.890283 3.43748C0.826589 3.53562 0.782871 3.64537 0.761635 3.76044C0.740396 3.8755 0.742058 3.99364 0.766521 4.10806C0.790985 4.22249 0.837772 4.33096 0.904199 4.42727C0.97032 4.5238 1.05481 4.60634 1.15285 4.67017C1.25088 4.734 1.36053 4.77787 1.47552 4.79926C1.59052 4.82065 1.7086 4.81915 1.82302 4.79484C1.93743 4.77053 2.04593 4.72389 2.14231 4.65759C4.46115 3.0618 7.18151 2.22129 10.0079 2.22129L10.0079 2.22065Z" fill="#00ADEE"/>
<path d="M14.339 22.6136C14.523 22.4655 14.6409 22.2503 14.6666 22.0153C14.6923 21.7804 14.6238 21.5448 14.4761 21.3603C14.4026 21.2691 14.3118 21.1932 14.209 21.1371C14.1063 21.081 13.9934 21.0456 13.877 21.0331C13.7605 21.0206 13.6428 21.0312 13.5304 21.0642C13.418 21.0973 13.3133 21.1521 13.2221 21.2257C12.3018 21.9702 11.153 22.3741 9.96947 22.3694C8.79691 22.3694 7.69053 21.9892 6.76971 21.2669C6.58337 21.1219 6.34727 21.0567 6.11301 21.0854C5.87876 21.1142 5.66539 21.2345 5.51957 21.4202C5.4472 21.5123 5.39375 21.6178 5.36226 21.7306C5.33077 21.8435 5.32188 21.9614 5.33609 22.0777C5.35031 22.194 5.38734 22.3063 5.44507 22.4082C5.50281 22.5102 5.5801 22.5997 5.67251 22.6716C6.90872 23.6411 8.39476 24.1518 9.96947 24.1518C11.555 24.1518 13.1069 23.6053 14.3393 22.6133L14.339 22.6136ZM3.34892 24.4968C3.20664 24.6853 3.14491 24.9226 3.17727 25.1566C3.20962 25.3906 3.33341 25.6022 3.52149 25.745C5.40304 27.1758 7.65063 27.933 10.0217 27.933C12.3719 27.933 14.6043 27.1884 16.4776 25.7799C16.6662 25.6378 16.7907 25.4267 16.8239 25.1929C16.8572 24.9591 16.7964 24.7216 16.6549 24.5326C16.5129 24.3439 16.3019 24.2193 16.0681 24.1862C15.8344 24.1531 15.597 24.2142 15.4083 24.3561C13.8459 25.5296 11.9834 26.1509 10.022 26.1509C8.0436 26.1509 6.16839 25.5204 4.59779 24.3276C4.40957 24.1847 4.17238 24.1223 3.93826 24.1542C3.70415 24.186 3.4922 24.3094 3.34892 24.4974L3.34892 24.4968ZM9.99132 29.7793C7.17249 29.7793 4.45815 28.9417 2.14216 27.3544C1.94719 27.2208 1.70717 27.1702 1.47489 27.2137C1.24261 27.2571 1.0371 27.3911 0.903572 27.5862C0.770041 27.7813 0.719429 28.0214 0.762868 28.2538C0.806307 28.4862 0.94024 28.6918 1.1352 28.8254C3.74948 30.6167 6.81119 31.564 9.99196 31.564C13.18 31.564 16.2484 30.6126 18.8664 28.8115C18.9629 28.7453 19.0453 28.6607 19.109 28.5625C19.1727 28.4644 19.2164 28.3546 19.2376 28.2396C19.2589 28.1245 19.2572 28.0064 19.2327 27.8919C19.2083 27.7775 19.1615 27.669 19.0951 27.5727C19.0289 27.4762 18.9445 27.3937 18.8464 27.3298C18.7484 27.266 18.6387 27.2221 18.5237 27.2007C18.4087 27.1793 18.2907 27.1808 18.1763 27.2052C18.0618 27.2295 17.9533 27.2761 17.857 27.3424C15.5381 28.9382 12.8178 29.7787 9.99132 29.7787L9.99132 29.7793Z" fill="#00ADEE"/>
</svg>
