<svg width="40" height="40" viewBox="0 0 40 40" fill="none" xmlns="http://www.w3.org/2000/svg">
<path d="M10.1234 4.58022C5.30726 10.7654 5.66546 19.6737 11.198 25.4539L7.7428 35.0791C7.60325 35.4688 7.80636 35.8981 8.19592 36.0381C8.58563 36.1777 9.01499 35.9746 9.15491 35.585L11.9489 27.8018L14.7428 35.585C14.8827 35.9746 15.3121 36.1776 15.7018 36.0381C16.0915 35.8982 16.2945 35.4688 16.1549 35.0791L13.385 27.363C19.11 31.5132 26.9642 31.4033 32.5765 27.0333C33.448 26.3547 33.4419 25.0759 32.6608 24.2948L23.7287 15.3627L27.7924 11.299C28.1382 11.4798 28.5316 11.582 28.9489 11.582C30.3296 11.582 31.4489 10.4627 31.4489 9.08203C31.4489 7.70132 30.3296 6.58203 28.9489 6.58203C27.5681 6.58203 26.4489 7.70132 26.4489 9.08203C26.4489 9.49929 26.5511 9.89267 26.7318 10.2385L22.6682 14.3022L12.8619 4.49584C12.0808 3.7148 10.802 3.70869 10.1234 4.58022ZM28.9489 10.082C28.3966 10.082 27.9489 9.63432 27.9489 9.08203C27.9489 8.52975 28.3966 8.08203 28.9489 8.08203C29.5011 8.08203 29.9489 8.52975 29.9489 9.08203C29.9489 9.63432 29.5011 10.082 28.9489 10.082Z" fill="#0093E0"/>
</svg>
