<svg width="40" height="26" viewBox="0 0 40 26" fill="none" xmlns="http://www.w3.org/2000/svg">
<path fill-rule="evenodd" clip-rule="evenodd" d="M13.0958 6.2661C13.5635 6.62768 13.6495 7.29992 13.2879 7.76761C12.1691 9.21475 11.5039 11.0282 11.5039 13C11.5039 14.9719 12.1691 16.7853 13.2879 18.2324C13.6495 18.7001 13.5635 19.3724 13.0958 19.7339C12.6281 20.0955 11.9559 20.0095 11.5943 19.5418C10.1958 17.733 9.36316 15.4622 9.36316 13C9.36316 10.5378 10.1958 8.26707 11.5943 6.45822C11.9559 5.99054 12.6281 5.90452 13.0958 6.2661Z" fill="#AE4EDE"/>
<path fill-rule="evenodd" clip-rule="evenodd" d="M9.70642 3.64842C10.1741 4.01 10.2601 4.68225 9.89854 5.14993C8.22033 7.32063 7.22231 10.0417 7.22231 12.9988C7.22231 15.956 8.22033 18.6771 9.89854 20.8477C10.2601 21.3154 10.1741 21.9877 9.70642 22.3493C9.23874 22.7108 8.56649 22.6248 8.20491 22.1571C6.24705 19.6247 5.08154 16.4464 5.08154 12.9988C5.08154 9.5513 6.24705 6.37295 8.20491 3.84055C8.56649 3.37286 9.23874 3.28685 9.70642 3.64842Z" fill="#AE4EDE"/>
<path fill-rule="evenodd" clip-rule="evenodd" d="M6.31717 1.03319C6.78486 1.39477 6.87087 2.06701 6.5093 2.5347C4.27168 5.42894 2.94082 9.05759 2.94082 13.0001C2.94082 16.9426 4.27168 20.5712 6.5093 23.4655C6.87087 23.9332 6.78486 24.6054 6.31717 24.967C5.84949 25.3286 5.17724 25.2426 4.81566 24.7749C2.29841 21.5189 0.800049 17.433 0.800049 13.0001C0.800049 8.56722 2.29841 4.48127 4.81566 1.22531C5.17724 0.757628 5.84949 0.671612 6.31717 1.03319Z" fill="#AE4EDE"/>
<path fill-rule="evenodd" clip-rule="evenodd" d="M26.9042 19.7339C26.4365 19.3723 26.3505 18.7001 26.7121 18.2324C27.8309 16.7853 28.4961 14.9718 28.4961 13C28.4961 11.0281 27.8309 9.2147 26.7121 7.76756C26.3505 7.29988 26.4365 6.62763 26.9042 6.26605C27.3719 5.90448 28.0441 5.99049 28.4057 6.45818C29.8042 8.26703 30.6368 10.5378 30.6368 13C30.6368 15.4622 29.8042 17.7329 28.4057 19.5418C28.0441 20.0095 27.3719 20.0955 26.9042 19.7339Z" fill="#AE4EDE"/>
<path fill-rule="evenodd" clip-rule="evenodd" d="M30.2936 22.3511C29.8259 21.9895 29.7399 21.3173 30.1015 20.8496C31.7797 18.6789 32.7777 15.9578 32.7777 13.0007C32.7777 10.0435 31.7797 7.32246 30.1015 5.15177C29.7399 4.68408 29.8259 4.01183 30.2936 3.65026C30.7613 3.28868 31.4335 3.3747 31.7951 3.84238C33.753 6.37478 34.9185 9.55313 34.9185 13.0007C34.9185 16.4482 33.753 19.6266 31.7951 22.159C31.4335 22.6266 30.7613 22.7127 30.2936 22.3511Z" fill="#AE4EDE"/>
<path fill-rule="evenodd" clip-rule="evenodd" d="M33.6828 24.9663C33.2151 24.6047 33.1291 23.9325 33.4907 23.4648C35.7283 20.5706 37.0592 16.9419 37.0592 12.9994C37.0592 9.05691 35.7283 5.42826 33.4907 2.53402C33.1291 2.06633 33.2151 1.39409 33.6828 1.03251C34.1505 0.67093 34.8228 0.756948 35.1843 1.22463C37.7016 4.48059 39.2 8.56653 39.2 12.9994C39.2 17.4323 37.7016 21.5182 35.1843 24.7742C34.8228 25.2419 34.1505 25.3279 33.6828 24.9663Z" fill="#AE4EDE"/>
<path fill-rule="evenodd" clip-rule="evenodd" d="M20.0669 15.1406C21.2492 15.1406 22.2077 14.1821 22.2077 12.9998C22.2077 11.8175 21.2492 10.859 20.0669 10.859C18.8846 10.859 17.9262 11.8175 17.9262 12.9998C17.9262 14.1821 18.8846 15.1406 20.0669 15.1406ZM20.0669 17.2813C22.4316 17.2813 24.3485 15.3644 24.3485 12.9998C24.3485 10.6352 22.4316 8.71826 20.0669 8.71826C17.7023 8.71826 15.7854 10.6352 15.7854 12.9998C15.7854 15.3644 17.7023 17.2813 20.0669 17.2813Z" fill="#AE4EDE"/>
</svg>
