<svg width="40" height="40" viewBox="0 0 40 40" fill="none" xmlns="http://www.w3.org/2000/svg">
<path d="M33.3466 28.7029C32.9358 28.4198 32.8265 27.8486 33.1024 27.4271C35.0441 24.4611 36.2081 20.7264 36.2081 16.6569C36.2081 12.5874 35.0441 8.85265 33.1024 5.88667C32.8265 5.4652 32.9358 4.89401 33.3466 4.61089C33.7573 4.32776 34.3139 4.43991 34.5899 4.86138C36.7333 8.13564 38 12.2284 38 16.6569C38 21.0854 36.7333 25.1782 34.5899 28.4524C34.3139 28.8739 33.7573 28.986 33.3466 28.7029Z" fill="#0093E0"/>
<path d="M6.89756 5.8867C7.17347 5.46523 7.06418 4.89404 6.65344 4.61091C6.2427 4.32778 5.68606 4.43994 5.41014 4.86141C3.26667 8.13567 2 12.2284 2 16.6569C2 21.0854 3.26667 25.1782 5.41014 28.4524C5.68606 28.8739 6.2427 28.9861 6.65344 28.7029C7.06418 28.4198 7.17347 27.8486 6.89756 27.4272C4.9559 24.4612 3.79186 20.7264 3.79186 16.6569C3.79186 12.5874 4.9559 8.85268 6.89756 5.8867Z" fill="#0093E0"/>
<path d="M9.91564 7.12118C10.3248 7.40673 10.4309 7.97856 10.1526 8.39839C8.72303 10.5552 7.86426 13.2737 7.86426 16.239C7.86426 19.2044 8.72303 21.9229 10.1526 24.0797C10.4309 24.4995 10.3248 25.0713 9.91564 25.3569C9.5065 25.6424 8.94924 25.5336 8.67096 25.1138C7.03667 22.6481 6.0724 19.5685 6.0724 16.239C6.0724 12.9096 7.03667 9.82995 8.67096 7.36432C8.94924 6.94449 9.5065 6.83563 9.91564 7.12118Z" fill="#0093E0"/>
<path d="M13.1568 9.61705C13.5721 9.89309 13.6907 10.4623 13.4216 10.8885C12.497 12.3532 11.9367 14.2081 11.9367 16.239C11.9367 18.27 12.497 20.1249 13.4216 21.5896C13.6907 22.0157 13.5721 22.585 13.1568 22.861C12.7415 23.1371 12.1868 23.0154 11.9177 22.5892C10.7998 20.8183 10.1448 18.6145 10.1448 16.239C10.1448 13.8636 10.7998 11.6598 11.9177 9.88884C12.1868 9.46269 12.7415 9.341 13.1568 9.61705Z" fill="#0093E0"/>
<path d="M26.8432 22.861C26.4279 22.585 26.3093 22.0157 26.5784 21.5896C27.503 20.1249 28.0633 18.27 28.0633 16.239C28.0633 14.2081 27.503 12.3532 26.5784 10.8885C26.3093 10.4623 26.4279 9.89308 26.8432 9.61704C27.2585 9.341 27.8132 9.46269 28.0823 9.88883C29.2002 11.6598 29.8552 13.8636 29.8552 16.239C29.8552 18.6145 29.2002 20.8183 28.0823 22.5892C27.8132 23.0154 27.2585 23.1371 26.8432 22.861Z" fill="#0093E0"/>
<path d="M29.8474 24.0797C29.5691 24.4995 29.6752 25.0713 30.0844 25.3569C30.4935 25.6424 31.0508 25.5336 31.329 25.1137C32.9633 22.6481 33.9276 19.5685 33.9276 16.239C33.9276 12.9096 32.9633 9.82993 31.329 7.3643C31.0508 6.94447 30.4935 6.83561 30.0844 7.12116C29.6752 7.40671 29.5691 7.97854 29.8474 8.39837C31.277 10.5551 32.1357 13.2737 32.1357 16.239C32.1357 19.2044 31.277 21.9229 29.8474 24.0797Z" fill="#0093E0"/>
<path fill-rule="evenodd" clip-rule="evenodd" d="M18.1121 19.9427L14.2492 34.3826C14.1182 34.8722 14.3988 35.3781 14.876 35.5125C15.3532 35.6469 15.8461 35.3589 15.9771 34.8693L17.8309 27.9398H22.1692L24.023 34.8693C24.1539 35.3589 24.6469 35.6469 25.1241 35.5125C25.6013 35.3781 25.8819 34.8722 25.7509 34.3826L21.888 19.9426C23.1865 19.2442 24.0724 17.8478 24.0724 16.239C24.0724 13.9311 22.2491 12.0602 20 12.0602C17.7509 12.0602 15.9276 13.9311 15.9276 16.239C15.9276 17.8478 16.8135 19.2443 18.1121 19.9427ZM19.8439 20.4149L18.3228 26.1011H21.6773L20.1561 20.4149C20.1043 20.4169 20.0523 20.4179 20 20.4179C19.9477 20.4179 19.8957 20.4169 19.8439 20.4149ZM22.2805 16.239C22.2805 17.5315 21.2595 18.5792 20 18.5792C18.7405 18.5792 17.7195 17.5315 17.7195 16.239C17.7195 14.9466 18.7405 13.8989 20 13.8989C21.2595 13.8989 22.2805 14.9466 22.2805 16.239Z" fill="#0093E0"/>
</svg>
