<svg width="40" height="32" viewBox="0 0 40 32" fill="none" xmlns="http://www.w3.org/2000/svg">
<path d="M3.51491 13.0596C2.39401 13.0596 0.96437 13.4608 0.96437 14.8394C0.96437 16.927 4.26604 16.2382 4.26604 17.1024C4.26604 17.4833 3.91618 17.5856 3.5872 17.5856C3.38159 17.5856 3.19621 17.5243 3.06224 17.4211C2.91848 17.3084 2.83623 17.1434 2.83623 16.927H0.800049C0.912802 18.3774 2.27031 18.7579 3.50446 18.7579C5.47979 18.7579 6.40536 17.9973 6.40536 16.8759C6.40536 14.8593 3.00122 15.3637 3.00122 14.6129C3.00122 14.3455 3.23734 14.2324 3.6076 14.2324C3.77175 14.2324 3.92596 14.2732 4.03954 14.3657C4.15263 14.4582 4.22459 14.5817 4.24548 14.757H6.18964C6.06594 13.3269 4.68787 13.0591 3.51507 13.0591L3.51491 13.0596ZM33.8388 13.0604C33.0675 13.0604 32.581 13.6049 32.3133 14.0163V13.2141H30.3484V18.604H32.4879V15.9394C32.4879 15.2919 32.5029 14.7323 33.0907 14.7472C33.6607 14.7621 33.7075 15.0656 33.7075 15.8577V18.604H35.8465V15.9399C35.8465 15.2921 35.8415 14.7502 36.4434 14.7482C37.0092 14.7466 37.0611 15.0653 37.0611 15.8575V18.6039H39.2001V15.4153C39.2001 13.9445 38.5327 13.0607 37.1763 13.0607C36.3962 13.0607 35.9907 13.399 35.5276 14.0468C35.2703 13.4708 34.7309 13.0602 33.8388 13.0602V13.0604Z" fill="#005480"/>
<path d="M6.76428 13.0703V13.9004H8.502V13.0703H6.76428ZM6.76428 14.2572V18.635H8.502V14.2572H6.76428Z" fill="#005480"/>
<path d="M12.4983 13.0708V13.9009H14.236V13.0708H12.4983ZM12.4983 14.2577V18.6355H14.236V14.2577H12.4983Z" fill="#005480"/>
<path d="M11.9041 14.1294C11.2273 14.1294 10.8011 14.456 10.5594 15.1405H10.542V14.2551H8.96277V18.6329H10.7013V17.1207C10.701 16.1767 11.0606 15.8426 11.7705 15.8426C11.8872 15.8426 12.0129 15.8757 12.1296 15.8923V14.1549C12.0547 14.1473 11.9791 14.1297 11.9041 14.1297V14.1294ZM21.8158 14.1301C20.9051 14.1301 19.7434 14.4559 19.7434 15.5755C19.7434 17.2717 22.4258 16.7121 22.4258 17.4137C22.4258 17.7227 22.1413 17.8061 21.8741 17.8061C21.707 17.8061 21.5568 17.7561 21.448 17.6723C21.3313 17.5805 21.2644 17.4465 21.2644 17.2717H19.6101C19.7017 18.45 20.805 18.7586 21.8071 18.7586C23.4117 18.7586 24.1634 18.1406 24.1634 17.2298C24.1634 15.592 21.3979 16.0016 21.3979 15.3919C21.3979 15.1747 21.5898 15.0828 21.8912 15.0828C22.0242 15.0828 22.1496 15.1165 22.2411 15.1911C22.3336 15.2664 22.392 15.3665 22.409 15.5083H23.9881C23.8873 14.3473 22.7684 14.1299 21.8154 14.1299L21.8158 14.1301ZM14.6643 14.2551V16.9204C14.6643 18.1739 15.2819 18.7582 16.2345 18.7582C16.9531 18.7582 17.3789 18.5911 17.8135 17.9895V18.6329H19.4257V14.2551H17.688V16.3602C17.688 17.0368 17.5292 17.4132 17.0281 17.4132C16.6102 17.4132 16.4013 17.2211 16.4013 16.6199V14.2551H14.6643Z" fill="#005480"/>
<path d="M26.4482 13.2158L27.1274 14.5635L27.8475 13.2158H30.1926L28.3512 15.7771L30.2133 18.6059H27.8268L27.0654 17.0627L26.2839 18.6059H23.9177L25.8518 15.7871L24.0721 13.2158H26.4482Z" fill="#005480"/>
<path d="M15.6603 9.38637C15.4762 9.53452 15.3584 9.74969 15.3327 9.98466C15.307 10.2196 15.3755 10.4552 15.5232 10.6397C15.5967 10.7309 15.6874 10.8068 15.7902 10.8629C15.893 10.919 16.0059 10.9544 16.1223 10.9669C16.2387 10.9794 16.3565 10.9688 16.4689 10.9358C16.5812 10.9027 16.686 10.8479 16.7771 10.7743C17.6974 10.0298 18.8463 9.62586 20.0298 9.63063C21.2024 9.63063 22.3087 10.0108 23.2296 10.7331C23.4159 10.8781 23.652 10.9433 23.8863 10.9146C24.1205 10.8858 24.3339 10.7655 24.4797 10.5798C24.5521 10.4877 24.6055 10.3822 24.637 10.2694C24.6685 10.1565 24.6774 10.0386 24.6632 9.9223C24.649 9.80601 24.6119 9.69368 24.5542 9.59176C24.4965 9.48984 24.4192 9.40034 24.3268 9.32839C23.0906 8.35894 21.6045 7.84823 20.0298 7.84823C18.4443 7.84823 16.8924 8.39474 15.66 9.38669L15.6603 9.38637ZM26.6504 7.50322C26.7926 7.31469 26.8544 7.0774 26.822 6.8434C26.7896 6.6094 26.6659 6.39778 26.4778 6.25497C24.5962 4.82424 22.3486 4.06705 19.9775 4.06705C17.6274 4.06705 15.395 4.81156 13.5216 6.22012C13.3331 6.36221 13.2086 6.57329 13.1753 6.8071C13.1421 7.04091 13.2029 7.27837 13.3443 7.46742C13.4863 7.65613 13.6974 7.78071 13.9311 7.8138C14.1649 7.84689 14.4022 7.78577 14.591 7.64389C16.1533 6.47041 18.0159 5.84913 19.9772 5.84913C21.9557 5.84913 23.8309 6.47959 25.4015 7.6724C25.5897 7.81529 25.8269 7.87765 26.061 7.84582C26.2951 7.81399 26.5071 7.69055 26.6504 7.50259L26.6504 7.50322ZM20.0079 2.22065C22.8268 2.22065 25.5411 3.05831 27.8571 4.64555C28.0521 4.77915 28.2921 4.82979 28.5244 4.78633C28.7567 4.74287 28.9622 4.60887 29.0957 4.4138C29.2292 4.21874 29.2798 3.97859 29.2364 3.7462C29.193 3.5138 29.059 3.30818 28.8641 3.17458C26.2498 1.38331 23.1881 0.436035 20.0073 0.436035C16.8193 0.436035 13.7509 1.38743 11.1328 3.18852C11.0364 3.25474 10.954 3.33934 10.8903 3.43748C10.8266 3.53562 10.7829 3.64537 10.7616 3.76044C10.7404 3.8755 10.7421 3.99364 10.7665 4.10806C10.791 4.22249 10.8378 4.33096 10.9042 4.42727C10.9703 4.5238 11.0548 4.60634 11.1528 4.67017C11.2509 4.734 11.3605 4.77787 11.4755 4.79926C11.5905 4.82065 11.7086 4.81915 11.823 4.79484C11.9374 4.77053 12.0459 4.72389 12.1423 4.65759C14.4612 3.0618 17.1815 2.22129 20.0079 2.22129L20.0079 2.22065Z" fill="#00ADEE"/>
<path d="M24.339 22.6136C24.523 22.4655 24.6409 22.2503 24.6666 22.0153C24.6923 21.7804 24.6238 21.5448 24.4761 21.3603C24.4026 21.2691 24.3118 21.1932 24.209 21.1371C24.1063 21.081 23.9934 21.0456 23.877 21.0331C23.7605 21.0206 23.6428 21.0312 23.5304 21.0642C23.418 21.0973 23.3133 21.1521 23.2221 21.2257C22.3018 21.9702 21.153 22.3741 19.9695 22.3694C18.7969 22.3694 17.6905 21.9892 16.7697 21.2669C16.5834 21.1219 16.3473 21.0567 16.113 21.0854C15.8788 21.1142 15.6654 21.2345 15.5196 21.4202C15.4472 21.5123 15.3937 21.6178 15.3623 21.7306C15.3308 21.8435 15.3219 21.9614 15.3361 22.0777C15.3503 22.194 15.3873 22.3063 15.4451 22.4082C15.5028 22.5102 15.5801 22.5997 15.6725 22.6716C16.9087 23.6411 18.3948 24.1518 19.9695 24.1518C21.555 24.1518 23.1069 23.6053 24.3393 22.6133L24.339 22.6136ZM13.3489 24.4968C13.2066 24.6853 13.1449 24.9226 13.1773 25.1566C13.2096 25.3906 13.3334 25.6022 13.5215 25.745C15.403 27.1758 17.6506 27.933 20.0217 27.933C22.3719 27.933 24.6043 27.1884 26.4776 25.7799C26.6662 25.6378 26.7907 25.4267 26.8239 25.1929C26.8572 24.9591 26.7964 24.7216 26.6549 24.5326C26.5129 24.3439 26.3019 24.2193 26.0681 24.1862C25.8344 24.1531 25.597 24.2142 25.4083 24.3561C23.8459 25.5296 21.9834 26.1509 20.022 26.1509C18.0436 26.1509 16.1684 25.5204 14.5978 24.3276C14.4096 24.1847 14.1724 24.1223 13.9383 24.1542C13.7041 24.186 13.4922 24.3094 13.3489 24.4974L13.3489 24.4968ZM19.9913 29.7793C17.1725 29.7793 14.4581 28.9417 12.1422 27.3544C11.9472 27.2208 11.7072 27.1702 11.4749 27.2137C11.2426 27.2571 11.0371 27.3911 10.9036 27.5862C10.77 27.7813 10.7194 28.0214 10.7629 28.2538C10.8063 28.4862 10.9402 28.6918 11.1352 28.8254C13.7495 30.6167 16.8112 31.564 19.992 31.564C23.18 31.564 26.2484 30.6126 28.8664 28.8115C28.9629 28.7453 29.0453 28.6607 29.109 28.5625C29.1727 28.4644 29.2164 28.3546 29.2376 28.2396C29.2589 28.1245 29.2572 28.0064 29.2327 27.8919C29.2083 27.7775 29.1615 27.669 29.0951 27.5727C29.0289 27.4762 28.9445 27.3937 28.8464 27.3298C28.7484 27.266 28.6387 27.2221 28.5237 27.2007C28.4087 27.1793 28.2907 27.1808 28.1763 27.2052C28.0618 27.2295 27.9533 27.2761 27.857 27.3424C25.5381 28.9382 22.8178 29.7787 19.9913 29.7787L19.9913 29.7793Z" fill="#00ADEE"/>
</svg>
