<svg width="40" height="40" viewBox="0 0 40 40" fill="none" xmlns="http://www.w3.org/2000/svg">
<path d="M36.3207 14.9799C36.1381 14.8519 35.9608 14.7546 35.8034 14.678C35.6515 14.6047 35.5181 14.55 35.4168 14.5033C35.2995 14.4493 35.1889 14.524 35.1955 14.6533C35.3468 17.6682 34.3437 19.5179 32.4639 21.0957C30.8975 22.4095 28.7598 23.572 25.2137 24.1452H25.1957C24.7591 24.2152 24.3005 24.2765 23.8199 24.3272C22.3635 24.4825 20.8964 24.3878 19.7705 24.1465C16.3704 23.4167 14.244 21.339 16.0737 19.7132C16.2291 19.5746 16.0451 19.3466 15.8778 19.4692C13.5755 21.1563 14.602 22.4475 15.7278 23.4486C16.0238 23.7119 16.765 24.1559 16.765 24.1559C20.2418 26.0029 27.2241 25.7703 32.4319 24.2485C32.5453 24.2152 32.6579 24.1812 32.7699 24.1499V24.1472C38.3204 22.4361 42.0765 19.044 36.3214 14.9819L36.3207 14.9799Z" fill="#007CA0"/>
<path d="M18.694 10.5753C23.8812 12.0364 26.5022 13.4368 28.1999 15.0739C29.7883 16.607 30.6355 18.3014 29.2671 20.4331C27.5873 23.0467 20.1431 23.9732 17.4122 21.4923C17.2596 21.353 17.0529 21.5563 17.1902 21.7116C18.8113 23.5413 21.2823 23.6993 23.474 23.6946C35.3022 23.6666 38.727 9.02483 19.9405 10.1053C19.3459 10.1393 18.9686 10.226 18.7107 10.2706C18.5287 10.3026 18.5174 10.5253 18.6947 10.5753H18.694Z" fill="#007CA0"/>
<path d="M3.43166 15.9291C8.45956 14.3307 12.1197 13.8474 15.7405 13.9041C19.1293 13.9567 22.5188 14.4367 25.4823 16.1711C28.7872 18.1048 27.0668 21.8729 21.337 21.8582C21.127 21.8582 21.119 22.1602 21.329 22.1708C25.1117 22.3528 26.6268 21.3416 27.7467 20.3251C30.7735 17.5755 26.2849 13.9541 20.6891 12.237C14.9493 10.4753 7.48105 10.4586 3.59896 15.0526C3.47032 15.2052 3.393 15.3392 3.34034 15.4565C3.29168 15.5638 3.26701 15.6532 3.23969 15.7231C3.18569 15.8611 3.29234 15.9738 3.43232 15.9291H3.43166Z" fill="#007CA0"/>
<path d="M7.5357 18.906C9.2981 17.4269 11.7804 16.1411 16.1797 15.6738C21.8395 15.0732 26.3902 18.0995 23.9259 20.2898C23.7706 20.4278 23.9546 20.6544 24.1219 20.5324C26.4249 18.8453 25.3977 17.5549 24.2718 16.5537C21.3589 13.9634 13.3648 14.0594 7.5677 15.7538C2.2425 17.3102 -1.61225 20.3964 2.57445 24.1479C2.8944 24.4352 3.26168 24.7258 3.67895 25.0197C3.86159 25.1491 4.02957 25.269 4.18754 25.3464C4.33952 25.4204 4.46617 25.4917 4.57415 25.5197C4.71213 25.5557 4.81078 25.4763 4.80412 25.3477C4.78279 24.9224 4.78412 24.5225 4.80745 24.1472H4.79878L4.80745 24.1419C4.95143 21.8176 5.91928 20.2605 7.5357 18.9053V18.906Z" fill="#007CA0"/>
<path d="M36.5673 24.0719C36.498 24.0932 36.4293 24.1159 36.3607 24.1412H36.3447C31.4314 25.6843 27.826 26.1516 24.2585 26.0969C21.0883 26.0469 17.9168 25.623 15.0932 24.1479H15.0906C14.8979 24.0466 14.7066 23.9412 14.5173 23.8306C11.2125 21.8969 12.9329 18.1288 18.6627 18.1421C18.8727 18.1434 18.8807 17.8402 18.6707 17.8302C14.8879 17.6475 13.3728 18.6587 12.253 19.6759C10.7272 21.0623 11.1112 22.6701 12.5849 24.1479H12.5896C14.0401 25.5957 16.5397 26.9128 19.3113 27.764C25.0511 29.5264 32.5193 29.5417 36.402 24.9478C36.5307 24.7958 36.608 24.6611 36.6606 24.5445C36.7086 24.4372 36.734 24.3478 36.7613 24.2779C36.78 24.2299 36.7793 24.1845 36.764 24.1485C36.736 24.0806 36.6593 24.0439 36.568 24.0726L36.5673 24.0719Z" fill="#007CA0"/>
<path d="M21.3056 29.4257C16.1184 27.964 13.4968 26.5642 11.7997 24.9264C11.5351 24.6711 11.2905 24.4118 11.0745 24.1479V24.1459C9.99 22.8174 9.59139 21.3436 10.7326 19.5672C12.4123 16.9536 19.8565 16.0271 22.5874 18.5074C22.7407 18.6467 22.9474 18.4427 22.8094 18.2881C21.1883 16.459 18.7174 16.3004 16.5257 16.3051C10.2573 16.3197 6.34922 20.4391 6.85581 24.1472C7.30507 27.4367 11.2285 30.4029 20.0591 29.895C20.6537 29.8603 21.031 29.7737 21.289 29.729C21.4709 29.697 21.4823 29.4751 21.305 29.4251L21.3056 29.4257Z" fill="#007CA0"/>
</svg>
