<svg width="36" height="36" viewBox="0 0 36 36" fill="none" xmlns="http://www.w3.org/2000/svg">
<path fill-rule="evenodd" clip-rule="evenodd" d="M28.4109 16.0026C22.7377 12.6334 13.3799 12.3236 7.96409 13.9674C7.09422 14.2313 6.17453 13.7404 5.9112 12.8707C5.64765 12.0004 6.13796 11.0814 7.00826 10.817C13.2254 8.92989 23.5601 9.29432 30.0912 13.1712C30.8736 13.6357 31.13 14.646 30.6664 15.427C30.2023 16.2092 29.1912 16.4671 28.4109 16.0026ZM28.2251 20.9928C27.8271 21.6386 26.9826 21.8412 26.3376 21.4446C21.608 18.5374 14.3956 17.6951 8.79992 19.3936C8.07443 19.6128 7.30796 19.2038 7.08749 18.4794C6.86892 17.7539 7.27811 16.9889 8.00255 16.7682C14.3947 14.8284 22.3413 15.7678 27.7737 19.1063C28.4187 19.5035 28.6217 20.3484 28.2251 20.9928ZM26.0715 25.7852C25.7552 26.3039 25.08 26.4663 24.5632 26.1502C20.4303 23.6243 15.2283 23.0539 9.10193 24.4531C8.51158 24.5885 7.92311 24.2186 7.78861 23.6285C7.65326 23.0381 8.02189 22.4496 8.61351 22.3149C15.3178 20.7824 21.0685 21.4419 25.7075 24.2766C26.2248 24.5925 26.3876 25.2682 26.0715 25.7852ZM17.9999 0.399902C8.27997 0.399902 0.400024 8.27964 0.400024 17.9996C0.400024 27.7206 8.27997 35.5999 17.9999 35.5999C27.7203 35.5999 35.6 27.7206 35.6 17.9996C35.6 8.27964 27.7203 0.399902 17.9999 0.399902Z" fill="#1ED760"/>
</svg>
