<svg width="40" height="40" viewBox="0 0 40 40" fill="none" xmlns="http://www.w3.org/2000/svg">
<path fill-rule="evenodd" clip-rule="evenodd" d="M27.3692 5C27.5835 5 27.7571 5.17673 27.7571 5.39474V34.6053C27.7571 34.8233 27.5835 35 27.3692 35H12.6308C12.4166 35 12.2429 34.8233 12.2429 34.6053V5.39474C12.2429 5.17673 12.4166 5 12.6308 5H27.3692ZM20 29.8684C19.1432 29.8684 18.4486 30.5753 18.4486 31.4474C18.4486 32.3194 19.1432 33.0263 20 33.0263C20.8568 33.0263 21.5514 32.3194 21.5514 31.4474C21.5514 30.5753 20.8568 29.8684 20 29.8684ZM14.57 6.57895C14.1416 6.57895 13.7943 6.93241 13.7943 7.36842V27.8947C13.7943 28.3307 14.1416 28.6842 14.57 28.6842H25.43C25.8584 28.6842 26.2057 28.3307 26.2057 27.8947V7.36842C26.2057 6.93241 25.8584 6.57895 25.43 6.57895H14.57Z" fill="#F189AD"/>
</svg>
