<svg width="30" height="34" viewBox="0 0 30 34" fill="none" xmlns="http://www.w3.org/2000/svg">
<mask id="mask0_497_4133" style="mask-type:alpha" maskUnits="userSpaceOnUse" x="0" y="0" width="30" height="34">
<path d="M15.7586 0.200195H0.53064V33.8002H9.61696C10.4639 33.8002 11.1482 33.1217 11.1482 32.282V25.8256H13.4254C24.5533 25.8256 29.1021 19.6083 29.1021 12.3345C29.1077 3.35889 22.2312 0.200195 15.7586 0.200195Z" fill="url(#paint0_linear_497_4133)"/>
</mask>
<g mask="url(#mask0_497_4133)">
<path d="M13.8853 -13.4637L14.3789 -13.3191C15.108 -13.1078 15.725 -12.6296 16.112 -11.9845L16.8075 -10.8167C17.1945 -10.1716 17.8115 -9.69332 18.5407 -9.482L19.8531 -9.09829C20.5823 -8.88697 21.1992 -8.40872 21.5863 -7.76363L22.2817 -6.59581C22.6688 -5.95072 23.2857 -5.47247 24.0149 -5.26115L25.3274 -4.87744C26.0565 -4.66611 26.6735 -4.18786 27.0605 -3.54278L27.756 -2.37495C28.143 -1.72987 28.76 -1.25162 29.4891 -1.0403L30.8016 -0.656582C31.5307 -0.445261 32.1477 0.0329914 32.5347 0.678076L33.2358 1.85146C33.6172 2.49655 34.2342 2.96924 34.9577 3.18612L36.287 3.5754C36.9993 3.78672 37.6107 4.25385 37.9921 4.88225L38.2557 5.31601C38.9007 6.36705 38.8166 7.70727 38.0538 8.6749L36.2982 10.9104C35.283 12.2006 33.4041 12.4342 32.1028 11.4276L9.44873 -6.0397C8.14748 -7.04625 7.9119 -8.90921 8.9271 -10.1994L10.6883 -12.4405C11.4343 -13.4026 12.7075 -13.8085 13.8853 -13.4637Z" fill="url(#paint1_linear_497_4133)"/>
<path d="M33.0955 4.65972C33.2582 4.74314 33.4377 4.81543 33.6172 4.86548L34.9409 5.25476C35.6532 5.46608 36.2645 5.93321 36.6516 6.56717L36.9152 7.00093C37.5546 8.05198 37.4704 9.38663 36.7076 10.3543L34.9465 12.5898C33.9313 13.88 32.0523 14.108 30.7511 13.1014L8.11938 -4.38814C6.81813 -5.3947 6.58256 -7.25766 7.59776 -8.55339L9.35894 -10.7945C10.1161 -11.7566 11.3837 -12.1625 12.5616 -11.8177L13.0552 -11.6731C13.7843 -11.4618 14.4013 -10.9836 14.7883 -10.3329L15.4838 -9.1651C15.8708 -8.52002 16.4878 -8.03621 17.2169 -7.82489L18.5294 -7.44117C19.2585 -7.22985 19.8755 -6.7516 20.2625 -6.10095L20.958 -4.93313C21.345 -4.28804 21.962 -3.80423 22.6911 -3.59291L24.0036 -3.2092C24.7328 -2.99788 25.3497 -2.51962 25.7367 -1.86898L26.4322 -0.701153C26.8193 -0.0560684 27.4362 0.427745 28.1654 0.639066L29.4778 1.02278C30.207 1.2341 30.824 1.71235 31.211 2.363L31.9065 3.53638C32.1813 4.01464 32.602 4.40391 33.0955 4.65972Z" fill="url(#paint2_linear_497_4133)"/>
<path d="M11.2491 -10.1551L11.7427 -10.0105C12.4719 -9.79916 13.0888 -9.31534 13.4702 -8.67026L14.1657 -7.50243C14.5527 -6.85179 15.1697 -6.37354 15.8932 -6.16221L17.2057 -5.7785C17.9349 -5.56718 18.5518 -5.08337 18.9332 -4.43828L19.6287 -3.27046C20.0157 -2.61981 20.6327 -2.14156 21.3563 -1.93024L22.6687 -1.54652C23.3979 -1.3352 24.0149 -0.85139 24.3963 -0.206306L25.0917 0.96152C25.4788 1.61217 26.0957 2.09042 26.8193 2.30174L28.1317 2.68545C28.8609 2.89677 29.4779 3.38059 29.8593 4.02567L30.5548 5.19906C30.9362 5.84414 31.5531 6.32239 32.2767 6.53928L33.6004 6.92855C34.3183 7.13987 34.9296 7.61256 35.3111 8.25209L35.5747 8.68585C36.2085 9.73689 36.1243 11.0716 35.3615 12.0336L33.6004 14.2692C32.5852 15.5593 30.7062 15.7873 29.4049 14.7808L6.79571 -2.73659C5.49446 -3.74315 5.2645 -5.61167 6.2797 -6.90184L8.04088 -9.13739C8.79807 -10.0939 10.0713 -10.4999 11.2491 -10.1551Z" fill="url(#paint3_linear_497_4133)"/>
<path d="M13.7618 -7.62449L14.2554 -7.4799C14.9845 -7.26858 15.6015 -6.78476 15.9829 -6.13968L16.6728 -4.97185C17.0542 -4.32121 17.6768 -3.84296 18.4003 -3.63164L19.7128 -3.24792C20.442 -3.0366 21.0589 -2.55279 21.4403 -1.9077L22.1302 -0.739878C22.5116 -0.0892324 23.1342 0.38902 23.8577 0.600341L25.1702 0.984055C25.8993 1.19538 26.5163 1.67919 26.8977 2.32427L27.5876 3.4921C27.969 4.14274 28.5916 4.621 29.3151 4.83232L30.6276 5.21603C31.3568 5.42735 31.9737 5.91117 32.3551 6.55625L33.0506 7.72964C33.432 8.37472 34.049 8.85297 34.7725 9.06985L36.0906 9.45913C36.8085 9.67045 37.4199 10.1487 37.8069 10.7882L38.0705 11.2276C38.6987 12.2786 38.6146 13.6077 37.8518 14.5698L36.085 16.8053C35.0642 18.0955 33.1852 18.3179 31.884 17.3114L9.29718 -0.211576C7.99593 -1.22369 7.76597 -3.08665 8.78678 -4.37682L10.5536 -6.61237C11.3108 -7.56887 12.584 -7.96927 13.7618 -7.62449Z" fill="url(#paint4_linear_497_4133)"/>
<path d="M8.61297 -6.84061L9.10655 -6.69602C9.8357 -6.47914 10.4527 -6.00088 10.8341 -5.35024L11.524 -4.18241C11.9054 -3.53177 12.5223 -3.05352 13.2515 -2.83663L14.5639 -2.44736C15.2931 -2.23048 15.9101 -1.75222 16.2915 -1.10158L16.9814 0.0662465C17.3628 0.716892 17.9797 1.19515 18.7089 1.41203L20.0213 1.8013C20.7505 2.01818 21.3675 2.49644 21.7489 3.14708L22.4388 4.31491C22.8202 4.96555 23.4371 5.44381 24.1663 5.66069L25.4787 6.04996C26.2079 6.26684 26.8249 6.74509 27.2063 7.39574L27.8962 8.56913C28.2776 9.21421 28.8945 9.69802 29.6181 9.91491L30.9361 10.3042C31.6597 10.5211 32.2711 10.9938 32.6525 11.6388L32.9105 12.0782C33.5386 13.1292 33.4489 14.4583 32.6861 15.4148L30.9193 17.6448C29.8985 18.935 28.0195 19.1574 26.7183 18.1453L4.14272 0.566743C2.84147 -0.445372 2.61712 -2.30833 3.63793 -3.5985L5.40471 -5.83405C6.16191 -6.79056 7.43511 -7.19095 8.61297 -6.84061Z" fill="url(#paint5_linear_497_4133)"/>
<path d="M4.6082 -11.3283L5.07934 -11.1281C5.77484 -10.8333 6.33572 -10.2828 6.6386 -9.59322L7.18826 -8.3531C7.49114 -7.66353 8.05202 -7.11854 8.74752 -6.81825L10.0039 -6.28438C10.6994 -5.98965 11.2603 -5.4391 11.5632 -4.74953L12.1128 -3.50941C12.4157 -2.81983 12.9766 -2.27485 13.6721 -1.97455L14.9285 -1.44069C15.624 -1.14595 16.1848 -0.595406 16.4877 0.0941677L17.0374 1.33429C17.3403 2.02386 17.9011 2.56884 18.5966 2.86914L19.853 3.40301C20.5485 3.69774 21.1094 4.24829 21.4123 4.93786L21.9619 6.18354C22.2648 6.87312 22.8201 7.4181 23.5156 7.71284L24.7776 8.25226C25.4675 8.547 26.0227 9.09198 26.3256 9.776L26.5332 10.2431C27.0323 11.3609 26.7912 12.6678 25.9218 13.5353L23.9026 15.5484C22.736 16.7107 20.8458 16.7162 19.6735 15.5651L-0.697763 -4.4826C-1.87001 -5.63374 -1.87562 -7.51338 -0.714592 -8.67564L1.30459 -10.6888C2.16835 -11.5563 3.48082 -11.8121 4.6082 -11.3283Z" fill="url(#paint6_linear_497_4133)"/>
<path d="M6.80136 -4.12116L7.30055 -4.00994C8.04092 -3.84311 8.68593 -3.39822 9.11221 -2.77538L9.87501 -1.65204C10.3013 -1.0292 10.9463 -0.589878 11.6867 -0.417484L13.0216 -0.111625C13.7619 0.0552068 14.407 0.500093 14.8332 1.12293L15.596 2.24627C16.0223 2.86911 16.6673 3.30843 17.4077 3.48083L18.7426 3.78669C19.4829 3.95352 20.128 4.39841 20.5542 5.02125L21.317 6.14458C21.7433 6.76742 22.3883 7.20675 23.1287 7.37914L24.4636 7.685C25.204 7.85183 25.849 8.29672 26.2753 8.91956L27.0381 10.0429C27.4587 10.6657 28.1093 11.1051 28.8441 11.2775L30.179 11.5833C30.9138 11.7501 31.5588 12.1895 31.985 12.8123L32.2711 13.2349C32.961 14.2471 32.9554 15.5706 32.2599 16.5772L30.6389 18.9184C29.7023 20.2697 27.8401 20.6089 26.4772 19.6802L2.81348 3.55312C1.45053 2.62442 1.10839 0.778146 2.03946 -0.573195L3.66041 -2.91441C4.36152 -3.90984 5.60668 -4.39365 6.80136 -4.12116Z" fill="url(#paint7_linear_497_4133)"/>
<path d="M8.02409 -6.36212L8.48963 -6.15079C9.17951 -5.83937 9.72357 -5.27771 10.0152 -4.58257L10.5369 -3.33133C10.8229 -2.6362 11.3726 -2.07453 12.0625 -1.76311L13.3076 -1.20144C13.9975 -0.89002 14.5416 -0.328352 14.8332 0.366782L15.3548 1.61802C15.6409 2.31316 16.1906 2.87483 16.8805 3.18625L18.1256 3.74792C18.8155 4.05933 19.3596 4.621 19.6512 5.31614L20.1728 6.56738C20.4589 7.26251 21.0086 7.82418 21.6984 8.1356L22.9436 8.69727C23.6335 9.00869 24.1775 9.57036 24.4692 10.2655L24.9908 11.5223C25.2769 12.2174 25.8209 12.7791 26.5108 13.0905L27.756 13.6577C28.4459 13.9692 28.9843 14.5253 29.276 15.2204L29.4723 15.6875C29.9434 16.8164 29.6686 18.1122 28.7824 18.9574L26.7184 20.9261C25.5293 22.0605 23.6335 22.0272 22.4893 20.8482L2.56669 0.361221C1.42249 -0.817726 1.45614 -2.69737 2.64522 -3.83183L4.70927 -5.80045C5.59546 -6.64573 6.90794 -6.86817 8.02409 -6.36212Z" fill="url(#paint8_linear_497_4133)"/>
<path d="M5.97678 -3.53152L6.46475 -3.38694C7.18829 -3.17006 7.80526 -2.68624 8.18666 -2.04116L8.87655 -0.867771C9.25795 -0.217125 9.87492 0.261127 10.5985 0.478009L11.9109 0.867284C12.6345 1.08417 13.2514 1.56798 13.6328 2.21306L14.3227 3.38645C14.7041 4.0371 15.3211 4.51535 16.0447 4.73223L17.3571 5.1215C18.0807 5.33839 18.6976 5.8222 19.079 6.46729L19.7689 7.64067C20.1503 8.29132 20.7673 8.76957 21.4908 8.98645L22.8033 9.37573C23.5268 9.59261 24.1438 10.0764 24.5252 10.7215L25.2151 11.8949C25.5965 12.5455 26.2135 13.0238 26.937 13.2407L28.2495 13.6299C28.973 13.8468 29.59 14.3306 29.9714 14.9757L30.2294 15.4151C30.8464 16.4661 30.7566 17.7896 29.9938 18.7461L28.2214 20.9761C27.2006 22.2607 25.3161 22.4832 24.0204 21.4711L1.48971 3.87026C0.194068 2.85815 -0.0302868 0.989628 0.990522 -0.29498L2.76291 -2.52497C3.52572 -3.48148 4.79893 -3.88187 5.97678 -3.53152Z" fill="url(#paint9_linear_497_4133)"/>
<path d="M1.43921 -7.77463L1.91035 -7.57999C2.61146 -7.29082 3.17795 -6.75139 3.49204 -6.06738L4.05854 -4.83282C4.37263 -4.14881 4.93912 -3.60939 5.64023 -3.32021L6.90222 -2.80303C7.60332 -2.51386 8.16981 -1.97443 8.48391 -1.29042L9.0504 -0.0558615C9.3645 0.62815 9.93099 1.16757 10.6321 1.45675L11.8941 1.97393C12.5952 2.2631 13.1617 2.80253 13.4758 3.48654L14.0423 4.7211C14.3564 5.40511 14.9229 5.94454 15.624 6.23371L16.886 6.75089C17.5871 7.04007 18.1535 7.57949 18.4676 8.2635L19.0341 9.49806C19.3482 10.1821 19.9147 10.7215 20.6158 11.0107L21.8778 11.5279C22.5789 11.817 23.1454 12.3565 23.4595 13.0405L23.6726 13.502C24.1831 14.6087 23.9587 15.9155 23.1062 16.7886L21.1206 18.8351C19.9764 20.014 18.0806 20.0474 16.8916 18.913L-3.76579 -0.856657C-4.95487 -1.99112 -4.98852 -3.87076 -3.84432 -5.04971L-1.85879 -7.09618C-1.00064 -7.96927 0.306221 -8.24176 1.43921 -7.77463Z" fill="url(#paint10_linear_497_4133)"/>
<path d="M4.91672 -1.74067L5.40469 -1.59608C6.12823 -1.3792 6.74521 -0.895385 7.12661 -0.250301L7.81649 0.923085C8.1979 1.57373 8.81487 2.05198 9.53841 2.26887L10.8509 2.65814C11.5744 2.87502 12.1914 3.35883 12.5728 4.00392L13.2627 5.17731C13.6441 5.82795 14.2611 6.3062 14.9846 6.52309L16.2971 6.91236C17.0206 7.12924 17.6376 7.61306 18.019 8.25814L18.7089 9.43153C19.0903 10.0822 19.7072 10.5604 20.4308 10.7773L21.7432 11.1666C22.4668 11.3835 23.0838 11.8673 23.4652 12.5124L24.155 13.6857C24.5364 14.3364 25.1534 14.8146 25.877 15.0315L27.1894 15.4208C27.913 15.6377 28.5299 16.1215 28.9113 16.7666L29.1693 17.2059C29.7863 18.257 29.6966 19.5805 28.9338 20.537L27.1614 22.767C26.1406 24.0516 24.256 24.274 22.9604 23.2619L0.429652 5.65556C-0.86599 4.64344 -1.09035 2.77492 -0.0695364 1.49031L1.70286 -0.739676C2.46566 -1.69618 3.73887 -2.09102 4.91672 -1.74067Z" fill="url(#paint11_linear_497_4133)"/>
<path d="M0.86719 -6.64028L1.33272 -6.42896C2.02261 -6.11197 2.56667 -5.55031 2.85272 -4.85517L3.36873 -3.59837C3.65479 -2.90324 4.19884 -2.34157 4.88873 -2.02459L6.13389 -1.45736C6.82378 -1.14038 7.36784 -0.578707 7.65389 0.116427L8.1699 1.37323C8.45595 2.06836 9.00001 2.63003 9.68989 2.94701L10.9351 3.51424C11.6249 3.83122 12.169 4.39289 12.4551 5.08803L12.9711 6.34483C13.2571 7.03996 13.8012 7.60163 14.4911 7.91861L15.7362 8.48584C16.4261 8.80282 16.9702 9.36449 17.2562 10.0596L17.7722 11.3164C18.0583 12.0116 18.6023 12.5732 19.2922 12.8902L20.5374 13.4574C21.2273 13.7744 21.7713 14.3361 22.0574 15.0312L22.2537 15.5039C22.7192 16.6328 22.4388 17.923 21.5526 18.7683L19.4829 20.7313C18.2882 21.8658 16.3981 21.8213 15.2539 20.6423L-4.61265 0.071939C-5.75685 -1.11257 -5.71198 -2.98665 -4.5229 -4.12111L-2.45324 -6.08417C-1.56705 -6.92945 -0.248969 -7.14633 0.86719 -6.64028Z" fill="url(#paint12_linear_497_4133)"/>
<path d="M3.21164 0.0439993L3.69961 0.188587C4.42315 0.405469 5.04013 0.889282 5.42153 1.53437L6.11141 2.70775C6.49282 3.3584 7.10979 3.83665 7.83333 4.05353L9.1458 4.44281C9.86934 4.65969 10.4863 5.1435 10.8677 5.78859L11.5576 6.96197C11.939 7.61262 12.556 8.09087 13.2795 8.30775L14.592 8.69703C15.3155 8.91391 15.9325 9.39772 16.3139 10.0428L17.0038 11.2162C17.3852 11.8668 18.0022 12.3451 18.7257 12.562L20.0382 12.9512C20.7617 13.1681 21.3787 13.6519 21.7601 14.297L22.45 15.4704C22.8314 16.1211 23.4483 16.5993 24.1719 16.8162L25.4843 17.2055C26.2079 17.4223 26.8249 17.9062 27.2063 18.5512L27.4643 18.9906C28.0812 20.0416 27.9915 21.3652 27.2287 22.3217L25.4563 24.5516C24.4355 25.8363 22.5509 26.0587 21.2553 25.0466L-1.27543 7.44023C-2.57107 6.42811 -2.79542 4.55959 -1.77461 3.27498L-0.00222111 1.04499C0.76619 0.0884879 2.0394 -0.306348 3.21164 0.0439993Z" fill="url(#paint13_linear_497_4133)"/>
<path d="M3.89038 -0.523314L4.36152 -0.328676C5.06263 -0.0395006 5.62351 0.505484 5.932 1.19506L6.49288 2.43518C6.80137 3.11919 7.36225 3.66417 8.06336 3.95891L9.32535 4.48721C10.0265 4.77639 10.5873 5.32137 10.8958 6.01095L11.4567 7.25107C11.7652 7.93508 12.3261 8.48006 13.0272 8.7748L14.2892 9.3031C14.9903 9.59228 15.5512 10.1373 15.8596 10.8268L16.4205 12.067C16.729 12.751 17.2899 13.296 17.991 13.5907L19.253 14.119C19.9541 14.4082 20.515 14.9532 20.8235 15.6427L21.3843 16.8828C21.6928 17.5669 22.1976 18.3899 22.8987 18.6846L24.2449 19.7968C24.946 20.086 25.3947 19.8914 25.7032 20.5754L26.0397 20.9091C26.5389 22.0213 26.2584 23.3337 25.4003 24.2068L23.3979 26.2366C22.2425 27.41 20.3467 27.4266 19.1689 26.2811L-1.3651 6.3613C-2.54857 5.21571 -2.56539 3.33607 -1.40997 2.16825L0.592386 0.138454C1.45054 -0.734634 2.76301 -0.996005 3.89038 -0.523314Z" fill="url(#paint14_linear_497_4133)"/>
<path d="M1.83188 1.82916L2.31985 1.97374C3.04339 2.19062 3.66037 2.67444 4.04177 3.31952L4.73166 4.49291C5.11306 5.14355 5.73003 5.62181 6.45357 5.83869L7.76604 6.22796C8.48958 6.44484 9.10655 6.92866 9.48795 7.57374L10.1778 8.74713C10.5592 9.39778 11.1762 9.87603 11.8998 10.0929L13.2122 10.4822C13.9358 10.6991 14.5527 11.1829 14.9341 11.828L15.624 13.0014C16.0054 13.652 16.6224 14.1302 17.3459 14.3471L18.6584 14.7364C19.3819 14.9533 19.9989 15.4371 20.3803 16.0822L21.0702 17.2556C21.4516 17.9062 22.0686 18.3845 22.7921 18.6013L24.1046 18.9906C24.8281 19.2075 25.4451 19.6913 25.8265 20.3364L26.0845 20.7757C26.7015 21.8268 26.6117 23.1503 25.8489 24.1068L24.0765 26.3368C23.0557 27.6214 21.1712 27.8439 19.8755 26.8317L-2.65519 9.22538C-3.95083 8.21327 -4.17518 6.34475 -3.15438 5.06014L-1.38198 2.83015C-0.619178 1.87364 0.654028 1.47881 1.83188 1.82916Z" fill="url(#paint15_linear_497_4133)"/>
<path d="M1.94961 0.789233L2.42075 0.994994C3.11625 1.29529 3.67152 1.84584 3.96879 2.53541L4.51285 3.78109C4.81573 4.47066 5.3654 5.02121 6.06089 5.32151L7.31166 5.86649C8.00716 6.16679 8.56243 6.71734 8.8597 7.40691L9.40376 8.65259C9.70664 9.34216 10.2563 9.89271 10.9518 10.193L12.2026 10.738C12.8981 11.0383 13.4533 11.5888 13.7506 12.2784L14.2947 13.5241C14.5975 14.2137 15.1472 14.7642 15.8427 15.0645L17.0935 15.6095C17.789 15.9098 18.3442 16.4603 18.6415 17.1499L19.1856 18.3956C19.4885 19.0852 19.8306 20.025 20.5205 20.3253L21.9844 20.481C22.6799 20.7813 23.2352 21.3318 23.5324 22.0214L23.7343 22.4885C24.2223 23.6063 23.9699 24.9076 23.0949 25.764L21.0645 27.766C19.8923 28.9227 18.0021 28.9171 16.8355 27.7549L-3.40122 7.60155C-4.56786 6.43928 -4.56225 4.5652 -3.39 3.4085L-1.35961 1.40651C-0.490235 0.544546 0.822234 0.299859 1.94961 0.789233Z" fill="url(#paint16_linear_497_4133)"/>
<path d="M0.452124 3.61455L0.94009 3.75914C1.66363 3.97602 2.2806 4.45983 2.662 5.10492L3.35189 6.2783C3.73329 6.92895 4.35027 7.4072 5.07381 7.62408L6.38628 8.01336C7.10982 8.23024 7.72679 8.71405 8.10819 9.35914L8.79808 10.5325C9.17948 11.1832 9.79645 11.6614 10.52 11.8783L11.8325 12.2676C12.556 12.4845 13.173 12.9683 13.5544 13.6134L14.2443 14.7867C14.6257 15.4374 15.2426 15.9156 15.9662 16.1325L17.2786 16.5218C18.0022 16.7387 18.6192 17.2225 19.0006 17.8676L19.6904 19.041C20.0718 19.6916 20.6888 20.1699 21.4124 20.3867L22.7248 20.776C23.4484 20.9929 24.0653 21.4767 24.4467 22.1218L24.7047 22.5611C25.3217 23.6122 25.232 24.9357 24.4692 25.8922L22.6968 28.1222C21.676 29.4068 19.7914 29.6292 18.4958 28.6171L-4.03495 11.0108C-5.33059 9.99866 -5.55494 8.13014 -4.53414 6.84553L-2.76174 4.61554C-1.99894 3.6646 -0.725732 3.2642 0.452124 3.61455Z" fill="url(#paint17_linear_497_4133)"/>
<path d="M3.90715 9.89271L4.41194 9.965C5.16353 10.0762 5.8422 10.4599 6.31895 11.0494L7.17149 12.1116C7.64263 12.7011 8.32691 13.0848 9.0785 13.196L10.4302 13.3906C11.1818 13.5018 11.8605 13.8856 12.3372 14.475L13.1898 15.5372C13.6609 16.1267 14.3452 16.5104 15.0968 16.6216L16.4485 16.8162C17.2001 16.9275 17.8788 17.3112 18.3555 17.9007L19.2081 18.9628C19.6792 19.5523 20.3635 19.936 21.1151 20.0472L22.4668 20.2419C23.2184 20.3531 23.8971 20.7368 24.3738 21.3263L25.2263 22.3884C25.6975 22.9779 26.3818 23.3616 27.1333 23.4729L28.4851 23.6675C29.2367 23.7787 29.9153 24.1624 30.3921 24.7519L30.7118 25.1467C31.4802 26.0977 31.5812 27.4156 30.9698 28.4723L29.5452 30.9358C28.7207 32.3539 26.8922 32.8488 25.4619 32.0313L0.558669 17.8617C-0.871585 17.0443 -1.37077 15.2313 -0.546273 13.8133L0.878374 11.3497C1.48974 10.2931 2.69003 9.71476 3.90715 9.89271Z" fill="url(#paint18_linear_497_4133)"/>
<path d="M-0.92764 5.39963L-0.43967 5.54422C0.28387 5.7611 0.900844 6.24491 1.28224 6.89L1.97213 8.06338C2.35353 8.71403 2.97051 9.19228 3.69405 9.40916L5.00651 9.79844C5.73005 10.0153 6.34702 10.4991 6.72843 11.1442L7.41831 12.3176C7.79971 12.9682 8.41669 13.4465 9.14023 13.6634L10.4527 14.0527C11.1762 14.2695 11.7932 14.7534 12.1746 15.3984L12.8645 16.5718C13.2459 17.2225 13.8629 17.7007 14.5864 17.9176L15.8989 18.3069C16.6224 18.5238 17.2394 19.0076 17.6208 19.6527L18.3107 20.826C18.6921 21.4767 19.3091 21.9549 20.0326 22.1718L21.3451 22.5611C22.0686 22.778 22.6856 23.2618 23.067 23.9069L23.325 24.3462C23.942 25.3972 23.8522 26.7208 23.0894 27.6773L21.317 29.9073C20.2962 31.1919 18.4116 31.4143 17.116 30.4022L-5.41471 12.8014C-6.71035 11.7893 -6.9347 9.92078 -5.9139 8.63617L-4.1415 6.40618C-3.3787 5.44968 -2.1055 5.04928 -0.92764 5.39963Z" fill="url(#paint19_linear_497_4133)"/>
<path d="M-0.837873 4.59305L-0.361122 4.78213C0.339983 5.06574 0.912083 5.59961 1.23179 6.27806L1.8095 7.50705C2.1292 8.19106 2.7013 8.72493 3.40241 9.00298L4.67 9.50904C5.37111 9.79265 5.94321 10.3265 6.26292 11.005L6.84062 12.234C7.16033 12.918 7.73243 13.4518 8.43354 13.7299L9.70113 14.236C10.4022 14.5196 10.9743 15.0534 11.294 15.7319L11.8718 16.9609C12.1915 17.6449 12.7636 18.1788 13.4647 18.4568L14.7323 18.9629C15.4334 19.2465 16.0055 19.7803 16.3252 20.4588L16.9029 21.6878C17.2226 22.3718 17.7947 22.9057 18.4958 23.1837L19.7634 23.6898C20.4645 23.9734 21.0366 24.5073 21.3563 25.1857L21.575 25.6473C22.0967 26.7539 21.8779 28.0552 21.0366 28.9394L19.0679 30.997C17.9293 32.1871 16.0391 32.2371 14.8388 31.1082L-5.98679 11.5555C-7.18708 10.4266 -7.23756 8.55254 -6.09897 7.36247L-4.13026 5.30487C-3.28333 4.42066 -1.97647 4.13704 -0.837873 4.59305Z" fill="url(#paint20_linear_497_4133)"/>
<path d="M-4.29854 9.5148L-3.78814 9.55373C-3.03095 9.60934 -2.32423 9.94857 -1.81383 10.5047L-0.888369 11.5057C-0.372356 12.0618 0.32875 12.401 1.08594 12.4566L2.44889 12.5567C3.20608 12.6123 3.9128 12.9515 4.4232 13.5077L5.34866 14.5086C5.86467 15.0648 6.56578 15.404 7.32297 15.4596L8.68592 15.5597C9.44311 15.6153 10.1498 15.9545 10.6602 16.5106L11.5857 17.5116C12.1017 18.0677 12.8028 18.407 13.56 18.4626L14.923 18.5627C15.6801 18.6183 16.3869 18.9575 16.8973 19.5136L17.8227 20.5146C18.3387 21.0707 19.0398 21.4099 19.797 21.4655L21.16 21.5656C21.9172 21.6213 22.6239 21.9605 23.1343 22.5166L23.482 22.8892C24.3121 23.7845 24.5085 25.0969 23.97 26.1925L22.7192 28.745C21.9957 30.2187 20.2065 30.836 18.7201 30.1186L-7.08053 17.6951C-8.56687 16.9778 -9.18945 15.2038 -8.46591 13.7301L-7.21514 11.1776C-6.6823 10.082 -5.52688 9.42026 -4.29854 9.5148Z" fill="url(#paint21_linear_497_4133)"/>
<path d="M-2.3074 7.18478L-1.81943 7.32937C-1.09589 7.54625 -0.478918 8.03007 -0.0975165 8.67515L0.592373 9.84854C0.973775 10.4992 1.59074 10.9774 2.31428 11.1943L3.62675 11.5836C4.3503 11.8005 4.96727 12.2843 5.34867 12.9294L6.03856 14.1083C6.41996 14.759 7.03693 15.2372 7.76047 15.4541L9.07294 15.8434C9.79648 16.0603 10.4135 16.5441 10.7949 17.1892L11.4847 18.3625C11.8661 19.0132 12.4831 19.4914 13.2067 19.7083L14.5191 20.0976C15.2427 20.3145 15.8596 20.7983 16.241 21.4434L16.9309 22.6168C17.3123 23.2674 17.9293 23.7457 18.6528 23.9625L19.9653 24.3518C20.6888 24.5687 21.3058 25.0525 21.6872 25.6976L21.9452 26.1369C22.5622 27.188 22.4725 28.5115 21.7097 29.468L19.9373 31.698C18.9165 32.9826 17.0319 33.205 15.7362 32.1929L-6.79447 14.5866C-8.09011 13.5745 -8.31447 11.7059 -7.29366 10.4213L-5.52126 8.19134C-4.75846 7.23483 -3.48525 6.83444 -2.3074 7.18478Z" fill="url(#paint22_linear_497_4133)"/>
<path d="M-2.11673 6.10602L-1.64559 6.31178C-0.950089 6.61764 -0.400423 7.17375 -0.103154 7.86332L0.429686 9.109C0.726954 9.79857 1.27662 10.3547 1.97212 10.6605L3.22289 11.2111C3.91838 11.5169 4.46805 12.073 4.76532 12.7626L5.29816 14.0083C5.59543 14.6979 6.14509 15.254 6.84059 15.5598L8.09136 16.1104C8.78685 16.4162 9.33652 16.9724 9.63379 17.6619L10.1666 18.9076C10.4639 19.5972 11.0136 20.1533 11.7091 20.4591L12.9598 21.0097C13.6553 21.3156 14.205 21.8717 14.5023 22.5612L15.0351 23.8069C15.3324 24.4965 15.882 25.0526 16.5775 25.3585L17.8283 25.909C18.5238 26.2149 19.0735 26.771 19.3707 27.4605L19.5727 27.9277C20.055 29.051 19.7914 30.3467 18.9164 31.2031L16.8748 33.194C15.6969 34.3451 13.8012 34.3285 12.6457 33.1606L-7.50122 12.8905C-8.66225 11.7227 -8.64542 9.84306 -7.46756 8.69748L-5.42594 6.70661C-4.55657 5.85021 -3.2385 5.61108 -2.11673 6.10602Z" fill="url(#paint23_linear_497_4133)"/>
<path d="M-5.75123 11.6223L-5.24083 11.6667C-4.48363 11.7335 -3.78253 12.0838 -3.27773 12.6455L-2.3691 13.6576C-1.86431 14.2193 -1.1632 14.5696 -0.40601 14.6364L0.956941 14.7587C1.71413 14.8254 2.41524 15.1758 2.92003 15.7375L3.82866 16.7496C4.33346 17.3112 5.03456 17.6616 5.79176 17.7283L7.15471 17.8507C7.9119 17.9174 8.613 18.2677 9.1178 18.8294L10.0208 19.836C10.5256 20.3976 11.2267 20.748 11.9839 20.8147L13.3469 20.9371C14.1041 21.0038 14.8052 21.3541 15.31 21.9158L16.2186 22.9279C16.7234 23.4896 17.4245 23.8399 18.1817 23.9067L19.5446 24.029C20.3018 24.0957 21.0029 24.4461 21.5077 25.0078L21.8499 25.3859C22.6688 26.2924 22.8426 27.6048 22.293 28.6948L21.0085 31.2306C20.2682 32.6932 18.4677 33.2826 16.9926 32.5486L-8.65661 19.7581C-10.1317 19.024 -10.7263 17.2389 -9.98591 15.7764L-8.70148 13.2405C-8.14621 12.1561 -6.97957 11.511 -5.75123 11.6223Z" fill="url(#paint24_linear_497_4133)"/>
<path d="M-3.69277 8.96945L-3.2048 9.11404C-2.48126 9.33092 -1.86428 9.81473 -1.48288 10.4598L-0.792997 11.6332C-0.411596 12.2839 0.205377 12.7621 0.928917 12.979L2.24138 13.3683C2.96492 13.5851 3.5819 14.069 3.9633 14.714L4.65318 15.8874C5.03459 16.5381 5.65156 17.0163 6.3751 17.2332L7.68757 17.6225C8.41111 17.8394 9.02808 18.3232 9.40948 18.9683L10.0994 20.1416C10.4808 20.7923 11.0977 21.2705 11.8213 21.4874L13.1337 21.8767C13.8573 22.0936 14.4743 22.5774 14.8557 23.2225L15.5456 24.3959C15.927 25.0465 16.5439 25.5248 17.2675 25.7416L18.5799 26.1309C19.3035 26.3478 19.9205 26.8316 20.3019 27.4767L20.5599 27.916C21.1768 28.9671 21.0871 30.2906 20.3243 31.2471L18.5519 33.4771C17.5311 34.7617 15.6465 34.9841 14.3509 33.972L-8.17423 16.3712C-9.46987 15.3591 -9.69423 13.4906 -8.67342 12.206L-6.90103 9.97601C-6.13822 9.0195 -4.86502 8.6191 -3.69277 8.96945Z" fill="url(#paint25_linear_497_4133)"/>
<path d="M-3.35069 9.13663L-2.87954 9.34238C-2.18405 9.64268 -1.62877 10.1932 -1.3315 10.8828L-0.787447 12.1285C-0.48457 12.8181 0.0650988 13.3686 0.760594 13.6689L2.01136 14.2139C2.70686 14.5142 3.26214 15.0647 3.5594 15.7543L4.10346 17C4.40634 17.6896 4.956 18.2401 5.6515 18.5404L6.90227 19.0854C7.59777 19.3857 8.15304 19.9362 8.45031 20.6258L8.99437 21.8715C9.29725 22.5611 9.84691 23.1116 10.5424 23.4119L11.7932 23.9569C12.4887 24.2572 13.044 24.8077 13.3412 25.4973L13.8853 26.743C14.1882 27.4326 14.7378 27.9831 15.4333 28.2834L16.6841 28.8284C17.3796 29.1287 17.9349 29.6792 18.2321 30.3688L18.434 30.8359C18.922 31.9537 18.6696 33.255 17.8002 34.1114L15.7698 36.1134C14.5976 37.2701 12.7074 37.2645 11.5408 36.1023L-8.70713 15.9434C-9.87377 14.7811 -9.86816 12.907 -8.69591 11.7503L-6.66551 9.74834C-5.79053 8.89194 -4.47806 8.64725 -3.35069 9.13663Z" fill="url(#paint26_linear_497_4133)"/>
<path d="M-5.07266 10.7551L-4.58469 10.8997C-3.86115 11.1166 -3.24418 11.6004 -2.86278 12.2455L-2.17289 13.4188C-1.79149 14.0695 -1.17451 14.5477 -0.450974 14.7646L0.861496 15.1539C1.58504 15.3708 2.20201 15.8546 2.58341 16.4997L3.2733 17.6731C3.6547 18.3237 4.27167 18.802 4.99521 19.0188L6.30768 19.4081C7.03122 19.625 7.64819 20.1088 8.02959 20.7539L8.71948 21.9273C9.10088 22.5779 9.71785 23.0562 10.4414 23.2731L11.7539 23.6623C12.4774 23.8792 13.0944 24.363 13.4758 25.0081L14.1657 26.1815C14.5471 26.8322 15.164 27.3104 15.8876 27.5273L17.2 27.9166C17.9236 28.1334 18.5406 28.6173 18.922 29.2623L19.18 29.7017C19.7969 30.7527 19.7072 32.0762 18.9444 33.0328L17.172 35.2627C16.1512 36.5474 14.2666 36.7698 12.971 35.7577L-9.55973 18.1569C-10.8554 17.1448 -11.0797 15.2762 -10.0589 13.9916L-8.28652 11.7616C-7.51811 10.8051 -6.2449 10.4047 -5.07266 10.7551Z" fill="url(#paint27_linear_497_4133)"/>
<path d="M-9.13904 5.71632L-8.67912 5.93876C-7.99484 6.26686 -7.46761 6.83965 -7.19277 7.54035L-6.69919 8.80827C-6.42436 9.50897 -5.89713 10.0818 -5.21285 10.4099L-3.98452 10.9993C-3.30024 11.3274 -2.77301 11.9002 -2.49818 12.6009L-2.0046 13.8689C-1.72977 14.5695 -1.20254 15.1423 -0.518257 15.4704L0.710079 16.0599C1.39436 16.388 1.92159 16.9608 2.19642 17.6615L2.69 18.9294C2.96483 19.6301 3.49206 20.2029 4.17634 20.531L5.40468 21.1205C6.08896 21.4486 6.61619 22.0214 6.89102 22.7221L7.3846 23.99C7.65943 24.6907 8.18666 25.2635 8.87094 25.5916L10.0993 26.1811C10.7836 26.5092 11.3108 27.082 11.5856 27.7827L11.7707 28.2553C12.2138 29.3898 11.9109 30.68 11.0023 31.503L8.89338 33.4271C7.67626 34.5338 5.78608 34.4559 4.66431 33.2547L-14.7535 12.3118C-15.8696 11.105 -15.7911 9.23091 -14.5796 8.1187L-12.4707 6.19457C-11.5621 5.37709 -10.244 5.18245 -9.13904 5.71632Z" fill="url(#paint28_linear_497_4133)"/>
<path d="M-6.45242 12.5455L-5.96445 12.6901C-5.24091 12.9069 -4.62394 13.3907 -4.24254 14.0358L-3.55265 15.2092C-3.17125 15.8599 -2.55427 16.3381 -1.83074 16.555L-0.518269 16.9443C0.205272 17.1612 0.822245 17.645 1.20365 18.2901L1.89353 19.4634C2.27493 20.1141 2.89191 20.5923 3.61545 20.8092L4.92792 21.1985C5.65145 21.4154 6.26843 21.8992 6.64983 22.5443L7.33972 23.7177C7.72112 24.3683 8.33809 24.8466 9.06163 25.0634L10.3741 25.4527C11.0976 25.6696 11.7146 26.1534 12.096 26.7985L12.7859 27.9719C13.1673 28.6225 13.7843 29.1008 14.5078 29.3177L15.8203 29.7069C16.5438 29.9238 17.1608 30.4076 17.5422 31.0527L17.8002 31.492C18.4172 32.5431 18.3274 33.8666 17.5646 34.8231L15.7922 37.0531C14.7714 38.3377 12.8869 38.5602 11.5912 37.548L-10.9395 19.9417C-12.2351 18.9296 -12.4595 17.0611 -11.4387 15.7764L-9.66628 13.5465C-8.90348 12.59 -7.63028 12.1951 -6.45242 12.5455Z" fill="url(#paint29_linear_497_4133)"/>
<path d="M-7.14222 13.7745L-6.64864 13.908C-5.91388 14.1026 -5.28569 14.5697 -4.88747 15.2037L-4.16393 16.3548C-3.7657 16.9944 -3.1319 17.4559 -2.40275 17.6506L-1.08467 18.0009C-0.349916 18.1956 0.278276 18.6627 0.676503 19.2967L1.40004 20.4478C1.79827 21.0873 2.43207 21.5489 3.16122 21.7435L4.47929 22.0939C5.21405 22.2885 5.84224 22.7556 6.24047 23.3896L6.96401 24.5407C7.36224 25.1803 7.99604 25.6418 8.72519 25.8365L10.0433 26.1868C10.778 26.3815 11.4062 26.8486 11.8044 27.4826L12.528 28.6337C12.9262 29.2732 13.56 29.7348 14.2892 29.9294L15.6072 30.2798C16.342 30.4744 16.9702 30.9415 17.3684 31.5755L17.6376 32.0093C18.2883 33.0436 18.2322 34.3672 17.4974 35.3459L15.7923 37.626C14.8052 38.9384 12.9318 39.2164 11.6081 38.2377L-11.433 21.2764C-12.7567 20.2976 -13.0371 18.4402 -12.05 17.1278L-10.3449 14.8478C-9.58767 13.8913 -8.32568 13.4575 -7.14222 13.7745Z" fill="url(#paint30_linear_497_4133)"/>
<path d="M-5.74006 13.0738L-5.26891 13.274C-4.57342 13.5688 -4.01254 14.1137 -3.70405 14.7978L-3.14877 16.0379C-2.84029 16.7274 -2.2794 17.2724 -1.58391 17.5616L-0.321919 18.0899C0.373576 18.3846 0.934462 18.9296 1.24295 19.6136L1.79822 20.8538C2.10671 21.5433 2.66759 22.0883 3.36309 22.3775L4.62508 22.9058C5.32058 23.2005 5.88146 23.7455 6.18995 24.4295L6.74522 25.6697C7.05371 26.3592 7.61459 26.9042 8.31009 27.1934L9.57208 27.7328C10.2676 28.0275 10.8285 28.5725 11.1369 29.2565L11.6922 30.4967C12.0007 31.1862 12.5616 31.7312 13.2571 32.0204L14.5191 32.5487C15.2146 32.8434 15.7755 33.3884 16.0839 34.0724L16.2915 34.534C16.7907 35.6462 16.5551 36.9475 15.6913 37.815L13.6834 39.8393C12.5279 41.0071 10.6321 41.0238 9.45429 39.8782L-11.0124 19.9473C-12.1902 18.8017 -12.2071 16.9221 -11.0516 15.7543L-9.04367 13.73C-8.1799 12.8569 -6.87304 12.6011 -5.74006 13.0738Z" fill="url(#paint31_linear_497_4133)"/>
<path d="M-7.72 14.3306L-7.23203 14.4752C-6.50849 14.6921 -5.89152 15.1759 -5.51011 15.821L-4.82022 16.9944C-4.43882 17.645 -3.82185 18.1233 -3.09831 18.3402L-1.78584 18.7294C-1.0623 18.9463 -0.44533 19.4301 -0.0639286 20.0752L0.625957 21.2486C1.00736 21.8992 1.62433 22.3775 2.34787 22.5944L3.66034 22.9836C4.38388 23.2005 5.00085 23.6843 5.38225 24.3294L6.07214 25.5028C6.45354 26.1535 7.07051 26.6317 7.79406 26.8486L9.10653 27.2379C9.83006 27.4548 10.447 27.9386 10.8284 28.5836L11.5183 29.757C11.8997 30.4077 12.5167 30.8859 13.2402 31.1028L14.5527 31.4921C15.2763 31.709 15.8932 32.1928 16.2746 32.8379L16.5326 33.2772C17.1496 34.3282 17.0599 35.6518 16.2971 36.6083L14.5247 38.8383C13.5039 40.1229 11.6193 40.3453 10.3236 39.3332L-12.2071 21.7268C-13.5027 20.7147 -13.7271 18.8462 -12.7063 17.5616L-10.9339 15.3316C-10.1711 14.3751 -8.89785 13.9803 -7.72 14.3306Z" fill="url(#paint32_linear_497_4133)"/>
<path d="M-10.2383 18.0566L-9.7335 18.1289C-8.98191 18.2401 -8.30324 18.6294 -7.8321 19.2133L-6.97956 20.2755C-6.50841 20.8649 -5.82975 21.2542 -5.07816 21.3599L-3.72082 21.5601C-2.96924 21.6713 -2.29057 22.0606 -1.81942 22.6445L-0.966882 23.7067C-0.495739 24.2961 0.182931 24.6854 0.934515 24.7911L2.28624 24.9913C3.03783 25.1025 3.7165 25.4918 4.18764 26.0757L5.04019 27.1378C5.51133 27.7273 6.19 28.1166 6.94158 28.2222L8.29331 28.4224C9.0449 28.5337 9.72357 28.9229 10.1947 29.5069L11.0473 30.569C11.5184 31.1585 12.1971 31.5478 12.9487 31.6534L14.3004 31.8536C15.052 31.9648 15.7306 32.3541 16.2018 32.938L16.5215 33.3329C17.2843 34.2838 17.3852 35.6074 16.7739 36.6584L15.3436 39.1164C14.5191 40.5345 12.6906 41.0238 11.2604 40.2064L-13.5924 26.0201C-15.0226 25.2026 -15.5162 23.3897 -14.6917 21.9716L-13.2615 19.5136C-12.6501 18.4514 -11.4498 17.8731 -10.2383 18.0566Z" fill="url(#paint33_linear_497_4133)"/>
<path d="M-9.21194 16.1158L-8.72397 16.2604C-8.00043 16.4772 -7.38346 16.9611 -7.00206 17.6061L-6.31217 18.7795C-5.93077 19.4302 -5.3138 19.9084 -4.59025 20.1253L-3.27779 20.5146C-2.55424 20.7315 -1.93727 21.2153 -1.55587 21.8604L-0.865984 23.0338C-0.484583 23.6844 0.132386 24.1627 0.855927 24.3795L2.1684 24.7688C2.89194 24.9857 3.50891 25.4695 3.89031 26.1146L4.5802 27.288C4.9616 27.9386 5.57857 28.4169 6.30211 28.6338L7.61458 29.023C8.33812 29.2399 8.95509 29.7237 9.33649 30.3688L10.0264 31.5422C10.4078 32.1928 11.0248 32.6711 11.7483 32.888L13.0608 33.2773C13.7843 33.4941 14.4013 33.9779 14.7827 34.623L15.0407 35.0624C15.6577 36.1134 15.5679 37.4369 14.8051 38.3934L13.0327 40.6234C12.0119 41.908 10.1273 42.1305 8.8317 41.1184L-13.699 23.512C-14.9947 22.4999 -15.219 20.6314 -14.1982 19.3468L-12.4258 17.1168C-11.663 16.1603 -10.3898 15.7654 -9.21194 16.1158Z" fill="url(#paint34_linear_497_4133)"/>
<path d="M-7.24876 15.1981L-6.79444 15.4317C-6.12138 15.782 -5.61098 16.3715 -5.35858 17.0778L-4.90426 18.3568C-4.65187 19.0686 -4.14146 19.6526 -3.4684 20.0029L-2.25689 20.6313C-1.58383 20.9816 -1.07343 21.5711 -0.821029 22.2774L-0.366714 23.5564C-0.114316 24.2682 0.396091 24.8522 1.06915 25.2025L2.28066 25.8309C2.95372 26.1813 3.46412 26.7707 3.71652 27.477L4.17084 28.756C4.42324 29.4678 4.93364 30.0518 5.6067 30.4021L6.81821 31.0305C7.49127 31.3809 8.00168 31.9703 8.25407 32.6766L8.70839 33.9556C8.96079 34.6674 9.47119 35.2514 10.1443 35.6017L11.3558 36.2301C12.0288 36.5805 12.5392 37.1699 12.7916 37.8762L12.9599 38.3544C13.3637 39.5056 13.0216 40.7846 12.0961 41.5799L9.93112 43.4373C8.68035 44.5106 6.79017 44.3715 5.71327 43.1314L-13.0595 21.6101C-14.142 20.3699 -14.0018 18.4958 -12.751 17.4281L-10.586 15.5707C-9.66617 14.7866 -8.33688 14.6309 -7.24876 15.1981Z" fill="url(#paint35_linear_497_4133)"/>
<path d="M-10.4795 17.9007L-9.99155 18.0453C-9.26801 18.2622 -8.65103 18.746 -8.26963 19.391L-7.57975 20.5644C-7.19835 21.2151 -6.58137 21.6933 -5.85783 21.9102L-4.54537 22.2995C-3.82183 22.5164 -3.20485 23.0002 -2.82345 23.6453L-2.13356 24.8187C-1.75216 25.4693 -1.13519 25.9476 -0.41165 26.1644L0.90082 26.5537C1.62436 26.7706 2.24133 27.2544 2.62273 27.8995L3.31262 29.0729C3.69402 29.7235 4.31099 30.2018 5.03453 30.4187L6.347 30.8079C7.07054 31.0248 7.68752 31.5086 8.06892 32.1537L8.7588 33.3271C9.1402 33.9777 9.75718 34.456 10.4807 34.6729L11.7932 35.0622C12.5167 35.279 13.1337 35.7628 13.5151 36.4079L13.7731 36.8473C14.3901 37.8983 14.3003 39.2218 13.5375 40.1783L11.7651 42.4083C10.7443 43.6929 8.85976 43.9154 7.56412 42.9033L-14.9666 25.2969C-16.2622 24.2848 -16.4866 22.4163 -15.4658 21.1317L-13.6934 18.9017C-12.9306 17.9507 -11.6574 17.5503 -10.4795 17.9007Z" fill="url(#paint36_linear_497_4133)"/>
<path d="M-8.28642 17.2892L-7.8321 17.5228C-7.15904 17.8731 -6.64864 18.4626 -6.39624 19.1689L-5.94754 20.4479C-5.69514 21.1597 -5.18473 21.7492 -4.51167 22.094L-3.30016 22.7224C-2.6271 23.0727 -2.1167 23.6622 -1.8643 24.3685L-1.41559 25.6475C-1.1632 26.3593 -0.652791 26.9488 0.0202694 27.2936L1.23178 27.922C1.90484 28.2723 2.41525 28.8618 2.66764 29.5681L3.11635 30.8471C3.36875 31.5589 3.87915 32.1484 4.55221 32.4932L5.76372 33.1216C6.43678 33.472 6.94719 34.0614 7.19958 34.7677L7.64829 36.0467C7.90069 36.7585 8.41109 37.348 9.08415 37.6928L10.2957 38.3212C10.9687 38.6716 11.4791 39.261 11.7315 39.9673L11.8998 40.4455C12.3036 41.5967 11.9615 42.8757 11.0304 43.671L8.8598 45.5228C7.60903 46.5905 5.71885 46.4515 4.64195 45.2114L-14.114 23.7067C-15.1909 22.4666 -15.0507 20.5925 -13.7999 19.5248L-11.6293 17.6674C-10.7038 16.8721 -9.37454 16.722 -8.28642 17.2892Z" fill="url(#paint37_linear_497_4133)"/>
<path d="M-11.9715 19.6858L-11.4835 19.8304C-10.76 20.0472 -10.143 20.531 -9.76158 21.1761L-9.07169 22.3495C-8.69029 23.0002 -8.07332 23.4784 -7.34978 23.6953L-6.03731 24.0846C-5.31377 24.3015 -4.69679 24.7853 -4.31539 25.4303L-3.62551 26.6037C-3.24411 27.2544 -2.62713 27.7326 -1.90359 27.9495L-0.591125 28.3388C0.132416 28.5557 0.749388 29.0395 1.13079 29.6846L1.82068 30.858C2.20208 31.5086 2.81905 31.9869 3.54259 32.2037L4.85506 32.593C5.5786 32.8099 6.19557 33.2937 6.57697 33.9388L7.26686 35.1122C7.64826 35.7628 8.26523 36.2411 8.98877 36.458L10.3012 36.8472C11.0248 37.0641 11.6418 37.5479 12.0232 38.193L12.2812 38.6323C12.8981 39.6834 12.8084 41.0069 12.0456 41.9634L10.2732 44.1934C9.25239 45.478 7.36782 45.7005 6.07218 44.6883L-16.4585 27.0876C-17.7542 26.0754 -17.9785 24.2069 -16.9577 22.9223L-15.1853 20.6923C-14.4225 19.7358 -13.1493 19.3354 -11.9715 19.6858Z" fill="url(#paint38_linear_497_4133)"/>
<path d="M-14.7478 23.1838L-14.2599 23.3284C-13.5363 23.5453 -12.9193 24.0291 -12.5379 24.6742L-11.8481 25.8476C-11.4667 26.4982 -10.8497 26.9765 -10.1261 27.1933L-8.81367 27.5826C-8.09013 27.7995 -7.47316 28.2833 -7.09176 28.9284L-6.40187 30.1018C-6.02047 30.7524 -5.4035 31.2307 -4.67996 31.4476L-3.36749 31.8368C-2.64395 32.0537 -2.02698 32.5375 -1.64558 33.1826L-0.95569 34.356C-0.574289 35.0066 0.0426826 35.4849 0.766224 35.7018L2.07869 36.0911C2.80223 36.3079 3.4192 36.7918 3.8006 37.4368L4.49049 38.6102C4.87189 39.2609 5.48886 39.7391 6.21241 39.956L7.52488 40.3453C8.24841 40.5622 8.86539 41.046 9.24679 41.6911L9.50479 42.1304C10.1218 43.1814 10.032 44.505 9.26922 45.4615L7.49683 47.6915C6.47602 48.9761 4.59145 49.1985 3.29581 48.1864L-19.2349 30.5856C-20.5305 29.5735 -20.7549 27.705 -19.7341 26.4204L-17.9617 24.1904C-17.1989 23.2339 -15.9257 22.8335 -14.7478 23.1838Z" fill="url(#paint39_linear_497_4133)"/>
<path d="M-16.1388 24.8967L-15.6509 25.0413C-14.9273 25.2582 -14.3103 25.742 -13.9289 26.3871L-13.239 27.5605C-12.8576 28.2111 -12.2407 28.6893 -11.5171 28.9062L-10.2047 29.2955C-9.48113 29.5124 -8.86416 29.9962 -8.48275 30.6413L-7.79286 31.8147C-7.41146 32.4653 -6.79449 32.9436 -6.07095 33.1605L-4.75848 33.5497C-4.03494 33.7666 -3.41797 34.2504 -3.03657 34.8955L-2.34668 36.0689C-1.96528 36.7195 -1.34831 37.1978 -0.624767 37.4147L0.687698 37.8039C1.41124 38.0208 2.02821 38.5046 2.40961 39.1497L3.0995 40.3231C3.4809 40.9738 4.09787 41.452 4.82141 41.6689L6.13388 42.0582C6.85742 42.275 7.4744 42.7589 7.8558 43.404L8.1138 43.8433C8.73077 44.8943 8.64103 46.2178 7.87823 47.1744L6.10584 49.4043C5.08503 50.689 3.20046 50.9114 1.90482 49.8993L-20.6259 32.2985C-21.9215 31.2864 -22.1459 29.4179 -21.1251 28.1332L-19.3527 25.9033C-18.5899 24.9467 -17.3167 24.5464 -16.1388 24.8967Z" fill="url(#paint40_linear_497_4133)"/>
<path d="M-17.5298 26.6096L-17.0418 26.7542C-16.3183 26.9711 -15.7013 27.4549 -15.3199 28.1L-14.63 29.2733C-14.2486 29.924 -13.6317 30.4022 -12.9081 30.6191L-11.5957 31.0084C-10.8721 31.2253 -10.2551 31.7091 -9.87374 32.3542L-9.18386 33.5276C-8.80246 34.1782 -8.18548 34.6565 -7.46194 34.8733L-6.14947 35.2626C-5.42593 35.4795 -4.80896 35.9633 -4.42756 36.6084L-3.73767 37.7818C-3.35627 38.4324 -2.7393 38.9107 -2.01576 39.1276L-0.703291 39.5168C0.0202503 39.7337 0.637222 40.2175 1.01862 40.8626L1.70851 42.036C2.08991 42.6867 2.70688 43.1649 3.43043 43.3818L4.7429 43.7711C5.46643 43.9879 6.0834 44.4718 6.46481 45.1168L6.72281 45.5562C7.33979 46.6072 7.25005 47.9307 6.48724 48.8873L4.71485 51.1172C3.69404 52.4018 1.80947 52.6243 0.513828 51.6122L-22.0169 34.0114C-23.3125 32.9993 -23.5369 31.1307 -22.5161 29.8461L-20.7437 27.6161C-19.9809 26.6596 -18.7077 26.2592 -17.5298 26.6096Z" fill="url(#paint41_linear_497_4133)"/>
<path d="M-18.9264 28.3221L-18.4384 28.4667C-17.7149 28.6835 -17.0979 29.1674 -16.7165 29.8124L-16.0266 30.9858C-15.6452 31.6365 -15.0283 32.1147 -14.3047 32.3316L-12.9923 32.7209C-12.2687 32.9378 -11.6517 33.4216 -11.2703 34.0667L-10.5805 35.24C-10.1991 35.8907 -9.58209 36.3689 -8.85855 36.5858L-7.54608 36.9751C-6.82254 37.192 -6.20557 37.6758 -5.82417 38.3209L-5.13428 39.4943C-4.75288 40.1449 -4.13591 40.6232 -3.41236 40.84L-2.0999 41.2293C-1.37636 41.4462 -0.759386 41.93 -0.377985 42.5751L0.311905 43.7485C0.693306 44.3991 1.31028 44.8774 2.03382 45.0943L3.34629 45.4835C4.06983 45.7004 4.6868 46.1842 5.0682 46.8293L5.3262 47.2686C5.94318 48.3197 5.85344 49.6432 5.09063 50.5997L3.31824 52.8297C2.29743 54.1143 0.412863 54.3368 -0.88278 53.3246L-23.4135 35.7183C-24.7091 34.7062 -24.9335 32.8377 -23.9127 31.5531L-22.1403 29.3231C-21.3719 28.3721 -20.1043 27.9717 -18.9264 28.3221Z" fill="url(#paint42_linear_497_4133)"/>
<path d="M-20.3174 30.035L-19.8294 30.1795C-19.1059 30.3964 -18.4889 30.8802 -18.1075 31.5253L-17.4176 32.6987C-17.0362 33.3494 -16.4193 33.8276 -15.6957 34.0445L-14.3833 34.4338C-13.6597 34.6506 -13.0427 35.1345 -12.6613 35.7795L-11.9715 36.9529C-11.5901 37.6036 -10.9731 38.0818 -10.2495 38.2987L-8.93707 38.688C-8.21353 38.9049 -7.59656 39.3887 -7.21516 40.0338L-6.52527 41.2072C-6.14387 41.8578 -5.5269 42.3361 -4.80336 42.5529L-3.49089 42.9422C-2.76735 43.1591 -2.15038 43.6429 -1.76898 44.288L-1.07909 45.4614C-0.697687 46.112 -0.0807152 46.5903 0.642826 46.8072L1.9553 47.1964C2.67883 47.4133 3.29581 47.8971 3.67721 48.5422L3.93521 48.9815C4.55219 50.0326 4.46244 51.3561 3.69964 52.3126L1.92725 54.5426C0.906443 55.8272 -0.978128 56.0497 -2.27377 55.0375L-24.8045 37.4312C-26.1001 36.4191 -26.3245 34.5505 -25.3037 33.2659L-23.5313 31.036C-22.7685 30.085 -21.4953 29.6846 -20.3174 30.035Z" fill="url(#paint43_linear_497_4133)"/>
<path d="M-21.7084 31.7481L-21.2204 31.8927C-20.4969 32.1096 -19.8799 32.5934 -19.4985 33.2385L-18.8086 34.4119C-18.4272 35.0625 -17.8103 35.5408 -17.0867 35.7576L-15.7742 36.1469C-15.0507 36.3638 -14.4337 36.8476 -14.0523 37.4927L-13.3624 38.6661C-12.981 39.3167 -12.3641 39.795 -11.6405 40.0119L-10.3281 40.4011C-9.60452 40.618 -8.98755 41.1018 -8.60615 41.7469L-7.91626 42.9203C-7.53486 43.5709 -6.91789 44.0492 -6.19435 44.2661L-4.88188 44.6554C-4.15834 44.8722 -3.54137 45.356 -3.15997 46.0011L-2.47008 47.1745C-2.08868 47.8252 -1.4717 48.3034 -0.748163 48.5203L0.564306 48.9096C1.28785 49.1265 1.90482 49.6103 2.28622 50.2554L2.54423 50.6947C3.1612 51.7457 3.07146 53.0693 2.30865 54.0258L0.536263 56.2558C-0.484547 57.5404 -2.36912 57.7628 -3.66476 56.7507L-26.1955 39.1443C-27.4911 38.1322 -27.7155 36.2637 -26.6947 34.9791L-24.9223 32.7491C-24.1595 31.7926 -22.8863 31.3978 -21.7084 31.7481Z" fill="url(#paint44_linear_497_4133)"/>
<path d="M-23.105 33.4605L-22.617 33.6051C-21.8935 33.822 -21.2765 34.3058 -20.8951 34.9509L-20.2052 36.1243C-19.8238 36.7749 -19.2069 37.2532 -18.4833 37.47L-17.1709 37.8593C-16.4473 38.0762 -15.8303 38.56 -15.4489 39.2051L-14.7591 40.3785C-14.3777 41.0291 -13.7607 41.5074 -13.0371 41.7243L-11.7247 42.1135C-11.0011 42.3304 -10.3842 42.8142 -10.0028 43.4593L-9.31287 44.6327C-8.93147 45.2833 -8.3145 45.7616 -7.59095 45.9785L-6.27848 46.3678C-5.55494 46.5846 -4.93797 47.0685 -4.55657 47.7135L-3.86668 48.8869C-3.48528 49.5376 -2.86831 50.0158 -2.14477 50.2327L-0.832302 50.622C-0.108763 50.8389 0.508209 51.3227 0.88961 51.9678L1.14762 52.4071C1.76459 53.4581 1.67485 54.7817 0.912045 55.7382L-0.860346 57.9681C-1.88116 59.2528 -3.76573 59.4752 -5.06137 58.4631L-27.5921 40.8567C-28.8877 39.8446 -29.1121 37.9761 -28.0913 36.6915L-26.3189 34.4615C-25.5505 33.505 -24.2773 33.1102 -23.105 33.4605Z" fill="url(#paint45_linear_497_4133)"/>
</g>
<defs>
<linearGradient id="paint0_linear_497_4133" x1="0.532681" y1="16.9978" x2="29.1089" y2="16.9978" gradientUnits="userSpaceOnUse">
<stop stop-color="#3105B5"/>
<stop offset="0.173" stop-color="#3406B4"/>
<stop offset="0.3169" stop-color="#3F08B1"/>
<stop offset="0.4502" stop-color="#500BAD"/>
<stop offset="0.5772" stop-color="#6810A6"/>
<stop offset="0.6998" stop-color="#88169E"/>
<stop offset="0.8191" stop-color="#AE1D94"/>
<stop offset="0.9335" stop-color="#DB2688"/>
<stop offset="1" stop-color="#F92C80"/>
</linearGradient>
<linearGradient id="paint1_linear_497_4133" x1="20.7763" y1="2.70339" x2="26.2654" y2="-4.41233" gradientUnits="userSpaceOnUse">
<stop stop-color="#C40561"/>
<stop offset="0.222" stop-color="#C50861"/>
<stop offset="0.4003" stop-color="#CA1261"/>
<stop offset="0.5634" stop-color="#D12362"/>
<stop offset="0.7174" stop-color="#DC3B63"/>
<stop offset="0.8637" stop-color="#E95964"/>
<stop offset="1" stop-color="#F97D65"/>
</linearGradient>
<linearGradient id="paint2_linear_497_4133" x1="19.4382" y1="4.36174" x2="24.9346" y2="-2.74779" gradientUnits="userSpaceOnUse">
<stop stop-color="#313EC0"/>
<stop offset="0.2133" stop-color="#3343C4"/>
<stop offset="0.4627" stop-color="#3751D0"/>
<stop offset="0.73" stop-color="#3F69E4"/>
<stop offset="1" stop-color="#4A88FF"/>
</linearGradient>
<linearGradient id="paint3_linear_497_4133" x1="18.0983" y1="6.02804" x2="23.6028" y2="-1.07532" gradientUnits="userSpaceOnUse">
<stop stop-color="#34B5FF"/>
<stop offset="0.3038" stop-color="#3383EA"/>
<stop offset="0.9952" stop-color="#3106B5"/>
<stop offset="1" stop-color="#3105B5"/>
</linearGradient>
<linearGradient id="paint4_linear_497_4133" x1="20.7549" y1="14.6217" x2="25.814" y2="-4.42392" gradientUnits="userSpaceOnUse">
<stop stop-color="#34B5FF"/>
<stop offset="0.1887" stop-color="#3392F0"/>
<stop offset="0.749" stop-color="#322DC6"/>
<stop offset="1" stop-color="#3105B5"/>
</linearGradient>
<linearGradient id="paint5_linear_497_4133" x1="15.2928" y1="14.6511" x2="20.9411" y2="-2.88078" gradientUnits="userSpaceOnUse">
<stop offset="0.22" stop-color="#2449EC"/>
<stop offset="0.3392" stop-color="#254FED"/>
<stop offset="0.4984" stop-color="#2960F0"/>
<stop offset="0.6801" stop-color="#307CF4"/>
<stop offset="0.8772" stop-color="#39A2FA"/>
<stop offset="1" stop-color="#3FBEFF"/>
</linearGradient>
<linearGradient id="paint6_linear_497_4133" x1="1.46558" y1="-10.844" x2="23.6247" y2="15.7909" gradientUnits="userSpaceOnUse">
<stop stop-color="#3105B5"/>
<stop offset="0.1574" stop-color="#3506B4"/>
<stop offset="0.3" stop-color="#4008B1"/>
<stop offset="0.437" stop-color="#520BAC"/>
<stop offset="0.5706" stop-color="#6C11A5"/>
<stop offset="0.7016" stop-color="#8E179C"/>
<stop offset="0.8308" stop-color="#B71F92"/>
<stop offset="0.956" stop-color="#E62885"/>
<stop offset="1" stop-color="#F92C80"/>
</linearGradient>
<linearGradient id="paint7_linear_497_4133" x1="14.3636" y1="15.0756" x2="19.8734" y2="0.821529" gradientUnits="userSpaceOnUse">
<stop stop-color="#D80832"/>
<stop offset="0.1643" stop-color="#D80A36"/>
<stop offset="0.3328" stop-color="#D91042"/>
<stop offset="0.5033" stop-color="#DB1957"/>
<stop offset="0.6752" stop-color="#DD2774"/>
<stop offset="0.8465" stop-color="#DF3898"/>
<stop offset="1" stop-color="#E24AC0"/>
</linearGradient>
<linearGradient id="paint8_linear_497_4133" x1="6.19333" y1="10.9983" x2="25.1703" y2="4.0324" gradientUnits="userSpaceOnUse">
<stop offset="0.25" stop-color="#2449EC"/>
<stop offset="0.7219" stop-color="#3591F8"/>
<stop offset="1" stop-color="#3FBEFF"/>
</linearGradient>
<linearGradient id="paint9_linear_497_4133" x1="12.2626" y1="14.793" x2="18.7072" y2="3.53453" gradientUnits="userSpaceOnUse">
<stop stop-color="#D80832"/>
<stop offset="0.241" stop-color="#D90B35"/>
<stop offset="0.4413" stop-color="#DE163F"/>
<stop offset="0.627" stop-color="#E52750"/>
<stop offset="0.8039" stop-color="#EF3F67"/>
<stop offset="0.9731" stop-color="#FD5E86"/>
<stop offset="1" stop-color="#FF648B"/>
</linearGradient>
<linearGradient id="paint10_linear_497_4133" x1="-0.30353" y1="9.44885" x2="19.5396" y2="2.16355" gradientUnits="userSpaceOnUse">
<stop stop-color="#2449EC"/>
<stop offset="0.3043" stop-color="#2D70F2"/>
<stop offset="0.7732" stop-color="#3AA8FB"/>
<stop offset="1" stop-color="#3FBEFF"/>
</linearGradient>
<linearGradient id="paint11_linear_497_4133" x1="12.5188" y1="21.8101" x2="16.2918" y2="0.227483" gradientUnits="userSpaceOnUse">
<stop stop-color="#D80832"/>
<stop offset="0.1723" stop-color="#DA0D35"/>
<stop offset="0.3769" stop-color="#DF1B3F"/>
<stop offset="0.5979" stop-color="#E8334F"/>
<stop offset="0.8288" stop-color="#F45465"/>
<stop offset="1" stop-color="#FF7279"/>
</linearGradient>
<linearGradient id="paint12_linear_497_4133" x1="-2.26064" y1="10.1743" x2="19.2531" y2="4.35902" gradientUnits="userSpaceOnUse">
<stop stop-color="#3105B5"/>
<stop offset="0.1045" stop-color="#3806B3"/>
<stop offset="0.2544" stop-color="#4B0AAE"/>
<stop offset="0.4319" stop-color="#6A10A6"/>
<stop offset="0.6305" stop-color="#95199A"/>
<stop offset="0.8439" stop-color="#CC238C"/>
<stop offset="1" stop-color="#F92C80"/>
</linearGradient>
<linearGradient id="paint13_linear_497_4133" x1="10.1544" y1="22.3612" x2="15.235" y2="3.23684" gradientUnits="userSpaceOnUse">
<stop stop-color="#D80832"/>
<stop offset="0.1787" stop-color="#DA0D34"/>
<stop offset="0.3994" stop-color="#E01C3A"/>
<stop offset="0.6422" stop-color="#EA3644"/>
<stop offset="0.8992" stop-color="#F95853"/>
<stop offset="1" stop-color="#FF6859"/>
</linearGradient>
<linearGradient id="paint14_linear_497_4133" x1="-2.95161" y1="11.8808" x2="26.9402" y2="14.5194" gradientUnits="userSpaceOnUse">
<stop stop-color="#3105B5"/>
<stop offset="0.0627935" stop-color="#4008B1"/>
<stop offset="0.4028" stop-color="#8F179C"/>
<stop offset="0.6831" stop-color="#C8228D"/>
<stop offset="0.8896" stop-color="#EC2984"/>
<stop offset="1" stop-color="#F92C80"/>
</linearGradient>
<linearGradient id="paint15_linear_497_4133" x1="8.48006" y1="23.3684" x2="14.1448" y2="5.78402" gradientUnits="userSpaceOnUse">
<stop stop-color="#D80832"/>
<stop offset="0.1707" stop-color="#DB0F35"/>
<stop offset="0.4128" stop-color="#E2213C"/>
<stop offset="0.6977" stop-color="#EF4049"/>
<stop offset="1" stop-color="#FF6859"/>
</linearGradient>
<linearGradient id="paint16_linear_497_4133" x1="-5.50676" y1="7.48061" x2="25.1339" y2="21.8901" gradientUnits="userSpaceOnUse">
<stop stop-color="#3105B5"/>
<stop offset="0.0380933" stop-color="#3D07B2"/>
<stop offset="0.2267" stop-color="#7612A3"/>
<stop offset="0.4096" stop-color="#A51C96"/>
<stop offset="0.5827" stop-color="#C9238D"/>
<stop offset="0.7435" stop-color="#E42886"/>
<stop offset="0.8874" stop-color="#F32B81"/>
<stop offset="1" stop-color="#F92C80"/>
</linearGradient>
<linearGradient id="paint17_linear_497_4133" x1="-3.28187" y1="5.24084" x2="23.1542" y2="27.6135" gradientUnits="userSpaceOnUse">
<stop stop-color="#D80832"/>
<stop offset="0.1809" stop-color="#E5273F"/>
<stop offset="0.3864" stop-color="#F0444A"/>
<stop offset="0.5924" stop-color="#F85852"/>
<stop offset="0.7973" stop-color="#FD6457"/>
<stop offset="1" stop-color="#FF6859"/>
</linearGradient>
<linearGradient id="paint18_linear_497_4133" x1="12.829" y1="26.1926" x2="17.5819" y2="15.9118" gradientUnits="userSpaceOnUse">
<stop stop-color="#3105B5"/>
<stop offset="0.1026" stop-color="#3806B3"/>
<stop offset="0.2568" stop-color="#4D0AAE"/>
<stop offset="0.4436" stop-color="#6F11A5"/>
<stop offset="0.6558" stop-color="#9E1A98"/>
<stop offset="0.8864" stop-color="#D92688"/>
<stop offset="1" stop-color="#F92C80"/>
</linearGradient>
<linearGradient id="paint19_linear_497_4133" x1="5.59058" y1="22.4203" x2="11.6195" y2="13.7359" gradientUnits="userSpaceOnUse">
<stop stop-color="#3105B5"/>
<stop offset="0.155" stop-color="#3228C4"/>
<stop offset="0.4465" stop-color="#3364DD"/>
<stop offset="0.6948" stop-color="#3390EF"/>
<stop offset="0.8871" stop-color="#34ABFB"/>
<stop offset="1" stop-color="#34B5FF"/>
</linearGradient>
<linearGradient id="paint20_linear_497_4133" x1="-2.5638" y1="21.7901" x2="17.4663" y2="14.4371" gradientUnits="userSpaceOnUse">
<stop stop-color="#D80832"/>
<stop offset="0.271" stop-color="#E11D46"/>
<stop offset="0.8272" stop-color="#F7527A"/>
<stop offset="1" stop-color="#FF648B"/>
</linearGradient>
<linearGradient id="paint21_linear_497_4133" x1="5.74708" y1="25.4371" x2="9.7574" y2="14.3245" gradientUnits="userSpaceOnUse">
<stop stop-color="#3105B5"/>
<stop offset="0.1066" stop-color="#3706B3"/>
<stop offset="0.254" stop-color="#490AAF"/>
<stop offset="0.4252" stop-color="#670FA7"/>
<stop offset="0.6144" stop-color="#8F179C"/>
<stop offset="0.8157" stop-color="#C3218E"/>
<stop offset="1" stop-color="#F92C80"/>
</linearGradient>
<linearGradient id="paint22_linear_497_4133" x1="3.96894" y1="26.8512" x2="10.3969" y2="12.9478" gradientUnits="userSpaceOnUse">
<stop stop-color="#3105B5"/>
<stop offset="0.155" stop-color="#3228C4"/>
<stop offset="0.4465" stop-color="#3364DD"/>
<stop offset="0.6948" stop-color="#3390EF"/>
<stop offset="0.8871" stop-color="#34ABFB"/>
<stop offset="1" stop-color="#34B5FF"/>
</linearGradient>
<linearGradient id="paint23_linear_497_4133" x1="-5.94485" y1="22.4029" x2="17.353" y2="17.4082" gradientUnits="userSpaceOnUse">
<stop stop-color="#D80832"/>
<stop offset="0.1321" stop-color="#D80B39"/>
<stop offset="0.3182" stop-color="#DA144B"/>
<stop offset="0.5363" stop-color="#DC2269"/>
<stop offset="0.7765" stop-color="#DF3593"/>
<stop offset="1" stop-color="#E24AC0"/>
</linearGradient>
<linearGradient id="paint24_linear_497_4133" x1="4.25661" y1="29.2308" x2="8.00039" y2="15.1405" gradientUnits="userSpaceOnUse">
<stop stop-color="#3105B5"/>
<stop offset="0.1509" stop-color="#3506B4"/>
<stop offset="0.2932" stop-color="#4008B1"/>
<stop offset="0.432" stop-color="#530CAC"/>
<stop offset="0.5686" stop-color="#6E11A5"/>
<stop offset="0.7038" stop-color="#90189C"/>
<stop offset="0.8378" stop-color="#BB2090"/>
<stop offset="0.9685" stop-color="#EC2983"/>
<stop offset="1" stop-color="#F92C80"/>
</linearGradient>
<linearGradient id="paint25_linear_497_4133" x1="2.58825" y1="28.6367" x2="9.0162" y2="14.7332" gradientUnits="userSpaceOnUse">
<stop stop-color="#3105B5"/>
<stop offset="0.0728146" stop-color="#311DBF"/>
<stop offset="0.2326" stop-color="#324BD2"/>
<stop offset="0.3928" stop-color="#3371E2"/>
<stop offset="0.551" stop-color="#338FEF"/>
<stop offset="0.7062" stop-color="#34A4F8"/>
<stop offset="0.8575" stop-color="#34B1FD"/>
<stop offset="1" stop-color="#34B5FF"/>
</linearGradient>
<linearGradient id="paint26_linear_497_4133" x1="-4.0302" y1="8.13075" x2="12.9747" y2="37.8411" gradientUnits="userSpaceOnUse">
<stop stop-color="#3105B5"/>
<stop offset="0.1422" stop-color="#650FA7"/>
<stop offset="0.2868" stop-color="#92189B"/>
<stop offset="0.4328" stop-color="#B71F92"/>
<stop offset="0.5777" stop-color="#D4258A"/>
<stop offset="0.7212" stop-color="#E82984"/>
<stop offset="0.8627" stop-color="#F52B81"/>
<stop offset="1" stop-color="#F92C80"/>
</linearGradient>
<linearGradient id="paint27_linear_497_4133" x1="1.20744" y1="30.4231" x2="7.63539" y2="16.5196" gradientUnits="userSpaceOnUse">
<stop stop-color="#3105B5"/>
<stop offset="0.0705151" stop-color="#3115BC"/>
<stop offset="0.3998" stop-color="#3259D8"/>
<stop offset="0.6754" stop-color="#338BED"/>
<stop offset="0.8835" stop-color="#34A9FA"/>
<stop offset="1" stop-color="#34B5FF"/>
</linearGradient>
<linearGradient id="paint28_linear_497_4133" x1="-10.3983" y1="4.93392" x2="6.68821" y2="34.7809" gradientUnits="userSpaceOnUse">
<stop stop-color="#3105B5"/>
<stop offset="0.1294" stop-color="#3506B4"/>
<stop offset="0.2709" stop-color="#4308B0"/>
<stop offset="0.4181" stop-color="#580DAB"/>
<stop offset="0.5693" stop-color="#7713A2"/>
<stop offset="0.7235" stop-color="#9F1A98"/>
<stop offset="0.878" stop-color="#CE248B"/>
<stop offset="1" stop-color="#F92C80"/>
</linearGradient>
<linearGradient id="paint29_linear_497_4133" x1="-7.97891" y1="29.2989" x2="14.0764" y2="21.2022" gradientUnits="userSpaceOnUse">
<stop stop-color="#3105B5"/>
<stop offset="0.0515839" stop-color="#310FB9"/>
<stop offset="0.5163" stop-color="#3368DF"/>
<stop offset="0.8428" stop-color="#349FF6"/>
<stop offset="1" stop-color="#34B5FF"/>
</linearGradient>
<linearGradient id="paint30_linear_497_4133" x1="-0.32548" y1="32.8051" x2="5.77776" y2="19.6039" gradientUnits="userSpaceOnUse">
<stop stop-color="#D80832"/>
<stop offset="0.1505" stop-color="#D80A37"/>
<stop offset="0.3217" stop-color="#D91144"/>
<stop offset="0.5031" stop-color="#DB1B5B"/>
<stop offset="0.6916" stop-color="#DD2A7B"/>
<stop offset="0.8836" stop-color="#E03DA4"/>
<stop offset="1" stop-color="#E24AC0"/>
</linearGradient>
<linearGradient id="paint31_linear_497_4133" x1="-7.50779" y1="30.3399" x2="12.1116" y2="23.1376" gradientUnits="userSpaceOnUse">
<stop stop-color="#3105B5"/>
<stop offset="0.2305" stop-color="#3229C4"/>
<stop offset="0.7397" stop-color="#3384EA"/>
<stop offset="1" stop-color="#34B5FF"/>
</linearGradient>
<linearGradient id="paint32_linear_497_4133" x1="-9.7559" y1="30.8207" x2="13.323" y2="23.2573" gradientUnits="userSpaceOnUse">
<stop stop-color="#3105B5"/>
<stop offset="0.173" stop-color="#3406B4"/>
<stop offset="0.3169" stop-color="#3F08B1"/>
<stop offset="0.4502" stop-color="#500BAD"/>
<stop offset="0.5772" stop-color="#6810A6"/>
<stop offset="0.6998" stop-color="#88169E"/>
<stop offset="0.8191" stop-color="#AE1D94"/>
<stop offset="0.9335" stop-color="#DB2688"/>
<stop offset="1" stop-color="#F92C80"/>
</linearGradient>
<linearGradient id="paint33_linear_497_4133" x1="-1.25586" y1="33.6122" x2="3.36972" y2="24.8377" gradientUnits="userSpaceOnUse">
<stop stop-color="#3105B5"/>
<stop offset="0.231" stop-color="#3406B4"/>
<stop offset="0.3779" stop-color="#3C07B2"/>
<stop offset="0.5014" stop-color="#4B0AAE"/>
<stop offset="0.612" stop-color="#600EA9"/>
<stop offset="0.7138" stop-color="#7B13A1"/>
<stop offset="0.8094" stop-color="#9C1A99"/>
<stop offset="0.9" stop-color="#C3228E"/>
<stop offset="0.9845" stop-color="#F02A82"/>
<stop offset="1" stop-color="#F92C80"/>
</linearGradient>
<linearGradient id="paint34_linear_497_4133" x1="-2.69365" y1="33.1355" x2="3.33531" y2="24.4512" gradientUnits="userSpaceOnUse">
<stop stop-color="#3105B5"/>
<stop offset="0.1529" stop-color="#3109B7"/>
<stop offset="0.3039" stop-color="#3115BC"/>
<stop offset="0.4542" stop-color="#3229C4"/>
<stop offset="0.6042" stop-color="#3245D0"/>
<stop offset="0.754" stop-color="#3368DF"/>
<stop offset="0.9015" stop-color="#3394F1"/>
<stop offset="1" stop-color="#34B5FF"/>
</linearGradient>
<linearGradient id="paint35_linear_497_4133" x1="-8.97005" y1="14.5901" x2="8.16122" y2="44.5177" gradientUnits="userSpaceOnUse">
<stop stop-color="#3105B5"/>
<stop offset="0.1414" stop-color="#3506B4"/>
<stop offset="0.2831" stop-color="#4108B1"/>
<stop offset="0.425" stop-color="#550CAB"/>
<stop offset="0.5671" stop-color="#7112A4"/>
<stop offset="0.7095" stop-color="#96199A"/>
<stop offset="0.852" stop-color="#C2218F"/>
<stop offset="0.9923" stop-color="#F62B81"/>
<stop offset="1" stop-color="#F92C80"/>
</linearGradient>
<linearGradient id="paint36_linear_497_4133" x1="-4.20312" y1="37.5662" x2="2.22484" y2="23.6628" gradientUnits="userSpaceOnUse">
<stop offset="0.0963742" stop-color="#3105B5"/>
<stop offset="0.2339" stop-color="#3109B7"/>
<stop offset="0.3704" stop-color="#3115BC"/>
<stop offset="0.5065" stop-color="#3229C4"/>
<stop offset="0.6424" stop-color="#3245D0"/>
<stop offset="0.7783" stop-color="#3369DF"/>
<stop offset="0.9122" stop-color="#3394F1"/>
<stop offset="1" stop-color="#34B5FF"/>
</linearGradient>
<linearGradient id="paint37_linear_497_4133" x1="-10.0286" y1="16.6948" x2="7.10589" y2="46.6264" gradientUnits="userSpaceOnUse">
<stop stop-color="#3105B5"/>
<stop offset="0.2214" stop-color="#3108B6"/>
<stop offset="0.3745" stop-color="#3111BA"/>
<stop offset="0.507" stop-color="#3120C0"/>
<stop offset="0.6278" stop-color="#3236CA"/>
<stop offset="0.7407" stop-color="#3252D5"/>
<stop offset="0.8476" stop-color="#3375E4"/>
<stop offset="0.948" stop-color="#349DF5"/>
<stop offset="1" stop-color="#34B5FF"/>
</linearGradient>
<linearGradient id="paint38_linear_497_4133" x1="-5.7174" y1="38.5437" x2="0.773205" y2="26.2316" gradientUnits="userSpaceOnUse">
<stop stop-color="#3105B5"/>
<stop offset="0.2824" stop-color="#3107B6"/>
<stop offset="0.4354" stop-color="#310FB9"/>
<stop offset="0.5575" stop-color="#311DBF"/>
<stop offset="0.6632" stop-color="#3230C7"/>
<stop offset="0.7583" stop-color="#3249D2"/>
<stop offset="0.8458" stop-color="#3368DF"/>
<stop offset="0.9259" stop-color="#338CEE"/>
<stop offset="1" stop-color="#34B5FF"/>
</linearGradient>
<linearGradient id="paint39_linear_497_4133" x1="-7.96399" y1="39.397" x2="-2.4287" y2="32.3166" gradientUnits="userSpaceOnUse">
<stop stop-color="#2F3CCA"/>
<stop offset="0.4479" stop-color="#445AD6"/>
<stop offset="1" stop-color="#6285E6"/>
</linearGradient>
<linearGradient id="paint40_linear_497_4133" x1="-9.35673" y1="41.1097" x2="-3.82144" y2="34.0293" gradientUnits="userSpaceOnUse">
<stop stop-color="#3639C5"/>
<stop offset="0.3372" stop-color="#454ECD"/>
<stop offset="1" stop-color="#6B82E0"/>
</linearGradient>
<linearGradient id="paint41_linear_497_4133" x1="-10.7495" y1="42.8224" x2="-5.21418" y2="35.742" gradientUnits="userSpaceOnUse">
<stop stop-color="#3D35C0"/>
<stop offset="0.2776" stop-color="#4945C5"/>
<stop offset="0.8198" stop-color="#686FD4"/>
<stop offset="1" stop-color="#747FD9"/>
</linearGradient>
<linearGradient id="paint42_linear_497_4133" x1="-12.1422" y1="44.5347" x2="-6.60694" y2="37.4543" gradientUnits="userSpaceOnUse">
<stop stop-color="#4432BB"/>
<stop offset="0.2455" stop-color="#4E3FBF"/>
<stop offset="0.6998" stop-color="#6962CA"/>
<stop offset="1" stop-color="#7D7CD2"/>
</linearGradient>
<linearGradient id="paint43_linear_497_4133" x1="-13.535" y1="46.2474" x2="-7.99968" y2="39.167" gradientUnits="userSpaceOnUse">
<stop stop-color="#4B2FB6"/>
<stop offset="0.226" stop-color="#543AB9"/>
<stop offset="0.6218" stop-color="#6B57C1"/>
<stop offset="1" stop-color="#8579CB"/>
</linearGradient>
<linearGradient id="paint44_linear_497_4133" x1="-14.9277" y1="47.9604" x2="-9.39242" y2="40.88" gradientUnits="userSpaceOnUse">
<stop stop-color="#522CB1"/>
<stop offset="0.214" stop-color="#5A35B4"/>
<stop offset="0.5701" stop-color="#6E4FBA"/>
<stop offset="1" stop-color="#8E76C5"/>
</linearGradient>
<linearGradient id="paint45_linear_497_4133" x1="-16.3205" y1="49.6726" x2="-10.7852" y2="42.5922" gradientUnits="userSpaceOnUse">
<stop stop-color="#5928AC"/>
<stop offset="0.205" stop-color="#6030AE"/>
<stop offset="0.5277" stop-color="#7247B3"/>
<stop offset="0.9258" stop-color="#916BBC"/>
<stop offset="1" stop-color="#9773BE"/>
</linearGradient>
</defs>
</svg>
