<svg width="22" height="34" viewBox="0 0 22 34" fill="none" xmlns="http://www.w3.org/2000/svg">
<path d="M11 0C17.0751 0 22 4.92487 22 11V33C22 33.5523 21.5523 34 21 34H19C18.4477 34 18 33.5523 18 33V32H4V33C4 33.5523 3.55228 34 3 34H1C0.447715 34 0 33.5523 0 33V11C0 4.92487 4.92487 1.28852e-07 11 0ZM5.5 20C5.22401 20 4.99783 20.2241 5.02051 20.499C5.1381 21.9074 5.75092 23.2353 6.75781 24.2422C7.88303 25.3674 9.4087 26 11 26C12.5913 26 14.117 25.3674 15.2422 24.2422C16.2491 23.2353 16.8619 21.9074 16.9795 20.499C17.0022 20.2241 16.776 20 16.5 20H5.5ZM5.5 16C5.22386 16 5 16.2239 5 16.5C5 16.7761 5.22386 17 5.5 17H16.5C16.7761 17 17 16.7761 17 16.5C17 16.2239 16.7761 16 16.5 16H5.5ZM5.5 13C5.22386 13 5 13.2239 5 13.5C5 13.7761 5.22386 14 5.5 14H16.5C16.7761 14 17 13.7761 17 13.5C17 13.2239 16.7761 13 16.5 13H5.5ZM5.5 10C5.22386 10 5 10.2239 5 10.5C5 10.7761 5.22386 11 5.5 11H16.5C16.7761 11 17 10.7761 17 10.5C17 10.2239 16.7761 10 16.5 10H5.5Z" fill="#F189AD"/>
</svg>
