<svg width="40" height="40" viewBox="0 0 40 40" fill="none" xmlns="http://www.w3.org/2000/svg">
<path d="M33.3999 20.0005C33.3999 13.5203 28.1465 8.26689 21.6663 8.26689C17.3255 8.26702 13.5334 10.6237 11.5022 14.1349C11.0598 14.8997 10.0812 15.1607 9.31631 14.7185C8.55147 14.276 8.2896 13.2974 8.73193 12.5325C11.3115 8.07321 16.137 5.06702 21.6663 5.06689C29.9138 5.06689 36.5999 11.753 36.5999 20.0005C36.5998 28.2478 29.9137 34.9333 21.6663 34.9333C16.137 34.9332 11.3115 31.927 8.73193 27.4677C8.28976 26.7028 8.55153 25.7241 9.31631 25.2817C10.0812 24.8396 11.0598 25.1013 11.5022 25.8661C13.5334 29.3771 17.3256 31.7332 21.6663 31.7333C28.1464 31.7333 33.3998 26.4805 33.3999 20.0005ZM19.0179 15.3513C19.6426 14.7266 20.6556 14.7267 21.2804 15.3513L24.7976 18.8692C25.1009 19.1726 25.2699 19.5847 25.2663 20.0138C25.2627 20.4427 25.0872 20.8523 24.7788 21.1505L21.2608 24.5505C20.6254 25.1643 19.6131 25.1467 18.9991 24.5114C18.3851 23.8761 18.4021 22.8638 19.0374 22.2497L19.7093 21.6005H4.9999C4.11633 21.6005 3.40004 20.884 3.3999 20.0005C3.3999 19.1168 4.11625 18.4005 4.9999 18.4005H19.8038L19.0179 17.6146C18.393 16.9897 18.393 15.9761 19.0179 15.3513Z" fill="#F189AD"/>
<path d="M21.2804 15.3513C20.6556 14.7267 19.6426 14.7266 19.0179 15.3513C18.393 15.9761 18.393 16.9897 19.0179 17.6145L19.8038 18.4005H4.9999C4.11625 18.4005 3.3999 19.1168 3.3999 20.0005C3.40004 20.884 4.11633 21.6005 4.9999 21.6005H19.7093L19.0374 22.2497C18.4021 22.8638 18.3851 23.8761 18.9991 24.5114C19.6131 25.1467 20.6254 25.1643 21.2608 24.5505L24.7788 21.1505C25.0872 20.8523 25.2627 20.4427 25.2663 20.0138C25.2699 19.5847 25.1009 19.1726 24.7976 18.8692L21.2804 15.3513Z" fill="#F189AD"/>
<path d="M21.2804 15.3513C20.6556 14.7267 19.6426 14.7266 19.0179 15.3513C18.393 15.9761 18.393 16.9897 19.0179 17.6145L19.8038 18.4005H4.9999C4.11625 18.4005 3.3999 19.1168 3.3999 20.0005C3.40004 20.884 4.11633 21.6005 4.9999 21.6005H19.7093L19.0374 22.2497C18.4021 22.8638 18.3851 23.8761 18.9991 24.5114C19.6131 25.1467 20.6254 25.1643 21.2608 24.5505L24.7788 21.1505C25.0872 20.8523 25.2627 20.4427 25.2663 20.0138C25.2699 19.5847 25.1009 19.1726 24.7976 18.8692L21.2804 15.3513Z" fill="#18DA97"/>
</svg>
