<svg width="1024" height="1024" viewBox="0 0 1024 1024" fill="none" xmlns="http://www.w3.org/2000/svg">
<g clip-path="url(#clip0_49_170)">
<path d="M1023 512C1023 662.896 1014.35 788.442 949.25 877.53C885.957 964.148 762.574 1024 511 1024C259.427 1024 136.044 964.148 72.7486 877.53C7.6515 788.442 -1 662.896 -1 512C-1 361.57 9.69576 235.816 75.8314 146.641C140.275 59.748 263.922 0 511 0C758.077 0 881.726 59.748 946.168 146.641C1012.3 235.816 1023 361.57 1023 512Z" fill="#B23FED"/>
<path d="M509 510.5L280 767.5H738L509 510.5Z" fill="white"/>
<path d="M345 625L371 592.5H230.5V286H794V592.5H649.5L675 625H826.5V256H196V625H345Z" fill="white"/>
</g>
<defs>
<clipPath id="clip0_49_170">
<rect width="1024" height="1024" fill="white"/>
</clipPath>
</defs>
</svg>
