<svg width="1024" height="1024" viewBox="0 0 1024 1024" fill="none" xmlns="http://www.w3.org/2000/svg">
<g clip-path="url(#clip0_50_284)">
<path d="M1023 512C1023 662.896 1014.35 788.442 949.25 877.53C885.957 964.148 762.574 1024 511 1024C259.427 1024 136.044 964.148 72.7486 877.53C7.6515 788.442 -1 662.896 -1 512C-1 361.57 9.69576 235.816 75.8314 146.641C140.275 59.748 263.922 0 511 0C758.077 0 881.726 59.748 946.168 146.641C1012.3 235.816 1023 361.57 1023 512Z" fill="url(#paint0_linear_50_284)"/>
<rect x="260" y="381" width="505" height="363" rx="25" fill="white"/>
<path d="M309.5 281L299 299L667.5 393L739.5 384L309.5 281Z" fill="white"/>
<circle cx="348" cy="500" r="15" fill="#F9B400"/>
<circle cx="326" cy="562" r="15" fill="#F9B400"/>
<circle cx="348" cy="624" r="15" fill="#F9B400"/>
<circle cx="385" cy="663" r="15" fill="#F9B400"/>
<circle cx="400" cy="592" r="15" fill="#F9B400"/>
<circle cx="400" cy="530" r="15" fill="#F9B400"/>
<circle cx="385" cy="459" r="15" fill="#F9B400"/>
<circle cx="451" cy="444" r="15" fill="#F9B400"/>
<circle cx="452" cy="502" r="15" fill="#F9B400"/>
<circle cx="452" cy="562" r="15" fill="#F9B400"/>
<circle cx="452" cy="620" r="15" fill="#F9B400"/>
<circle cx="452" cy="680" r="15" fill="#F9B400"/>
<circle cx="519" cy="663" r="15" fill="#F9B400"/>
<circle cx="507" cy="592" r="15" fill="#F9B400"/>
<circle cx="507" cy="530" r="15" fill="#F9B400"/>
<circle cx="517" cy="460" r="15" fill="#F9B400"/>
<circle cx="556" cy="500" r="15" fill="#F9B400"/>
<circle cx="578" cy="562" r="15" fill="#F9B400"/>
<circle cx="556" cy="624" r="15" fill="#F9B400"/>
<circle cx="684" cy="474" r="30" fill="#F9B718"/>
<circle cx="684" cy="560" r="30" fill="#F9B718"/>
<circle cx="684.5" cy="474.5" r="12.5" fill="white"/>
<circle cx="684.5" cy="560.5" r="12.5" fill="white"/>
</g>
<defs>
<linearGradient id="paint0_linear_50_284" x1="511" y1="0" x2="511" y2="1024" gradientUnits="userSpaceOnUse">
<stop stop-color="#FACE00"/>
<stop offset="1" stop-color="#F8A000"/>
</linearGradient>
<clipPath id="clip0_50_284">
<rect width="1024" height="1024" fill="white"/>
</clipPath>
</defs>
</svg>
