<svg width="1024" height="1024" viewBox="0 0 1024 1024" fill="none" xmlns="http://www.w3.org/2000/svg">
<g clip-path="url(#clip0_49_222)">
<path d="M1024 512C1024 662.896 1015.35 788.442 950.25 877.53C886.957 964.148 763.574 1024 512 1024C260.427 1024 137.044 964.148 73.7486 877.53C8.6515 788.442 0 662.896 0 512C0 361.57 10.6958 235.816 76.8314 146.641C141.275 59.748 264.922 0 512 0C759.077 0 882.726 59.748 947.168 146.641C1013.3 235.816 1024 361.57 1024 512Z" fill="black"/>
<g clip-path="url(#clip1_49_222)">
<path d="M390.869 433.3C398.897 423.259 404.345 409.777 402.908 396C391.156 396.584 376.816 403.753 368.513 413.802C361.059 422.407 354.46 436.454 356.181 449.653C369.372 450.798 382.552 443.06 390.869 433.3Z" fill="white"/>
<path d="M402.758 452.231C383.6 451.09 367.312 463.104 358.163 463.104C349.009 463.104 335 452.806 319.847 453.083C300.125 453.373 281.825 464.524 271.817 482.259C251.232 517.739 266.385 570.367 286.402 599.263C296.123 613.559 307.839 629.3 323.276 628.734C337.862 628.162 343.578 619.29 361.308 619.29C379.024 619.29 384.174 628.734 399.613 628.448C415.624 628.162 425.634 614.145 435.355 599.835C446.507 583.539 451.072 567.804 451.359 566.94C451.072 566.654 420.485 554.92 420.202 519.735C419.913 490.275 444.216 476.262 445.36 475.393C431.636 455.095 410.192 452.806 402.758 452.231Z" fill="white"/>
<path d="M551.046 411.969V453.519H584.285V480.11H551.046V578.505C551.046 593.627 557.694 600.774 572.154 600.774C575.81 600.774 581.959 600.278 584.118 599.945V626.536C580.462 627.534 572.32 628.033 564.84 628.033C531.1 628.033 517.804 614.901 517.804 581.496V480.11H492.541V453.519H517.804V411.969H551.046Z" fill="white"/>
<path d="M699.173 627.036H664.104L601.114 453.519H636.016L681.389 593.627H682.054L727.427 453.519H762L699.173 627.036Z" fill="white"/>
</g>
</g>
<defs>
<clipPath id="clip0_49_222">
<rect width="1024" height="1024" fill="white"/>
</clipPath>
<clipPath id="clip1_49_222">
<rect width="500" height="232.749" fill="white" transform="translate(262 396)"/>
</clipPath>
</defs>
</svg>
