<svg width="1024" height="1024" viewBox="0 0 1024 1024" fill="none" xmlns="http://www.w3.org/2000/svg">
<g clip-path="url(#clip0_49_194)">
<path d="M1023 512C1023 662.896 1014.35 788.442 949.25 877.53C885.957 964.148 762.574 1024 511 1024C259.427 1024 136.044 964.148 72.7486 877.53C7.6515 788.442 -1 662.896 -1 512C-1 361.57 9.69576 235.816 75.8314 146.641C140.275 59.748 263.922 0 511 0C758.077 0 881.726 59.748 946.168 146.641C1012.3 235.816 1023 361.57 1023 512Z" fill="white"/>
<path d="M858.389 648.09V650.103H852.51V664.913H850.092V650.103H844.207V648.09H858.389Z" fill="black"/>
<path d="M860.486 648.09H863.877L868.903 662.307L873.879 648.09H877.234V664.913H874.995V654.988C874.995 654.637 875.004 654.079 875.02 653.282C875.028 652.501 875.044 651.642 875.044 650.726L870.053 664.914H867.711L862.685 650.726V651.247C862.685 651.659 862.702 652.289 862.702 653.131C862.752 653.972 862.765 654.585 862.765 654.99V664.914H860.488V648.091L860.486 648.09Z" fill="black"/>
<path d="M492.961 520.67C492.961 553.656 518.09 570.015 546.084 585.23L571.046 598.881C584.652 606.248 590.716 614.569 590.716 625.871C590.716 640.813 579.243 650.104 560.773 650.104C526.72 650.104 516.481 622.884 510.931 596.268L510.079 592.124H493.405V667.081H506.353L507.954 665.333C510.952 662.104 510.952 662.104 513.847 662.104C518.85 661.942 525.293 663.39 532.748 665.069C542.095 667.169 552.693 669.55 563.799 669.55C591.958 669.55 631.628 651.377 631.628 610.969C631.628 582.789 614.075 570.163 592.875 557.674C592.863 557.662 546.308 531.131 546.308 531.131C535.628 525.016 530.435 516.849 530.435 506.169C530.435 497.428 537.695 484.426 557.773 484.426C572.676 484.426 591.004 489.741 600.319 531.28L601.239 535.359H617.568L615.534 468.275H602.457L600.902 470.875C600.194 472.085 599.014 472.829 597.814 472.829C597.139 472.799 593.456 471.66 591.255 470.977C582.928 468.409 570.435 464.551 557.773 464.551C520.216 464.554 492.961 488.148 492.961 520.67Z" fill="black"/>
<path d="M190.494 558.358C190.494 505.321 216.363 486.493 238.524 486.493C262.926 486.493 277.504 506.186 277.504 525.228C277.504 525.228 277.504 616.787 277.504 617.229C274.528 629.092 260.698 637.693 244.55 637.693C219.61 637.689 190.494 616.904 190.494 558.358ZM316.477 372.006L315.081 372.483V372.479C307.352 375.134 276.897 384.734 252.307 390.557L248.22 391.535V407.948L254.143 407.353C267.931 405.986 273.164 407.718 275.126 409.413C277.384 411.379 277.507 415.359 277.507 421.675C277.507 421.675 277.507 471.964 277.507 476.918C264.885 468.309 252.669 464.553 237.24 464.553C212.74 464.553 188.385 476.381 170.459 496.999C152.82 517.273 142.714 544.465 142.714 571.609C142.714 666.811 217.899 669.553 226.468 669.553C247.424 669.553 264.547 663.288 277.506 651.05C277.506 655.408 277.506 665.744 277.506 665.744L283.684 670.185L353.274 646.501V630.638L347.493 631.072C333.969 632.082 328.775 630.199 326.804 628.459C324.794 626.663 324.426 623.53 324.426 617.991V374.68L317.001 371.827L316.477 372.006Z" fill="black"/>
<path d="M155.616 686.744H137V689.253C144.832 689.253 145.01 691.177 145.01 699.192V731.12C145.01 739.328 143.952 741.084 139.024 741.084H137V743.673H156.49V741.084H154.401C149.536 741.084 148.476 739.329 148.476 731.12V699.441L186.308 744.755H188.736V699.192C188.736 690.998 189.781 689.253 194.726 689.253H196.733V686.744H176.735V689.253C185.16 689.253 185.266 690.747 185.266 699.192V722.358L155.616 686.744Z" fill="black"/>
<path d="M284.826 686.744H234.769V689.316C242.574 689.316 242.758 691.177 242.758 699.277V731.124C242.758 739.417 241.715 741.093 236.753 741.093H234.769V743.681H284.821L289.089 725.878H286.397C281.95 735.826 275.432 740.679 263.952 740.679C257.963 740.679 256.92 739.578 256.92 733.32V716.424C266.654 716.424 268.736 721.024 269.611 729.385H272.295V700.463H269.615C268.578 708.552 266.308 712.663 256.923 712.84V693.609C256.923 690.596 257.785 690.158 264.224 690.158C270.674 690.158 273.694 690.833 276.822 693.096C280.395 695.608 281.175 697.273 282.136 703.878H284.821V686.744H284.826Z" fill="black"/>
<path d="M335.391 686.744V704.391H337.75C339.301 693.858 343.665 690.502 354.249 690.158V731.121C354.249 739.498 354.249 741.085 345.722 741.085V743.674H376.929V741.085C368.509 741.085 368.432 739.498 368.432 731.121V690.158C379.459 690.335 383.287 694.094 384.936 704.391H387.297V686.744H335.391Z" fill="black"/>
<path d="M464.283 724.791L455.495 699.201C454.714 697.035 453.756 694.935 453.756 692.594C453.756 690.254 454.964 689.259 458.016 689.259H459.681V686.75H433.584V689.259C437.763 690.838 438.466 691.768 441.146 699.2L457.58 744.766H459.743L476.535 704.902L490.969 744.766H493.405L509.587 699.2C510.98 695.36 512.54 689.848 517.583 689.259V686.75H500.63V689.259H503.391C506.524 689.259 507.65 690.254 507.65 692.683C507.65 694.102 507.568 694.437 505.906 699.2L496.96 724.794L488.527 699.2C487.146 695.199 486.948 694.173 486.948 692.767C486.948 690.258 488.19 689.259 491.239 689.259H492.523V686.754H464.523V689.259C471.303 689.259 472.687 694.775 474.69 699.873L464.283 724.791Z" fill="black"/>
<path d="M798.75 714.844V699.202C798.75 691.008 799.792 689.261 804.749 689.261H806.764V686.752H776.588V689.261C784.414 689.261 784.58 691.185 784.58 699.202V731.233C784.58 739.418 783.543 741.173 778.588 741.173H776.587V743.681H806.763V741.173H804.748C799.789 741.173 798.749 739.418 798.749 731.233V719.016L800.85 717.022L812.331 731.234C814.048 733.326 817.902 736.908 817.902 739.586C817.902 740.685 816.922 741.174 814.669 741.174H810.738V743.682H840.578V741.174C836.664 739.675 835.951 739.097 829.375 731.234L809.885 708.156L818.491 699.619C824.504 693.68 828.861 689.846 837.715 689.503V686.754H812.843V689.262H818.586C820.753 689.262 821.47 689.6 821.47 690.597C821.47 691.6 820.149 693.61 818.253 695.511L814.419 699.194L798.75 714.844Z" fill="black"/>
<path d="M594.438 688.824C603.99 688.824 609.916 698.94 609.916 715.332C609.916 732.203 604.441 741.59 594.438 741.59C584.428 741.59 578.961 732.203 578.961 715.332C578.961 698.94 584.866 688.824 594.438 688.824ZM594.438 685.662C576.801 685.662 563.587 698.199 563.587 715.089C563.587 732.066 576.801 744.76 594.438 744.76C612.086 744.76 625.293 732.058 625.293 715.089C625.302 698.191 612.182 685.662 594.438 685.662Z" fill="black"/>
<path d="M694.276 694.01C694.276 691.008 695.581 689.923 699.165 689.923C706.016 689.923 709.049 693.61 709.049 701.707C709.049 712.079 704.632 714.409 694.275 714.509V694.01H694.276ZM710.342 715.67C718.01 713.825 723.836 709.563 723.836 701.453C723.836 694.928 719.31 690.503 713.208 688.242C709.32 686.912 707.999 686.744 698.431 686.744H672.118V689.321C679.936 689.321 680.086 691.259 680.086 699.277V731.124C680.086 739.332 679.078 741.093 674.093 741.093H672.118V743.681H702.29V741.093H700.251C695.313 741.093 694.271 739.417 694.271 731.124V717.257H696.096L714.003 743.681H731.993V741.093C728.529 740.25 727.384 739.156 721.591 731.124L710.342 715.67Z" fill="black"/>
<path d="M382.805 407.546C382.805 387.62 399.59 371.462 420.321 371.462C441.035 371.462 457.823 387.62 457.823 407.546C457.823 427.471 441.035 443.622 420.321 443.622C399.59 443.622 382.805 427.475 382.805 407.546Z" fill="#E13A3E"/>
<path d="M360.376 619.093C360.376 619.093 381.282 661.589 422.523 661.589C463.763 661.589 483.11 619.093 483.11 619.093C483.11 619.093 453.286 633.923 422.523 633.923C392.651 633.923 360.376 619.093 360.376 619.093Z" fill="#E13A3E"/>
<path d="M381.41 570.952C381.41 570.952 395.155 599.865 422.259 599.865C449.353 599.865 462.075 570.952 462.075 570.952C462.075 570.952 440.02 578.043 422.259 578.043C404.481 578.044 381.41 570.952 381.41 570.952Z" fill="#E13A3E"/>
<path d="M389.741 521.81C389.741 521.81 400.649 545.698 422.138 545.698C443.646 545.698 453.743 521.81 453.743 521.81C453.743 521.81 436.23 526.149 422.138 526.149C408.052 526.149 389.741 521.81 389.741 521.81Z" fill="#E13A3E"/>
<path d="M397.75 474.712C397.75 474.712 405.935 492.606 422.04 492.606C438.164 492.606 445.742 474.712 445.742 474.712C445.742 474.712 431.502 478.367 420.92 478.367C410.353 478.364 397.75 474.712 397.75 474.712Z" fill="#E13A3E"/>
<path d="M808.076 362.068C830.73 392.61 830.634 435.222 812.078 482.37C817.258 491.37 820.404 502.805 821.521 516.652C882.449 436.226 904.544 362.068 872.047 318.201C814.782 240.992 609.953 284.079 414.607 418.022C372.91 446.614 361.073 458.224 344.011 474.623C364.474 460.687 387.522 445.188 419.826 423.042C579.827 313.315 751.759 286.099 808.076 362.068Z" fill="#E13A3E"/>
<path d="M836.24 648.948C817.266 645.721 814.823 645.293 814.823 618.832V535.575C814.823 488.451 795.182 464.554 756.489 464.554C734.627 464.554 714.689 473.518 698.565 490.307C698.565 483.63 698.565 375.661 698.565 375.661L691.481 371.58L690.805 371.86L688.981 372.57C679.895 376.145 644.632 386.278 628.437 390.609L624.507 391.654V407.989L630.478 407.342C634.054 406.959 636.825 406.959 640.648 406.959C644.644 406.959 647.486 407.769 649.103 409.352C651.808 411.996 651.725 417.227 651.665 421.434C651.665 421.456 651.634 423.31 651.634 423.31V617.999C651.634 644.45 649.929 646.76 628.887 648.9L624.079 649.385V665.425H723.917V648.984L723.034 648.9C703.75 646.92 698.566 646.383 698.566 618.411C698.566 618.411 698.566 521.232 698.566 520.263C700.983 517.382 718.729 497.259 740.549 497.259C759.469 497.259 767.912 509.588 767.912 537.243V618.839C767.912 644.53 763.302 647.472 743.599 648.879L743.19 648.916V665.424H840.675V649.705L836.24 648.948Z" fill="black"/>
</g>
<defs>
<clipPath id="clip0_49_194">
<rect width="1024" height="1024" fill="white"/>
</clipPath>
</defs>
</svg>
