<svg width="1024" height="1024" viewBox="0 0 1024 1024" fill="none" xmlns="http://www.w3.org/2000/svg">
<g clip-path="url(#clip0_4_588)">
<path d="M1024 509C1024 659.896 1015.35 785.442 950.25 874.53C886.957 961.148 763.574 1021 512 1021C260.427 1021 137.044 961.148 73.7486 874.53C8.6515 785.442 0 659.896 0 509C0 358.57 10.6958 232.816 76.8314 143.641C141.275 56.748 264.922 -3 512 -3C759.077 -3 882.726 56.748 947.168 143.641C1013.3 232.816 1024 358.57 1024 509Z" fill="#1DADFF"/>
<path d="M562.25 650H650.062V685H562.25M562.25 580H702.75V615H562.25M527.125 405C507.631 405 492 420.575 492 440V720C492 739.425 507.631 755 527.125 755H737.875C757.369 755 773 739.425 773 720V510L667.625 405M527.125 440H650.062V527.5H737.875V720H527.125V440Z" fill="white"/>
<rect x="543" y="251" width="132" height="90" fill="white"/>
<rect x="586" y="223" width="45" height="25" fill="white"/>
<rect x="591" y="248" width="36" height="3" fill="white"/>
<rect x="604" y="341" width="10" height="5" fill="white"/>
<rect x="547" y="344" width="123" height="15" fill="white"/>
<rect x="576" y="359" width="68" height="15" fill="white"/>
<line x1="265" y1="781" x2="460" y2="781" stroke="white" stroke-width="30" stroke-linecap="round"/>
<line x1="435" y1="266" x2="630" y2="266" stroke="white" stroke-width="30" stroke-linecap="round"/>
<line x1="264.492" y1="777.037" x2="434.037" y2="266.508" stroke="white" stroke-width="30" stroke-linecap="round"/>
</g>
<defs>
<clipPath id="clip0_4_588">
<rect width="1024" height="1024" fill="white"/>
</clipPath>
</defs>
</svg>
