<svg width="1024" height="1024" viewBox="0 0 1024 1024" fill="none" xmlns="http://www.w3.org/2000/svg">
<g clip-path="url(#clip0_4_2059)">
<path d="M1024 512C1024 662.896 1015.35 788.442 950.25 877.53C886.957 964.148 763.574 1024 512 1024C260.427 1024 137.044 964.148 73.7486 877.53C8.6515 788.442 0 662.896 0 512C0 361.57 10.6958 235.816 76.8314 146.641C141.275 59.748 264.922 0 512 0C759.077 0 882.726 59.748 947.168 146.641C1013.3 235.816 1024 361.57 1024 512Z" fill="#CC157C"/>
<path fill-rule="evenodd" clip-rule="evenodd" d="M201 350.72C296.574 350.72 392.146 350.72 487.72 350.72C487.72 359.253 487.72 367.786 487.72 376.32C392.146 376.32 296.574 376.32 201 376.32C201 367.786 201 359.253 201 350.72Z" fill="#FEFFFE"/>
<path fill-rule="evenodd" clip-rule="evenodd" d="M201 453.12C296.574 453.12 392.146 453.12 487.72 453.12C487.72 461.654 487.72 470.187 487.72 478.72C392.146 478.72 296.574 478.72 201 478.72C201 470.187 201 461.654 201 453.12Z" fill="#FEFFFE"/>
<path fill-rule="evenodd" clip-rule="evenodd" d="M201 556C296.574 556 392.146 556 487.72 556C487.72 564.534 487.72 573.066 487.72 581.6C392.146 581.6 296.574 581.6 201 581.6C201 573.066 201 564.534 201 556Z" fill="#FEFFFE"/>
<path d="M801.821 233.344L633.071 274.359C617.837 280.219 607.29 294.281 607.29 310.688V661.078C585.024 650.531 559.243 643.5 532.29 643.5C459.634 643.5 401.04 685.688 401.04 737.25C401.04 789.984 459.634 831 532.29 831C603.774 831 663.54 789.984 663.54 737.25V460.688L824.087 422.016C840.493 416.156 851.04 402.094 851.04 385.688V268.5C851.04 256.781 845.181 246.234 834.634 239.203C825.259 232.172 813.54 229.828 801.821 233.344ZM532.29 774.75C485.415 774.75 457.29 750.141 457.29 737.25C457.29 724.359 485.415 699.75 532.29 699.75C577.993 699.75 607.29 724.359 607.29 737.25C607.29 751.312 577.993 774.75 532.29 774.75ZM794.79 371.625L663.54 400.922V324.75L794.79 294.281V371.625Z" fill="white"/>
<ellipse cx="527.022" cy="745.302" rx="84.7683" ry="47.3017" fill="white"/>
<rect x="649.207" y="278.77" width="147.057" height="126.45" fill="white"/>
</g>
<defs>
<clipPath id="clip0_4_2059">
<rect width="1024" height="1024" fill="white"/>
</clipPath>
</defs>
</svg>
