<svg width="1024" height="1024" viewBox="0 0 1024 1024" fill="none" xmlns="http://www.w3.org/2000/svg">
<g clip-path="url(#clip0_4_2359)">
<path d="M1024 512C1024 662.896 1015.35 788.442 950.25 877.53C886.957 964.148 763.574 1024 512 1024C260.427 1024 137.044 964.148 73.7486 877.53C8.6515 788.442 0 662.896 0 512C0 361.57 10.6958 235.816 76.8314 146.641C141.275 59.748 264.922 0 512 0C759.077 0 882.726 59.748 947.168 146.641C1013.3 235.816 1024 361.57 1024 512Z" fill="#8D4403"/>
<circle cx="420" cy="512" r="305.5" fill="#0A0A0A" stroke="#D0D4D0" stroke-width="31"/>
<circle cx="420.5" cy="511.5" r="49.5" fill="#504745" stroke="#E26531" stroke-width="72"/>
<circle cx="938" cy="512" r="29.5" fill="#25180D" stroke="#B0A296" stroke-width="9"/>
<circle cx="777" cy="559" r="13" fill="#B0A296"/>
<circle cx="767" cy="274" r="57" fill="#B0A296"/>
<path d="M741.5 198.5C884.5 616 868 517 753.5 795" stroke="#B0A296" stroke-width="20"/>
<rect x="723" y="785.527" width="95" height="64" transform="rotate(-67.1229 723 785.527)" fill="#B0A296"/>
</g>
<defs>
<clipPath id="clip0_4_2359">
<rect width="1024" height="1024" fill="white"/>
</clipPath>
</defs>
</svg>
