<svg width="1024" height="1024" viewBox="0 0 1024 1024" fill="none" xmlns="http://www.w3.org/2000/svg">
<g clip-path="url(#clip0_4_2695)">
<path d="M1024 512C1024 662.896 1015.35 788.442 950.25 877.53C886.957 964.148 763.574 1024 512 1024C260.427 1024 137.044 964.148 73.7486 877.53C8.6515 788.442 0 662.896 0 512C0 361.57 10.6958 235.816 76.8314 146.641C141.275 59.748 264.922 0 512 0C759.077 0 882.726 59.748 947.168 146.641C1013.3 235.816 1024 361.57 1024 512Z" fill="#06D4FF"/>
<path fill-rule="evenodd" clip-rule="evenodd" d="M483.84 401.92C561.792 396.491 606.167 432.331 616.96 509.44C598.697 594.514 547.497 626.089 463.36 604.16C390.593 551.624 383.767 491.891 442.88 424.96C456.188 415.769 469.841 408.089 483.84 401.92Z" fill="#10D3FF"/>
<circle cx="509" cy="221" r="60" fill="white"/>
<circle cx="509" cy="797" r="60" fill="white"/>
<path d="M509 205L769.674 656.5H248.326L509 205Z" fill="white"/>
<path d="M509 807L248.326 355.5L769.674 355.5L509 807Z" fill="white"/>
<circle cx="262" cy="366" r="60" fill="white"/>
<circle cx="758" cy="366" r="60" fill="white"/>
<circle cx="758" cy="644" r="60" fill="white"/>
<circle cx="262" cy="644" r="60" fill="white"/>
<circle cx="512" cy="506" r="79" fill="#06D4FF"/>
</g>
<defs>
<clipPath id="clip0_4_2695">
<rect width="1024" height="1024" fill="white"/>
</clipPath>
</defs>
</svg>
