<svg width="1024" height="1024" viewBox="0 0 1024 1024" fill="none" xmlns="http://www.w3.org/2000/svg">
<g clip-path="url(#clip0_4_2702)">
<path d="M1024 512C1024 662.896 1015.35 788.442 950.25 877.53C886.957 964.148 763.574 1024 512 1024C260.427 1024 137.044 964.148 73.7486 877.53C8.6515 788.442 0 662.896 0 512C0 361.57 10.6958 235.816 76.8314 146.641C141.275 59.748 264.922 0 512 0C759.077 0 882.726 59.748 947.168 146.641C1013.3 235.816 1024 361.57 1024 512Z" fill="url(#paint0_linear_4_2702)"/>
<rect x="382" y="384" width="23" height="81" fill="white"/>
<circle cx="394" cy="488" r="26" stroke="white" stroke-width="16"/>
<rect x="281.5" y="247.5" width="459" height="28" fill="#FEEDDF" stroke="white" stroke-width="5"/>
<rect x="281.5" y="274.5" width="459" height="28" fill="#FEDCBF" stroke="white" stroke-width="5"/>
<rect x="281.5" y="302.5" width="459" height="28" fill="#FECAA2" stroke="white" stroke-width="5"/>
<rect x="281.5" y="330.5" width="459" height="28" fill="#FEB984" stroke="white" stroke-width="5"/>
<rect x="281.5" y="358.5" width="459" height="28" fill="#FFA96C" stroke="white" stroke-width="5"/>
<rect x="275.5" y="232.5" width="237" height="559" stroke="white" stroke-width="25"/>
<rect x="510.5" y="232.5" width="237" height="559" stroke="white" stroke-width="25"/>
</g>
<defs>
<linearGradient id="paint0_linear_4_2702" x1="512" y1="0" x2="512" y2="1024" gradientUnits="userSpaceOnUse">
<stop stop-color="#FE7507"/>
<stop offset="1" stop-color="#FF6002"/>
</linearGradient>
<clipPath id="clip0_4_2702">
<rect width="1024" height="1024" fill="white"/>
</clipPath>
</defs>
</svg>
