<svg width="1024" height="1024" viewBox="0 0 1024 1024" fill="none" xmlns="http://www.w3.org/2000/svg">
<g clip-path="url(#clip0_4_2777)">
<path d="M1021 512C1021 662.896 1012.35 788.442 947.25 877.53C883.957 964.148 760.574 1024 509 1024C257.427 1024 134.044 964.148 70.7486 877.53C5.6515 788.442 -3 662.896 -3 512C-3 361.57 7.69576 235.816 73.8314 146.641C138.275 59.748 261.922 0 509 0C756.077 0 879.726 59.748 944.168 146.641C1010.3 235.816 1021 361.57 1021 512Z" fill="#0303EB"/>
<path fill-rule="evenodd" clip-rule="evenodd" d="M660.393 281.899C657.067 287.924 651.933 291.547 644.994 292.768C622.447 279.538 598.594 268.971 573.436 261.065C504.086 242.33 439.474 252.596 379.595 291.863C370.765 294.08 364.122 291.363 359.667 283.71C358.227 276.294 360.642 270.556 366.914 266.5C462.271 209.833 557.682 209.833 653.146 266.5C658.257 270.379 660.672 275.513 660.393 281.899Z" fill="#05DCF9"/>
<path fill-rule="evenodd" clip-rule="evenodd" d="M481.044 281.899C529.538 276.432 573.62 287.604 613.291 315.414C621.309 325.271 620.1 333.725 609.667 340.776C606.647 341.984 603.629 341.984 600.609 340.776C539.551 298.64 478.56 298.64 417.638 340.776C404.991 340.807 399.255 334.466 400.427 321.754C412.777 309.968 426.967 300.608 443 293.675C455.73 289.124 468.411 285.198 481.044 281.899Z" fill="#04DDF9"/>
<path fill-rule="evenodd" clip-rule="evenodd" d="M573.435 361.609C580.048 365.515 584.276 371.252 586.117 378.819C583.414 390.446 576.167 394.673 564.377 391.501C537.85 371.298 508.865 367.069 477.421 378.819C468.451 384.794 459.091 389.926 449.341 394.218C436.464 390.801 432.841 382.952 438.471 370.667C443.899 366.622 449.031 362.395 453.87 357.986C494.339 337.897 534.194 339.105 573.435 361.609Z" fill="#03DDF9"/>
<path fill-rule="evenodd" clip-rule="evenodd" d="M350.609 450.377C356.18 457.904 358.595 466.357 357.856 475.74C337.928 475.74 318 475.74 298.073 475.74C296.446 464.468 289.803 459.033 278.145 459.435C268.761 458.383 262.723 462.307 260.029 471.211C264.056 478.075 270.096 482.303 278.145 483.892C300.205 486.839 321.339 492.877 341.551 502.008C365.511 517.296 371.852 538.129 360.573 564.508C355.441 574.472 347.892 582.021 337.928 587.153C304.899 599.803 271.082 602.218 236.478 594.399C211.076 586.22 196.583 569.01 193 542.769C214.135 542.769 235.27 542.769 256.406 542.769C257.489 556.01 264.736 562.653 278.145 562.696C286.834 563.334 293.778 560.316 298.979 553.638C301.109 546.827 298.997 541.694 292.638 538.24C279.426 534.332 266.142 531.011 252.783 528.276C233.705 525.453 217.703 516.999 204.775 502.914C196.122 485.198 196.424 467.685 205.681 450.377C213.454 441.138 223.116 434.194 234.667 429.544C263.613 421.207 292.598 421.207 321.624 429.544C333.584 433.399 343.245 440.345 350.609 450.377Z" fill="#FDFCFE"/>
<path fill-rule="evenodd" clip-rule="evenodd" d="M821.625 452.189C825.596 460.18 828.313 468.633 829.777 477.551C830.683 495.053 830.984 512.566 830.683 530.088C830.683 551.224 830.683 572.358 830.683 593.494C808.34 593.494 785.996 593.494 763.654 593.494C763.956 557.256 763.654 521.024 762.748 484.798C759.922 477.149 754.487 474.129 746.443 475.74C737.001 474.894 730.963 479.12 728.327 488.421C727.422 523.439 727.119 558.465 727.422 593.494C705.682 593.494 683.943 593.494 662.204 593.494C662.507 559.068 662.204 524.648 661.298 490.233C656.8 476.503 647.44 471.974 633.218 476.646C628.882 480.182 626.164 484.711 625.066 490.233C624.16 524.648 623.858 559.068 624.16 593.494C602.421 593.494 580.682 593.494 558.943 593.494C558.943 538.543 558.943 483.59 558.943 428.638C578.87 428.638 598.798 428.638 618.726 428.638C618.425 435.91 618.727 443.156 619.631 450.377C627.639 437.535 638.811 428.778 653.146 424.109C681.157 419.133 702.594 428.491 717.458 452.189C726.056 438.752 737.831 429.394 752.784 424.109C782.179 418.491 805.127 427.85 821.625 452.189Z" fill="#FDFDFE"/>
<path fill-rule="evenodd" clip-rule="evenodd" d="M539.015 448.566C524.49 467.016 510.602 486.037 497.349 505.632C515.381 534.75 534.101 563.433 553.508 591.683C528.749 594.098 503.992 594.098 479.233 591.683C472.64 576.081 465.091 560.983 456.588 546.393C449.039 561.489 441.492 576.587 433.943 591.683C409.207 593.795 384.448 594.098 359.667 592.589C379.817 564.063 399.745 535.38 419.45 506.538C406.41 486.452 392.52 467.13 377.783 448.566C374.013 441.447 369.787 434.501 365.102 427.733C389.256 426.525 413.412 426.525 437.566 427.733C444.151 441.218 451.397 454.202 459.305 466.682C466.321 453.554 473.568 440.57 481.044 427.733C505.198 426.525 529.354 426.525 553.508 427.733C547.572 433.959 542.742 440.905 539.015 448.566Z" fill="#FDFDFE"/>
<path fill-rule="evenodd" clip-rule="evenodd" d="M618.726 428.639C598.799 428.639 578.871 428.639 558.943 428.639C558.943 483.59 558.943 538.543 558.943 593.494C557.135 546.101 556.532 498.394 557.132 450.378C557.132 442.528 557.132 434.677 557.132 426.827C577.987 426.233 598.52 426.836 618.726 428.639Z" fill="#7977F3"/>
<path fill-rule="evenodd" clip-rule="evenodd" d="M444.812 629.725C448.484 629.432 452.108 629.734 455.682 630.631C478.213 648.609 503.575 654.647 531.769 648.747C545.791 643.718 559.378 637.981 572.53 631.537C584.423 632.933 588.65 639.577 585.211 651.464C558.572 673.019 528.077 681.774 493.726 677.733C472.785 674.053 454.367 665.298 438.472 651.464C435.923 642.665 438.037 635.419 444.812 629.725Z" fill="#04DCF9"/>
<path fill-rule="evenodd" clip-rule="evenodd" d="M615.103 685.885C619.393 692.32 619.695 698.963 616.009 705.813C608.333 712.219 600.181 717.954 591.552 723.023C524.733 755.619 461.63 749.882 402.24 705.813C398.33 698.496 399.236 691.853 404.957 685.885C410.225 683.949 415.66 683.646 421.262 684.979C481.32 725.047 541.103 724.443 600.61 683.168C605.876 681.867 610.708 682.773 615.103 685.885Z" fill="#05DCF9"/>
<path fill-rule="evenodd" clip-rule="evenodd" d="M618.727 776.465C544.763 808.438 471.09 807.833 397.711 774.654C385.229 768.563 373.454 761.317 362.385 752.914C358.338 740.686 362.564 733.44 375.066 731.175C396.815 743.405 419.46 753.972 443.001 762.878C512.101 782.378 576.714 772.717 636.843 733.893C655.395 730.094 661.736 737.038 655.864 754.726C644.477 763.592 632.098 770.838 618.727 776.465Z" fill="#04DDF9"/>
</g>
<defs>
<clipPath id="clip0_4_2777">
<rect width="1024" height="1024" fill="white"/>
</clipPath>
</defs>
</svg>
