<svg width="1024" height="1024" viewBox="0 0 1024 1024" fill="none" xmlns="http://www.w3.org/2000/svg">
<g clip-path="url(#clip0_4_3255)">
<path d="M1024 512C1024 662.896 1015.35 788.442 950.25 877.53C886.957 964.148 763.574 1024 512 1024C260.427 1024 137.044 964.148 73.7486 877.53C8.6515 788.442 0 662.896 0 512C0 361.57 10.6958 235.816 76.8314 146.641C141.275 59.748 264.922 0 512 0C759.077 0 882.726 59.748 947.168 146.641C1013.3 235.816 1024 361.57 1024 512Z" fill="url(#paint0_linear_4_3255)"/>
<path d="M338.354 689.476C355.281 677.141 377.194 673.992 396.877 681.078C431.649 693.675 470.621 700.892 512.085 700.892C675.712 700.892 785.016 595.26 785.016 490.939C785.016 386.619 675.712 280.986 512.085 280.986C348.458 280.986 239.154 386.619 239.154 490.939C239.154 532.93 255.425 573.346 285.999 607.988C297.283 620.716 302.794 637.513 301.482 654.571C299.645 678.322 294.003 700.105 286.655 719.394C308.962 709.028 327.463 697.48 338.354 689.607V689.476ZM203.988 742.752C206.35 739.209 208.581 735.666 210.68 732.123C223.802 710.34 236.267 681.734 238.761 649.585C199.395 604.839 176.17 550.12 176.17 490.939C176.17 340.166 326.545 218 512.085 218C697.626 218 848 340.166 848 490.939C848 641.712 697.626 763.878 512.085 763.878C463.404 763.878 417.215 755.48 375.488 740.39C359.874 751.806 334.418 767.421 304.238 780.543C284.424 789.204 261.855 797.077 238.498 801.67C237.448 801.932 236.399 802.063 235.349 802.326C229.575 803.376 223.933 804.294 218.028 804.819C217.766 804.819 217.372 804.95 217.11 804.95C210.418 805.606 203.726 806 197.034 806C188.505 806 180.894 800.882 177.614 793.009C174.333 785.136 176.17 776.213 182.075 770.177C187.455 764.665 192.31 758.761 196.902 752.462C199.133 749.444 201.233 746.426 203.201 743.408C203.332 743.145 203.463 743.014 203.594 742.752H203.988Z" fill="white"/>
<path d="M373 427.167C373 408.873 387.948 394 406.333 394H539.667C558.052 394 573 408.873 573 427.167V559.833C573 578.127 558.052 593 539.667 593H406.333C387.948 593 373 578.127 373 559.833V427.167ZM664.198 412.553C669.615 415.455 673 421.052 673 427.167V559.833C673 565.948 669.615 571.545 664.198 574.447C658.781 577.349 652.219 577.039 647.062 573.618L597.062 540.452L589.667 535.528V526.667V460.333V451.472L597.062 446.548L647.062 413.382C652.167 410.013 658.729 409.651 664.198 412.553Z" fill="white"/>
</g>
<defs>
<linearGradient id="paint0_linear_4_3255" x1="512" y1="0" x2="512" y2="1024" gradientUnits="userSpaceOnUse">
<stop stop-color="#FF0769"/>
<stop offset="1" stop-color="#FF063A"/>
</linearGradient>
<clipPath id="clip0_4_3255">
<rect width="1024" height="1024" fill="white"/>
</clipPath>
</defs>
</svg>
