<svg width="1024" height="1024" viewBox="0 0 1024 1024" fill="none" xmlns="http://www.w3.org/2000/svg">
<g clip-path="url(#clip0_4_3729)">
<path d="M1024 512C1024 662.896 1015.35 788.442 950.25 877.53C886.957 964.148 763.574 1024 512 1024C260.427 1024 137.044 964.148 73.7486 877.53C8.6515 788.442 0 662.896 0 512C0 361.57 10.6958 235.816 76.8314 146.641C141.275 59.748 264.922 0 512 0C759.077 0 882.726 59.748 947.168 146.641C1013.3 235.816 1024 361.57 1024 512Z" fill="white"/>
<path fill-rule="evenodd" clip-rule="evenodd" d="M692.046 743.58C638.995 779.946 576.803 799.185 512.197 799.185C447.442 799.185 385.123 779.862 331.966 743.311C322.676 736.914 309.968 739.279 303.595 748.58C297.207 757.858 299.561 770.569 308.843 776.966C368.823 818.209 439.157 839.998 512.197 839.998C585.058 839.998 655.234 818.302 715.132 777.258C724.42 770.891 726.797 758.173 720.424 748.879C714.059 739.586 701.358 737.19 692.046 743.58Z" fill="#52AFE2"/>
<path fill-rule="evenodd" clip-rule="evenodd" d="M360.215 678.926C353.445 687.935 355.274 700.738 364.271 707.512C407.202 739.762 458.364 756.812 512.196 756.812C566.515 756.812 618.015 739.493 661.164 706.721C670.146 699.909 671.885 687.09 665.077 678.12C658.24 669.126 645.457 667.391 636.474 674.195C600.494 701.552 557.519 715.991 512.196 715.991C467.272 715.991 424.596 701.775 388.788 674.856C379.791 668.097 366.978 669.902 360.215 678.926Z" fill="#52AFE2"/>
<path fill-rule="evenodd" clip-rule="evenodd" d="M408.934 606.249C401.864 615.043 403.266 627.908 412.053 634.981C440.318 657.692 475.864 670.211 512.197 670.211C548.275 670.211 582.328 658.475 610.654 636.302C619.553 629.344 621.113 616.51 614.17 607.64C607.22 598.753 594.392 597.164 585.522 604.13C564.409 620.658 539.061 629.367 512.197 629.367C484.756 629.367 458.972 620.312 437.634 603.139C428.84 596.065 416.004 597.463 408.934 606.249Z" fill="#52AFE2"/>
<path fill-rule="evenodd" clip-rule="evenodd" d="M331.966 281.701C385.123 245.153 447.442 225.861 512.197 225.861C576.803 225.861 638.995 245.077 692.046 281.454C701.358 287.821 714.059 285.459 720.424 276.136C726.797 266.843 724.42 254.13 715.132 247.755C655.234 206.698 585.058 185 512.197 185C439.157 185 368.823 206.804 308.843 248.047C299.561 254.423 297.207 267.158 303.595 276.451C309.968 285.744 322.676 288.099 331.966 281.701Z" fill="#52AFE2"/>
<path fill-rule="evenodd" clip-rule="evenodd" d="M636.474 350.817C645.457 357.635 658.24 355.887 665.077 346.902C671.885 337.924 670.146 325.136 661.164 318.303C618.015 285.535 566.515 268.201 512.196 268.201C458.364 268.201 407.202 285.25 364.271 317.515C355.274 324.296 353.445 337.084 360.215 346.099C366.978 355.114 379.791 356.937 388.788 350.157C424.596 323.261 467.272 309.018 512.196 309.018C557.519 309.018 600.494 323.463 636.474 350.817Z" fill="#52AFE2"/>
<path fill-rule="evenodd" clip-rule="evenodd" d="M512.197 354.799C475.864 354.799 440.318 367.332 412.053 390.057C403.266 397.138 401.864 409.986 408.934 418.776C416.004 427.552 428.84 428.969 437.634 421.874C458.972 404.721 484.756 395.646 512.197 395.646C539.061 395.646 564.409 404.368 585.522 420.891C594.392 427.851 607.22 426.261 614.17 417.396C621.113 408.501 619.553 395.676 610.654 388.73C582.328 366.544 548.275 354.799 512.197 354.799Z" fill="#52AFE2"/>
<path fill-rule="evenodd" clip-rule="evenodd" d="M693.465 581.364C701.817 578.591 706.337 569.559 703.541 561.195L670.35 461.43C668.363 455.49 663.115 451.29 656.907 450.607C650.684 449.962 644.649 453 641.499 458.378L596.927 533.996L555.616 458.797C552.677 453.45 546.957 450.255 540.868 450.555C534.788 450.84 529.405 454.575 527.005 460.163L491.738 542.356L445.351 511.42L486.819 479.049C493.754 473.626 494.991 463.598 489.578 456.652C484.15 449.707 474.141 448.5 467.191 453.907L417.4 492.766L358.065 453.202C350.747 448.312 340.851 450.308 335.963 457.628C331.082 464.948 333.061 474.856 340.379 479.746L390.934 513.452L339.434 553.661C332.483 559.068 331.262 569.098 336.668 576.064C342.066 582.984 352.089 584.236 359.025 578.799L418.884 532.083L489.983 579.498C490.396 579.766 490.838 579.958 491.265 580.173C491.7 580.411 492.082 580.711 492.532 580.895C492.585 580.911 492.637 580.911 492.682 580.949C493.289 581.203 493.92 581.341 494.564 581.517C494.947 581.656 495.336 581.794 495.719 581.871C496.273 581.986 496.836 581.994 497.406 582.047C497.886 582.086 498.358 582.178 498.83 582.178C499.303 582.178 499.783 582.086 500.255 582.047C500.795 581.994 501.35 581.986 501.889 581.886C502.369 581.779 502.834 581.594 503.314 581.464C503.809 581.318 504.311 581.203 504.798 581.003C505.301 580.811 505.75 580.527 506.223 580.304C506.658 580.066 507.108 579.859 507.527 579.605C507.909 579.329 508.247 579.021 508.622 578.73C509.072 578.376 509.544 578.046 509.956 577.631C510.234 577.37 510.474 577.032 510.722 576.748C511.156 576.241 511.606 575.765 511.988 575.197C512.018 575.158 512.064 575.104 512.086 575.097C512.355 574.682 512.52 574.275 512.738 573.822C512.993 573.392 513.263 573 513.48 572.524L543.403 502.787L582.472 573.914C585.231 578.945 590.472 582.086 596.2 582.178C601.928 582.27 607.267 579.283 610.176 574.329L651.164 504.767L673.304 571.287C676.078 579.628 685.097 584.167 693.465 581.364Z" fill="#52AFE2"/>
</g>
<defs>
<clipPath id="clip0_4_3729">
<rect width="1024" height="1024" fill="white"/>
</clipPath>
</defs>
</svg>
