<svg width="1024" height="1024" viewBox="0 0 1024 1024" fill="none" xmlns="http://www.w3.org/2000/svg">
<g clip-path="url(#clip0_1_11)">
<path d="M1023 512C1023 662.896 1014.35 788.442 949.25 877.53C885.957 964.148 762.574 1024 511 1024C259.427 1024 136.044 964.148 72.7486 877.53C7.6515 788.442 -1 662.896 -1 512C-1 361.57 9.69576 235.816 75.8314 146.641C140.275 59.748 263.922 0 511 0C758.077 0 881.726 59.748 946.168 146.641C1012.3 235.816 1023 361.57 1023 512Z" fill="#50B8F9"/>
<path d="M778.477 497.061L691.572 297.658L531.623 711.392H428.19L625.993 224.615C335.42 150.505 182.317 352.041 215.458 579.168C255.445 853.213 756.617 929.455 811 579.168H636.656L673.444 497.061H778.477Z" fill="white"/>
</g>
<defs>
<clipPath id="clip0_1_11">
<rect width="1024" height="1024" fill="white"/>
</clipPath>
</defs>
</svg>
