<svg width="1024" height="1024" viewBox="0 0 1024 1024" fill="none" xmlns="http://www.w3.org/2000/svg">
<g clip-path="url(#clip0_49_175)">
<path d="M1023 512C1023 662.896 1014.35 788.442 949.25 877.53C885.957 964.148 762.574 1024 511 1024C259.427 1024 136.044 964.148 72.7486 877.53C7.6515 788.442 -1 662.896 -1 512C-1 361.57 9.69576 235.816 75.8314 146.641C140.275 59.748 263.922 0 511 0C758.077 0 881.726 59.748 946.168 146.641C1012.3 235.816 1023 361.57 1023 512Z" fill="#1D1D1D"/>
<path fill-rule="evenodd" clip-rule="evenodd" d="M634.68 231C740.792 273.13 810.762 349.077 844.6 458.84C835 471.515 823.05 474.075 808.76 466.52C779.494 372.41 719.759 305.85 629.56 266.84C623.764 254.09 625.469 242.143 634.68 231Z" fill="#3DA2EA"/>
<path fill-rule="evenodd" clip-rule="evenodd" d="M373.56 231C387.603 238.603 393.576 250.55 391.48 266.84C300.958 311.289 242.078 382.115 214.84 479.32C202.822 481.028 190.875 480.175 179 476.76C194.343 402.569 230.183 340.276 286.52 289.88C314.1 267.6 343.113 247.973 373.56 231Z" fill="#3DA2EB"/>
<path d="M764.36 538.16C764.36 678.993 650.192 793.16 509.36 793.16C368.527 793.16 254.36 678.993 254.36 538.16C254.36 397.328 368.527 283.16 509.36 283.16C650.192 283.16 764.36 397.328 764.36 538.16Z" fill="#3EA8F3"/>
<path fill-rule="evenodd" clip-rule="evenodd" d="M511.8 364.12C518.625 364.12 525.455 364.12 532.28 364.12C532.28 432.387 532.28 500.654 532.28 568.92C486.2 568.92 440.12 568.92 394.04 568.92C394.04 560.385 394.04 551.855 394.04 543.32C433.294 543.32 472.547 543.32 511.8 543.32C511.8 483.587 511.8 423.854 511.8 364.12Z" fill="#1B1C1D"/>
</g>
<defs>
<clipPath id="clip0_49_175">
<rect width="1024" height="1024" fill="white"/>
</clipPath>
</defs>
</svg>
