<svg width="1024" height="1024" viewBox="0 0 1024 1024" fill="none" xmlns="http://www.w3.org/2000/svg">
<g clip-path="url(#clip0_49_185)">
<path d="M1023 512C1023 662.896 1014.35 788.442 949.25 877.53C885.957 964.148 762.574 1024 511 1024C259.427 1024 136.044 964.148 72.7486 877.53C7.6515 788.442 -1 662.896 -1 512C-1 361.57 9.69576 235.816 75.8314 146.641C140.275 59.748 263.922 0 511 0C758.077 0 881.726 59.748 946.168 146.641C1012.3 235.816 1023 361.57 1023 512Z" fill="#191919"/>
<path fill-rule="evenodd" clip-rule="evenodd" d="M793.686 679.409C717.016 736.218 605.916 766.485 510.27 766.485C375.883 766.485 255.353 716.661 163.993 633.706C157.042 627.187 163.251 618.293 171.871 623.369C270.459 681.039 392.566 715.729 518.287 715.729C609.079 715.309 698.894 696.857 782.565 661.435C795.54 655.894 806.43 669.957 793.686 679.409ZM825.568 642.763C815.837 630.19 760.785 636.826 736.132 639.736C728.601 640.667 727.466 634.079 734.232 629.352C778.255 598.387 849.943 607.304 858.331 617.711C866.718 628.118 856.153 700.596 815.003 735.147C808.677 740.455 802.653 737.638 805.735 730.584C815.003 707.394 835.717 655.382 825.893 642.763" fill="#FF9900"/>
<path fill-rule="evenodd" clip-rule="evenodd" d="M555.931 459.138C555.931 483.686 556.553 504.156 544.193 525.947C534.074 543.647 518.173 554.571 500.754 554.571C476.656 554.571 462.533 536.146 462.533 508.944C462.533 455.264 510.468 445.501 555.945 445.501L555.931 459.138ZM619.261 612.69C615.112 616.419 609.113 616.68 604.43 614.199C583.614 596.833 579.797 588.767 568.406 572.198C533.973 607.453 509.514 618 464.933 618C412.054 618 371 585.299 371 519.825C371 468.699 398.538 433.88 437.93 416.862C472.002 401.803 519.604 399.162 555.96 395.1V387.121C555.96 372.148 557.116 354.42 548.298 341.493C540.709 329.887 526.037 325.099 513.07 325.099C489.146 325.099 467.867 337.431 462.663 362.936C461.608 368.739 457.459 374.194 451.72 374.455L390.703 367.607C385.586 366.447 379.861 362.298 381.35 354.55C395.444 280.342 462.186 258 521.873 258C552.418 258 592.33 266.153 616.413 289.366C646.958 317.99 644.053 356.175 644.053 397.74V495.93C644.053 525.439 656.239 538.366 667.716 554.325C671.692 560.128 672.573 566.802 667.456 571.067C651.255 584.816 635.217 598.759 619.348 612.893L619.261 612.719" fill="#D6D6D6"/>
</g>
<defs>
<clipPath id="clip0_49_185">
<rect width="1024" height="1024" fill="white"/>
</clipPath>
</defs>
</svg>
