<svg width="1024" height="1024" viewBox="0 0 1024 1024" fill="none" xmlns="http://www.w3.org/2000/svg">
<g clip-path="url(#clip0_50_292)">
<path d="M1023 512C1023 662.896 1014.35 788.442 949.25 877.53C885.957 964.148 762.574 1024 511 1024C259.427 1024 136.044 964.148 72.7486 877.53C7.6515 788.442 -1 662.896 -1 512C-1 361.57 9.69576 235.816 75.8314 146.641C140.275 59.748 263.922 0 511 0C758.077 0 881.726 59.748 946.168 146.641C1012.3 235.816 1023 361.57 1023 512Z" fill="#C6C5BD"/>
<path d="M732.5 776C732.5 786.825 727.352 797.786 716.697 808.457C706.012 819.158 690.172 829.14 670.002 837.683C629.691 854.758 573.48 865.5 511 865.5C448.52 865.5 392.309 854.758 351.998 837.683C331.828 829.14 315.988 819.158 305.303 808.457C294.648 797.786 289.5 786.825 289.5 776C289.5 765.175 294.648 754.214 305.303 743.543C315.988 732.842 331.828 722.86 351.998 714.317C392.309 697.242 448.52 686.5 511 686.5C573.48 686.5 629.691 697.242 670.002 714.317C690.172 722.86 706.012 732.842 716.697 743.543C727.352 754.214 732.5 765.175 732.5 776Z" stroke="#9996D1" stroke-width="15"/>
<path d="M511.38 776.189L328.38 369.689C290.38 73.1894 720.38 69.6899 695.38 369.689L511.38 776.189Z" fill="#ED1E79"/>
<circle cx="511.5" cy="330.5" r="92.5" fill="#C6C5BD"/>
</g>
<defs>
<clipPath id="clip0_50_292">
<rect width="1024" height="1024" fill="white"/>
</clipPath>
</defs>
</svg>
