<svg width="500" height="500" viewBox="0 0 500 500" fill="none" xmlns="http://www.w3.org/2000/svg">
<g clip-path="url(#clip0_4_736)">
<path d="M500 250C500 323.68 495.775 384.982 463.989 428.482C433.085 470.775 372.839 500 250 500C127.162 500 66.9161 470.775 36.0101 428.482C4.22436 384.982 0 323.68 0 250C0 176.548 5.22254 115.145 37.5153 71.6021C68.982 29.1738 129.357 0 250 0C370.643 0 431.019 29.1738 462.484 71.6021C494.778 115.145 500 176.548 500 250Z" fill="#FE4208"/>
<rect x="98.8672" y="136.465" width="302.266" height="204.609" rx="15" stroke="#EDDBD9" stroke-width="20"/>
<rect x="242.676" y="351.074" width="14.6484" height="10.2539" fill="#EDDBD9"/>
<rect x="164.551" y="361.328" width="170.898" height="12.207" fill="#EDDBD9"/>
<path d="M283.608 240.885C283.555 231.135 287.965 223.776 296.892 218.356C291.897 211.209 284.352 207.277 274.389 206.507C264.957 205.763 254.649 212.006 250.877 212.006C246.892 212.006 237.752 206.773 230.579 206.773C215.755 207.012 200 218.595 200 242.16C200 249.121 201.275 256.312 203.826 263.733C207.226 273.484 219.501 297.394 232.306 296.996C239.001 296.836 243.73 292.24 252.444 292.24C260.893 292.24 265.276 296.996 272.742 296.996C285.654 296.81 296.759 275.078 300 265.301C282.678 257.145 283.608 241.39 283.608 240.885ZM268.571 197.261C275.824 188.654 275.159 180.816 274.947 178C268.544 178.372 261.132 182.357 256.908 187.272C252.258 192.532 249.522 199.041 250.106 206.374C257.04 206.905 263.363 203.345 268.571 197.261Z" fill="#EDDBD9"/>
</g>
<defs>
<clipPath id="clip0_4_736">
<rect width="500" height="500" fill="white"/>
</clipPath>
</defs>
</svg>
