<svg width="1024" height="1024" viewBox="0 0 1024 1024" fill="none" xmlns="http://www.w3.org/2000/svg">
<g clip-path="url(#clip0_4_296)">
<path d="M1024 512C1024 662.896 1015.35 788.442 950.25 877.53C886.957 964.148 763.574 1024 512 1024C260.427 1024 137.044 964.148 73.7486 877.53C8.6515 788.442 0 662.896 0 512C0 361.57 10.6958 235.816 76.8314 146.641C141.275 59.748 264.922 0 512 0C759.077 0 882.726 59.748 947.168 146.641C1013.3 235.816 1024 361.57 1024 512Z" fill="#BECCD4"/>
<circle cx="257.5" cy="215.5" r="80.5" fill="#D9D9D9"/>
<circle cx="258" cy="215" r="53" fill="black" stroke="#F0E71C" stroke-width="20"/>
<circle cx="779.5" cy="215.5" r="80.5" fill="#D9D9D9"/>
<circle cx="780" cy="215" r="53" fill="black" stroke="#F2272B" stroke-width="20"/>
<circle cx="518.5" cy="215.5" r="80.5" fill="#D9D9D9"/>
<circle cx="519" cy="215" r="53" fill="black" stroke="white" stroke-width="20"/>
<circle cx="780" cy="780" r="53" fill="black" stroke="#363636" stroke-width="20"/>
<path d="M280.976 854.042C269.641 854.042 260.076 845.611 258.654 834.366L245.911 733.635C244.211 720.195 254.686 708.312 268.233 708.312L471.678 708.312C485.254 708.312 495.738 720.243 493.991 733.707L480.922 834.437C479.467 845.65 469.916 854.042 458.609 854.042L280.976 854.042Z" fill="#B3C1C9" stroke="#363636" stroke-width="15"/>
<circle cx="299" cy="741" r="12" fill="#363636"/>
<circle cx="377" cy="741" r="12" fill="#363636"/>
<circle cx="338" cy="741" r="12" fill="#363636"/>
<circle cx="416" cy="741" r="12" fill="#363636"/>
<circle cx="455" cy="741" r="12" fill="#363636"/>
<circle cx="299" cy="819" r="12" fill="#363636"/>
<circle cx="377" cy="819" r="12" fill="#363636"/>
<circle cx="338" cy="819" r="12" fill="#363636"/>
<circle cx="416" cy="819" r="12" fill="#363636"/>
<circle cx="455" cy="819" r="12" fill="#363636"/>
<circle cx="284" cy="780" r="12" fill="#363636"/>
<circle cx="362" cy="780" r="12" fill="#363636"/>
<circle cx="323" cy="780" r="12" fill="#363636"/>
<circle cx="401" cy="780" r="12" fill="#363636"/>
<circle cx="440" cy="780" r="12" fill="#363636"/>
<circle cx="542" cy="780" r="21" fill="#363636"/>
<circle cx="198" cy="780" r="21" fill="#363636"/>
<rect x="412.5" y="449.5" width="217" height="110" rx="14.5" fill="#A8B5BC" stroke="#26292B" stroke-width="11"/>
<mask id="path-28-inside-1_4_296" fill="white">
<path d="M436.938 468C433.771 468 430.735 468.955 428.496 470.654C426.258 472.354 425 474.659 425 477.062V504.25C425 506.654 426.258 508.959 428.496 510.658C430.735 512.358 433.771 513.312 436.938 513.312H440.435L448.875 519.72C451.113 521.419 454.149 522.374 457.315 522.375H583.685C586.851 522.374 589.887 521.419 592.125 519.72L600.565 513.312H604.062C607.229 513.312 610.265 512.358 612.504 510.658C614.742 508.959 616 506.654 616 504.25V477.062C616 474.659 614.742 472.354 612.504 470.654C610.265 468.955 607.229 468 604.062 468H436.938ZM436.938 477.062H604.062V504.25H600.565C597.399 504.251 594.363 505.206 592.125 506.905L583.685 513.312H457.315L448.875 506.905C446.637 505.206 443.601 504.251 440.435 504.25H436.938V477.062Z"/>
</mask>
<path d="M436.938 468C433.771 468 430.735 468.955 428.496 470.654C426.258 472.354 425 474.659 425 477.062V504.25C425 506.654 426.258 508.959 428.496 510.658C430.735 512.358 433.771 513.312 436.938 513.312H440.435L448.875 519.72C451.113 521.419 454.149 522.374 457.315 522.375H583.685C586.851 522.374 589.887 521.419 592.125 519.72L600.565 513.312H604.062C607.229 513.312 610.265 512.358 612.504 510.658C614.742 508.959 616 506.654 616 504.25V477.062C616 474.659 614.742 472.354 612.504 470.654C610.265 468.955 607.229 468 604.062 468H436.938ZM436.938 477.062H604.062V504.25H600.565C597.399 504.251 594.363 505.206 592.125 506.905L583.685 513.312H457.315L448.875 506.905C446.637 505.206 443.601 504.251 440.435 504.25H436.938V477.062Z" fill="black"/>
<path d="M425 477.062H228H425ZM425 504.25H228H425ZM440.435 513.312L559.553 356.405L506.741 316.312H440.435V513.312ZM448.875 519.72L568.016 362.83L568.004 362.821L567.993 362.812L448.875 519.72ZM457.315 522.375L457.283 719.375H457.299H457.315V522.375ZM583.685 522.375V719.375H583.701H583.717L583.685 522.375ZM592.125 519.72L473.007 362.812L472.995 362.821L472.984 362.83L592.125 519.72ZM600.565 513.312V316.312H534.259L481.447 356.405L600.565 513.312ZM436.938 477.062V280.062H239.938V477.062H436.938ZM604.062 477.062H801.062V280.062H604.062V477.062ZM604.062 504.25V701.25H801.062V504.25H604.062ZM600.565 504.25V307.25H600.549H600.533L600.565 504.25ZM592.125 506.905L711.243 663.813L711.255 663.804L711.266 663.795L592.125 506.905ZM583.685 513.312V710.312H649.991L702.803 670.22L583.685 513.312ZM457.315 513.312L338.197 670.22L391.009 710.312H457.315V513.312ZM448.875 506.905L329.734 663.795L329.746 663.804L329.757 663.813L448.875 506.905ZM440.435 504.25L440.467 307.25H440.451H440.435V504.25ZM436.938 504.25H239.938V701.25H436.938V504.25ZM436.938 271C396.461 271 350.165 282.784 309.378 313.747L547.614 627.562C511.305 655.126 471.082 665 436.938 665V271ZM309.378 313.747C267.475 345.559 228 402.141 228 477.062H622C622 547.177 585.041 599.149 547.614 627.562L309.378 313.747ZM228 477.062V504.25H622V477.062H228ZM228 504.25C228 579.172 267.475 635.754 309.378 667.565L547.614 353.751C585.041 382.164 622 434.135 622 504.25H228ZM309.378 667.565C350.165 698.529 396.461 710.312 436.938 710.312V316.312C471.082 316.312 511.305 326.186 547.614 353.751L309.378 667.565ZM436.938 710.312H440.435V316.312H436.938V710.312ZM321.317 670.22L329.757 676.627L567.993 362.812L559.553 356.405L321.317 670.22ZM329.734 676.61C370.516 707.579 416.81 719.368 457.283 719.375L457.347 325.375C491.488 325.381 531.71 335.26 568.016 362.83L329.734 676.61ZM457.315 719.375H583.685V325.375H457.315V719.375ZM583.717 719.375C624.19 719.368 670.484 707.579 711.266 676.61L472.984 362.83C509.29 335.26 549.512 325.381 583.653 325.375L583.717 719.375ZM711.243 676.627L719.683 670.22L481.447 356.405L473.007 362.812L711.243 676.627ZM600.565 710.312H604.062V316.312H600.565V710.312ZM604.062 710.312C644.539 710.312 690.835 698.529 731.622 667.565L493.386 353.751C529.695 326.186 569.918 316.312 604.062 316.312V710.312ZM731.622 667.565C773.525 635.754 813 579.172 813 504.25H419C419 434.135 455.959 382.164 493.386 353.751L731.622 667.565ZM813 504.25V477.062H419V504.25H813ZM813 477.062C813 402.141 773.525 345.559 731.622 313.747L493.386 627.562C455.959 599.149 419 547.177 419 477.062H813ZM731.622 313.747C690.835 282.784 644.539 271 604.062 271V665C569.918 665 529.695 655.126 493.386 627.562L731.622 313.747ZM604.062 271H436.938V665H604.062V271ZM436.938 674.062H604.062V280.062H436.938V674.062ZM407.062 477.062V504.25H801.062V477.062H407.062ZM604.062 307.25H600.565V701.25H604.062V307.25ZM600.533 307.25C560.06 307.257 513.766 319.046 472.984 350.015L711.266 663.795C674.96 691.365 634.738 701.244 600.597 701.25L600.533 307.25ZM473.007 349.998L464.567 356.405L702.803 670.22L711.243 663.813L473.007 349.998ZM583.685 316.312H457.315V710.312H583.685V316.312ZM576.433 356.405L567.993 349.998L329.757 663.813L338.197 670.22L576.433 356.405ZM568.016 350.015C527.234 319.046 480.94 307.257 440.467 307.25L440.403 701.25C406.262 701.244 366.04 691.365 329.734 663.795L568.016 350.015ZM440.435 307.25H436.938V701.25H440.435V307.25ZM633.938 504.25V477.062H239.938V504.25H633.938Z" fill="black" mask="url(#path-28-inside-1_4_296)"/>
<rect x="435" y="476" width="170" height="32" fill="black"/>
<rect x="449" y="504" width="142" height="11" fill="black"/>
</g>
<defs>
<clipPath id="clip0_4_296">
<rect width="1024" height="1024" fill="white"/>
</clipPath>
</defs>
</svg>
