<svg width="1024" height="1024" viewBox="0 0 1024 1024" fill="none" xmlns="http://www.w3.org/2000/svg">
<g clip-path="url(#clip0_52_406)">
<path d="M1024 512C1024 662.896 1015.35 788.442 950.25 877.53C886.957 964.148 763.574 1024 512 1024C260.427 1024 137.044 964.148 73.7486 877.53C8.6515 788.442 0 662.896 0 512C0 361.57 10.6958 235.816 76.8314 146.641C141.275 59.748 264.922 0 512 0C759.077 0 882.726 59.748 947.168 146.641C1013.3 235.816 1024 361.57 1024 512Z" fill="#DCE2C9"/>
<rect x="160" y="501.35" width="497.483" height="497.483" rx="20" transform="rotate(-43.3264 160 501.35)" fill="url(#paint0_linear_52_406)"/>
<rect x="173.967" y="412.968" width="497.483" height="497.483" rx="20" transform="rotate(-28.7128 173.967 412.968)" fill="url(#paint1_linear_52_406)" fill-opacity="0.75"/>
<mask id="path-4-inside-1_52_406" fill="white">
<rect x="217.972" y="503.157" width="415.619" height="415.619" rx="20" transform="rotate(-43.3264 217.972 503.157)"/>
</mask>
<rect x="217.972" y="503.157" width="415.619" height="415.619" rx="20" transform="rotate(-43.3264 217.972 503.157)" fill="url(#paint2_linear_52_406)" stroke="url(#paint3_linear_52_406)" stroke-width="56" mask="url(#path-4-inside-1_52_406)"/>
</g>
<defs>
<linearGradient id="paint0_linear_52_406" x1="408.741" y1="501.35" x2="408.741" y2="998.833" gradientUnits="userSpaceOnUse">
<stop stop-color="#8674A3"/>
<stop offset="1" stop-color="#5A33C8"/>
</linearGradient>
<linearGradient id="paint1_linear_52_406" x1="422.709" y1="412.968" x2="422.709" y2="910.451" gradientUnits="userSpaceOnUse">
<stop stop-color="#A3749A"/>
<stop offset="1" stop-color="#33ACC8"/>
</linearGradient>
<linearGradient id="paint2_linear_52_406" x1="370.98" y1="765.928" x2="769.435" y2="742.947" gradientUnits="userSpaceOnUse">
<stop stop-color="#FCFCFC"/>
<stop offset="1" stop-color="#BDBDBE"/>
</linearGradient>
<linearGradient id="paint3_linear_52_406" x1="425.781" y1="503.157" x2="426.488" y2="916.895" gradientUnits="userSpaceOnUse">
<stop stop-color="#440A53"/>
<stop offset="1" stop-color="#0F0B44"/>
</linearGradient>
<clipPath id="clip0_52_406">
<rect width="1024" height="1024" fill="white"/>
</clipPath>
</defs>
</svg>
