<svg width="1024" height="1024" viewBox="0 0 1024 1024" fill="none" xmlns="http://www.w3.org/2000/svg">
<g clip-path="url(#clip0_4_250)">
<path d="M1024 512C1024 662.896 1015.35 788.442 950.25 877.53C886.957 964.148 763.574 1024 512 1024C260.427 1024 137.044 964.148 73.7486 877.53C8.6515 788.442 0 662.896 0 512C0 361.57 10.6958 235.816 76.8314 146.641C141.275 59.748 264.922 0 512 0C759.077 0 882.726 59.748 947.168 146.641C1013.3 235.816 1024 361.57 1024 512Z" fill="#41B1FB"/>
<path d="M208.813 374C208.024 374 208.024 374.398 207.629 374.786C173.356 422.628 153.266 454.393 131.989 493.608L129.627 497.92L129.23 499.492C127.263 503.417 127.654 507.726 130.414 511.256C143.018 530.862 213.537 554 370.722 554C488.118 554 613 535.177 613 499.887C613 466.55 490.088 446.554 370.722 446.554C330.93 446.554 291.931 451.652 280.899 453.613C291.536 437.141 336.446 377.137 336.446 376.75C337.232 375.967 337.232 375.967 337.232 375.574V374.791C336.446 374.398 336.051 374.006 335.265 374.006L208.813 374ZM254.509 499.884C254.509 492.825 299.028 482.63 370.725 482.63C442.422 482.63 486.548 492.825 486.548 499.884C486.548 507.723 442.424 517.529 370.725 517.529C299.025 517.532 254.509 507.729 254.509 499.884Z" fill="white"/>
<path d="M298.146 677.301C318.225 677.697 883.212 697.411 895.814 496.667C906.045 330.624 490.28 346.402 490.28 346.402C489.497 346.402 486.739 346.402 486.739 348.372C486.739 350.739 487.919 351.137 489.497 351.137C604.852 351.137 792.267 397.277 786.36 496.667C781.634 577.124 635.172 671.774 298.149 671.774C296.575 671.774 295 673.354 295 674.536C294.997 675.724 296.177 676.906 298.146 677.301Z" fill="white"/>
</g>
<defs>
<clipPath id="clip0_4_250">
<rect width="1024" height="1024" fill="white"/>
</clipPath>
</defs>
</svg>
