<svg width="500" height="500" viewBox="0 0 500 500" fill="none" xmlns="http://www.w3.org/2000/svg">
<path d="M497.198 250.707C497.198 324.178 492.997 385.306 461.389 428.683C430.657 470.856 370.749 499.998 248.599 499.998C126.449 499.998 66.5411 470.856 35.8082 428.683C4.20069 385.306 0 324.178 0 250.707C0 177.463 5.19327 116.235 37.3051 72.8155C68.5954 30.5076 128.632 1.4165 248.599 1.4165C368.566 1.4165 428.603 30.5076 459.892 72.8155C492.005 116.235 497.198 177.463 497.198 250.707Z" fill="#66B44B"/>
<path d="M246.565 126.803H485.361C463.905 51.4973 415.443 29.4246 374.194 16.6253C274.972 -14.1633 158.335 5.08137 123.376 16.6255C62.1507 36.8431 35.5153 60.586 16.6484 112.521L124.856 296.336L246.565 126.803Z" fill="#E33229"/>
<path d="M349.405 325.828L263.395 499.813C322.4 499.813 437.636 493.321 475.369 403.917C510.888 319.763 502.19 175.401 485.358 126.804H263.764L349.405 325.828Z" fill="#FBD901"/>
<ellipse cx="248.413" cy="250.893" rx="132.253" ry="132.621" fill="white"/>
<ellipse cx="248.598" cy="250.707" rx="108.762" ry="109.065" fill="url(#paint0_linear_7_265)"/>
<defs>
<linearGradient id="paint0_linear_7_265" x1="248.598" y1="141.643" x2="248.598" y2="359.772" gradientUnits="userSpaceOnUse">
<stop stop-color="#80B8E1"/>
<stop offset="1" stop-color="#116EB1"/>
</linearGradient>
</defs>
</svg>
