<svg width="1024" height="1024" viewBox="0 0 1024 1024" fill="none" xmlns="http://www.w3.org/2000/svg">
<g clip-path="url(#clip0_50_316)">
<path d="M1023 512C1023 662.896 1014.35 788.442 949.25 877.53C885.957 964.148 762.574 1024 511 1024C259.427 1024 136.044 964.148 72.7486 877.53C7.6515 788.442 -1 662.896 -1 512C-1 361.57 9.69576 235.816 75.8314 146.641C140.275 59.748 263.922 0 511 0C758.077 0 881.726 59.748 946.168 146.641C1012.3 235.816 1023 361.57 1023 512Z" fill="#F3F3F3"/>
<path d="M511.006 661.993C593.853 661.993 661.012 594.831 661.012 511.984C661.012 429.137 593.853 361.975 511.006 361.975C428.159 361.975 361 429.137 361 511.984C361 594.831 428.159 661.993 511.006 661.993Z" fill="white"/>
<path d="M381.094 587.024L251.205 362.048C224.868 407.651 211 459.383 211 512.048C211 564.712 224.861 616.445 251.195 662.048C277.529 707.651 315.406 745.522 361.016 771.843C406.625 798.164 458.364 812.016 511.025 812L640.915 587.024V586.99C627.759 609.805 608.827 628.753 586.023 641.928C563.22 655.102 537.351 662.04 511.015 662.044C484.68 662.048 458.808 655.118 436.001 641.95C413.195 628.782 394.258 609.84 381.094 587.03V587.024Z" fill="#229342"/>
<path d="M640.905 587.014L511.019 811.99C563.68 812 615.416 798.138 661.022 771.811C706.628 745.483 744.499 707.609 770.827 662C797.153 616.391 811.008 564.655 811 511.994C810.99 459.332 797.116 407.6 770.773 362H510.997L510.965 362.022C537.3 362.01 563.175 368.931 585.986 382.091C608.798 395.254 627.74 414.186 640.912 436.992C654.083 459.798 661.017 485.669 661.016 512.005C661.016 538.341 654.081 564.212 640.909 587.017L640.905 587.014Z" fill="#FBC116"/>
<path d="M511.006 630.775C576.593 630.775 629.762 577.606 629.762 512.016C629.762 446.425 576.593 393.26 511.006 393.26C445.418 393.26 392.25 446.429 392.25 512.016C392.25 577.603 445.418 630.775 511.006 630.775Z" fill="#1A73E8"/>
<path d="M511.007 362.009H770.783C744.459 316.4 706.591 278.523 660.985 252.189C615.38 225.857 563.646 211.996 510.985 212C458.323 212.003 406.591 225.871 360.991 252.211C315.389 278.55 277.526 316.43 251.208 362.044L381.098 587.02L381.133 587.039C367.954 564.238 361.012 538.369 361.003 512.033C360.995 485.697 367.921 459.824 381.086 437.014C394.248 414.205 413.189 395.263 435.996 382.098C458.802 368.932 484.676 362 511.013 362.006L511.007 362.009Z" fill="#E33B2E"/>
</g>
<defs>
<clipPath id="clip0_50_316">
<rect width="1024" height="1024" fill="white"/>
</clipPath>
</defs>
</svg>
