<svg width="1024" height="1024" viewBox="0 0 1024 1024" fill="none" xmlns="http://www.w3.org/2000/svg">
<g clip-path="url(#clip0_50_331)">
<path d="M1023 512C1023 662.896 1014.35 788.442 949.25 877.53C885.957 964.148 762.574 1024 511 1024C259.427 1024 136.044 964.148 72.7486 877.53C7.6515 788.442 -1 662.896 -1 512C-1 361.57 9.69576 235.816 75.8314 146.641C140.275 59.748 263.922 0 511 0C758.077 0 881.726 59.748 946.168 146.641C1012.3 235.816 1023 361.57 1023 512Z" fill="#FF6703"/>
<path fill-rule="evenodd" clip-rule="evenodd" d="M613.005 377.467C612.54 378.108 612.37 378.908 612.505 379.868C641.005 379.868 669.505 379.868 698.005 379.868C716.775 381.494 730.19 392.498 738.255 412.881C741.715 423.028 742.385 433.432 740.255 444.093C729.425 495.3 718.59 546.52 707.755 597.753C700.32 624.679 684.905 640.381 661.505 644.871C627.17 645.273 592.84 645.273 558.505 644.871C520.085 640.982 490.837 619.475 470.755 580.346C457.593 551.564 454.093 521.152 460.255 489.11C463.452 472.788 468.785 457.582 476.255 443.492C516.59 367.863 556.92 292.233 597.255 216.604C598.53 214.139 600.365 212.938 602.755 213.002C619.19 214.729 629.525 225.133 633.755 244.215C634.09 247.816 634.09 251.417 633.755 255.019C626.785 295.822 619.87 336.638 613.005 377.467Z" fill="#FFFEFE"/>
<path fill-rule="evenodd" clip-rule="evenodd" d="M409.005 646.972C409.457 646.546 409.624 645.945 409.505 645.171C381.005 645.171 352.505 645.171 324.005 645.171C305.111 642.992 291.694 631.588 283.755 610.958C280.957 601.168 280.29 591.163 281.755 580.946C293.15 527.96 304.483 474.94 315.755 421.884C324.356 397.459 339.606 383.354 361.505 379.567C395.339 379.167 429.172 379.167 463.005 379.567C465.083 379.678 467.083 380.178 469.005 381.068C458.26 400.478 448.01 420.285 438.255 440.491C422.703 478.449 418.87 518.064 426.755 559.338C438.407 607.734 462.824 643.55 500.005 666.78C474.755 714.198 449.505 761.617 424.255 809.035C423.648 809.965 422.898 810.668 422.005 811.136C407.656 811.916 397.239 804.611 390.755 789.227C389.167 784.504 388.25 779.6 388.005 774.522C394.781 731.953 401.781 689.438 409.005 646.972Z" fill="#FFFEFE"/>
</g>
<defs>
<clipPath id="clip0_50_331">
<rect width="1024" height="1024" fill="white"/>
</clipPath>
</defs>
</svg>
