<svg width="500" height="500" viewBox="0 0 500 500" fill="none" xmlns="http://www.w3.org/2000/svg">
<g clip-path="url(#clip0_7_130)">
<path d="M500 250C500 323.68 495.775 384.982 463.989 428.482C433.085 470.775 372.839 500 250 500C127.162 500 66.9161 470.775 36.0101 428.482C4.22436 384.982 0 323.68 0 250C0 176.548 5.22254 115.145 37.5153 71.6021C68.982 29.1738 129.357 0 250 0C370.643 0 431.019 29.1738 462.484 71.6021C494.778 115.145 500 176.548 500 250Z" fill="url(#paint0_linear_7_130)"/>
<path fill-rule="evenodd" clip-rule="evenodd" d="M400 141.051L115.858 165.816L400 168.64L398.698 316.963C398.336 358.126 364.865 391.305 323.701 391.305H175C133.579 391.305 100 357.726 100 316.305V175.997C100 149.985 119.944 128.318 145.867 126.168L362.804 108.176C370.828 107.51 379.19 108.577 385.031 114.119C390.92 119.707 397.155 128.514 400 141.051ZM343.625 119.328H355.556C356.295 119.328 356.984 119.704 357.384 120.326L365.699 133.262C366.628 134.708 365.59 136.609 363.871 136.609H352.081C351.348 136.609 350.664 136.239 350.263 135.625L341.807 122.689C340.862 121.244 341.899 119.328 343.625 119.328ZM289.751 122.804H301.682C302.421 122.804 303.11 123.179 303.51 123.801L311.825 136.738C312.754 138.184 311.716 140.085 309.997 140.085H298.207C297.474 140.085 296.79 139.715 296.389 139.101L287.933 126.164C286.988 124.72 288.025 122.804 289.751 122.804ZM249.112 128.017H237.18C235.454 128.017 234.418 129.933 235.362 131.378L243.818 144.315C244.219 144.929 244.903 145.299 245.637 145.299H257.427C259.145 145.299 260.183 143.397 259.254 141.952L250.939 129.015C250.539 128.393 249.851 128.017 249.112 128.017ZM184.61 133.231H196.541C197.28 133.231 197.969 133.607 198.368 134.229L206.684 147.165C207.613 148.611 206.575 150.512 204.856 150.512H193.066C192.333 150.512 191.649 150.142 191.248 149.528L182.791 136.592C181.847 135.147 182.884 133.231 184.61 133.231ZM143.97 138.444H132.039C130.313 138.444 129.276 140.36 130.221 141.805L138.677 154.742C139.078 155.356 139.762 155.726 140.495 155.726H152.286C154.004 155.726 155.042 153.825 154.113 152.379L145.798 139.442C145.398 138.82 144.71 138.444 143.97 138.444ZM139.863 179.284H154.45C156.17 179.284 157.208 181.189 156.275 182.634L146.044 198.492C145.644 199.113 144.957 199.487 144.219 199.487H129.802C128.09 199.487 127.05 197.597 127.968 196.151L138.028 180.293C138.427 179.665 139.119 179.284 139.863 179.284ZM367.805 235.331C368.91 235.331 369.805 236.226 369.805 237.331V248.972C369.805 250.076 368.91 250.972 367.805 250.972H128.503C127.399 250.972 126.503 250.076 126.503 248.972V237.331C126.503 236.226 127.399 235.331 128.503 235.331H367.805ZM371.326 286.86C371.326 285.755 370.43 284.86 369.326 284.86H130.024C128.919 284.86 128.024 285.755 128.024 286.86V298.501C128.024 299.605 128.919 300.501 130.024 300.501H369.326C370.43 300.501 371.326 299.605 371.326 298.501V286.86ZM367.154 334.389C368.258 334.389 369.154 335.285 369.154 336.389V348.03C369.154 349.135 368.258 350.03 367.154 350.03H127.852C126.747 350.03 125.852 349.135 125.852 348.03V336.389C125.852 335.285 126.747 334.389 127.852 334.389H367.154ZM194.606 179.284H209.193C210.913 179.284 211.951 181.189 211.018 182.634L200.787 198.492C200.387 199.113 199.7 199.487 198.962 199.487H184.545C182.832 199.487 181.793 197.597 182.711 196.151L192.771 180.293C193.17 179.665 193.862 179.284 194.606 179.284ZM264.023 182.634C264.956 181.189 263.918 179.284 262.198 179.284H247.611C246.867 179.284 246.175 179.665 245.776 180.293L235.716 196.151C234.798 197.597 235.838 199.487 237.55 199.487H251.967C252.705 199.487 253.392 199.113 253.792 198.492L264.023 182.634ZM315.203 179.284H300.616C299.872 179.284 299.18 179.665 298.782 180.293L288.721 196.151C287.803 197.597 288.843 199.487 290.555 199.487H304.972C305.71 199.487 306.397 199.113 306.797 198.492L317.028 182.634C317.961 181.189 316.923 179.284 315.203 179.284ZM353.621 179.284H368.208C369.928 179.284 370.966 181.189 370.033 182.634L359.802 198.492C359.402 199.113 358.715 199.487 357.977 199.487H343.56C341.848 199.487 340.809 197.597 341.726 196.151L351.787 180.293C352.185 179.665 352.877 179.284 353.621 179.284Z" fill="white"/>
<path d="M115.858 165.816L115.815 165.318L115.853 166.316L115.858 165.816ZM400 141.051L400.043 141.549L400.614 141.5L400.488 140.941L400 141.051ZM400 168.64L400.5 168.644L400.504 168.145L400.005 168.14L400 168.64ZM398.698 316.963L398.198 316.959L398.198 316.959L398.698 316.963ZM145.867 126.168L145.826 125.67L145.826 125.67L145.867 126.168ZM362.804 108.176L362.763 107.677L362.763 107.677L362.804 108.176ZM385.031 114.119L385.375 113.756L385.375 113.756L385.031 114.119ZM357.384 120.326L357.804 120.055L357.804 120.055L357.384 120.326ZM365.699 133.262L365.278 133.533L365.278 133.533L365.699 133.262ZM350.263 135.625L350.681 135.352L350.681 135.352L350.263 135.625ZM341.807 122.689L341.388 122.962L341.388 122.962L341.807 122.689ZM303.51 123.801L303.089 124.072L303.089 124.072L303.51 123.801ZM311.825 136.738L312.245 136.468L312.245 136.468L311.825 136.738ZM296.389 139.101L296.807 138.828L296.807 138.828L296.389 139.101ZM287.933 126.164L287.514 126.438L287.514 126.438L287.933 126.164ZM235.362 131.378L234.943 131.652L234.943 131.652L235.362 131.378ZM243.818 144.315L244.237 144.041L244.237 144.041L243.818 144.315ZM259.254 141.952L259.675 141.681L259.675 141.681L259.254 141.952ZM250.939 129.015L251.36 128.745L251.36 128.745L250.939 129.015ZM198.368 134.229L197.948 134.499L197.948 134.499L198.368 134.229ZM206.684 147.165L207.104 146.895L207.104 146.895L206.684 147.165ZM191.248 149.528L190.829 149.802L190.829 149.802L191.248 149.528ZM182.791 136.592L182.373 136.865L182.373 136.865L182.791 136.592ZM130.221 141.805L130.639 141.532L130.639 141.532L130.221 141.805ZM138.677 154.742L138.258 155.016L138.258 155.016L138.677 154.742ZM154.113 152.379L153.692 152.649L153.692 152.649L154.113 152.379ZM145.798 139.442L145.377 139.713L145.377 139.713L145.798 139.442ZM156.275 182.634L156.695 182.905L156.695 182.905L156.275 182.634ZM146.044 198.492L146.464 198.764L146.464 198.764L146.044 198.492ZM127.968 196.151L128.39 196.419L128.39 196.419L127.968 196.151ZM138.028 180.293L137.606 180.025L137.606 180.025L138.028 180.293ZM211.018 182.634L210.598 182.363L210.598 182.363L211.018 182.634ZM200.787 198.492L200.367 198.221L200.367 198.221L200.787 198.492ZM182.711 196.151L183.133 196.419L183.133 196.419L182.711 196.151ZM192.771 180.293L192.349 180.025L192.349 180.025L192.771 180.293ZM264.023 182.634L263.603 182.363L263.603 182.363L264.023 182.634ZM245.776 180.293L245.354 180.025L245.354 180.025L245.776 180.293ZM235.716 196.151L236.138 196.419L236.138 196.419L235.716 196.151ZM253.792 198.492L254.212 198.764L254.212 198.764L253.792 198.492ZM298.782 180.293L298.359 180.025L298.359 180.025L298.782 180.293ZM288.721 196.151L289.143 196.419L289.143 196.419L288.721 196.151ZM306.797 198.492L306.377 198.221L306.377 198.221L306.797 198.492ZM317.028 182.634L316.608 182.363L316.608 182.363L317.028 182.634ZM370.033 182.634L369.613 182.363L369.613 182.363L370.033 182.634ZM359.802 198.492L360.223 198.764L360.223 198.764L359.802 198.492ZM341.726 196.151L342.148 196.419L342.148 196.419L341.726 196.151ZM351.787 180.293L351.364 180.025L351.364 180.025L351.787 180.293ZM115.901 166.314L400.043 141.549L399.957 140.553L115.815 165.318L115.901 166.314ZM400.005 168.14L115.863 165.316L115.853 166.316L399.995 169.14L400.005 168.14ZM399.198 316.968L400.5 168.644L399.5 168.636L398.198 316.959L399.198 316.968ZM323.701 391.805C365.139 391.805 398.834 358.405 399.198 316.968L398.198 316.959C397.839 357.847 364.591 390.805 323.701 390.805V391.805ZM175 391.805H323.701V390.805H175V391.805ZM99.5 316.305C99.5 358.002 133.303 391.805 175 391.805V390.805C133.855 390.805 100.5 357.45 100.5 316.305H99.5ZM99.5 175.997V316.305H100.5V175.997H99.5ZM145.826 125.67C119.644 127.841 99.5 149.725 99.5 175.997H100.5C100.5 150.245 120.245 128.795 145.909 126.666L145.826 125.67ZM362.763 107.677L145.826 125.67L145.909 126.666L362.845 108.674L362.763 107.677ZM385.375 113.756C379.379 108.067 370.836 107.008 362.763 107.677L362.845 108.674C370.82 108.013 379.002 109.087 384.687 114.482L385.375 113.756ZM400.488 140.941C397.618 128.295 391.326 119.404 385.375 113.756L384.687 114.482C390.514 120.011 396.692 128.732 399.512 141.162L400.488 140.941ZM355.556 118.828H343.625V119.828H355.556V118.828ZM357.804 120.055C357.312 119.29 356.465 118.828 355.556 118.828V119.828C356.125 119.828 356.655 120.117 356.963 120.596L357.804 120.055ZM366.119 132.992L357.804 120.055L356.963 120.596L365.278 133.533L366.119 132.992ZM363.871 137.109C365.986 137.109 367.263 134.77 366.119 132.992L365.278 133.533C365.994 134.646 365.194 136.109 363.871 136.109V137.109ZM352.081 137.109H363.871V136.109H352.081V137.109ZM349.844 135.899C350.338 136.654 351.179 137.109 352.081 137.109V136.109C351.517 136.109 350.99 135.824 350.681 135.352L349.844 135.899ZM341.388 122.962L349.844 135.899L350.681 135.352L342.225 122.415L341.388 122.962ZM343.625 118.828C341.501 118.828 340.226 121.185 341.388 122.962L342.225 122.415C341.498 121.303 342.296 119.828 343.625 119.828V118.828ZM301.682 122.304H289.751V123.304H301.682V122.304ZM303.93 123.531C303.438 122.766 302.592 122.304 301.682 122.304V123.304C302.251 123.304 302.781 123.593 303.089 124.072L303.93 123.531ZM312.245 136.468L303.93 123.531L303.089 124.072L311.404 137.008L312.245 136.468ZM309.997 140.585C312.112 140.585 313.389 138.246 312.245 136.468L311.404 137.008C312.12 138.121 311.32 139.585 309.997 139.585V140.585ZM298.207 140.585H309.997V139.585H298.207V140.585ZM295.97 139.375C296.464 140.13 297.305 140.585 298.207 140.585V139.585C297.643 139.585 297.116 139.3 296.807 138.828L295.97 139.375ZM287.514 126.438L295.97 139.375L296.807 138.828L288.351 125.891L287.514 126.438ZM289.751 122.304C287.627 122.304 286.352 124.661 287.514 126.438L288.351 125.891C287.624 124.779 288.422 123.304 289.751 123.304V122.304ZM237.18 128.517H249.112V127.517H237.18V128.517ZM235.781 131.105C235.053 129.992 235.851 128.517 237.18 128.517V127.517C235.057 127.517 233.782 129.874 234.943 131.652L235.781 131.105ZM244.237 144.041L235.781 131.105L234.943 131.652L243.4 144.588L244.237 144.041ZM245.637 144.799C245.072 144.799 244.546 144.514 244.237 144.041L243.4 144.588C243.893 145.344 244.734 145.799 245.637 145.799V144.799ZM257.427 144.799H245.637V145.799H257.427V144.799ZM258.834 142.222C259.549 143.335 258.75 144.799 257.427 144.799V145.799C259.541 145.799 260.818 143.46 259.675 141.681L258.834 142.222ZM250.518 129.285L258.834 142.222L259.675 141.681L251.36 128.745L250.518 129.285ZM249.112 128.517C249.681 128.517 250.211 128.807 250.518 129.285L251.36 128.745C250.868 127.98 250.021 127.517 249.112 127.517V128.517ZM196.541 132.731H184.61V133.731H196.541V132.731ZM198.789 133.958C198.297 133.193 197.45 132.731 196.541 132.731V133.731C197.11 133.731 197.64 134.02 197.948 134.499L198.789 133.958ZM207.104 146.895L198.789 133.958L197.948 134.499L206.263 147.436L207.104 146.895ZM204.856 151.012C206.97 151.012 208.247 148.673 207.104 146.895L206.263 147.436C206.978 148.549 206.179 150.012 204.856 150.012V151.012ZM193.066 151.012H204.856V150.012H193.066V151.012ZM190.829 149.802C191.323 150.557 192.164 151.012 193.066 151.012V150.012C192.501 150.012 191.975 149.727 191.666 149.255L190.829 149.802ZM182.373 136.865L190.829 149.802L191.666 149.255L183.21 136.318L182.373 136.865ZM184.61 132.731C182.486 132.731 181.211 135.088 182.373 136.865L183.21 136.318C182.483 135.206 183.281 133.731 184.61 133.731V132.731ZM132.039 138.944H143.97V137.944H132.039V138.944ZM130.639 141.532C129.912 140.419 130.71 138.944 132.039 138.944V137.944C129.916 137.944 128.64 140.301 129.802 142.079L130.639 141.532ZM139.096 154.469L130.639 141.532L129.802 142.079L138.258 155.016L139.096 154.469ZM140.495 155.226C139.931 155.226 139.404 154.941 139.096 154.469L138.258 155.016C138.752 155.771 139.593 156.226 140.495 156.226V155.226ZM152.286 155.226H140.495V156.226H152.286V155.226ZM153.692 152.649C154.408 153.762 153.609 155.226 152.286 155.226V156.226C154.4 156.226 155.677 153.887 154.534 152.109L153.692 152.649ZM145.377 139.713L153.692 152.649L154.534 152.109L146.218 139.172L145.377 139.713ZM143.97 138.944C144.539 138.944 145.069 139.234 145.377 139.713L146.218 139.172C145.727 138.407 144.88 137.944 143.97 137.944V138.944ZM154.45 178.784H139.863V179.784H154.45V178.784ZM156.695 182.905C157.843 181.127 156.566 178.784 154.45 178.784V179.784C155.774 179.784 156.573 181.251 155.855 182.363L156.695 182.905ZM146.464 198.764L156.695 182.905L155.855 182.363L145.624 198.221L146.464 198.764ZM144.219 199.987C145.127 199.987 145.972 199.526 146.464 198.764L145.624 198.221C145.316 198.699 144.787 198.987 144.219 198.987V199.987ZM129.802 199.987H144.219V198.987H129.802V199.987ZM127.546 195.883C126.417 197.662 127.695 199.987 129.802 199.987V198.987C128.484 198.987 127.684 197.532 128.39 196.419L127.546 195.883ZM137.606 180.025L127.546 195.883L128.39 196.419L138.451 180.561L137.606 180.025ZM139.863 178.784C138.948 178.784 138.096 179.253 137.606 180.025L138.451 180.561C138.757 180.077 139.29 179.784 139.863 179.784V178.784ZM370.305 237.331C370.305 235.95 369.186 234.831 367.805 234.831V235.831C368.634 235.831 369.305 236.502 369.305 237.331H370.305ZM370.305 248.972V237.331H369.305V248.972H370.305ZM367.805 251.472C369.186 251.472 370.305 250.352 370.305 248.972H369.305C369.305 249.8 368.634 250.472 367.805 250.472V251.472ZM128.503 251.472H367.805V250.472H128.503V251.472ZM126.003 248.972C126.003 250.352 127.123 251.472 128.503 251.472V250.472C127.675 250.472 127.003 249.8 127.003 248.972H126.003ZM126.003 237.331V248.972H127.003V237.331H126.003ZM128.503 234.831C127.123 234.831 126.003 235.95 126.003 237.331H127.003C127.003 236.502 127.675 235.831 128.503 235.831V234.831ZM367.805 234.831H128.503V235.831H367.805V234.831ZM369.326 285.36C370.154 285.36 370.826 286.032 370.826 286.86H371.826C371.826 285.479 370.707 284.36 369.326 284.36V285.36ZM130.024 285.36H369.326V284.36H130.024V285.36ZM128.524 286.86C128.524 286.032 129.195 285.36 130.024 285.36V284.36C128.643 284.36 127.524 285.479 127.524 286.86H128.524ZM128.524 298.501V286.86H127.524V298.501H128.524ZM130.024 300.001C129.195 300.001 128.524 299.329 128.524 298.501H127.524C127.524 299.882 128.643 301.001 130.024 301.001V300.001ZM369.326 300.001H130.024V301.001H369.326V300.001ZM370.826 298.501C370.826 299.329 370.154 300.001 369.326 300.001V301.001C370.707 301.001 371.826 299.882 371.826 298.501H370.826ZM370.826 286.86V298.501H371.826V286.86H370.826ZM369.654 336.389C369.654 335.009 368.534 333.889 367.154 333.889V334.889C367.982 334.889 368.654 335.561 368.654 336.389H369.654ZM369.654 348.03V336.389H368.654V348.03H369.654ZM367.154 350.53C368.534 350.53 369.654 349.411 369.654 348.03H368.654C368.654 348.859 367.982 349.53 367.154 349.53V350.53ZM127.852 350.53H367.154V349.53H127.852V350.53ZM125.352 348.03C125.352 349.411 126.471 350.53 127.852 350.53V349.53C127.023 349.53 126.352 348.859 126.352 348.03H125.352ZM125.352 336.389V348.03H126.352V336.389H125.352ZM127.852 333.889C126.471 333.889 125.352 335.009 125.352 336.389H126.352C126.352 335.561 127.023 334.889 127.852 334.889V333.889ZM367.154 333.889H127.852V334.889H367.154V333.889ZM209.193 178.784H194.606V179.784H209.193V178.784ZM211.438 182.905C212.586 181.127 211.309 178.784 209.193 178.784V179.784C210.517 179.784 211.316 181.251 210.598 182.363L211.438 182.905ZM201.207 198.764L211.438 182.905L210.598 182.363L200.367 198.221L201.207 198.764ZM198.962 199.987C199.87 199.987 200.715 199.526 201.207 198.764L200.367 198.221C200.059 198.699 199.53 198.987 198.962 198.987V199.987ZM184.545 199.987H198.962V198.987H184.545V199.987ZM182.289 195.883C181.16 197.662 182.438 199.987 184.545 199.987V198.987C183.227 198.987 182.427 197.532 183.133 196.419L182.289 195.883ZM192.349 180.025L182.289 195.883L183.133 196.419L193.194 180.561L192.349 180.025ZM194.606 178.784C193.691 178.784 192.839 179.253 192.349 180.025L193.194 180.561C193.5 180.077 194.033 179.784 194.606 179.784V178.784ZM262.198 179.784C263.522 179.784 264.321 181.251 263.603 182.363L264.443 182.905C265.591 181.127 264.314 178.784 262.198 178.784V179.784ZM247.611 179.784H262.198V178.784H247.611V179.784ZM246.199 180.561C246.505 180.077 247.038 179.784 247.611 179.784V178.784C246.696 178.784 245.844 179.253 245.354 180.025L246.199 180.561ZM236.138 196.419L246.199 180.561L245.354 180.025L235.294 195.883L236.138 196.419ZM237.55 198.987C236.232 198.987 235.432 197.532 236.138 196.419L235.294 195.883C234.165 197.662 235.443 199.987 237.55 199.987V198.987ZM251.967 198.987H237.55V199.987H251.967V198.987ZM253.372 198.221C253.064 198.699 252.535 198.987 251.967 198.987V199.987C252.875 199.987 253.72 199.526 254.212 198.764L253.372 198.221ZM263.603 182.363L253.372 198.221L254.212 198.764L264.443 182.905L263.603 182.363ZM300.616 179.784H315.203V178.784H300.616V179.784ZM299.204 180.561C299.511 180.077 300.043 179.784 300.616 179.784V178.784C299.701 178.784 298.85 179.253 298.359 180.025L299.204 180.561ZM289.143 196.419L299.204 180.561L298.359 180.025L288.299 195.883L289.143 196.419ZM290.555 198.987C289.237 198.987 288.437 197.532 289.143 196.419L288.299 195.883C287.17 197.662 288.448 199.987 290.555 199.987V198.987ZM304.972 198.987H290.555V199.987H304.972V198.987ZM306.377 198.221C306.069 198.699 305.54 198.987 304.972 198.987V199.987C305.88 199.987 306.725 199.526 307.218 198.764L306.377 198.221ZM316.608 182.363L306.377 198.221L307.218 198.764L317.449 182.905L316.608 182.363ZM315.203 179.784C316.527 179.784 317.326 181.251 316.608 182.363L317.449 182.905C318.596 181.127 317.319 178.784 315.203 178.784V179.784ZM368.208 178.784H353.621V179.784H368.208V178.784ZM370.454 182.905C371.601 181.127 370.324 178.784 368.208 178.784V179.784C369.532 179.784 370.331 181.251 369.613 182.363L370.454 182.905ZM360.223 198.764L370.454 182.905L369.613 182.363L359.382 198.221L360.223 198.764ZM357.977 199.987C358.885 199.987 359.73 199.526 360.223 198.764L359.382 198.221C359.074 198.699 358.545 198.987 357.977 198.987V199.987ZM343.56 199.987H357.977V198.987H343.56V199.987ZM341.304 195.883C340.175 197.662 341.453 199.987 343.56 199.987V198.987C342.242 198.987 341.442 197.532 342.148 196.419L341.304 195.883ZM351.364 180.025L341.304 195.883L342.148 196.419L352.209 180.561L351.364 180.025ZM353.621 178.784C352.706 178.784 351.855 179.253 351.364 180.025L352.209 180.561C352.516 180.077 353.048 179.784 353.621 179.784V178.784Z" fill="white"/>
</g>
<defs>
<linearGradient id="paint0_linear_7_130" x1="250" y1="0" x2="250" y2="500" gradientUnits="userSpaceOnUse">
<stop stop-color="#FD0C6C"/>
<stop offset="1" stop-color="#FD0332"/>
</linearGradient>
<clipPath id="clip0_7_130">
<rect width="500" height="500" fill="white"/>
</clipPath>
</defs>
</svg>
