<svg width="1024" height="1024" viewBox="0 0 1024 1024" fill="none" xmlns="http://www.w3.org/2000/svg">
<g clip-path="url(#clip0_50_368)">
<path d="M1023 512C1023 662.896 1014.35 788.442 949.25 877.53C885.957 964.148 762.574 1024 511 1024C259.427 1024 136.044 964.148 72.7486 877.53C7.6515 788.442 -1 662.896 -1 512C-1 361.57 9.69576 235.816 75.8314 146.641C140.275 59.748 263.922 0 511 0C758.077 0 881.726 59.748 946.168 146.641C1012.3 235.816 1023 361.57 1023 512Z" fill="url(#paint0_linear_50_368)"/>
<path d="M564.25 561.88H545.5C545.5 569.117 549.666 575.71 556.206 578.815L564.25 561.88ZM451.75 561.88L459.794 578.815C466.334 575.71 470.5 569.117 470.5 561.88H451.75ZM545.5 268V561.88H583V268H545.5ZM508 230.5C528.711 230.5 545.5 247.289 545.5 268H583C583 226.579 549.423 193 508 193V230.5ZM470.5 268C470.5 247.289 487.289 230.5 508 230.5V193C466.577 193 433 226.579 433 268H470.5ZM470.5 561.88V268H433V561.88H470.5ZM395.5 680.5C395.5 635.65 421.744 596.894 459.794 578.815L443.706 544.945C393.071 568.997 358 620.635 358 680.5H395.5ZM508 793C445.866 793 395.5 742.634 395.5 680.5H358C358 763.341 425.157 830.5 508 830.5V793ZM620.5 680.5C620.5 742.634 570.134 793 508 793V830.5C590.841 830.5 658 763.341 658 680.5H620.5ZM556.206 578.815C594.257 596.894 620.5 635.65 620.5 680.5H658C658 620.635 622.93 568.997 572.294 544.945L556.206 578.815Z" fill="white"/>
<path d="M508 699.25V624.25" stroke="white" stroke-width="33.3333" stroke-linecap="round" stroke-linejoin="round"/>
<path d="M639.25 511.75H714.25" stroke="white" stroke-width="33.3333" stroke-linecap="round" stroke-linejoin="round"/>
<path d="M639.25 436.75H714.25" stroke="white" stroke-width="33.3333" stroke-linecap="round" stroke-linejoin="round"/>
<path d="M639.25 361.75H714.25" stroke="white" stroke-width="33.3333" stroke-linecap="round" stroke-linejoin="round"/>
<path d="M639.25 286.75H789.25" stroke="white" stroke-width="33.3333" stroke-linecap="round" stroke-linejoin="round"/>
</g>
<defs>
<linearGradient id="paint0_linear_50_368" x1="511" y1="0" x2="511" y2="1024" gradientUnits="userSpaceOnUse">
<stop stop-color="#32ADDE"/>
<stop offset="1" stop-color="#17E5FC"/>
</linearGradient>
<clipPath id="clip0_50_368">
<rect width="1024" height="1024" fill="white"/>
</clipPath>
</defs>
</svg>
