<svg width="500" height="500" viewBox="0 0 500 500" fill="none" xmlns="http://www.w3.org/2000/svg">
<g clip-path="url(#clip0_7_32)">
<path d="M500 250C500 323.68 495.775 384.982 463.989 428.482C433.085 470.775 372.839 500 250 500C127.162 500 66.9161 470.775 36.0101 428.482C4.22436 384.982 0 323.68 0 250C0 176.548 5.22254 115.145 37.5153 71.6021C68.982 29.1738 129.357 0 250 0C370.643 0 431.019 29.1738 462.484 71.6021C494.778 115.145 500 176.548 500 250Z" fill="url(#paint0_linear_7_32)"/>
<path fill-rule="evenodd" clip-rule="evenodd" d="M236.496 98C212.59 98 193.21 117.38 193.21 141.286V288.067C180.178 299.942 172 317.051 172 336.071C172 371.142 199.805 399.719 234.573 400.958C235.211 400.986 235.852 401 236.496 401L236.574 401C236.613 401 236.652 401 236.69 401L236.808 401C236.848 401 236.888 401 236.929 401C272.788 401 301.857 371.931 301.857 336.071C301.857 316.634 293.316 299.191 279.781 287.292V141.286C279.781 117.38 260.402 98 236.496 98ZM236.712 219.2C233.007 219.2 230.003 222.204 230.003 225.909V310.918C218.801 313.801 210.524 323.97 210.524 336.071C210.524 350.415 222.152 362.043 236.496 362.043C250.839 362.043 262.467 350.415 262.467 336.071C262.467 324.126 254.403 314.064 243.421 311.034V225.909C243.421 222.204 240.418 219.2 236.712 219.2Z" fill="white"/>
<rect x="302" y="135" width="47" height="17" fill="white"/>
<rect x="302" y="197" width="47" height="19" fill="white"/>
<rect x="302" y="261" width="47" height="16" fill="white"/>
<circle cx="236.5" cy="336.5" r="9.5" fill="white"/>
</g>
<defs>
<linearGradient id="paint0_linear_7_32" x1="250" y1="0" x2="250" y2="500" gradientUnits="userSpaceOnUse">
<stop stop-color="#30B0E0"/>
<stop offset="1" stop-color="#1ADEF8"/>
</linearGradient>
<clipPath id="clip0_7_32">
<rect width="500" height="500" fill="white"/>
</clipPath>
</defs>
</svg>
