<svg width="1024" height="1024" viewBox="0 0 1024 1024" fill="none" xmlns="http://www.w3.org/2000/svg">
<g clip-path="url(#clip0_50_339)">
<path d="M1023 512C1023 662.896 1014.35 788.442 949.25 877.53C885.957 964.148 762.574 1024 511 1024C259.427 1024 136.044 964.148 72.7486 877.53C7.6515 788.442 -1 662.896 -1 512C-1 361.57 9.69576 235.816 75.8314 146.641C140.275 59.748 263.922 0 511 0C758.077 0 881.726 59.748 946.168 146.641C1012.3 235.816 1023 361.57 1023 512Z" fill="white"/>
<path d="M424.109 602.842L325 639V259H546.458C692.456 277.557 707.083 442.292 696.147 522.339L595.671 545.535C595.671 305.391 495.878 348.371 424.109 348.371V602.842Z" fill="black"/>
<path d="M541.771 766H371C427.286 727.419 607.119 653.925 690 622C680.164 725.245 587.082 761.019 541.771 766Z" fill="#175D98"/>
</g>
<defs>
<clipPath id="clip0_50_339">
<rect width="1024" height="1024" fill="white"/>
</clipPath>
</defs>
</svg>
