<svg width="500" height="500" viewBox="0 0 500 500" fill="none" xmlns="http://www.w3.org/2000/svg">
<g clip-path="url(#clip0_4_746)">
<path d="M500 250C500 323.68 495.775 384.982 463.989 428.482C433.085 470.775 372.839 500 250 500C127.162 500 66.9161 470.775 36.0101 428.482C4.22436 384.982 0 323.68 0 250C0 176.548 5.22254 115.145 37.5153 71.6021C68.982 29.1738 129.357 0 250 0C370.643 0 431.019 29.1738 462.484 71.6021C494.778 115.145 500 176.548 500 250Z" fill="url(#paint0_linear_4_746)"/>
<path d="M266.963 213.71C266.903 168.099 215.952 140.007 108.072 131H108.062C103.768 131 100.281 134.116 100.281 137.968V291.282C100.281 295.13 103.768 298.25 108.062 298.25H115.123C179.542 290.025 224.996 273.218 248.557 252.098C260.786 241.122 266.982 228.218 266.963 213.71Z" fill="white"/>
<path d="M389.87 131H327.337C340.851 135.494 352.174 143.095 360.991 150.632C370.164 158.487 376.166 167.498 378.861 177.434C383.697 195.326 376.683 213.997 359.558 228.657C336.746 248.238 301.2 264.443 253.925 276.857C226.933 283.95 195.942 292.373 162.56 298.25H389.87C394.169 298.25 397.651 295.13 397.651 291.282V137.968C397.651 134.117 394.169 131.001 389.87 131.001M122.406 332.376C120.537 330.328 118.05 329.394 114.874 329.394H106.722V361.629H114.874C118.05 361.629 120.537 360.695 122.406 358.647C124.703 356.09 124.773 351.3 124.773 345.202C124.773 339.103 124.703 334.933 122.406 332.376ZM127.011 363.502C124.208 366.298 120.163 367.667 115.558 367.667H100V323.355H115.558C120.163 323.355 124.209 324.724 127.011 327.526C131.805 332.32 131.495 338.789 131.495 345.202C131.495 351.61 131.805 358.707 127.011 363.502ZM150.017 367.667H156.739V323.354H150.017V367.667ZM193.311 329.394H183.352V343.269H193.311C197.792 343.269 200.838 340.717 200.838 336.361C200.838 332.006 197.792 329.393 193.311 329.393V329.394ZM201.088 367.667L191.753 348.997H183.352V367.667H176.63V323.356H193.806C202.207 323.356 207.561 328.77 207.561 336.301C207.561 342.649 203.705 346.695 198.721 348.064L208.934 367.667H201.088ZM226.055 367.667V323.356H254.369V329.394H232.773V342.339H251.192V348.309H232.773V361.629H254.369V367.667H226.055ZM285.809 368.042C281.199 368.042 277.218 366.364 274.171 363.312C269.811 358.952 269.876 354.037 269.876 345.512C269.876 336.985 269.811 332.071 274.171 327.711C277.218 324.664 281.199 322.986 285.809 322.986C293.96 322.986 300.058 327.771 301.616 336.616H294.769C293.71 332.131 290.728 329.019 285.809 329.019C283.192 329.019 280.829 330.013 279.271 331.697C277.098 334.064 276.594 336.616 276.594 345.512C276.594 354.411 277.098 356.964 279.271 359.326C280.829 361.01 283.192 362.004 285.809 362.004C290.728 362.004 293.775 358.897 294.829 354.411H301.616C300.123 363.247 293.839 368.042 285.809 368.042ZM338.678 333.065V367.667H327.785V333.065H316.897V323.356H349.571V333.065H338.678ZM385.311 367.667H377.22L362.591 323.356H373.859L381.331 348.128L388.673 323.356H400L385.311 367.667Z" fill="white"/>
</g>
<defs>
<linearGradient id="paint0_linear_4_746" x1="250" y1="0" x2="250" y2="500" gradientUnits="userSpaceOnUse">
<stop stop-color="#0C0C9D"/>
<stop offset="1" stop-color="#0000FA"/>
</linearGradient>
<clipPath id="clip0_4_746">
<rect width="500" height="500" fill="white"/>
</clipPath>
</defs>
</svg>
