<svg width="500" height="500" viewBox="0 0 500 500" fill="none" xmlns="http://www.w3.org/2000/svg">
<g clip-path="url(#clip0_4_791)">
<path d="M500 250C500 323.68 495.775 384.982 463.989 428.482C433.085 470.775 372.839 500 250 500C127.162 500 66.9161 470.775 36.0101 428.482C4.22436 384.982 0 323.68 0 250C0 176.548 5.22254 115.145 37.5153 71.6021C68.982 29.1738 129.357 0 250 0C370.643 0 431.019 29.1738 462.484 71.6021C494.778 115.145 500 176.548 500 250Z" fill="url(#paint0_linear_4_791)"/>
<path fill-rule="evenodd" clip-rule="evenodd" d="M239.847 254.465C239.847 272.757 253.252 281.829 268.176 290.266L281.495 297.836C288.751 301.922 291.985 306.535 291.985 312.803C291.985 321.09 285.865 326.241 276.012 326.241C257.852 326.241 252.389 311.149 249.431 296.387L248.975 294.088H240.083V335.656H246.989L247.842 334.687C249.442 332.896 249.442 332.896 250.985 332.896C253.653 332.807 257.089 333.61 261.063 334.541C266.05 335.706 271.706 337.026 277.626 337.026C292.642 337.026 313.802 326.948 313.802 304.541C313.802 288.912 304.441 281.911 293.132 274.985L268.301 260.267C262.602 256.875 259.832 252.346 259.832 246.422C259.832 241.574 263.703 234.366 274.416 234.366C282.364 234.366 292.135 237.313 297.101 260.349L297.595 262.611H306.303L305.217 225.41H298.244L297.413 226.851C297.04 227.522 296.409 227.934 295.772 227.934C295.408 227.916 293.444 227.285 292.269 226.908C287.829 225.483 281.165 223.343 274.416 223.343C254.381 223.343 239.847 236.428 239.847 254.465ZM78.5294 275.363C78.5294 245.951 92.3264 235.511 104.143 235.511C117.157 235.511 124.932 246.431 124.932 256.992V308.012C123.346 314.588 115.969 319.356 107.359 319.356C94.0585 319.356 78.5294 307.83 78.5294 275.363ZM145.721 172.022L144.977 172.286C140.855 173.757 124.611 179.08 111.497 182.307L109.317 182.849V191.951L112.476 191.621C119.829 190.863 122.62 191.823 123.667 192.763C124.871 193.853 124.937 196.061 124.937 199.564V230.199C118.204 225.424 111.691 223.339 103.461 223.339C90.3941 223.339 77.4074 229.898 67.8437 241.335C58.4371 252.576 53.0475 267.657 53.0475 282.706C53.0475 335.502 93.1458 337.022 97.716 337.022C108.893 337.022 118.025 333.546 124.937 326.762V334.91L128.232 337.372L165.347 324.245V315.443L162.263 315.682C155.048 316.247 152.28 315.202 151.229 314.232C150.157 313.236 149.961 311.499 149.961 308.426V173.504L145.999 171.922L145.721 172.022ZM59.9278 346.561H50V347.951C54.1764 347.951 54.272 349.019 54.272 353.464V371.168C54.272 375.72 53.7076 376.695 51.0765 376.695H50V378.135H60.3944V376.695H59.2792C56.6846 376.695 56.1201 375.72 56.1201 371.168V353.6L76.2967 378.729H77.5917V353.461C77.5917 348.918 78.1494 347.949 80.7872 347.949H81.8569V346.558H71.1939V347.949C75.6867 347.949 75.7436 348.784 75.7436 353.461V366.309L59.9278 346.561ZM128.838 346.561H102.143V347.988C106.306 347.988 106.403 349.019 106.403 353.509V371.171C106.403 375.768 105.848 376.697 103.201 376.697H102.143V378.138H128.838L131.116 368.26H129.68C127.308 373.777 123.833 376.469 117.71 376.469C114.515 376.469 113.96 375.859 113.96 372.388V363.018C119.151 363.018 120.262 365.57 120.728 370.206H122.16V354.167H120.728C120.175 358.653 118.965 360.933 113.96 361.031V350.366C113.96 348.695 114.419 348.454 117.854 348.454C121.293 348.454 122.904 348.827 124.573 350.086C126.478 351.477 126.894 352.398 127.406 356.065H128.835L128.838 346.561ZM155.808 346.561V356.345H157.067C157.893 350.505 160.221 348.65 165.866 348.454V371.168C165.866 375.814 165.866 376.695 161.318 376.695V378.135H177.963V376.695C173.472 376.695 173.431 375.814 173.431 371.168V348.454C179.314 348.552 181.354 350.637 182.232 356.345H183.491V346.561H155.808ZM224.552 367.659L219.863 353.466C219.447 352.271 218.937 351.101 218.937 349.804C218.937 348.506 219.581 347.956 221.208 347.956H222.096V346.565H208.178V347.956C210.409 348.832 210.782 349.346 212.212 353.468L220.976 378.736H222.13L231.086 356.629L238.784 378.736H240.083L248.714 353.468C249.456 351.338 250.289 348.281 252.977 347.956V346.565H243.936V347.956H245.409C247.08 347.956 247.683 348.506 247.683 349.854C247.683 350.641 247.639 350.828 246.752 353.468L241.981 367.661L237.484 353.468C236.747 351.249 236.64 350.68 236.64 349.904C236.64 348.509 237.304 347.958 238.927 347.958H239.612V346.567H224.679V347.958C228.294 347.958 229.033 351.017 230.101 353.844L224.552 367.659ZM402.937 362.142V353.466C402.937 348.923 403.492 347.953 406.137 347.953H407.209V346.563H391.117V347.953C395.287 347.953 395.38 349.021 395.38 353.466V371.234C395.38 375.768 394.825 376.747 392.18 376.747H391.117V378.138H407.209V376.747H406.137C403.492 376.747 402.937 375.768 402.937 371.234V364.454L404.056 363.348L410.181 371.234C411.091 372.391 413.151 374.382 413.151 375.862C413.151 376.471 412.628 376.747 411.426 376.747H409.332V378.138H425.241V376.747C423.156 375.912 422.779 375.591 419.267 371.234L408.875 358.432L413.463 353.698C416.672 350.405 418.998 348.279 423.714 348.088V346.563H410.454V347.953H413.513C414.669 347.953 415.052 348.14 415.052 348.695C415.052 349.251 414.348 350.366 413.34 351.42L411.292 353.464L402.937 362.142ZM293.965 347.717C299.063 347.717 302.224 353.327 302.224 362.413C302.224 371.769 299.3 376.974 293.965 376.974C288.625 376.974 285.714 371.769 285.714 362.413C285.714 353.327 288.862 347.717 293.965 347.717ZM293.965 345.957C284.563 345.957 277.512 352.911 277.512 362.276C277.512 371.692 284.563 378.732 293.965 378.732C303.381 378.732 310.425 371.69 310.425 362.276C310.427 352.908 303.433 345.957 293.965 345.957ZM347.216 350.589C347.216 348.923 347.91 348.322 349.822 348.322C353.479 348.322 355.093 350.366 355.093 354.856C355.093 360.612 352.738 361.898 347.216 361.955V350.589ZM355.781 362.599C359.875 361.577 362.982 359.213 362.982 354.718C362.982 351.099 360.567 348.65 357.315 347.391C355.239 346.654 354.536 346.561 349.433 346.561H335.399V347.988C339.569 347.988 339.648 349.064 339.648 353.509V371.171C339.648 375.723 339.111 376.697 336.453 376.697H335.399V378.138H351.49V376.697H350.405C347.769 376.697 347.214 375.768 347.214 371.171V363.48H348.188L357.74 378.135H367.333V376.695C365.485 376.228 364.875 375.623 361.782 371.168L355.781 362.599Z" fill="white"/>
<path fill-rule="evenodd" clip-rule="evenodd" d="M181.095 191.73C181.055 189.078 181.543 186.444 182.531 183.982C183.518 181.52 184.985 179.279 186.846 177.389C188.708 175.5 190.927 173.999 193.373 172.974C195.82 171.95 198.446 171.423 201.099 171.423C203.752 171.423 206.378 171.95 208.825 172.974C211.271 173.999 213.49 175.5 215.352 177.389C217.213 179.279 218.68 181.52 219.667 183.982C220.655 186.444 221.143 189.078 221.103 191.73C221.103 194.357 220.586 196.959 219.581 199.386C218.576 201.813 217.103 204.018 215.246 205.876C213.389 207.734 211.183 209.208 208.756 210.213C206.33 211.219 203.728 211.736 201.101 211.736C198.474 211.737 195.872 211.22 193.444 210.215C191.017 209.21 188.811 207.736 186.953 205.879C185.095 204.021 183.621 201.815 182.616 199.387C181.611 196.96 181.094 194.358 181.095 191.73ZM169.133 309.048C169.133 309.048 180.283 332.609 202.278 332.609C224.273 332.609 234.592 309.048 234.592 309.048C234.592 309.048 218.686 317.271 202.278 317.271C186.346 317.271 169.133 309.048 169.133 309.048ZM180.351 282.348C180.351 282.348 187.682 298.387 202.137 298.387C216.585 298.387 223.372 282.348 223.372 282.348C223.372 282.348 211.609 286.279 202.137 286.279C192.655 286.279 180.351 282.348 180.351 282.348ZM184.796 255.096C184.796 255.096 190.611 268.342 202.073 268.342C213.544 268.342 218.929 255.096 218.929 255.096C218.929 255.096 209.588 257.502 202.073 257.502C194.56 257.502 184.796 255.096 184.796 255.096ZM189.066 228.977C189.066 228.977 193.431 238.9 202.021 238.9C210.619 238.9 214.662 228.977 214.662 228.977C214.662 228.977 207.067 231.002 201.424 231.002C195.787 231.002 189.066 228.977 189.066 228.977Z" fill="white"/>
<path fill-rule="evenodd" clip-rule="evenodd" d="M407.911 166.51C419.989 183.446 419.939 207.077 410.041 233.224C412.806 238.215 414.481 244.556 415.078 252.235C447.572 207.635 459.357 166.51 442.025 142.184C411.484 99.3685 302.241 123.262 198.056 197.541C175.817 213.395 169.504 219.834 160.404 228.929C171.318 221.2 183.61 212.605 200.839 200.327C286.175 139.476 377.872 124.382 407.911 166.51Z" fill="white"/>
<path fill-rule="evenodd" clip-rule="evenodd" d="M422.933 325.601C412.811 323.81 411.512 323.573 411.512 308.9V262.729C411.512 236.594 401.038 223.341 380.399 223.341C368.739 223.341 358.101 228.312 349.5 237.625V174.048L345.727 171.783L345.367 171.938L344.393 172.332C339.548 174.314 320.739 179.931 312.101 182.335L310.008 182.915V191.971L313.189 191.614C315.097 191.402 316.576 191.402 318.613 191.402C320.748 191.402 322.259 191.849 323.124 192.729C324.565 194.195 324.519 197.097 324.49 199.43L324.471 200.468V308.431C324.471 323.104 323.561 324.381 312.34 325.567L309.775 325.838V334.732H363.024V325.615L362.553 325.567C352.27 324.47 349.498 324.172 349.498 308.661V254.233C350.791 252.638 360.252 241.476 371.889 241.476C381.981 241.476 386.487 248.313 386.487 263.649V308.895C386.487 323.143 384.025 324.775 373.521 325.56L373.303 325.574V334.73H425.295V326.013L422.933 325.601Z" fill="white"/>
</g>
<defs>
<linearGradient id="paint0_linear_4_791" x1="250" y1="0" x2="250" y2="500" gradientUnits="userSpaceOnUse">
<stop stop-color="#AF3356"/>
<stop offset="1" stop-color="#E50944"/>
</linearGradient>
<clipPath id="clip0_4_791">
<rect width="500" height="500" fill="white"/>
</clipPath>
</defs>
</svg>
