<svg width="1024" height="1024" viewBox="0 0 1024 1024" fill="none" xmlns="http://www.w3.org/2000/svg">
<g clip-path="url(#clip0_4_551)">
<path d="M1024 509C1024 659.896 1015.35 785.442 950.25 874.53C886.957 961.148 763.574 1021 512 1021C260.427 1021 137.044 961.148 73.7486 874.53C8.6515 785.442 0 659.896 0 509C0 358.57 10.6958 232.816 76.8314 143.641C141.275 56.748 264.922 -3 512 -3C759.077 -3 882.726 56.748 947.168 143.641C1013.3 232.816 1024 358.57 1024 509Z" fill="url(#paint0_linear_4_551)"/>
<rect x="192" y="269" width="640" height="440" rx="15" stroke="white" stroke-width="20"/>
<rect x="497" y="719" width="30" height="21" fill="white"/>
<rect x="337" y="740" width="350" height="25" fill="white"/>
<rect x="218" y="294" width="587" height="391" fill="white"/>
</g>
<defs>
<linearGradient id="paint0_linear_4_551" x1="512" y1="-3" x2="512" y2="1021" gradientUnits="userSpaceOnUse">
<stop stop-color="#5EABFE"/>
<stop offset="1" stop-color="#0E80FD"/>
</linearGradient>
<clipPath id="clip0_4_551">
<rect width="1024" height="1024" fill="white"/>
</clipPath>
</defs>
</svg>
