<svg width="500" height="500" viewBox="0 0 500 500" fill="none" xmlns="http://www.w3.org/2000/svg">
<g clip-path="url(#clip0_14_561)">
<path d="M500 250C500 323.68 495.775 384.982 463.989 428.482C433.085 470.775 372.839 500 250 500C127.162 500 66.9161 470.775 36.0101 428.482C4.22436 384.982 0 323.68 0 250C0 176.548 5.22254 115.145 37.5153 71.6021C68.982 29.1738 129.357 0 250 0C370.643 0 431.019 29.1738 462.484 71.6021C494.778 115.145 500 176.548 500 250Z" fill="#D7D8D2"/>
<rect x="41.7891" y="119.581" width="416.102" height="3.42189" fill="#7ACCEE" fill-opacity="0.75"/>
<rect x="37" y="164.066" width="416.102" height="3.42189" fill="#7ACCEE" fill-opacity="0.75"/>
<rect x="41.7891" y="208.55" width="416.102" height="3.42189" fill="#7ACCEE" fill-opacity="0.75"/>
<rect x="41.7891" y="250.297" width="416.102" height="3.42189" fill="#7ACCEE" fill-opacity="0.75"/>
<rect x="41.7891" y="294.782" width="416.102" height="3.42189" fill="#7ACCEE" fill-opacity="0.75"/>
<rect x="41.7891" y="339.951" width="416.102" height="3.42189" fill="#7ACCEE" fill-opacity="0.75"/>
<rect x="45.8984" y="381.698" width="416.102" height="3.42189" fill="#7ACCEE" fill-opacity="0.75"/>
<circle cx="249.844" cy="250.297" r="135.297" stroke="#1F2126" stroke-width="10"/>
<path d="M297.411 301.284L176.619 349.874C215.765 378.892 256.692 375.196 278.592 371.432L297.411 301.284Z" fill="#1F2126"/>
<path d="M127.686 263.985C127.686 306.69 155.973 334.248 170.117 342.688L231.027 319.077L127.686 263.985Z" fill="#1F2126"/>
<path d="M162.931 163.039L183.462 284.174L127.686 252.693C125.222 195.753 150.156 169.199 162.931 163.039Z" fill="#1F2126"/>
<path d="M170.117 156.538L176.619 210.604L256.692 125.056C206.048 123.14 177.874 145.245 170.117 156.538Z" fill="#1F2126"/>
<path d="M269.011 125.056L231.027 168.172L353.189 180.833C338.954 147.162 291.139 129.619 269.011 125.056Z" fill="#1F2126"/>
<path d="M285.778 180.833L359.691 190.757C380.496 238.937 372.694 278.585 366.192 292.387L285.778 180.833Z" fill="#1F2126"/>
<path d="M324.103 249.613L359.691 301.284C354.489 331.122 310.301 359.113 288.858 369.379L324.103 249.613Z" fill="#1F2126"/>
</g>
<defs>
<clipPath id="clip0_14_561">
<rect width="500" height="500" fill="white"/>
</clipPath>
</defs>
</svg>
