<svg width="1024" height="1024" viewBox="0 0 1024 1024" fill="none" xmlns="http://www.w3.org/2000/svg">
<g clip-path="url(#clip0_4_619)">
<path d="M1024 512C1024 662.896 1015.35 788.442 950.25 877.53C886.957 964.148 763.574 1024 512 1024C260.427 1024 137.044 964.148 73.7486 877.53C8.6515 788.442 0 662.896 0 512C0 361.57 10.6958 235.816 76.8314 146.641C141.275 59.748 264.922 0 512 0C759.077 0 882.726 59.748 947.168 146.641C1013.3 235.816 1024 361.57 1024 512Z" fill="#D7D8D5"/>
<line x1="116" y1="243.5" x2="908" y2="243.5" stroke="#5CAAFE" stroke-width="3"/>
<line x1="116" y1="332.5" x2="908" y2="332.5" stroke="#5CAAFE" stroke-width="3"/>
<line x1="116" y1="421.5" x2="908" y2="421.5" stroke="#5CAAFE" stroke-width="3"/>
<line x1="116" y1="510.5" x2="908" y2="510.5" stroke="#5CAAFE" stroke-width="3"/>
<line x1="116" y1="599.5" x2="908" y2="599.5" stroke="#5CAAFE" stroke-width="3"/>
<line x1="116" y1="688.5" x2="908" y2="688.5" stroke="#5CAAFE" stroke-width="3"/>
<line x1="116" y1="777.5" x2="908" y2="777.5" stroke="#5CAAFE" stroke-width="3"/>
<path d="M511.5 807C470.458 807 432.011 799.197 396.157 783.59C360.303 767.983 328.99 746.784 302.22 719.992C275.385 693.178 254.306 661.844 238.983 625.99C223.661 590.136 216 551.973 216 511.5C216 471.006 223.803 432.831 239.41 396.977C255.017 361.123 276.216 329.8 303.008 303.008C329.822 276.194 361.156 254.984 397.01 239.377C432.864 223.771 471.027 215.978 511.5 216C545.975 216 578.808 221.746 610 233.238C641.192 244.729 669.647 260.872 695.367 281.667L742.975 327.633C762.675 353.353 778.271 381.808 789.763 413C801.254 444.192 807 477.025 807 511.5C807 551.994 799.339 590.169 784.017 626.023C768.694 661.877 747.626 693.2 720.812 719.992C693.999 746.806 662.665 768.016 626.811 783.623C590.957 799.229 552.52 807.022 511.5 807ZM511.5 741.333C575.525 741.333 629.842 719.029 674.452 674.419C719.061 629.809 741.355 575.503 741.333 511.5C741.333 447.475 719.029 393.158 674.419 348.548C629.809 303.939 575.503 281.645 511.5 281.667C447.475 281.667 393.158 303.971 348.548 348.581C303.939 393.191 281.645 447.497 281.667 511.5C281.667 575.525 303.971 629.842 348.581 674.452C393.191 719.061 447.497 741.355 511.5 741.333ZM511.5 445.833H697.008C687.158 417.925 671.836 393.431 651.042 372.352C630.247 351.273 606.717 336.093 580.45 326.813L511.5 445.833ZM454.862 478.667L547.617 317.783C519.708 312.311 491.669 313.132 463.498 320.246C435.327 327.36 409.465 340.493 385.913 359.646L454.862 478.667ZM317.783 544.333H454.862L362.108 383.45C342.956 404.792 329.549 429.559 321.887 457.752C314.226 485.945 312.858 514.805 317.783 544.333ZM442.55 696.187L511.5 577.167H325.992C335.294 604.528 350.485 628.879 371.564 650.221C392.643 671.562 416.305 686.885 442.55 696.187ZM475.383 705.217C506.575 711.236 536.399 709.999 564.854 701.507C593.31 693.014 617.387 680.296 637.087 663.354L568.138 544.333L475.383 705.217ZM660.892 639.55C680.592 617.114 694.141 592.073 701.539 564.427C708.938 536.782 710.164 508.195 705.217 478.667H568.138L660.892 639.55Z" fill="black"/>
<circle cx="511.5" cy="511.929" r="264" stroke="black" stroke-width="63"/>
</g>
<defs>
<clipPath id="clip0_4_619">
<rect width="1024" height="1024" fill="white"/>
</clipPath>
</defs>
</svg>
