<svg width="500" height="500" viewBox="0 0 500 500" fill="none" xmlns="http://www.w3.org/2000/svg">
<g clip-path="url(#clip0_14_551)">
<path d="M500 250C500 323.68 495.775 384.982 463.989 428.482C433.085 470.775 372.839 500 250 500C127.162 500 66.9161 470.775 36.0101 428.482C4.22436 384.982 0 323.68 0 250C0 176.548 5.22254 115.145 37.5153 71.6021C68.982 29.1738 129.357 0 250 0C370.643 0 431.019 29.1738 462.484 71.6021C494.778 115.145 500 176.548 500 250Z" fill="#0DABFD"/>
<path d="M239.278 371.497C240.383 371.497 241.278 372.393 241.278 373.497V387.144C241.278 388.249 240.383 389.144 239.278 389.144H139.712C138.366 389.144 137.404 387.84 137.802 386.553L217.981 127.452C218.24 126.614 219.015 126.043 219.892 126.043H290.61V110H322.695V126.043H339.139V165.749H313.872V172.166H331.519V183.797H322.695V192.219H288.203V183.797H280.182V172.166H289.607H299.032V165.749H276.171V142.086H230.31C229.438 142.086 228.666 142.651 228.403 143.482L156.663 370.196C156.459 370.84 156.941 371.497 157.617 371.497H239.278Z" fill="white"/>
<path d="M362.002 245.963L328.312 212.273H323.099V250.375H362.002V245.963Z" fill="white"/>
<path d="M323.099 212.273H328.312L362.002 245.963V250.375M323.099 212.273H253.312V361.872H362.002V250.375M323.099 212.273V250.375H362.002M276.575 250.375H302.243M276.575 286.07H339.542M276.575 322.166H328.312" stroke="white" stroke-width="10"/>
</g>
<defs>
<clipPath id="clip0_14_551">
<rect width="500" height="500" fill="white"/>
</clipPath>
</defs>
</svg>
