<svg width="1024" height="1024" viewBox="0 0 1024 1024" fill="none" xmlns="http://www.w3.org/2000/svg">
<g clip-path="url(#clip0_52_541)">
<path d="M1024 512C1024 662.896 1015.35 788.442 950.25 877.53C886.957 964.148 763.574 1024 512 1024C260.427 1024 137.044 964.148 73.7486 877.53C8.6515 788.442 0 662.896 0 512C0 361.57 10.6958 235.816 76.8314 146.641C141.275 59.748 264.922 0 512 0C759.077 0 882.726 59.748 947.168 146.641C1013.3 235.816 1024 361.57 1024 512Z" fill="url(#paint0_linear_52_541)"/>
<rect x="435" y="246" width="29" height="525" fill="white"/>
<rect x="559" y="246" width="29" height="525" fill="white"/>
<rect x="683" y="279" width="29" height="461" fill="white"/>
<rect x="311" y="279" width="29" height="461" fill="white"/>
<rect x="187" y="335" width="29" height="349" fill="white"/>
<rect x="807" y="335" width="29" height="349" fill="white"/>
<circle cx="821.5" cy="807.5" r="52.5" fill="white"/>
</g>
<defs>
<linearGradient id="paint0_linear_52_541" x1="512" y1="0" x2="512" y2="1024" gradientUnits="userSpaceOnUse">
<stop stop-color="#76767A"/>
<stop offset="1" stop-color="#515156"/>
</linearGradient>
<clipPath id="clip0_52_541">
<rect width="1024" height="1024" fill="white"/>
</clipPath>
</defs>
</svg>
