<svg width="500" height="500" viewBox="0 0 500 500" fill="none" xmlns="http://www.w3.org/2000/svg">
<g clip-path="url(#clip0_3_553)">
<path d="M500 250C500 323.68 495.775 384.982 463.989 428.482C433.085 470.775 372.839 500 250 500C127.162 500 66.9161 470.775 36.0101 428.482C4.22436 384.982 0 323.68 0 250C0 176.548 5.22254 115.145 37.5153 71.6021C68.982 29.1738 129.357 0 250 0C370.643 0 431.019 29.1738 462.484 71.6021C494.778 115.145 500 176.548 500 250Z" fill="#FF244E"/>
<path d="M145.518 148.2H218.129M286.859 148.2H356.144V374.4C321.778 351.361 307.921 370.211 286.859 361.833V338.794M286.859 148.2H250.277M286.859 148.2V240.879M250.277 148.2V338.794M250.277 148.2H218.129M218.129 148.2V240.879M143.855 149.771L145.518 374.4C172.678 350.314 202.055 368.64 218.129 361.833V338.794M218.129 240.879H286.859M218.129 240.879V338.794M286.859 240.879V338.794M218.129 338.794H286.859" stroke="white" stroke-width="15"/>
<path d="M211.847 155H151V367L211.847 356.929V155Z" fill="white"/>
<path d="M350 155H294.14L291.148 356.929L350 364.482V155Z" fill="white"/>
<path d="M140.169 148.2C140.169 155.826 133.367 162.9 123.835 162.9C114.303 162.9 107.5 155.826 107.5 148.2C107.5 140.574 114.303 133.5 123.835 133.5C133.367 133.5 140.169 140.574 140.169 148.2Z" stroke="white" stroke-width="15"/>
<path d="M392.5 148.2C392.5 155.826 385.697 162.9 376.165 162.9C366.633 162.9 359.83 155.826 359.83 148.2C359.83 140.574 366.633 133.5 376.165 133.5C385.697 133.5 392.5 140.574 392.5 148.2Z" stroke="white" stroke-width="15"/>
</g>
<defs>
<clipPath id="clip0_3_553">
<rect width="500" height="500" fill="white"/>
</clipPath>
</defs>
</svg>
