<svg width="1024" height="1024" viewBox="0 0 1024 1024" fill="none" xmlns="http://www.w3.org/2000/svg">
<g clip-path="url(#clip0_4_677)">
<path d="M1024 512C1024 662.896 1015.35 788.442 950.25 877.53C886.957 964.148 763.574 1024 512 1024C260.427 1024 137.044 964.148 73.7486 877.53C8.6515 788.442 0 662.896 0 512C0 361.57 10.6958 235.816 76.8314 146.641C141.275 59.748 264.922 0 512 0C759.077 0 882.726 59.748 947.168 146.641C1013.3 235.816 1024 361.57 1024 512Z" fill="#FF2750"/>
<path d="M854 248.095H171V186H854V248.095ZM202.045 838H326.227C326.227 744.857 264.136 682.762 264.136 682.762C450.409 558.571 481.455 279.143 481.455 279.143H202.045V838ZM822.955 279.143H543.545C543.545 279.143 574.591 558.571 760.864 682.762C760.864 682.762 698.773 744.857 698.773 838H822.955V279.143Z" fill="white"/>
<line x1="297" y1="786.5" x2="746" y2="786.5" stroke="white" stroke-width="15"/>
<line x1="281" y1="551.5" x2="730" y2="551.5" stroke="white" stroke-width="15"/>
<line x1="281" y1="286.5" x2="730" y2="286.5" stroke="white" stroke-width="15"/>
<line x1="512.5" y1="279" x2="512.5" y2="789" stroke="white" stroke-width="15"/>
</g>
<defs>
<clipPath id="clip0_4_677">
<rect width="1024" height="1024" fill="white"/>
</clipPath>
</defs>
</svg>
