<svg width="1024" height="1024" viewBox="0 0 1024 1024" fill="none" xmlns="http://www.w3.org/2000/svg">
<g clip-path="url(#clip0_50_390)">
<path d="M1023 512C1023 662.896 1014.35 788.442 949.25 877.53C885.957 964.148 762.574 1024 511 1024C259.427 1024 136.044 964.148 72.7486 877.53C7.6515 788.442 -1 662.896 -1 512C-1 361.57 9.69576 235.816 75.8314 146.641C140.275 59.748 263.922 0 511 0C758.077 0 881.726 59.748 946.168 146.641C1012.3 235.816 1023 361.57 1023 512Z" fill="#5A0DFF"/>
<path d="M567.582 394.288C567.582 394.288 512.61 461.977 515.422 466.293C519.322 461.977 495.686 393.548 495.686 393.548C495.686 393.548 490.754 379.16 475.278 332H419.241H283.249H180.701L170.46 376.272H247.657H265.973C315.633 376.272 345.953 396.8 337.485 433.172C328.337 472.777 284.993 489.685 238.825 489.685H221.561L243.769 392.852H166.588L133.82 534.325H243.413C325.861 534.325 404.077 490.057 418.181 433.172C420.649 422.716 420.301 396.432 413.965 380.96C413.965 380.588 413.601 379.876 413.253 378.812C412.905 378.44 412.541 375.924 413.965 375.556C414.653 375.188 416.065 376.64 416.065 376.988C416.065 376.988 416.781 378.812 417.469 380.24L487.23 581.501L664.846 376.636L739.891 376.268H758.207C807.903 376.268 838.567 396.796 830.083 433.168C820.923 472.773 777.263 489.681 731.083 489.681H713.463L736.003 392.852H658.854L626.062 534.325H735.655C818.099 534.325 897.027 490.057 910.071 433.172C923.459 376.272 865.667 332 782.511 332H709.939H619.03C575.694 384.196 567.582 394.288 567.582 394.288Z" fill="white"/>
<path d="M489.698 582.222C281.125 582.222 112 606.702 112 636.954C112 667.186 281.125 691.666 489.698 691.666C698.654 691.666 867.795 667.186 867.795 636.954C867.799 606.702 698.658 582.222 489.698 582.222ZM476.313 656.398C428.393 656.398 389.993 648.11 389.993 638.018C389.993 627.926 428.389 619.658 476.313 619.658C523.866 619.658 562.306 627.922 562.306 638.018C562.306 648.11 523.866 656.398 476.313 656.398Z" fill="white"/>
</g>
<defs>
<clipPath id="clip0_50_390">
<rect width="1024" height="1024" fill="white"/>
</clipPath>
</defs>
</svg>
