<svg width="1024" height="1024" viewBox="0 0 1024 1024" fill="none" xmlns="http://www.w3.org/2000/svg">
<g clip-path="url(#clip0_52_68)">
<path d="M1024 512C1024 662.896 1015.35 788.442 950.25 877.53C886.957 964.148 763.574 1024 512 1024C260.427 1024 137.044 964.148 73.7486 877.53C8.6515 788.442 0 662.896 0 512C0 361.57 10.6958 235.816 76.8314 146.641C141.275 59.748 264.922 0 512 0C759.077 0 882.726 59.748 947.168 146.641C1013.3 235.816 1024 361.57 1024 512Z" fill="url(#paint0_linear_52_68)"/>
<path d="M274.5 255L290.553 304.405H342.501L300.474 334.939L316.527 384.345L274.5 353.811L232.473 384.345L248.526 334.939L206.499 304.405H258.447L274.5 255Z" fill="white" fill-opacity="0.8"/>
<path d="M274.5 444L290.553 493.405H342.501L300.474 523.939L316.527 573.345L274.5 542.811L232.473 573.345L248.526 523.939L206.499 493.405H258.447L274.5 444Z" fill="white" fill-opacity="0.8"/>
<path d="M274.5 639L290.553 688.405H342.501L300.474 718.939L316.527 768.345L274.5 737.811L232.473 768.345L248.526 718.939L206.499 688.405H258.447L274.5 639Z" fill="white" fill-opacity="0.8"/>
<rect x="416" y="310" width="405" height="32" fill="black" fill-opacity="0.8"/>
<rect x="416" y="499" width="405" height="32" fill="black" fill-opacity="0.8"/>
<rect x="416" y="694" width="405" height="32" fill="black" fill-opacity="0.8"/>
</g>
<defs>
<linearGradient id="paint0_linear_52_68" x1="512" y1="0" x2="512" y2="1024" gradientUnits="userSpaceOnUse">
<stop stop-color="#B70B2C"/>
<stop offset="1" stop-color="#F7234B"/>
</linearGradient>
<clipPath id="clip0_52_68">
<rect width="1024" height="1024" fill="white"/>
</clipPath>
</defs>
</svg>
