<svg width="1024" height="1024" viewBox="0 0 1024 1024" fill="none" xmlns="http://www.w3.org/2000/svg">
<g clip-path="url(#clip0_4_1203)">
<path d="M1024 512C1024 662.896 1015.35 788.442 950.25 877.53C886.957 964.148 763.574 1024 512 1024C260.427 1024 137.044 964.148 73.7486 877.53C8.6515 788.442 0 662.896 0 512C0 361.57 10.6958 235.816 76.8314 146.641C141.275 59.748 264.922 0 512 0C759.077 0 882.726 59.748 947.168 146.641C1013.3 235.816 1024 361.57 1024 512Z" fill="url(#paint0_radial_4_1203)"/>
<rect x="192" y="269" width="640" height="440" rx="15" stroke="#50494C" stroke-width="20"/>
<rect x="497" y="719" width="30" height="21" fill="#50494C"/>
<rect x="337" y="740" width="350" height="25" fill="#50494C"/>
<circle cx="511.5" cy="489.5" r="81.5" fill="#FD244D"/>
</g>
<defs>
<radialGradient id="paint0_radial_4_1203" cx="0" cy="0" r="1" gradientUnits="userSpaceOnUse" gradientTransform="translate(512 512) rotate(88.3334) scale(326.638)">
<stop stop-color="#FD244D"/>
<stop offset="1" stop-color="#232427"/>
</radialGradient>
<clipPath id="clip0_4_1203">
<rect width="1024" height="1024" fill="white"/>
</clipPath>
</defs>
</svg>
