<svg width="1024" height="1024" viewBox="0 0 1024 1024" fill="none" xmlns="http://www.w3.org/2000/svg">
<g clip-path="url(#clip0_4_1262)">
<path d="M1024 512C1024 662.896 1015.35 788.442 950.25 877.53C886.957 964.148 763.574 1024 512 1024C260.427 1024 137.044 964.148 73.7486 877.53C8.6515 788.442 0 662.896 0 512C0 361.57 10.6958 235.816 76.8314 146.641C141.275 59.748 264.922 0 512 0C759.077 0 882.726 59.748 947.168 146.641C1013.3 235.816 1024 361.57 1024 512Z" fill="url(#paint0_linear_4_1262)"/>
<path d="M187 512C187 425.805 221.241 343.14 282.19 282.19C343.14 221.241 425.805 187 512 187C598.195 187 680.86 221.241 741.81 282.19C802.759 343.14 837 425.805 837 512C837 598.195 802.759 680.86 741.81 741.81C680.86 802.759 598.195 837 512 837C425.805 837 343.14 802.759 282.19 741.81C221.241 680.86 187 598.195 187 512ZM491.688 230.753C464.469 239.041 437.453 264.066 415.028 306.112C407.64 320.091 401.285 334.593 396.016 349.5H491.688V230.753ZM353.156 349.5C359.927 327.921 368.629 306.995 379.156 286.978C386.181 273.696 394.293 261.018 403.409 249.075C353.075 269.949 309.769 304.797 278.609 349.5H353.156ZM329.512 491.688C330.731 456.059 335.119 421.894 342.188 390.125H255.006C239.858 422.018 230.819 456.466 228.356 491.688H329.512ZM383.909 390.125C375.919 423.429 371.319 457.457 370.178 491.688H491.688V390.125H383.909ZM532.312 390.125V491.688H653.781C652.656 457.458 648.069 423.431 640.091 390.125H532.312ZM370.219 532.312C371.346 566.542 375.933 600.569 383.909 633.875H491.688V532.312H370.219ZM532.312 532.312V633.875H640.091C647.688 602.797 652.522 568.55 653.822 532.312H532.312ZM396.016 674.5C401.622 690.181 408 704.725 415.028 717.888C437.453 759.934 464.509 784.919 491.688 793.247V674.5H396.016ZM403.409 774.925C394.292 762.982 386.18 750.304 379.156 737.022C368.629 717.004 359.928 696.079 353.156 674.5H278.609C309.767 719.204 353.074 754.053 403.409 774.925ZM342.188 633.875C334.841 600.484 330.598 566.485 329.512 532.312H228.356C230.875 568.469 240.178 602.716 255.006 633.875H342.188ZM620.591 774.925C670.926 754.053 714.233 719.204 745.391 674.5H670.844C664.072 696.079 655.37 717.004 644.844 737.022C637.821 750.305 629.709 762.983 620.591 774.925ZM532.312 674.5V793.247C559.531 784.959 586.547 759.934 608.972 717.888C616 704.725 622.378 690.181 627.984 674.5H532.312ZM681.812 633.875H768.994C783.822 602.716 793.125 568.469 795.644 532.312H694.487C693.402 566.485 689.159 600.484 681.812 633.875ZM795.644 491.688C793.18 456.466 784.141 422.018 768.994 390.125H681.812C688.881 421.894 693.269 456.059 694.487 491.688H795.644ZM644.844 286.978C654.878 305.828 663.612 326.791 670.844 349.5H745.391C714.233 304.796 670.926 269.947 620.591 249.075C629.447 260.613 637.572 273.369 644.844 286.978ZM627.984 349.5C622.715 334.592 616.361 320.091 608.972 306.112C586.547 264.066 559.531 239.081 532.312 230.753V349.5H627.984Z" fill="white"/>
</g>
<defs>
<linearGradient id="paint0_linear_4_1262" x1="512" y1="0" x2="512" y2="1024" gradientUnits="userSpaceOnUse">
<stop stop-color="#4DB70A"/>
<stop offset="1" stop-color="#B0C705"/>
</linearGradient>
<clipPath id="clip0_4_1262">
<rect width="1024" height="1024" fill="white"/>
</clipPath>
</defs>
</svg>
