<svg width="1024" height="1024" viewBox="0 0 1024 1024" fill="none" xmlns="http://www.w3.org/2000/svg">
<g clip-path="url(#clip0_4_872)">
<path opacity="0.949" fill-rule="evenodd" clip-rule="evenodd" d="M115.2 893.44C244.906 893.44 374.614 893.44 504.32 893.44C506.026 961.705 507.734 961.705 509.44 893.44C640.855 893.44 772.265 893.44 903.68 893.44C865.787 932.905 819.707 959.36 765.44 972.8C681.078 990.966 595.743 998.646 509.44 995.84C423.136 998.646 337.803 990.966 253.44 972.8C199.171 959.36 153.091 932.905 115.2 893.44Z" fill="#E60057"/>
<path d="M1021 512C1021 662.896 1012.35 788.442 947.25 877.53C883.957 964.148 760.574 1024 509 1024C257.427 1024 134.044 964.148 70.7486 877.53C5.6515 788.442 -3 662.896 -3 512C-3 361.57 7.69576 235.816 73.8314 146.641C138.275 59.748 261.922 0 509 0C756.077 0 879.726 59.748 944.168 146.641C1010.3 235.816 1021 361.57 1021 512Z" fill="url(#paint0_linear_4_872)"/>
<path d="M509 86L509 974" stroke="white" stroke-width="3"/>
<path d="M956 512L68 512" stroke="white" stroke-width="3"/>
<path d="M360.002 302.992C367.12 292.812 371.273 280.409 371.273 266.969C371.273 232.033 342.948 203.719 308 203.719C273.052 203.719 244.727 232.033 244.727 266.969C244.727 280.409 248.88 292.812 255.998 302.992C257.827 305.611 260.002 308.575 262.325 311.738C268.702 320.484 276.314 330.96 281.999 341.287C287.14 350.676 289.76 360.46 291.045 369.701H266.972C265.884 363.771 264.055 357.989 261.139 352.653C256.245 343.758 250.165 335.407 244.085 327.056C241.514 323.548 238.944 320.039 236.472 316.482C226.734 302.497 221 285.4 221 266.969C221 218.938 259.952 180 308 180C356.048 180 395 218.938 395 266.969C395 285.4 389.266 302.497 379.478 316.531C377.007 320.089 374.436 323.597 371.866 327.106C365.786 335.407 359.706 343.758 354.812 352.702C351.895 358.039 350.066 363.82 348.979 369.75H325.005C326.29 360.51 328.91 350.676 334.051 341.337C339.735 331.009 347.348 320.534 353.724 311.787C356.048 308.625 358.173 305.66 360.002 303.041V302.992ZM308 243.25C294.901 243.25 284.273 253.874 284.273 266.969C284.273 271.317 280.714 274.875 276.364 274.875C272.014 274.875 268.455 271.317 268.455 266.969C268.455 245.128 286.151 227.438 308 227.438C312.35 227.438 315.909 230.995 315.909 235.344C315.909 239.692 312.35 243.25 308 243.25ZM308 433C286.151 433 268.455 415.31 268.455 393.469V385.562H347.545V393.469C347.545 415.31 329.849 433 308 433Z" fill="white"/>
<path d="M758.5 234.969C758.5 204.826 733.299 179.625 703.156 179.625C672.52 179.625 647.812 204.826 647.812 234.969V317.49C637.93 329.844 632 344.668 632 361.469C632 401 663.625 432.625 703.156 432.625C742.193 432.625 774.312 400.506 774.312 361.469C774.312 345.162 767.889 329.844 758.5 317.49V234.969ZM703.156 408.906C676.967 408.906 655.719 387.658 655.719 361.469C655.719 348.127 661.154 338.244 666.096 332.314L671.531 325.891V234.969C671.531 217.674 685.367 203.344 703.156 203.344C720.451 203.344 734.781 217.674 734.781 234.969V325.891L739.723 332.314C744.664 338.244 750.594 348.127 750.594 361.469C750.594 387.658 728.852 408.906 703.156 408.906ZM711.062 339.232V258.688C711.062 254.734 707.109 250.781 703.156 250.781C698.709 250.781 695.25 254.734 695.25 258.688V339.232C685.861 342.691 679.438 351.586 679.438 361.469C679.438 374.811 689.814 385.188 703.156 385.188C716.004 385.188 726.875 374.811 726.875 361.469C726.875 351.586 719.957 342.691 711.062 339.232ZM873.141 195.438H801.984C795.066 195.438 790.125 200.873 790.125 207.297C790.125 213.227 795.066 219.156 801.49 219.156H873.141C879.564 219.156 885 214.215 885 207.297C885 200.873 879.564 195.438 873.141 195.438ZM873.141 321.938H817.797C810.879 321.938 805.938 327.373 805.938 333.797C805.938 339.727 810.879 345.656 817.303 345.656H873.141C879.564 345.656 885 340.715 885 334.291C885 328.361 879.564 321.938 873.141 321.938ZM873.141 258.688H801.984C795.066 258.688 790.125 264.123 790.125 270.547C790.125 276.477 795.066 282.406 801.49 282.406H873.141C879.564 282.406 885 277.465 885 270.547C885 264.123 879.564 258.688 873.141 258.688Z" fill="white"/>
<rect x="245" y="697" width="5" height="35" fill="white"/>
<circle cx="247.671" cy="741.671" r="11.1712" stroke="white" stroke-width="7"/>
<rect x="199.404" y="638.288" width="197.219" height="11.2397" stroke="white" stroke-width="3"/>
<rect x="199.404" y="649.938" width="197.219" height="11.2397" stroke="white" stroke-width="3"/>
<rect x="199.404" y="662.021" width="197.219" height="11.2397" stroke="white" stroke-width="3"/>
<rect x="199.404" y="674.103" width="197.219" height="11.2397" stroke="white" stroke-width="3"/>
<rect x="199.404" y="686.185" width="197.219" height="11.2397" stroke="white" stroke-width="3"/>
<rect x="198.5" y="633.5" width="98.0548" height="237" stroke="white" stroke-width="15"/>
<rect x="299.904" y="633.5" width="98.0548" height="237" stroke="white" stroke-width="15"/>
<path d="M723.789 639.994C724.092 638.998 724.191 637.95 724.08 636.914C723.969 635.878 723.65 634.875 723.142 633.966C722.634 633.056 721.948 632.259 721.125 631.621C720.302 630.983 719.359 630.518 718.352 630.253C717.345 629.989 716.295 629.931 715.265 630.082C714.235 630.234 713.246 630.592 712.357 631.135C711.469 631.678 710.699 632.395 710.094 633.243C709.489 634.091 709.062 635.052 708.837 636.069L703.826 655.313C703.462 657.238 703.841 659.229 704.887 660.885C705.933 662.542 707.567 663.739 709.46 664.237C711.353 664.735 713.365 664.496 715.089 663.568C716.813 662.641 718.122 661.093 718.751 659.238L723.789 639.994ZM671.034 681.043C657.945 684.678 646.214 692.088 637.303 702.35C628.393 712.612 622.697 725.271 620.925 738.75C619.154 752.228 621.386 765.931 627.342 778.149C633.298 790.368 642.716 800.562 654.421 807.46L658.452 785.328C661.175 755.7 687.403 748.504 720.657 748.095C724.143 733.349 734.111 722.474 750.834 715.687C743.514 701.63 731.598 690.511 717.075 684.186C702.552 677.861 686.301 676.713 671.034 680.934V681.043ZM665.342 637.241C664.724 635.342 663.399 633.753 661.641 632.806C659.883 631.859 657.828 631.627 655.903 632.156C653.978 632.686 652.331 633.938 651.305 635.651C650.278 637.365 649.951 639.408 650.39 641.357L655.674 660.437C655.905 661.462 656.341 662.429 656.957 663.28C657.572 664.131 658.353 664.848 659.253 665.388C660.154 665.929 661.154 666.281 662.194 666.423C663.234 666.565 664.292 666.495 665.304 666.216C666.316 665.938 667.261 665.457 668.082 664.802C668.903 664.148 669.582 663.333 670.08 662.408C670.577 661.483 670.882 660.467 670.976 659.421C671.07 658.374 670.951 657.32 670.626 656.321L665.342 637.241ZM613.296 664.144C611.835 662.777 609.901 662.031 607.902 662.065C605.903 662.098 603.994 662.908 602.58 664.323C601.166 665.738 600.357 667.648 600.324 669.649C600.291 671.65 601.036 673.585 602.402 675.047L616.537 689.002C618.02 690.24 619.911 690.877 621.84 690.79C623.768 690.703 625.595 689.897 626.96 688.531C628.325 687.165 629.13 685.337 629.217 683.407C629.305 681.476 628.667 679.583 627.431 678.099L613.269 664.144H613.296ZM581.703 713.424C579.717 712.904 577.605 713.194 575.833 714.232C574.06 715.27 572.772 716.969 572.252 718.957C571.732 720.945 572.023 723.059 573.059 724.832C574.096 726.606 575.795 727.895 577.781 728.416L597.009 733.404C598.005 733.707 599.052 733.806 600.087 733.695C601.122 733.583 602.124 733.264 603.033 732.756C603.942 732.248 604.739 731.561 605.376 730.737C606.014 729.914 606.478 728.97 606.742 727.962C607.007 726.954 607.065 725.903 606.913 724.872C606.762 723.842 606.404 722.852 605.862 721.963C605.319 721.074 604.603 720.303 603.755 719.698C602.908 719.093 601.947 718.665 600.931 718.44L581.703 713.424ZM578.979 771.945C577 772.491 575.319 773.801 574.305 775.587C573.291 777.374 573.028 779.49 573.573 781.471C574.119 783.452 575.428 785.135 577.213 786.149C578.998 787.164 581.113 787.427 583.092 786.882L602.157 781.594C603.142 781.327 604.065 780.869 604.874 780.245C605.682 779.621 606.36 778.844 606.868 777.958C607.895 776.169 608.169 774.045 607.631 772.054C607.093 770.062 605.786 768.366 603.998 767.339C602.211 766.311 600.089 766.037 598.099 766.575L579.034 771.863L578.979 771.945ZM605.861 824.005C604.624 825.489 603.987 827.382 604.074 829.312C604.161 831.243 604.966 833.07 606.332 834.437C607.697 835.803 609.523 836.609 611.452 836.696C613.38 836.783 615.272 836.146 616.755 834.908L630.699 820.735C631.936 819.251 632.573 817.358 632.486 815.427C632.399 813.497 631.593 811.669 630.228 810.303C628.863 808.937 627.037 808.131 625.108 808.044C623.179 807.957 621.288 808.594 619.805 809.832L605.861 824.005ZM773.03 671.612C774.396 670.151 775.141 668.215 775.108 666.214C775.075 664.213 774.266 662.303 772.852 660.888C771.438 659.473 769.53 658.663 767.53 658.63C765.531 658.597 763.597 659.342 762.136 660.71L748.219 674.856C747.394 675.545 746.721 676.398 746.244 677.361C745.766 678.325 745.494 679.377 745.446 680.451C745.397 681.526 745.573 682.598 745.962 683.601C746.351 684.604 746.944 685.514 747.704 686.275C748.463 687.035 749.373 687.629 750.375 688.018C751.377 688.407 752.449 688.582 753.522 688.534C754.595 688.485 755.647 688.214 756.61 687.736C757.572 687.258 758.425 686.585 759.113 685.759L773.03 671.585V671.612Z" fill="white"/>
<path d="M675.153 683.919C660.989 687.804 648.432 696.111 639.312 707.633L713.718 751.516C717.313 751.271 720.99 751.135 724.776 751.08C728.262 736.334 738.23 725.459 754.953 718.672C747.633 704.615 735.717 693.496 721.194 687.171C706.671 680.846 690.42 679.698 675.153 683.919Z" fill="white"/>
<path d="M719.246 747.087L715.989 753.655L708.746 752.524C705.919 752.083 703.062 751.868 700.201 751.881L700.138 751.881L700.076 751.881C694.197 751.833 688.374 753.02 682.981 755.364C677.588 757.708 672.745 761.157 668.765 765.49L668.757 765.499C666.815 767.609 665.04 769.868 663.45 772.255C657.569 782.03 654.599 793.285 654.893 804.696L654.898 804.897L654.895 805.099C654.737 815.953 657.952 826.586 664.09 835.529C668.165 840.791 673.286 845.15 679.129 848.331C685.953 852.015 693.249 854.745 700.812 856.446L701.443 856.526H855.506H855.87C860.075 855.98 864.194 854.892 868.123 853.288L868.136 853.283C871.816 851.787 875.244 849.729 878.295 847.182L878.302 847.177L878.309 847.171C881.202 844.766 883.774 841.998 885.961 838.936L885.969 838.925L885.977 838.914C891.782 830.833 894.933 821.144 894.993 811.19L894.993 811.133L894.994 811.077C895.164 801.234 891.834 791.653 885.602 784.042C883.461 781.478 881.009 779.192 878.303 777.237C874.658 774.643 870.698 772.525 866.518 770.933L866.507 770.929L866.496 770.924C863.142 769.638 859.701 768.592 856.199 767.794L850.114 766.408L848.686 760.333C845.234 745.651 836.901 732.581 825.057 723.262C814.652 715.308 802.215 710.456 789.177 709.264L789.133 709.26L789.089 709.256C775.964 707.939 762.73 710.248 750.823 715.933C737.119 722.498 726.003 733.464 719.246 747.087Z" stroke="white" stroke-width="20"/>
</g>
<defs>
<linearGradient id="paint0_linear_4_872" x1="509" y1="0" x2="509" y2="1024" gradientUnits="userSpaceOnUse">
<stop stop-color="#80035F"/>
<stop offset="1" stop-color="#E50B5E"/>
</linearGradient>
<clipPath id="clip0_4_872">
<rect width="1024" height="1024" fill="white"/>
</clipPath>
</defs>
</svg>
