<svg width="1024" height="1024" viewBox="0 0 1024 1024" fill="none" xmlns="http://www.w3.org/2000/svg">
<g clip-path="url(#clip0_4_973)">
<path d="M1024 512C1024 662.896 1015.35 788.442 950.25 877.53C886.957 964.148 763.574 1024 512 1024C260.427 1024 137.044 964.148 73.7486 877.53C8.6515 788.442 0 662.896 0 512C0 361.57 10.6958 235.816 76.8314 146.641C141.275 59.748 264.922 0 512 0C759.077 0 882.726 59.748 947.168 146.641C1013.3 235.816 1024 361.57 1024 512Z" fill="#FE274F"/>
<path d="M511.5 164.653L590.27 407.082L591.842 411.919H596.928H851.833L645.61 561.749L641.496 564.738L643.067 569.575L721.837 812.005L515.615 662.175L511.5 659.186L507.385 662.175L301.163 812.005L379.933 569.575L381.504 564.738L377.39 561.749L171.167 411.919H426.072H431.158L432.73 407.082L511.5 164.653Z" fill="#FE274F" stroke="white" stroke-width="14"/>
<path d="M511.5 218L579.865 428.404H801.097L622.116 558.441L690.481 768.846L511.5 638.809L332.519 768.846L400.884 558.441L221.903 428.404H443.135L511.5 218Z" fill="white"/>
</g>
<defs>
<clipPath id="clip0_4_973">
<rect width="1024" height="1024" fill="white"/>
</clipPath>
</defs>
</svg>
