<svg width="1024" height="1024" viewBox="0 0 1024 1024" fill="none" xmlns="http://www.w3.org/2000/svg">
<g clip-path="url(#clip0_4_1014)">
<path d="M1024 512C1024 662.896 1015.35 788.442 950.25 877.53C886.957 964.148 763.574 1024 512 1024C260.427 1024 137.044 964.148 73.7486 877.53C8.6515 788.442 0 662.896 0 512C0 361.57 10.6958 235.816 76.8314 146.641C141.275 59.748 264.922 0 512 0C759.077 0 882.726 59.748 947.168 146.641C1013.3 235.816 1024 361.57 1024 512Z" fill="#C01E3D"/>
<circle cx="456" cy="509" r="274" fill="white"/>
<circle cx="498.923" cy="341.425" r="55.8584" fill="#C01E3D"/>
<circle cx="627.103" cy="511.94" r="55.8584" fill="#C01E3D"/>
<circle cx="498.923" cy="677.751" r="55.8584" fill="#C01E3D"/>
<circle cx="304.888" cy="617.777" r="55.8584" fill="#C01E3D"/>
<circle cx="296.657" cy="415.511" r="55.8584" fill="#C01E3D"/>
<circle cx="447.768" cy="510.176" r="22.3433" fill="#C01E3D"/>
<path d="M703.807 402.247C1033.86 306.887 626.515 798.87 895.223 733.021" stroke="white" stroke-width="37"/>
</g>
<defs>
<clipPath id="clip0_4_1014">
<rect width="1024" height="1024" fill="white"/>
</clipPath>
</defs>
</svg>
