<svg width="1024" height="1024" viewBox="0 0 1024 1024" fill="none" xmlns="http://www.w3.org/2000/svg">
<g clip-path="url(#clip0_4_1031)">
<path d="M1024 512C1024 662.896 1015.35 788.442 950.25 877.53C886.957 964.148 763.574 1024 512 1024C260.427 1024 137.044 964.148 73.7486 877.53C8.6515 788.442 0 662.896 0 512C0 361.57 10.6958 235.816 76.8314 146.641C141.275 59.748 264.922 0 512 0C759.077 0 882.726 59.748 947.168 146.641C1013.3 235.816 1024 361.57 1024 512Z" fill="#171C28"/>
<path fill-rule="evenodd" clip-rule="evenodd" d="M458.24 238.08C494.457 236.344 530.299 238.904 565.76 245.76C568.433 248.634 570.138 252.047 570.88 256C564.669 271.699 560.399 287.912 558.08 304.64C528.297 305.002 498.429 305.855 468.48 307.2C456.034 285.159 452.621 262.119 458.24 238.08Z" fill="#F8F8F8"/>
<path fill-rule="evenodd" clip-rule="evenodd" d="M422.4 248.32C429.169 247.45 435.142 249.157 440.32 253.44C447.845 273.293 452.112 293.773 453.12 314.88C426.588 324.222 400.988 336.169 376.32 350.72C363.159 340.152 350.359 328.206 337.92 314.88C334.279 305.322 336.839 297.642 345.6 291.84C370.022 274.529 395.622 260.023 422.4 248.32Z" fill="#F6F7F7"/>
<path fill-rule="evenodd" clip-rule="evenodd" d="M586.24 248.32C620.764 259.778 652.339 276.845 680.96 299.52C684.375 306.347 684.375 313.174 680.96 320C669.865 331.094 658.775 342.187 647.68 353.28C622.822 340.852 597.222 328.052 570.88 314.88C568.468 291.293 573.588 269.107 586.24 248.32Z" fill="#F6F6F7"/>
<path fill-rule="evenodd" clip-rule="evenodd" d="M314.88 320C337.158 327.726 354.225 342.233 366.08 363.52C350.026 382.815 337.226 404.148 327.68 427.52C323.898 433.02 318.778 436.433 312.32 437.76C297.62 433.145 283.113 428.025 268.8 422.4C262.311 408.375 263.165 394.722 271.36 381.44C284.657 359.911 299.164 339.431 314.88 320Z" fill="#F8F8F9"/>
<path fill-rule="evenodd" clip-rule="evenodd" d="M688.64 320C708.249 325.045 722.754 336.992 732.16 355.84C740.695 371.2 749.225 386.56 757.76 401.92C761.759 409.312 760.903 416.138 755.2 422.4C738.898 427.118 722.683 432.238 706.56 437.76C700.103 436.433 694.983 433.02 691.2 427.52C680.519 404.897 667.719 383.563 652.8 363.52C663.828 348.228 675.773 333.721 688.64 320Z" fill="#F5F5F5"/>
<path fill-rule="evenodd" clip-rule="evenodd" d="M253.44 432.64C274.072 434.171 293.699 439.291 312.32 448C312.302 479.835 309.742 511.408 304.64 542.72C284.554 546.78 264.927 545.925 245.76 540.16C241.201 503.564 243.761 467.724 253.44 432.64Z" fill="#FCFCFC"/>
<path fill-rule="evenodd" clip-rule="evenodd" d="M744.96 432.64C753.377 431.547 761.057 433.253 768 437.76C775.45 473.311 777.155 509.151 773.12 545.28C753.951 551.045 734.326 551.9 714.24 547.84C709.192 514.811 706.632 481.532 706.56 448C720.671 445.081 733.471 439.961 744.96 432.64Z" fill="#F6F6F6"/>
<path fill-rule="evenodd" clip-rule="evenodd" d="M248.32 555.52C268.8 555.52 289.28 555.52 309.76 555.52C310.611 589.696 309.758 623.831 307.2 657.92C286.72 664.745 266.24 664.745 245.76 657.92C241.702 623.375 242.556 589.24 248.32 555.52Z" fill="#FEFEFE"/>
<path fill-rule="evenodd" clip-rule="evenodd" d="M714.24 555.52C734.397 554.02 754.022 555.725 773.12 560.64C777.272 596.04 776.422 631.03 770.56 665.6C750.474 669.66 730.849 668.805 711.68 663.04C707.61 626.79 708.465 590.95 714.24 555.52Z" fill="#F7F7F7"/>
<path fill-rule="evenodd" clip-rule="evenodd" d="M248.32 673.28C268.8 673.28 289.28 673.28 309.76 673.28C310.611 707.456 309.758 741.591 307.2 775.68C286.72 782.505 266.24 782.505 245.76 775.68C241.702 741.135 242.556 707 248.32 673.28Z" fill="#FEFEFE"/>
<path fill-rule="evenodd" clip-rule="evenodd" d="M714.24 673.28C734.398 671.78 754.022 673.485 773.12 678.4C777.267 712.1 776.412 745.38 770.56 778.24C750.474 782.3 730.849 781.445 711.68 775.68C707.625 741.135 708.475 707 714.24 673.28Z" fill="#FCFCFC"/>
<mask id="path-13-inside-1_4_1031" fill="white">
<rect x="366" y="690.866" width="88.8915" height="271.723" rx="15" transform="rotate(-70.2869 366 690.866)"/>
</mask>
<rect x="366" y="690.866" width="88.8915" height="271.723" rx="15" transform="rotate(-70.2869 366 690.866)" fill="#1F242F" stroke="white" stroke-width="46" mask="url(#path-13-inside-1_4_1031)"/>
<mask id="path-14-inside-2_4_1031" fill="white">
<rect x="398.53" y="785.706" width="88.8915" height="271.723" rx="15" transform="rotate(-111.347 398.53 785.706)"/>
</mask>
<rect x="398.53" y="785.706" width="88.8915" height="271.723" rx="15" transform="rotate(-111.347 398.53 785.706)" fill="#1F242F" stroke="white" stroke-width="46" mask="url(#path-14-inside-2_4_1031)"/>
<path d="M527.996 615L518.235 600.81C523.557 593.842 525.991 585.089 525.031 576.372C524.071 567.654 519.79 559.642 513.078 554.001C501.796 544.567 494.065 531.566 491.161 517.144C462.43 558.24 477.348 580.907 491.161 600.994L481.032 615C461.797 611.374 444.523 600.904 432.404 585.524C420.284 570.145 414.137 550.896 415.098 531.334C415.098 531.334 411.23 491.529 457.089 452.644C457.089 452.644 509.026 404.546 490.977 368.979L504.053 357C524.003 370.997 539.265 390.694 547.842 413.514C556.418 436.333 557.91 461.212 552.123 484.894C556.49 480.63 559.992 475.562 562.436 469.967L578.459 468.677C579.749 470.889 612.347 522.673 594.851 566.349C588.619 579.374 579.244 590.641 567.573 599.135C555.901 607.629 542.3 613.081 527.996 615ZM491.161 486.921L507.184 494.109C506.33 502.516 507.413 511.007 510.351 518.929C513.288 526.852 518.001 533.996 524.128 539.811C532.023 545.566 538.002 553.567 541.287 562.77C544.572 571.974 545.011 581.955 542.546 591.411C550.158 588.743 557.151 584.558 563.102 579.111C569.053 573.663 573.839 567.064 577.17 559.714C583.423 537.28 580.716 513.292 569.619 492.819C566.131 498.48 561.064 502.996 555.043 505.812C549.022 508.628 542.309 509.621 535.731 508.667L529.285 496.136C537.353 478.679 540.1 459.231 537.185 440.222C534.27 421.212 525.821 403.483 512.894 389.25C510.315 428.319 470.35 464.439 469.061 466.466C430.937 498.9 433.515 528.939 433.515 530.229C432.796 541.61 435.132 552.978 440.281 563.152C445.43 573.327 453.204 581.938 462.799 588.094C451.932 562.294 451.932 531.334 491.714 486.921H491.161Z" fill="#D94703"/>
</g>
<defs>
<clipPath id="clip0_4_1031">
<rect width="1024" height="1024" fill="white"/>
</clipPath>
</defs>
</svg>
