<svg width="500" height="500" viewBox="0 0 500 500" fill="none" xmlns="http://www.w3.org/2000/svg">
<g clip-path="url(#clip0_7_132)">
<path d="M500 250C500 323.68 495.775 384.982 463.989 428.482C433.085 470.775 372.839 500 250 500C127.162 500 66.9161 470.775 36.0101 428.482C4.22436 384.982 0 323.68 0 250C0 176.548 5.22254 115.145 37.5153 71.6021C68.982 29.1738 129.357 0 250 0C370.643 0 431.019 29.1738 462.484 71.6021C494.778 115.145 500 176.548 500 250Z" fill="#151C26"/>
<path d="M393.557 344.415H366.418C363.657 344.415 361.418 346.654 361.418 349.415V396.155C361.418 398.917 363.657 401.155 366.418 401.155H393.557C396.319 401.155 398.557 398.917 398.557 396.155V349.415C398.557 346.654 396.319 344.415 393.557 344.415Z" fill="white"/>
<path d="M206.463 355.277L181.356 365.311C180.305 365.731 179.812 366.939 180.268 367.975L191.658 393.828C192.091 394.81 193.221 395.275 194.219 394.884L249.173 373.326M206.463 355.277L181.461 345.993C180.368 345.587 179.853 344.336 180.343 343.278L191.655 318.857C192.094 317.91 193.187 317.459 194.165 317.822L249.173 338.206M206.463 355.277L249.173 338.206M249.173 338.206L306.149 315.434C307.163 315.029 308.315 315.511 308.736 316.518L319.978 343.353C320.412 344.388 319.909 345.578 318.864 345.988L295.184 355.277M295.184 355.277L319.093 365.372C320.043 365.773 320.532 366.831 320.223 367.815L312.108 393.602C311.767 394.685 310.595 395.267 309.527 394.886L249.173 373.326M295.184 355.277L249.173 373.326" stroke="white" stroke-width="10"/>
<path d="M133.17 344.415H106.031C103.27 344.415 101.031 346.654 101.031 349.415V396.155C101.031 398.917 103.27 401.155 106.031 401.155H133.17C135.932 401.155 138.17 398.917 138.17 396.155V349.415C138.17 346.654 135.932 344.415 133.17 344.415Z" fill="white"/>
<path d="M133.17 278.803H106.031C103.27 278.803 101.031 281.041 101.031 283.803V330.543C101.031 333.304 103.27 335.543 106.031 335.543H133.17C135.932 335.543 138.17 333.304 138.17 330.543V283.803C138.17 281.041 135.932 278.803 133.17 278.803Z" fill="white"/>
<path d="M132.043 269.311H105.397C102.808 269.311 100.641 267.335 100.471 264.751C99.0745 243.56 100.977 222.215 103.655 210.895C104.263 208.324 106.923 206.954 109.447 207.734C119.092 210.715 131.129 214.868 137.189 216.987C139.442 217.775 140.812 220.035 140.498 222.401C139.385 230.782 137.022 250.36 137.262 263.821C137.315 266.772 134.995 269.311 132.043 269.311Z" fill="white"/>
<path d="M367.956 269.818H394.603C397.192 269.818 399.359 267.841 399.53 265.258C400.925 244.109 399.023 222.808 396.346 211.508C395.737 208.94 393.079 207.571 390.557 208.349C380.913 211.324 368.876 215.47 362.813 217.586C360.558 218.373 359.187 220.635 359.502 223.003C360.615 231.372 362.976 250.895 362.737 264.326C362.684 267.277 365.004 269.818 367.956 269.818Z" fill="white"/>
<path d="M393.557 278.803H366.418C363.657 278.803 361.418 281.041 361.418 283.803V330.543C361.418 333.304 363.657 335.543 366.418 335.543H393.557C396.319 335.543 398.557 333.304 398.557 330.543V283.803C398.557 281.041 396.319 278.803 393.557 278.803Z" fill="white"/>
<path d="M250.199 316.377C250.888 313.2 251.004 309.743 252.383 306.905C256.914 297.644 259.612 288.067 258.619 277.731C258.21 273.539 256.412 269.731 253.924 266.239C248.096 258.064 246.04 256.102 238.402 249.982C230.04 243.279 223.01 235.477 220.055 225.071C218.56 219.816 218.151 213.918 218.77 208.487C219.611 201.094 222.893 194.402 227.564 188.329C232.108 182.42 237.351 177.456 244.183 172.75C242.548 175.926 241.159 178.262 240.108 180.75C237.959 185.818 237.363 191.004 238.823 196.47C241.626 206.969 248.668 214.408 256.528 221.124C264.143 227.641 272.143 233.714 280.037 239.892C284.978 243.746 288.505 248.172 290.292 254.549C292.149 261.194 289.427 267.08 289.451 273.621C289.918 273.539 290.77 273.621 291.016 273.294C296.388 265.842 301.456 258.134 300.557 248.417C300.219 244.727 298.665 241.095 297.346 237.544C296.061 234.076 294.356 230.759 292.908 227.349C292.639 226.718 292.767 225.924 292.709 225.211C293.036 225.048 293.351 224.873 293.678 224.709C296.306 228.551 299.401 232.16 301.468 236.283C304.528 242.379 307.565 248.662 309.305 255.214C310.613 260.143 310.297 265.644 309.924 270.829C308.919 285.112 300.756 291.17 289.626 299.777C281.719 305.885 272.458 309.109 263.395 312.822C261.129 313.757 258.817 314.563 256.528 315.439C256.224 315.299 250.502 316.517 250.199 316.377ZM304.668 266.251C304.329 266.064 304.002 265.866 303.664 265.679C303.01 266.531 302.332 267.361 301.702 268.225C298.724 272.254 295.897 276.388 292.744 280.278C291.273 282.088 287.068 282.321 285.2 281.188C283.004 279.869 281.532 276.365 282.21 273.912C282.876 271.507 283.81 269.159 284.3 266.73C285.947 258.613 284.779 251.045 277.573 245.825C267.401 238.455 257.252 231.027 248.388 222.035C241.194 214.735 234.303 207.273 232.738 196.493C232.61 195.64 231.687 194.905 230.636 193.433C228.814 197.964 240.107 213.91 238.823 217.729C236.557 224.48 228.219 193.297 230.636 199.779C233.836 208.339 223.489 187.944 230.636 193.433C235.775 197.392 237.646 209.169 242.575 213.396C248.986 218.909 283.623 242.933 285.2 251.155C286.531 258.15 286.648 270.869 284.3 277.771C283.249 280.866 304.902 260.323 303.664 264.153C314.794 260.311 297.346 294.277 294.134 292.937C300.686 285.241 304.4 276.365 304.68 266.239L304.668 266.251Z" fill="#DE4B02"/>
<path d="M210.505 227.543C210.003 230.135 209.84 232.833 208.952 235.286C206.243 242.737 210.657 254.817 217.197 257.982C223.842 261.205 230.406 264.663 236.724 268.493C242.575 272.032 246.897 277.089 248.66 283.921C249.279 286.315 250.132 288.803 249.991 291.209C249.583 298.496 243.984 310.584 240.306 316.786C239.99 317.323 238.075 317.51 237.292 317.113C228.078 312.394 218.676 307.956 209.847 302.596C202.326 298.018 196.662 291.442 192.983 283.151C189.316 274.905 188.989 266.321 190.916 257.982C193.216 248.032 202.832 234.912 210.494 227.566L210.505 227.543Z" fill="#DE4B02"/>
<path d="M217.814 103.011C215.626 104.032 220.902 120.698 224.817 131.776C225.64 134.107 228.058 135.443 230.514 135.157C242.322 133.782 260.946 134.687 271.732 135.556C273.598 135.706 275.407 134.828 276.143 133.107C278.855 126.773 281.309 115.248 282.715 107.288C283.148 104.836 281.659 102.459 279.24 101.872C252.706 95.4321 220.752 101.639 217.814 103.011Z" fill="white"/>
<path d="M292.017 104.677C289.612 104.468 285.848 121.539 283.699 133.09C283.247 135.521 284.673 137.887 286.943 138.867C297.857 143.58 313.533 153.676 322.439 159.821C323.98 160.884 325.986 161.028 327.484 159.907C332.999 155.777 340.886 147.023 346.084 140.832C347.685 138.925 347.585 136.123 345.783 134.404C326.024 115.56 295.248 104.959 292.017 104.677Z" fill="white"/>
<path d="M153 137.227C151.616 139.205 164.518 151 173.448 158.637C175.327 160.244 178.089 160.192 180.072 158.716C189.611 151.621 206.192 143.093 215.968 138.452C217.658 137.65 218.786 135.985 218.564 134.126C217.745 127.285 214.107 116.077 211.345 108.481C210.494 106.14 208.017 104.826 205.627 105.528C179.429 113.217 154.86 134.57 153 137.227Z" fill="white"/>
<path d="M110.949 199.39C110.739 201.795 127.81 205.56 139.362 207.709C141.792 208.161 144.158 206.735 145.138 204.465C149.851 193.551 159.947 177.875 166.093 168.968C167.156 167.428 167.3 165.422 166.178 163.924C162.048 158.409 153.294 150.521 147.103 145.323C145.196 143.722 142.394 143.823 140.675 145.625C121.831 165.383 111.23 196.16 110.949 199.39Z" fill="white"/>
<path d="M355.834 143.012C353.856 141.628 342.06 154.53 334.424 163.459C332.817 165.338 332.869 168.1 334.344 170.084C341.44 179.623 349.968 196.204 354.608 205.98C355.411 207.67 357.076 208.798 358.934 208.575C365.775 207.757 376.983 204.119 384.58 201.356C386.92 200.505 388.234 198.028 387.533 195.639C379.843 169.44 358.491 144.871 355.834 143.012Z" fill="white"/>
</g>
<defs>
<clipPath id="clip0_7_132">
<rect width="500" height="500" fill="white"/>
</clipPath>
</defs>
</svg>
