<svg width="1024" height="1024" viewBox="0 0 1024 1024" fill="none" xmlns="http://www.w3.org/2000/svg">
<g clip-path="url(#clip0_4_1068)">
<path d="M1024 512C1024 662.896 1015.35 788.442 950.25 877.53C886.957 964.148 763.574 1024 512 1024C260.427 1024 137.044 964.148 73.7486 877.53C8.6515 788.442 0 662.896 0 512C0 361.57 10.6958 235.816 76.8314 146.641C141.275 59.748 264.922 0 512 0C759.077 0 882.726 59.748 947.168 146.641C1013.3 235.816 1024 361.57 1024 512Z" fill="url(#paint0_linear_4_1068)"/>
<rect x="266.5" y="262.5" width="238" height="488" fill="white" stroke="#C6C6C6" stroke-width="9"/>
<rect x="285" y="281" width="92" height="210" fill="#C6044E" stroke="#C6C6C6" stroke-width="6"/>
<rect x="296" y="293" width="70" height="187" fill="white" stroke="#C6C6C6" stroke-width="6"/>
<rect x="394" y="281" width="92" height="210" fill="#C6044E" stroke="#C6C6C6" stroke-width="6"/>
<rect x="285" y="522" width="92" height="210" fill="#C6044E" stroke="#C6C6C6" stroke-width="6"/>
<rect x="394" y="522" width="92" height="210" fill="#C6044E" stroke="#C6C6C6" stroke-width="6"/>
<rect x="405" y="293" width="70" height="187" fill="white" stroke="#C6C6C6" stroke-width="6"/>
<rect x="405" y="534" width="70" height="187" fill="white" stroke="#C6C6C6" stroke-width="6"/>
<rect x="296" y="534" width="70" height="187" fill="white" stroke="#C6C6C6" stroke-width="6"/>
<circle cx="489" cy="506" r="9" fill="#C6044E"/>
<rect x="-4.5" y="4.5" width="238" height="488" transform="matrix(-1 0 0 1 752 258)" fill="white" stroke="#C6C6C6" stroke-width="9"/>
<rect x="-3" y="3" width="92" height="210" transform="matrix(-1 0 0 1 735 278)" fill="#C6044E" stroke="#C6C6C6" stroke-width="6"/>
<rect x="-3" y="3" width="70" height="187" transform="matrix(-1 0 0 1 724 290)" fill="white" stroke="#C6C6C6" stroke-width="6"/>
<rect x="-3" y="3" width="92" height="210" transform="matrix(-1 0 0 1 626 278)" fill="#C6044E" stroke="#C6C6C6" stroke-width="6"/>
<rect x="-3" y="3" width="92" height="210" transform="matrix(-1 0 0 1 735 519)" fill="#C6044E" stroke="#C6C6C6" stroke-width="6"/>
<rect x="-3" y="3" width="92" height="210" transform="matrix(-1 0 0 1 626 519)" fill="#C6044E" stroke="#C6C6C6" stroke-width="6"/>
<rect x="-3" y="3" width="70" height="187" transform="matrix(-1 0 0 1 615 290)" fill="white" stroke="#C6C6C6" stroke-width="6"/>
<rect x="-3" y="3" width="70" height="187" transform="matrix(-1 0 0 1 615 531)" fill="white" stroke="#C6C6C6" stroke-width="6"/>
<rect x="-3" y="3" width="70" height="187" transform="matrix(-1 0 0 1 724 531)" fill="white" stroke="#C6C6C6" stroke-width="6"/>
<circle cx="9" cy="9" r="9" transform="matrix(-1 0 0 1 543 497)" fill="#C6044E"/>
<rect x="148" y="765" width="727" height="30" fill="white"/>
<rect x="202" y="755" width="557" height="40" transform="rotate(-90 202 755)" fill="white"/>
<rect x="781" y="755" width="557" height="40" transform="rotate(-90 781 755)" fill="white"/>
<rect x="202" y="198" width="619" height="40" fill="white"/>
</g>
<defs>
<linearGradient id="paint0_linear_4_1068" x1="512" y1="0" x2="512" y2="1024" gradientUnits="userSpaceOnUse">
<stop stop-color="#FA0B42"/>
<stop offset="1" stop-color="#B20354"/>
</linearGradient>
<clipPath id="clip0_4_1068">
<rect width="1024" height="1024" fill="white"/>
</clipPath>
</defs>
</svg>
