<svg width="1024" height="1024" viewBox="0 0 1024 1024" fill="none" xmlns="http://www.w3.org/2000/svg">
<g clip-path="url(#clip0_4_1333)">
<path d="M1024 512C1024 662.896 1015.35 788.442 950.25 877.53C886.957 964.148 763.574 1024 512 1024C260.427 1024 137.044 964.148 73.7486 877.53C8.6515 788.442 0 662.896 0 512C0 361.57 10.6958 235.816 76.8314 146.641C141.275 59.748 264.922 0 512 0C759.077 0 882.726 59.748 947.168 146.641C1013.3 235.816 1024 361.57 1024 512Z" fill="#EDEDED"/>
<rect x="54" y="807" width="917" height="10" fill="#808080"/>
<rect x="330" y="808" width="590" height="12" transform="rotate(-90 330 808)" fill="#808080"/>
<rect x="695" y="230" width="353" height="12" transform="rotate(180 695 230)" fill="#808080"/>
<rect x="683" y="808" width="578" height="12" transform="rotate(-90 683 808)" fill="#808080"/>
<rect x="342" y="807" width="577" height="10" transform="rotate(-90 342 807)" fill="#C38E54"/>
<rect x="683" y="240" width="331" height="10" transform="rotate(180 683 240)" fill="#C38E54"/>
<rect x="673" y="807" width="568" height="9.99999" transform="rotate(-90 673 807)" fill="#C38E54"/>
<rect x="363" y="248" width="298" height="559" fill="#BDBDBD"/>
<circle cx="408" cy="564" r="19" fill="#FF931E"/>
<circle cx="409" cy="565" r="21" fill="#7E786F"/>
<circle cx="408" cy="564" r="19" fill="url(#paint0_radial_4_1333)"/>
</g>
<defs>
<radialGradient id="paint0_radial_4_1333" cx="0" cy="0" r="1" gradientUnits="userSpaceOnUse" gradientTransform="translate(408 564) rotate(90) scale(19)">
<stop offset="0.90625" stop-color="#FF931E"/>
<stop offset="1" stop-color="#CF6C00" stop-opacity="0"/>
</radialGradient>
<clipPath id="clip0_4_1333">
<rect width="1024" height="1024" fill="white"/>
</clipPath>
</defs>
</svg>
