<svg width="1024" height="1024" viewBox="0 0 1024 1024" fill="none" xmlns="http://www.w3.org/2000/svg">
<g clip-path="url(#clip0_4_1350)">
<path d="M1024 512C1024 662.896 1015.35 788.442 950.25 877.53C886.957 964.148 763.574 1024 512 1024C260.427 1024 137.044 964.148 73.7486 877.53C8.6515 788.442 0 662.896 0 512C0 361.57 10.6958 235.816 76.8314 146.641C141.275 59.748 264.922 0 512 0C759.077 0 882.726 59.748 947.168 146.641C1013.3 235.816 1024 361.57 1024 512Z" fill="#FF222C"/>
<mask id="mask0_4_1350" style="mask-type:alpha" maskUnits="userSpaceOnUse" x="0" y="0" width="1024" height="1024">
<path d="M1024 512C1024 662.896 1015.35 788.442 950.25 877.53C886.957 964.148 763.574 1024 512 1024C260.427 1024 137.044 964.148 73.7486 877.53C8.6515 788.442 0 662.896 0 512C0 361.57 10.6958 235.816 76.8314 146.641C141.275 59.748 264.922 0 512 0C759.077 0 882.726 59.748 947.168 146.641C1013.3 235.816 1024 361.57 1024 512Z" fill="#FF7C82"/>
</mask>
<g mask="url(#mask0_4_1350)">
<ellipse cx="0.5" cy="512" rx="359.5" ry="512" fill="#EB3354" fill-opacity="0.54"/>
<ellipse cx="1024.5" cy="512" rx="359.5" ry="512" fill="#EB3354" fill-opacity="0.54"/>
<ellipse cx="512.5" cy="-2.23802e-05" rx="359.5" ry="512" transform="rotate(90 512.5 -2.23802e-05)" fill="#FF535B" fill-opacity="0.62"/>
<ellipse cx="512.5" cy="1024" rx="359.5" ry="512" transform="rotate(90 512.5 1024)" fill="#FF535B" fill-opacity="0.62"/>
</g>
<path d="M283.808 623.882C291.618 609.186 306.902 600 323.545 600H701.228C717.99 600 733.363 609.317 741.12 624.176L777.139 693.176C792.778 723.136 771.043 759 737.247 759H286.875C252.933 759 231.209 722.854 247.138 692.882L283.808 623.882Z" fill="white"/>
<rect x="477.5" y="408" width="27" height="192" fill="white"/>
<rect x="527.5" y="408" width="27" height="192" fill="white"/>
<circle cx="511" cy="312.5" r="105.5" fill="white"/>
</g>
<defs>
<clipPath id="clip0_4_1350">
<rect width="1024" height="1024" fill="white"/>
</clipPath>
</defs>
</svg>
