<svg width="1024" height="1024" viewBox="0 0 1024 1024" fill="none" xmlns="http://www.w3.org/2000/svg">
<g clip-path="url(#clip0_4_1393)">
<path d="M1024 512C1024 662.896 1015.35 788.442 950.25 877.53C886.957 964.148 763.574 1024 512 1024C260.427 1024 137.044 964.148 73.7486 877.53C8.6515 788.442 0 662.896 0 512C0 361.57 10.6958 235.816 76.8314 146.641C141.275 59.748 264.922 0 512 0C759.077 0 882.726 59.748 947.168 146.641C1013.3 235.816 1024 361.57 1024 512Z" fill="url(#paint0_linear_4_1393)"/>
<path d="M223.5 755.199V795.467C223.5 803.83 226.819 811.85 232.726 817.764C238.634 823.678 246.646 827 255 827H286.5C294.854 827 302.866 823.678 308.774 817.764C314.681 811.85 318 803.83 318 795.467V763.933H696V795.467C696 803.83 699.319 811.85 705.226 817.764C711.133 823.678 719.146 827 727.5 827H759C767.354 827 775.367 823.678 781.274 817.764C787.181 811.85 790.5 803.83 790.5 795.467V755.199C800.057 749.712 808 741.801 813.531 732.263C819.061 722.724 821.982 711.895 822 700.867V606.267C822 580.062 806.029 557.642 783.318 548.088L740.226 418.675C733.975 399.833 721.951 383.443 705.863 371.832C689.775 360.222 670.441 353.982 650.608 354H363.391C343.559 353.982 324.225 360.222 308.137 371.832C292.049 383.443 280.025 399.833 273.774 418.675L230.682 548.088C219.225 552.891 209.442 560.976 202.56 571.326C195.678 581.677 192.004 593.833 192 606.267V700.867C192 724.138 204.726 744.257 223.5 755.199ZM302.25 700.867C296.043 700.865 289.897 699.639 284.163 697.259C278.43 694.879 273.22 691.392 268.833 686.997C259.972 678.121 254.996 666.084 255 653.535C255.004 640.986 259.988 628.953 268.855 620.082C277.722 611.212 289.746 606.231 302.281 606.235C314.817 606.239 326.838 611.228 335.699 620.105C344.56 628.981 349.536 641.018 349.531 653.567C349.527 666.116 344.544 678.149 335.677 687.019C326.81 695.89 314.786 700.871 302.25 700.867ZM711.75 700.867C699.214 700.862 687.194 695.873 678.333 686.997C669.472 678.121 664.496 666.084 664.5 653.535C664.504 640.986 669.488 628.953 678.355 620.082C687.222 611.212 699.246 606.231 711.781 606.235C724.317 606.239 736.338 611.228 745.199 620.105C754.06 628.981 759.036 641.018 759.031 653.567C759.027 666.116 754.044 678.149 745.177 687.019C736.31 695.89 724.286 700.871 711.75 700.867ZM363.391 417.067H650.577C657.191 417.065 663.637 419.148 669.003 423.019C674.368 426.89 678.381 432.354 680.47 438.635L715.31 543.2H298.691L333.498 438.635C337.814 425.738 349.846 417.067 363.391 417.067Z" fill="#929291"/>
<path d="M822 367.148V300.554L516.954 198.626C510.212 196.364 502.904 196.465 496.227 198.911L192 309.806V377L507.473 262L822 367.148Z" fill="#ED0001"/>
<circle cx="302.5" cy="653.5" r="40.5" fill="#F5DC01"/>
<circle cx="711.5" cy="653.5" r="40.5" fill="#F5DC01"/>
<circle cx="302.5" cy="653.5" r="89" stroke="url(#paint1_radial_4_1393)" stroke-width="71"/>
<circle cx="711.5" cy="653.5" r="89" stroke="url(#paint2_radial_4_1393)" stroke-width="71"/>
</g>
<defs>
<linearGradient id="paint0_linear_4_1393" x1="512" y1="0" x2="512" y2="1024" gradientUnits="userSpaceOnUse">
<stop stop-color="#040303"/>
<stop offset="1" stop-color="#282828"/>
</linearGradient>
<radialGradient id="paint1_radial_4_1393" cx="0" cy="0" r="1" gradientUnits="userSpaceOnUse" gradientTransform="translate(302.5 653.5) rotate(90) scale(124.5)">
<stop offset="0.390625" stop-color="#F8DF00"/>
<stop offset="0.697917" stop-color="#929291" stop-opacity="0"/>
</radialGradient>
<radialGradient id="paint2_radial_4_1393" cx="0" cy="0" r="1" gradientUnits="userSpaceOnUse" gradientTransform="translate(711.5 653.5) rotate(90) scale(124.5)">
<stop offset="0.390625" stop-color="#F8DF00"/>
<stop offset="0.697917" stop-color="#929291" stop-opacity="0"/>
</radialGradient>
<clipPath id="clip0_4_1393">
<rect width="1024" height="1024" fill="white"/>
</clipPath>
</defs>
</svg>
