<svg width="500" height="500" viewBox="0 0 500 500" fill="none" xmlns="http://www.w3.org/2000/svg">
<g clip-path="url(#clip0_14_566)">
<path d="M500 250C500 323.68 495.775 384.982 463.989 428.482C433.085 470.775 372.839 500 250 500C127.162 500 66.9161 470.775 36.0101 428.482C4.22436 384.982 0 323.68 0 250C0 176.548 5.22254 115.145 37.5153 71.6021C68.982 29.1738 129.357 0 250 0C370.643 0 431.019 29.1738 462.484 71.6021C494.778 115.145 500 176.548 500 250Z" fill="#39403F"/>
<mask id="mask0_14_566" style="mask-type:luminance" maskUnits="userSpaceOnUse" x="87" y="87" width="325" height="325">
<path d="M412 87H87V412H412V87Z" fill="white"/>
</mask>
<g mask="url(#mask0_14_566)">
<path fill-rule="evenodd" clip-rule="evenodd" d="M216.762 109.75V137.534C208.231 140.126 200.105 143.654 192.501 147.998L170.431 125.835C161.565 116.932 147.191 116.932 138.326 125.835L123.291 140.933C114.425 149.836 114.425 164.271 123.291 173.174L146.053 196.033C142.495 202.768 139.56 209.886 137.323 217.309H109.75C97.1855 217.309 87 227.495 87 240.059L87 261.507C87 274.072 97.1856 284.257 109.75 284.257H136.63C138.761 291.908 141.632 299.248 145.158 306.197L123.295 328.153C114.429 337.056 114.429 351.49 123.295 360.393L138.33 375.491C147.196 384.395 161.57 384.395 170.435 375.491L190.845 354.996C198.921 359.784 207.608 363.643 216.762 366.424V389.25C216.762 401.814 226.948 412 239.512 412H260.679C273.243 412 283.429 401.814 283.429 389.25V367.121C291.97 364.722 300.125 361.389 307.774 357.24L326.746 376.292C335.611 385.195 349.985 385.195 358.851 376.292L373.886 361.193C382.752 352.29 382.752 337.855 373.886 328.952L355.261 310.249C359.787 302.123 363.396 293.412 365.946 284.257H389.25C401.814 284.257 412 274.072 412 261.507V240.059C412 227.495 401.814 217.309 389.25 217.309H365.253C362.625 208.59 359.033 200.29 354.6 192.537L373.882 173.174C382.747 164.271 382.747 149.837 373.882 140.933L358.847 125.835C349.982 116.932 335.607 116.932 326.741 125.835L306.582 146.079C299.279 142.226 291.528 139.112 283.429 136.837V109.75C283.429 97.1855 273.243 87 260.679 87H239.512C226.948 87 216.762 97.1856 216.762 109.75ZM251.288 323.709C290.737 323.709 322.717 291.595 322.717 251.979C322.717 212.364 290.737 180.249 251.288 180.249C211.839 180.249 179.859 212.364 179.859 251.979C179.859 291.595 211.839 323.709 251.288 323.709Z" fill="white"/>
<path d="M250.699 284.257C268.78 284.257 283.437 269.538 283.437 251.381C283.437 233.224 268.78 218.505 250.699 218.505C232.618 218.505 217.961 233.224 217.961 251.381C217.961 269.538 232.618 284.257 250.699 284.257Z" fill="white"/>
</g>
</g>
<defs>
<clipPath id="clip0_14_566">
<rect width="500" height="500" fill="white"/>
</clipPath>
</defs>
</svg>
