<svg width="500" height="500" viewBox="0 0 500 500" fill="none" xmlns="http://www.w3.org/2000/svg">
<g clip-path="url(#clip0_14_541)">
<path d="M500 250C500 323.68 495.775 384.982 463.989 428.482C433.085 470.775 372.839 500 250 500C127.162 500 66.9161 470.775 36.0101 428.482C4.22436 384.982 0 323.68 0 250C0 176.548 5.22254 115.145 37.5153 71.6021C68.982 29.1738 129.357 0 250 0C370.643 0 431.019 29.1738 462.484 71.6021C494.778 115.145 500 176.548 500 250Z" fill="url(#paint0_linear_14_541)"/>
<path d="M250 100L100 250H125.056V399.666H374.944V250H400L250 100Z" fill="white"/>
<path d="M312 220.344C307.625 217.469 271.635 213.625 254.188 212.063V321.906C254.188 356.125 248.243 360.193 246.219 361.906C221.844 382.531 187 363.469 187 346.906C187 318.625 224.812 319.406 246.219 321.906V163C304.812 176.281 312 198 312 220.344Z" fill="#F51670"/>
</g>
<defs>
<linearGradient id="paint0_linear_14_541" x1="250" y1="0" x2="250" y2="500" gradientUnits="userSpaceOnUse">
<stop stop-color="#0A71A1"/>
<stop offset="1" stop-color="#19CCF7"/>
</linearGradient>
<clipPath id="clip0_14_541">
<rect width="500" height="500" fill="white"/>
</clipPath>
</defs>
</svg>
