<svg width="1024" height="1024" viewBox="0 0 1024 1024" fill="none" xmlns="http://www.w3.org/2000/svg">
<g clip-path="url(#clip0_4_1453)">
<path d="M1024 512C1024 662.896 1015.35 788.442 950.25 877.53C886.957 964.148 763.574 1024 512 1024C260.427 1024 137.044 964.148 73.7486 877.53C8.6515 788.442 0 662.896 0 512C0 361.57 10.6958 235.816 76.8314 146.641C141.275 59.748 264.922 0 512 0C759.077 0 882.726 59.748 947.168 146.641C1013.3 235.816 1024 361.57 1024 512Z" fill="url(#paint0_linear_4_1453)"/>
<rect x="275" y="513" width="477" height="287" fill="white"/>
<path d="M512 227L790.86 514.25H233.14L512 227Z" fill="white"/>
<ellipse cx="460.5" cy="686" rx="55.5" ry="30" fill="#F71B72"/>
<rect x="516" y="419" width="98" height="75" fill="#F71B72"/>
<path d="M616.789 393.117L518.352 417.043C509.465 420.461 503.312 428.664 503.312 438.234V642.629C490.324 636.477 475.285 632.375 459.562 632.375C417.18 632.375 383 656.984 383 687.062C383 717.824 417.18 741.75 459.562 741.75C501.262 741.75 536.125 717.824 536.125 687.062V525.734L629.777 503.176C639.348 499.758 645.5 491.555 645.5 481.984V413.625C645.5 406.789 642.082 400.637 635.93 396.535C630.461 392.434 623.625 391.066 616.789 393.117ZM459.562 708.938C432.219 708.938 415.812 694.582 415.812 687.062C415.812 679.543 432.219 665.188 459.562 665.188C486.223 665.188 503.312 679.543 503.312 687.062C503.312 695.266 486.223 708.938 459.562 708.938ZM612.688 473.781L536.125 490.871V446.438L612.688 428.664V473.781Z" fill="#F71B72"/>
</g>
<defs>
<linearGradient id="paint0_linear_4_1453" x1="512" y1="0" x2="512" y2="1024" gradientUnits="userSpaceOnUse">
<stop stop-color="#046FA3"/>
<stop offset="1" stop-color="#1CCBF7"/>
</linearGradient>
<clipPath id="clip0_4_1453">
<rect width="1024" height="1024" fill="white"/>
</clipPath>
</defs>
</svg>
