<svg width="1024" height="1024" viewBox="0 0 1024 1024" fill="none" xmlns="http://www.w3.org/2000/svg">
<g clip-path="url(#clip0_50_426)">
<path d="M1021 512C1021 662.896 1012.35 788.442 947.25 877.53C883.957 964.148 760.574 1024 509 1024C257.427 1024 134.044 964.148 70.7486 877.53C5.6515 788.442 -3 662.896 -3 512C-3 361.57 7.69576 235.816 73.8314 146.641C138.275 59.748 261.922 0 509 0C756.077 0 879.726 59.748 944.168 146.641C1010.3 235.816 1021 361.57 1021 512Z" fill="url(#paint0_linear_50_426)"/>
<path d="M269.5 509.5H219L508.5 220L631.5 343.5V289H712V422L798 509.5H749.5V804.5H566.5V603H454.5V804.5H269.5V509.5Z" fill="white"/>
</g>
<defs>
<linearGradient id="paint0_linear_50_426" x1="509" y1="0" x2="509" y2="1024" gradientUnits="userSpaceOnUse">
<stop stop-color="#3D1AFB"/>
<stop offset="1" stop-color="#0799DD"/>
</linearGradient>
<clipPath id="clip0_50_426">
<rect width="1024" height="1024" fill="white"/>
</clipPath>
</defs>
</svg>
