<svg width="1024" height="1023" viewBox="0 0 1024 1023" fill="none" xmlns="http://www.w3.org/2000/svg">
<g clip-path="url(#clip0_8_17)">
<path d="M1024 512C1024 662.896 1015.35 788.442 950.25 877.53C886.957 964.148 763.574 1024 512 1024C260.427 1024 137.044 964.148 73.7486 877.53C8.6515 788.442 0 662.896 0 512C0 361.57 10.6958 235.816 76.8314 146.641C141.275 59.748 264.922 0 512 0C759.077 0 882.726 59.748 947.168 146.641C1013.3 235.816 1024 361.57 1024 512Z" fill="black"/>
<path fill-rule="evenodd" clip-rule="evenodd" d="M309.167 482C321.25 491.833 327.333 507.167 327.333 528V632.667H269.75V535.667C269.75 531.417 268.167 527.75 265 524.583C261.833 521.417 258.083 519.833 253.917 519.833H220.417C216.167 519.833 212.583 521.417 209.5 524.583C206.5 527.75 205 531.5 205 535.667V632.667H147V392H205V470.417C205.917 470.083 208 469.5 211.333 468.583C214.667 467.667 219 467.25 224.5 467.25H261.667C281.167 467.25 297.083 472.167 309.167 482ZM491.833 467.25H549.833V568.75C549.833 587.75 544.583 603.167 534.167 615C523.75 626.75 509.583 632.667 491.75 632.667H434.667C414.75 632.667 398.75 627.167 386.833 616.083C374.917 605.083 368.917 589.25 368.917 568.75V467.25H426.917V564.25C426.917 568.5 428.417 572.083 431.417 575.167C434.417 578.167 438.083 579.667 442.333 579.667H475.833C480.083 579.667 483.75 578.167 486.917 575.167C490.083 572.167 491.667 568.5 491.667 564.25V467.25H491.833ZM593.75 392H651.75V632.667H593.75V392ZM876.583 467.25V568.75C876.583 587.75 871.333 603.167 860.917 615C850.5 626.75 836.333 632.667 818.5 632.667H761.833C741.583 632.667 725.5 627.167 713.583 616.083C701.667 605.083 695.667 589.25 695.667 568.75V467.25H753.667V564.25C753.667 568.5 755.167 572.083 758.167 575.167C761.167 578.167 764.833 579.667 769.083 579.667H803.083C807.333 579.667 810.917 578.167 814 575.167C817 572.167 818.5 568.5 818.5 564.25V467.25H876.583Z" fill="#1CE783"/>
</g>
<defs>
<clipPath id="clip0_8_17">
<rect width="1024" height="1023" fill="white"/>
</clipPath>
</defs>
</svg>
