<svg width="500" height="500" viewBox="0 0 500 500" fill="none" xmlns="http://www.w3.org/2000/svg">
<g clip-path="url(#clip0_4_756)">
<path d="M500 250C500 323.68 495.775 384.982 463.989 428.482C433.085 470.775 372.839 500 250 500C127.162 500 66.9161 470.775 36.0101 428.482C4.22436 384.982 0 323.68 0 250C0 176.548 5.22254 115.145 37.5153 71.6021C68.982 29.1738 129.357 0 250 0C370.643 0 431.019 29.1738 462.484 71.6021C494.778 115.145 500 176.548 500 250Z" fill="url(#paint0_linear_4_756)"/>
<g filter="url(#filter0_d_4_756)">
<path d="M436.996 226.541H407.136V276.366C407.136 278.617 406.267 280.527 404.88 282.096C403.489 283.485 401.58 284.18 399.33 284.347H381.967C379.537 284.173 377.626 283.479 376.238 282.096C374.845 280.534 373.982 278.625 373.982 276.366V226.541H344.122V278.97C344.298 285.916 345.515 291.99 348.464 296.846C351.411 301.709 355.232 305.353 360.267 307.783C365.476 310.213 371.377 311.609 378.146 311.609H407.141V311.264C413.393 311.264 418.771 309.871 423.285 307.268C427.624 304.487 431.098 300.673 433.357 295.803C435.784 290.946 437 285.212 437 278.963L436.996 226.541ZM138.214 229.667C133.005 227.41 127.277 226.368 121.027 226.541H101.756L94.2916 227.41C92.5552 227.93 91.687 228.278 91.687 228.278V188H62V311.611H91.687V261.61C91.8611 259.525 92.5552 257.444 94.1175 256.055C95.6797 254.665 97.4162 253.798 99.8466 253.798H117.208C119.291 253.798 121.201 254.673 122.763 256.055C124.326 257.444 125.017 259.525 125.193 261.61V311.611H154.88V257.793C154.88 250.326 153.317 244.251 150.366 239.563C147.244 235.049 143.25 231.75 138.214 229.667ZM239.254 276.367C239.08 278.619 238.386 280.53 236.997 282.097C235.434 283.488 233.525 284.182 231.268 284.349H213.907C211.65 284.174 209.741 283.48 208.351 282.097C206.789 280.535 206.095 278.627 205.921 276.367V226.541H176.234V278.97C176.234 285.916 177.623 291.99 180.401 296.846C183.178 301.709 187.171 305.353 192.206 307.783C197.414 310.213 203.143 311.609 210.087 311.609H239.254V311.264C245.504 311.264 250.884 309.871 255.225 307.268C259.565 304.487 263.037 300.673 265.47 295.803C267.724 290.946 268.942 285.212 269.115 278.963V226.541H239.254V276.367ZM291.686 311.611H321.373V188H291.686V311.611Z" fill="white"/>
</g>
</g>
<defs>
<filter id="filter0_d_4_756" x="62" y="188" width="387" height="135.612" filterUnits="userSpaceOnUse" color-interpolation-filters="sRGB">
<feFlood flood-opacity="0" result="BackgroundImageFix"/>
<feColorMatrix in="SourceAlpha" type="matrix" values="0 0 0 0 0 0 0 0 0 0 0 0 0 0 0 0 0 0 127 0" result="hardAlpha"/>
<feOffset dx="8" dy="8"/>
<feGaussianBlur stdDeviation="2"/>
<feComposite in2="hardAlpha" operator="out"/>
<feColorMatrix type="matrix" values="0 0 0 0 0 0 0 0 0 0 0 0 0 0 0 0 0 0 0.35 0"/>
<feBlend mode="normal" in2="BackgroundImageFix" result="effect1_dropShadow_4_756"/>
<feBlend mode="normal" in="SourceGraphic" in2="effect1_dropShadow_4_756" result="shape"/>
</filter>
<linearGradient id="paint0_linear_4_756" x1="250" y1="0" x2="250" y2="500" gradientUnits="userSpaceOnUse">
<stop stop-color="#A2CB39"/>
<stop offset="1" stop-color="#6DB143"/>
</linearGradient>
<clipPath id="clip0_4_756">
<rect width="500" height="500" fill="white"/>
</clipPath>
</defs>
</svg>
