<svg width="1024" height="1024" viewBox="0 0 1024 1024" fill="none" xmlns="http://www.w3.org/2000/svg">
<g clip-path="url(#clip0_1_29)">
<path d="M1023 512C1023 662.896 1014.35 788.442 949.25 877.53C885.957 964.148 762.574 1024 511 1024C259.427 1024 136.044 964.148 72.7486 877.53C7.6515 788.442 -1 662.896 -1 512C-1 361.57 9.69576 235.816 75.8314 146.641C140.275 59.748 263.922 0 511 0C758.077 0 881.726 59.748 946.168 146.641C1012.3 235.816 1023 361.57 1023 512Z" fill="#A52D27"/>
<path d="M347.308 580.785C298.17 537.276 273.373 491.941 273.373 448.888C273.373 405.836 297.562 360.805 329.509 340.724C345.178 334.03 351.72 353.199 341.679 359.892C316.274 375.866 296.193 413.29 296.193 449.193C296.193 485.095 318.556 524.649 362.521 563.594C373.17 576.829 356.74 588.695 347.46 580.633L347.308 580.785ZM421.091 541.992C387.775 523.28 365.412 486.769 365.412 451.627C365.412 416.485 384.428 385.146 414.549 369.477C430.523 363.848 435.848 383.625 425.199 389.558C402.379 401.424 388.231 425.004 388.231 450.714C388.383 478.706 406.03 507.306 432.349 522.063C445.584 532.864 431.436 547.468 421.091 542.144V541.992ZM512.521 508.675C485.29 508.675 463.079 486.616 463.079 459.385C463.079 432.154 485.29 409.943 512.521 409.943V363.239C483.008 319.274 432.197 289 375.148 289C284.479 289 211 362.479 211 453.148C211 510.653 247.511 552.184 285.544 590.521L434.478 731.393C444.063 737.326 455.016 733.371 455.168 722.57V612.884C455.168 581.089 480.878 555.379 512.673 555.379L512.521 508.675Z" fill="white"/>
<path d="M674.692 580.785C723.83 537.276 748.627 491.941 748.627 448.888C748.627 405.836 724.438 360.805 692.491 340.724C676.822 334.03 670.28 353.199 680.321 359.892C705.726 375.866 725.807 413.29 725.807 449.193C725.807 485.095 703.444 524.649 659.479 563.594C648.83 576.829 665.26 588.695 674.54 580.633L674.692 580.785ZM600.909 541.992C634.225 523.28 656.588 486.769 656.588 451.627C656.588 416.485 637.572 385.146 607.451 369.477C591.477 363.848 586.152 383.625 596.801 389.558C619.621 401.424 633.769 425.004 633.769 450.714C633.617 478.706 615.97 507.306 589.651 522.063C576.416 532.864 590.564 547.468 600.909 542.144V541.992ZM509.479 508.675C536.71 508.675 558.921 486.616 558.921 459.385C558.921 432.154 536.71 409.943 509.479 409.943V363.239C538.992 319.274 589.803 289 646.852 289C737.521 289 811 362.479 811 453.148C811 510.653 774.489 552.184 736.456 590.521L587.522 731.393C577.937 737.326 566.984 733.371 566.832 722.57V612.884C566.832 581.089 541.122 555.379 509.327 555.379L509.479 508.675Z" fill="white"/>
</g>
<defs>
<clipPath id="clip0_1_29">
<rect width="1024" height="1024" fill="white"/>
</clipPath>
</defs>
</svg>
