<svg width="1024" height="1024" viewBox="0 0 1024 1024" fill="none" xmlns="http://www.w3.org/2000/svg">
<g clip-path="url(#clip0_4_1576)">
<path d="M1024 512C1024 662.896 1015.35 788.442 950.25 877.53C886.957 964.148 763.574 1024 512 1024C260.427 1024 137.044 964.148 73.7486 877.53C8.6515 788.442 0 662.896 0 512C0 361.57 10.6958 235.816 76.8314 146.641C141.275 59.748 264.922 0 512 0C759.077 0 882.726 59.748 947.168 146.641C1013.3 235.816 1024 361.57 1024 512Z" fill="url(#paint0_linear_4_1576)"/>
<path d="M813.378 220.045H210.622C205.157 220.057 199.918 222.235 196.053 226.102C192.188 229.969 190.012 235.211 190 240.68V713.845C190 725.194 199.28 734.48 210.622 734.48H593.077V734.39H813.378C824.72 734.39 834 725.127 834 713.755V240.635C833.971 235.171 831.788 229.94 827.927 226.076C824.066 222.213 818.838 220.029 813.378 220V220.045ZM804.994 622.917C804.994 632.158 797.418 639.739 788.182 639.739H233.397C228.941 639.727 224.672 637.951 221.522 634.799C218.372 631.647 216.597 627.375 216.585 622.917V264.051C216.585 254.788 224.139 247.229 233.397 247.229H788.182C797.418 247.229 804.994 254.788 804.994 264.051V622.917Z" fill="white"/>
<rect x="461" y="734" width="109" height="65" fill="white"/>
<rect x="424" y="798" width="177" height="7" fill="white"/>
<circle cx="512" cy="234" r="4" fill="#5B3EDF"/>
</g>
<defs>
<linearGradient id="paint0_linear_4_1576" x1="512" y1="0" x2="512" y2="1024" gradientUnits="userSpaceOnUse">
<stop stop-color="#5A25E6"/>
<stop offset="1" stop-color="#5C57D6"/>
</linearGradient>
<clipPath id="clip0_4_1576">
<rect width="1024" height="1024" fill="white"/>
</clipPath>
</defs>
</svg>
