<svg width="1024" height="1024" viewBox="0 0 1024 1024" fill="none" xmlns="http://www.w3.org/2000/svg">
<g clip-path="url(#clip0_4_1605)">
<path d="M1024 512C1024 662.896 1015.35 788.442 950.25 877.53C886.957 964.148 763.574 1024 512 1024C260.427 1024 137.044 964.148 73.7486 877.53C8.6515 788.442 0 662.896 0 512C0 361.57 10.6958 235.816 76.8314 146.641C141.275 59.748 264.922 0 512 0C759.077 0 882.726 59.748 947.168 146.641C1013.3 235.816 1024 361.57 1024 512Z" fill="#FF9604"/>
<path d="M357 512.5C357 471.524 373.278 432.226 402.252 403.252C431.226 374.278 470.524 358 511.5 358C552.476 358 591.774 374.278 620.748 403.252C649.722 432.226 666 471.524 666 512.5C666 553.476 649.722 592.774 620.748 621.748C591.774 650.722 552.476 667 511.5 667C470.524 667 431.226 650.722 402.252 621.748C373.278 592.774 357 553.476 357 512.5ZM501.844 378.8C488.904 382.739 476.062 394.636 465.401 414.624C461.889 421.27 458.868 428.163 456.363 435.25H501.844V378.8ZM435.988 435.25C439.207 424.992 443.344 415.044 448.348 405.528C451.687 399.214 455.544 393.187 459.878 387.51C435.95 397.433 415.362 413.999 400.55 435.25H435.988ZM424.748 502.844C425.328 485.907 427.413 469.665 430.774 454.562H389.329C382.128 469.724 377.831 486.1 376.66 502.844H424.748ZM450.608 454.562C446.809 470.395 444.622 486.571 444.08 502.844H501.844V454.562H450.608ZM521.156 454.562V502.844H578.901C578.365 486.572 576.185 470.395 572.392 454.562H521.156ZM444.099 522.156C444.635 538.428 446.816 554.604 450.608 570.438H501.844V522.156H444.099ZM521.156 522.156V570.438H572.392C576.004 555.663 578.302 539.383 578.92 522.156H521.156ZM456.363 589.75C459.028 597.205 462.06 604.118 465.401 610.376C476.062 630.364 488.924 642.241 501.844 646.2V589.75H456.363ZM459.878 637.491C455.543 631.813 451.687 625.786 448.348 619.472C443.344 609.956 439.207 600.008 435.988 589.75H400.55C415.362 611.002 435.949 627.568 459.878 637.491ZM430.774 570.438C427.281 554.564 425.264 538.401 424.748 522.156H376.66C377.858 539.344 382.28 555.625 389.329 570.438H430.774ZM563.122 637.491C587.051 627.568 607.638 611.002 622.45 589.75H587.012C583.793 600.008 579.656 609.956 574.652 619.472C571.314 625.787 567.457 631.813 563.122 637.491ZM521.156 589.75V646.2C534.096 642.261 546.938 630.364 557.599 610.376C560.94 604.118 563.972 597.205 566.637 589.75H521.156ZM592.226 570.438H633.671C640.72 555.625 645.143 539.344 646.34 522.156H598.252C597.736 538.401 595.719 554.564 592.226 570.438ZM646.34 502.844C645.169 486.1 640.872 469.724 633.671 454.562H592.226C595.587 469.665 597.672 485.907 598.252 502.844H646.34ZM574.652 405.528C579.422 414.489 583.574 424.454 587.012 435.25H622.45C607.638 413.998 587.051 397.432 563.122 387.51C567.332 392.994 571.195 399.058 574.652 405.528ZM566.637 435.25C564.132 428.163 561.112 421.269 557.599 414.624C546.938 394.636 534.096 382.759 521.156 378.8V435.25H566.637Z" fill="white"/>
<path d="M326.55 619.317C321.95 623.917 316.456 626.089 310.067 625.833C303.678 625.578 298.694 623.022 295.117 618.167C284.383 604.111 276.016 588.456 270.016 571.201C264.016 553.946 261.01 535.74 261 516.583C261 497.161 264.067 478.822 270.2 461.567C276.333 444.312 284.894 428.662 295.883 414.617C299.461 409.761 304.383 407.267 310.649 407.134C316.916 407.001 322.344 409.24 326.933 413.85C331.278 418.194 333.516 423.5 333.649 429.766C333.782 436.032 332.055 441.844 328.467 447.2C321.567 457.167 316.261 467.961 312.551 479.584C308.84 491.207 306.99 503.54 307 516.583C307 529.617 308.917 541.95 312.75 553.583C316.583 565.216 321.822 575.882 328.467 585.583C332.3 591.206 334.028 597.15 333.649 603.416C333.271 609.682 330.905 614.982 326.55 619.317ZM261.767 684.483C257.422 688.828 252.117 691 245.851 691C239.584 691 234.412 688.7 230.333 684.1C211.167 661.356 196.15 635.8 185.284 607.433C174.418 579.067 168.99 548.783 169 516.583C169 484.383 174.433 454.1 185.299 425.733C196.166 397.367 211.177 371.811 230.333 349.067C234.422 344.467 239.533 342.1 245.667 341.967C251.8 341.834 257.167 344.073 261.767 348.683C266.111 353.028 268.411 358.328 268.667 364.584C268.922 370.84 267.006 376.529 262.917 381.65C247.839 400.306 236.083 421.072 227.65 443.949C219.217 466.827 215 491.038 215 516.583C215 542.139 219.217 566.35 227.65 589.217C236.083 612.084 247.839 632.851 262.917 651.517C267.006 656.628 268.922 662.316 268.667 668.583C268.411 674.849 266.111 680.149 261.767 684.483Z" fill="white"/>
<path d="M194.891 734.356C189.135 740.119 182.107 743 173.806 743C165.505 743 158.653 739.949 153.25 733.847C127.859 703.677 107.967 669.777 93.5719 632.149C79.1771 594.52 71.9865 554.349 72 511.636C72 468.923 79.1974 428.752 93.5922 391.123C107.987 353.495 127.873 319.595 153.25 289.425C158.667 283.323 165.437 280.184 173.562 280.007C181.687 279.831 188.797 282.801 194.891 288.916C200.646 294.679 203.693 301.71 204.031 310.008C204.37 318.307 201.831 325.853 196.414 332.647C176.44 357.393 160.867 384.94 149.695 415.287C138.523 445.634 132.938 477.75 132.938 511.636C132.938 545.535 138.523 577.652 149.695 607.985C160.867 638.318 176.44 665.865 196.414 690.625C201.831 697.405 204.37 704.951 204.031 713.263C203.693 721.576 200.646 728.606 194.891 734.356Z" fill="white"/>
<path d="M696.15 403.683C700.75 399.083 706.245 396.911 712.634 397.167C719.022 397.422 724.006 399.978 727.584 404.833C738.317 418.889 746.684 434.544 752.684 451.799C758.685 469.054 761.69 487.26 761.7 506.417C761.7 525.839 758.634 544.178 752.5 561.433C746.367 578.688 737.806 594.338 726.817 608.383C723.239 613.239 718.317 615.733 712.051 615.866C705.785 615.999 700.357 613.76 695.767 609.15C691.422 604.806 689.184 599.5 689.051 593.234C688.918 586.968 690.646 581.156 694.234 575.8C701.134 565.833 706.439 555.039 710.15 543.416C713.86 531.793 715.71 519.46 715.7 506.417C715.7 493.383 713.784 481.05 709.95 469.417C706.117 457.784 700.878 447.118 694.234 437.417C690.4 431.794 688.673 425.85 689.051 419.584C689.429 413.318 691.796 408.018 696.15 403.683ZM760.934 338.517C765.278 334.172 770.583 332 776.85 332C783.116 332 788.288 334.3 792.367 338.9C811.534 361.644 826.55 387.2 837.416 415.567C848.282 443.933 853.71 474.217 853.7 506.417C853.7 538.617 848.267 568.9 837.401 597.267C826.535 625.633 811.523 651.189 792.367 673.933C788.278 678.533 783.167 680.9 777.034 681.033C770.9 681.166 765.534 678.927 760.934 674.317C756.589 669.972 754.289 664.672 754.034 658.416C753.778 652.16 755.695 646.471 759.784 641.35C774.861 622.694 786.617 601.928 795.05 579.051C803.484 556.173 807.7 531.962 807.7 506.417C807.7 480.861 803.484 456.65 795.05 433.783C786.617 410.916 774.861 390.149 759.784 371.483C755.695 366.372 753.778 360.684 754.034 354.417C754.289 348.151 756.589 342.851 760.934 338.517Z" fill="white"/>
<path d="M827.81 288.644C833.565 282.881 840.593 280 848.894 280C857.195 280 864.047 283.051 869.45 289.153C894.841 319.323 914.734 353.223 929.128 390.851C943.523 428.48 950.714 468.651 950.7 511.364C950.7 554.077 943.503 594.248 929.108 631.877C914.713 669.505 894.827 703.405 869.45 733.575C864.034 739.677 857.263 742.816 849.138 742.993C841.013 743.169 833.903 740.199 827.81 734.084C822.054 728.321 819.007 721.29 818.669 712.992C818.33 704.693 820.869 697.147 826.286 690.353C846.26 665.607 861.833 638.06 873.005 607.713C884.177 577.366 889.763 545.25 889.763 511.364C889.763 477.465 884.177 445.348 873.005 415.015C861.833 384.682 846.26 357.135 826.286 332.375C820.869 325.595 818.33 318.049 818.669 309.737C819.007 301.424 822.054 294.394 827.81 288.644Z" fill="white"/>
</g>
<defs>
<clipPath id="clip0_4_1605">
<rect width="1024" height="1024" fill="white"/>
</clipPath>
</defs>
</svg>
