<svg width="1024" height="1024" viewBox="0 0 1024 1024" fill="none" xmlns="http://www.w3.org/2000/svg">
<g clip-path="url(#clip0_4_1662)">
<path d="M1024 509C1024 659.896 1015.35 785.442 950.25 874.53C886.957 961.148 763.574 1021 512 1021C260.427 1021 137.044 961.148 73.7486 874.53C8.6515 785.442 0 659.896 0 509C0 358.57 10.6958 232.816 76.8314 143.641C141.275 56.748 264.922 -3 512 -3C759.077 -3 882.726 56.748 947.168 143.641C1013.3 232.816 1024 358.57 1024 509Z" fill="#27CCED"/>
<path d="M447 559V465L501.429 512L447 559ZM519.571 556.762V467.238H537.714V556.762H519.571ZM555.857 556.762V467.238H574V556.762H555.857Z" fill="black"/>
<circle cx="511.5" cy="509.5" r="288" stroke="white" stroke-width="113"/>
<path d="M824.618 510.845L798.491 490.318C797.518 489.555 796.091 490.245 796.091 491.473V532.527C796.091 533.755 797.518 534.445 798.491 533.682L824.618 513.155C824.793 513.017 824.935 512.842 825.032 512.642C825.129 512.442 825.18 512.222 825.18 512C825.18 511.778 825.129 511.558 825.032 511.358C824.935 511.158 824.793 510.983 824.618 510.845ZM795.527 510.845L769.4 490.318C768.427 489.555 767 490.245 767 491.473V532.518C767 533.745 768.427 534.436 769.4 533.673L795.527 513.145C795.9 512.855 796.091 512.418 796.091 511.991C796.091 511.573 795.9 511.136 795.527 510.845ZM830.418 488H825.764C825.445 488 825.182 488.245 825.182 488.545V535.455C825.182 535.755 825.445 536 825.764 536H830.418C830.736 536 831 535.755 831 535.455V488.545C831 488.245 830.736 488 830.418 488Z" fill="black"/>
<path d="M197.382 510.845L223.509 490.318C224.482 489.555 225.909 490.245 225.909 491.473V532.527C225.909 533.755 224.482 534.445 223.509 533.682L197.382 513.155C197.207 513.017 197.065 512.842 196.968 512.642C196.871 512.442 196.82 512.222 196.82 512C196.82 511.778 196.871 511.558 196.968 511.358C197.065 511.158 197.207 510.983 197.382 510.845ZM226.473 510.845L252.6 490.318C253.573 489.555 255 490.245 255 491.473V532.518C255 533.745 253.573 534.436 252.6 533.673L226.473 513.145C226.1 512.855 225.909 512.418 225.909 511.991C225.909 511.573 226.1 511.136 226.473 510.845ZM191.582 488H196.236C196.555 488 196.818 488.245 196.818 488.545V535.455C196.818 535.755 196.555 536 196.236 536H191.582C191.264 536 191 535.755 191 535.455V488.545C191 488.245 191.264 488 191.582 488Z" fill="black"/>
<path d="M516 216V198H507V216H489V225H507V243H516V225H534V216H516Z" fill="black"/>
<path d="M535 808H489V795H535V808Z" fill="black"/>
</g>
<defs>
<clipPath id="clip0_4_1662">
<rect width="1024" height="1024" fill="white"/>
</clipPath>
</defs>
</svg>
