<svg width="1024" height="1024" viewBox="0 0 1024 1024" fill="none" xmlns="http://www.w3.org/2000/svg">
<g clip-path="url(#clip0_53_745)">
<mask id="mask0_53_745" style="mask-type:alpha" maskUnits="userSpaceOnUse" x="0" y="0" width="1024" height="1024">
<path d="M1024 512C1024 662.897 1015.35 788.442 950.25 877.53C886.957 964.148 763.574 1024 512 1024C260.427 1024 137.044 964.148 73.7486 877.53C8.6515 788.442 0 662.897 0 512C0 361.57 10.6958 235.816 76.8314 146.641C141.275 59.748 264.922 6.10352e-05 512 6.10352e-05C759.077 6.10352e-05 882.726 59.748 947.168 146.641C1013.3 235.816 1024 361.57 1024 512Z" fill="#FE0303"/>
</mask>
<g mask="url(#mask0_53_745)">
<path d="M1024 512C1024 662.897 1015.35 788.442 950.25 877.53C886.957 964.148 763.574 1024 512 1024C260.427 1024 137.044 964.148 73.7486 877.53C8.6515 788.442 0 662.897 0 512C0 361.57 10.6958 235.816 76.8314 146.641C141.275 59.748 264.922 6.10352e-05 512 6.10352e-05C759.077 6.10352e-05 882.726 59.748 947.168 146.641C1013.3 235.816 1024 361.57 1024 512Z" fill="#FE0303"/>
<path d="M518.529 557L1578 1113.66L518.529 1144L-545 1113.66L518.529 557Z" fill="url(#paint0_linear_53_745)"/>
<path d="M506.279 594L913 1098.5L506.279 1126L98.0001 1098.5L506.279 594Z" fill="url(#paint1_linear_53_745)"/>
<path d="M512.65 538L69 16.4304L512.65 -12L958 16.4304L512.65 538Z" fill="url(#paint2_linear_53_745)"/>
<path d="M512.697 594L-429 19.3251L512.697 -12.0001L1458 19.325L512.697 594Z" fill="url(#paint3_linear_53_745)"/>
<path d="M511.501 538L251 -27.1918L511.501 -58L773 -27.1918L511.501 538Z" fill="url(#paint4_linear_53_745)"/>
<path d="M643.111 725.384C617.588 749.87 589.722 746.003 562.897 734.405C534.51 722.549 508.467 722.033 478.517 734.405C441.015 750.385 421.222 745.746 398.825 725.384C271.734 595.738 290.485 398.305 434.765 391.088C469.923 392.892 494.404 410.161 514.978 411.708C545.709 405.522 575.138 387.738 607.952 390.057C647.277 393.15 676.967 408.615 696.499 436.451C615.244 484.65 634.516 590.583 709 620.224C694.155 658.886 674.883 697.29 642.85 725.642L643.111 725.384ZM512.373 389.542C508.467 332.065 555.605 284.639 609.775 280C617.328 346.498 548.834 395.985 512.373 389.542Z" fill="white"/>
</g>
</g>
<defs>
<linearGradient id="paint0_linear_53_745" x1="455.493" y1="738.24" x2="456.848" y2="1517.65" gradientUnits="userSpaceOnUse">
<stop stop-color="#FF6623" stop-opacity="0.44"/>
<stop offset="1" stop-color="#FE0303" stop-opacity="0"/>
</linearGradient>
<linearGradient id="paint1_linear_53_745" x1="482.08" y1="758.259" x2="484.979" y2="1464.63" gradientUnits="userSpaceOnUse">
<stop stop-color="#FF6623" stop-opacity="0.89"/>
<stop offset="1" stop-color="#FE0303" stop-opacity="0"/>
</linearGradient>
<linearGradient id="paint2_linear_53_745" x1="539.046" y1="368.184" x2="536.206" y2="-362.088" gradientUnits="userSpaceOnUse">
<stop stop-color="#FF6623" stop-opacity="0.44"/>
<stop offset="1" stop-color="#FE0303" stop-opacity="0"/>
</linearGradient>
<linearGradient id="paint3_linear_53_745" x1="568.725" y1="406.893" x2="567.1" y2="-397.743" gradientUnits="userSpaceOnUse">
<stop stop-color="#FF6623" stop-opacity="0.44"/>
<stop offset="1" stop-color="#FE0303" stop-opacity="0"/>
</linearGradient>
<linearGradient id="paint4_linear_53_745" x1="527" y1="353.981" x2="521.32" y2="-437.34" gradientUnits="userSpaceOnUse">
<stop stop-color="#FF6623" stop-opacity="0.89"/>
<stop offset="1" stop-color="#FE0303" stop-opacity="0"/>
</linearGradient>
<clipPath id="clip0_53_745">
<rect width="1024" height="1024" fill="white"/>
</clipPath>
</defs>
</svg>
