<svg width="1024" height="1024" viewBox="0 0 1024 1024" fill="none" xmlns="http://www.w3.org/2000/svg">
<g clip-path="url(#clip0_4_1716)">
<path d="M1024 512C1024 662.896 1015.35 788.442 950.25 877.53C886.957 964.148 763.574 1024 512 1024C260.427 1024 137.044 964.148 73.7486 877.53C8.6515 788.442 0 662.896 0 512C0 361.57 10.6958 235.816 76.8314 146.641C141.275 59.748 264.922 0 512 0C759.077 0 882.726 59.748 947.168 146.641C1013.3 235.816 1024 361.57 1024 512Z" fill="#4C1CB4"/>
<rect x="287" y="434" width="20" height="338" fill="white"/>
<rect x="357" y="369" width="310" height="458" fill="white"/>
<path d="M526.959 418.003C513.257 417.647 497.233 450.354 497.766 479.522C497.889 488.406 500.694 506.424 504.787 529.052C478.977 555.757 449.006 583.164 449.006 619.124C448.595 652.078 468.742 694.062 516.542 693.658C523.879 693.608 530.481 692.699 536.345 691.134C540.716 715.086 543.622 733.989 543.604 742.722C543.758 777.147 498.513 780.555 496.344 760.768C505.88 760.439 513.467 752.868 513.467 743.504C513.467 733.939 505.544 726.14 495.713 726.14C490.308 726.14 485.491 728.513 482.224 732.223C482.148 732.298 482.059 732.374 481.986 732.45C481.249 733.232 480.628 734.166 480.014 735.226C478 738.633 476.692 743.53 476.621 750.521C476.621 779.343 549.522 797.893 549.522 741.056C549.635 733.409 546.346 714 541.554 689.544C593.57 670.742 580.502 593.537 532.639 593.173C528.928 593.211 525.35 593.643 521.909 594.516C519.183 581.4 516.552 568.669 514.254 556.971C532.43 539.125 548.3 516.024 547.944 473.449C547.999 442.875 537.81 418.359 526.959 418.003ZM530.193 447.58C536.393 446.982 541.317 452.736 541.317 465.403C541.819 487.159 526.572 506.159 508.417 525.267C506.68 514.8 505.542 506.32 505.418 501.29C505.933 467.304 519.857 448.577 530.193 447.58ZM510.705 560.363C512.919 571.759 515.31 583.765 517.726 595.856C486.046 607.123 470.842 651.265 515.754 671.019C488.379 647.722 501.853 620.143 521.591 615.338C526.555 640.112 531.402 664.558 535.32 685.683C530.001 687.551 523.793 688.636 516.542 688.686C498.412 688.686 462.183 677.152 462.183 633.477C462.183 596.896 487.548 582.031 510.705 560.363ZM526.09 614.548C526.88 614.5 527.736 614.52 528.534 614.548C561.514 614.548 573.953 666.905 540.37 683.639C536.191 662.64 531.124 638.562 526.09 614.548Z" fill="#4C1CB4"/>
<mask id="path-5-inside-1_4_1716" fill="white">
<path d="M667 369C667 348.645 662.991 328.49 655.201 309.684C647.412 290.879 635.995 273.792 621.602 259.398C607.208 245.005 590.121 233.588 571.316 225.799C552.51 218.009 532.355 214 512 214C491.645 214 471.49 218.009 452.684 225.799C433.879 233.588 416.792 245.005 402.398 259.398C388.005 273.792 376.588 290.879 368.799 309.684C361.009 328.49 357 348.645 357 369L512 369H667Z"/>
</mask>
<path d="M667 369C667 348.645 662.991 328.49 655.201 309.684C647.412 290.879 635.995 273.792 621.602 259.398C607.208 245.005 590.121 233.588 571.316 225.799C552.51 218.009 532.355 214 512 214C491.645 214 471.49 218.009 452.684 225.799C433.879 233.588 416.792 245.005 402.398 259.398C388.005 273.792 376.588 290.879 368.799 309.684C361.009 328.49 357 348.645 357 369L512 369H667Z" fill="#4C1CB4" stroke="white" stroke-width="36" mask="url(#path-5-inside-1_4_1716)"/>
<rect x="267" y="787" width="60" height="60" fill="white"/>
<rect x="267" y="359" width="60" height="60" fill="white"/>
<rect x="717" y="434" width="20" height="338" fill="white"/>
<rect x="697" y="787" width="60" height="60" fill="white"/>
<rect x="697" y="359" width="60" height="60" fill="white"/>
<rect x="482" y="124" width="60" height="60" fill="white"/>
<path d="M297 344.977C297 195.977 448.5 151.5 467 151.5" stroke="white" stroke-width="20"/>
<path d="M727 344.977C727 195.977 575.5 151.5 557 151.5" stroke="white" stroke-width="20"/>
</g>
<defs>
<clipPath id="clip0_4_1716">
<rect width="1024" height="1024" fill="white"/>
</clipPath>
</defs>
</svg>
