<svg width="1024" height="1024" viewBox="0 0 1024 1024" fill="none" xmlns="http://www.w3.org/2000/svg">
<g clip-path="url(#clip0_4_1755)">
<path d="M1024 512C1024 662.896 1015.35 788.442 950.25 877.53C886.957 964.148 763.574 1024 512 1024C260.427 1024 137.044 964.148 73.7486 877.53C8.6515 788.442 0 662.896 0 512C0 361.57 10.6958 235.816 76.8314 146.641C141.275 59.748 264.922 0 512 0C759.077 0 882.726 59.748 947.168 146.641C1013.3 235.816 1024 361.57 1024 512Z" fill="#2B2B3A"/>
<path d="M217 666.604L330.353 601.16L217 535.715V666.604Z" fill="#FDB924"/>
<path d="M217 488.746L330.353 423.302L217 357.858V488.746Z" fill="#699AC5"/>
<path d="M230.559 690.089L343.912 755.533V624.644L230.559 690.089Z" fill="#699AC5"/>
<path d="M230.559 512.231L343.912 577.675V446.786L230.559 512.231Z" fill="#005890"/>
<path d="M230.559 334.373L343.912 399.817V268.929L230.559 334.373Z" fill="#005890"/>
<path d="M371.029 577.675L484.383 512.231L371.029 446.786V577.675Z" fill="#005890"/>
<path d="M371.029 399.817L484.383 334.373L371.029 268.929V399.817Z" fill="#005890"/>
<path d="M384.588 779.017L497.941 844.462V713.573L384.588 779.017Z" fill="#699AC5"/>
<path d="M384.588 601.16L497.941 666.604V535.715L384.588 601.16Z" fill="#699AC5"/>
<path d="M384.588 423.302L497.941 488.746V357.858L384.588 423.302Z" fill="#FDB924"/>
<path d="M525.059 844.462L638.412 779.017L525.059 713.573V844.462Z" fill="#699AC5"/>
<path d="M525.059 666.604L638.412 601.16L525.059 535.715V666.604Z" fill="#699AC5"/>
<path d="M525.059 488.746L638.412 423.302L525.059 357.858V488.746Z" fill="#699AC5"/>
<path d="M525.059 310.889L638.412 245.445L525.059 180V310.889Z" fill="#005890"/>
<path d="M538.617 690.089L651.971 755.533V624.644L538.617 690.089Z" fill="#005890"/>
<path d="M538.617 334.373L651.971 399.817V268.929L538.617 334.373Z" fill="#699AC5"/>
<path d="M679.088 755.533L792.441 690.089L679.088 624.644V755.533Z" fill="#FDB924"/>
<path d="M679.088 399.817L792.441 334.373L679.088 268.929V399.817Z" fill="#005890"/>
<path d="M692.647 601.16L806 666.604V535.715L692.647 601.16Z" fill="#005890"/>
<path d="M692.647 423.302L806 488.746V357.858L692.647 423.302Z" fill="#005890"/>
</g>
<defs>
<clipPath id="clip0_4_1755">
<rect width="1024" height="1024" fill="white"/>
</clipPath>
</defs>
</svg>
