<svg width="1024" height="1024" viewBox="0 0 1024 1024" fill="none" xmlns="http://www.w3.org/2000/svg">
<g clip-path="url(#clip0_4_1821)">
<path d="M1024 512C1024 662.896 1015.35 788.442 950.25 877.53C886.957 964.148 763.574 1024 512 1024C260.427 1024 137.044 964.148 73.7486 877.53C8.6515 788.442 0 662.896 0 512C0 361.57 10.6958 235.816 76.8314 146.641C141.275 59.748 264.922 0 512 0C759.077 0 882.726 59.748 947.168 146.641C1013.3 235.816 1024 361.57 1024 512Z" fill="url(#paint0_linear_4_1821)"/>
<mask id="path-2-inside-1_4_1821" fill="white">
<path d="M209 288H815V685C815 696.046 806.046 705 795 705H229C217.954 705 209 696.046 209 685V288Z"/>
</mask>
<path d="M209 288H815V685C815 696.046 806.046 705 795 705H229C217.954 705 209 696.046 209 685V288Z" stroke="white" stroke-width="50" mask="url(#path-2-inside-1_4_1821)"/>
<path d="M183.5 715H844.5V716C844.5 727.046 835.546 736 824.5 736H200.477C189.423 736 181.184 725.808 183.5 715Z" fill="white"/>
<path fill-rule="evenodd" clip-rule="evenodd" d="M246 328C423.333 328 600.668 328 778 328C778 440.333 778 552.667 778 665C600.668 665 423.333 665 246 665C246 552.667 246 440.333 246 328Z" fill="white"/>
</g>
<defs>
<linearGradient id="paint0_linear_4_1821" x1="512" y1="0" x2="512" y2="1024" gradientUnits="userSpaceOnUse">
<stop stop-color="#05A5FE"/>
<stop offset="1" stop-color="#0C87FD"/>
</linearGradient>
<clipPath id="clip0_4_1821">
<rect width="1024" height="1024" fill="white"/>
</clipPath>
</defs>
</svg>
