<svg width="1024" height="1024" viewBox="0 0 1024 1024" fill="none" xmlns="http://www.w3.org/2000/svg">
<g clip-path="url(#clip0_4_1804)">
<path d="M1024 512C1024 662.896 1015.35 788.442 950.25 877.53C886.957 964.148 763.574 1024 512 1024C260.427 1024 137.044 964.148 73.7486 877.53C8.6515 788.442 0 662.896 0 512C0 361.57 10.6958 235.816 76.8314 146.641C141.275 59.748 264.922 0 512 0C759.077 0 882.726 59.748 947.168 146.641C1013.3 235.816 1024 361.57 1024 512Z" fill="url(#paint0_linear_4_1804)"/>
<mask id="path-2-inside-1_4_1804" fill="white">
<path d="M216 288H822V685C822 696.046 813.046 705 802 705H236C224.954 705 216 696.046 216 685V288Z"/>
</mask>
<path d="M216 288H822V685C822 696.046 813.046 705 802 705H236C224.954 705 216 696.046 216 685V288Z" stroke="white" stroke-width="50" mask="url(#path-2-inside-1_4_1804)"/>
<path d="M190.5 715H851.5V716C851.5 727.046 842.546 736 831.5 736H207.477C196.423 736 188.184 725.808 190.5 715Z" fill="white"/>
<path fill-rule="evenodd" clip-rule="evenodd" d="M253 328C430.333 328 607.668 328 785 328C785 440.333 785 552.667 785 665C607.668 665 430.333 665 253 665C253 552.667 253 440.333 253 328Z" fill="white"/>
</g>
<defs>
<linearGradient id="paint0_linear_4_1804" x1="512" y1="0" x2="512" y2="1024" gradientUnits="userSpaceOnUse">
<stop stop-color="#23232B"/>
<stop offset="1" stop-color="#2A2A36"/>
</linearGradient>
<clipPath id="clip0_4_1804">
<rect width="1024" height="1024" fill="white"/>
</clipPath>
</defs>
</svg>
