<svg width="1024" height="1024" viewBox="0 0 1024 1024" fill="none" xmlns="http://www.w3.org/2000/svg">
<g clip-path="url(#clip0_50_430)">
<path d="M1021 512C1021 662.896 1012.35 788.442 947.25 877.53C883.957 964.148 760.574 1024 509 1024C257.427 1024 134.044 964.148 70.7486 877.53C5.6515 788.442 -3 662.896 -3 512C-3 361.57 7.69576 235.816 73.8314 146.641C138.275 59.748 261.922 0 509 0C756.077 0 879.726 59.748 944.168 146.641C1010.3 235.816 1021 361.57 1021 512Z" fill="#E31B23"/>
<path d="M471.14 663.785L445.504 593.942C445.504 593.942 403.682 640.555 341.145 640.555C285.652 640.555 246.367 592.367 246.367 515.241C246.367 416.569 296.151 381.265 345.126 381.265C415.647 381.265 437.98 426.959 457.228 485.646L482.624 565.856C508.019 643.748 556.229 706.307 695.082 706.307C794.564 706.307 862 675.881 862 595.451C862 530.53 824.88 496.779 756.044 480.746L704.772 469.569C669.25 461.453 658.75 446.995 658.75 422.956C658.75 395.636 680.296 379.559 715.709 379.559C754.36 379.559 774.856 394.017 778.377 428.556L858.457 418.844C851.96 346.639 801.935 317 720.15 317C647.792 317 577.271 344.364 577.271 431.727C577.271 486.411 603.607 520.906 670.125 536.874L724.459 549.757C765.253 559.447 778.793 576.531 778.793 599.782C778.793 629.509 749.854 641.802 695.06 641.802C614.062 641.802 580.355 599.301 561.106 540.636L534.771 460.425C501.063 356.198 447.167 317.569 340.292 317.569C224.646 317.219 162 391.611 162 518.631C162 640.533 224.646 706.635 337.098 706.635C427.655 706.635 471.074 664.135 471.074 664.135L471.14 663.785Z" fill="white"/>
</g>
<defs>
<clipPath id="clip0_50_430">
<rect width="1024" height="1024" fill="white"/>
</clipPath>
</defs>
</svg>
