<svg width="500" height="500" viewBox="0 0 500 500" fill="none" xmlns="http://www.w3.org/2000/svg">
<g clip-path="url(#clip0_14_531)">
<path d="M500 250C500 323.68 495.775 384.982 463.989 428.482C433.085 470.775 372.839 500 250 500C127.162 500 66.9161 470.775 36.0101 428.482C4.22436 384.982 0 323.68 0 250C0 176.548 5.22254 115.145 37.5153 71.6021C68.982 29.1738 129.357 0 250 0C370.643 0 431.019 29.1738 462.484 71.6021C494.778 115.145 500 176.548 500 250Z" fill="#FD1F25"/>
<path d="M237.705 297.799L229.762 276.161C229.762 276.161 216.805 290.602 197.431 290.602C180.238 290.602 168.067 275.673 168.067 251.778C168.067 221.209 183.491 210.271 198.664 210.271C220.512 210.271 227.431 224.428 233.395 242.61L241.262 267.46C249.13 291.591 264.066 310.973 307.084 310.973C337.905 310.973 358.797 301.546 358.797 276.629C358.797 256.515 347.297 246.059 325.971 241.092L310.086 237.629C299.081 235.115 295.828 230.635 295.828 223.188C295.828 214.724 302.503 209.743 313.475 209.743C325.449 209.743 331.799 214.222 332.89 224.922L357.699 221.914C355.687 199.544 340.188 190.361 314.85 190.361C292.433 190.361 270.585 198.839 270.585 225.905C270.585 242.847 278.744 253.534 299.352 258.481L316.185 262.472C328.824 265.474 333.019 270.767 333.019 277.97C333.019 287.18 324.053 290.988 307.078 290.988C281.983 290.988 271.541 277.821 265.577 259.646L257.418 234.796C246.975 202.505 230.277 190.538 197.166 190.538C161.338 190.429 141.93 213.477 141.93 252.829C141.93 290.595 161.338 311.074 196.177 311.074C224.233 311.074 237.684 297.907 237.684 297.907L237.705 297.799Z" fill="#D6D8EE"/>
<circle cx="250" cy="250" r="140" stroke="#D6D8EE" stroke-width="20"/>
</g>
<defs>
<clipPath id="clip0_14_531">
<rect width="500" height="500" fill="white"/>
</clipPath>
</defs>
</svg>
