<svg width="1024" height="1024" viewBox="0 0 1024 1024" fill="none" xmlns="http://www.w3.org/2000/svg">
<g clip-path="url(#clip0_50_440)">
<path d="M1024 512C1024 662.896 1015.35 788.442 950.25 877.53C886.957 964.148 763.574 1024 512 1024C260.427 1024 137.044 964.148 73.7486 877.53C8.6515 788.442 0 662.896 0 512C0 361.57 10.6958 235.816 76.8314 146.641C141.275 59.748 264.922 0 512 0C759.077 0 882.726 59.748 947.168 146.641C1013.3 235.816 1024 361.57 1024 512Z" fill="url(#paint0_linear_50_440)"/>
<circle cx="512" cy="422" r="186" fill="white"/>
<rect x="411" y="576" width="198" height="164" rx="46" fill="white"/>
<path d="M381.5 540.5C419 578 421 596.5 421 653.5" stroke="white" stroke-width="20"/>
<path d="M638.5 540.5C601 578 599 596.5 599 653.5" stroke="white" stroke-width="20"/>
<rect x="423" y="583" width="6" height="8" fill="white"/>
<rect x="455" y="749" width="120" height="39" rx="19.5" fill="white"/>
<circle cx="511.5" cy="446.5" r="37" fill="white" stroke="url(#paint1_linear_50_440)" stroke-width="21"/>
<rect x="501" y="483" width="21" height="199" fill="url(#paint2_linear_50_440)"/>
</g>
<defs>
<linearGradient id="paint0_linear_50_440" x1="512" y1="0" x2="512" y2="1024" gradientUnits="userSpaceOnUse">
<stop stop-color="#FF9D2B"/>
<stop offset="1" stop-color="#FF4800"/>
</linearGradient>
<linearGradient id="paint1_linear_50_440" x1="511.5" y1="399" x2="511.5" y2="494" gradientUnits="userSpaceOnUse">
<stop stop-color="#FF7C1A"/>
<stop offset="1" stop-color="#FF7617"/>
</linearGradient>
<linearGradient id="paint2_linear_50_440" x1="511.5" y1="483" x2="511.5" y2="682" gradientUnits="userSpaceOnUse">
<stop stop-color="#FF7718"/>
<stop offset="1" stop-color="#FF650F"/>
</linearGradient>
<clipPath id="clip0_50_440">
<rect width="1024" height="1024" fill="white"/>
</clipPath>
</defs>
</svg>
