<svg width="1024" height="1024" viewBox="0 0 1024 1024" fill="none" xmlns="http://www.w3.org/2000/svg">
<g clip-path="url(#clip0_4_1912)">
<path d="M1024 512C1024 662.896 1015.35 788.442 950.25 877.53C886.957 964.148 763.574 1024 512 1024C260.427 1024 137.044 964.148 73.7486 877.53C8.6515 788.442 0 662.896 0 512C0 361.57 10.6958 235.816 76.8314 146.641C141.275 59.748 264.922 0 512 0C759.077 0 882.726 59.748 947.168 146.641C1013.3 235.816 1024 361.57 1024 512Z" fill="#FF0604"/>
<mask id="path-2-inside-1_4_1912" fill="white">
<path d="M209 288H815V685C815 696.046 806.046 705 795 705H229C217.954 705 209 696.046 209 685V288Z"/>
</mask>
<path d="M209 288H815V685C815 696.046 806.046 705 795 705H229C217.954 705 209 696.046 209 685V288Z" stroke="white" stroke-width="50" mask="url(#path-2-inside-1_4_1912)"/>
<path d="M183.5 715H844.5V716C844.5 727.046 835.546 736 824.5 736H200.477C189.423 736 181.184 725.808 183.5 715Z" fill="white"/>
<path d="M571.808 594.454C560.113 605.694 547.343 603.92 535.052 598.595C522.044 593.153 510.11 592.916 496.386 598.595C479.202 605.931 470.132 603.801 459.869 594.454C401.632 534.94 410.225 444.308 476.338 440.995C492.448 441.823 503.666 449.751 513.094 450.461C527.175 447.621 540.661 439.457 555.697 440.522C573.717 441.942 587.322 449.041 596.272 461.819C559.039 483.945 567.87 532.574 602 546.18C595.198 563.928 586.367 581.558 571.688 594.573L571.808 594.454ZM511.9 440.285C510.11 413.9 531.71 392.13 556.532 390C559.993 420.526 528.607 443.243 511.9 440.285Z" fill="white"/>
</g>
<defs>
<clipPath id="clip0_4_1912">
<rect width="1024" height="1024" fill="white"/>
</clipPath>
</defs>
</svg>
