<svg width="1024" height="1024" viewBox="0 0 1024 1024" fill="none" xmlns="http://www.w3.org/2000/svg">
<g clip-path="url(#clip0_42_29)">
<path d="M1024 512C1024 662.896 1015.35 788.442 950.25 877.53C886.957 964.148 763.574 1024 512 1024C260.427 1024 137.044 964.148 73.7486 877.53C8.6515 788.442 0 662.896 0 512C0 361.57 10.6958 235.816 76.8314 146.641C141.275 59.748 264.922 0 512 0C759.077 0 882.726 59.748 947.168 146.641C1013.3 235.816 1024 361.57 1024 512Z" fill="#FEFE22"/>
<path fill-rule="evenodd" clip-rule="evenodd" d="M547.64 450.76C603.96 454.174 660.28 457.587 716.6 461C626.14 579.646 536.54 699.116 447.8 819.4C447.362 797.236 449.069 775.045 452.92 752.84C465.268 693.284 476.361 633.549 486.2 573.64C426.466 570.225 366.734 566.815 307 563.4C397.46 444.752 487.06 325.285 575.8 205C568.489 286.998 559.104 368.918 547.64 450.76Z" fill="#282804"/>
</g>
<defs>
<clipPath id="clip0_42_29">
<rect width="1024" height="1024" fill="white"/>
</clipPath>
</defs>
</svg>
