<svg width="1024" height="1024" viewBox="0 0 1024 1024" fill="none" xmlns="http://www.w3.org/2000/svg">
<g clip-path="url(#clip0_4_1934)">
<path d="M1024 512C1024 662.896 1015.35 788.442 950.25 877.53C886.957 964.148 763.574 1024 512 1024C260.427 1024 137.044 964.148 73.7486 877.53C8.6515 788.442 0 662.896 0 512C0 361.57 10.6958 235.816 76.8314 146.641C141.275 59.748 264.922 0 512 0C759.077 0 882.726 59.748 947.168 146.641C1013.3 235.816 1024 361.57 1024 512Z" fill="url(#paint0_linear_4_1934)"/>
<path d="M40 276H64V776H40V276Z" fill="url(#paint1_linear_4_1934)"/>
<path d="M40 276H64V776H40V276Z" fill="url(#paint2_linear_4_1934)"/>
<path d="M76 289H100V764H76V289Z" fill="url(#paint3_linear_4_1934)"/>
<path d="M76 289H100V764H76V289Z" fill="url(#paint4_linear_4_1934)"/>
<path d="M112 301H136V751H112V301Z" fill="url(#paint5_linear_4_1934)"/>
<path d="M112 301H136V751H112V301Z" fill="url(#paint6_linear_4_1934)"/>
<path d="M148 314H172V739H148V314Z" fill="url(#paint7_linear_4_1934)"/>
<path d="M148 314H172V739H148V314Z" fill="url(#paint8_linear_4_1934)"/>
<path d="M184 326H208V726H184V326Z" fill="url(#paint9_linear_4_1934)"/>
<path d="M184 326H208V726H184V326Z" fill="url(#paint10_linear_4_1934)"/>
<path d="M220 339H244V714H220V339Z" fill="url(#paint11_linear_4_1934)"/>
<path d="M220 339H244V714H220V339Z" fill="url(#paint12_linear_4_1934)"/>
<path d="M256 351H280V701H256V351Z" fill="url(#paint13_linear_4_1934)"/>
<path d="M256 351H280V701H256V351Z" fill="url(#paint14_linear_4_1934)"/>
<path d="M292 364H316V689H292V364Z" fill="url(#paint15_linear_4_1934)"/>
<path d="M292 364H316V689H292V364Z" fill="url(#paint16_linear_4_1934)"/>
<path d="M328 376H352V676H328V376Z" fill="url(#paint17_linear_4_1934)"/>
<path d="M328 376H352V676H328V376Z" fill="url(#paint18_linear_4_1934)"/>
<path d="M364 389H388V664H364V389Z" fill="url(#paint19_linear_4_1934)"/>
<path d="M364 389H388V664H364V389Z" fill="url(#paint20_linear_4_1934)"/>
<path d="M400 401H424V651H400V401Z" fill="url(#paint21_linear_4_1934)"/>
<path d="M400 401H424V651H400V401Z" fill="url(#paint22_linear_4_1934)"/>
<path d="M436 414H460V639H436V414Z" fill="url(#paint23_linear_4_1934)"/>
<path d="M436 414H460V639H436V414Z" fill="url(#paint24_linear_4_1934)"/>
<path d="M984 776L960 776L960 276L984 276L984 776Z" fill="url(#paint25_linear_4_1934)"/>
<path d="M984 776L960 776L960 276L984 276L984 776Z" fill="url(#paint26_linear_4_1934)"/>
<path d="M948 763L924 763L924 288L948 288L948 763Z" fill="url(#paint27_linear_4_1934)"/>
<path d="M948 763L924 763L924 288L948 288L948 763Z" fill="url(#paint28_linear_4_1934)"/>
<path d="M912 751L888 751L888 301L912 301L912 751Z" fill="url(#paint29_linear_4_1934)"/>
<path d="M912 751L888 751L888 301L912 301L912 751Z" fill="url(#paint30_linear_4_1934)"/>
<path d="M876 738L852 738L852 313L876 313L876 738Z" fill="url(#paint31_linear_4_1934)"/>
<path d="M876 738L852 738L852 313L876 313L876 738Z" fill="url(#paint32_linear_4_1934)"/>
<path d="M840 726L816 726L816 326L840 326L840 726Z" fill="url(#paint33_linear_4_1934)"/>
<path d="M840 726L816 726L816 326L840 326L840 726Z" fill="url(#paint34_linear_4_1934)"/>
<path d="M804 713L780 713L780 338L804 338L804 713Z" fill="url(#paint35_linear_4_1934)"/>
<path d="M804 713L780 713L780 338L804 338L804 713Z" fill="url(#paint36_linear_4_1934)"/>
<path d="M768 701L744 701L744 351L768 351L768 701Z" fill="url(#paint37_linear_4_1934)"/>
<path d="M768 701L744 701L744 351L768 351L768 701Z" fill="url(#paint38_linear_4_1934)"/>
<path d="M732 688L708 688L708 363L732 363L732 688Z" fill="url(#paint39_linear_4_1934)"/>
<path d="M732 688L708 688L708 363L732 363L732 688Z" fill="url(#paint40_linear_4_1934)"/>
<path d="M696 676L672 676L672 376L696 376L696 676Z" fill="url(#paint41_linear_4_1934)"/>
<path d="M696 676L672 676L672 376L696 376L696 676Z" fill="url(#paint42_linear_4_1934)"/>
<path d="M660 663L636 663L636 388L660 388L660 663Z" fill="url(#paint43_linear_4_1934)"/>
<path d="M660 663L636 663L636 388L660 388L660 663Z" fill="url(#paint44_linear_4_1934)"/>
<path d="M624 651L600 651L600 401L624 401L624 651Z" fill="url(#paint45_linear_4_1934)"/>
<path d="M624 651L600 651L600 401L624 401L624 651Z" fill="url(#paint46_linear_4_1934)"/>
<path d="M588 638L564 638L564 413L588 413L588 638Z" fill="url(#paint47_linear_4_1934)"/>
<path d="M588 638L564 638L564 413L588 413L588 638Z" fill="url(#paint48_linear_4_1934)"/>
<path d="M413.5 820H610.5M709 451V500.2C709 608.44 620.35 697 512 697M512 697C403.65 697 315 608.44 315 500.2V451M512 697V820" stroke="#543959" stroke-width="32" stroke-miterlimit="10" stroke-linecap="square"/>
<path d="M512 623C495.765 622.962 479.703 619.664 464.767 613.302C449.832 606.94 436.327 597.643 425.055 585.964C401.98 562.703 389.023 531.279 389.001 498.522V327.942C388.938 311.779 392.076 295.764 398.235 280.82C404.394 265.876 413.452 252.298 424.886 240.869C436.32 229.44 449.905 220.387 464.856 214.231C479.808 208.075 495.83 204.938 512 205.001C580.972 205.001 635 259.003 635 327.942V498.522C635 567.154 579.819 623 512 623Z" fill="#543959"/>
</g>
<defs>
<linearGradient id="paint0_linear_4_1934" x1="512" y1="0" x2="512" y2="1024" gradientUnits="userSpaceOnUse">
<stop stop-color="#E1E3ED"/>
<stop offset="1" stop-color="#D6D9E7"/>
</linearGradient>
<linearGradient id="paint1_linear_4_1934" x1="52" y1="276" x2="52" y2="776" gradientUnits="userSpaceOnUse">
<stop stop-color="#D9D9D9" stop-opacity="0"/>
<stop offset="0.5" stop-color="#A3AEF9"/>
<stop offset="1" stop-color="#D9D9D9" stop-opacity="0"/>
</linearGradient>
<linearGradient id="paint2_linear_4_1934" x1="52" y1="276" x2="52" y2="776" gradientUnits="userSpaceOnUse">
<stop stop-color="#D9D9D9" stop-opacity="0"/>
<stop offset="0.5" stop-color="#A3AEF9"/>
<stop offset="1" stop-color="#D9D9D9" stop-opacity="0"/>
</linearGradient>
<linearGradient id="paint3_linear_4_1934" x1="88" y1="289" x2="88" y2="764" gradientUnits="userSpaceOnUse">
<stop stop-color="#D9D9D9" stop-opacity="0"/>
<stop offset="0.5" stop-color="#A3AEF9"/>
<stop offset="1" stop-color="#D9D9D9" stop-opacity="0"/>
</linearGradient>
<linearGradient id="paint4_linear_4_1934" x1="88" y1="289" x2="88" y2="764" gradientUnits="userSpaceOnUse">
<stop stop-color="#D9D9D9" stop-opacity="0"/>
<stop offset="0.5" stop-color="#A3AEF9"/>
<stop offset="1" stop-color="#D9D9D9" stop-opacity="0"/>
</linearGradient>
<linearGradient id="paint5_linear_4_1934" x1="124" y1="301" x2="124" y2="751" gradientUnits="userSpaceOnUse">
<stop stop-color="#D9D9D9" stop-opacity="0"/>
<stop offset="0.5" stop-color="#A3AEF9"/>
<stop offset="1" stop-color="#D9D9D9" stop-opacity="0"/>
</linearGradient>
<linearGradient id="paint6_linear_4_1934" x1="124" y1="301" x2="124" y2="751" gradientUnits="userSpaceOnUse">
<stop stop-color="#D9D9D9" stop-opacity="0"/>
<stop offset="0.5" stop-color="#A3AEF9"/>
<stop offset="1" stop-color="#D9D9D9" stop-opacity="0"/>
</linearGradient>
<linearGradient id="paint7_linear_4_1934" x1="160" y1="314" x2="160" y2="739" gradientUnits="userSpaceOnUse">
<stop stop-color="#D9D9D9" stop-opacity="0"/>
<stop offset="0.5" stop-color="#A3AEF9"/>
<stop offset="1" stop-color="#D9D9D9" stop-opacity="0"/>
</linearGradient>
<linearGradient id="paint8_linear_4_1934" x1="160" y1="314" x2="160" y2="739" gradientUnits="userSpaceOnUse">
<stop stop-color="#D9D9D9" stop-opacity="0"/>
<stop offset="0.5" stop-color="#A3AEF9"/>
<stop offset="1" stop-color="#D9D9D9" stop-opacity="0"/>
</linearGradient>
<linearGradient id="paint9_linear_4_1934" x1="196" y1="326" x2="196" y2="726" gradientUnits="userSpaceOnUse">
<stop stop-color="#D9D9D9" stop-opacity="0"/>
<stop offset="0.5" stop-color="#A3AEF9"/>
<stop offset="1" stop-color="#D9D9D9" stop-opacity="0"/>
</linearGradient>
<linearGradient id="paint10_linear_4_1934" x1="196" y1="326" x2="196" y2="726" gradientUnits="userSpaceOnUse">
<stop stop-color="#D9D9D9" stop-opacity="0"/>
<stop offset="0.5" stop-color="#A3AEF9"/>
<stop offset="1" stop-color="#D9D9D9" stop-opacity="0"/>
</linearGradient>
<linearGradient id="paint11_linear_4_1934" x1="232" y1="339" x2="232" y2="714" gradientUnits="userSpaceOnUse">
<stop stop-color="#D9D9D9" stop-opacity="0"/>
<stop offset="0.5" stop-color="#A3AEF9"/>
<stop offset="1" stop-color="#D9D9D9" stop-opacity="0"/>
</linearGradient>
<linearGradient id="paint12_linear_4_1934" x1="232" y1="339" x2="232" y2="714" gradientUnits="userSpaceOnUse">
<stop stop-color="#D9D9D9" stop-opacity="0"/>
<stop offset="0.5" stop-color="#A3AEF9"/>
<stop offset="1" stop-color="#D9D9D9" stop-opacity="0"/>
</linearGradient>
<linearGradient id="paint13_linear_4_1934" x1="268" y1="351" x2="268" y2="701" gradientUnits="userSpaceOnUse">
<stop stop-color="#D9D9D9" stop-opacity="0"/>
<stop offset="0.5" stop-color="#A3AEF9"/>
<stop offset="1" stop-color="#D9D9D9" stop-opacity="0"/>
</linearGradient>
<linearGradient id="paint14_linear_4_1934" x1="268" y1="351" x2="268" y2="701" gradientUnits="userSpaceOnUse">
<stop stop-color="#D9D9D9" stop-opacity="0"/>
<stop offset="0.5" stop-color="#A3AEF9"/>
<stop offset="1" stop-color="#D9D9D9" stop-opacity="0"/>
</linearGradient>
<linearGradient id="paint15_linear_4_1934" x1="304" y1="364" x2="304" y2="689" gradientUnits="userSpaceOnUse">
<stop stop-color="#D9D9D9" stop-opacity="0"/>
<stop offset="0.5" stop-color="#A3AEF9"/>
<stop offset="1" stop-color="#D9D9D9" stop-opacity="0"/>
</linearGradient>
<linearGradient id="paint16_linear_4_1934" x1="304" y1="364" x2="304" y2="689" gradientUnits="userSpaceOnUse">
<stop stop-color="#D9D9D9" stop-opacity="0"/>
<stop offset="0.5" stop-color="#A3AEF9"/>
<stop offset="1" stop-color="#D9D9D9" stop-opacity="0"/>
</linearGradient>
<linearGradient id="paint17_linear_4_1934" x1="340" y1="376" x2="340" y2="676" gradientUnits="userSpaceOnUse">
<stop stop-color="#D9D9D9" stop-opacity="0"/>
<stop offset="0.5" stop-color="#A3AEF9"/>
<stop offset="1" stop-color="#D9D9D9" stop-opacity="0"/>
</linearGradient>
<linearGradient id="paint18_linear_4_1934" x1="340" y1="376" x2="340" y2="676" gradientUnits="userSpaceOnUse">
<stop stop-color="#D9D9D9" stop-opacity="0"/>
<stop offset="0.5" stop-color="#A3AEF9"/>
<stop offset="1" stop-color="#D9D9D9" stop-opacity="0"/>
</linearGradient>
<linearGradient id="paint19_linear_4_1934" x1="376" y1="389" x2="376" y2="664" gradientUnits="userSpaceOnUse">
<stop stop-color="#D9D9D9" stop-opacity="0"/>
<stop offset="0.5" stop-color="#A3AEF9"/>
<stop offset="1" stop-color="#D9D9D9" stop-opacity="0"/>
</linearGradient>
<linearGradient id="paint20_linear_4_1934" x1="376" y1="389" x2="376" y2="664" gradientUnits="userSpaceOnUse">
<stop stop-color="#D9D9D9" stop-opacity="0"/>
<stop offset="0.5" stop-color="#A3AEF9"/>
<stop offset="1" stop-color="#D9D9D9" stop-opacity="0"/>
</linearGradient>
<linearGradient id="paint21_linear_4_1934" x1="412" y1="401" x2="412" y2="651" gradientUnits="userSpaceOnUse">
<stop stop-color="#D9D9D9" stop-opacity="0"/>
<stop offset="0.5" stop-color="#A3AEF9"/>
<stop offset="1" stop-color="#D9D9D9" stop-opacity="0"/>
</linearGradient>
<linearGradient id="paint22_linear_4_1934" x1="412" y1="401" x2="412" y2="651" gradientUnits="userSpaceOnUse">
<stop stop-color="#D9D9D9" stop-opacity="0"/>
<stop offset="0.5" stop-color="#A3AEF9"/>
<stop offset="1" stop-color="#D9D9D9" stop-opacity="0"/>
</linearGradient>
<linearGradient id="paint23_linear_4_1934" x1="448" y1="414" x2="448" y2="639" gradientUnits="userSpaceOnUse">
<stop stop-color="#D9D9D9" stop-opacity="0"/>
<stop offset="0.5" stop-color="#A3AEF9"/>
<stop offset="1" stop-color="#D9D9D9" stop-opacity="0"/>
</linearGradient>
<linearGradient id="paint24_linear_4_1934" x1="448" y1="414" x2="448" y2="639" gradientUnits="userSpaceOnUse">
<stop stop-color="#D9D9D9" stop-opacity="0"/>
<stop offset="0.5" stop-color="#A3AEF9"/>
<stop offset="1" stop-color="#D9D9D9" stop-opacity="0"/>
</linearGradient>
<linearGradient id="paint25_linear_4_1934" x1="972" y1="776" x2="972" y2="276" gradientUnits="userSpaceOnUse">
<stop stop-color="#D9D9D9" stop-opacity="0"/>
<stop offset="0.5" stop-color="#A3AEF9"/>
<stop offset="1" stop-color="#D9D9D9" stop-opacity="0"/>
</linearGradient>
<linearGradient id="paint26_linear_4_1934" x1="972" y1="776" x2="972" y2="276" gradientUnits="userSpaceOnUse">
<stop stop-color="#D9D9D9" stop-opacity="0"/>
<stop offset="0.5" stop-color="#A3AEF9"/>
<stop offset="1" stop-color="#D9D9D9" stop-opacity="0"/>
</linearGradient>
<linearGradient id="paint27_linear_4_1934" x1="936" y1="763" x2="936" y2="288" gradientUnits="userSpaceOnUse">
<stop stop-color="#D9D9D9" stop-opacity="0"/>
<stop offset="0.5" stop-color="#A3AEF9"/>
<stop offset="1" stop-color="#D9D9D9" stop-opacity="0"/>
</linearGradient>
<linearGradient id="paint28_linear_4_1934" x1="936" y1="763" x2="936" y2="288" gradientUnits="userSpaceOnUse">
<stop stop-color="#D9D9D9" stop-opacity="0"/>
<stop offset="0.5" stop-color="#A3AEF9"/>
<stop offset="1" stop-color="#D9D9D9" stop-opacity="0"/>
</linearGradient>
<linearGradient id="paint29_linear_4_1934" x1="900" y1="751" x2="900" y2="301" gradientUnits="userSpaceOnUse">
<stop stop-color="#D9D9D9" stop-opacity="0"/>
<stop offset="0.5" stop-color="#A3AEF9"/>
<stop offset="1" stop-color="#D9D9D9" stop-opacity="0"/>
</linearGradient>
<linearGradient id="paint30_linear_4_1934" x1="900" y1="751" x2="900" y2="301" gradientUnits="userSpaceOnUse">
<stop stop-color="#D9D9D9" stop-opacity="0"/>
<stop offset="0.5" stop-color="#A3AEF9"/>
<stop offset="1" stop-color="#D9D9D9" stop-opacity="0"/>
</linearGradient>
<linearGradient id="paint31_linear_4_1934" x1="864" y1="738" x2="864" y2="313" gradientUnits="userSpaceOnUse">
<stop stop-color="#D9D9D9" stop-opacity="0"/>
<stop offset="0.5" stop-color="#A3AEF9"/>
<stop offset="1" stop-color="#D9D9D9" stop-opacity="0"/>
</linearGradient>
<linearGradient id="paint32_linear_4_1934" x1="864" y1="738" x2="864" y2="313" gradientUnits="userSpaceOnUse">
<stop stop-color="#D9D9D9" stop-opacity="0"/>
<stop offset="0.5" stop-color="#A3AEF9"/>
<stop offset="1" stop-color="#D9D9D9" stop-opacity="0"/>
</linearGradient>
<linearGradient id="paint33_linear_4_1934" x1="828" y1="726" x2="828" y2="326" gradientUnits="userSpaceOnUse">
<stop stop-color="#D9D9D9" stop-opacity="0"/>
<stop offset="0.5" stop-color="#A3AEF9"/>
<stop offset="1" stop-color="#D9D9D9" stop-opacity="0"/>
</linearGradient>
<linearGradient id="paint34_linear_4_1934" x1="828" y1="726" x2="828" y2="326" gradientUnits="userSpaceOnUse">
<stop stop-color="#D9D9D9" stop-opacity="0"/>
<stop offset="0.5" stop-color="#A3AEF9"/>
<stop offset="1" stop-color="#D9D9D9" stop-opacity="0"/>
</linearGradient>
<linearGradient id="paint35_linear_4_1934" x1="792" y1="713" x2="792" y2="338" gradientUnits="userSpaceOnUse">
<stop stop-color="#D9D9D9" stop-opacity="0"/>
<stop offset="0.5" stop-color="#A3AEF9"/>
<stop offset="1" stop-color="#D9D9D9" stop-opacity="0"/>
</linearGradient>
<linearGradient id="paint36_linear_4_1934" x1="792" y1="713" x2="792" y2="338" gradientUnits="userSpaceOnUse">
<stop stop-color="#D9D9D9" stop-opacity="0"/>
<stop offset="0.5" stop-color="#A3AEF9"/>
<stop offset="1" stop-color="#D9D9D9" stop-opacity="0"/>
</linearGradient>
<linearGradient id="paint37_linear_4_1934" x1="756" y1="701" x2="756" y2="351" gradientUnits="userSpaceOnUse">
<stop stop-color="#D9D9D9" stop-opacity="0"/>
<stop offset="0.5" stop-color="#A3AEF9"/>
<stop offset="1" stop-color="#D9D9D9" stop-opacity="0"/>
</linearGradient>
<linearGradient id="paint38_linear_4_1934" x1="756" y1="701" x2="756" y2="351" gradientUnits="userSpaceOnUse">
<stop stop-color="#D9D9D9" stop-opacity="0"/>
<stop offset="0.5" stop-color="#A3AEF9"/>
<stop offset="1" stop-color="#D9D9D9" stop-opacity="0"/>
</linearGradient>
<linearGradient id="paint39_linear_4_1934" x1="720" y1="688" x2="720" y2="363" gradientUnits="userSpaceOnUse">
<stop stop-color="#D9D9D9" stop-opacity="0"/>
<stop offset="0.5" stop-color="#A3AEF9"/>
<stop offset="1" stop-color="#D9D9D9" stop-opacity="0"/>
</linearGradient>
<linearGradient id="paint40_linear_4_1934" x1="720" y1="688" x2="720" y2="363" gradientUnits="userSpaceOnUse">
<stop stop-color="#D9D9D9" stop-opacity="0"/>
<stop offset="0.5" stop-color="#A3AEF9"/>
<stop offset="1" stop-color="#D9D9D9" stop-opacity="0"/>
</linearGradient>
<linearGradient id="paint41_linear_4_1934" x1="684" y1="676" x2="684" y2="376" gradientUnits="userSpaceOnUse">
<stop stop-color="#D9D9D9" stop-opacity="0"/>
<stop offset="0.5" stop-color="#A3AEF9"/>
<stop offset="1" stop-color="#D9D9D9" stop-opacity="0"/>
</linearGradient>
<linearGradient id="paint42_linear_4_1934" x1="684" y1="676" x2="684" y2="376" gradientUnits="userSpaceOnUse">
<stop stop-color="#D9D9D9" stop-opacity="0"/>
<stop offset="0.5" stop-color="#A3AEF9"/>
<stop offset="1" stop-color="#D9D9D9" stop-opacity="0"/>
</linearGradient>
<linearGradient id="paint43_linear_4_1934" x1="648" y1="663" x2="648" y2="388" gradientUnits="userSpaceOnUse">
<stop stop-color="#D9D9D9" stop-opacity="0"/>
<stop offset="0.5" stop-color="#A3AEF9"/>
<stop offset="1" stop-color="#D9D9D9" stop-opacity="0"/>
</linearGradient>
<linearGradient id="paint44_linear_4_1934" x1="648" y1="663" x2="648" y2="388" gradientUnits="userSpaceOnUse">
<stop stop-color="#D9D9D9" stop-opacity="0"/>
<stop offset="0.5" stop-color="#A3AEF9"/>
<stop offset="1" stop-color="#D9D9D9" stop-opacity="0"/>
</linearGradient>
<linearGradient id="paint45_linear_4_1934" x1="612" y1="651" x2="612" y2="401" gradientUnits="userSpaceOnUse">
<stop stop-color="#D9D9D9" stop-opacity="0"/>
<stop offset="0.5" stop-color="#A3AEF9"/>
<stop offset="1" stop-color="#D9D9D9" stop-opacity="0"/>
</linearGradient>
<linearGradient id="paint46_linear_4_1934" x1="612" y1="651" x2="612" y2="401" gradientUnits="userSpaceOnUse">
<stop stop-color="#D9D9D9" stop-opacity="0"/>
<stop offset="0.5" stop-color="#A3AEF9"/>
<stop offset="1" stop-color="#D9D9D9" stop-opacity="0"/>
</linearGradient>
<linearGradient id="paint47_linear_4_1934" x1="576" y1="638" x2="576" y2="413" gradientUnits="userSpaceOnUse">
<stop stop-color="#D9D9D9" stop-opacity="0"/>
<stop offset="0.5" stop-color="#A3AEF9"/>
<stop offset="1" stop-color="#D9D9D9" stop-opacity="0"/>
</linearGradient>
<linearGradient id="paint48_linear_4_1934" x1="576" y1="638" x2="576" y2="413" gradientUnits="userSpaceOnUse">
<stop stop-color="#D9D9D9" stop-opacity="0"/>
<stop offset="0.5" stop-color="#A3AEF9"/>
<stop offset="1" stop-color="#D9D9D9" stop-opacity="0"/>
</linearGradient>
<clipPath id="clip0_4_1934">
<rect width="1024" height="1024" fill="white"/>
</clipPath>
</defs>
</svg>
