<svg width="1024" height="1024" viewBox="0 0 1024 1024" fill="none" xmlns="http://www.w3.org/2000/svg">
<g clip-path="url(#clip0_1_24)">
<path d="M1023 512C1023 662.896 1014.35 788.442 949.25 877.53C885.957 964.148 762.574 1024 511 1024C259.427 1024 136.044 964.148 72.7486 877.53C7.6515 788.442 -1 662.896 -1 512C-1 361.57 9.69576 235.816 75.8314 146.641C140.275 59.748 263.922 0 511 0C758.077 0 881.726 59.748 946.168 146.641C1012.3 235.816 1023 361.57 1023 512Z" fill="#D9378D"/>
<path opacity="0.96" fill-rule="evenodd" clip-rule="evenodd" d="M747.5 366.5C768.161 365.329 777.995 374.995 777 395.5C774.719 408.563 768.886 419.729 759.5 429C749.663 429.841 742.83 425.675 739 416.5C733.797 401.4 734.797 386.733 742 372.5C744.04 370.63 745.873 368.63 747.5 366.5Z" fill="white"/>
<path opacity="0.976" fill-rule="evenodd" clip-rule="evenodd" d="M626.5 373.5C653.413 371.931 668.413 384.431 671.5 411C671.566 419.136 669.399 426.636 665 433.5C661.915 438.672 658.581 443.672 655 448.5C653.699 450.402 653.032 452.402 653 454.5C672.757 451.801 692.591 449.301 712.5 447C722.5 446.333 732.5 446.333 742.5 447C747.874 447.407 753.04 448.574 758 450.5C760.866 459.377 761.199 468.377 759 477.5C753.562 493.709 747.562 509.709 741 525.5C738.636 532.724 738.136 540.058 739.5 547.5C745.781 545.361 751.448 542.195 756.5 538C761.333 532.5 766.167 527 771 521.5C776.686 495.622 788.519 473.122 806.5 454C824.234 439.863 843.234 437.863 863.5 448C873.046 457.977 876.546 469.81 874 483.5C864.183 511.808 844.35 527.808 814.5 531.5C813.562 548.064 821.229 554.898 837.5 552C849.939 548.447 861.272 542.781 871.5 535C879.157 525.677 887.157 516.677 895.5 508C904.858 506.819 908.692 510.986 907 520.5C905.283 528.599 901.95 535.932 897 542.5C880.103 565.733 857.936 581.567 830.5 590C817.96 592.53 805.626 591.863 793.5 588C781.873 581.932 774.706 572.432 772 559.5C761.925 566.238 752.425 573.738 743.5 582C734.675 588.913 724.675 592.746 713.5 593.5C696.186 593.52 687.52 584.853 687.5 567.5C688.254 556.974 690.088 546.64 693 536.5C698.904 518.788 704.404 500.954 709.5 483C708.318 481.265 706.651 480.265 704.5 480C701.16 479.547 697.826 479.047 694.5 478.5C682.53 480.115 670.53 481.448 658.5 482.5C662.846 487.345 667.346 492.012 672 496.5C680.447 513.993 682.78 532.327 679 551.5C672.086 586.504 655.92 616.337 630.5 641C616.637 653.133 600.637 657.466 582.5 654C572.366 650.929 566.532 644.096 565 633.5C564.202 624.787 564.536 616.12 566 607.5C569.031 593.422 573.031 579.756 578 566.5C569.448 573.386 560.614 579.886 551.5 586C542.507 591.886 532.674 595.386 522 596.5C501.467 593.799 492.801 582.132 496 561.5C500.234 545.798 505.068 530.298 510.5 515C510.332 511.156 508.665 508.156 505.5 506C503.633 505.289 502.133 505.789 501 507.5C489.446 525.719 477.112 543.386 464 560.5C452.758 573.863 438.925 583.363 422.5 589C399.473 594.767 388.306 585.933 389 562.5C378.054 578.378 363.554 589.544 345.5 596C335.818 597.907 328.318 594.74 323 586.5C321.131 578.962 319.964 571.295 319.5 563.5C308.71 573.058 297.377 581.891 285.5 590C278.057 594.974 269.89 597.807 261 598.5C248.987 597.818 240.987 591.818 237 580.5C236.333 574.5 236.333 568.5 237 562.5C242.07 546.958 247.737 531.624 254 516.5C255.195 512.249 255.695 507.915 255.5 503.5C243.293 505.863 234.793 512.863 230 524.5C227.39 531.329 225.39 538.329 224 545.5C221.635 560.451 219.635 575.451 218 590.5C206.934 594.912 196.1 594.412 185.5 589C181.286 584.706 178.786 579.539 178 573.5C177.072 562.733 177.738 552.067 180 541.5C183.349 528.437 186.849 515.437 190.5 502.5C179.138 504.689 171.638 511.356 168 522.5C165.11 530.614 163.11 538.947 162 547.5C160.529 560.526 159.029 573.526 157.5 586.5C142.162 592.666 129.662 589 120 575.5C118.059 571.952 116.393 568.286 115 564.5C114.333 555.5 114.333 546.5 115 537.5C118.214 529.027 120.714 520.36 122.5 511.5C117.02 495.84 118.853 481.174 128 467.5C141.308 454.004 157.308 449.004 176 452.5C177.931 456.427 178.764 460.594 178.5 465C178.086 472.385 176.92 479.551 175 486.5C183.031 472.8 193.531 461.3 206.5 452C214.708 447.843 223.041 447.509 231.5 451C236.809 454.324 239.642 459.158 240 465.5C240.115 474.021 239.115 482.355 237 490.5C244.052 481.782 250.719 472.782 257 463.5C263.239 455.639 271.072 450.139 280.5 447C299.995 444.326 310.328 452.826 311.5 472.5C310.901 481.563 308.734 490.23 305 498.5C296.955 512.921 290.288 527.921 285 543.5C284.333 547.167 284.333 550.833 285 554.5C290.922 552.956 296.422 550.456 301.5 547C311.911 536.593 321.578 525.593 330.5 514C327.129 489.444 335.129 469.444 354.5 454C366.786 445.41 380.119 443.243 394.5 447.5C396.749 459.016 395.249 470.016 390 480.5C386.253 487.663 382.253 494.663 378 501.5C369.843 514.453 367.009 528.453 369.5 543.5C382.305 541.847 391.471 535.18 397 523.5C399.602 517.361 401.602 511.028 403 504.5C405.498 484.678 408.831 465.011 413 445.5C424.137 442.248 434.97 443.082 445.5 448C451.728 453.386 454.394 460.22 453.5 468.5C453.189 477.368 451.689 486.034 449 494.5C442.526 512.089 436.36 529.756 430.5 547.5C438.409 546.878 445.409 544.044 451.5 539C457.759 532.745 463.259 525.912 468 518.5C471.935 510.906 476.268 503.573 481 496.5C480.269 491.384 479.435 486.218 478.5 481C482.106 457.15 494.772 439.817 516.5 429C524.527 425.714 532.527 425.714 540.5 429C551.365 440.464 549.365 449.13 534.5 455C532.046 456.74 530.546 458.907 530 461.5C531.214 463.049 532.714 464.215 534.5 465C541.44 467.486 548.44 469.819 555.5 472C558.902 473.4 561.736 475.567 564 478.5C564.739 484.558 564.406 490.558 563 496.5C557.333 508.833 551.667 521.167 546 533.5C544.23 540.136 544.063 546.802 545.5 553.5C568.266 545.237 584.432 529.904 594 507.5C596.239 501.45 598.072 495.283 599.5 489C599.415 487.893 599.081 486.893 598.5 486C591.833 484.381 589.667 480.214 592 473.5C593.712 466.284 597.878 460.951 604.5 457.5C604.833 456.667 605.167 455.833 605.5 455C607.573 438.863 609.406 422.696 611 406.5C612.316 395.897 615.483 385.897 620.5 376.5C622.444 375.199 624.444 374.199 626.5 373.5ZM829.5 476.5C832.099 476.549 834.266 477.549 836 479.5C838.103 494.642 831.77 503.976 817 507.5C817.477 498.392 819.81 489.725 824 481.5C825.73 479.598 827.563 477.931 829.5 476.5ZM637.5 509.5C639.888 510.219 641.388 511.885 642 514.5C650.471 546.813 644.804 576.48 625 603.5C621.688 606.656 618.021 609.323 614 611.5C614.215 605.751 615.215 600.084 617 594.5C622.536 575.558 627.87 556.558 633 537.5C635.259 528.28 636.759 518.946 637.5 509.5Z" fill="white"/>
</g>
<defs>
<clipPath id="clip0_1_24">
<rect width="1024" height="1024" fill="white"/>
</clipPath>
</defs>
</svg>
