<svg width="500" height="500" viewBox="0 0 500 500" fill="none" xmlns="http://www.w3.org/2000/svg">
<g clip-path="url(#clip0_7_147)">
<path d="M500 250C500 323.68 495.775 384.982 463.989 428.482C433.085 470.775 372.839 500 250 500C127.162 500 66.9161 470.775 36.0101 428.482C4.22436 384.982 0 323.68 0 250C0 176.548 5.22254 115.145 37.5153 71.6021C68.982 29.1738 129.357 0 250 0C370.643 0 431.019 29.1738 462.484 71.6021C494.778 115.145 500 176.548 500 250Z" fill="#E9138D"/>
<g clip-path="url(#clip1_7_147)">
<path opacity="0.96" fill-rule="evenodd" clip-rule="evenodd" d="M328.354 181.309C335.908 179.531 340.169 182.46 341.137 190.098C341.145 195.07 339.718 199.574 336.856 203.609C333.278 204.56 330.483 203.466 328.471 200.327C325.566 195.09 324.98 189.608 326.714 183.883C327.345 183.059 327.892 182.201 328.354 181.309Z" fill="white"/>
<path opacity="0.976" fill-rule="evenodd" clip-rule="evenodd" d="M284.123 191.773C293.96 189.441 300.313 193.081 303.183 202.692C303.738 205.692 303.426 208.603 302.248 211.424C301.446 213.535 300.54 215.599 299.532 217.615C299.175 218.402 299.059 219.184 299.184 219.961C306.305 217.678 313.466 215.463 320.669 213.317C324.319 212.419 328.012 211.768 331.748 211.363C333.759 211.164 335.743 211.258 337.7 211.646C339.337 214.738 340.046 218.04 339.828 221.552C338.875 227.893 337.701 234.192 336.306 240.451C335.903 243.273 336.196 246.014 337.185 248.673C339.365 247.475 341.252 245.936 342.844 244.058C344.271 241.712 345.698 239.366 347.125 237.02C347.539 227.093 350.444 218.013 355.839 209.781C361.468 203.405 368.355 201.429 376.499 203.853C380.674 206.916 382.737 211.058 382.688 216.28C380.906 227.373 374.624 234.574 363.84 237.881C364.573 244.059 367.849 246.084 373.669 243.954C378.032 241.832 381.848 239.001 385.119 235.462C387.339 231.52 389.708 227.675 392.224 223.928C395.603 222.882 397.29 224.171 397.285 227.795C397.178 230.898 396.425 233.823 395.024 236.571C390.297 246.251 383.142 253.542 373.559 258.443C369.092 260.194 364.494 260.751 359.764 260.114C355.075 258.63 351.81 255.588 349.968 250.989C346.686 254.133 343.666 257.522 340.908 261.154C338.099 264.282 334.656 266.348 330.578 267.354C324.185 268.489 320.421 265.853 319.283 259.446C318.876 255.509 318.881 251.573 319.296 247.639C320.323 240.714 321.193 233.769 321.905 226.807C321.356 226.243 320.675 225.982 319.864 226.025C318.601 226.075 317.337 226.107 316.073 226.122C311.757 227.498 307.413 228.771 303.038 229.943C304.959 231.45 306.925 232.88 308.936 234.234C313.194 240.145 315.25 246.764 315.102 254.09C314.828 267.468 310.801 279.538 303.019 290.301C298.69 295.685 293.063 298.327 286.139 298.228C282.197 297.754 279.597 295.61 278.341 291.797C277.479 288.631 277.038 285.408 277.018 282.13C277.22 276.733 277.808 271.426 278.779 266.207C276.07 269.307 273.23 272.282 270.263 275.134C267.325 277.893 263.921 279.826 260.052 280.932C252.293 281.272 248.333 277.528 248.171 269.7C248.712 263.625 249.488 257.586 250.498 251.583C250.186 250.175 249.375 249.175 248.065 248.585C247.33 248.444 246.808 248.726 246.501 249.432C243.421 256.913 240.016 264.24 236.288 271.414C233.007 277.081 228.517 281.491 222.818 284.642C214.69 288.271 209.99 285.736 208.721 277.037C205.712 283.613 201.085 288.681 194.838 292.241C191.386 293.576 188.41 292.895 185.91 290.198C184.729 287.536 183.798 284.78 183.119 281.932C179.757 286.164 176.147 290.164 172.289 293.932C169.864 296.254 167.032 297.832 163.794 298.667C159.313 299.197 155.968 297.502 153.759 293.582C153.122 291.41 152.731 289.194 152.587 286.935C153.447 280.865 154.541 274.833 155.869 268.84C156.034 267.192 155.936 265.559 155.577 263.941C151.223 265.609 148.539 268.747 147.527 273.357C147.008 276.049 146.725 278.764 146.679 281.503C146.779 287.179 147.017 292.848 147.393 298.513C143.594 300.863 139.56 301.383 135.293 300.075C133.457 298.764 132.198 297.018 131.514 294.839C130.47 290.923 130.022 286.941 130.169 282.891C130.555 277.849 131.001 272.82 131.507 267.805C127.454 269.353 125.118 272.303 124.5 276.656C123.961 279.841 123.765 283.048 123.912 286.279C124.217 291.186 124.51 296.084 124.79 300.975C119.527 304.251 114.672 303.711 110.225 299.355C109.277 298.171 108.423 296.925 107.662 295.618C106.83 292.338 106.244 289.014 105.904 285.647C106.539 282.308 106.898 278.945 106.981 275.556C103.937 270.13 103.659 264.594 106.146 258.949C110.182 253.098 115.766 250.21 122.896 250.284C123.865 251.608 124.444 253.093 124.633 254.737C124.962 257.491 124.997 260.214 124.741 262.905C126.815 257.323 129.943 252.392 134.127 248.113C136.888 246.043 139.944 245.377 143.295 246.116C145.472 246.998 146.833 248.598 147.378 250.917C147.976 254.056 148.149 257.199 147.898 260.345C149.935 256.666 151.811 252.908 153.526 249.071C155.318 245.762 157.853 243.221 161.13 241.448C168.156 239.191 172.525 241.657 174.239 248.846C174.608 252.232 174.372 255.574 173.532 258.871C171.5 264.721 170.014 270.695 169.076 276.792C169.068 278.19 169.307 279.544 169.792 280.855C171.879 279.899 173.747 278.618 175.397 277.011C178.565 272.489 181.418 267.797 183.958 262.935C181.114 254.086 182.766 246.179 188.914 239.214C192.892 235.242 197.675 233.573 203.263 234.209C204.844 238.315 205.006 242.475 203.75 246.689C202.833 249.578 201.812 252.424 200.686 255.226C198.517 260.54 198.382 265.895 200.282 271.29C204.903 269.846 207.854 266.787 209.136 262.113C209.697 259.677 210.023 257.208 210.114 254.706C209.746 247.223 209.696 239.743 209.965 232.266C213.866 230.34 217.921 229.942 222.13 231.073C224.781 232.656 226.211 235.006 226.42 238.122C226.882 241.418 226.893 244.716 226.451 248.017C225.205 254.934 224.079 261.86 223.07 268.795C225.95 268.05 228.351 266.548 230.272 264.288C232.176 261.571 233.762 258.689 235.03 255.643C235.989 252.583 237.112 249.592 238.399 246.672C237.796 244.83 237.151 242.977 236.466 241.111C236.245 232.068 239.794 224.842 247.114 219.432C249.864 217.696 252.818 217.175 255.977 217.87C260.736 221.396 260.562 224.726 255.454 227.862C254.661 228.665 254.248 229.562 254.216 230.556C254.765 231.049 255.395 231.382 256.105 231.555C258.83 232.021 261.567 232.427 264.317 232.773C265.664 233.068 266.852 233.684 267.879 234.62C268.546 236.809 268.814 239.046 268.682 241.332C267.392 246.256 266.103 251.18 264.813 256.104C264.591 258.67 264.964 261.142 265.931 263.522C273.8 258.988 278.772 252.273 280.846 243.376C281.279 240.996 281.555 238.599 281.673 236.186C281.569 235.782 281.381 235.435 281.108 235.143C278.541 234.979 277.469 233.581 277.894 230.95C278.056 228.174 279.247 225.933 281.468 224.227C281.537 223.898 281.606 223.568 281.675 223.239C281.389 217.144 281.014 211.055 280.548 204.969C280.343 200.968 280.862 197.069 282.102 193.272C282.736 192.665 283.409 192.165 284.123 191.773ZM365.799 216.592C366.762 216.441 367.627 216.669 368.394 217.277C370.157 222.732 368.426 226.591 363.201 228.855C362.784 225.46 363.081 222.107 364.093 218.797C364.608 217.982 365.176 217.247 365.799 216.592ZM297.041 241.282C297.97 241.392 298.632 241.91 299.029 242.835C304.261 254.217 304.1 265.542 298.546 276.81C297.528 278.192 296.348 279.415 295.005 280.481C294.71 278.344 294.71 276.186 295.006 274.008C295.817 266.652 296.549 259.288 297.203 251.916C297.437 248.363 297.383 244.819 297.041 241.282Z" fill="white"/>
</g>
</g>
<defs>
<clipPath id="clip0_7_147">
<rect width="500" height="500" fill="white"/>
</clipPath>
<clipPath id="clip1_7_147">
<rect width="300" height="112.5" fill="white" transform="translate(93 221.094) rotate(-10)"/>
</clipPath>
</defs>
</svg>
