<svg width="500" height="500" viewBox="0 0 500 500" fill="none" xmlns="http://www.w3.org/2000/svg">
<g clip-path="url(#clip0_7_21)">
<path d="M500 250C500 323.68 495.775 384.982 463.989 428.482C433.085 470.775 372.839 500 250 500C127.162 500 66.9161 470.775 36.0101 428.482C4.22436 384.982 0 323.68 0 250C0 176.548 5.22254 115.145 37.5153 71.6021C68.982 29.1738 129.357 0 250 0C370.643 0 431.019 29.1738 462.484 71.6021C494.778 115.145 500 176.548 500 250Z" fill="#CC157C"/>
<path d="M374.998 194.193C369.719 190.724 326.292 186.086 305.239 184.201V316.742C305.239 358.032 298.066 362.941 295.624 365.008C266.212 389.895 224.168 366.893 224.168 346.908C224.168 312.783 269.794 313.726 295.624 316.742V125C366.325 141.026 374.998 167.232 374.998 194.193Z" fill="white"/>
<path d="M254.902 177.79H125V188.349H254.902V177.79Z" fill="white"/>
<path d="M254.902 269.797H125V280.355H254.902V269.797Z" fill="white"/>
<path d="M254.902 225.302H125V235.86H254.902V225.302Z" fill="white"/>
</g>
<defs>
<clipPath id="clip0_7_21">
<rect width="500" height="500" fill="white"/>
</clipPath>
</defs>
</svg>
