<svg width="1024" height="1024" viewBox="0 0 1024 1024" fill="none" xmlns="http://www.w3.org/2000/svg">
<g clip-path="url(#clip0_4_2074)">
<path d="M1024 512C1024 662.896 1015.35 788.442 950.25 877.53C886.957 964.148 763.574 1024 512 1024C260.427 1024 137.044 964.148 73.7486 877.53C8.6515 788.442 0 662.896 0 512C0 361.57 10.6958 235.816 76.8314 146.641C141.275 59.748 264.922 0 512 0C759.077 0 882.726 59.748 947.168 146.641C1013.3 235.816 1024 361.57 1024 512Z" fill="url(#paint0_linear_4_2074)"/>
<path d="M687.781 185.344L519.031 226.359C503.797 232.219 493.25 246.281 493.25 262.688V613.078C470.984 602.531 445.203 595.5 418.25 595.5C345.594 595.5 287 637.688 287 689.25C287 741.984 345.594 783 418.25 783C489.734 783 549.5 741.984 549.5 689.25V412.688L710.047 374.016C726.453 368.156 737 354.094 737 337.688V220.5C737 208.781 731.141 198.234 720.594 191.203C711.219 184.172 699.5 181.828 687.781 185.344ZM418.25 726.75C371.375 726.75 343.25 702.141 343.25 689.25C343.25 676.359 371.375 651.75 418.25 651.75C463.953 651.75 493.25 676.359 493.25 689.25C493.25 703.312 463.953 726.75 418.25 726.75ZM680.75 323.625L549.5 352.922V276.75L680.75 246.281V323.625Z" fill="white"/>
<ellipse cx="421.5" cy="687.5" rx="90.5" ry="50.5" fill="white"/>
<rect x="537" y="234" width="157" height="135" fill="white"/>
</g>
<defs>
<linearGradient id="paint0_linear_4_2074" x1="512" y1="-155.5" x2="512" y2="1081" gradientUnits="userSpaceOnUse">
<stop stop-color="#FF0488"/>
<stop offset="1" stop-color="#FF085A"/>
</linearGradient>
<clipPath id="clip0_4_2074">
<rect width="1024" height="1024" fill="white"/>
</clipPath>
</defs>
</svg>
