<svg width="500" height="500" viewBox="0 0 500 500" fill="none" xmlns="http://www.w3.org/2000/svg">
<g clip-path="url(#clip0_7_6)">
<path d="M500 250C500 323.68 495.775 384.982 463.989 428.482C433.085 470.775 372.839 500 250 500C127.162 500 66.9161 470.775 36.0101 428.482C4.22436 384.982 0 323.68 0 250C0 176.548 5.22254 115.145 37.5153 71.6021C68.982 29.1738 129.357 0 250 0C370.643 0 431.019 29.1738 462.484 71.6021C494.778 115.145 500 176.548 500 250Z" fill="url(#paint0_linear_7_6)"/>
<path d="M337 184.281C330.875 180.256 280.49 174.875 256.062 172.688V326.469C256.062 374.375 247.74 380.071 244.906 382.469C210.781 411.344 162 384.656 162 361.469C162.001 321.875 214.938 322.969 244.906 326.469V104C326.938 122.594 337 153 337 184.281Z" fill="white"/>
</g>
<defs>
<linearGradient id="paint0_linear_7_6" x1="250" y1="0" x2="250" y2="500" gradientUnits="userSpaceOnUse">
<stop stop-color="#FF0580"/>
<stop offset="1" stop-color="#FF0760"/>
</linearGradient>
<clipPath id="clip0_7_6">
<rect width="500" height="500" fill="white"/>
</clipPath>
</defs>
</svg>
