<svg width="1024" height="1024" viewBox="0 0 1024 1024" fill="none" xmlns="http://www.w3.org/2000/svg">
<g clip-path="url(#clip0_1_15)">
<path d="M1023 512C1023 662.896 1014.35 788.442 949.25 877.53C885.957 964.148 762.574 1024 511 1024C259.427 1024 136.044 964.148 72.7486 877.53C7.6515 788.442 -1 662.896 -1 512C-1 361.57 9.69576 235.816 75.8314 146.641C140.275 59.748 263.922 0 511 0C758.077 0 881.726 59.748 946.168 146.641C1012.3 235.816 1023 361.57 1023 512Z" fill="#2055F4"/>
<path d="M724.386 325.603C718.91 325.603 713.433 325.603 707.958 326.37H707.176L706.393 325.603C660.239 267.293 587.489 232 512.391 232C437.293 232 363.76 267.293 318.388 326.37L317.606 327.137H316.824C311.348 326.37 305.872 326.37 300.396 326.37H265.976V386.214L265.194 386.981C233.121 401.559 212 433.784 212 469.077C212 504.368 233.121 536.593 265.194 551.171H266.759V552.705C267.541 684.67 377.841 792.083 512.391 792.083C646.94 792.083 757.241 684.67 758.024 552.705V551.171L758.805 550.404C790.879 535.059 812 502.834 812 468.308C812 433.015 790.879 400.792 758.805 386.214L758.024 385.447V325.603H724.386ZM382.534 345.551C416.955 311.793 463.89 292.612 512.391 292.612C560.891 292.612 607.828 311.793 642.247 345.551L643.812 347.086L641.466 348.62C632.078 353.991 623.473 359.361 614.868 365.499L614.085 366.267L613.303 365.499C590.618 353.991 554.634 340.948 513.174 340.948C471.714 340.948 435.728 353.991 413.043 365.499L412.261 366.267L411.478 365.499C402.873 359.361 393.486 353.223 384.881 348.62L380.188 347.086L382.534 345.551ZM690.748 550.404C690.748 647.076 610.174 726.101 511.609 726.101C413.043 726.101 333.251 647.076 333.251 550.404V398.491L335.598 399.258C366.889 406.93 396.616 440.689 403.656 449.129C411.478 440.689 448.245 407.697 512.391 407.697C576.536 407.697 613.303 441.456 621.127 449.129C628.167 440.689 657.111 406.93 689.183 399.258L691.531 398.491V550.404H690.748Z" fill="#F5F5F5"/>
</g>
<defs>
<clipPath id="clip0_1_15">
<rect width="1024" height="1024" fill="white"/>
</clipPath>
</defs>
</svg>
