<svg width="500" height="500" viewBox="0 0 500 500" fill="none" xmlns="http://www.w3.org/2000/svg">
<g clip-path="url(#clip0_7_140)">
<path d="M500 250C500 323.68 495.775 384.982 463.989 428.482C433.085 470.775 372.839 500 250 500C127.162 500 66.9161 470.775 36.0101 428.482C4.22436 384.982 0 323.68 0 250C0 176.548 5.22254 115.145 37.5153 71.6021C68.982 29.1738 129.357 0 250 0C370.643 0 431.019 29.1738 462.484 71.6021C494.778 115.145 500 176.548 500 250Z" fill="url(#paint0_linear_7_140)"/>
<path d="M279.122 347.948C270.875 353.103 260.823 355.938 249.999 355.938C239.174 355.938 229.122 353.103 220.875 347.948C220.875 347.948 221.39 344.598 223.195 342.278C225.256 339.186 227.061 338.412 227.061 338.412C234.277 340.474 242.009 341.505 249.999 341.505C257.988 341.505 265.72 340.474 272.937 338.412C272.937 338.412 275.256 339.701 277.061 342.794C278.865 345.629 279.122 347.948 279.122 347.948Z" fill="white"/>
<path d="M280.411 314.443C271.906 322.691 261.596 329.134 249.998 333C238.4 329.134 228.091 322.691 219.586 314.443H280.411Z" fill="white"/>
<path d="M280.922 269.598C297.417 267.794 325.252 268.052 325.252 268.052C324.737 272.949 325.252 287.639 309.53 296.66C306.953 298.206 300.252 300.268 294.067 300.526C278.86 301.299 256.953 301.299 256.953 301.299C260.561 284.031 267.005 271.144 280.922 269.598Z" fill="white"/>
<path d="M219.072 269.598C232.99 271.145 239.175 284.031 243.041 301.557C243.041 301.557 221.134 301.299 205.928 300.784C199.742 300.526 193.041 298.464 190.464 296.918C174.484 287.897 175 273.206 174.742 268.31C174.742 268.052 202.577 267.794 219.072 269.598Z" fill="white"/>
<path d="M192.784 193.825C180.67 183.773 166.495 176.041 150.773 171.918V265.99V269.856C150.773 324.753 195.103 368.309 250 368.309C304.897 368.309 349.227 324.495 349.227 269.598V264.959V172.175C333.505 176.299 319.33 183.773 307.217 194.082C290.979 182.742 271.392 176.041 250.258 176.041C228.866 175.784 209.021 182.485 192.784 193.825ZM193.041 165.217C210.052 156.454 229.381 151.299 250 151.299C270.361 151.299 289.691 156.196 306.701 165.217C310.825 162.639 314.948 160.32 319.072 158.258C301.031 141.505 276.546 131.196 250 131.196C223.196 131.196 198.969 141.505 180.67 158.515C184.794 160.32 189.433 162.897 193.041 165.217ZM157.216 149.495C180.155 123.979 213.144 108 250.258 108C287.113 108 320.361 123.979 343.299 149.495C353.093 146.918 363.144 145.371 373.454 145.113V186.866C389.433 196.918 400 214.443 400 234.804C400 254.907 389.433 272.691 373.196 282.742L372.938 283.773C366.237 345.371 313.144 392.536 249.485 392.536C185.567 392.536 133.247 344.598 126.546 282.742C110.567 272.691 100 254.907 100 234.804C100 214.701 110.567 196.918 126.546 187.124V145.113C137.113 145.113 147.423 146.66 157.216 149.495Z" fill="white"/>
</g>
<defs>
<linearGradient id="paint0_linear_7_140" x1="250" y1="0" x2="250" y2="500" gradientUnits="userSpaceOnUse">
<stop stop-color="#49FCCF"/>
<stop offset="1" stop-color="#5BBEF0"/>
</linearGradient>
<clipPath id="clip0_7_140">
<rect width="500" height="500" fill="white"/>
</clipPath>
</defs>
</svg>
