<svg width="500" height="500" viewBox="0 0 500 500" fill="none" xmlns="http://www.w3.org/2000/svg">
<g clip-path="url(#clip0_4_795)">
<path d="M500 250C500 323.68 495.775 384.982 463.989 428.482C433.085 470.775 372.839 500 250 500C127.162 500 66.9161 470.775 36.0101 428.482C4.22436 384.982 0 323.68 0 250C0 176.548 5.22254 115.145 37.5153 71.6021C68.982 29.1738 129.357 0 250 0C370.643 0 431.019 29.1738 462.484 71.6021C494.778 115.145 500 176.548 500 250Z" fill="#EE3424"/>
<path d="M251.739 121V125.453C251.739 125.453 251.722 133.308 251.722 140.136C244.883 132.57 234.483 121 234.483 121H187L187.023 356.784L214.377 378.388L242.896 374.811L243.098 353.91C252.465 361.616 265.291 372.143 265.291 372.143L312 367.383V145.269L286.653 121.051L251.739 121Z" fill="black"/>
<path d="M259.518 305.949L257.936 306.134L230.65 127.338L194.32 127.299L194.337 351.729C194.337 351.729 201.548 350.691 216.898 348.948L215.316 178.359L216.89 178.21L242.848 346.278C242.848 346.278 251.719 345.233 281.888 342.247V127.316H258.713L259.518 305.949Z" fill="white"/>
</g>
<defs>
<clipPath id="clip0_4_795">
<rect width="500" height="500" fill="white"/>
</clipPath>
</defs>
</svg>
