<svg width="1024" height="1024" viewBox="0 0 1024 1024" fill="none" xmlns="http://www.w3.org/2000/svg">
<g clip-path="url(#clip0_50_410)">
<path d="M1021 512C1021 662.896 1012.35 788.442 947.25 877.53C883.957 964.148 760.574 1024 509 1024C257.427 1024 134.044 964.148 70.7486 877.53C5.6515 788.442 -3 662.896 -3 512C-3 361.57 7.69576 235.816 73.8314 146.641C138.275 59.748 261.922 0 509 0C756.077 0 879.726 59.748 944.168 146.641C1010.3 235.816 1021 361.57 1021 512Z" fill="#2F2122"/>
<path d="M891.635 491.589H855.677C845.534 414.71 780.425 356 701.594 356C625.555 356 562.263 410.642 548.867 482.83L548.731 483.779C537.721 480.416 525.084 478.491 511.986 478.491C498.889 478.491 486.252 480.416 474.32 484.023L475.242 483.779C461.71 410.642 398.417 356 322.379 356C243.548 356 178.438 414.71 168.378 490.802L168.296 491.589H132.338C121.112 491.589 112 500.7 112 511.927C112 523.154 121.112 532.265 132.338 532.265H168.296C178.303 609.117 243.358 667.854 322.135 667.854C402.973 667.854 469.357 605.998 476.571 527.031L476.625 526.435C487.065 521.988 499.241 519.411 511.986 519.411C524.732 519.411 536.908 521.988 547.972 526.652L547.375 526.435C554.616 605.998 621 667.854 701.865 667.854C780.642 667.854 845.697 609.117 855.622 533.052L855.704 532.265H891.662C902.888 532.265 912 523.154 912 511.927C912 500.7 902.861 491.589 891.635 491.589ZM322.162 627.177C258.517 627.177 206.912 575.572 206.912 511.927C206.912 448.282 258.517 396.677 322.162 396.677C385.808 396.677 437.413 448.282 437.413 511.927C437.331 575.545 385.781 627.096 322.162 627.177ZM701.811 627.177C638.165 627.177 586.56 575.572 586.56 511.927C586.56 448.282 638.165 396.677 701.811 396.677C765.456 396.677 817.061 448.282 817.061 511.927C816.979 575.545 765.429 627.096 701.811 627.177Z" fill="#8E8E8E"/>
</g>
<defs>
<clipPath id="clip0_50_410">
<rect width="1024" height="1024" fill="white"/>
</clipPath>
</defs>
</svg>
