<svg width="1024" height="1024" viewBox="0 0 1024 1024" fill="none" xmlns="http://www.w3.org/2000/svg">
<g clip-path="url(#clip0_4_2127)">
<path d="M1024 512C1024 662.896 1015.35 788.442 950.25 877.53C886.957 964.148 763.574 1024 512 1024C260.427 1024 137.044 964.148 73.7486 877.53C8.6515 788.442 0 662.896 0 512C0 361.57 10.6958 235.816 76.8314 146.641C141.275 59.748 264.922 0 512 0C759.077 0 882.726 59.748 947.168 146.641C1013.3 235.816 1024 361.57 1024 512Z" fill="white"/>
<path fill-rule="evenodd" clip-rule="evenodd" d="M366.757 274.066C398.528 274.066 430.3 274.066 462.071 274.066C466.832 279.71 470.804 285.836 473.985 292.443C476.344 301.024 478 309.6 478.949 318.172C453.467 339.306 427.982 360.441 402.5 381.575C398.866 381.909 395.556 380.99 392.571 378.818C386.078 368.637 380.121 358.222 374.7 347.576C373.308 340.591 370.991 333.852 367.75 327.361C366.757 309.606 366.428 291.841 366.757 274.066Z" fill="#EB3F37"/>
<path fill-rule="evenodd" clip-rule="evenodd" d="M507.741 274.066C508.402 274.066 509.065 274.066 509.726 274.066C510.705 278.303 511.366 282.591 511.712 286.93C508.884 283.228 507.562 278.94 507.741 274.066Z" fill="#DC4EA5"/>
<path fill-rule="evenodd" clip-rule="evenodd" d="M507.741 274.065C492.517 274.065 477.294 274.065 462.07 274.065C430.299 274.065 398.528 274.065 366.757 274.065C356.167 274.065 345.575 274.065 334.986 274.065C334.986 299.794 334.986 325.523 334.986 351.252C334.986 364.116 334.986 376.98 334.986 389.845C334.986 408.222 334.986 426.6 334.986 444.978C334.986 464.581 334.986 484.183 334.986 503.786C334.986 532.579 334.986 561.369 334.986 590.161C334.986 590.773 334.986 591.387 334.986 591.999C334.324 591.999 333.661 591.999 333 591.999C333 485.409 333 378.818 333 272.228C391.588 271.619 449.834 272.231 507.741 274.065Z" fill="#EC96AB"/>
<path fill-rule="evenodd" clip-rule="evenodd" d="M509.727 274.066C527.598 274.066 545.469 274.066 563.34 274.066C564.013 284.045 563.021 293.847 560.362 303.47C558.624 299.771 555.975 299.771 552.419 303.47C551.758 305.92 551.095 308.371 550.433 310.821C548.426 309.283 546.108 308.671 543.483 308.983C543.483 310.821 543.483 312.659 543.483 314.496C536.974 315.619 533.003 319.295 531.569 325.523C534.256 327.405 535.58 329.855 535.541 332.874C533.607 330.788 531.289 328.95 528.591 327.361C528.174 324.498 527.181 322.048 525.612 320.01C519.435 309.603 514.8 298.577 511.712 286.93C511.367 282.591 510.706 278.303 509.727 274.066Z" fill="#6D45CD"/>
<path fill-rule="evenodd" clip-rule="evenodd" d="M366.756 274.066C366.427 291.841 366.756 309.606 367.749 327.361C370.99 333.852 373.307 340.591 374.699 347.576C370.821 342.723 367.843 337.209 365.764 331.036C356.562 337.711 347.958 345.062 339.95 353.09C339.288 356.153 338.625 359.215 337.964 362.278C337.585 358.221 336.592 354.545 334.985 351.252C334.985 325.523 334.985 299.794 334.985 274.066C345.575 274.066 356.167 274.066 366.756 274.066Z" fill="#EB4564"/>
<path fill-rule="evenodd" clip-rule="evenodd" d="M462.07 274.066C477.295 274.066 492.517 274.066 507.741 274.066C507.563 278.94 508.885 283.228 511.713 286.93C514.8 298.577 519.435 309.603 525.612 320.01C525.138 323.625 525.799 326.995 527.598 330.117C516.74 338.327 506.48 347.209 496.82 356.765C495.041 372.072 491.401 386.774 485.899 400.871C490.922 379.662 492.577 358.222 490.863 336.55C485.815 321.463 480.188 306.761 473.984 292.443C470.803 285.836 466.832 279.71 462.07 274.066Z" fill="#EB4A6C"/>
<path fill-rule="evenodd" clip-rule="evenodd" d="M473.984 292.443C480.187 306.761 485.814 321.463 490.862 336.55C492.576 358.222 490.922 379.662 485.898 400.871C485.898 401.483 485.898 402.097 485.898 402.709C484.573 402.709 483.912 403.321 483.912 404.547C483.912 405.773 483.251 406.385 481.926 406.385C465.531 410.218 449.645 415.118 434.27 421.087C427.701 415.627 421.083 410.114 414.413 404.547C405.618 397.025 398.337 388.45 392.57 378.818C395.555 380.991 398.865 381.909 402.499 381.575C427.981 360.441 453.466 339.306 478.948 318.172C477.999 309.6 476.343 301.024 473.984 292.443Z" fill="#EA4143"/>
<path fill-rule="evenodd" clip-rule="evenodd" d="M626.883 279.579C631.636 280.525 636.271 281.75 640.782 283.254C641.831 285.731 642.162 288.181 641.775 290.605C621.646 306.693 601.789 323.233 582.204 340.225C581.231 342.601 580.9 345.053 581.212 347.576C571.384 335.175 574.031 325.679 589.154 319.091C602.01 308.423 614.917 297.703 627.875 286.93C629.025 284.305 628.693 281.854 626.883 279.579Z" fill="#9644E3"/>
<path fill-rule="evenodd" clip-rule="evenodd" d="M674.538 320.01C673.633 326.269 672.31 332.394 670.567 338.387C669.906 338.387 669.242 338.387 668.581 338.387C656.468 338.283 645.218 340.732 634.824 345.738C626.965 346.788 619.685 349.239 612.982 353.09C612.761 351.956 612.1 351.037 610.996 350.333C631.776 334.166 651.965 317.321 671.56 299.794C674.369 306.15 675.362 312.888 674.538 320.01Z" fill="#E950D1"/>
<path fill-rule="evenodd" clip-rule="evenodd" d="M563.34 274.066C564.002 274.066 564.665 274.066 565.326 274.066C563.597 295.138 566.245 315.66 573.269 335.631C572.872 340.293 570.225 343.357 565.326 344.82C567.467 346.058 568.791 347.896 569.298 350.333C567.989 354.857 567.326 359.452 567.312 364.116C563.531 363.679 560.882 361.841 559.369 358.603C554.736 353.09 549.441 348.188 543.483 343.901C540.056 340.725 537.409 337.049 535.541 332.874C535.58 329.855 534.256 327.405 531.569 325.523C533.003 319.295 536.974 315.619 543.483 314.496C543.483 312.659 543.483 310.821 543.483 308.983C546.109 308.671 548.426 309.283 550.433 310.821C551.095 308.371 551.758 305.92 552.419 303.47C555.975 299.771 558.624 299.771 560.362 303.47C563.021 293.847 564.014 284.045 563.34 274.066Z" fill="#6944DA"/>
<path fill-rule="evenodd" clip-rule="evenodd" d="M640.783 283.254C648.354 284.977 655.634 287.428 662.625 290.605C659.291 295.558 655.32 300.153 650.711 304.389C648.064 305.614 645.415 306.839 642.768 308.064C625.177 323.125 607.636 338.132 590.148 353.089C589.175 355.466 588.843 357.917 589.155 360.44C586.035 356.517 583.388 352.229 581.212 347.576C580.9 345.053 581.232 342.601 582.205 340.225C601.79 323.233 621.647 306.693 641.776 290.605C642.163 288.181 641.831 285.73 640.783 283.254Z" fill="#BB4BE6"/>
<path fill-rule="evenodd" clip-rule="evenodd" d="M662.625 290.605C668.552 292.123 673.846 294.573 678.511 297.957C677.186 305.308 675.864 312.659 674.539 320.01C675.363 312.888 674.37 306.15 671.561 299.794C651.966 317.321 631.777 334.166 610.997 350.333C612.101 351.037 612.762 351.956 612.983 353.09C610.258 354.949 607.611 356.787 605.04 358.603C601.196 359.998 597.556 361.835 594.119 364.116C591.535 363.861 589.881 362.637 589.154 360.441C588.843 357.917 589.174 355.466 590.147 353.09C607.635 338.132 625.177 323.125 642.768 308.064C645.415 306.839 648.064 305.614 650.711 304.389C655.32 300.153 659.291 295.559 662.625 290.605Z" fill="#DF52E8"/>
<path fill-rule="evenodd" clip-rule="evenodd" d="M525.612 320.01C527.181 322.048 528.174 324.498 528.591 327.361C531.289 328.951 533.607 330.788 535.541 332.874C537.409 337.05 540.056 340.725 543.484 343.901C545.3 348.043 547.947 351.719 551.426 354.927C534.133 370.258 516.925 385.574 499.798 400.872C495.027 400.776 490.394 401.388 485.898 402.709C485.898 402.097 485.898 401.483 485.898 400.872C491.401 386.774 495.041 372.072 496.82 356.765C506.48 347.209 516.74 338.327 527.598 330.117C525.799 326.995 525.138 323.625 525.612 320.01Z" fill="#EB5476"/>
<path fill-rule="evenodd" clip-rule="evenodd" d="M543.483 343.901C549.44 348.188 554.736 353.089 559.369 358.603C556.267 358.175 553.62 356.949 551.426 354.927C547.947 351.718 545.3 348.043 543.483 343.901Z" fill="#D85ABA"/>
<path fill-rule="evenodd" clip-rule="evenodd" d="M706.31 314.496C720.919 323.729 732.833 335.37 742.053 349.414C742.348 351.347 742.019 353.185 741.06 354.927C727.152 366.268 713.584 377.908 700.353 389.845C695.665 390.165 691.032 390.777 686.453 391.683C682.353 391.714 678.381 392.326 674.539 393.52C675.588 391.276 676.912 389.134 678.51 387.088C694.912 374.134 711.129 360.962 727.16 347.576C728.119 345.834 728.449 343.996 728.153 342.063C714.442 338.336 700.542 335.274 686.453 332.874C693.103 326.609 699.722 320.482 706.31 314.496Z" fill="#BB4FF5"/>
<path fill-rule="evenodd" clip-rule="evenodd" d="M644.754 388.007C651.096 377.192 657.715 366.47 664.611 355.846C666.321 350.081 667.643 344.263 668.582 338.387C669.243 338.387 669.907 338.387 670.568 338.387C683.765 336.572 697.001 336.879 710.282 339.306C711.886 339.872 713.211 340.791 714.253 342.063C694.762 357.958 675.566 374.191 656.668 390.764C654.682 391.071 652.697 391.376 650.711 391.683C647.673 391.425 645.687 390.199 644.754 388.007Z" fill="#7143F4"/>
<path fill-rule="evenodd" clip-rule="evenodd" d="M551.426 354.927C553.62 356.949 556.267 358.175 559.369 358.603C560.882 361.841 563.531 363.679 567.311 364.116C569.897 368.383 573.868 370.833 579.226 371.467C580.82 373.163 581.152 375.001 580.218 376.98C570.637 384.291 563.026 392.868 557.383 402.709C538.215 401.518 519.019 400.904 499.798 400.871C516.924 385.574 534.132 370.258 551.426 354.927Z" fill="#EC5B80"/>
<path fill-rule="evenodd" clip-rule="evenodd" d="M565.326 274.065C586.059 274.007 606.577 275.845 626.882 279.579C628.693 281.854 629.025 284.305 627.875 286.93C614.917 297.703 602.01 308.423 589.154 319.091C574.031 325.679 571.384 335.175 581.211 347.576C583.388 352.229 586.035 356.517 589.154 360.44C589.881 362.637 591.535 363.861 594.118 364.116C597.556 361.835 601.195 359.998 605.04 358.603C603.471 360.981 601.485 363.125 599.083 365.035C592.943 365.739 587.649 367.883 583.197 371.467C581.873 371.467 580.55 371.467 579.226 371.467C573.868 370.833 569.897 368.383 567.312 364.116C567.325 359.452 567.989 354.857 569.297 350.333C568.791 347.896 567.466 346.058 565.326 344.819C570.225 343.357 572.872 340.293 573.269 335.631C566.245 315.66 563.596 295.138 565.326 274.065Z" fill="#683DDE"/>
<path fill-rule="evenodd" clip-rule="evenodd" d="M609.011 386.169C600.913 383.96 592.97 381.204 585.183 377.899C583.521 376.041 582.859 373.897 583.197 371.467C587.649 367.883 592.943 365.739 599.082 365.035C601.485 363.126 603.471 360.981 605.04 358.603C607.611 356.787 610.258 354.949 612.982 353.089C619.686 349.239 626.966 346.788 634.825 345.738C641.797 344.713 648.747 343.489 655.675 342.063C657.992 342.675 660.307 343.289 662.625 343.901C657.617 348.841 652.982 354.047 648.725 359.522C635.454 365.555 624.201 374.132 614.968 385.25C613.086 386.138 611.1 386.443 609.011 386.169Z" fill="#5230BB"/>
<path fill-rule="evenodd" clip-rule="evenodd" d="M678.51 297.956C689.144 301.643 698.409 307.156 706.31 314.496C699.722 320.482 693.103 326.609 686.453 332.874C700.542 335.274 714.441 338.336 728.153 342.063C728.449 343.996 728.119 345.834 727.16 347.576C711.129 360.962 694.912 374.134 678.51 387.088C676.912 389.134 675.587 391.276 674.539 393.52C662.986 395.636 651.733 395.636 640.782 393.52C640.637 390.714 641.962 388.876 644.754 388.007C645.687 390.199 647.673 391.425 650.711 391.683C652.696 391.376 654.682 391.071 656.668 390.764C675.566 374.191 694.761 357.958 714.253 342.063C713.21 340.791 711.886 339.872 710.281 339.306C697.001 336.878 683.765 336.572 670.568 338.387C672.311 332.394 673.634 326.269 674.539 320.01C675.863 312.659 677.186 305.307 678.51 297.956Z" fill="#9548F5"/>
<path fill-rule="evenodd" clip-rule="evenodd" d="M374.699 347.576C380.12 358.222 386.077 368.637 392.57 378.818C398.337 388.45 405.618 397.025 414.413 404.547C407.918 400.704 401.631 396.417 395.549 391.683C389.822 397.536 383.534 402.742 376.685 407.304C382.457 413.543 387.751 419.975 392.57 426.6C375.505 411.082 356.31 398.83 334.985 389.845C334.985 376.98 334.985 364.116 334.985 351.252C336.592 354.545 337.585 358.221 337.964 362.278C338.625 359.215 339.288 356.153 339.95 353.089C347.958 345.062 356.562 337.711 365.764 331.036C367.843 337.209 370.821 342.723 374.699 347.576Z" fill="#EB5070"/>
<path fill-rule="evenodd" clip-rule="evenodd" d="M742.053 349.414C747.428 354.462 750.737 360.588 751.982 367.792C742.053 372.693 732.125 377.592 722.196 382.494C714.545 384.24 707.264 386.689 700.354 389.845C713.584 377.909 727.152 366.268 741.06 354.927C742.019 353.185 742.349 351.347 742.053 349.414Z" fill="#E156F1"/>
<path fill-rule="evenodd" clip-rule="evenodd" d="M751.98 367.792C757.991 374.659 761.299 382.623 761.909 391.683C760.102 388.891 758.448 385.829 756.945 382.494C741.488 397.407 725.271 411.803 708.295 425.681C717.844 428.331 727.773 429.25 738.081 428.438C728.539 430.252 718.611 430.866 708.295 430.276C699.882 429.204 691.939 426.448 684.467 422.006C706.818 403.443 729.322 385.372 751.98 367.792Z" fill="#EB4991"/>
<path fill-rule="evenodd" clip-rule="evenodd" d="M668.583 338.387C667.643 344.263 666.321 350.081 664.611 355.846C657.715 366.47 651.096 377.192 644.754 388.007C641.962 388.876 640.638 390.714 640.783 393.521C640.122 393.521 639.458 393.521 638.797 393.521C632.512 392.01 625.894 390.784 618.94 389.845C617.121 389.924 615.797 390.536 614.969 391.683C613.644 391.071 612.322 390.457 610.997 389.845C610.997 388.619 610.336 388.007 609.012 388.007C609.012 387.395 609.012 386.781 609.012 386.169C611.101 386.443 613.086 386.138 614.969 385.251C624.202 374.132 635.455 365.555 648.726 359.522C652.983 354.047 657.618 348.841 662.625 343.901C660.308 343.289 657.993 342.675 655.676 342.063C648.747 343.489 641.797 344.713 634.826 345.739C645.219 340.732 656.47 338.283 668.583 338.387Z" fill="#8237BA"/>
<path fill-rule="evenodd" clip-rule="evenodd" d="M751.981 367.792C729.323 385.372 706.819 403.443 684.468 422.006C691.94 426.448 699.883 429.204 708.296 430.276C705.649 430.276 703 430.276 700.353 430.276C692.933 428.989 685.651 427.152 678.511 424.763C676.728 423.553 674.742 422.329 672.554 421.087C683.394 411.977 693.983 402.481 704.325 392.602C710.383 389.04 716.34 385.67 722.196 382.494C732.125 377.593 742.053 372.693 751.981 367.792Z" fill="#EB4AA7"/>
<path fill-rule="evenodd" clip-rule="evenodd" d="M414.414 404.547C421.084 410.114 427.702 415.627 434.271 421.087C434.271 421.699 434.271 422.313 434.271 422.925C425.033 429.028 416.429 435.765 408.457 443.14C407.795 443.14 407.132 443.14 406.471 443.14C402.583 437.09 397.95 431.577 392.571 426.6C387.752 419.975 382.458 413.543 376.686 407.304C383.534 402.742 389.823 397.536 395.55 391.683C401.632 396.417 407.919 400.704 414.414 404.547Z" fill="#EC5C80"/>
<path fill-rule="evenodd" clip-rule="evenodd" d="M722.196 382.494C716.34 385.669 710.383 389.04 704.325 392.601C693.983 402.481 683.393 411.977 672.553 421.087C674.742 422.329 676.727 423.553 678.511 424.762C674.41 424.731 670.439 424.119 666.596 422.925C662.272 420.798 658.3 418.349 654.682 415.574C653.088 413.877 652.756 412.04 653.689 410.06C656.964 406.109 660.604 402.434 664.611 399.034C672.202 396.777 679.484 394.327 686.453 391.683C691.032 390.777 695.665 390.165 700.353 389.845C707.263 386.689 714.545 384.24 722.196 382.494Z" fill="#E84CBC"/>
<path fill-rule="evenodd" clip-rule="evenodd" d="M579.226 371.467C580.551 371.467 581.873 371.467 583.198 371.467C582.86 373.897 583.521 376.041 585.183 377.899C592.971 381.204 600.914 383.96 609.012 386.169C609.012 386.781 609.012 387.395 609.012 388.007C595.116 389.849 583.863 395.974 575.255 406.385C575.976 407.64 576.637 408.866 577.241 410.06C574.594 409.448 571.945 408.835 569.298 408.223C565.73 405.962 561.758 404.738 557.384 404.547C557.384 403.935 557.384 403.321 557.384 402.709C563.027 392.868 570.638 384.291 580.219 376.981C581.153 375.001 580.821 373.164 579.226 371.467Z" fill="#893FD6"/>
<path fill-rule="evenodd" clip-rule="evenodd" d="M614.968 391.683C615.796 390.536 617.12 389.924 618.939 389.845C625.893 390.784 632.511 392.01 638.796 393.52C636.773 397.242 633.465 399.693 628.868 400.871C623.695 398.539 619.062 395.476 614.968 391.683Z" fill="#B83B92"/>
<path fill-rule="evenodd" clip-rule="evenodd" d="M609.012 388.007C610.336 388.007 610.997 388.619 610.997 389.845C610.827 391.675 611.49 393.206 612.983 394.439C605.372 396.584 600.408 401.178 598.09 408.222C594.574 409.7 591.595 411.845 589.155 414.655C590.259 415.358 590.92 416.277 591.14 417.411C585.978 415.632 581.343 413.183 577.241 410.06C576.637 408.866 575.976 407.64 575.255 406.385C583.863 395.974 595.116 389.848 609.012 388.007Z" fill="#A443D8"/>
<path fill-rule="evenodd" clip-rule="evenodd" d="M610.997 389.845C612.321 390.457 613.644 391.071 614.968 391.683C619.063 395.476 623.695 398.539 628.868 400.871C633.465 399.693 636.773 397.242 638.797 393.52C639.458 393.52 640.121 393.52 640.782 393.52C651.733 395.636 662.986 395.636 674.539 393.52C678.381 392.326 682.353 391.714 686.453 391.683C679.483 394.327 672.202 396.777 664.611 399.034C660.604 402.434 656.964 406.109 653.689 410.06C652.756 412.04 653.088 413.877 654.682 415.574C651.14 414.851 647.832 413.627 644.754 411.898C639.291 406.501 632.671 404.356 624.897 405.466C617.256 411.744 609.313 417.564 601.068 422.925C598.159 420.651 594.849 418.814 591.14 417.411C590.92 416.277 590.258 415.359 589.154 414.655C591.595 411.845 594.573 409.7 598.09 408.223C600.407 401.178 605.371 396.584 612.983 394.439C611.489 393.206 610.826 391.675 610.997 389.845Z" fill="#D14DDA"/>
<path fill-rule="evenodd" clip-rule="evenodd" d="M761.91 391.683C766.145 401.504 768.131 411.918 767.867 422.925C758.327 425.426 748.399 427.264 738.081 428.438C727.774 429.25 717.845 428.331 708.296 425.681C725.272 411.802 741.489 397.407 756.945 382.494C758.449 385.829 760.103 388.891 761.91 391.683Z" fill="#EB477C"/>
<path fill-rule="evenodd" clip-rule="evenodd" d="M481.927 406.385C478.968 415.824 475.66 425.012 471.999 433.951C468.689 433.951 465.38 433.951 462.07 433.951C457.775 431.042 453.143 428.592 448.17 426.6C444.084 423.967 439.449 422.741 434.271 422.925C434.271 422.313 434.271 421.699 434.271 421.087C449.646 415.118 465.531 410.218 481.927 406.385Z" fill="#A73272"/>
<path fill-rule="evenodd" clip-rule="evenodd" d="M491.856 404.547C505.4 402.424 519.3 402.119 533.555 403.628C534.463 404.389 535.126 405.308 535.541 406.385C523.198 416.57 510.623 426.677 497.813 436.708C498.617 438.445 499.942 439.67 501.784 440.383C513.681 441.3 525.595 441.607 537.527 441.302C537.527 441.914 537.527 442.528 537.527 443.14C527.598 443.14 517.67 443.14 507.741 443.14C502.97 443.236 498.337 442.624 493.842 441.302C490.045 439.997 486.735 437.853 483.913 434.87C488.117 432.457 491.095 429.087 492.849 424.762C493.51 425.374 494.173 425.988 494.834 426.6C498.806 421.699 503.438 417.411 508.734 413.736C510.738 410.933 511.731 407.87 511.713 404.547C505.094 404.547 498.474 404.547 491.856 404.547Z" fill="#D74AC2"/>
<path fill-rule="evenodd" clip-rule="evenodd" d="M499.799 400.871C519.02 400.904 538.216 401.518 557.384 402.709C557.384 403.321 557.384 403.935 557.384 404.547C550.051 409.518 546.079 416.257 545.47 424.762C540.779 429.208 538.794 434.721 539.512 441.302C538.851 441.302 538.188 441.302 537.527 441.302C525.595 441.607 513.681 441.3 501.784 440.383C499.942 439.67 498.617 438.445 497.813 436.708C510.623 426.677 523.198 416.57 535.541 406.385C535.126 405.308 534.463 404.389 533.555 403.628C519.3 402.119 505.4 402.424 491.856 404.547C489.209 404.547 486.56 404.547 483.913 404.547C483.913 403.321 484.574 402.709 485.899 402.709C490.394 401.388 495.027 400.776 499.799 400.871Z" fill="#E34AB3"/>
<path fill-rule="evenodd" clip-rule="evenodd" d="M483.913 404.547C486.56 404.547 489.209 404.547 491.856 404.547C498.474 404.547 505.094 404.547 511.713 404.547C511.731 407.87 510.738 410.933 508.734 413.736C503.438 417.411 498.806 421.699 494.834 426.6C494.173 425.988 493.51 425.374 492.849 424.762C491.095 429.087 488.117 432.457 483.913 434.87C486.735 437.853 490.045 439.998 493.841 441.302C492.517 441.302 491.194 441.302 489.87 441.302C482.702 439.092 475.42 437.254 468.027 435.789C465.464 436.225 463.478 435.613 462.07 433.951C465.38 433.951 468.689 433.951 471.999 433.951C475.66 425.012 478.969 415.824 481.927 406.385C483.252 406.385 483.913 405.773 483.913 404.547Z" fill="#C045C4"/>
<path fill-rule="evenodd" clip-rule="evenodd" d="M334.985 389.845C356.31 398.83 375.505 411.082 392.57 426.6C397.95 431.577 402.582 437.09 406.47 443.14C403.98 447.905 400.672 452.195 396.542 456.004C394.453 455.731 392.467 456.036 390.585 456.923C388.742 460.555 386.425 463.923 383.635 467.031C376.685 463.049 369.735 459.068 362.785 455.086C353.194 452.167 343.927 448.799 334.985 444.978C334.985 426.6 334.985 408.223 334.985 389.845Z" fill="#EA4040"/>
<path fill-rule="evenodd" clip-rule="evenodd" d="M557.383 404.547C561.758 404.738 565.729 405.962 569.297 408.223C570.747 410.45 572.733 412.288 575.255 413.736C567.86 421.171 559.917 428.216 551.426 434.87C549.774 436.135 548.452 435.828 547.455 433.951C545.848 431.064 545.185 428.001 545.469 424.762C546.079 416.257 550.05 409.518 557.383 404.547Z" fill="#582A9C"/>
<path fill-rule="evenodd" clip-rule="evenodd" d="M569.297 408.222C571.944 408.834 574.593 409.448 577.24 410.06C581.342 413.183 585.977 415.632 591.139 417.411C594.849 418.813 598.159 420.651 601.068 422.925C591.672 427.273 582.404 431.56 573.268 435.789C562.24 438.783 550.989 440.62 539.511 441.302C538.793 434.721 540.778 429.208 545.469 424.762C545.185 428 545.848 431.064 547.454 433.951C548.451 435.828 549.774 436.134 551.426 434.87C559.916 428.215 567.859 421.171 575.254 413.736C572.732 412.288 570.746 410.45 569.297 408.222Z" fill="#712E9D"/>
<path fill-rule="evenodd" clip-rule="evenodd" d="M666.596 422.925C670.439 424.119 674.41 424.731 678.51 424.762C685.651 427.151 692.933 428.989 700.353 430.276C705.528 432.757 705.528 435.513 700.353 438.546C687.402 448.528 674.827 458.943 662.625 469.788C660.057 470.688 657.408 470.995 654.682 470.706C654.021 468.869 652.696 467.643 650.711 467.031C650.856 464.225 649.531 462.387 646.739 461.518C644.092 457.842 640.782 454.779 636.811 452.329C635.6 450.691 634.938 448.854 634.825 446.816C637.552 447.104 640.2 446.797 642.768 445.897C650.943 440.108 658.556 433.675 665.603 426.6C666.525 425.508 666.856 424.283 666.596 422.925Z" fill="#E655F1"/>
<path fill-rule="evenodd" clip-rule="evenodd" d="M700.354 430.276C703 430.276 705.649 430.276 708.296 430.276C716.505 432.086 725.111 432.698 734.11 432.114C733.397 435.552 731.412 438.309 728.153 440.384C707.85 457.045 687.329 473.278 666.597 489.084C663.86 487.164 661.875 484.714 660.64 481.733C659.428 478.179 657.443 475.116 654.683 472.545C654.683 471.933 654.683 471.319 654.683 470.707C657.409 470.995 660.058 470.688 662.625 469.788C674.827 458.943 687.403 448.529 700.354 438.546C705.528 435.514 705.528 432.757 700.354 430.276Z" fill="#EB52D6"/>
<path fill-rule="evenodd" clip-rule="evenodd" d="M670.567 501.949C669.243 497.661 667.92 493.372 666.596 489.084C687.328 473.278 707.848 457.045 728.152 440.383C731.411 438.308 733.396 435.552 734.109 432.113C742.64 430.344 751.244 430.039 759.923 431.195C733.448 453.248 706.971 475.301 680.496 497.354C677.362 499.365 674.052 500.897 670.567 501.949Z" fill="#EB4FC8"/>
<path fill-rule="evenodd" clip-rule="evenodd" d="M767.866 422.925C769.822 430.522 770.483 438.487 769.852 446.816C751.47 459.834 733.931 473.924 717.231 489.084C715.805 487.336 714.151 487.031 712.267 488.165C703.993 500.146 693.071 510.865 679.503 520.326C678.296 517.448 676.64 514.997 674.539 512.975C673.604 509.154 672.281 505.479 670.567 501.949C674.052 500.897 677.362 499.365 680.496 497.354C706.971 475.301 733.448 453.248 759.924 431.195C751.244 430.039 742.64 430.344 734.11 432.113C725.11 432.698 716.504 432.086 708.296 430.276C718.611 430.866 728.54 430.252 738.081 428.438C748.399 427.264 758.327 425.426 767.866 422.925Z" fill="#EB4DB9"/>
<path fill-rule="evenodd" clip-rule="evenodd" d="M434.27 422.925C439.449 422.741 444.083 423.967 448.17 426.6C440.551 437.03 430.954 446.218 419.377 454.167C418.418 455.909 418.089 457.747 418.385 459.68C413.533 454.99 410.223 449.477 408.456 443.14C416.429 435.765 425.033 429.028 434.27 422.925Z" fill="#843FD8"/>
<path fill-rule="evenodd" clip-rule="evenodd" d="M644.753 411.898C644.583 413.728 645.246 415.259 646.739 416.492C642.107 420.78 637.472 425.069 632.839 429.357C627.599 432.933 621.642 434.771 614.968 434.87C603.531 449.137 589.631 460.775 573.269 469.788C562.748 482.906 550.173 493.625 535.54 501.949C534.446 495.871 533.785 489.746 533.555 483.571C536.394 483.716 539.043 483.104 541.497 481.733C556.487 470.028 571.38 457.778 586.176 444.978C588.745 442.489 589.075 440.038 587.168 437.627C588.493 436.401 589.815 435.177 591.14 433.951C590.147 433.339 589.154 432.725 588.161 432.113C583.556 434.633 578.592 435.859 573.269 435.789C582.405 431.56 591.672 427.273 601.068 422.925C609.313 417.564 617.256 411.744 624.897 405.466C632.671 404.356 639.291 406.5 644.753 411.898Z" fill="#9244E8"/>
<path fill-rule="evenodd" clip-rule="evenodd" d="M489.87 441.302C491.194 441.302 492.517 441.302 493.841 441.302C498.337 442.624 502.97 443.236 507.741 443.14C511.27 445.162 515.241 446.694 519.655 447.734C492.187 470.707 464.717 493.679 437.249 516.651C436.489 515.629 435.496 515.017 434.271 514.813C434.612 512.99 433.949 511.766 432.285 511.137C432.456 504.119 431.131 497.382 428.313 490.922C430.216 491.754 431.872 492.978 433.278 494.597C452.473 478.67 471.667 462.743 490.863 446.816C491.796 444.836 491.464 442.999 489.87 441.302Z" fill="#9948F5"/>
<path fill-rule="evenodd" clip-rule="evenodd" d="M448.17 426.6C453.142 428.592 457.774 431.042 462.069 433.951C463.477 435.613 465.463 436.224 468.027 435.789C456.94 451.261 443.372 464.737 427.32 476.22C426.347 478.596 426.015 481.048 426.327 483.571C425.003 480.507 423.68 477.446 422.356 474.382C422.189 469.187 420.866 464.285 418.384 459.68C418.088 457.747 418.418 455.909 419.377 454.167C430.954 446.218 440.55 437.029 448.17 426.6Z" fill="#A945DD"/>
<path fill-rule="evenodd" clip-rule="evenodd" d="M533.555 483.571C532.743 469.854 534.065 456.377 537.526 443.14C537.526 442.528 537.526 441.914 537.526 441.302C538.188 441.302 538.851 441.302 539.512 441.302C550.989 440.62 562.24 438.783 573.269 435.789C578.592 435.859 583.557 434.633 588.162 432.113C589.154 432.725 590.147 433.339 591.14 433.951C589.816 435.177 588.493 436.401 587.169 437.627C589.075 440.038 588.745 442.489 586.176 444.978C571.38 457.778 556.488 470.028 541.498 481.733C539.043 483.104 536.395 483.716 533.555 483.571Z" fill="#7640E7"/>
<path fill-rule="evenodd" clip-rule="evenodd" d="M334.985 444.978C343.927 448.799 353.194 452.167 362.785 455.086C369.735 459.068 376.685 463.049 383.635 467.031C386.425 463.923 388.742 460.555 390.585 456.923C392.467 456.036 394.453 455.731 396.542 456.004C391.071 462.284 386.439 469.021 382.642 476.22C378.756 484.139 374.785 492.104 370.728 500.111C359.125 503.152 347.211 504.378 334.985 503.786C334.985 484.183 334.985 464.581 334.985 444.978Z" fill="#EA425B"/>
<path fill-rule="evenodd" clip-rule="evenodd" d="M636.811 452.329C640.782 454.779 644.093 457.842 646.739 461.518C642.572 460.174 638.6 460.174 634.825 461.518C604.464 486.241 574.347 511.358 544.476 536.866C542.036 532.369 539.057 532.064 535.541 535.947C523.688 545.075 512.437 554.878 501.784 565.352C509.367 569.295 509.697 573.89 502.777 579.135C496.526 583.007 490.237 588.215 483.913 594.756C461.043 611.411 439.201 628.87 418.385 647.132C418.385 645.906 418.385 644.682 418.385 643.457C418.385 642.231 418.385 641.007 418.385 639.781C441.302 614.593 466.786 591.314 494.834 569.946C495.712 566.061 494.058 563.609 489.87 562.595C488.545 562.595 487.223 562.595 485.898 562.595C483.091 559.739 479.78 557.287 475.97 555.244C494.359 540.143 512.562 524.829 530.576 509.3C533.366 511.562 535.682 514.012 537.526 516.651C537.794 521.929 540.443 524.685 545.469 524.921C569.333 505.891 592.5 486.289 614.968 466.112C621.603 460.595 628.882 456.001 636.811 452.329Z" fill="#E44FD0"/>
<path fill-rule="evenodd" clip-rule="evenodd" d="M644.753 411.898C647.831 413.627 651.139 414.851 654.682 415.574C658.3 418.349 662.271 420.798 666.596 422.925C666.856 424.283 666.524 425.509 665.603 426.6C658.556 433.676 650.943 440.108 642.767 445.897C640.2 446.797 637.551 447.104 634.825 446.816C633.5 446.204 632.178 445.59 630.853 444.978C628.014 440.775 624.042 438.632 618.939 438.546C612.982 444.671 607.025 450.798 601.068 456.923C591.217 461.753 583.274 468.49 577.24 477.139C572.283 479.124 567.649 481.575 563.34 484.49C562.14 489.025 559.491 492.701 555.397 495.516C550.179 498.505 545.546 502.18 541.497 506.543C539.359 507.407 537.373 507.1 535.54 505.624C535.54 504.398 535.54 503.174 535.54 501.949C550.173 493.625 562.748 482.906 573.268 469.788C589.63 460.775 603.53 449.137 614.968 434.87C621.642 434.771 627.599 432.933 632.839 429.357C637.472 425.069 642.106 420.78 646.739 416.492C645.246 415.259 644.582 413.728 644.753 411.898Z" fill="#B24AE8"/>
<path fill-rule="evenodd" clip-rule="evenodd" d="M769.852 446.816C770.478 453.93 769.816 460.669 767.866 467.031C739.497 489.84 710.704 513.731 681.489 538.704C679.533 535.626 677.877 532.562 676.524 529.515C675.097 525.354 674.436 521.067 674.539 516.651C674.539 515.425 674.539 514.201 674.539 512.975C676.64 514.997 678.296 517.448 679.503 520.326C693.071 510.866 703.993 500.146 712.267 488.165C714.151 487.032 715.805 487.337 717.231 489.084C733.931 473.925 751.47 459.834 769.852 446.816Z" fill="#EB4CAE"/>
<path fill-rule="evenodd" clip-rule="evenodd" d="M406.471 443.14C407.132 443.14 407.795 443.14 408.457 443.14C410.224 449.477 413.534 454.99 418.385 459.68C420.867 464.285 422.19 469.187 422.356 474.382C422.694 476.812 422.033 478.956 420.371 480.814C415.716 482.353 411.745 484.804 408.457 488.165C405.889 489.066 403.24 489.373 400.514 489.084C397.722 483.729 393.751 479.135 388.6 475.301C386.461 474.437 384.475 474.744 382.643 476.22C386.439 469.021 391.072 462.284 396.542 456.005C400.673 452.195 403.981 447.905 406.471 443.14Z" fill="#A2306C"/>
<path fill-rule="evenodd" clip-rule="evenodd" d="M507.741 443.14C517.67 443.14 527.598 443.14 537.527 443.14C534.066 456.378 532.743 469.854 533.555 483.571C533.786 489.746 534.447 495.871 535.541 501.949C532.713 498.246 531.391 493.958 531.57 489.084C531.534 481.537 530.209 474.186 527.598 467.031C497.1 492.199 466.653 517.316 436.256 542.38C434.282 533.272 433.621 524.083 434.271 514.813C435.496 515.017 436.489 515.629 437.249 516.651C464.717 493.679 492.187 470.707 519.655 447.735C515.241 446.694 511.27 445.162 507.741 443.14Z" fill="#BD4EF5"/>
<path fill-rule="evenodd" clip-rule="evenodd" d="M767.867 467.031C766.874 483.001 763.564 498.315 757.939 512.975C758.199 511.617 757.867 510.391 756.946 509.3C731.132 530.741 705.318 552.18 679.504 573.621C679.162 561.652 678.17 550.012 676.525 538.704C676.525 535.64 676.525 532.579 676.525 529.515C677.878 532.562 679.534 535.626 681.49 538.704C710.705 513.73 739.498 489.84 767.867 467.031Z" fill="#EB4AA3"/>
<path fill-rule="evenodd" clip-rule="evenodd" d="M650.711 467.031C652.696 467.643 654.021 468.869 654.682 470.707C654.682 471.318 654.682 471.932 654.682 472.544C651.858 472.928 649.211 473.847 646.739 475.301C619.976 498.396 592.84 521.063 565.326 543.298C561.241 546.457 557.931 550.133 555.397 554.325C556.009 557.006 557.333 559.151 559.369 560.757C559.369 561.983 559.369 563.207 559.369 564.433C554.538 572.276 547.919 578.708 539.512 583.729C536.178 584.455 532.87 584.148 529.583 582.81C526.077 583.896 522.766 585.427 519.655 587.405C489.52 612.542 459.735 637.964 430.299 663.672C431.675 665.543 432.997 667.381 434.27 669.185C432.946 669.185 431.623 669.185 430.299 669.185C428.974 667.348 427.652 665.51 426.327 663.672C424.516 661.397 424.185 658.945 425.334 656.321C473.384 619.808 518.062 580.296 559.369 537.785C586.557 515.067 613.695 492.401 640.782 469.788C643.81 467.933 647.12 467.014 650.711 467.031Z" fill="#EA4BAF"/>
<path fill-rule="evenodd" clip-rule="evenodd" d="M468.027 435.789C475.419 437.254 482.701 439.092 489.869 441.302C491.464 442.999 491.795 444.836 490.862 446.816C471.667 462.744 452.473 478.67 433.277 494.598C431.871 492.979 430.215 491.755 428.313 490.922C427.652 488.472 426.988 486.021 426.327 483.571C426.015 481.048 426.347 478.596 427.32 476.22C443.372 464.738 456.941 451.261 468.027 435.789Z" fill="#7F45F5"/>
<path fill-rule="evenodd" clip-rule="evenodd" d="M654.682 472.544C657.442 475.115 659.428 478.179 660.639 481.733C658.181 480.057 655.532 479.75 652.696 480.814C620.52 506.672 589.412 533.319 559.369 560.757C557.334 559.151 556.009 557.006 555.397 554.325C557.931 550.133 561.241 546.458 565.326 543.298C592.84 521.063 619.976 498.396 646.739 475.301C649.212 473.847 651.858 472.929 654.682 472.544Z" fill="#EB49A3"/>
<path fill-rule="evenodd" clip-rule="evenodd" d="M400.513 489.084C401.837 490.31 403.16 491.534 404.484 492.76C393.009 494.465 381.756 496.915 370.728 500.111C374.784 492.104 378.756 484.139 382.642 476.22C384.474 474.744 386.46 474.437 388.599 475.301C393.75 479.135 397.721 483.729 400.513 489.084Z" fill="#6C2C9A"/>
<path fill-rule="evenodd" clip-rule="evenodd" d="M646.739 461.518C649.531 462.387 650.855 464.225 650.71 467.031C647.12 467.015 643.81 467.933 640.782 469.788C613.695 492.401 586.556 515.067 559.368 537.785C518.062 580.296 473.384 619.808 425.334 656.321C424.184 658.945 424.516 661.397 426.327 663.672C423.225 663.244 420.578 662.018 418.384 659.997C413.315 655.472 413.315 651.185 418.384 647.132C439.2 628.87 461.043 611.412 483.912 594.756C490.236 588.215 496.525 583.007 502.776 579.135C509.696 573.89 509.367 569.295 501.783 565.352C512.436 554.878 523.687 545.076 535.54 535.947C539.057 532.064 542.035 532.369 544.476 536.866C574.346 511.358 604.463 486.241 634.825 461.518C638.599 460.174 642.571 460.174 646.739 461.518Z" fill="#E84DBE"/>
<path fill-rule="evenodd" clip-rule="evenodd" d="M422.356 474.382C423.681 477.446 425.003 480.507 426.328 483.571C426.989 486.021 427.652 488.472 428.313 490.922C431.131 497.382 432.456 504.119 432.285 511.137C432.614 520.958 432.283 530.759 431.292 540.542C430.531 541.563 429.539 542.175 428.313 542.379C425.839 524.95 418.558 509.636 406.471 496.435C406.812 494.612 406.149 493.388 404.485 492.76C403.161 491.534 401.838 490.31 400.514 489.084C403.24 489.373 405.889 489.066 408.456 488.165C411.745 484.804 415.716 482.352 420.371 480.814C422.033 478.956 422.694 476.812 422.356 474.382Z" fill="#D949B9"/>
<path fill-rule="evenodd" clip-rule="evenodd" d="M630.853 444.978C605.371 463.368 580.879 482.665 557.383 502.867C552.009 507.225 547.377 512.124 543.483 517.57C541.344 518.433 539.359 518.126 537.526 516.651C537.492 512.856 536.831 509.18 535.54 505.624C537.373 507.1 539.359 507.407 541.497 506.543C545.546 502.18 550.179 498.505 555.397 495.516C559.491 492.701 562.14 489.025 563.34 484.49C567.649 481.575 572.283 479.124 577.24 477.139C583.274 468.49 591.217 461.753 601.068 456.923C607.025 450.798 612.982 444.671 618.939 438.546C624.042 438.632 628.014 440.775 630.853 444.978Z" fill="#BF4ADF"/>
<path fill-rule="evenodd" clip-rule="evenodd" d="M630.853 444.978C632.177 445.59 633.5 446.204 634.824 446.816C634.938 448.854 635.599 450.691 636.81 452.329C628.881 456.001 621.602 460.595 614.967 466.112C592.499 486.289 569.332 505.891 545.468 524.921C540.442 524.685 537.793 521.929 537.525 516.651C539.358 518.126 541.344 518.433 543.482 517.57C547.376 512.124 552.009 507.225 557.382 502.867C580.879 482.665 605.371 463.368 630.853 444.978Z" fill="#DA4ED9"/>
<path fill-rule="evenodd" clip-rule="evenodd" d="M666.596 500.111C635.675 523.506 605.558 548.009 576.247 573.622C575.288 575.364 574.959 577.202 575.254 579.135C567.119 574.458 565.795 568.638 571.283 561.676C600.407 537.785 629.529 513.894 658.654 490.003C663.308 491.409 665.955 494.778 666.596 500.111Z" fill="#EB4687"/>
<path fill-rule="evenodd" clip-rule="evenodd" d="M531.569 489.084C531.39 493.958 532.713 498.245 535.54 501.949C535.54 503.174 535.54 504.398 535.54 505.624C536.831 509.18 537.492 512.856 537.526 516.651C535.681 514.012 533.366 511.562 530.576 509.3C512.562 524.829 494.359 540.143 475.97 555.244C479.78 557.287 483.09 559.739 485.898 562.595C482.687 561.606 479.377 560.994 475.97 560.757C468.855 559.129 461.573 557.291 454.127 555.244C452.344 554.035 450.358 552.811 448.17 551.568C474.002 528.887 500.479 506.833 527.598 485.409C528.952 486.774 530.276 487.998 531.569 489.084Z" fill="#E955EE"/>
<path fill-rule="evenodd" clip-rule="evenodd" d="M404.484 492.76C406.148 493.388 406.812 494.612 406.47 496.435C407.866 502.092 409.852 507.605 412.427 512.975C411.766 514.813 411.103 516.651 410.441 518.489C395.799 530.145 381.238 541.786 366.756 553.406C364.78 543.063 364.117 532.65 364.771 522.164C366.137 514.659 368.122 507.308 370.728 500.111C381.756 496.915 393.009 494.465 404.484 492.76Z" fill="#633FEB"/>
<path fill-rule="evenodd" clip-rule="evenodd" d="M666.596 500.111C669.243 505.624 671.892 511.137 674.539 516.651C674.436 521.067 675.097 525.354 676.525 529.515C676.525 532.579 676.525 535.64 676.525 538.704C676.854 550.971 676.525 563.223 675.532 575.459C675.071 577.733 674.078 579.57 672.553 580.973C673.943 573.074 674.605 565.111 674.539 557.082C675.143 545.914 674.15 534.887 671.56 524.002C645.746 545.443 619.932 566.882 594.118 588.324C592.901 591.99 593.894 595.054 597.097 597.512C588.616 592.732 581.337 586.607 575.254 579.135C574.958 577.201 575.288 575.364 576.247 573.622C605.558 548.009 635.675 523.506 666.596 500.111Z" fill="#EB457A"/>
<path fill-rule="evenodd" clip-rule="evenodd" d="M757.939 512.975C740.864 560.627 707.768 594.932 658.654 615.89C664.451 604.706 669.083 593.065 672.554 580.973C674.079 579.57 675.072 577.733 675.533 575.459C676.526 563.224 676.855 550.971 676.526 538.704C678.17 550.012 679.163 561.652 679.504 573.622C705.318 552.18 731.132 530.741 756.946 509.3C757.867 510.391 758.199 511.617 757.939 512.975Z" fill="#EB4B99"/>
<path fill-rule="evenodd" clip-rule="evenodd" d="M370.728 500.111C368.123 507.308 366.137 514.659 364.771 522.164C362.797 538.983 362.136 556.135 362.785 573.622C357.954 573.204 354.646 575.042 352.857 579.135C346.616 582.336 340.658 586.012 334.985 590.161C334.985 561.369 334.985 532.579 334.985 503.786C347.211 504.378 359.125 503.152 370.728 500.111Z" fill="#EA4DAD"/>
<path fill-rule="evenodd" clip-rule="evenodd" d="M531.569 489.084C530.277 487.998 528.952 486.774 527.598 485.409C500.479 506.833 474.002 528.887 448.17 551.568C450.358 552.811 452.344 554.035 454.127 555.244C452.142 555.244 450.156 555.244 448.17 555.244C442.702 554.722 437.408 553.496 432.285 551.568C429.296 549.102 427.972 546.04 428.313 542.379C429.538 542.175 430.531 541.563 431.292 540.542C432.283 530.759 432.614 520.958 432.285 511.137C433.949 511.766 434.612 512.99 434.27 514.813C433.621 524.083 434.282 533.271 436.256 542.379C466.653 517.316 497.1 492.199 527.598 467.031C530.209 474.185 531.534 481.536 531.569 489.084Z" fill="#D252F5"/>
<path fill-rule="evenodd" clip-rule="evenodd" d="M674.54 557.082C670.38 558.758 666.408 560.902 662.625 563.514C649.851 576.442 635.952 588.081 620.926 598.431C617.667 600.506 615.682 603.263 614.969 606.701C609.038 603.368 603.08 600.304 597.098 597.512C593.895 595.053 592.902 591.99 594.119 588.324C619.933 566.882 645.747 545.443 671.561 524.002C674.15 534.887 675.143 545.913 674.54 557.082Z" fill="#EB4368"/>
<path fill-rule="evenodd" clip-rule="evenodd" d="M406.47 496.435C418.557 509.636 425.839 524.95 428.313 542.379C427.971 546.04 429.296 549.102 432.284 551.568C437.407 553.496 442.701 554.722 448.17 555.244C450.588 556.459 453.235 557.684 456.112 558.919C448.676 564.392 441.726 570.518 435.263 577.297C435.205 586.409 433.551 594.984 430.298 603.026C432.04 587.16 432.703 571.232 432.284 555.244C429.721 554.808 427.735 555.42 426.327 557.082C414.919 556.55 403.666 557.469 392.57 559.838C383.694 563.552 375.088 567.535 366.756 571.784C363.621 576.261 358.988 578.71 352.856 579.135C354.646 575.042 357.954 573.204 362.785 573.622C362.136 556.135 362.797 538.983 364.771 522.164C364.117 532.65 364.781 543.063 366.756 553.406C381.238 541.786 395.799 530.145 410.442 518.489C411.103 516.651 411.766 514.813 412.427 512.975C409.852 507.605 407.866 502.092 406.47 496.435Z" fill="#8844EB"/>
<path fill-rule="evenodd" clip-rule="evenodd" d="M448.17 555.244C450.156 555.244 452.142 555.244 454.127 555.244C461.574 557.291 468.855 559.129 475.97 560.757C476.191 561.891 476.852 562.81 477.956 563.514C466.095 572.041 455.506 581.842 446.185 592.918C444.302 593.806 442.317 594.111 440.228 593.837C435.224 600.648 431.252 607.999 428.313 615.89C428.659 611.551 429.32 607.264 430.299 603.026C433.552 594.984 435.206 586.409 435.263 577.297C441.727 570.518 448.677 564.392 456.113 558.919C453.236 557.684 450.589 556.459 448.17 555.244Z" fill="#9D45E3"/>
<path fill-rule="evenodd" clip-rule="evenodd" d="M674.539 557.082C674.604 565.111 673.943 573.074 672.553 580.973C669.082 593.065 664.449 604.705 658.653 615.89C654.682 617.116 650.71 618.34 646.739 619.566C634.575 618.016 623.983 613.727 614.968 606.701C615.681 603.263 617.666 600.506 620.925 598.431C635.951 588.081 649.85 576.442 662.624 563.514C666.407 560.902 670.379 558.758 674.539 557.082Z" fill="#EB425D"/>
<path fill-rule="evenodd" clip-rule="evenodd" d="M426.327 557.081C420.288 582.974 407.05 605.027 386.613 623.241C374.943 608.01 368.325 590.856 366.756 571.784C375.088 567.535 383.694 563.552 392.57 559.838C403.666 557.469 414.919 556.55 426.327 557.081Z" fill="#3E2FBC"/>
<path fill-rule="evenodd" clip-rule="evenodd" d="M475.97 560.757C479.378 560.994 482.688 561.606 485.899 562.595C487.223 562.595 488.546 562.595 489.87 562.595C491.464 564.291 491.796 566.129 490.863 568.108C480.694 575.042 470.434 582.086 460.085 589.243C448.992 599.198 438.403 609.306 428.313 619.566C428.313 618.34 428.313 617.116 428.313 615.89C431.252 607.999 435.224 600.648 440.228 593.837C442.317 594.111 444.302 593.806 446.185 592.918C455.506 581.842 466.095 572.041 477.956 563.514C476.852 562.81 476.191 561.891 475.97 560.757Z" fill="#BE4ADF"/>
<path fill-rule="evenodd" clip-rule="evenodd" d="M559.369 564.433C561.108 564.192 562.433 564.804 563.34 566.271C564.939 570.709 566.924 574.998 569.297 579.135C565.028 584.007 560.395 588.601 555.397 592.918C547.163 592.394 539.22 591.17 531.569 589.243C500.604 614.449 469.826 639.871 439.234 665.51C438.085 668.134 438.416 670.586 440.227 672.861C439.566 672.861 438.903 672.861 438.242 672.861C436.256 672.249 434.931 671.023 434.27 669.186C432.997 667.381 431.675 665.543 430.299 663.672C459.735 637.964 489.52 612.542 519.655 587.405C522.767 585.427 526.077 583.897 529.583 582.81C532.87 584.148 536.178 584.455 539.512 583.729C547.919 578.709 554.538 572.276 559.369 564.433Z" fill="#EB49A4"/>
<path fill-rule="evenodd" clip-rule="evenodd" d="M660.64 481.733C661.875 484.714 663.86 487.164 666.597 489.084C667.921 493.372 669.244 497.661 670.568 501.949C672.282 505.479 673.604 509.155 674.539 512.975C674.539 514.201 674.539 515.425 674.539 516.651C671.893 511.137 669.244 505.624 666.597 500.111C665.955 494.778 663.308 491.409 658.654 490.003C629.53 513.894 600.408 537.785 571.283 561.676C565.795 568.638 567.119 574.458 575.255 579.135C581.337 586.607 588.617 592.732 597.097 597.513C603.08 600.304 609.037 603.368 614.969 606.701C623.984 613.727 634.575 618.016 646.74 619.566C624.514 627.619 601.347 633.132 577.24 636.106C573.803 624.96 567.185 615.771 557.384 608.539C554.048 601.471 548.422 596.572 540.505 593.837C510.16 619.461 479.713 645.19 449.163 671.023C448.204 672.765 447.875 674.603 448.17 676.536C444.888 676.242 442.241 675.018 440.228 672.861C438.417 670.586 438.085 668.134 439.235 665.51C469.826 639.871 500.605 614.449 531.57 589.243C539.22 591.17 547.163 592.394 555.398 592.918C560.396 588.601 565.028 584.007 569.298 579.135C566.925 574.998 564.939 570.709 563.341 566.27C562.433 564.804 561.109 564.192 559.369 564.433C559.369 563.207 559.369 561.983 559.369 560.757C589.413 533.319 620.521 506.672 652.697 480.814C655.532 479.75 658.181 480.057 660.64 481.733Z" fill="#EB4895"/>
<path fill-rule="evenodd" clip-rule="evenodd" d="M489.87 562.595C494.058 563.609 495.712 566.061 494.834 569.946C466.786 591.314 441.302 614.592 418.385 639.781C420.905 632.599 424.213 625.86 428.313 619.565C438.403 609.305 448.992 599.198 460.084 589.242C470.434 582.086 480.694 575.042 490.863 568.108C491.796 566.129 491.464 564.291 489.87 562.595Z" fill="#D54EDD"/>
<path fill-rule="evenodd" clip-rule="evenodd" d="M430.299 603.026C429.32 607.264 428.658 611.551 428.313 615.89C425.906 617.232 423.921 619.069 422.356 621.403C420.463 631.362 414.836 638.713 405.477 643.457C404.816 645.906 404.153 648.358 403.492 650.808C381.089 669.863 358.254 688.241 334.985 705.941C334.985 667.959 334.985 629.98 334.985 591.999C334.985 591.387 334.985 590.773 334.985 590.161C340.658 586.012 346.616 582.336 352.857 579.135C358.988 578.71 363.621 576.26 366.756 571.784C368.325 590.856 374.943 608.01 386.613 623.241C407.05 605.027 420.289 582.974 426.327 557.081C427.735 555.42 429.721 554.808 432.284 555.244C432.703 571.232 432.04 587.16 430.299 603.026Z" fill="#4F40F4"/>
<path fill-rule="evenodd" clip-rule="evenodd" d="M557.383 608.539C567.185 615.771 573.803 624.96 577.24 636.106C558.082 637.475 538.887 638.087 519.655 637.943C530.144 626.707 541.726 616.295 554.405 606.701C555.165 607.723 556.158 608.335 557.383 608.539Z" fill="#EB4575"/>
<path fill-rule="evenodd" clip-rule="evenodd" d="M577.24 636.106C573.681 637.592 569.71 638.511 565.325 638.862C542.168 639.781 519.001 640.088 495.826 639.781C503.368 637.975 511.311 637.361 519.654 637.943C538.886 638.087 558.082 637.475 577.24 636.106Z" fill="#F7C8D8"/>
<path fill-rule="evenodd" clip-rule="evenodd" d="M557.383 608.539C556.158 608.335 555.165 607.723 554.405 606.701C541.726 616.294 530.144 626.707 519.655 637.943C511.311 637.361 503.369 637.975 495.827 639.781C495.827 656.933 495.827 674.087 495.827 691.239C489.731 691.481 483.774 690.869 477.956 689.401C475.97 688.175 473.984 686.951 471.999 685.725C469.352 685.725 466.703 685.725 464.056 685.725C460.71 681.465 456.075 679.628 450.156 680.212C449.495 678.986 448.832 677.762 448.17 676.536C447.874 674.603 448.204 672.765 449.163 671.023C479.713 645.19 510.16 619.461 540.505 593.837C548.422 596.572 554.048 601.471 557.383 608.539Z" fill="#EB4786"/>
<path fill-rule="evenodd" clip-rule="evenodd" d="M428.313 615.89C428.313 617.116 428.313 618.34 428.313 619.566C424.212 625.86 420.904 632.599 418.384 639.781C418.384 641.007 418.384 642.231 418.384 643.457C398.234 673.721 370.434 696.386 334.985 711.454C334.985 709.616 334.985 707.778 334.985 705.941C358.254 688.241 381.089 669.864 403.492 650.808C404.153 648.358 404.816 645.906 405.477 643.457C414.836 638.713 420.463 631.362 422.356 621.403C423.921 619.069 425.906 617.232 428.313 615.89Z" fill="#7243F4"/>
<path fill-rule="evenodd" clip-rule="evenodd" d="M418.385 659.997C420.579 662.018 423.226 663.244 426.328 663.672C427.652 665.51 428.975 667.348 430.299 669.185C430.702 672.659 429.38 675.415 426.328 677.455C396.249 701.31 366.463 725.507 336.972 750.047C335.018 744.666 334.357 739.153 334.986 733.507C362.812 711.118 390.282 688.453 417.392 665.51C418.351 663.768 418.681 661.93 418.385 659.997Z" fill="#EA56EF"/>
<path fill-rule="evenodd" clip-rule="evenodd" d="M471.998 685.725C470.153 684.227 468.168 682.697 466.041 681.131C474.788 673.26 483.724 665.602 492.848 658.159C493.839 668.555 494.17 678.97 493.841 689.401C486.559 688.175 479.28 686.951 471.998 685.725Z" fill="#EB4475"/>
<path fill-rule="evenodd" clip-rule="evenodd" d="M333 591.999C333.661 591.999 334.324 591.999 334.986 591.999C334.986 629.98 334.986 667.959 334.986 705.941C334.986 707.778 334.986 709.616 334.986 711.454C334.986 718.805 334.986 726.156 334.986 733.507C334.356 739.153 335.017 744.666 336.971 750.047C366.463 725.507 396.248 701.309 426.328 677.455C429.38 675.415 430.702 672.659 430.299 669.185C431.623 669.185 432.946 669.185 434.27 669.185C434.932 671.023 436.256 672.249 438.242 672.861C438.071 674.691 438.734 676.222 440.227 677.455C410.416 701.901 381.294 726.711 352.857 751.885C346.239 751.885 339.618 751.885 333 751.885C333 698.589 333 645.294 333 591.999Z" fill="#E561E2"/>
<path fill-rule="evenodd" clip-rule="evenodd" d="M438.241 672.861C438.902 672.861 439.566 672.861 440.227 672.861C442.24 675.018 444.887 676.242 448.17 676.536C448.831 677.762 449.494 678.986 450.155 680.212C422.356 704.103 394.556 727.994 366.756 751.885C362.124 751.885 357.489 751.885 352.856 751.885C381.294 726.711 410.416 701.901 440.227 677.455C438.734 676.222 438.07 674.691 438.241 672.861Z" fill="#EB51D3"/>
<path fill-rule="evenodd" clip-rule="evenodd" d="M450.155 680.212C456.074 679.628 460.709 681.465 464.055 685.725C439.595 708.359 414.444 730.412 388.598 751.885C381.317 751.885 374.037 751.885 366.756 751.885C394.556 727.994 422.355 704.103 450.155 680.212Z" fill="#EB4FC6"/>
<path fill-rule="evenodd" clip-rule="evenodd" d="M418.384 643.457C418.384 644.682 418.384 645.906 418.384 647.132C413.315 651.184 413.315 655.472 418.384 659.996C418.68 661.93 418.351 663.768 417.392 665.51C390.281 688.452 362.811 711.118 334.985 733.507C334.985 726.156 334.985 718.805 334.985 711.454C370.434 696.386 398.234 673.721 418.384 643.457Z" fill="#DA54F6"/>
<path fill-rule="evenodd" clip-rule="evenodd" d="M464.055 685.725C466.702 685.725 469.351 685.725 471.998 685.725C473.983 686.951 475.969 688.175 477.955 689.401C478.175 690.535 478.836 691.454 479.941 692.158C475.969 695.833 471.998 699.509 468.026 703.184C469.351 703.796 470.673 704.41 471.998 705.022C454.198 718.428 436.99 732.519 420.37 747.291C416.837 745.491 413.529 746.103 410.441 749.128C412.898 749.555 414.883 750.474 416.398 751.885C407.131 751.885 397.866 751.885 388.599 751.885C414.444 730.412 439.595 708.359 464.055 685.725Z" fill="#EB4DB9"/>
<path fill-rule="evenodd" clip-rule="evenodd" d="M477.956 689.401C483.774 690.869 489.731 691.481 495.827 691.239C496.157 705.954 495.827 720.656 494.834 735.345C492.845 743.027 487.88 748.235 479.942 750.966C458.772 751.885 437.591 752.192 416.399 751.885C414.884 750.474 412.899 749.555 410.442 749.128C413.53 746.103 416.838 745.491 420.371 747.291C436.991 732.519 454.199 718.428 471.999 705.022C470.674 704.41 469.352 703.796 468.027 703.184C471.999 699.509 475.97 695.833 479.942 692.158C478.838 691.454 478.176 690.535 477.956 689.401Z" fill="#EB4BA8"/>
</g>
<defs>
<clipPath id="clip0_4_2127">
<rect width="1024" height="1024" fill="white"/>
</clipPath>
</defs>
</svg>
