<svg width="500" height="500" viewBox="0 0 500 500" fill="none" xmlns="http://www.w3.org/2000/svg">
<g clip-path="url(#clip0_3_547)">
<path d="M500 250C500 323.68 495.775 384.982 463.989 428.482C433.085 470.775 372.839 500 250 500C127.162 500 66.9161 470.775 36.0101 428.482C4.22436 384.982 0 323.68 0 250C0 176.548 5.22254 115.145 37.5153 71.6021C68.982 29.1738 129.357 0 250 0C370.643 0 431.019 29.1738 462.484 71.6021C494.778 115.145 500 176.548 500 250Z" fill="#D6E0EA"/>
<path d="M204.915 293.334C204.915 309.566 204.407 323.769 204.915 338.48C204.915 341.523 207.451 344.567 209.987 346.596C217.596 354.204 218.61 357.755 216.581 369.929C194.77 369.929 173.465 369.929 151.146 369.929C148.61 360.799 150.132 353.697 157.233 346.596C160.277 343.552 162.813 337.972 162.813 333.914C163.32 278.117 163.32 222.827 162.813 167.029C162.813 162.971 160.784 157.899 157.74 154.855C150.639 148.261 149.117 140.652 151.146 130C154.19 130 156.726 130 159.769 130C192.233 130 224.697 130 257.161 130C272.886 130 288.611 132.029 303.321 138.623C334.771 152.319 349.481 176.667 349.988 210.146C350.495 243.624 334.771 268.986 304.336 283.189C287.596 291.305 269.335 293.334 251.074 293.334C236.364 293.334 221.147 293.334 204.915 293.334ZM205.422 169.566C205.422 197.464 205.422 226.377 205.422 256.812C228.248 255.798 250.567 256.305 272.379 253.262C295.205 249.711 307.379 232.465 306.872 210.653C306.365 188.334 294.191 172.609 270.35 170.073C249.553 168.044 227.741 169.566 205.422 169.566Z" fill="#015486"/>
</g>
<defs>
<clipPath id="clip0_3_547">
<rect width="500" height="500" fill="white"/>
</clipPath>
</defs>
</svg>
