<svg width="1024" height="1024" viewBox="0 0 1024 1024" fill="none" xmlns="http://www.w3.org/2000/svg">
<g clip-path="url(#clip0_49_129)">
<path d="M1023 512C1023 662.896 1014.35 788.442 949.25 877.53C885.957 964.148 762.574 1024 511 1024C259.427 1024 136.044 964.148 72.7486 877.53C7.6515 788.442 -1 662.896 -1 512C-1 361.57 9.69576 235.816 75.8314 146.641C140.275 59.748 263.922 0 511 0C758.077 0 881.726 59.748 946.168 146.641C1012.3 235.816 1023 361.57 1023 512Z" fill="#2F5EEE"/>
<rect x="214" y="251" width="593" height="418" rx="40" fill="white"/>
<rect x="251" y="283" width="520" height="353" rx="15" fill="white" stroke="#2F5EEE" stroke-width="20"/>
<rect x="428" y="669" width="169" height="103" fill="white"/>
<rect x="383" y="746" width="255" height="26" fill="white"/>
</g>
<defs>
<clipPath id="clip0_49_129">
<rect width="1024" height="1024" fill="white"/>
</clipPath>
</defs>
</svg>
