<svg width="1024" height="1024" viewBox="0 0 1024 1024" fill="none" xmlns="http://www.w3.org/2000/svg">
<g clip-path="url(#clip0_49_124)">
<path d="M1023 512C1023 662.896 1014.35 788.442 949.25 877.53C885.957 964.148 762.574 1024 511 1024C259.427 1024 136.044 964.148 72.7486 877.53C7.6515 788.442 -1 662.896 -1 512C-1 361.57 9.69576 235.816 75.8314 146.641C140.275 59.748 263.922 0 511 0C758.077 0 881.726 59.748 946.168 146.641C1012.3 235.816 1023 361.57 1023 512Z" fill="url(#paint0_linear_49_124)"/>
<circle cx="510.5" cy="511.5" r="290" stroke="white" stroke-width="25"/>
<path d="M606.583 554.982L572.789 551.123C568.816 550.657 564.788 551.097 561.009 552.41C557.23 553.724 553.797 555.876 550.97 558.707L526.489 583.188C488.72 563.979 458.021 533.279 438.812 495.51L463.426 470.896C469.147 465.175 471.941 457.193 471.009 449.077L467.151 415.549C466.397 409.059 463.282 403.073 458.4 398.73C453.517 394.388 447.209 391.992 440.675 392H417.658C402.624 392 390.118 404.506 391.049 419.541C398.1 533.162 488.97 623.9 602.458 630.951C617.492 631.882 629.999 619.376 629.999 604.342V581.325C630.132 567.887 620.02 556.578 606.583 554.982Z" fill="white"/>
</g>
<defs>
<linearGradient id="paint0_linear_49_124" x1="511" y1="0" x2="511" y2="1024" gradientUnits="userSpaceOnUse">
<stop stop-color="#9100FD"/>
<stop offset="1" stop-color="#FC00CA"/>
</linearGradient>
<clipPath id="clip0_49_124">
<rect width="1024" height="1024" fill="white"/>
</clipPath>
</defs>
</svg>
