<svg width="1024" height="1024" viewBox="0 0 1024 1024" fill="none" xmlns="http://www.w3.org/2000/svg">
<g clip-path="url(#clip0_4_2209)">
<path d="M1024 512C1024 662.896 1015.35 788.442 950.25 877.53C886.957 964.148 763.574 1024 512 1024C260.427 1024 137.044 964.148 73.7486 877.53C8.6515 788.442 0 662.896 0 512C0 361.57 10.6958 235.816 76.8314 146.641C141.275 59.748 264.922 0 512 0C759.077 0 882.726 59.748 947.168 146.641C1013.3 235.816 1024 361.57 1024 512Z" fill="white"/>
<mask id="mask0_4_2209" style="mask-type:alpha" maskUnits="userSpaceOnUse" x="0" y="0" width="1024" height="1024">
<path d="M1024 512C1024 662.896 1015.35 788.442 950.25 877.53C886.957 964.148 763.574 1024 512 1024C260.427 1024 137.044 964.148 73.7486 877.53C8.6515 788.442 0 662.896 0 512C0 361.57 10.6958 235.816 76.8314 146.641C141.275 59.748 264.922 0 512 0C759.077 0 882.726 59.748 947.168 146.641C1013.3 235.816 1024 361.57 1024 512Z" fill="white"/>
</mask>
<g mask="url(#mask0_4_2209)">
<rect x="404" y="-19" width="216" height="430" rx="20" fill="black"/>
<rect x="148" y="-19" width="216" height="430" rx="20" fill="black"/>
<rect x="660" y="-19" width="216" height="430" rx="20" fill="black"/>
<rect x="501" y="411" width="22" height="673" fill="black"/>
<rect x="757" y="411" width="22" height="673" fill="black"/>
<rect x="245" y="411" width="22" height="673" fill="black"/>
</g>
</g>
<defs>
<clipPath id="clip0_4_2209">
<rect width="1024" height="1024" fill="white"/>
</clipPath>
</defs>
</svg>
