<svg width="1024" height="1024" viewBox="0 0 1024 1024" fill="none" xmlns="http://www.w3.org/2000/svg">
<g clip-path="url(#clip0_34_118)">
<path d="M1024 512C1024 662.896 1015.35 788.442 950.25 877.53C886.957 964.148 763.574 1024 512 1024C260.427 1024 137.044 964.148 73.7486 877.53C8.6515 788.442 0 662.896 0 512C0 361.57 10.6958 235.816 76.8314 146.641C141.275 59.748 264.922 0 512 0C759.077 0 882.726 59.748 947.168 146.641C1013.3 235.816 1024 361.57 1024 512Z" fill="url(#paint0_linear_34_118)"/>
<path d="M181.65 634.15C155.843 651.355 164.446 684.043 219.499 699.527C276.273 718.452 338.209 723.613 398.424 713.29C401.865 713.29 405.306 711.57 407.026 711.57V653.075L348.532 672C326.166 678.882 303.8 680.602 281.435 675.441C264.23 670.28 267.671 659.957 288.316 651.355L407.026 610.064V546.409L241.865 603.183C221.22 610.064 200.575 620.387 181.65 634.15ZM580.79 376.086V542.968C651.327 577.376 706.381 542.968 706.381 453.505C706.381 362.323 673.693 321.032 579.069 288.344C529.177 271.14 477.564 255.656 425.951 245.333V742.538L546.381 778.667V360.602C546.381 341.677 546.381 327.914 560.144 333.075C579.069 338.236 580.79 357.161 580.79 376.086ZM804.446 594.581C754.553 577.376 701.22 570.495 649.607 575.656C622.08 577.376 596.273 584.258 572.187 592.86L567.026 594.581V661.677L678.854 620.387C701.22 613.505 723.585 611.785 745.951 616.946C763.155 622.107 759.714 632.43 739.069 641.032L567.026 704.688V770.064L804.446 682.323C821.65 675.441 837.134 666.839 850.897 653.075C862.94 635.871 857.779 611.785 804.446 594.581Z" fill="white"/>
</g>
<defs>
<linearGradient id="paint0_linear_34_118" x1="512" y1="-685" x2="512" y2="677" gradientUnits="userSpaceOnUse">
<stop stop-color="#003F98" stop-opacity="0"/>
<stop offset="1" stop-color="#003F98"/>
</linearGradient>
<clipPath id="clip0_34_118">
<rect width="1024" height="1024" fill="white"/>
</clipPath>
</defs>
</svg>
