<svg width="500" height="500" viewBox="0 0 500 500" fill="none" xmlns="http://www.w3.org/2000/svg">
<g clip-path="url(#clip0_4_754)">
<path d="M500 250C500 323.68 495.775 384.982 463.989 428.482C433.085 470.775 372.839 500 250 500C127.162 500 66.9161 470.775 36.0101 428.482C4.22436 384.982 0 323.68 0 250C0 176.548 5.22254 115.145 37.5153 71.6021C68.982 29.1738 129.357 0 250 0C370.643 0 431.019 29.1738 462.484 71.6021C494.778 115.145 500 176.548 500 250Z" fill="#0F0F13"/>
<path d="M250.945 61.5355L230.64 81.8411C227.49 84.9909 229.721 90.3767 234.175 90.3767H274.787C279.241 90.3767 281.472 84.9909 278.322 81.8411L258.017 61.5355C256.064 59.5829 252.898 59.5829 250.945 61.5355Z" fill="#4E4E4E"/>
<path d="M274.787 409.162H234.175C229.721 409.162 227.49 414.548 230.64 417.698L250.945 438.003C252.898 439.956 256.064 439.956 258.017 438.003L278.322 417.698C281.472 414.548 279.241 409.162 274.787 409.162Z" fill="#4E4E4E"/>
<path d="M406.047 227.329V265.094C406.047 269.549 411.432 271.779 414.582 268.63L433.464 249.747C435.417 247.794 435.417 244.629 433.464 242.676L414.582 223.794C411.432 220.644 406.047 222.875 406.047 227.329Z" fill="#4E4E4E"/>
<path d="M96.5114 226.459V265.964C96.5114 270.289 91.3925 272.574 88.1729 269.686L66.15 249.934C63.9346 247.947 63.9346 244.476 66.15 242.489L88.1729 222.737C91.3925 219.849 96.5114 222.134 96.5114 226.459Z" fill="#4E4E4E"/>
<path d="M206.094 311.581V390.286C206.094 393.048 208.333 395.286 211.094 395.286H292.887C295.649 395.286 297.887 393.048 297.887 390.286V311.425C297.887 310.211 297.446 309.039 296.645 308.126L258.04 264.142C256.12 261.954 252.744 261.863 250.708 263.943L207.52 308.084C206.606 309.019 206.094 310.274 206.094 311.581Z" fill="#4E4E4E"/>
<path d="M207.39 179.685L250.998 227.783C252.901 229.881 256.165 229.981 258.193 228.003L296.378 190.757C297.343 189.816 297.887 188.526 297.887 187.178V110.32C297.887 107.558 295.649 105.32 292.887 105.32H211.094C208.333 105.32 206.094 107.558 206.094 110.32V176.327C206.094 177.568 206.556 178.766 207.39 179.685Z" fill="#4E4E4E"/>
<path d="M312.778 201.738H390.373C393.134 201.738 395.373 203.977 395.373 206.738V287.82C395.373 290.581 393.134 292.82 390.373 292.82H312.847C311.474 292.82 310.16 292.255 309.216 291.257L269.909 249.73C268.052 247.769 268.088 244.689 269.99 242.772L309.229 203.217C310.167 202.27 311.445 201.738 312.778 201.738Z" fill="#4E4E4E"/>
<path d="M112.522 287.82V206.738C112.522 203.977 114.76 201.738 117.522 201.738H188.469C189.735 201.738 190.954 202.218 191.88 203.082L234.286 242.64C236.372 244.585 236.41 247.878 234.371 249.872L191.897 291.395C190.962 292.308 189.708 292.82 188.401 292.82H117.522C114.76 292.82 112.522 290.581 112.522 287.82Z" fill="#4E4E4E"/>
</g>
<defs>
<clipPath id="clip0_4_754">
<rect width="500" height="500" fill="white"/>
</clipPath>
</defs>
</svg>
