<svg width="500" height="500" viewBox="0 0 500 500" fill="none" xmlns="http://www.w3.org/2000/svg">
<g clip-path="url(#clip0_7_405)">
<path d="M500 250C500 323.68 495.775 384.982 463.989 428.482C433.085 470.775 372.839 500 250 500C127.162 500 66.9161 470.775 36.0101 428.482C4.22436 384.982 0 323.68 0 250C0 176.548 5.22254 115.145 37.5153 71.6021C68.982 29.1738 129.357 0 250 0C370.643 0 431.019 29.1738 462.484 71.6021C494.778 115.145 500 176.548 500 250Z" fill="url(#paint0_linear_7_405)"/>
<path d="M69.5898 316.751C55.5355 326.121 60.2203 343.923 90.2028 352.356C121.122 362.662 154.853 365.473 187.646 359.851C189.52 359.851 191.394 358.914 192.331 358.914V327.058L160.474 337.364C148.294 341.112 136.114 342.049 123.933 339.238C114.564 336.427 116.438 330.806 127.681 326.121L192.331 303.634V268.967L102.383 299.886C91.1398 303.634 79.8963 309.256 69.5898 316.751ZM286.963 176.208V267.093C325.378 285.832 355.361 267.093 355.361 218.371C355.361 168.713 337.558 146.226 286.026 128.424C258.854 119.054 230.746 110.622 202.637 105V375.779L268.224 395.455V167.776C268.224 157.469 268.224 149.974 275.72 152.785C286.026 155.595 286.963 165.902 286.963 176.208ZM408.767 295.201C381.595 285.832 352.55 282.084 324.441 284.895C309.45 285.832 295.396 289.58 282.278 294.265L279.467 295.201V331.743L340.369 309.256C352.55 305.508 364.73 304.571 376.911 307.382C386.28 310.193 384.406 315.814 373.163 320.499L279.467 355.166V390.771L408.767 342.986C418.136 339.238 426.569 334.554 434.065 327.058C440.623 317.688 437.812 304.571 408.767 295.201Z" fill="#E2E2F5"/>
</g>
<defs>
<linearGradient id="paint0_linear_7_405" x1="250" y1="0" x2="250" y2="500" gradientUnits="userSpaceOnUse">
<stop stop-color="#5959C7"/>
<stop offset="1" stop-color="#3D3DBD"/>
</linearGradient>
<clipPath id="clip0_7_405">
<rect width="500" height="500" fill="white"/>
</clipPath>
</defs>
</svg>
