<svg width="1024" height="1024" viewBox="0 0 1024 1024" fill="none" xmlns="http://www.w3.org/2000/svg">
<g clip-path="url(#clip0_16_1244)">
<path d="M1024 509C1024 659.896 1015.35 785.442 950.25 874.53C886.957 961.148 763.574 1021 512 1021C260.427 1021 137.044 961.148 73.7486 874.53C8.6515 785.442 0 659.896 0 509C0 358.57 10.6958 232.816 76.8314 143.641C141.275 56.748 264.922 -3 512 -3C759.077 -3 882.726 56.748 947.168 143.641C1013.3 232.816 1024 358.57 1024 509Z" fill="white"/>
<path d="M610.092 437H518.272C489.951 437 476.072 454.5 476.072 477.222V546.248C476.072 560.349 469.413 570.47 455.359 570.47H375.045C374.483 570.47 374.017 570.936 374.017 571.471V585.401C374.017 585.971 374.483 586.447 375.045 586.447H465.951C494.261 586.447 508.175 569.026 508.175 546.293V477.222C508.175 463.11 514.782 452.966 528.917 452.966H610.094C610.731 452.966 611.231 452.511 611.231 451.942V438.035C611.231 437.489 610.729 437 610.092 437Z" fill="black"/>
<path d="M339.804 437H163.11C162.467 437 162 437.489 162 438.035V451.942C162 452.511 162.466 452.988 163.11 452.988H329.177C343.215 452.988 349.879 463.11 349.879 477.221C349.879 491.277 343.215 501.375 329.177 501.375H197.8C177.398 501.375 162.001 518.513 162.001 541.245V585.367C162.001 585.971 162.467 586.449 163.111 586.449H193.047C193.633 586.449 194.122 585.971 194.122 585.367V541.245C194.122 527.223 202.179 517.33 213.869 517.33H339.804C368.068 517.33 381.925 499.964 381.925 477.232C381.925 454.536 368.068 437 339.804 437Z" fill="black"/>
<path d="M848.842 509.859C848.446 509.415 848.446 508.654 848.842 508.221C857.644 500.931 861.999 489.946 861.999 477.232C861.999 454.535 848.171 437 819.822 437H643.173C642.57 437 642.128 437.489 642.128 438.081V451.942C642.128 452.511 642.57 452.988 643.173 452.988H809.213C823.211 452.988 829.966 463.11 829.966 477.221C829.966 491.277 823.257 501.375 809.213 501.375H809.008L643.173 501.409C642.57 501.409 642.128 501.842 642.128 502.478V516.329C642.128 516.886 642.57 517.33 643.173 517.33H809.213C827.522 517.545 829.932 535.376 829.932 544.497L829.966 546.213C829.966 560.348 823.211 570.515 809.213 570.515H643.173C642.57 570.515 642.128 570.946 642.128 571.514V585.4C642.128 585.969 642.57 586.446 643.173 586.446H819.823C848.196 586.446 862.001 567.614 862.001 546.213V544.497C861.999 530.851 857.644 517.819 848.842 509.859Z" fill="black"/>
</g>
<defs>
<clipPath id="clip0_16_1244">
<rect width="1024" height="1024" fill="white"/>
</clipPath>
</defs>
</svg>
