<svg width="1024" height="1024" viewBox="0 0 1024 1024" fill="none" xmlns="http://www.w3.org/2000/svg">
<g clip-path="url(#clip0_4_2270)">
<path d="M1024 512C1024 662.896 1015.35 788.442 950.25 877.53C886.957 964.148 763.574 1024 512 1024C260.427 1024 137.044 964.148 73.7486 877.53C8.6515 788.442 0 662.896 0 512C0 361.57 10.6958 235.816 76.8314 146.641C141.275 59.748 264.922 0 512 0C759.077 0 882.726 59.748 947.168 146.641C1013.3 235.816 1024 361.57 1024 512Z" fill="url(#paint0_linear_4_2270)"/>
<path d="M487.509 362.248L329.853 500.897C331.675 501.948 333.498 503.233 335.32 504.401C355.825 518.885 381 528.113 402.757 528.113C425.084 528.113 449.234 519.119 470.194 504.401C495.369 486.296 528.973 486.296 554.148 504.401C573.627 518.184 597.435 528.113 621.585 528.113C633.09 528.113 645.62 525.543 657.923 520.871C654.278 379.536 541.39 266 402.643 266H329.739C309.576 266 293.286 282.703 293.286 303.378C293.286 324.053 309.576 340.756 329.739 340.756H402.643C433.286 340.756 462.22 348.465 487.509 362.248ZM657.809 340.756C657.809 360.582 665.49 379.597 679.162 393.616C692.835 407.636 711.378 415.512 730.714 415.512C750.049 415.512 768.593 407.636 782.265 393.616C795.937 379.597 803.618 360.582 803.618 340.756C803.618 320.929 795.937 301.915 782.265 287.895C768.593 273.876 750.049 266 730.714 266C711.378 266 692.835 273.876 679.162 287.895C665.49 301.915 657.809 320.929 657.809 340.756ZM490.926 534.537C465.296 552.642 433.969 565.024 402.643 565.024C372 565.024 339.535 552.409 314.474 534.537C300.919 524.609 282.465 525.426 269.82 536.523C253.417 550.423 232.798 561.052 212.18 565.958C192.587 570.63 180.398 590.721 184.955 610.812C189.511 630.902 209.104 643.401 228.698 638.728C256.606 632.07 279.845 619.455 294.995 609.527C328.03 627.749 365.052 639.78 402.643 639.78C438.982 639.78 471.675 628.216 494.229 617.703C500.836 614.549 506.874 611.513 512 608.709C517.126 611.513 523.05 614.666 529.77 617.703C552.325 628.216 585.018 639.78 621.357 639.78C658.948 639.78 695.97 627.749 729.005 609.644C744.269 619.455 767.394 632.187 795.302 638.845C814.895 643.517 834.489 631.019 839.045 610.928C843.602 590.838 831.413 570.747 811.82 566.075C791.202 561.169 770.583 550.54 754.18 536.64C741.535 525.66 723.081 524.842 709.526 534.654C684.351 552.409 651.999 565.024 621.357 565.024C590.031 565.024 558.704 552.642 533.074 534.537C520.43 525.31 503.57 525.31 490.926 534.537Z" fill="white"/>
<path d="M490.926 651.713C465.296 669.818 433.969 682.199 402.643 682.199C372 682.199 339.535 669.584 314.474 651.713C300.919 641.784 282.465 642.602 269.82 653.699C253.417 667.599 232.798 678.228 212.18 683.134C192.587 687.806 180.398 707.897 184.955 727.987C189.511 748.078 209.104 760.576 228.698 755.904C256.606 749.246 279.845 736.631 294.995 726.703C328.03 744.924 365.052 756.955 402.643 756.955C438.982 756.955 471.675 745.392 494.229 734.879C500.836 731.725 506.874 728.688 512 725.885C517.126 728.688 523.05 731.842 529.77 734.879C552.325 745.392 585.018 756.955 621.357 756.955C658.948 756.955 695.97 744.924 729.005 726.819C744.269 736.631 767.394 749.363 795.302 756.021C814.895 760.693 834.489 748.195 839.045 728.104C843.602 708.014 831.413 687.923 811.82 683.251C791.202 678.345 770.583 667.715 754.18 653.816C741.535 642.836 723.081 642.018 709.526 651.83C684.351 669.584 651.999 682.199 621.357 682.199C590.031 682.199 558.704 669.818 533.074 651.713C520.43 642.485 503.57 642.485 490.926 651.713Z" fill="white"/>
</g>
<defs>
<linearGradient id="paint0_linear_4_2270" x1="512" y1="-685" x2="512" y2="677" gradientUnits="userSpaceOnUse">
<stop stop-color="#405DD2"/>
<stop offset="1" stop-color="#244DFB"/>
</linearGradient>
<clipPath id="clip0_4_2270">
<rect width="1024" height="1024" fill="white"/>
</clipPath>
</defs>
</svg>
