<svg width="1024" height="1024" viewBox="0 0 1024 1024" fill="none" xmlns="http://www.w3.org/2000/svg">
<g clip-path="url(#clip0_4_2326)">
<path d="M1024 512C1024 662.896 1015.35 788.442 950.25 877.53C886.957 964.148 763.574 1024 512 1024C260.427 1024 137.044 964.148 73.7486 877.53C8.6515 788.442 0 662.896 0 512C0 361.57 10.6958 235.816 76.8314 146.641C141.275 59.748 264.922 0 512 0C759.077 0 882.726 59.748 947.168 146.641C1013.3 235.816 1024 361.57 1024 512Z" fill="url(#paint0_linear_4_2326)"/>
<rect x="158" y="333" width="709" height="333" rx="25" fill="#EAEBEB"/>
<circle cx="685.5" cy="499.5" r="109" fill="#EAEBEB" stroke="url(#paint1_linear_4_2326)" stroke-width="45"/>
<rect x="378" y="377" width="45" height="245" rx="22.5" fill="url(#paint2_linear_4_2326)"/>
<rect x="293" y="377" width="45" height="245" rx="22.5" fill="url(#paint3_linear_4_2326)"/>
<rect x="208" y="377" width="45" height="245" rx="22.5" fill="url(#paint4_linear_4_2326)"/>
<ellipse cx="283" cy="666" rx="45" ry="24" fill="#EAEBEB"/>
<ellipse cx="742" cy="666" rx="45" ry="24" fill="#EAEBEB"/>
</g>
<defs>
<linearGradient id="paint0_linear_4_2326" x1="512" y1="0" x2="512" y2="1024" gradientUnits="userSpaceOnUse">
<stop stop-color="#6E8D9E"/>
<stop offset="1" stop-color="#556C79"/>
</linearGradient>
<linearGradient id="paint1_linear_4_2326" x1="685.5" y1="368" x2="685.5" y2="631" gradientUnits="userSpaceOnUse">
<stop stop-color="#658190"/>
<stop offset="1" stop-color="#617B89"/>
</linearGradient>
<linearGradient id="paint2_linear_4_2326" x1="400.5" y1="377" x2="400.5" y2="622" gradientUnits="userSpaceOnUse">
<stop stop-color="#658190"/>
<stop offset="1" stop-color="#607A88"/>
</linearGradient>
<linearGradient id="paint3_linear_4_2326" x1="315.5" y1="377" x2="315.5" y2="622" gradientUnits="userSpaceOnUse">
<stop stop-color="#658190"/>
<stop offset="1" stop-color="#607A88"/>
</linearGradient>
<linearGradient id="paint4_linear_4_2326" x1="230.5" y1="377" x2="230.5" y2="622" gradientUnits="userSpaceOnUse">
<stop stop-color="#658190"/>
<stop offset="1" stop-color="#607A88"/>
</linearGradient>
<clipPath id="clip0_4_2326">
<rect width="1024" height="1024" fill="white"/>
</clipPath>
</defs>
</svg>
