<svg width="1024" height="1024" viewBox="0 0 1024 1024" fill="none" xmlns="http://www.w3.org/2000/svg">
<g clip-path="url(#clip0_34_88)">
<path d="M1023 512C1023 662.896 1014.35 788.442 949.25 877.53C885.957 964.148 762.574 1024 511 1024C259.427 1024 136.044 964.148 72.7486 877.53C7.6515 788.442 -1 662.896 -1 512C-1 361.57 9.69576 235.816 75.8314 146.641C140.275 59.748 263.922 0 511 0C758.077 0 881.726 59.748 946.168 146.641C1012.3 235.816 1023 361.57 1023 512Z" fill="white"/>
<path d="M672.965 251.982C718.858 254.943 748.954 282.282 762.416 332.62C770.157 361.568 767.444 391.419 766.052 420.965C765.351 435.854 764.34 450.767 762.556 465.559C759.128 493.977 741.657 502.601 717.602 487.138C701.964 477.086 687.975 464.489 672.455 454.229C626.124 423.6 577.895 396.523 524.477 380C501.76 372.974 478.52 369.899 454.808 373.953C422.557 379.467 401.689 398.889 388.825 428.186C374.477 460.866 365.644 494.696 369.338 530.604C372.851 564.749 378.98 598.465 395.971 628.982C417.835 668.253 461.306 687.873 505.646 679.38C540.952 672.617 572.75 657.637 602.978 638.803C639.87 615.817 674.88 590.495 705.048 558.842C711.539 552.033 719.735 546.707 727.644 541.447C732.377 538.299 739.094 534.632 743.583 539.545C746.675 542.931 747.809 550.062 746.785 554.873C744.086 567.547 740.336 580.085 735.929 592.289C720.109 636.099 700.042 677.728 670.292 714.027C623.296 771.369 552.793 790.392 483.382 764.406C417.487 739.737 364.027 698.473 321.246 642.811C302.444 618.347 284.448 593.422 272.956 564.597C246.537 498.337 259.1 439.252 306.629 386.866C334.276 356.394 368.098 335.306 406.022 319.982C466.665 295.479 528.069 273.374 592.147 259.605C608.267 256.141 624.749 254.359 642.108 252.205C653.089 252.398 663.027 252.19 672.965 251.982Z" fill="#022C4B"/>
<path d="M497.479 430.276C497.479 430.276 497.803 430.226 498.057 430.735C498.8 431.449 499.289 431.654 499.778 431.86C499.778 431.86 499.588 431.929 499.715 432.343C505.436 435.677 511.031 438.598 516.625 441.518C516.625 441.518 516.699 441.789 516.595 442.191C518.278 443.308 520.066 444.022 521.854 444.737C521.854 444.737 521.802 444.8 521.864 445.254C530.757 451.191 538.108 458.594 548.204 462.62C558.577 466.757 567.946 473.461 577.625 479.259C579.712 480.509 580.98 483.148 583.08 484.354C591.275 489.059 599.706 493.351 607.938 497.995C611.599 500.061 614.709 503.644 618.572 504.697C625.641 506.624 628.739 510.505 628.025 517.685C627.955 517.702 628.072 517.644 628.758 517.605C634.871 520.704 632.828 525.307 631.075 529.186C628.711 534.413 625.495 539.256 622.645 544.263C622.645 544.263 622.6 544.2 622.113 544.195C618.19 546.942 614.754 549.694 611.318 552.446C611.318 552.446 611.335 552.569 610.751 552.524C608.814 552.752 607.265 552.688 606.137 553.346C593.401 560.782 580.762 568.386 568.014 575.801C565.073 577.513 561.641 578.395 558.739 580.158C552.679 583.839 547.045 588.264 540.838 591.652C524.193 600.739 507.301 609.369 490.59 618.335C485.248 621.201 471.027 621.576 467.707 617.677C462.267 611.289 456.715 604.64 457.364 595.303C457.83 588.605 458.677 581.909 458.702 575.209C458.837 539.323 458.768 503.437 458.764 467.551C458.764 465.455 458.567 463.347 458.718 461.264C459.162 455.142 459.118 448.895 460.417 442.948C461.973 435.828 471.971 429.089 479.345 429.323C485.394 429.514 491.435 429.949 497.479 430.276Z" fill="#FF8E02"/>
<path d="M497.144 429.885C491.435 429.949 485.394 429.514 479.345 429.323C471.971 429.089 461.973 435.828 460.417 442.949C459.118 448.895 459.162 455.142 458.718 461.264C458.567 463.348 458.764 465.455 458.764 467.551C458.768 503.437 458.837 539.323 458.702 575.209C458.677 581.909 457.83 588.605 457.364 595.304C456.715 604.64 462.267 611.289 467.707 617.677C471.027 621.576 485.248 621.202 490.59 618.335C507.301 609.369 524.193 600.739 540.838 591.652C547.045 588.264 552.679 583.84 558.739 580.158C561.641 578.395 565.073 577.513 568.014 575.801C580.762 568.386 593.401 560.782 606.137 553.346C607.265 552.688 608.814 552.752 610.7 552.489C595.738 561.879 580.341 571.425 564.725 580.599C544.861 592.268 524.835 603.662 504.84 615.107C501.409 617.071 497.852 618.852 494.234 620.448C472.472 630.047 455.167 618.981 454.713 595.029C454.453 581.286 454.646 567.533 454.644 553.785C454.641 523.026 454.597 492.267 454.699 461.509C454.712 457.352 455.011 453.088 455.962 449.06C461.247 426.687 475.929 419.733 497.144 429.885Z" fill="#F39927"/>
<path d="M623.105 544.164C625.495 539.256 628.711 534.413 631.075 529.186C632.828 525.307 634.871 520.704 628.764 517.612C628.2 517.6 628.213 517.61 628.213 517.61C628.739 510.505 625.641 506.624 618.572 504.697C614.709 503.644 611.599 500.061 607.938 497.995C599.706 493.351 591.275 489.059 583.08 484.354C580.98 483.148 579.712 480.509 577.625 479.259C567.946 473.461 558.578 466.757 548.204 462.62C538.108 458.594 530.757 451.191 521.892 445.222C538.482 453.949 555.193 463.008 571.704 472.419C586.628 480.926 601.333 489.816 616.131 498.543C617.331 499.25 618.543 499.946 619.679 500.747C639.073 514.419 640.208 527.122 623.105 544.164Z" fill="#F39927"/>
<path d="M516.395 441.12C511.031 438.598 505.436 435.677 499.773 432.26C505.191 434.75 510.678 437.736 516.395 441.12Z" fill="#F39927"/>
<path d="M672.329 251.817C663.027 252.19 653.089 252.398 642.69 252.26C652.05 251.827 661.872 251.74 672.329 251.817Z" fill="#153040"/>
<path d="M611.796 552.405C614.754 549.694 618.19 546.942 622.144 544.219C619.199 546.953 615.737 549.659 611.796 552.405Z" fill="#F39927"/>
<path d="M521.663 444.323C520.066 444.023 518.278 443.308 516.575 442.05C518.264 442.307 519.868 443.109 521.663 444.323Z" fill="#F39927"/>
<path d="M499.64 431.469C499.289 431.654 498.8 431.449 498.178 430.846C498.531 430.659 499.017 430.869 499.64 431.469Z" fill="#F39927"/>
<path d="M628.195 517.593C628.072 517.644 627.955 517.702 628.025 517.685C628.213 517.61 628.2 517.6 628.195 517.593Z" fill="#F39927"/>
</g>
<defs>
<clipPath id="clip0_34_88">
<rect width="1024" height="1024" fill="white"/>
</clipPath>
</defs>
</svg>
