<svg width="500" height="500" viewBox="0 0 500 500" fill="none" xmlns="http://www.w3.org/2000/svg">
<g clip-path="url(#clip0_3_557)">
<path d="M500 250C500 323.68 495.775 384.982 463.989 428.482C433.085 470.775 372.839 500 250 500C127.162 500 66.9161 470.775 36.0101 428.482C4.22436 384.982 0 323.68 0 250C0 176.548 5.22254 115.145 37.5153 71.6021C68.982 29.1738 129.357 0 250 0C370.643 0 431.019 29.1738 462.484 71.6021C494.778 115.145 500 176.548 500 250Z" fill="#036CA0"/>
<path d="M335.764 108.103C360.593 109.705 376.876 124.496 384.159 151.73C388.347 167.391 386.879 183.541 386.126 199.526C385.746 207.581 385.2 215.649 384.234 223.652C382.38 239.027 372.928 243.692 359.913 235.327C351.453 229.888 343.885 223.073 335.488 217.522C310.423 200.951 284.33 186.302 255.429 177.363C243.139 173.562 230.566 171.898 217.737 174.092C200.289 177.075 188.999 187.582 182.039 203.432C174.277 221.113 169.498 239.415 171.497 258.842C173.397 277.315 176.713 295.556 185.905 312.067C197.734 333.313 221.253 343.928 245.242 339.333C264.343 335.674 281.546 327.57 297.9 317.38C317.859 304.944 336.8 291.245 353.122 274.12C356.633 270.436 361.068 267.554 365.347 264.709C367.907 263.006 371.541 261.022 373.97 263.68C375.643 265.512 376.256 269.37 375.702 271.973C374.242 278.829 372.213 285.613 369.829 292.215C361.27 315.917 350.413 338.439 334.318 358.078C308.892 389.101 270.749 399.393 233.196 385.334C197.546 371.987 168.623 349.662 145.478 319.548C135.305 306.313 125.57 292.828 119.352 277.234C105.059 241.386 111.856 209.419 137.57 181.078C152.527 164.592 170.826 153.183 191.343 144.892C224.152 131.636 257.373 119.676 292.04 112.227C300.762 110.353 309.678 109.389 319.07 108.224C325.011 108.328 330.388 108.216 335.764 108.103Z" fill="white"/>
<path d="M240.821 204.563C240.821 204.563 240.996 204.536 241.133 204.811C241.535 205.198 241.8 205.309 242.064 205.42C242.064 205.42 241.962 205.457 242.03 205.681C245.126 207.485 248.152 209.065 251.179 210.645C251.179 210.645 251.219 210.792 251.163 211.009C252.073 211.614 253.041 212 254.008 212.387C254.008 212.387 253.98 212.421 254.013 212.666C258.824 215.879 262.802 219.884 268.264 222.062C273.876 224.3 278.945 227.927 284.181 231.064C285.31 231.74 285.996 233.168 287.133 233.82C291.566 236.366 296.128 238.688 300.581 241.2C302.562 242.318 304.244 244.257 306.334 244.826C310.159 245.869 311.835 247.969 311.449 251.853C311.41 251.862 311.474 251.831 311.845 251.81C315.152 253.486 314.047 255.977 313.098 258.075C311.82 260.903 310.08 263.523 308.538 266.232C308.538 266.232 308.513 266.198 308.25 266.195C306.127 267.681 304.269 269.17 302.41 270.659C302.41 270.659 302.419 270.726 302.103 270.702C301.055 270.825 300.217 270.79 299.607 271.146C292.716 275.169 285.878 279.283 278.982 283.295C277.39 284.221 275.534 284.698 273.963 285.652C270.685 287.644 267.637 290.037 264.279 291.871C255.274 296.787 246.134 301.456 237.093 306.307C234.203 307.857 226.51 308.06 224.714 305.951C221.77 302.494 218.767 298.897 219.118 293.846C219.37 290.222 219.828 286.599 219.842 282.974C219.915 263.56 219.877 244.145 219.875 224.73C219.875 223.595 219.769 222.455 219.85 221.328C220.091 218.016 220.067 214.636 220.77 211.419C221.612 207.567 227.021 203.921 231.01 204.047C234.282 204.151 237.551 204.386 240.821 204.563Z" fill="#FF9B00"/>
<path d="M240.643 204.352C237.554 204.386 234.286 204.151 231.013 204.048C227.024 203.921 221.615 207.567 220.773 211.419C220.07 214.636 220.094 218.016 219.854 221.328C219.772 222.456 219.878 223.596 219.878 224.73C219.881 244.145 219.918 263.56 219.845 282.975C219.832 286.599 219.373 290.222 219.121 293.846C218.77 298.897 221.774 302.495 224.717 305.951C226.513 308.06 234.207 307.857 237.097 306.307C246.138 301.456 255.277 296.787 264.282 291.871C267.64 290.038 270.688 287.644 273.966 285.652C275.537 284.698 277.393 284.221 278.985 283.295C285.882 279.283 292.719 275.169 299.61 271.146C300.22 270.79 301.058 270.825 302.079 270.683C293.984 275.763 285.654 280.927 277.205 285.891C266.458 292.204 255.624 298.368 244.806 304.56C242.95 305.623 241.026 306.586 239.069 307.45C227.295 312.643 217.932 306.656 217.687 293.698C217.546 286.262 217.65 278.822 217.65 271.384C217.648 254.743 217.624 238.102 217.679 221.461C217.686 219.212 217.848 216.905 218.363 214.726C221.222 202.622 229.165 198.859 240.643 204.352Z" fill="#FF9B00"/>
<path d="M308.789 266.178C310.082 263.523 311.822 260.903 313.101 258.075C314.05 255.977 315.155 253.486 311.851 251.813C311.546 251.807 311.553 251.812 311.553 251.812C311.837 247.968 310.161 245.868 306.337 244.826C304.247 244.256 302.564 242.318 300.583 241.2C296.13 238.687 291.569 236.366 287.135 233.82C285.999 233.167 285.313 231.74 284.184 231.064C278.947 227.927 273.879 224.3 268.266 222.062C262.804 219.884 258.827 215.879 254.031 212.649C263.007 217.371 272.048 222.272 280.98 227.363C289.054 231.966 297.01 236.775 305.016 241.497C305.665 241.879 306.321 242.256 306.936 242.689C317.428 250.086 318.042 256.958 308.789 266.178Z" fill="#FF9B00"/>
<path d="M251.057 210.43C248.155 209.065 245.128 207.485 242.064 205.637C244.996 206.984 247.964 208.599 251.057 210.43Z" fill="#FF9B00"/>
<path d="M335.422 108.014C330.39 108.215 325.013 108.328 319.387 108.253C324.451 108.019 329.764 107.972 335.422 108.014Z" fill="white"/>
<path d="M302.672 270.637C304.272 269.17 306.131 267.681 308.27 266.208C306.677 267.688 304.804 269.151 302.672 270.637Z" fill="#FF9B00"/>
<path d="M253.907 212.163C253.043 212 252.076 211.614 251.154 210.933C252.068 211.072 252.936 211.506 253.907 212.163Z" fill="#FF9B00"/>
<path d="M241.99 205.209C241.8 205.309 241.536 205.198 241.199 204.871C241.39 204.77 241.653 204.884 241.99 205.209Z" fill="#FF9B00"/>
<path d="M311.543 251.803C311.476 251.831 311.413 251.862 311.451 251.853C311.553 251.812 311.546 251.807 311.543 251.803Z" fill="#FF9B00"/>
</g>
<defs>
<clipPath id="clip0_3_557">
<rect width="500" height="500" fill="white"/>
</clipPath>
</defs>
</svg>
