<svg width="500" height="500" viewBox="0 0 500 500" fill="none" xmlns="http://www.w3.org/2000/svg">
<g clip-path="url(#clip0_7_137)">
<path d="M500 250C500 323.68 495.775 384.982 463.989 428.482C433.085 470.775 372.839 500 250 500C127.162 500 66.9161 470.775 36.0101 428.482C4.22436 384.982 0 323.68 0 250C0 176.548 5.22254 115.145 37.5153 71.6021C68.982 29.1738 129.357 0 250 0C370.643 0 431.019 29.1738 462.484 71.6021C494.778 115.145 500 176.548 500 250Z" fill="#701EB0"/>
<path d="M112.999 329.835C112.999 318.472 103.857 309.321 92.6781 309.321H82.601V350.168H92.6781C103.857 350.168 112.999 341.011 112.999 329.835ZM158.839 411.266H121.847L92.4784 370.51H82.601V411.179H50V289H96.703C123.627 289 145.603 307.308 145.603 329.835C145.603 343.574 137.178 355.845 124.356 363.353L158.839 411.266Z" fill="white"/>
<path d="M195.61 337.167C187.001 337.167 179.677 348.869 179.677 363.356C179.677 377.842 187.001 389.559 195.61 389.559C204.419 389.559 211.73 377.842 211.73 363.356C211.73 348.869 204.419 337.167 195.61 337.167ZM245.79 363.356C245.79 391.03 223.284 413.191 195.61 413.191C167.945 413.191 145.605 391.03 145.605 363.356C145.605 335.703 167.945 313.53 195.61 313.53C223.284 313.53 245.79 335.703 245.79 363.356Z" fill="white"/>
<path d="M322.29 315.557L284.736 353.106V315.433H252.141V411.178H284.736V372.34L323.943 411.178H364.969L315.146 361.349L356.414 320.096V376.916C356.414 395.781 367.759 413.19 396.329 413.19C409.892 413.19 422.339 405.498 428.388 398.538L443.044 411.178H450.001V315.557H417.406V365.374V377.466C413.735 383.873 408.621 387.901 400.717 387.901C392.697 387.901 389.018 383.146 389.018 367.94V363.927V315.557H322.29Z" fill="white"/>
</g>
<defs>
<clipPath id="clip0_7_137">
<rect width="500" height="500" fill="white"/>
</clipPath>
</defs>
</svg>
