<svg width="1024" height="1024" viewBox="0 0 1024 1024" fill="none" xmlns="http://www.w3.org/2000/svg">
<g clip-path="url(#clip0_34_70)">
<path d="M1023 512C1023 662.896 1014.35 788.442 949.25 877.53C885.957 964.148 762.574 1024 511 1024C259.427 1024 136.044 964.148 72.7486 877.53C7.6515 788.442 -1 662.896 -1 512C-1 361.57 9.69576 235.816 75.8314 146.641C140.275 59.748 263.922 0 511 0C758.077 0 881.726 59.748 946.168 146.641C1012.3 235.816 1023 361.57 1023 512Z" fill="white"/>
<g clip-path="url(#clip1_34_70)">
<mask id="mask0_34_70" style="mask-type:luminance" maskUnits="userSpaceOnUse" x="79" y="315" width="866" height="408">
<path d="M79.0034 722.504H945V315.347H79.0034V722.504Z" fill="white"/>
</mask>
<g mask="url(#mask0_34_70)">
<path d="M272.487 474.74C272.487 454.874 256.505 438.876 236.962 438.876H219.344V510.287H236.962C256.505 510.287 272.487 494.278 272.487 474.74ZM352.628 617.102H287.957L236.613 545.85H219.344V616.949H162.35V403.35H243.998C291.068 403.35 329.487 435.358 329.487 474.74C329.487 498.759 314.758 520.212 292.343 533.338L352.628 617.102Z" fill="#6C3C97"/>
<path d="M416.905 487.558C401.853 487.558 389.05 508.017 389.05 533.342C389.05 558.668 401.853 579.153 416.905 579.153C432.306 579.153 445.087 558.668 445.087 533.342C445.087 508.017 432.306 487.558 416.905 487.558ZM504.632 533.342C504.632 581.724 465.287 620.466 416.905 620.466C368.539 620.466 329.485 581.724 329.485 533.342C329.485 484.998 368.539 446.234 416.905 446.234C465.287 446.234 504.632 484.998 504.632 533.342Z" fill="#6C3C97"/>
<path d="M638.38 449.778L572.725 515.422V449.561H515.741V616.947H572.725V549.048L641.269 616.947H712.992L625.89 529.833L698.036 457.713V557.048C698.036 590.029 717.87 620.465 767.818 620.465C791.53 620.465 813.29 607.016 823.865 594.848L849.487 616.947H861.65V449.778H804.666V536.87V558.011C798.249 569.211 789.308 576.252 775.489 576.252C761.469 576.252 755.036 567.941 755.036 541.356V534.341V449.778H638.38Z" fill="#6C3C97"/>
</g>
</g>
</g>
<defs>
<clipPath id="clip0_34_70">
<rect width="1024" height="1024" fill="white"/>
</clipPath>
<clipPath id="clip1_34_70">
<rect width="700" height="217.816" fill="white" transform="translate(162 403)"/>
</clipPath>
</defs>
</svg>
