<svg width="1024" height="1024" viewBox="0 0 1024 1024" fill="none" xmlns="http://www.w3.org/2000/svg">
<g clip-path="url(#clip0_49_73)">
<path d="M1034 509C1034 659.896 1025.35 785.442 960.25 874.53C896.957 961.148 773.574 1021 522 1021C270.427 1021 147.044 961.148 83.7486 874.53C18.6515 785.442 10 659.896 10 509C10 358.57 20.6958 232.816 86.8314 143.641C151.275 56.748 274.922 -3 522 -3C769.077 -3 892.726 56.748 957.168 143.641C1023.3 232.816 1034 358.57 1034 509Z" fill="url(#paint0_linear_49_73)"/>
<path d="M353.5 236.5H346V244V527.5V798.5H333.5V224.5H688V798.5H676V244V236.5H668.5H353.5Z" stroke="black" stroke-width="15"/>
<path d="M578 162L352 231.5V797L578 864.5V162Z" fill="#554C41" stroke="#363029" stroke-width="5"/>
<circle cx="551" cy="508" r="16" fill="#CC9A04"/>
<circle cx="542.5" cy="508.5" r="17.5" fill="#F2B600"/>
</g>
<defs>
<linearGradient id="paint0_linear_49_73" x1="522" y1="245.5" x2="522" y2="823" gradientUnits="userSpaceOnUse">
<stop stop-color="#EDEBCA"/>
<stop offset="1" stop-color="#E1DFA5"/>
</linearGradient>
<clipPath id="clip0_49_73">
<rect width="1024" height="1024" fill="white"/>
</clipPath>
</defs>
</svg>
