<svg width="1024" height="1024" viewBox="0 0 1024 1024" fill="none" xmlns="http://www.w3.org/2000/svg">
<g clip-path="url(#clip0_4_2445)">
<path d="M1024 512C1024 662.896 1015.35 788.442 950.25 877.53C886.957 964.148 763.574 1024 512 1024C260.427 1024 137.044 964.148 73.7486 877.53C8.6515 788.442 0 662.896 0 512C0 361.57 10.6958 235.816 76.8314 146.641C141.275 59.748 264.922 0 512 0C759.077 0 882.726 59.748 947.168 146.641C1013.3 235.816 1024 361.57 1024 512Z" fill="url(#paint0_linear_4_2445)"/>
<path d="M452.137 787L356.351 691.436C355.063 696.852 351.985 701.675 347.617 705.125C343.248 708.575 337.844 710.45 332.278 710.447C325.564 710.427 319.13 707.75 314.382 703.001C309.635 698.251 306.958 691.815 306.938 685.099C306.984 679.544 308.877 674.162 312.318 669.802C315.759 665.442 320.553 662.351 325.943 661.017L237 572.044C265.575 543.887 304.114 528.166 344.224 528.305C384.333 528.445 422.762 544.433 451.141 572.788C479.519 601.142 495.548 639.566 495.734 679.689C495.921 719.811 480.25 758.382 452.137 787Z" fill="black" fill-opacity="0.8"/>
<path d="M774.457 506.137L699.958 431.612L721.75 409.812C730.997 400.521 736.189 387.943 736.189 374.831C736.189 361.72 730.997 349.142 721.75 339.85L684.247 302.334C674.909 293.081 662.296 287.889 649.151 287.889C636.007 287.889 623.394 293.081 614.055 302.334L592.516 323.881L517.763 249.356C509.822 241.443 499.07 237 487.862 237C476.653 237 465.902 241.443 457.961 249.356L362.429 344.92C354.519 352.864 350.077 363.619 350.077 374.831C350.077 386.044 354.519 396.799 362.429 404.743L437.182 479.521L433.381 483.07C428.746 487.665 425.066 493.134 422.555 499.16C420.045 505.186 418.752 511.649 418.752 518.178C418.752 524.706 420.045 531.17 422.555 537.195C425.066 543.221 428.746 548.69 433.381 553.285L452.132 572.043L470.884 590.801C480.17 600.058 492.744 605.256 505.853 605.256C518.962 605.256 531.537 600.058 540.823 590.801L544.624 586.999L619.123 661.524C627.094 669.477 637.893 673.943 649.151 673.943C660.409 673.943 671.208 669.477 679.179 661.524L774.457 566.213C778.431 562.285 781.585 557.608 783.738 552.452C785.891 547.295 787 541.763 787 536.175C787 530.587 785.891 525.055 783.738 519.899C781.585 514.742 778.431 510.065 774.457 506.137ZM392.33 374.831L487.862 279.267L562.362 354.046L467.083 449.356L392.33 374.831ZM649.278 631.613L574.525 557.088L670.057 461.524L744.556 536.048L649.278 631.613Z" fill="black" fill-opacity="0.8"/>
</g>
<defs>
<linearGradient id="paint0_linear_4_2445" x1="512" y1="0" x2="512" y2="1024" gradientUnits="userSpaceOnUse">
<stop stop-color="#03E6F7"/>
<stop offset="1" stop-color="#09E6BF"/>
</linearGradient>
<clipPath id="clip0_4_2445">
<rect width="1024" height="1024" fill="white"/>
</clipPath>
</defs>
</svg>
