<svg width="500" height="500" viewBox="0 0 500 500" fill="none" xmlns="http://www.w3.org/2000/svg">
<g clip-path="url(#clip0_7_16)">
<path d="M500 250C500 323.68 495.775 384.982 463.989 428.482C433.085 470.775 372.839 500 250 500C127.162 500 66.9161 470.775 36.0101 428.482C4.22436 384.982 0 323.68 0 250C0 176.548 5.22254 115.145 37.5153 71.6021C68.982 29.1738 129.357 0 250 0C370.643 0 431.019 29.1738 462.484 71.6021C494.778 115.145 500 176.548 500 250Z" fill="url(#paint0_linear_7_16)"/>
<path d="M239.711 330.529C228.5 327.5 197.996 311.608 190.948 302.148L166.376 375.293H260.093C256.131 375.293 244.854 345.45 239.711 330.529Z" fill="black"/>
<path d="M255.14 199.288L282.189 183.097C275.141 176.049 286.184 166.525 292.851 173.192C299.517 179.859 289.236 190.145 282.189 183.097L266.569 211.098L255.14 199.288Z" fill="black"/>
<path d="M350 310.148L161.614 125C153.233 125 127.251 235.26 197.996 290.338C258.183 337.196 321.11 325.323 350 310.148Z" fill="black"/>
</g>
<defs>
<linearGradient id="paint0_linear_7_16" x1="250" y1="0" x2="250" y2="500" gradientUnits="userSpaceOnUse">
<stop stop-color="#01EFFD"/>
<stop offset="1" stop-color="#08BBFE"/>
</linearGradient>
<clipPath id="clip0_7_16">
<rect width="500" height="500" fill="white"/>
</clipPath>
</defs>
</svg>
