<svg width="500" height="500" viewBox="0 0 500 500" fill="none" xmlns="http://www.w3.org/2000/svg">
<g clip-path="url(#clip0_7_11)">
<path d="M500 250C500 323.68 495.775 384.982 463.989 428.482C433.085 470.775 372.839 500 250 500C127.162 500 66.9161 470.775 36.0101 428.482C4.22436 384.982 0 323.68 0 250C0 176.548 5.22254 115.145 37.5153 71.6021C68.982 29.1738 129.357 0 250 0C370.643 0 431.019 29.1738 462.484 71.6021C494.778 115.145 500 176.548 500 250Z" fill="url(#paint0_linear_7_11)"/>
<path d="M212.515 297.217L198.061 282.764V251.282L223.603 225.74L205.466 208L225 189.122L243.269 206.074L255.226 194.117C264.989 184.354 280.818 184.354 290.582 194.117L301.953 205.489C311.717 215.252 311.717 231.081 301.954 240.844L287.358 255.44L303.5 272L282.641 292.5L266.37 276.032L245.184 297.217H212.515Z" fill="#02322D"/>
<path d="M125 293.852L209.149 378.99C212.515 361.765 217.069 321.373 195.883 300.187C176.281 280.586 141.566 288.902 125 293.852Z" fill="#02322D"/>
<path d="M280.429 289.892L272.254 298.801C268.388 302.668 268.388 308.936 272.254 312.802L276.936 317.483M299 271.5L306.169 264.491C310.035 260.624 316.303 260.624 320.169 264.491L325.049 269.37M276.936 317.483L325.049 269.37M276.936 317.483L288.419 328.967M325.049 269.37L336.533 280.854M288.419 328.967L336.533 280.854M288.419 328.967L299.705 340.253M336.533 280.854L347.819 292.14M299.705 340.253L347.819 292.14M299.705 340.253L309.803 350.351M347.819 292.14L357.916 302.238M309.803 350.351L357.916 302.238M309.803 350.351L320.396 360.944M357.916 302.238L368.509 312.831M320.396 360.944L323.989 364.536C327.855 368.403 334.123 368.403 337.989 364.536L372.102 330.424C375.968 326.557 375.968 320.289 372.102 316.423L368.509 312.831M320.396 360.944L368.509 312.831M226.5 192.5L230.719 188.645C234.585 184.779 234.585 178.51 230.719 174.644L226.037 169.963M208.5 210L194.824 223.351C190.958 227.218 184.69 227.218 180.824 223.351L176.736 219.264M176.736 219.264L166.44 208.968M176.736 219.264L201.387 194.613L226.037 169.963M226.037 169.963L215.741 159.667M166.44 208.968L155.55 198.078M166.44 208.968L191.091 184.317L215.741 159.667M215.741 159.667L204.852 148.777M155.55 198.078L145.254 187.782M155.55 198.078L180.201 173.428L204.852 148.777M204.852 148.777L194.556 138.481M145.254 187.782L134.464 176.991M145.254 187.782L169.905 163.132L194.556 138.481M194.556 138.481L183.765 127.69M134.464 176.991L130.673 173.201C126.807 169.335 126.807 163.067 130.673 159.2L148.323 141.55L165.974 123.9C169.84 120.033 176.108 120.033 179.974 123.9L183.765 127.69M134.464 176.991L159.114 152.341L183.765 127.69" stroke="#02322E" stroke-width="7"/>
</g>
<defs>
<linearGradient id="paint0_linear_7_11" x1="250" y1="0" x2="250" y2="500" gradientUnits="userSpaceOnUse">
<stop stop-color="#04E6F2"/>
<stop offset="1" stop-color="#08E6C5"/>
</linearGradient>
<clipPath id="clip0_7_11">
<rect width="500" height="500" fill="white"/>
</clipPath>
</defs>
</svg>
