<svg width="1024" height="1024" viewBox="0 0 1024 1024" fill="none" xmlns="http://www.w3.org/2000/svg">
<g clip-path="url(#clip0_4_2506)">
<path d="M1024 512C1024 662.896 1015.35 788.442 950.25 877.53C886.957 964.148 763.574 1024 512 1024C260.427 1024 137.044 964.148 73.7486 877.53C8.6515 788.442 0 662.896 0 512C0 361.57 10.6958 235.816 76.8314 146.641C141.275 59.748 264.922 0 512 0C759.077 0 882.726 59.748 947.168 146.641C1013.3 235.816 1024 361.57 1024 512Z" fill="url(#paint0_linear_4_2506)"/>
<path d="M395.364 627.636C301.758 529.942 301.758 374.877 395.364 279.227L743.773 627.636C648.123 721.242 493.058 721.242 395.364 627.636ZM395.364 627.636C318.83 627.636 256 696.157 256 767H534.727C534.727 740.544 526.133 719.756 511.5 697.318M708.932 256C693.531 256 678.761 262.118 667.871 273.008C656.981 283.898 650.864 298.668 650.864 314.068C650.864 329.469 656.981 344.239 667.871 355.129C678.761 366.018 693.531 372.136 708.932 372.136C724.332 372.136 739.102 366.018 749.992 355.129C760.882 344.239 767 329.469 767 314.068C767 298.668 760.882 283.898 749.992 273.008C739.102 262.118 724.332 256 708.932 256Z" fill="#022A33"/>
<path d="M395.364 627.636C301.758 529.942 301.758 374.877 395.364 279.227L743.773 627.636C648.123 721.242 493.058 721.242 395.364 627.636ZM395.364 627.636C318.83 627.636 256 696.157 256 767H534.727C534.727 740.544 526.133 719.756 511.5 697.318M581.182 441.818L674.091 348.909M708.932 256C693.531 256 678.761 262.118 667.871 273.008C656.981 283.898 650.864 298.668 650.864 314.068C650.864 329.469 656.981 344.239 667.871 355.129C678.761 366.018 693.531 372.136 708.932 372.136C724.332 372.136 739.102 366.018 749.992 355.129C760.882 344.239 767 329.469 767 314.068C767 298.668 760.882 283.898 749.992 273.008C739.102 262.118 724.332 256 708.932 256Z" stroke="#022A33" stroke-width="19"/>
</g>
<defs>
<linearGradient id="paint0_linear_4_2506" x1="512" y1="0" x2="512" y2="1024" gradientUnits="userSpaceOnUse">
<stop stop-color="#08EEFE"/>
<stop offset="1" stop-color="#08B4FE"/>
</linearGradient>
<clipPath id="clip0_4_2506">
<rect width="1024" height="1024" fill="white"/>
</clipPath>
</defs>
</svg>
