<svg width="1024" height="1024" viewBox="0 0 1024 1024" fill="none" xmlns="http://www.w3.org/2000/svg">
<g clip-path="url(#clip0_4_2545)">
<path d="M1024 512C1024 662.896 1015.35 788.442 950.25 877.53C886.957 964.148 763.574 1024 512 1024C260.427 1024 137.044 964.148 73.7486 877.53C8.6515 788.442 0 662.896 0 512C0 361.57 10.6958 235.816 76.8314 146.641C141.275 59.748 264.922 0 512 0C759.077 0 882.726 59.748 947.168 146.641C1013.3 235.816 1024 361.57 1024 512Z" fill="url(#paint0_linear_4_2545)"/>
<path fill-rule="evenodd" clip-rule="evenodd" d="M16.3541 292C3.11135 356.91 0 430.866 0 512C0 662.896 8.6515 788.442 73.7486 877.53C137.044 964.148 260.427 1024 512 1024C763.574 1024 886.957 964.148 950.25 877.53C1015.35 788.442 1024 662.896 1024 512C1024 430.866 1020.89 356.91 1007.65 292H16.3541Z" fill="#F6FEE2"/>
<rect x="104" y="515" width="49" height="49" rx="10" fill="#C4C4C4"/>
<rect x="232" y="515" width="49" height="49" rx="10" fill="#C4C4C4"/>
<rect x="360" y="515" width="49" height="49" rx="10" fill="#C4C4C4"/>
<rect x="488" y="515" width="49" height="49" rx="10" fill="#C4C4C4"/>
<rect x="616" y="515" width="49" height="49" rx="10" fill="#C4C4C4"/>
<rect x="744" y="515" width="49" height="49" rx="10" fill="#C4C4C4"/>
<rect x="872" y="515" width="49" height="49" rx="10" fill="#C4C4C4"/>
<rect x="104" y="656" width="49" height="49" rx="10" fill="#C4C4C4"/>
<rect x="232" y="656" width="49" height="49" rx="10" fill="#C4C4C4"/>
<rect x="360" y="656" width="49" height="49" rx="10" fill="#C4C4C4"/>
<rect x="488" y="656" width="49" height="49" rx="10" fill="#C4C4C4"/>
<rect x="616" y="656" width="49" height="49" rx="10" fill="#C4C4C4"/>
<rect x="744" y="656" width="49" height="49" rx="10" fill="#C4C4C4"/>
<rect x="872" y="656" width="49" height="49" rx="10" fill="#C4C4C4"/>
<rect x="104" y="797" width="49" height="49" rx="10" fill="#C4C4C4"/>
<rect x="232" y="797" width="49" height="49" rx="10" fill="#C4C4C4"/>
<rect x="360" y="797" width="49" height="49" rx="10" fill="#C4C4C4"/>
<rect x="488" y="797" width="49" height="49" rx="10" fill="#C4C4C4"/>
<rect x="616" y="797" width="49" height="49" rx="10" fill="#C4C4C4"/>
<rect x="360" y="374" width="49" height="49" rx="10" fill="#C4C4C4"/>
<rect x="488" y="374" width="49" height="49" rx="10" fill="#C4C4C4"/>
<rect x="616" y="374" width="49" height="49" rx="10" fill="#C4C4C4"/>
<rect x="744" y="374" width="49" height="49" rx="10" fill="#C4C4C4"/>
<rect x="872" y="374" width="49" height="49" rx="10" fill="#C4C4C4"/>
<circle cx="384.5" cy="539.5" r="48.5" fill="#FF1309"/>
</g>
<defs>
<linearGradient id="paint0_linear_4_2545" x1="512" y1="-131" x2="512" y2="206.5" gradientUnits="userSpaceOnUse">
<stop stop-color="#FF978C"/>
<stop offset="1" stop-color="#FE0A08"/>
</linearGradient>
<clipPath id="clip0_4_2545">
<rect width="1024" height="1024" fill="white"/>
</clipPath>
</defs>
</svg>
