<svg width="1024" height="1024" viewBox="0 0 1024 1024" fill="none" xmlns="http://www.w3.org/2000/svg">
<g clip-path="url(#clip0_54_1129)">
<g clip-path="url(#clip1_54_1129)">
<path d="M1021 512C1021 662.896 1012.35 788.442 947.25 877.53C883.957 964.148 760.574 1024 509 1024C257.427 1024 134.044 964.148 70.7486 877.53C5.6515 788.442 -3 662.896 -3 512C-3 361.57 7.69576 235.816 73.8314 146.641C138.275 59.748 261.922 0 509 0C756.077 0 879.726 59.748 944.168 146.641C1010.3 235.816 1021 361.57 1021 512Z" fill="#F2F4FF"/>
<path fill-rule="evenodd" clip-rule="evenodd" d="M181.76 248.32C400.213 248.32 618.665 248.32 837.12 248.32C837.12 260.266 837.12 272.213 837.12 284.16C618.665 284.16 400.213 284.16 181.76 284.16C181.76 272.213 181.76 260.266 181.76 248.32Z" fill="#686968"/>
<path fill-rule="evenodd" clip-rule="evenodd" d="M212.48 304.64C410.453 304.64 608.425 304.64 806.4 304.64C806.4 444.587 806.4 584.535 806.4 724.48C608.425 724.48 410.453 724.48 212.48 724.48C212.48 584.535 212.48 444.587 212.48 304.64Z" fill="#6A6A6A"/>
<path fill-rule="evenodd" clip-rule="evenodd" d="M243.2 335.36C420.694 335.36 598.185 335.36 775.68 335.36C775.68 454.826 775.68 574.295 775.68 693.76C598.185 693.76 420.694 693.76 243.2 693.76C243.2 574.295 243.2 454.826 243.2 335.36Z" fill="#F2F4FF"/>
<path fill-rule="evenodd" clip-rule="evenodd" d="M478.72 744.96C499.2 744.96 519.68 744.96 540.16 744.96C540.16 753.495 540.16 762.025 540.16 770.56C519.68 770.56 499.2 770.56 478.72 770.56C478.72 762.025 478.72 753.495 478.72 744.96Z" fill="#6F7070"/>
</g>
</g>
<defs>
<clipPath id="clip0_54_1129">
<rect width="1024" height="1024" fill="white"/>
</clipPath>
<clipPath id="clip1_54_1129">
<rect width="1024" height="1024" fill="white"/>
</clipPath>
</defs>
</svg>
