<svg width="1024" height="1024" viewBox="0 0 1024 1024" fill="none" xmlns="http://www.w3.org/2000/svg">
<g clip-path="url(#clip0_34_328)">
<path d="M1024 512C1024 662.896 1015.35 788.442 950.25 877.53C886.957 964.148 763.574 1024 512 1024C260.427 1024 137.044 964.148 73.7486 877.53C8.6515 788.442 0 662.896 0 512C0 361.57 10.6958 235.816 76.8314 146.641C141.275 59.748 264.922 0 512 0C759.077 0 882.726 59.748 947.168 146.641C1013.3 235.816 1024 361.57 1024 512Z" fill="url(#paint0_linear_34_328)"/>
<rect x="210" y="405" width="20" height="100" fill="white"/>
<rect x="240" y="332" width="427" height="360" rx="50" fill="white"/>
<path d="M814.5 363.5L682 448.5V559L814.5 642V363.5Z" fill="white"/>
</g>
<defs>
<linearGradient id="paint0_linear_34_328" x1="512" y1="0" x2="512" y2="1024" gradientUnits="userSpaceOnUse">
<stop stop-color="#0C56DF"/>
<stop offset="1" stop-color="#5843F8"/>
</linearGradient>
<clipPath id="clip0_34_328">
<rect width="1024" height="1024" fill="white"/>
</clipPath>
</defs>
</svg>
