<svg width="1024" height="1024" viewBox="0 0 1024 1024" fill="none" xmlns="http://www.w3.org/2000/svg">
<g clip-path="url(#clip0_49_95)">
<path d="M1021 512C1021 662.896 1012.35 788.442 947.25 877.53C883.957 964.148 760.574 1024 509 1024C257.427 1024 134.044 964.148 70.7486 877.53C5.6515 788.442 -3 662.896 -3 512C-3 361.57 7.69576 235.816 73.8314 146.641C138.275 59.748 261.922 0 509 0C756.077 0 879.726 59.748 944.168 146.641C1010.3 235.816 1021 361.57 1021 512Z" fill="url(#paint0_linear_49_95)"/>
<path d="M502.22 217.119C504.97 215.085 508.198 214 511.5 214C514.802 214 518.03 215.085 520.78 217.119C584.023 264.526 656.116 295.361 731.628 307.3C735.618 307.936 739.268 310.151 741.908 313.538C744.548 316.925 746.001 321.257 746 325.739V493.361C746 638.298 668.716 744.049 517.53 808.751C513.649 810.416 509.351 810.416 505.47 808.751C354.318 744.049 277 638.261 277 493.361V325.739C277.001 321.251 278.458 316.915 281.105 313.527C283.751 310.14 287.409 307.928 291.405 307.3C366.906 295.355 438.987 264.521 502.22 217.119Z" fill="white"/>
<line x1="510.5" y1="344.5" x2="510.5" y2="679.5" stroke="url(#paint1_linear_49_95)" stroke-width="19" stroke-linecap="round"/>
</g>
<defs>
<linearGradient id="paint0_linear_49_95" x1="509" y1="0" x2="509" y2="1024" gradientUnits="userSpaceOnUse">
<stop stop-color="#9082FF"/>
<stop offset="1" stop-color="#2F80FF"/>
</linearGradient>
<linearGradient id="paint1_linear_49_95" x1="501" y1="512" x2="500" y2="512" gradientUnits="userSpaceOnUse">
<stop stop-color="#7182FF"/>
<stop offset="1" stop-color="#5081FF"/>
</linearGradient>
<clipPath id="clip0_49_95">
<rect width="1024" height="1024" fill="white"/>
</clipPath>
</defs>
</svg>
