<svg width="1024" height="1024" viewBox="0 0 1024 1024" fill="none" xmlns="http://www.w3.org/2000/svg">
<g clip-path="url(#clip0_16_1235)">
<path d="M1021 512C1021 662.896 1012.35 788.442 947.25 877.53C883.957 964.148 760.574 1024 509 1024C257.427 1024 134.044 964.148 70.7486 877.53C5.6515 788.442 -3 662.896 -3 512C-3 361.57 7.69576 235.816 73.8314 146.641C138.275 59.748 261.922 0 509 0C756.077 0 879.726 59.748 944.168 146.641C1010.3 235.816 1021 361.57 1021 512Z" fill="white"/>
<path d="M596.895 534.561C625.918 604.212 652.573 634.184 666.161 646.024C672.133 651.204 679.062 648.348 680.84 645.802C707.573 607.024 731.914 525.156 747.694 460.642C750.84 447.668 762.283 451.082 761.995 464.211C761.505 512.183 753.465 567.436 744.358 619.566C733.026 684.323 718.671 743.935 699.355 775.752H460.686C456.728 755.952 467.003 743.223 483.294 737.708C498.394 732.517 543.131 743.646 543.131 743.646C529.619 718.698 525.683 690.449 535.613 674.262C543.052 662.156 566.96 657.253 584.32 660.299C587.109 660.788 587.165 659.276 584.786 657.976C541.439 634.252 519.411 664.679 517.153 679.321C514.573 696.34 515.375 702.011 517.364 717.487C459.385 721.988 437.835 691.75 431.597 680.243C430.495 678.364 429.339 678.953 429.439 681.69C430.207 697.708 431.485 741.556 426.548 757.509C422.222 771.772 415.884 775.752 415.884 775.752H308.042C308.42 766.636 312.823 748.371 330.237 744.023C350.876 738.864 353.933 739.677 362.374 717.053C371.081 693.705 376.829 664.157 383.369 615.395C388.984 573.884 397.035 531.471 399.705 517.741C400.293 514.784 399.56 513.817 396.88 514.695C389.462 517.13 369.524 521.321 324.677 518.118C268.599 514.106 261.293 473.304 262.05 446.768C283.856 435.685 369.09 397.629 411.525 351.659C413.692 347.69 417.507 342.722 409.134 342.143C401.96 341.62 401.984 340.576 327.757 337.874C326.879 337.829 325.777 337.24 327.101 336.307C337.144 329.058 383.769 297.107 440.059 282.288C466.802 275.25 475.721 282.288 476.899 298.13C477.644 308.347 476.311 321.543 475.343 334.994C474.53 346.245 486.841 344.5 488.831 338.185C488.831 338.185 508.291 281.865 536.391 260.875C552.782 248.669 578.414 243.832 587.922 252.149C574.455 271.593 561.367 300.887 557.83 323.488C555.651 337.085 553.26 358.786 551.649 373.428C550.103 388.102 543.942 395.639 541.551 402.777C539.182 409.914 543.131 418.82 548.479 427.958L596.895 534.561Z" fill="#00A9E0"/>
<path d="M421.658 403.206L388.465 405.107L414.186 426.152L405.801 458.292L433.712 440.35L461.689 458.292L453.272 426.152L478.992 405.107L445.778 403.206L433.712 372.245L421.658 403.206Z" fill="white"/>
</g>
<defs>
<clipPath id="clip0_16_1235">
<rect width="1024" height="1024" fill="white"/>
</clipPath>
</defs>
</svg>
