<svg width="500" height="500" viewBox="0 0 500 500" fill="none" xmlns="http://www.w3.org/2000/svg">
<g clip-path="url(#clip0_4_618)">
<path d="M500 250C500 323.68 495.775 384.982 463.989 428.482C433.085 470.775 372.839 500 250 500C127.162 500 66.9161 470.775 36.0101 428.482C4.22436 384.982 0 323.68 0 250C0 176.548 5.22254 115.145 37.5153 71.6021C68.982 29.1738 129.357 0 250 0C370.643 0 431.019 29.1738 462.484 71.6021C494.778 115.145 500 176.548 500 250Z" fill="#E4E9EB"/>
<path d="M299.907 180.717C301.643 182.033 303.828 182.607 305.986 182.314C308.143 182.02 310.096 180.883 311.418 179.152C314.144 175.542 313.443 170.39 309.827 167.644C292.486 154.457 271.77 147.477 249.916 147.477C228.255 147.477 207.68 154.341 190.414 167.326C186.795 170.042 186.036 175.191 188.78 178.825C189.427 179.687 190.238 180.414 191.166 180.963C192.094 181.511 193.122 181.872 194.189 182.023C195.257 182.174 196.343 182.113 197.387 181.843C198.431 181.574 199.412 181.101 200.273 180.451C214.564 169.668 231.988 163.857 249.887 163.906C268.122 163.906 285.405 169.747 299.881 180.717M250.401 182.332C235.756 182.345 221.551 187.347 210.126 196.515C208.431 197.882 207.347 199.866 207.11 202.031C206.873 204.196 207.503 206.368 208.862 208.069C211.71 211.574 216.867 212.167 220.419 209.311C228.9 202.445 239.49 198.72 250.398 198.764C261.095 198.72 271.491 202.302 279.892 208.928C283.462 211.717 288.624 211.069 291.415 207.517C294.216 203.931 293.595 198.779 290.005 195.981C278.611 187.043 264.915 182.332 250.401 182.332Z" fill="#00ADEE"/>
<path d="M177.699 152.918C199.074 138.207 224.147 130.429 250.195 130.429C276.178 130.429 301.196 138.151 322.544 152.784C323.434 153.394 324.434 153.822 325.489 154.045C326.544 154.267 327.633 154.279 328.692 154.081C329.752 153.882 330.762 153.476 331.665 152.886C332.567 152.296 333.345 151.534 333.953 150.643C336.521 146.905 335.558 141.793 331.822 139.252C307.797 122.753 279.33 113.946 250.192 114C220.803 114 192.522 122.771 168.395 139.375C167.507 139.986 166.747 140.767 166.16 141.672C165.572 142.576 165.169 143.588 164.973 144.649C164.776 145.71 164.79 146.8 165.015 147.855C165.239 148.911 165.668 149.911 166.279 150.801C166.89 151.69 167.67 152.45 168.574 153.038C169.478 153.625 170.489 154.029 171.55 154.226C172.61 154.422 173.698 154.408 174.753 154.184C175.808 153.959 176.811 153.529 177.699 152.918C173.964 155.488 177.699 152.918 177.699 152.918Z" fill="#00ADEE"/>
<path d="M200.321 318.462C198.586 317.146 196.4 316.572 194.243 316.866C192.085 317.159 190.132 318.296 188.811 320.027C186.085 323.637 186.785 328.789 190.401 331.535C207.743 344.722 228.458 351.702 250.312 351.702C271.973 351.702 292.549 344.839 309.814 331.853C313.433 329.137 314.192 323.988 311.449 320.355C310.801 319.492 309.991 318.765 309.062 318.216C308.134 317.668 307.107 317.307 306.039 317.156C304.972 317.005 303.885 317.066 302.841 317.336C301.797 317.606 300.817 318.079 299.956 318.728C285.664 329.512 268.24 335.322 250.341 335.273C232.106 335.273 214.823 329.432 200.347 318.462M249.828 316.847C264.473 316.834 278.677 311.832 290.103 302.664C291.798 301.297 292.882 299.314 293.119 297.148C293.356 294.983 292.726 292.812 291.367 291.11C288.518 287.605 283.361 287.012 279.809 289.869C271.328 296.734 260.739 300.459 249.831 300.415C239.134 300.459 228.738 296.877 220.336 290.251C216.767 287.462 211.604 288.11 208.814 291.662C206.012 295.249 206.634 300.401 210.224 303.199C221.617 312.136 235.314 316.847 249.828 316.847Z" fill="#00ADEE"/>
<path d="M322.527 346.261C301.152 360.972 276.079 368.75 250.032 368.75C224.048 368.75 199.031 361.027 177.682 346.395C176.793 345.785 175.792 345.356 174.737 345.134C173.682 344.911 172.594 344.899 171.534 345.098C170.475 345.297 169.465 345.703 168.562 346.293C167.659 346.883 166.882 347.645 166.274 348.536C163.705 352.274 164.668 357.385 168.404 359.926C192.429 376.426 220.896 385.232 250.035 385.178C279.424 385.178 307.704 376.408 331.831 359.804C332.72 359.192 333.48 358.412 334.067 357.507C334.654 356.602 335.058 355.59 335.254 354.529C335.45 353.468 335.436 352.379 335.212 351.324C334.988 350.268 334.558 349.267 333.947 348.378C333.337 347.489 332.557 346.729 331.653 346.141C330.748 345.553 329.737 345.15 328.677 344.953C327.617 344.756 326.528 344.771 325.474 344.995C324.419 345.219 323.416 345.649 322.527 346.261C326.263 343.69 322.527 346.261 322.527 346.261Z" fill="#00ADEE"/>
<path d="M115.909 260.002C115.909 261.703 116.551 262.998 117.674 263.886C118.721 264.695 120.168 265.183 121.776 265.183C124.345 265.183 127.079 264.374 127.079 261.379C127.079 254.581 101.284 260.002 101.284 243.579C101.284 232.737 112.453 229.579 121.211 229.579C130.375 229.579 141.142 231.684 142.106 242.932H126.918C126.755 241.555 126.193 240.585 125.312 239.854C124.431 239.124 123.221 238.803 121.938 238.803C119.045 238.803 117.196 239.692 117.196 241.796C117.196 247.702 143.794 243.735 143.794 259.596C143.794 268.419 136.563 274.403 121.132 274.403C111.489 274.403 100.882 271.409 100 260.003H115.908L115.909 260.002ZM146.607 229.647H160.183V236.176H146.607V229.647ZM146.607 238.986H160.183V273.423H146.607V238.986ZM163.771 238.982H176.109V245.947H176.242C178.134 240.56 181.463 237.994 186.751 237.994C187.336 237.994 187.926 238.13 188.512 238.19V251.863C187.6 251.73 186.617 251.472 185.705 251.472C180.161 251.472 177.35 254.099 177.35 261.525V273.421H163.774L163.771 238.982ZM191.402 229.647H204.981V236.176H191.402V229.647ZM191.402 238.986H204.981V273.423H191.402V238.986ZM245.515 273.419H232.918V268.356C229.524 273.088 226.181 274.404 220.581 274.404C213.139 274.404 208.311 269.806 208.311 259.947V238.982H221.887V257.581C221.887 262.31 223.519 263.821 226.784 263.821C230.696 263.821 231.939 260.864 231.939 255.542V238.982H245.515V273.419ZM259.879 262.724C259.879 264.1 260.401 265.153 261.313 265.876C262.163 266.535 263.337 266.929 264.642 266.929C266.715 266.929 268.949 266.272 268.949 263.84C268.949 258.323 247.993 262.725 247.993 249.383C247.993 240.577 257.069 238.013 264.183 238.013C271.628 238.013 280.371 239.708 281.158 248.854H268.835C268.702 247.739 268.247 246.95 267.54 246.357C266.832 245.765 265.856 245.507 264.804 245.507C262.449 245.507 260.95 246.228 260.95 247.938C260.95 252.734 282.555 249.513 282.555 262.395C282.555 269.56 276.681 274.421 264.16 274.421C256.329 274.421 247.711 271.992 246.996 262.725H259.92L259.879 262.724ZM315.253 250.954L329.801 273.205H311.156L305.207 261.066L299.102 273.205H280.617L295.726 251.032L281.824 230.805H300.387L305.693 241.406L311.319 230.805H329.64L315.253 250.954ZM330.846 230.806H346.197V237.119C348.287 233.884 352.088 229.601 358.114 229.601C365.084 229.601 369.299 232.83 371.309 237.362C374.929 232.266 378.095 229.604 384.19 229.604C394.786 229.601 400 236.556 400 248.125V273.207H383.289V251.576C383.289 245.344 382.884 242.837 378.465 242.837C373.768 242.853 373.802 247.115 373.802 252.211V273.168H357.088V251.576C357.088 245.344 356.726 242.957 352.27 242.841C347.68 242.711 347.562 247.127 347.562 252.222V273.178H330.846V230.806Z" fill="#005480"/>
</g>
<defs>
<clipPath id="clip0_4_618">
<rect width="500" height="500" fill="white"/>
</clipPath>
</defs>
</svg>
