<svg width="1024" height="1024" viewBox="0 0 1024 1024" fill="none" xmlns="http://www.w3.org/2000/svg">
<g clip-path="url(#clip0_1_27)">
<path d="M1023 512C1023 662.896 1014.35 788.442 949.25 877.53C885.957 964.148 762.574 1024 511 1024C259.427 1024 136.044 964.148 72.7486 877.53C7.6515 788.442 -1 662.896 -1 512C-1 361.57 9.69576 235.816 75.8314 146.641C140.275 59.748 263.922 0 511 0C758.077 0 881.726 59.748 946.168 146.641C1012.3 235.816 1023 361.57 1023 512Z" fill="#D13635"/>
<path opacity="0.961" fill-rule="evenodd" clip-rule="evenodd" d="M641.961 359.056C643.842 358.905 645.699 359.06 647.531 359.52C633.208 393.043 618.973 426.62 604.825 460.251C612.823 458.996 619.477 454.973 624.785 448.182C630.386 439.61 634.874 430.48 638.247 420.794C650.253 418.225 662.322 416.368 674.454 415.224C669.356 427.741 663.631 439.965 657.279 451.895C652.785 457.309 647.369 461.487 641.032 464.429C647.193 466.732 650.287 471.22 650.316 477.891C649.653 483.945 648.261 489.825 646.138 495.53C642.168 504.398 638.455 513.373 634.997 522.454C634.378 525.548 634.378 528.643 634.997 531.738C637.355 535.179 640.295 535.953 643.817 534.059C647.482 531.942 650.885 529.466 654.03 526.631C652.895 522.351 652.895 518.019 654.03 513.634C665.04 484.647 676.955 456.021 689.773 427.757C696.358 417.163 705.796 410.509 718.089 407.796C726.396 406.392 734.751 406.083 743.156 406.868C757.757 408.626 765.493 416.826 766.366 431.471C765.464 442.814 762.679 453.645 758.01 463.965C737.929 470.812 717.968 477.93 698.129 485.318C694.671 492.594 691.577 500.022 688.845 507.599C687.509 512.484 687.199 517.437 687.916 522.454C690.042 529.786 694.839 532.416 702.306 530.345C715.025 525.999 726.475 519.5 736.657 510.849C748.514 500.851 759.81 490.174 770.544 478.819C783.541 447.873 796.539 416.925 809.536 385.979C813.034 384.361 816.747 383.433 820.677 383.194C822.566 383.058 824.113 383.677 825.319 385.051C839.202 402.959 853.438 420.598 868.025 437.969C872.37 444.263 873.299 451.071 870.811 458.394C865.859 470.772 860.907 483.152 855.956 495.53C854.161 502.155 856.482 506.488 862.919 508.528C867.916 507.113 872.558 504.946 876.845 502.029C878.57 505.346 880.118 508.75 881.487 512.241C871.246 523.785 858.403 530.594 842.959 532.666C830.409 530.948 822.981 523.83 820.677 511.313C820.09 506.008 820.4 500.747 821.606 495.53C828.714 477.761 835.677 459.966 842.495 442.147C842.388 439.611 841.614 437.29 840.174 435.184C836.854 431.329 833.759 427.306 830.89 423.115C813.627 463.513 796.141 503.744 778.435 543.807C770.357 535.264 762.776 526.29 755.689 516.883C742.421 532.633 726.483 544.857 707.877 553.555C694.117 558.594 680.809 557.666 667.956 550.77C665.751 548.75 663.585 546.738 661.457 544.735C654.254 552.198 646.208 558.542 637.318 563.767C608.282 571.259 595.129 559.963 597.862 529.881C600.478 520.007 603.881 510.414 608.074 501.1C613.306 483.04 608.045 479.327 592.291 489.96C579.842 520.113 567.155 550.131 554.227 580.014C547.419 571.968 540.61 563.922 533.802 555.876C519.913 572.181 502.738 583.476 482.276 589.763C464.456 593.166 450.53 587.441 440.498 572.587C433.548 579.072 426.74 585.726 420.073 592.548C413.426 598.346 405.69 601.595 396.863 602.296C386.38 601.566 380.036 595.996 377.831 585.585C366.875 600.579 352.176 609.244 333.732 611.58C330.113 611.136 326.709 610.053 323.52 608.33C320.396 605.303 317.611 602.054 315.164 598.582C305.878 604.775 296.284 610.5 286.384 615.758C276.391 620.535 266.798 619.916 257.604 613.901C249.897 605.303 246.957 595.245 248.784 583.728C249.663 575.257 251.984 567.211 255.747 559.59C255.438 559.28 255.128 558.97 254.818 558.661C248.045 561.074 241.237 563.395 234.394 565.624C233.065 566.056 231.983 566.83 231.144 567.945C226.188 601.649 208.703 626.251 178.69 641.753C163.934 648.091 148.77 649.329 133.198 645.466C116.461 638.155 109.188 625.313 111.381 606.938C112.048 601.482 113.441 596.221 115.559 591.155C142.381 581.388 169.305 571.795 196.329 562.375C199.34 549.351 196.401 537.901 187.51 528.024C158.485 505.463 154.462 479.158 175.44 449.11C196.99 427.281 222.521 420.627 252.033 429.15C269.891 436.55 276.854 449.702 272.922 468.607C272.084 472.603 270.381 476.163 267.816 479.283C254.869 482.06 241.871 484.226 228.823 485.782C232.331 476.699 235.116 467.415 237.179 457.93C233.593 447.67 227.095 445.504 217.682 451.431C206.59 462.63 200.091 476.092 198.186 491.816C198.444 498.315 200.455 504.196 204.221 509.456C210.719 515.955 217.218 522.454 223.717 528.952C228.44 535.392 231.535 542.51 233.001 550.306C243.595 546.465 254.117 542.442 264.567 538.236C281.486 497.28 298.661 456.431 316.093 415.688C316.58 415.045 317.199 414.581 317.949 414.295C329.699 412.462 341.459 410.76 353.229 409.189C329.963 465.825 306.599 522.457 283.135 579.086C281.114 583.079 280.805 587.102 282.206 591.155C285.313 593.451 288.562 593.606 291.954 591.619C298.842 587.79 305.496 583.612 311.915 579.086C313.057 570.905 314.914 562.858 317.485 554.948C326.95 533.051 336.234 511.079 345.337 489.031C351.013 477.476 359.522 468.657 370.868 462.572C380.503 458.417 390.096 458.417 399.649 462.572C402.677 464.978 404.998 467.919 406.612 471.392C408.49 467.929 410.191 464.37 411.718 460.715C424.628 458.23 437.471 455.599 450.246 452.824C450.865 454.061 450.865 455.3 450.246 456.537C434.738 493.277 419.11 529.949 403.362 566.553C404.575 569.467 406.741 571.169 409.861 571.659C412.9 570.758 415.686 569.366 418.216 567.481C424.518 562.078 430.552 556.352 436.32 550.306C447.746 519.429 460.434 489.101 474.385 459.323C482.82 448.06 494.115 441.716 508.271 440.29C520.566 438.367 532.016 440.533 542.622 446.789C545.469 449.85 547.48 453.41 548.656 457.466C550.191 469.283 548.488 480.579 543.55 491.352C531.263 495.965 518.884 499.988 506.414 503.421C512.335 491.272 516.668 478.583 519.412 465.357C519.529 458.338 516.434 456.173 510.128 458.858C508.426 460.56 506.723 462.263 505.022 463.965C493.157 490.277 482.016 516.891 471.599 543.807C470.809 549.148 471.119 554.409 472.528 559.59C476.292 564.061 481.089 565.453 486.918 563.767C507.171 554.794 524.965 542.261 540.301 526.167C562.828 472.977 585.264 419.749 607.61 366.483C619.076 363.698 630.527 361.223 641.961 359.056ZM731.087 423.115C734.912 424.726 736.459 427.666 735.729 431.935C734.663 440.549 732.187 448.751 728.302 456.537C721.317 459.536 714.2 461.857 706.948 463.5C711.61 452.474 716.406 441.488 721.339 430.542C723.989 427.097 727.239 424.622 731.087 423.115ZM389.436 482.533C394.616 483.532 397.865 486.628 399.184 491.816C389.184 518.336 378.352 544.641 366.69 570.73C363.191 575.041 359.013 578.599 354.157 581.407C348.493 582.073 346.017 579.442 346.73 573.516C346.83 569.963 347.604 566.559 349.051 563.303C358.335 541.022 367.619 518.74 376.903 496.458C379.054 489.828 383.232 485.186 389.436 482.533ZM188.902 580.943C189.828 580.915 190.447 581.379 190.759 582.335C186.857 593.737 182.061 604.724 176.369 615.293C168.952 624.046 160.596 625.284 151.302 619.007C149.517 616.181 148.743 613.087 148.981 609.723C149.467 604.377 150.395 599.116 151.766 593.94C164.413 590.139 176.791 585.806 188.902 580.943Z" fill="white"/>
<path opacity="0.932" fill-rule="evenodd" clip-rule="evenodd" d="M871.275 600.439C884.967 598.704 896.263 603.037 905.161 613.437C916.463 635.227 911.357 651.784 889.843 663.106C868.256 668.638 853.557 661.056 845.744 640.36C843.065 619.692 851.575 606.386 871.275 600.439ZM874.06 615.294C889.732 615.977 895.767 624.023 892.164 639.432C887.418 649.87 879.835 652.5 869.418 647.323C863.298 641.654 861.287 634.691 863.383 626.434C865.282 620.979 868.84 617.265 874.06 615.294Z" fill="white"/>
<path opacity="0.923" fill-rule="evenodd" clip-rule="evenodd" d="M585.328 601.368C596.518 601.005 607.659 601.469 618.75 602.76C627.415 605.837 631.748 612.026 631.748 621.328C631.924 630.58 627.593 636.46 618.75 638.968C624.127 646.779 629.387 654.671 634.533 662.642C628.057 663.722 621.558 663.877 615.037 663.106C610.742 656.22 606.564 649.257 602.503 642.217C602.039 649.328 601.885 656.446 602.039 663.57C596.469 663.57 590.899 663.57 585.328 663.57C585.328 642.836 585.328 622.101 585.328 601.368ZM602.039 615.293C612.619 614.398 616.023 618.729 612.252 628.291C609.049 629.892 605.644 630.511 602.039 630.148C602.039 625.197 602.039 620.245 602.039 615.293Z" fill="white"/>
<path opacity="0.925" fill-rule="evenodd" clip-rule="evenodd" d="M670.741 601.368C678.575 600.796 686.158 601.415 693.486 603.225C700.271 623.271 707.234 643.231 714.375 663.106C708.496 663.726 702.615 663.726 696.736 663.106C695.447 659.656 694.519 656.097 693.951 652.43C686.189 652.123 678.453 652.432 670.741 653.358C669.376 656.652 668.448 660.057 667.955 663.571C662.076 663.571 656.195 663.571 650.316 663.571C657.124 642.837 663.933 622.102 670.741 601.368ZM681.881 614.366C684.7 622.523 687.176 630.879 689.309 639.432C684.347 639.586 679.396 639.431 674.454 638.968C677.433 630.925 679.908 622.725 681.881 614.366Z" fill="white"/>
<path opacity="0.936" fill-rule="evenodd" clip-rule="evenodd" d="M732.943 601.368C744.12 601.082 755.261 601.546 766.366 602.76C781.203 607.044 788.631 616.947 788.647 632.469C788.121 650.635 778.837 660.848 760.795 663.106C751.517 663.571 742.233 663.725 732.943 663.571C732.943 642.837 732.943 622.102 732.943 601.368ZM750.583 616.222C767.431 615.901 773.775 623.947 769.615 640.361C765.198 647.246 758.854 650.031 750.583 648.716C750.583 637.885 750.583 627.054 750.583 616.222Z" fill="white"/>
<path opacity="0.936" fill-rule="evenodd" clip-rule="evenodd" d="M808.144 601.368C814.023 601.368 819.904 601.368 825.783 601.368C825.783 622.102 825.783 642.836 825.783 663.57C819.904 663.57 814.023 663.57 808.144 663.57C808.144 642.836 808.144 622.102 808.144 601.368Z" fill="white"/>
</g>
<defs>
<clipPath id="clip0_1_27">
<rect width="1024" height="1024" fill="white"/>
</clipPath>
</defs>
</svg>
