<svg width="500" height="500" viewBox="0 0 500 500" fill="none" xmlns="http://www.w3.org/2000/svg">
<g clip-path="url(#clip0_7_185)">
<path d="M500 250C500 323.68 495.775 384.982 463.989 428.482C433.085 470.775 372.839 500 250 500C127.162 500 66.9161 470.775 36.0101 428.482C4.22436 384.982 0 323.68 0 250C0 176.548 5.22254 115.145 37.5153 71.6021C68.982 29.1738 129.357 0 250 0C370.643 0 431.019 29.1738 462.484 71.6021C494.778 115.145 500 176.548 500 250Z" fill="#F61C0D"/>
<path d="M328.218 295.158H282.801V305.972H321.009L333.264 330.843L346.421 296.78L361.38 330.843L373.815 296.78L379.402 305.972H425V295.158H383.728L373.815 273.531L361.38 302.728L346.421 273.531L333.264 305.972L328.218 295.158Z" fill="white"/>
<path opacity="0.961" fill-rule="evenodd" clip-rule="evenodd" d="M312.716 169.025C313.558 168.958 314.389 169.027 315.209 169.233C308.797 184.241 302.424 199.274 296.089 214.331C299.67 213.769 302.649 211.968 305.026 208.927C307.534 205.09 309.543 201.002 311.053 196.666C316.428 195.516 321.832 194.684 327.263 194.172C324.981 199.776 322.418 205.249 319.574 210.59C317.562 213.014 315.137 214.884 312.3 216.201C315.058 217.233 316.443 219.242 316.456 222.228C316.16 224.939 315.536 227.572 314.586 230.126C312.809 234.096 311.146 238.114 309.598 242.18C309.321 243.565 309.321 244.951 309.598 246.336C310.653 247.877 311.97 248.224 313.547 247.375C315.187 246.428 316.711 245.319 318.119 244.05C317.611 242.133 317.611 240.194 318.119 238.231C323.049 225.253 328.383 212.437 334.122 199.783C337.07 195.04 341.295 192.061 346.799 190.847C350.518 190.218 354.259 190.079 358.022 190.431C364.558 191.218 368.022 194.889 368.413 201.446C368.009 206.524 366.762 211.374 364.672 215.994C355.681 219.059 346.745 222.246 337.862 225.554C336.315 228.811 334.929 232.137 333.706 235.529C333.108 237.716 332.969 239.933 333.29 242.18C334.242 245.462 336.39 246.64 339.733 245.713C345.427 243.767 350.554 240.857 355.112 236.984C360.42 232.508 365.478 227.728 370.283 222.644C376.102 208.789 381.922 194.934 387.741 181.079C389.306 180.354 390.969 179.939 392.728 179.832C393.574 179.771 394.267 180.048 394.807 180.663C401.022 188.681 407.396 196.578 413.927 204.355C415.872 207.173 416.288 210.221 415.174 213.5C412.957 219.041 410.74 224.584 408.523 230.126C407.719 233.092 408.758 235.032 411.641 235.945C413.878 235.311 415.956 234.341 417.875 233.035C418.648 234.52 419.341 236.044 419.954 237.607C415.369 242.776 409.618 245.824 402.704 246.752C397.085 245.982 393.76 242.796 392.728 237.192C392.466 234.817 392.604 232.461 393.144 230.126C396.327 222.17 399.444 214.203 402.496 206.226C402.448 205.09 402.102 204.051 401.457 203.108C399.971 201.382 398.585 199.581 397.301 197.705C389.572 215.792 381.744 233.803 373.816 251.74C370.2 247.915 366.806 243.897 363.633 239.686C357.692 246.737 350.557 252.21 342.227 256.104C336.066 258.36 330.108 257.944 324.354 254.857C323.367 253.953 322.397 253.052 321.444 252.155C318.22 255.496 314.617 258.337 310.637 260.676C297.637 264.03 291.749 258.973 292.972 245.505C294.143 241.084 295.667 236.789 297.544 232.62C299.887 224.534 297.531 222.871 290.478 227.632C284.905 241.132 279.224 254.571 273.436 267.95C270.388 264.348 267.34 260.746 264.292 257.143C258.074 264.443 250.384 269.5 241.223 272.314C233.245 273.838 227.011 271.275 222.519 264.625C219.407 267.528 216.36 270.507 213.375 273.561C210.399 276.157 206.935 277.612 202.983 277.926C198.29 277.599 195.45 275.105 194.463 270.444C189.557 277.157 182.976 281.036 174.719 282.082C173.099 281.883 171.575 281.398 170.147 280.627C168.748 279.272 167.501 277.817 166.406 276.263C162.248 279.035 157.953 281.599 153.521 283.953C149.047 286.092 144.752 285.814 140.636 283.121C137.185 279.272 135.869 274.769 136.687 269.613C137.081 265.82 138.12 262.218 139.804 258.806C139.666 258.667 139.527 258.528 139.389 258.39C136.356 259.47 133.308 260.509 130.244 261.507C129.65 261.701 129.165 262.047 128.79 262.547C126.571 277.636 118.742 288.651 105.305 295.591C98.6989 298.428 91.9101 298.983 84.9383 297.253C77.4449 293.98 74.189 288.23 75.1705 280.004C75.4694 277.561 76.0929 275.206 77.041 272.938C89.0496 268.565 101.103 264.27 113.203 260.053C114.551 254.222 113.235 249.096 109.254 244.673C96.2594 234.573 94.4584 222.796 103.85 209.343C113.499 199.57 124.929 196.591 138.142 200.407C146.137 203.72 149.254 209.608 147.494 218.072C147.119 219.861 146.356 221.455 145.208 222.852C139.411 224.095 133.592 225.065 127.75 225.761C129.321 221.695 130.568 217.539 131.491 213.292C129.886 208.698 126.977 207.729 122.763 210.382C117.796 215.396 114.887 221.423 114.034 228.463C114.15 231.373 115.05 234.005 116.736 236.36C119.645 239.27 122.555 242.18 125.464 245.089C127.579 247.972 128.965 251.159 129.621 254.649C134.364 252.93 139.075 251.129 143.753 249.246C151.328 230.909 159.017 212.621 166.822 194.38C167.04 194.092 167.317 193.884 167.653 193.756C172.914 192.935 178.179 192.173 183.448 191.47C173.032 216.826 162.571 242.181 152.066 267.534C151.162 269.322 151.023 271.123 151.65 272.938C153.041 273.966 154.496 274.035 156.015 273.146C159.099 271.431 162.077 269.561 164.951 267.534C165.463 263.872 166.294 260.269 167.445 256.727C171.683 246.924 175.839 237.087 179.915 227.216C182.456 222.043 186.266 218.094 191.345 215.37C195.659 213.51 199.954 213.51 204.23 215.37C205.586 216.447 206.625 217.764 207.348 219.319C208.189 217.768 208.951 216.175 209.634 214.539C215.414 213.426 221.164 212.248 226.883 211.006C227.161 211.56 227.161 212.114 226.883 212.668C219.94 229.117 212.943 245.535 205.893 261.923C206.436 263.228 207.406 263.99 208.803 264.209C210.163 263.806 211.41 263.182 212.543 262.339C215.364 259.92 218.066 257.356 220.649 254.649C225.764 240.825 231.444 227.247 237.69 213.915C241.467 208.873 246.524 206.033 252.862 205.394C258.366 204.533 263.492 205.503 268.241 208.304C269.516 209.674 270.416 211.268 270.942 213.084C271.63 218.375 270.867 223.432 268.656 228.255C263.155 230.32 257.613 232.122 252.03 233.659C254.681 228.219 256.621 222.538 257.849 216.617C257.902 213.475 256.516 212.505 253.693 213.707C252.931 214.469 252.169 215.232 251.407 215.994C246.095 227.774 241.107 239.689 236.443 251.74C236.09 254.131 236.229 256.486 236.859 258.806C238.545 260.807 240.692 261.431 243.302 260.676C252.369 256.659 260.335 251.048 267.202 243.842C277.287 220.028 287.332 196.198 297.336 172.35C302.47 171.104 307.597 169.995 312.716 169.025ZM352.618 197.705C354.331 198.426 355.023 199.742 354.696 201.654C354.219 205.51 353.111 209.182 351.371 212.668C348.244 214.011 345.058 215.05 341.811 215.786C343.898 210.849 346.045 205.931 348.254 201.03C349.44 199.488 350.895 198.379 352.618 197.705ZM199.658 224.307C201.977 224.754 203.432 226.14 204.023 228.463C199.545 240.336 194.696 252.113 189.475 263.793C187.908 265.723 186.038 267.317 183.863 268.573C181.328 268.871 180.219 267.694 180.538 265.04C180.583 263.45 180.93 261.926 181.577 260.468C185.734 250.493 189.89 240.517 194.047 230.541C195.01 227.573 196.88 225.494 199.658 224.307ZM109.877 268.366C110.292 268.353 110.569 268.561 110.709 268.989C108.962 274.094 106.815 279.013 104.266 283.745C100.946 287.664 97.2046 288.218 93.0435 285.407C92.2442 284.142 91.898 282.757 92.0044 281.251C92.2218 278.858 92.6375 276.502 93.2514 274.185C98.9134 272.483 104.455 270.543 109.877 268.366Z" fill="white"/>
</g>
<defs>
<clipPath id="clip0_7_185">
<rect width="500" height="500" fill="white"/>
</clipPath>
</defs>
</svg>
