<svg width="1024" height="1024" viewBox="0 0 1024 1024" fill="none" xmlns="http://www.w3.org/2000/svg">
<g clip-path="url(#clip0_4_2822)">
<path d="M1027 504C1027 654.896 1018.35 780.442 953.25 869.53C889.957 956.148 766.574 1016 515 1016C263.427 1016 140.044 956.148 76.7486 869.53C11.6515 780.442 3 654.896 3 504C3 353.57 13.6958 227.816 79.8314 138.641C144.275 51.748 267.922 -8 515 -8C762.077 -8 885.726 51.748 950.168 138.641C1016.3 227.816 1027 353.57 1027 504Z" fill="white"/>
<circle cx="515.003" cy="500.995" r="26.1026" stroke="url(#paint0_linear_4_2822)" stroke-width="8"/>
<circle cx="515.003" cy="499.991" r="63.2291" transform="rotate(45 515.003 499.991)" stroke="url(#paint1_linear_4_2822)" stroke-width="8"/>
<circle cx="515.002" cy="500.994" r="100.356" transform="rotate(60 515.002 500.994)" stroke="url(#paint2_linear_4_2822)" stroke-width="8"/>
<circle cx="514.5" cy="500.493" r="138.987" stroke="url(#paint3_linear_4_2822)" stroke-width="8"/>
<circle cx="514.501" cy="502.5" r="173.103" transform="rotate(45 514.501 502.5)" stroke="url(#paint4_linear_4_2822)" stroke-width="8"/>
<circle cx="514.501" cy="500.493" r="215.247" transform="rotate(-15 514.501 500.493)" stroke="url(#paint5_linear_4_2822)" stroke-width="8"/>
<circle cx="515.003" cy="503.001" r="252.875" transform="rotate(60 515.003 503.001)" stroke="url(#paint6_linear_4_2822)" stroke-width="8"/>
<circle cx="514.5" cy="502.5" r="289.5" transform="rotate(-75 514.5 502.5)" stroke="url(#paint7_linear_4_2822)" stroke-width="8"/>
<rect x="195" y="283" width="640" height="440" rx="15" stroke="#A9A9AA" stroke-width="20"/>
<rect x="500" y="733" width="30" height="21" fill="#A9A9AA"/>
<rect x="340" y="754" width="350" height="25" fill="#A9A9AA"/>
<rect x="530" y="733" width="168" height="21" fill="white"/>
<rect x="332" y="733" width="168" height="21" fill="white"/>
<rect x="414" y="779" width="207" height="19" fill="white"/>
<rect x="319" y="209" width="384" height="64" fill="white"/>
</g>
<defs>
<linearGradient id="paint0_linear_4_2822" x1="515.003" y1="470.892" x2="520.179" y2="535.32" gradientUnits="userSpaceOnUse">
<stop stop-color="#EF6F60"/>
<stop offset="0.438413" stop-color="#81B370"/>
<stop offset="0.736928" stop-color="#5582BF"/>
<stop offset="1" stop-color="#8858A6"/>
</linearGradient>
<linearGradient id="paint1_linear_4_2822" x1="515.003" y1="432.762" x2="526.563" y2="576.65" gradientUnits="userSpaceOnUse">
<stop stop-color="#EF6F60"/>
<stop offset="0.438413" stop-color="#81B370"/>
<stop offset="0.736928" stop-color="#5582BF"/>
<stop offset="1" stop-color="#8858A6"/>
</linearGradient>
<linearGradient id="paint2_linear_4_2822" x1="515.002" y1="396.639" x2="532.946" y2="619.988" gradientUnits="userSpaceOnUse">
<stop stop-color="#EF6F60"/>
<stop offset="0.438413" stop-color="#81B370"/>
<stop offset="0.736928" stop-color="#5582BF"/>
<stop offset="1" stop-color="#8858A6"/>
</linearGradient>
<linearGradient id="paint3_linear_4_2822" x1="514.5" y1="357.505" x2="539.086" y2="663.537" gradientUnits="userSpaceOnUse">
<stop stop-color="#EF6F60"/>
<stop offset="0.438413" stop-color="#81B370"/>
<stop offset="0.736928" stop-color="#5582BF"/>
<stop offset="1" stop-color="#8858A6"/>
</linearGradient>
<linearGradient id="paint4_linear_4_2822" x1="514.501" y1="325.396" x2="544.953" y2="704.446" gradientUnits="userSpaceOnUse">
<stop stop-color="#EF6F60"/>
<stop offset="0.438413" stop-color="#81B370"/>
<stop offset="0.736928" stop-color="#5582BF"/>
<stop offset="1" stop-color="#8858A6"/>
</linearGradient>
<linearGradient id="paint5_linear_4_2822" x1="514.501" y1="281.246" x2="552.2" y2="750.494" gradientUnits="userSpaceOnUse">
<stop stop-color="#EF6F60"/>
<stop offset="0.438413" stop-color="#81B370"/>
<stop offset="0.736928" stop-color="#5582BF"/>
<stop offset="1" stop-color="#8858A6"/>
</linearGradient>
<linearGradient id="paint6_linear_4_2822" x1="515.003" y1="246.126" x2="559.171" y2="795.909" gradientUnits="userSpaceOnUse">
<stop stop-color="#EF6F60"/>
<stop offset="0.438413" stop-color="#81B370"/>
<stop offset="0.736928" stop-color="#5582BF"/>
<stop offset="1" stop-color="#8858A6"/>
</linearGradient>
<linearGradient id="paint7_linear_4_2822" x1="514.5" y1="209" x2="564.966" y2="837.17" gradientUnits="userSpaceOnUse">
<stop stop-color="#EF6F60"/>
<stop offset="0.438413" stop-color="#81B370"/>
<stop offset="0.736928" stop-color="#5582BF"/>
<stop offset="1" stop-color="#8858A6"/>
</linearGradient>
<clipPath id="clip0_4_2822">
<rect width="1024" height="1024" fill="white"/>
</clipPath>
</defs>
</svg>
