<svg width="1024" height="1024" viewBox="0 0 1024 1024" fill="none" xmlns="http://www.w3.org/2000/svg">
<g clip-path="url(#clip0_1_2)">
<path d="M1023 512C1023 662.896 1014.35 788.442 949.25 877.53C885.957 964.148 762.574 1024 511 1024C259.427 1024 136.044 964.148 72.7486 877.53C7.6515 788.442 -1 662.896 -1 512C-1 361.57 9.69576 235.816 75.8314 146.641C140.275 59.748 263.922 0 511 0C758.077 0 881.726 59.748 946.168 146.641C1012.3 235.816 1023 361.57 1023 512Z" fill="black"/>
<path d="M474.895 489.27V581.7H453.526V437.075L549.154 533.598V440.673H570.535V585.827L474.895 489.27ZM696.415 435C654.579 435 620.556 469.279 620.556 511.445C620.556 553.592 654.579 587.868 696.415 587.868C738.239 587.868 772.278 553.592 772.278 511.445C772.278 469.279 738.239 435 696.415 435ZM696.415 566.16C666.763 566.16 642.619 541.609 642.619 511.445C642.619 481.277 666.763 456.73 696.415 456.73C726.081 456.73 750.198 481.277 750.198 511.445C750.198 541.61 726.081 566.16 696.415 566.16ZM327.574 435C285.739 435 251.714 469.279 251.714 511.445C251.714 553.592 285.739 587.868 327.574 587.868C369.417 587.868 403.433 553.592 403.433 511.445C403.433 469.279 369.418 435 327.574 435ZM327.574 566.16C297.909 566.16 273.795 541.609 273.795 511.445C273.795 481.277 297.909 456.73 327.574 456.73C357.229 456.73 381.368 481.277 381.368 511.445C381.368 541.61 357.229 566.16 327.574 566.16ZM158.662 522.183L158.575 522.147C144.292 517.576 134.732 513.072 127.529 507.524C117.232 499.621 112 489.536 112 477.555C112 466.335 117.178 455.401 126.201 447.496C135.42 439.432 148.123 435 161.959 435C190.92 435 207.469 454.443 208.164 455.277L190.591 467.24C186.521 464.176 175.828 457.299 161.958 457.299C144.537 457.299 134.125 467.596 134.125 477.555C134.125 484.503 137.906 492.142 165.265 500.916L165.371 500.933C179.616 505.49 189.212 510.008 196.406 515.54C206.713 523.46 211.937 533.545 211.937 545.528C211.937 556.747 206.758 567.698 197.715 575.587C188.516 583.635 175.818 588.066 161.967 588.066C133.015 588.066 116.464 568.64 115.771 567.802L133.358 555.84C137.422 558.91 148.115 565.785 161.966 565.785C179.394 565.785 189.815 555.508 189.815 545.528C189.818 538.58 186.047 530.939 158.662 522.183ZM858.728 522.183L858.633 522.147C844.361 517.576 834.79 513.072 827.601 507.523C817.312 499.619 812.057 489.534 812.057 477.553C812.057 466.333 817.249 455.4 826.279 447.494C835.466 439.432 848.157 435 862.03 435C890.989 435 907.548 454.443 908.251 455.277L890.656 467.24C886.596 464.176 875.903 457.299 862.03 457.299C844.595 457.299 834.179 467.596 834.179 477.555C834.179 484.503 837.965 492.142 865.345 500.916L865.452 500.933C879.714 505.49 889.276 510.008 896.483 515.54C906.761 523.46 912 533.545 912 545.528C912 556.747 906.824 567.698 897.808 575.587C888.595 583.635 875.893 588.066 862.033 588.066C833.08 588.066 816.542 568.64 815.843 567.802L833.421 555.84C837.496 558.91 848.159 565.785 862.033 565.785C879.478 565.785 889.87 555.508 889.87 545.528C889.867 538.58 886.099 530.939 858.728 522.183Z" fill="url(#paint0_linear_1_2)"/>
</g>
<defs>
<linearGradient id="paint0_linear_1_2" x1="912" y1="435" x2="112" y2="435" gradientUnits="userSpaceOnUse">
<stop stop-color="#BB3428"/>
<stop offset="1" stop-color="#CD6735"/>
</linearGradient>
<clipPath id="clip0_1_2">
<rect width="1024" height="1024" fill="white"/>
</clipPath>
</defs>
</svg>
