<svg width="508" height="508" viewBox="0 0 508 508" fill="none" xmlns="http://www.w3.org/2000/svg">
<g clip-path="url(#clip0_3_555)" filter="url(#filter0_d_3_555)">
<path d="M504 250C504 323.68 499.775 384.982 467.989 428.482C437.085 470.775 376.839 500 254 500C131.162 500 70.9161 470.775 40.0101 428.482C8.22436 384.982 4 323.68 4 250C4 176.548 9.22254 115.145 41.5153 71.6021C72.982 29.1738 133.357 0 254 0C374.643 0 435.019 29.1738 466.484 71.6021C498.778 115.145 504 176.548 504 250Z" fill="url(#paint0_diamond_3_555)"/>
<path d="M110 250C110 170.511 174.511 106 254 106C333.489 106 398 170.511 398 250C398 329.489 333.489 394 254 394C174.511 394 110 329.489 110 250Z" stroke="#4B8301" stroke-width="12"/>
<path d="M315.148 321.387C312.608 321.387 311.035 320.6 308.677 319.209C270.935 296.467 227.023 295.5 183.656 304.391C181.298 304.996 178.213 305.963 176.459 305.963C170.592 305.963 166.902 301.306 166.902 296.407C166.902 290.177 170.592 287.213 175.128 286.246C224.664 275.298 275.289 276.266 318.475 302.092C322.164 304.451 324.342 306.568 324.342 312.072C324.342 317.576 320.048 321.387 315.148 321.387Z" fill="#4B8301"/>
<path d="M349.566 235.302C346.42 235.302 344.485 234.516 341.763 232.944C298.699 207.238 221.703 201.069 171.864 214.98C169.686 215.585 166.965 216.552 164.061 216.552C156.078 216.552 149.969 210.323 149.969 202.278C149.969 194.052 155.049 189.395 160.493 187.823C181.783 181.593 205.614 178.629 231.561 178.629C275.715 178.629 321.985 187.823 355.795 207.54C360.513 210.262 363.598 214.012 363.598 221.21C363.598 229.435 356.945 235.302 349.566 235.302Z" fill="#1F5202"/>
<path d="M330.935 281.27C327.79 281.27 325.673 279.879 323.496 278.73C285.694 256.351 229.323 247.339 179.181 260.948C176.278 261.734 174.706 262.52 171.984 262.52C165.512 262.52 160.25 257.258 160.25 250.786C160.25 244.314 163.395 240.02 169.625 238.266C186.44 233.548 203.617 230.04 228.778 230.04C268.032 230.04 305.956 239.778 335.835 257.56C340.734 260.464 342.669 264.214 342.669 269.476C342.609 276.008 337.528 281.27 330.935 281.27Z" fill="#265B01"/>
</g>
<defs>
<filter id="filter0_d_3_555" x="0" y="0" width="508" height="508" filterUnits="userSpaceOnUse" color-interpolation-filters="sRGB">
<feFlood flood-opacity="0" result="BackgroundImageFix"/>
<feColorMatrix in="SourceAlpha" type="matrix" values="0 0 0 0 0 0 0 0 0 0 0 0 0 0 0 0 0 0 127 0" result="hardAlpha"/>
<feOffset dy="4"/>
<feGaussianBlur stdDeviation="2"/>
<feComposite in2="hardAlpha" operator="out"/>
<feColorMatrix type="matrix" values="0 0 0 0 0 0 0 0 0 0 0 0 0 0 0 0 0 0 0.25 0"/>
<feBlend mode="normal" in2="BackgroundImageFix" result="effect1_dropShadow_3_555"/>
<feBlend mode="normal" in="SourceGraphic" in2="effect1_dropShadow_3_555" result="shape"/>
</filter>
<radialGradient id="paint0_diamond_3_555" cx="0" cy="0" r="1" gradientUnits="userSpaceOnUse" gradientTransform="translate(-2232 -2610) rotate(55.0544) scale(5563.04 3029.82)">
<stop stop-color="#88B005" stop-opacity="0"/>
<stop offset="0.939314" stop-color="#88B005"/>
</radialGradient>
<clipPath id="clip0_3_555">
<rect width="500" height="500" fill="white" transform="translate(4)"/>
</clipPath>
</defs>
</svg>
