<svg width="1024" height="1024" viewBox="0 0 1024 1024" fill="none" xmlns="http://www.w3.org/2000/svg">
<g clip-path="url(#clip0_12_377)">
<path d="M1024 512C1024 662.896 1015.35 788.442 950.25 877.53C886.957 964.148 763.574 1024 512 1024C260.427 1024 137.044 964.148 73.7486 877.53C8.6515 788.442 0 662.896 0 512C0 361.57 10.6958 235.816 76.8314 146.641C141.275 59.748 264.922 0 512 0C759.077 0 882.726 59.748 947.168 146.641C1013.3 235.816 1024 361.57 1024 512Z" fill="black"/>
<path d="M512 212C346.395 212 212 346.395 212 512C212 677.605 346.395 812 512 812C677.605 812 812 677.605 812 512C812 346.395 677.605 212 512 212Z" fill="#1ED760"/>
<path d="M703.854 481.879C697.564 481.879 693.693 480.306 688.249 477.161C602.12 425.75 448.128 413.411 348.451 441.234C344.096 442.444 338.653 444.379 332.846 444.379C316.878 444.379 304.661 431.919 304.661 415.831C304.661 399.379 314.822 390.065 325.709 386.919C368.29 374.46 415.951 368.532 467.846 368.532C556.153 368.532 648.693 386.919 716.314 426.355C725.749 431.798 731.919 439.298 731.919 453.694C731.919 470.145 718.612 481.879 703.854 481.879ZM666.354 574.056C660.064 574.056 655.83 571.274 651.475 568.976C575.87 524.218 463.128 506.194 362.846 533.411C357.04 534.984 353.895 536.556 348.451 536.556C335.507 536.556 324.983 526.032 324.983 513.089C324.983 500.145 331.274 491.556 343.733 488.048C377.362 478.613 411.717 471.597 462.04 471.597C540.548 471.597 616.395 491.073 676.153 526.637C685.951 532.444 689.822 539.944 689.822 550.468C689.701 563.532 679.54 574.056 666.354 574.056ZM633.814 653.411C628.733 653.411 625.588 651.839 620.87 649.056C545.386 603.573 457.564 601.637 370.83 619.419C366.112 620.629 359.943 622.564 356.435 622.564C344.701 622.564 337.322 613.25 337.322 603.452C337.322 590.992 344.701 585.064 353.774 583.129C452.846 561.234 554.096 563.169 640.467 614.823C647.846 619.54 652.201 623.774 652.201 634.782C652.201 645.79 643.612 653.411 633.814 653.411Z" fill="black"/>
</g>
<defs>
<clipPath id="clip0_12_377">
<rect width="1024" height="1024" fill="white"/>
</clipPath>
</defs>
</svg>
