<svg width="1024" height="1024" viewBox="0 0 1024 1024" fill="none" xmlns="http://www.w3.org/2000/svg">
<g clip-path="url(#clip0_4_3021)">
<path d="M1027 512C1027 662.896 1018.35 788.442 953.25 877.53C889.957 964.148 766.574 1024 515 1024C263.427 1024 140.044 964.148 76.7486 877.53C11.6515 788.442 3 662.896 3 512C3 361.57 13.6958 235.816 79.8314 146.641C144.275 59.748 267.922 0 515 0C762.077 0 885.726 59.748 950.168 146.641C1016.3 235.816 1027 361.57 1027 512Z" fill="#1063F5"/>
<path fill-rule="evenodd" clip-rule="evenodd" d="M704 227.84C714.24 227.84 724.48 227.84 734.72 227.84C734.72 234.666 734.72 241.493 734.72 248.32C715.566 252.936 705.326 246.109 704 227.84Z" fill="#679BF6"/>
<path fill-rule="evenodd" clip-rule="evenodd" d="M504.32 207.36C509.419 206.921 513.685 208.628 517.12 212.48C519.665 226.027 520.52 239.681 519.68 253.44C512.855 253.44 506.027 253.44 499.2 253.44C497.992 237.524 499.699 222.164 504.32 207.36Z" fill="#6FA0F6"/>
<path fill-rule="evenodd" clip-rule="evenodd" d="M284.16 227.84C294.4 227.84 304.64 227.84 314.88 227.84C313.553 246.109 303.313 252.936 284.16 248.32C284.16 241.493 284.16 234.666 284.16 227.84Z" fill="#73A2F6"/>
<path fill-rule="evenodd" clip-rule="evenodd" d="M335.36 238.08C354.275 240.806 365.368 251.046 368.64 268.8C365.766 271.472 362.353 273.179 358.4 273.92C350.771 269.738 343.091 265.471 335.36 261.12C329.073 253.49 329.073 245.81 335.36 238.08Z" fill="#76A5F6"/>
<path fill-rule="evenodd" clip-rule="evenodd" d="M668.16 238.08C679.091 236.273 685.916 240.539 688.64 250.88C682.015 261.509 672.63 269.189 660.48 273.92C653.926 273.339 649.661 269.926 647.68 263.68C654.628 255.05 661.453 246.516 668.16 238.08Z" fill="#6C9EF6"/>
<path fill-rule="evenodd" clip-rule="evenodd" d="M627.2 284.16C632.32 284.16 637.44 284.16 642.56 284.16C646.82 310.068 636.58 323.721 611.84 325.12C612.04 309.58 617.16 295.927 627.2 284.16Z" fill="#79A6F6"/>
<path fill-rule="evenodd" clip-rule="evenodd" d="M499.2 273.92C506.026 273.92 512.855 273.92 519.68 273.92C520.519 287.679 519.664 301.332 517.12 314.88C512 321.706 506.88 321.706 501.76 314.88C499.213 301.332 498.36 287.679 499.2 273.92Z" fill="#81ACF6"/>
<path fill-rule="evenodd" clip-rule="evenodd" d="M376.32 284.16C383.089 283.29 389.062 284.997 394.24 289.28C403.982 299.218 408.249 311.164 407.04 325.12C382.302 323.721 372.062 310.068 376.32 284.16Z" fill="#82ACF7"/>
<path fill-rule="evenodd" clip-rule="evenodd" d="M407.04 340.48C414.809 340.534 420.782 343.947 424.96 350.72C427.502 362.546 428.356 374.493 427.52 386.56C420.751 387.43 414.778 385.723 409.6 381.44C401.853 367.802 401 354.148 407.04 340.48Z" fill="#90B5F7"/>
<path fill-rule="evenodd" clip-rule="evenodd" d="M504.32 335.36C509.419 334.921 513.685 336.628 517.12 340.48C519.665 354.027 520.52 367.681 519.68 381.44C512.855 381.44 506.027 381.44 499.2 381.44C497.992 365.524 499.699 350.164 504.32 335.36Z" fill="#94B8F7"/>
<path fill-rule="evenodd" clip-rule="evenodd" d="M601.6 340.48C611.758 340.398 616.878 345.518 616.96 355.84C614.917 364.527 612.357 373.06 609.28 381.44C604.104 385.723 598.129 387.43 591.36 386.56C589.133 369.472 592.548 354.112 601.6 340.48Z" fill="#8BB2F7"/>
<path fill-rule="evenodd" clip-rule="evenodd" d="M258.56 407.04C270.985 407.158 282.931 409.718 294.4 414.72C298.683 419.898 300.39 425.871 299.52 432.64C285.867 432.64 272.214 432.64 258.56 432.64C258.56 424.107 258.56 415.574 258.56 407.04Z" fill="#A4C1F8"/>
<path fill-rule="evenodd" clip-rule="evenodd" d="M422.4 401.92C429.169 401.05 435.142 402.757 440.32 407.04C442.867 420.588 443.72 434.241 442.88 448C436.111 448.871 430.138 447.164 424.96 442.88C418.752 428.974 417.899 415.32 422.4 401.92Z" fill="#A2C1F8"/>
<path fill-rule="evenodd" clip-rule="evenodd" d="M504.32 396.8C509.419 396.361 513.685 398.068 517.12 401.92C519.665 415.467 520.52 429.121 519.68 442.88C512.855 442.88 506.027 442.88 499.2 442.88C497.992 426.964 499.699 411.604 504.32 396.8Z" fill="#A6C4F8"/>
<path fill-rule="evenodd" clip-rule="evenodd" d="M734.72 407.04C743.255 407.04 751.785 407.04 760.32 407.04C761.416 415.457 759.706 423.137 755.2 430.08C743.373 432.623 731.428 433.476 719.36 432.64C718.387 420.05 723.507 411.517 734.72 407.04Z" fill="#98BAF8"/>
<path fill-rule="evenodd" clip-rule="evenodd" d="M314.88 432.64C338.773 432.64 350.72 444.587 350.72 468.48C330.036 464.863 318.089 452.917 314.88 432.64Z" fill="#AFC9F9"/>
<path fill-rule="evenodd" clip-rule="evenodd" d="M581.12 401.92C592.051 400.113 598.876 404.379 601.6 414.72C598.641 423.994 596.081 433.381 593.92 442.88C588.744 447.163 582.769 448.87 576 448C574.792 432.084 576.497 416.724 581.12 401.92Z" fill="#9CBCF8"/>
<path fill-rule="evenodd" clip-rule="evenodd" d="M683.52 432.64C690.345 432.64 697.175 432.64 704 432.64C700.79 452.917 688.845 464.863 668.16 468.48C666.368 453.359 671.488 441.412 683.52 432.64Z" fill="#A6C4F8"/>
<path fill-rule="evenodd" clip-rule="evenodd" d="M360.96 478.72C367.729 477.85 373.702 479.557 378.88 483.84C385.035 494.989 387.595 506.935 386.56 519.68C372.266 519.926 362.879 513.101 358.4 499.2C355.435 491.886 356.289 485.06 360.96 478.72Z" fill="#B8CFF9"/>
<path fill-rule="evenodd" clip-rule="evenodd" d="M499.2 463.36C506.026 463.36 512.855 463.36 519.68 463.36C520.519 477.119 519.664 490.772 517.12 504.32C512 511.146 506.88 511.146 501.76 504.32C499.213 490.772 498.36 477.119 499.2 463.36Z" fill="#B8D0F9"/>
<path fill-rule="evenodd" clip-rule="evenodd" d="M432.64 468.48C457.002 471.151 463.828 483.951 453.12 506.88C446.546 510.381 440.573 509.528 435.2 504.32C432.657 492.494 431.804 480.547 432.64 468.48Z" fill="#B0CAF9"/>
<path fill-rule="evenodd" clip-rule="evenodd" d="M570.88 463.36C583.424 465.276 588.544 472.956 586.24 486.4C588.314 506.592 580.634 512.563 563.2 504.32C559.524 489.436 562.084 475.782 570.88 463.36Z" fill="#ADC8F9"/>
<path fill-rule="evenodd" clip-rule="evenodd" d="M642.56 478.72C653.491 476.912 660.316 481.179 663.04 491.52C658.734 508.159 648.494 517.545 632.32 519.68C631.209 504.726 634.619 491.073 642.56 478.72Z" fill="#B2CBF9"/>
<path fill-rule="evenodd" clip-rule="evenodd" d="M386.56 535.04C403.305 535.957 411.838 545.341 412.16 563.2C407.894 576 400.214 578.56 389.12 570.88C381.873 558.884 381.02 546.934 386.56 535.04Z" fill="#C5D8FB"/>
<path fill-rule="evenodd" clip-rule="evenodd" d="M504.32 524.8C509.419 524.36 513.685 526.07 517.12 529.92C519.665 543.468 520.52 557.123 519.68 570.88C512.855 570.88 506.027 570.88 499.2 570.88C497.992 554.962 499.699 539.602 504.32 524.8Z" fill="#CCDDFB"/>
<path fill-rule="evenodd" clip-rule="evenodd" d="M442.88 529.92C449.649 529.049 455.622 530.754 460.8 535.04C463.343 546.867 464.196 558.812 463.36 570.88C454.943 571.976 447.263 570.265 440.32 565.76C436.719 553.323 437.573 541.378 442.88 529.92Z" fill="#C7D8FB"/>
<path fill-rule="evenodd" clip-rule="evenodd" d="M616.96 535.04C627.891 533.233 634.716 537.498 637.44 547.84C636.083 560.819 630.113 570.204 619.52 576C611.84 575.145 607.575 570.88 606.72 563.2C609.674 553.472 613.089 544.087 616.96 535.04Z" fill="#C2D6FB"/>
<path fill-rule="evenodd" clip-rule="evenodd" d="M560.64 529.92C575.938 528.153 582.763 534.978 581.12 550.4C581.617 567.864 573.081 574.694 555.52 570.88C554.388 556.651 556.093 542.996 560.64 529.92Z" fill="#C3D6FB"/>
<path fill-rule="evenodd" clip-rule="evenodd" d="M499.2 591.36C506.026 591.36 512.855 591.36 519.68 591.36C520.519 605.117 519.664 618.772 517.12 632.32C512 639.145 506.88 639.145 501.76 632.32C499.213 618.772 498.36 605.117 499.2 591.36Z" fill="#DEE9FC"/>
<path fill-rule="evenodd" clip-rule="evenodd" d="M555.52 591.36C562.289 590.49 568.264 592.195 573.44 596.48C576.855 608.425 576.855 620.375 573.44 632.32C566.615 639.145 559.785 639.145 552.96 632.32C549.263 618.184 550.118 604.534 555.52 591.36Z" fill="#CADAFC"/>
<path fill-rule="evenodd" clip-rule="evenodd" d="M448 591.36C454.769 590.49 460.742 592.195 465.92 596.48C469.333 608.425 469.333 620.375 465.92 632.32C459.093 639.145 452.266 639.145 445.44 632.32C441.744 618.184 442.597 604.534 448 591.36Z" fill="#D6E3FC"/>
<path fill-rule="evenodd" clip-rule="evenodd" d="M606.72 596.48C618.957 597.427 624.077 604.252 622.08 616.96C623.324 629.361 618.204 637.891 606.72 642.56C593.51 627.625 593.51 612.265 606.72 596.48Z" fill="#CEDDFC"/>
<path fill-rule="evenodd" clip-rule="evenodd" d="M401.92 596.48C421.14 603.279 427.114 616.929 419.84 637.44C411.713 643.722 404.886 642.017 399.36 632.32C395.759 619.884 396.613 607.939 401.92 596.48Z" fill="#D2E0FC"/>
<path fill-rule="evenodd" clip-rule="evenodd" d="M407.04 663.04C413.809 662.17 419.782 663.874 424.96 668.16C428.373 680.105 428.373 692.055 424.96 704C418.133 710.825 411.306 710.825 404.48 704C400.784 689.864 401.637 676.214 407.04 663.04Z" fill="#E6EDFE"/>
<path fill-rule="evenodd" clip-rule="evenodd" d="M555.52 652.8C560.62 652.36 564.884 654.07 568.32 657.92C570.865 671.468 571.72 685.123 570.88 698.88C564.055 698.88 557.225 698.88 550.4 698.88C549.192 682.962 550.897 667.602 555.52 652.8Z" fill="#F3F6FE"/>
<path fill-rule="evenodd" clip-rule="evenodd" d="M448 657.92C454.826 657.92 461.654 657.92 468.48 657.92C468.48 671.575 468.48 685.225 468.48 698.88C461.654 698.88 454.826 698.88 448 698.88C448 685.225 448 671.575 448 657.92Z" fill="#F4F8FE"/>
<path fill-rule="evenodd" clip-rule="evenodd" d="M499.2 652.8C506.026 652.8 512.855 652.8 519.68 652.8C520.519 666.557 519.664 680.212 517.12 693.76C512 700.585 506.88 700.585 501.76 693.76C499.213 680.212 498.36 666.557 499.2 652.8Z" fill="#F4F8FE"/>
<path fill-rule="evenodd" clip-rule="evenodd" d="M596.48 663.04C603.249 662.17 609.224 663.874 614.4 668.16C617.815 680.105 617.815 692.055 614.4 704C607.575 710.825 600.745 710.825 593.92 704C590.223 689.864 591.078 676.214 596.48 663.04Z" fill="#EAF0FE"/>
<path fill-rule="evenodd" clip-rule="evenodd" d="M371.2 724.48C463.36 724.48 555.52 724.48 647.68 724.48C647.68 731.305 647.68 738.135 647.68 744.96C555.52 744.96 463.36 744.96 371.2 744.96C371.2 738.135 371.2 731.305 371.2 724.48Z" fill="#FDFEFE"/>
<path fill-rule="evenodd" clip-rule="evenodd" d="M432.64 760.32C487.253 760.32 541.865 760.32 596.48 760.32C581.325 822.144 542.07 845.184 478.72 829.44C447.376 817.111 432.016 794.071 432.64 760.32Z" fill="#FBFCFE"/>
</g>
<defs>
<clipPath id="clip0_4_3021">
<rect width="1024" height="1024" fill="white"/>
</clipPath>
</defs>
</svg>
