<svg width="1024" height="1024" viewBox="0 0 1024 1024" fill="none" xmlns="http://www.w3.org/2000/svg">
<g clip-path="url(#clip0_4_3104)">
<path d="M1024 512C1024 662.896 1015.35 788.442 950.25 877.53C886.957 964.148 763.574 1024 512 1024C260.427 1024 137.044 964.148 73.7486 877.53C8.6515 788.442 0 662.896 0 512C0 361.57 10.6958 235.816 76.8314 146.641C141.275 59.748 264.922 0 512 0C759.077 0 882.726 59.748 947.168 146.641C1013.3 235.816 1024 361.57 1024 512Z" fill="url(#paint0_linear_4_3104)"/>
<rect x="302.08" y="228.352" width="419.84" height="566.272" rx="40" fill="white"/>
<rect x="365.9" y="305.484" width="292.2" height="394.6" stroke="#8D10CE" stroke-width="15"/>
<rect x="499.712" y="728.064" width="20.48" height="20.48" fill="#8D10CE"/>
</g>
<defs>
<linearGradient id="paint0_linear_4_3104" x1="512" y1="0" x2="512" y2="1024" gradientUnits="userSpaceOnUse">
<stop offset="0.269876" stop-color="#71179F"/>
<stop offset="0.959599" stop-color="#9B0CE5"/>
</linearGradient>
<clipPath id="clip0_4_3104">
<rect width="1024" height="1024" fill="white"/>
</clipPath>
</defs>
</svg>
