<svg width="1024" height="1024" viewBox="0 0 1024 1024" fill="none" xmlns="http://www.w3.org/2000/svg">
<g clip-path="url(#clip0_1_21)">
<path d="M1023 512C1023 662.896 1014.35 788.442 949.25 877.53C885.957 964.148 762.574 1024 511 1024C259.427 1024 136.044 964.148 72.7486 877.53C7.6515 788.442 -1 662.896 -1 512C-1 361.57 9.69576 235.816 75.8314 146.641C140.275 59.748 263.922 0 511 0C758.077 0 881.726 59.748 946.168 146.641C1012.3 235.816 1023 361.57 1023 512Z" fill="#0B0B0B"/>
<path d="M312.124 312L212 412.124L312.124 512.247L412.247 412.124L312.124 312Z" fill="white"/>
<path d="M411.833 412.332L511.875 512.373L611.916 412.332L511.875 312.29L411.833 412.332Z" fill="white"/>
<path d="M411.833 612.415L511.875 712.457L611.916 612.415L511.875 512.373L411.833 612.415Z" fill="white"/>
<path d="M611.917 412.332L711.958 512.373L812 412.332L711.958 312.29L611.917 412.332Z" fill="white"/>
</g>
<defs>
<clipPath id="clip0_1_21">
<rect width="1024" height="1024" fill="white"/>
</clipPath>
</defs>
</svg>
