<svg width="500" height="500" viewBox="0 0 500 500" fill="none" xmlns="http://www.w3.org/2000/svg">
<g clip-path="url(#clip0_4_758)">
<path d="M500 250C500 323.68 495.775 384.982 463.989 428.482C433.085 470.775 372.839 500 250 500C127.162 500 66.9161 470.775 36.0101 428.482C4.22436 384.982 0 323.68 0 250C0 176.548 5.22254 115.145 37.5153 71.6021C68.982 29.1738 129.357 0 250 0C370.643 0 431.019 29.1738 462.484 71.6021C494.778 115.145 500 176.548 500 250Z" fill="#F89C20"/>
<path d="M277.112 193.408C278.122 194.489 283.898 194.572 289.759 194.947C293.736 195.201 298.73 195.644 302.477 196.068C315.691 197.564 327.66 200.058 336.138 205.294C341.612 208.675 344.533 211.694 346.859 216.93C350 223.997 349.102 234.217 347.481 240.825C346.878 243.895 340.501 266.632 337.384 276.357C334.255 286.121 323.421 316.75 316.441 324.398C310.2 331.236 305.718 334.454 289.511 333.29C283.346 332.638 272.736 331.699 266.57 331.047C266.009 331.364 264.813 335.747 264.573 336.76C263.51 341.278 263.222 348.504 263.512 354.157C263.603 355.95 263.782 358.013 264.021 359.527C265.367 360.252 267.963 360.571 270.213 360.997C273.067 361.263 277.679 361.664 280.529 361.929C284.879 362.425 287.778 361.607 291.593 363.171C296.053 365.002 299.077 368.011 300.914 372.492C301.584 374.129 304.237 381.754 303.772 383.742C303.518 384.829 302.615 385.861 301.831 386.444C298.521 388.9 291.03 390.425 285.222 389.086C275.124 386.756 265.95 382.954 257.629 378.707C254.811 377.272 252.157 376.077 249.519 374.513C248.75 374.056 247.097 373.177 246.6 372.618C246.207 372.178 247.869 368.438 248.277 367.46C249.753 363.934 250.959 361.05 252.194 357.33C255.424 347.574 254.383 339.234 252.361 330.633C247.956 330.633 245.711 330.633 240.725 330.549C240.216 332.24 240.391 331.961 240.013 333.777C238.914 338.065 238.521 342.295 237.62 346.835C237.137 349.373 236.861 352.026 236.377 354.566C235.429 360.2 242.037 365.559 239.732 370.879C238.256 374.287 230.573 377.138 226.961 378.709C220.827 381.375 216.056 383.183 208.783 385.793C205.024 387.143 199.95 388.702 195.828 389.615C189.471 391.024 180.425 387.121 177.928 383.895C174.983 380.095 179.508 375.281 181.531 372.868C186.379 367.088 195.392 359.257 203.096 357.89C207.168 357.169 212.622 358.082 215.714 359.135C217.722 359.816 219.605 361.172 221.492 359.568C225.205 356.414 226.112 352.035 227.193 345.43C227.502 343.548 227.846 337.133 227.707 334.991C227.55 332.58 227.642 333.128 227.175 330.799C212.713 330.965 192.658 332.661 182.293 326.476C173.652 321.319 170.987 311.984 167.832 302.291C160.85 280.847 156.068 263.492 152.372 241.45C150.504 230.311 150 221.021 154.766 212.869C159.19 205.304 169.078 201.556 177.307 199.561C185.747 197.514 193.514 195.821 204.519 194.384C208.579 193.949 213.836 193.701 218.199 193.328C224.932 193.079 229.379 192.858 235.373 192.852C235.681 172.592 228.322 160.589 215.935 153.033C212.185 150.746 203.565 147.082 197.693 148.853C193.002 150.268 188.977 154.851 186.228 158.267C185.134 159.624 182.451 162.191 179.743 161.519C177.137 160.872 175.377 159.014 174.013 157.093C168.099 148.767 169.723 133.263 174.593 124.964C175.667 123.137 176.689 121.172 178.293 119.886C179.384 119.012 180.544 118.147 181.919 117.565C184.883 116.312 188.911 116.968 190.985 118.58C192.958 120.113 193.983 123.415 195.047 125.833C196.509 129.16 198.905 132.314 201.721 134.318C204.393 136.22 207.768 137.224 211.005 138.598C214.512 140.085 217.975 141.801 221.085 143.747C236.017 153.086 246.897 168.74 246.876 192.91C253.042 193.056 259.018 193.139 265.183 193.284L266.198 188.86C267.062 185.713 267.721 182.672 268.736 179.794C273.287 166.913 278.46 158.301 286.069 148.679L292.307 142.006C294.424 140.303 296.753 138.199 297.893 135.551C298.565 133.996 299.077 131.505 298.691 129.241C297.553 122.575 294.506 115.392 300.215 111.181C301.399 110.307 303.292 109.461 305.509 109.875L308.917 110.891C316.785 114.291 322.132 121.581 324.594 130.516C325.557 134.013 326.11 140.076 323.972 142.822C322.924 144.168 319.111 144.753 316.389 144.313C311.842 143.578 305.994 143.667 303.09 145.803C299.206 148.662 296.968 151.179 293.325 155.567C286.716 163.519 282.03 172.374 278.14 183.432C277.038 186.559 276.44 192.69 277.112 193.408Z" fill="black"/>
<path d="M180.059 225.75C181.736 225.514 187.728 225.396 194.551 224.198C200.176 223.225 205.936 222.886 209.173 223.005C212.404 223.124 215.157 223.124 215.519 225.158C215.878 227.19 216.116 229.588 215.519 230.79C214.923 231.985 214.321 232.464 212.166 232.943C210.008 233.431 205.151 234.034 203.415 234.976C202.059 235.72 201.238 239.92 200.787 243.366C199.829 250.551 200.707 257.29 201.028 263.738C201.243 268.274 203.061 272.6 201.985 274.875C201.159 276.596 198.764 278.301 195.753 277.753C193.114 277.272 192.043 274.995 191.202 270.563C190.361 266.131 191.078 252.474 191.202 250.433C191.323 248.401 190.963 241.572 189.881 239.531C188.806 237.497 187.728 234.974 185.929 235.223C184.134 235.456 179.816 235.81 177.783 234.141C176.062 232.736 174.552 231.148 175.508 229.111C176.468 227.073 178.382 225.993 180.059 225.75Z" fill="#ED1B2F"/>
<path d="M227.377 224.797C228.695 224.797 230.337 225.883 230.498 227.312C230.738 229.353 230.38 229.709 229.892 230.789C229.417 231.868 230.38 234.139 229.417 235.699C228.862 236.611 228.454 237.265 224.263 237.497C220.071 237.741 219.774 233.889 219.951 232.107C220.195 229.835 221.271 227.556 222.948 226.354C224.625 225.157 226.061 224.797 227.377 224.797ZM222.828 250.675C224.625 250.433 226.808 250.377 228.454 254.028C230.614 258.822 230.596 262.517 230.38 266.131C230.133 270.081 229.417 273.083 229.298 273.803C229.174 274.512 229.417 275.835 228.578 276.55C227.739 277.272 226.061 277.869 223.787 276.799C221.372 275.646 220.909 275.48 220.071 270.563C219.236 265.65 219.472 262.418 219.352 260.497C219.273 259.193 218.021 256.98 218.393 254.634C218.758 252.389 221.029 250.914 222.828 250.675Z" fill="#34B228"/>
<path d="M237.326 228.512C238.401 227.557 241.64 225.884 244.757 228.512C247.864 231.148 249.703 237.447 250.378 239.175C251.342 241.572 253.022 250.675 253.621 253.31C254.215 255.946 256.014 261.452 256.613 262.417C257.212 263.378 257.331 264.926 258.051 264.327C258.77 263.736 263.439 256.905 264.637 254.513C265.838 252.119 271.829 239.895 273.029 237.017C274.228 234.139 280.813 219.887 281.29 218.932C281.774 217.969 282.968 215.213 286.2 216.651C289.438 218.084 289.199 219.888 288.12 222.886C287.038 225.884 281.527 240.489 280.334 243.485C279.136 246.482 273.628 260.023 271.938 263.615C270.769 266.131 265.107 275.836 263.916 277.39C262.713 278.948 260.204 282.9 258.527 282.9C256.85 282.9 255.312 283.277 253.372 280.742C250.978 277.637 249.522 273.835 248.699 271.883C247.381 268.767 245.467 259.775 244.507 254.988C243.549 250.193 241.035 241.204 240.078 239.175C239.252 237.431 235.762 234.745 235.762 232.107C235.766 230.789 236.245 229.472 237.326 228.512Z" fill="#FFAA16"/>
<path d="M297.344 237.134C299.665 236.59 303.909 236.744 307.526 238.091C311.72 239.654 316.204 242.505 317.232 243.969C318.671 246.001 319.507 247.079 319.151 250.072C318.924 251.957 315.673 252.591 315.318 253.193C314.96 253.783 313.994 256.071 313.161 258.82C312.702 260.352 311.348 266.89 308.477 268.69C305.601 270.484 303.693 270.078 300.224 269.719C296.99 269.401 293.393 268.4 290.876 265.762C288.751 263.532 285.491 257.019 286.09 251.271C286.679 245.521 288.96 241.804 291.48 240.007C293.988 238.217 295.309 237.615 297.344 237.134ZM300.336 247.556C298.187 248.515 296.865 251.16 296.629 253.071C296.327 255.438 296.744 256.307 297.346 257.623C297.947 258.941 299.385 259.902 300.822 259.657C301.886 259.487 303.935 258.582 305.134 257.373C306.453 256.071 306.335 253.547 305.732 252.472C305.134 251.391 305.496 249.957 305.732 248.753C305.976 247.555 304.894 247.079 303.817 246.96C302.731 246.843 302.496 246.597 300.336 247.556Z" fill="#00A9E0"/>
<path d="M212.042 292.607C212.523 291.771 214.437 289.497 217.194 290.689C219.951 291.888 226.541 295.959 230.133 297.275C233.727 298.597 241.279 302.547 253.495 301.59C265.717 300.629 270.632 298.837 276.38 296.204C282.131 293.563 288.84 288.532 289.679 287.933C290.517 287.335 292.59 284.871 294.235 287.094C295.65 289.005 292.077 292.378 290.394 294.041C288.723 295.719 280.575 303.625 270.393 306.987C261.295 309.97 255.786 310.822 248.947 310.566C241.408 310.31 229.033 307.184 219.835 302.669C213.486 299.562 211.915 298.542 211.327 296.68C210.822 295.043 211.566 293.447 212.042 292.607Z" fill="white"/>
</g>
<defs>
<clipPath id="clip0_4_758">
<rect width="500" height="500" fill="white"/>
</clipPath>
</defs>
</svg>
