<svg width="500" height="500" viewBox="0 0 500 500" fill="none" xmlns="http://www.w3.org/2000/svg">
<g clip-path="url(#clip0_4_630)">
<path d="M500 250C500 323.68 495.775 384.982 463.989 428.482C433.085 470.775 372.839 500 250 500C127.162 500 66.9161 470.775 36.0101 428.482C4.22436 384.982 0 323.68 0 250C0 176.548 5.22254 115.145 37.5153 71.6021C68.982 29.1738 129.357 0 250 0C370.643 0 431.019 29.1738 462.484 71.6021C494.778 115.145 500 176.548 500 250Z" fill="#D6E0EA"/>
<path d="M296.509 150.453C296.509 176.624 275.455 197.852 249.513 197.852C223.553 197.852 202.518 176.633 202.518 150.453C202.49 124.273 223.507 103.018 249.467 103C275.418 102.973 296.481 124.173 296.509 150.353V150.453Z" fill="#389CD6"/>
<path d="M203.703 316.403H295.241V353.183C295.149 386.173 277.272 396.919 251.11 397.304H203.693L203.703 316.403Z" fill="#2F6476"/>
<path d="M305.275 297.872V261.916C307.381 235.132 317.175 214.097 353.9 213.291H387.001V247.206C385.444 275.391 373.929 296.545 335.51 298.696L305.275 297.872Z" fill="#2E8EAA"/>
<path d="M113.227 214.351H234.194C268.054 219.175 288.861 237.052 292.22 272.377V297.724H161.449C126.5 293.55 114.38 274.153 112 248.275L113.227 214.351Z" fill="#E86E2D"/>
</g>
<defs>
<clipPath id="clip0_4_630">
<rect width="500" height="500" fill="white"/>
</clipPath>
</defs>
</svg>
