<svg width="1024" height="1024" viewBox="0 0 1024 1024" fill="none" xmlns="http://www.w3.org/2000/svg">
<g clip-path="url(#clip0_4_3211)">
<path d="M1024 512C1024 662.896 1015.35 788.442 950.25 877.53C886.957 964.148 763.574 1024 512 1024C260.427 1024 137.044 964.148 73.7486 877.53C8.6515 788.442 0 662.896 0 512C0 361.57 10.6958 235.816 76.8314 146.641C141.275 59.748 264.922 0 512 0C759.077 0 882.726 59.748 947.168 146.641C1013.3 235.816 1024 361.57 1024 512Z" fill="url(#paint0_linear_4_3211)"/>
<circle cx="333.5" cy="511.5" r="144" stroke="#FFECED" stroke-width="37"/>
<line x1="334" y1="655.5" x2="690" y2="655.5" stroke="#FFECED" stroke-width="37"/>
<circle cx="689.5" cy="511.5" r="144" stroke="#FFECED" stroke-width="37"/>
</g>
<defs>
<linearGradient id="paint0_linear_4_3211" x1="512" y1="0" x2="512" y2="1024" gradientUnits="userSpaceOnUse">
<stop stop-color="#FE314B"/>
<stop offset="1" stop-color="#FE2C18"/>
</linearGradient>
<clipPath id="clip0_4_3211">
<rect width="1024" height="1024" fill="white"/>
</clipPath>
</defs>
</svg>
