<svg width="1024" height="1024" viewBox="0 0 1024 1024" fill="none" xmlns="http://www.w3.org/2000/svg">
<g clip-path="url(#clip0_4_3242)">
<path d="M1024 512C1024 662.896 1015.35 788.442 950.25 877.53C886.957 964.148 763.574 1024 512 1024C260.427 1024 137.044 964.148 73.7486 877.53C8.6515 788.442 0 662.896 0 512C0 361.57 10.6958 235.816 76.8314 146.641C141.275 59.748 264.922 0 512 0C759.077 0 882.726 59.748 947.168 146.641C1013.3 235.816 1024 361.57 1024 512Z" fill="#FE4208"/>
<rect x="192" y="269" width="640" height="440" rx="15" stroke="#EDDBD9" stroke-width="20"/>
<rect x="497" y="719" width="30" height="21" fill="#EDDBD9"/>
<rect x="337" y="740" width="350" height="25" fill="#EDDBD9"/>
<path d="M438.187 552C513.413 552 574.366 500.287 574.366 436.5C574.366 372.713 513.413 321 438.187 321C362.961 321 302.007 372.713 302.007 436.5C302.007 461.831 311.631 485.259 327.934 504.356C325.642 510.525 322.238 515.972 318.637 520.566C315.494 524.634 312.286 527.784 309.929 529.95C308.751 531 307.769 531.853 307.114 532.378C306.787 532.641 306.525 532.837 306.394 532.903L306.263 533.034C302.662 535.725 301.091 540.45 302.531 544.716C303.971 548.981 307.965 552 312.483 552C326.755 552 341.159 548.325 353.14 543.797C359.163 541.5 364.794 538.941 369.704 536.316C389.804 546.291 413.177 552 438.187 552ZM595.317 436.5C595.317 510.197 530.435 565.716 453.572 572.344C469.482 621.169 522.251 657 584.842 657C609.852 657 633.225 651.291 653.39 641.316C658.3 643.941 663.865 646.5 669.889 648.797C681.87 653.325 696.273 657 710.546 657C715.063 657 719.123 654.047 720.498 649.716C721.872 645.384 720.367 640.659 716.7 637.969L716.569 637.837C716.438 637.706 716.176 637.575 715.849 637.312C715.194 636.788 714.212 636 713.034 634.884C710.677 632.719 707.469 629.569 704.326 625.5C700.725 620.906 697.321 615.394 695.029 609.291C711.332 590.259 720.956 566.831 720.956 541.434C720.956 480.534 665.371 430.594 594.859 426.262C595.121 429.609 595.252 433.022 595.252 436.434L595.317 436.5Z" fill="#EDDBD9"/>
</g>
<defs>
<clipPath id="clip0_4_3242">
<rect width="1024" height="1024" fill="white"/>
</clipPath>
</defs>
</svg>
