<svg width="500" height="500" viewBox="0 0 500 500" fill="none" xmlns="http://www.w3.org/2000/svg">
<g clip-path="url(#clip0_4_799)">
<path d="M500 250C500 323.68 495.775 384.982 463.989 428.482C433.085 470.775 372.839 500 250 500C127.162 500 66.9161 470.775 36.0101 428.482C4.22436 384.982 0 323.68 0 250C0 176.548 5.22254 115.145 37.5153 71.6021C68.982 29.1738 129.357 0 250 0C370.643 0 431.019 29.1738 462.484 71.6021C494.778 115.145 500 176.548 500 250Z" fill="#1F2428"/>
<path d="M171.515 229.456C164.382 225.351 155.297 227.841 151.192 234.974L112.969 301.798L77.9754 235.445C74.1396 228.178 65.1221 225.419 57.8542 229.187C50.6537 233.023 47.8946 242.04 51.7304 249.308L99.3078 339.618C101.865 344.396 106.778 347.491 112.228 347.559C112.296 347.559 112.43 347.559 112.498 347.559C117.814 347.559 122.794 344.732 125.418 340.089L177.101 249.779C181.138 242.646 178.648 233.494 171.515 229.456Z" fill="#0080C5"/>
<path d="M435.042 227.505C426.832 227.505 420.17 234.167 420.17 242.377V287.532C420.17 304.221 406.576 317.814 389.887 317.814C380.399 317.814 371.987 313.44 366.401 306.643C363.508 316.805 358.326 326.024 351.529 333.696C361.96 342.377 375.352 347.626 389.887 347.626C422.996 347.626 449.914 320.708 449.914 287.599V242.444C449.981 234.167 443.319 227.505 435.042 227.505Z" fill="#0080C5"/>
<path d="M366.468 306.643C363.574 316.805 358.392 326.024 351.596 333.696C362.026 342.377 375.418 347.626 389.954 347.626V317.882C380.465 317.814 371.986 313.44 366.468 306.643Z" fill="url(#paint0_linear_4_799)"/>
<path d="M359.603 166.872C359.603 158.662 352.941 152 344.731 152C336.521 152 329.859 158.662 329.859 166.872V235.647C320.976 230.398 310.613 227.437 299.576 227.437C266.467 227.437 239.55 254.355 239.55 287.464C239.55 304.153 225.956 317.747 209.267 317.747C192.578 317.747 178.984 304.153 178.984 287.464V265.324L153.547 309.806C162.43 331.879 184.031 347.491 209.267 347.491C242.376 347.491 269.294 320.573 269.294 287.464C269.294 270.775 282.887 257.182 299.576 257.182C316.266 257.182 329.859 270.775 329.859 287.464C329.859 304.153 316.266 317.747 299.576 317.747C290.088 317.747 281.676 313.373 276.091 306.576C273.197 316.738 268.015 325.957 261.218 333.629C271.649 342.31 285.041 347.559 299.576 347.559C332.686 347.559 359.603 320.641 359.603 287.532V166.872Z" fill="#0080C5"/>
<path d="M276.091 306.643C273.197 316.805 268.016 326.024 261.219 333.696C271.649 342.377 285.041 347.626 299.577 347.626V317.882C290.155 317.814 281.676 313.44 276.091 306.643Z" fill="url(#paint1_linear_4_799)"/>
<path d="M178.984 287.532V265.392L153.547 309.873C162.43 331.946 184.031 347.558 209.267 347.558V317.814C192.578 317.814 178.984 304.221 178.984 287.532Z" fill="url(#paint2_linear_4_799)"/>
</g>
<defs>
<linearGradient id="paint0_linear_4_799" x1="351.535" y1="327.085" x2="389.909" y2="327.085" gradientUnits="userSpaceOnUse">
<stop stop-color="#035993"/>
<stop offset="1" stop-color="#0080C5"/>
</linearGradient>
<linearGradient id="paint1_linear_4_799" x1="261.219" y1="327.085" x2="299.593" y2="327.085" gradientUnits="userSpaceOnUse">
<stop stop-color="#035993"/>
<stop offset="1" stop-color="#0080C5"/>
</linearGradient>
<linearGradient id="paint2_linear_4_799" x1="153.558" y1="306.474" x2="209.277" y2="306.474" gradientUnits="userSpaceOnUse">
<stop stop-color="#04619A"/>
<stop offset="1" stop-color="#0080C5"/>
</linearGradient>
<clipPath id="clip0_4_799">
<rect width="500" height="500" fill="white"/>
</clipPath>
</defs>
</svg>
