<svg width="1024" height="1024" viewBox="0 0 1024 1024" fill="none" xmlns="http://www.w3.org/2000/svg">
<g clip-path="url(#clip0_34_389)">
<path d="M1023 512C1023 662.896 1014.35 788.442 949.25 877.53C885.957 964.148 762.574 1024 511 1024C259.427 1024 136.044 964.148 72.7486 877.53C7.6515 788.442 -1 662.896 -1 512C-1 361.57 9.69576 235.816 75.8314 146.641C140.275 59.748 263.922 0 511 0C758.077 0 881.726 59.748 946.168 146.641C1012.3 235.816 1023 361.57 1023 512Z" fill="#2D6DBE"/>
<g clip-path="url(#clip1_34_389)">
<path d="M317.316 352.758H281.999C276.078 352.834 270.807 356.533 268.728 362.079C268.693 362.407 268.693 362.737 268.728 363.066C255.458 401.015 243.832 433.59 230.451 471.539C226.942 481.63 223.541 491.612 219.482 501.591C219.211 502.472 218.571 503.192 217.728 503.565C216.191 503.565 216.191 502.467 215.863 501.481C207.672 477.791 199.338 454.137 190.856 430.519L166.617 361.64C166.689 361.389 166.689 361.125 166.617 360.872C164.161 355.909 159.103 352.764 153.566 352.756H117.81C114.917 352.456 112.33 354.555 112.028 357.448C111.926 358.435 112.104 359.434 112.545 360.325C133.091 417.724 153.638 475.013 174.184 532.193L178.351 544.036C184.367 561.4 200.776 573.002 219.152 572.883H223.869C231.799 572.51 239.686 571.482 247.45 569.812L262.04 528.244L322.691 360.653C322.96 360.013 323.18 359.352 323.35 358.679C323.734 355.798 321.706 353.152 318.822 352.77C318.397 352.713 317.966 352.708 317.537 352.758" fill="white"/>
<path d="M514.191 367.783C514.214 360.259 508.423 353.989 500.92 353.416H464.288V373.486C464.288 411.436 464.288 445.109 464.288 483.167C464.381 487.042 463.974 490.91 463.084 494.683C460.415 508.282 450.322 519.226 436.98 522.981C416.598 529.641 394.673 518.522 388.009 498.14C386.718 494.193 386.07 490.061 386.086 485.908C386.086 459.695 386.086 403.649 386.086 373.267V352.975C386.086 352.975 349.672 352.975 349.343 352.975C341.82 353.548 335.999 359.799 335.962 367.344V374.582C335.962 414.068 335.962 447.848 335.962 488.101C336.255 536.559 375.776 575.604 424.236 575.313C429.952 575.278 435.652 574.683 441.255 573.54C463.022 569.863 482.606 558.111 496.097 540.638C507.675 526.274 514.053 508.413 514.193 489.966C514.193 468.907 514.193 447.85 514.193 426.789V367.783H514.191Z" fill="white"/>
<path d="M912 367.783C911.967 360.277 906.208 354.04 898.727 353.416H861.985V373.486C861.985 411.436 861.985 445.109 861.985 483.167C862.026 487.038 861.619 490.904 860.78 494.683C858.064 508.26 847.992 519.179 834.676 522.981C814.378 529.702 792.471 518.701 785.746 498.403C784.412 494.375 783.747 490.153 783.782 485.908C783.782 459.695 783.782 403.649 783.782 373.267V352.975C783.782 352.975 747.368 352.975 746.931 352.975C739.45 353.601 733.689 359.838 733.66 367.344V374.582C733.66 414.068 733.66 447.848 733.66 488.101C733.954 536.559 773.47 575.604 821.93 575.313C827.649 575.278 833.348 574.683 838.95 573.54C860.719 569.863 880.299 558.111 893.791 540.638C905.418 526.3 911.801 508.424 911.887 489.966C911.887 468.907 911.887 447.85 911.887 426.789V367.781H912V367.783Z" fill="white"/>
<path d="M655.458 505.102C645.804 516.754 631.914 524.093 616.85 525.5C613.854 525.667 610.853 525.667 607.855 525.5H581.972C578.901 525.5 578.79 525.501 578.79 522.32V401.893C578.79 399.041 578.79 399.041 581.644 399.041C592.613 399.041 602.703 399.041 613.233 399.041C631.98 399.636 649.255 409.337 659.518 425.035C666.166 434.766 669.966 446.162 670.485 457.939C671.886 475.026 666.486 491.975 655.458 505.102ZM670.154 369.428C654.35 359.373 636.124 353.765 617.4 353.195C608.626 353.195 599.96 353.195 591.187 353.195H544.795C536.799 353.195 530.315 359.676 530.315 367.672V557.965C530.315 565.961 536.797 572.444 544.795 572.444H614.33C619.63 572.375 624.911 571.862 630.125 570.91C651.077 567.838 670.612 558.511 686.17 544.147C715.005 518.992 728.147 480.317 720.609 442.803C715.354 412.336 697.044 385.69 670.483 369.865" fill="white"/>
<path d="M753.074 602.06C733.949 602.847 719.085 619.319 719.87 638.443C720.66 657.57 736.801 672.432 755.926 671.647C774.613 670.877 789.318 655.419 789.158 636.718C789.527 618.106 774.859 602.657 756.252 602.06H753.074ZM772.705 638.144C772.329 642.432 770.559 646.48 767.66 649.658L766.564 650.645C758.628 658.124 746.135 657.75 738.656 649.816C731.178 641.88 731.549 629.383 739.487 621.906C747.423 614.428 759.918 614.801 767.395 622.737C767.411 622.753 767.428 622.77 767.438 622.784C770.626 626.106 772.498 630.472 772.703 635.068L772.705 638.144Z" fill="white"/>
<path d="M678.491 631.891V647.027H693.518V652.29C689.923 654.926 685.582 656.35 681.123 656.35C671.195 656.719 662.848 648.972 662.479 639.044C662.477 639.035 662.477 639.027 662.477 639.019C662.366 638.328 662.366 637.626 662.477 636.935C661.722 626.971 669.186 618.28 679.147 617.521H681.123C686.997 617.648 692.373 620.855 695.272 625.964L709.751 618.506C704.062 608.105 692.972 601.817 681.125 602.274C661.991 601.772 646.071 616.877 645.57 636.011C645.086 654.489 659.184 670.095 677.615 671.482H681.125C691.255 671.566 701 667.618 708.214 660.513C709.419 659.274 710.122 657.635 710.19 655.907V631.887H678.491V631.891Z" fill="white"/>
<path d="M628.038 603.815H626.612C622.895 604.148 620.018 607.213 619.922 610.945V640.56L592.83 603.817H574.843V670.612H592.063V632.224L620.361 670.612H636.92V603.817L628.038 603.815Z" fill="white"/>
<path d="M543.584 603.815H521.649L496.425 670.719H516.058L519.347 661.065H545.671L547.425 666.111C548.527 668.739 551.05 670.491 553.894 670.608H568.593L543.584 603.815ZM524.281 646.042L532.726 620.814L541.171 646.042H524.281Z" fill="white"/>
<path d="M462.093 603.815H433.904V663.7C434.13 667.563 437.275 670.614 441.145 670.721H462.093C480.538 671.777 496.347 657.684 497.404 639.237C498.46 620.789 484.367 604.983 465.922 603.924C464.646 603.852 463.367 603.852 462.093 603.924M462.093 655.8H451.125V618.508H462.093C471.568 618.009 479.658 625.271 480.19 634.741V636.715C480.19 646.65 472.139 655.8 462.202 655.8C462.167 655.8 462.292 655.745 462.257 655.745L462.422 655.581" fill="white"/>
<path d="M411.969 603.815C408.204 603.978 405.171 606.963 404.952 610.724V640.558L377.422 603.815H359.325V670.61H376.546V632.222L404.843 670.94H421.514V603.815H411.969Z" fill="white"/>
<path d="M328.615 603.815H306.679L281.453 670.61H301.523L304.814 660.959H331.358L333.112 666.004C334.224 668.638 336.729 670.421 339.583 670.61H354.282L328.615 603.815ZM309.199 646.042L317.863 620.814L326.2 646.042H309.199Z" fill="white"/>
<path d="M287.922 618.073V603.048H236.481V669.623H254.577V646.479H272.676C275.846 646.112 278.296 643.525 278.488 640.338V631.344H254.908V618.073H287.922Z" fill="white"/>
<path d="M221.345 634.305H125.375V639.569H221.345V634.305Z" fill="white"/>
<path d="M900.373 634.305H804.402V639.569H900.373V634.305Z" fill="white"/>
</g>
</g>
<defs>
<clipPath id="clip0_34_389">
<rect width="1024" height="1024" fill="white"/>
</clipPath>
<clipPath id="clip1_34_389">
<rect width="800" height="318.4" fill="white" transform="translate(112 353)"/>
</clipPath>
</defs>
</svg>
