<svg width="1024" height="1024" viewBox="0 0 1024 1024" fill="none" xmlns="http://www.w3.org/2000/svg">
<g clip-path="url(#clip0_34_395)">
<path d="M1023 512C1023 662.896 1014.35 788.442 949.25 877.53C885.957 964.148 762.574 1024 511 1024C259.427 1024 136.044 964.148 72.7486 877.53C7.6515 788.442 -1 662.896 -1 512C-1 361.57 9.69576 235.816 75.8314 146.641C140.275 59.748 263.922 0 511 0C758.077 0 881.726 59.748 946.168 146.641C1012.3 235.816 1023 361.57 1023 512Z" fill="url(#paint0_linear_34_395)"/>
<path d="M257.337 479.716L294.588 505.685L330.797 478.283L317.609 521.735L354.86 547.704L309.459 548.589L296.272 592.041L281.401 549.137L236 550.022L272.209 522.62L257.337 479.716Z" fill="url(#paint1_linear_34_395)"/>
<path d="M562.197 461L96 914.373L116.883 931L578 479.29L562.197 461Z" fill="#F3CD07"/>
<path d="M505.912 660.989L518.946 678.459L539.588 671.461L527.002 689.256L540.036 706.726L519.222 700.254L506.636 718.048L506.359 696.254L485.546 689.782L506.188 682.784L505.912 660.989Z" fill="#4CD964"/>
<path d="M584.012 140.094L610.567 176.929L653.805 163.056L626.979 199.694L653.533 236.529L610.399 222.338L583.573 258.975L583.741 213.567L540.606 199.375L583.844 185.503L584.012 140.094Z" fill="#FF402E"/>
<path d="M732.953 682.84L745.705 735.818L800.03 740.061L753.586 768.56L766.338 821.538L724.882 786.173L678.438 814.672L699.261 764.317L657.805 728.952L712.13 733.196L732.953 682.84Z" fill="#5AC8FA"/>
<path d="M749.764 284.421L683.795 413.892L786.544 516.641L643.025 493.91L577.056 623.38L554.325 479.861L410.805 457.13L540.276 391.161L517.545 247.641L620.293 350.39L749.764 284.421Z" fill="#F3CD07"/>
</g>
<defs>
<linearGradient id="paint0_linear_34_395" x1="511" y1="0" x2="511" y2="1024" gradientUnits="userSpaceOnUse">
<stop stop-color="#FF8D04"/>
<stop offset="0.801542" stop-color="#FF442B"/>
</linearGradient>
<linearGradient id="paint1_linear_34_395" x1="295" y1="607.5" x2="295" y2="276.5" gradientUnits="userSpaceOnUse">
<stop offset="0.0980342" stop-color="#E94162"/>
<stop offset="0.334808" stop-color="#99858C"/>
<stop offset="0.515556" stop-color="#B9697C"/>
</linearGradient>
<clipPath id="clip0_34_395">
<rect width="1024" height="1024" fill="white"/>
</clipPath>
</defs>
</svg>
