<svg width="1024" height="1024" viewBox="0 0 1024 1024" fill="none" xmlns="http://www.w3.org/2000/svg">
<g clip-path="url(#clip0_36_423)">
<path d="M1023 512C1023 662.896 1014.35 788.442 949.25 877.53C885.957 964.148 762.574 1024 511 1024C259.427 1024 136.044 964.148 72.7486 877.53C7.6515 788.442 -1 662.896 -1 512C-1 361.57 9.69576 235.816 75.8314 146.641C140.275 59.748 263.922 0 511 0C758.077 0 881.726 59.748 946.168 146.641C1012.3 235.816 1023 361.57 1023 512Z" fill="url(#paint0_linear_36_423)"/>
<path d="M485.816 318.832C486.357 317.053 486.533 315.184 486.335 313.336C486.136 311.487 485.567 309.698 484.661 308.075C483.756 306.453 482.532 305.03 481.063 303.891C479.595 302.753 477.912 301.924 476.115 301.452C474.318 300.98 472.445 300.876 470.608 301.147C468.77 301.417 467.006 302.056 465.42 303.025C463.835 303.994 462.462 305.273 461.383 306.786C460.303 308.298 459.54 310.014 459.139 311.829L450.198 346.162C449.55 349.596 450.226 353.149 452.092 356.104C453.957 359.059 456.873 361.197 460.251 362.085C463.629 362.973 467.218 362.547 470.294 360.891C473.37 359.236 475.705 356.475 476.827 353.165L485.816 318.832ZM391.694 392.069C368.34 398.555 347.41 411.776 331.512 430.084C315.614 448.392 305.452 470.978 302.291 495.027C299.131 519.075 303.112 543.523 313.739 565.322C324.366 587.122 341.169 605.309 362.052 617.618L369.244 578.13C374.103 525.268 420.897 512.43 480.228 511.7C486.448 485.391 504.233 465.988 534.068 453.879C521.009 428.799 499.749 408.961 473.838 397.676C447.927 386.392 418.932 384.344 391.694 391.875V392.069ZM381.538 313.92C380.435 310.53 378.07 307.696 374.934 306.007C371.797 304.317 368.131 303.902 364.697 304.847C361.263 305.793 358.324 308.026 356.493 311.083C354.661 314.14 354.076 317.786 354.861 321.263L364.288 355.304C364.7 357.133 365.479 358.858 366.576 360.376C367.674 361.895 369.068 363.175 370.674 364.139C372.28 365.102 374.065 365.73 375.92 365.984C377.776 366.238 379.663 366.113 381.469 365.616C383.275 365.119 384.961 364.26 386.426 363.093C387.89 361.925 389.103 360.472 389.991 358.821C390.878 357.171 391.422 355.358 391.59 353.491C391.757 351.625 391.544 349.743 390.965 347.961L381.538 313.92ZM288.679 361.918C286.073 359.479 282.622 358.149 279.055 358.208C275.488 358.268 272.083 359.712 269.561 362.237C267.038 364.762 265.594 368.169 265.535 371.739C265.475 375.309 266.804 378.763 269.242 381.37L294.461 406.269C297.106 408.477 300.481 409.615 303.922 409.459C307.363 409.304 310.622 407.866 313.058 405.428C315.493 402.991 316.93 399.73 317.085 396.286C317.241 392.842 316.104 389.465 313.898 386.817L288.63 361.918H288.679ZM232.312 449.842C228.768 448.914 225 449.432 221.838 451.283C218.676 453.135 216.378 456.167 215.45 459.714C214.523 463.261 215.041 467.032 216.89 470.196C218.74 473.361 221.771 475.66 225.315 476.589L259.621 485.489C261.398 486.03 263.265 486.206 265.112 486.008C266.959 485.809 268.747 485.239 270.368 484.333C271.99 483.426 273.412 482.201 274.549 480.732C275.686 479.262 276.515 477.578 276.986 475.78C277.458 473.982 277.561 472.107 277.291 470.268C277.021 468.429 276.383 466.663 275.415 465.077C274.447 463.49 273.169 462.116 271.657 461.036C270.145 459.955 268.431 459.192 266.618 458.79L232.312 449.842ZM227.453 554.252C223.922 555.226 220.922 557.564 219.113 560.751C217.304 563.939 216.834 567.715 217.807 571.249C218.78 574.782 221.116 577.785 224.301 579.595C227.486 581.406 231.259 581.875 234.79 580.902L268.804 571.467C270.562 570.992 272.21 570.174 273.652 569.061C275.094 567.948 276.303 566.562 277.21 564.981C279.042 561.789 279.532 558 278.571 554.447C277.611 550.893 275.28 547.867 272.091 546.034C268.901 544.201 265.115 543.711 261.564 544.672L227.55 554.106L227.453 554.252ZM275.413 647.137C273.207 649.784 272.07 653.161 272.225 656.605C272.381 660.049 273.818 663.31 276.253 665.748C278.689 668.185 281.947 669.623 285.388 669.779C288.83 669.935 292.204 668.797 294.85 666.589L319.729 641.301C321.935 638.653 323.072 635.276 322.916 631.832C322.761 628.388 321.324 625.127 318.889 622.69C316.453 620.252 313.194 618.814 309.753 618.658C306.312 618.503 302.937 619.641 300.292 621.849L275.413 647.137ZM573.671 375.243C576.108 372.635 577.437 369.182 577.378 365.612C577.318 362.042 575.875 358.635 573.352 356.11C570.829 353.585 567.424 352.14 563.857 352.081C560.29 352.021 556.839 353.352 554.234 355.791L529.403 381.03C527.931 382.259 526.73 383.781 525.879 385.5C525.027 387.219 524.542 389.097 524.456 391.013C524.369 392.93 524.682 394.844 525.376 396.633C526.069 398.422 527.128 400.046 528.483 401.403C529.839 402.76 531.462 403.819 533.25 404.513C535.037 405.207 536.949 405.52 538.865 405.434C540.78 405.347 542.656 404.862 544.373 404.01C546.091 403.157 547.612 401.956 548.84 400.482L573.671 375.194V375.243Z" fill="#FCDE00"/>
<path d="M391.693 392.069C366.421 399 344.018 413.822 327.746 434.377L460.5 512.673C466.914 512.235 473.474 511.992 480.228 511.894C486.448 485.585 504.232 466.182 534.068 454.073C521.009 428.993 499.749 409.155 473.838 397.871C447.926 386.586 418.932 384.538 391.693 392.069Z" fill="#FCDE00"/>
<path d="M461.727 501.975C455.748 501.042 449.703 500.586 443.651 500.613C430.667 500.509 417.805 503.129 405.895 508.306C393.985 513.482 383.292 521.1 374.505 530.667C370.315 535.217 366.496 540.096 363.086 545.256C350.7 565.689 344.442 589.254 345.058 613.144C344.72 636.373 351.653 659.125 364.883 678.212C373.72 689.742 384.878 699.285 397.634 706.223C411.507 713.716 426.358 719.232 441.756 722.612L444.817 723.001H720.82H722.569C732.014 721.883 741.265 719.495 750.072 715.901C758.347 712.537 766.051 707.911 772.91 702.187C779.248 696.917 784.883 690.854 789.675 684.145C802.191 666.723 808.984 645.836 809.111 624.378C809.488 602.564 802.099 581.327 788.265 564.465C783.468 558.708 777.966 553.578 771.89 549.195C764.137 543.671 755.711 539.16 746.816 535.773C740.043 533.175 733.093 531.062 726.019 529.451C718.926 499.283 701.79 472.427 677.427 453.296C656.174 437.018 630.754 427.088 604.102 424.652C577.434 421.978 550.544 426.67 526.355 438.22C498.304 451.655 475.553 474.098 461.727 501.975Z" fill="#D9DEFC"/>
<path d="M483.011 537.086C485.829 538.448 488.696 540.004 491.563 541.657C500.503 547.004 509.016 553.036 517.025 559.699L535.296 538.788C528.951 532.909 522.124 527.573 514.887 522.837C509.122 519.075 503.098 515.727 496.859 512.819C494.332 511.604 492 510.436 489.279 509.318C500.48 489.258 517.606 473.155 538.308 463.216C557.979 453.888 579.819 450.105 601.478 452.274C622.924 454.22 643.379 462.213 660.469 475.325C681.992 492.353 696.433 516.77 700.994 543.846L702.792 553.572L711.927 555.031C720.389 556.421 728.691 558.653 736.709 561.693C743.436 564.212 749.806 567.596 755.66 571.76C759.898 574.78 763.721 578.344 767.031 582.361C776.758 594.131 781.932 609.01 781.608 624.281C781.498 640 776.506 655.295 767.322 668.048C763.816 672.797 759.736 677.093 755.174 680.838C750.475 684.72 745.216 687.868 739.576 690.175C733.325 692.601 726.796 694.234 720.139 695.038H446.372C434.127 692.232 422.312 687.8 411.24 681.859C401.788 676.849 393.507 669.887 386.944 661.434C377.28 647.089 372.289 630.101 372.658 612.804C372.143 594.426 376.898 576.284 386.361 560.526C388.892 556.624 391.753 552.947 394.913 549.535C401.108 542.75 408.665 537.35 417.089 533.688C425.512 530.026 434.613 528.184 443.797 528.284C457.337 528.373 470.703 531.34 483.011 536.989V537.086Z" fill="#D9DDFC"/>
<path d="M490.64 506.984C501.852 487.996 518.442 472.764 538.308 463.216C557.979 453.888 579.819 450.105 601.478 452.274C622.924 454.22 643.379 462.213 660.469 475.325C681.992 492.353 696.433 516.77 700.994 543.846L702.792 553.572L711.927 555.031C720.389 556.421 728.691 558.653 736.709 561.693C743.436 564.212 749.806 567.596 755.66 571.76C759.898 574.78 763.721 578.344 767.031 582.361C776.758 594.131 781.932 609.01 781.608 624.281C781.498 640 776.506 655.295 767.322 668.048C763.816 672.797 759.736 677.093 755.174 680.838L752.745 682.735C564.791 660.462 598.222 523.761 490.64 506.984Z" fill="#D9DDFC"/>
</g>
<defs>
<linearGradient id="paint0_linear_36_423" x1="511" y1="0" x2="511" y2="1024" gradientUnits="userSpaceOnUse">
<stop offset="0.209826" stop-color="#9207E9"/>
<stop offset="1" stop-color="#2378F3"/>
</linearGradient>
<clipPath id="clip0_36_423">
<rect width="1024" height="1024" fill="white"/>
</clipPath>
</defs>
</svg>
