<svg width="1024" height="1024" viewBox="0 0 1024 1024" fill="none" xmlns="http://www.w3.org/2000/svg">
<g clip-path="url(#clip0_42_5)">
<path d="M1023 512C1023 662.896 1014.35 788.442 949.25 877.53C885.957 964.148 762.574 1024 511 1024C259.427 1024 136.044 964.148 72.7486 877.53C7.6515 788.442 -1 662.896 -1 512C-1 361.57 9.69576 235.816 75.8314 146.641C140.275 59.748 263.922 0 511 0C758.077 0 881.726 59.748 946.168 146.641C1012.3 235.816 1023 361.57 1023 512Z" fill="#E0E0E0"/>
<path d="M186 512C186 425.805 220.241 343.14 281.19 282.19C342.14 221.241 424.805 187 511 187C597.195 187 679.86 221.241 740.81 282.19C801.759 343.14 836 425.805 836 512C836 598.195 801.759 680.86 740.81 741.81C679.86 802.759 597.195 837 511 837C424.805 837 342.14 802.759 281.19 741.81C220.241 680.86 186 598.195 186 512ZM490.688 230.753C463.469 239.041 436.453 264.066 414.028 306.112C406.64 320.091 400.285 334.593 395.016 349.5H490.688V230.753ZM352.156 349.5C358.927 327.921 367.629 306.995 378.156 286.978C385.181 273.696 393.293 261.018 402.409 249.075C352.075 269.949 308.769 304.797 277.609 349.5H352.156ZM328.512 491.688C329.731 456.059 334.119 421.894 341.188 390.125H254.006C238.858 422.018 229.819 456.466 227.356 491.688H328.512ZM382.909 390.125C374.919 423.429 370.319 457.457 369.178 491.688H490.688V390.125H382.909ZM531.312 390.125V491.688H652.781C651.656 457.458 647.069 423.431 639.091 390.125H531.312ZM369.219 532.312C370.346 566.542 374.933 600.569 382.909 633.875H490.688V532.312H369.219ZM531.312 532.312V633.875H639.091C646.688 602.797 651.522 568.55 652.822 532.312H531.312ZM395.016 674.5C400.622 690.181 407 704.725 414.028 717.888C436.453 759.934 463.509 784.919 490.688 793.247V674.5H395.016ZM402.409 774.925C393.292 762.982 385.18 750.304 378.156 737.022C367.629 717.004 358.928 696.079 352.156 674.5H277.609C308.767 719.204 352.074 754.053 402.409 774.925ZM341.188 633.875C333.841 600.484 329.598 566.485 328.512 532.312H227.356C229.875 568.469 239.178 602.716 254.006 633.875H341.188ZM619.591 774.925C669.926 754.053 713.233 719.204 744.391 674.5H669.844C663.072 696.079 654.37 717.004 643.844 737.022C636.821 750.305 628.709 762.983 619.591 774.925ZM531.312 674.5V793.247C558.531 784.959 585.547 759.934 607.972 717.888C615 704.725 621.378 690.181 626.984 674.5H531.312ZM680.812 633.875H767.994C782.822 602.716 792.125 568.469 794.644 532.312H693.487C692.402 566.485 688.159 600.484 680.812 633.875ZM794.644 491.688C792.18 456.466 783.141 422.018 767.994 390.125H680.812C687.881 421.894 692.269 456.059 693.487 491.688H794.644ZM643.844 286.978C653.878 305.828 662.612 326.791 669.844 349.5H744.391C713.233 304.796 669.926 269.947 619.591 249.075C628.447 260.613 636.572 273.369 643.844 286.978ZM626.984 349.5C621.715 334.592 615.361 320.091 607.972 306.112C585.547 264.066 558.531 239.081 531.312 230.753V349.5H626.984Z" fill="#9D9D9D"/>
<circle cx="511" cy="363" r="71" fill="#E0E0E0"/>
<circle cx="510.5" cy="362.5" r="58.5" fill="#0F7CFE"/>
<circle cx="345" cy="512" r="37" fill="#E0E0E0"/>
<circle cx="344.739" cy="511.74" r="30.4859" fill="#0F7CFE"/>
<circle cx="263.5" cy="399.5" r="21.5" fill="#E0E0E0"/>
<circle cx="263.349" cy="399.349" r="17.7148" fill="#0F7CFE"/>
<circle cx="511" cy="772" r="30" fill="#E0E0E0"/>
<circle cx="510.789" cy="771.79" r="24.7183" fill="#0F7CFE"/>
<circle cx="655" cy="662" r="42" fill="#E0E0E0"/>
<circle cx="654.704" cy="661.705" r="34.6056" fill="#0F7CFE"/>
</g>
<defs>
<clipPath id="clip0_42_5">
<rect width="1024" height="1024" fill="white"/>
</clipPath>
</defs>
</svg>
