<svg width="1024" height="1024" viewBox="0 0 1024 1024" fill="none" xmlns="http://www.w3.org/2000/svg">
<path d="M1005 513C1005 658.002 996.685 778.644 934.131 864.252C873.311 947.486 754.746 1005 513 1005C271.254 1005 152.691 947.486 91.8678 864.252C29.3135 778.644 21 658.002 21 513C21 368.446 31.278 247.605 94.8302 161.913C156.757 78.4141 275.574 21 513 21C750.425 21 869.244 78.4141 931.169 161.913C994.723 247.605 1005 368.446 1005 513Z" fill="white" stroke="#999999" stroke-width="26"/>
<path d="M540.36 384.78L489.613 584.089C489.613 584.089 450.814 434.483 444.502 413.261C438.187 392.007 425.198 382.694 406.774 382.694C388.345 382.694 375.331 392.006 369.02 413.261C362.734 434.481 323.924 584.089 323.924 584.089L273.145 384.78H212C212 384.78 270.726 597.428 278.708 622.064C284.918 641.285 299.627 657 321.432 657C346.364 657 358.022 638.792 363.422 622.064C368.763 605.432 406.775 464.982 406.775 464.982C406.775 464.982 444.787 605.435 450.116 622.064C455.51 638.792 467.171 657 492.094 657C513.917 657 528.6 641.286 534.848 622.064C542.812 597.436 601.498 384.78 601.498 384.78H540.36ZM750.007 654.947H807.893V467.374H750.007V654.947ZM744.397 401.791C744.397 419.87 759.621 434.544 778.314 434.544C797.764 434.544 813 420.172 813 401.791C813 383.404 797.764 369 778.314 369C759.621 369 744.397 383.695 744.397 401.791ZM632.385 654.947H690.254V467.374H632.385V654.947ZM626.757 401.791C626.757 419.87 641.952 434.544 660.657 434.544C680.096 434.544 695.361 420.172 695.361 401.791C695.361 383.404 680.095 369 660.657 369C641.952 369 626.757 383.695 626.757 401.791Z" fill="#999999"/>
</svg>
