<svg width="1024" height="1024" viewBox="0 0 1024 1024" fill="none" xmlns="http://www.w3.org/2000/svg">
<g clip-path="url(#clip0_4_3511)">
<path d="M1024 509C1024 659.896 1015.35 785.442 950.25 874.53C886.957 961.148 763.574 1021 512 1021C260.427 1021 137.044 961.148 73.7486 874.53C8.6515 785.442 0 659.896 0 509C0 358.57 10.6958 232.816 76.8314 143.641C141.275 56.748 264.922 -3 512 -3C759.077 -3 882.726 56.748 947.168 143.641C1013.3 232.816 1024 358.57 1024 509Z" fill="#DFDFDF"/>
<line x1="404" y1="212" x2="604" y2="212" stroke="#696863" stroke-width="20"/>
<line x1="404" y1="812" x2="604" y2="812" stroke="#696863" stroke-width="20"/>
<line x1="604" y1="412" x2="804" y2="412" stroke="#696863" stroke-width="20"/>
<line x1="604" y1="612" x2="804" y2="612" stroke="#696863" stroke-width="20"/>
<line x1="204" y1="612" x2="404" y2="612" stroke="#696863" stroke-width="20"/>
<line x1="204" y1="412" x2="404" y2="412" stroke="#696863" stroke-width="20"/>
<path d="M614 202L614 422" stroke="#696863" stroke-width="20"/>
<line x1="414" y1="222" x2="414" y2="422" stroke="#696863" stroke-width="20"/>
<path d="M814 402L814 622" stroke="#696863" stroke-width="20"/>
<line x1="214" y1="422" x2="214" y2="622" stroke="#696863" stroke-width="20"/>
<line x1="614" y1="622" x2="614" y2="822" stroke="#696863" stroke-width="20"/>
<line x1="414" y1="602" x2="414" y2="822" stroke="#696863" stroke-width="20"/>
<rect x="429.5" y="227.5" width="169" height="569" fill="#5E5E5E" stroke="#303030" stroke-width="11"/>
<rect x="798.5" y="427.5" width="169" height="569" transform="rotate(90 798.5 427.5)" fill="#5E5E5E" stroke="#303030" stroke-width="11"/>
<rect x="435" y="258" width="158" height="508" fill="#5E5E5E"/>
<rect x="508" y="272" width="11" height="126" fill="#D9D9D9"/>
<rect x="508" y="626" width="11" height="126" fill="#D9D9D9"/>
<rect x="400" y="507" width="11" height="126" transform="rotate(90 400 507)" fill="#D9D9D9"/>
<rect x="754" y="507" width="11" height="126" transform="rotate(90 754 507)" fill="#D9D9D9"/>
</g>
<defs>
<clipPath id="clip0_4_3511">
<rect width="1024" height="1024" fill="white"/>
</clipPath>
</defs>
</svg>
