<svg width="1024" height="1024" viewBox="0 0 1024 1024" fill="none" xmlns="http://www.w3.org/2000/svg">
<g clip-path="url(#clip0_4_3494)">
<path d="M1021 512C1021 662.896 1012.35 788.442 947.25 877.53C883.957 964.148 760.574 1024 509 1024C257.427 1024 134.044 964.148 70.7486 877.53C5.6515 788.442 -3 662.896 -3 512C-3 361.57 7.69576 235.816 73.8314 146.641C138.275 59.748 261.922 0 509 0C756.077 0 879.726 59.748 944.168 146.641C1010.3 235.816 1021 361.57 1021 512Z" fill="white"/>
<g clip-path="url(#clip1_4_3494)">
<path fill-rule="evenodd" clip-rule="evenodd" d="M753.271 475.921C753.271 529.359 816.425 521.716 816.425 484.345V395.893H753.271V475.921Z" fill="#009AC7"/>
<path fill-rule="evenodd" clip-rule="evenodd" d="M666.26 532.081C666.26 558.484 684.489 574.201 711.17 574.201H862.739C885.251 574.201 903.439 558.651 903.439 536.293V425.377C903.439 411.902 893.4 397.297 880.984 397.297H845.898V488.557C845.898 557.871 725.204 557.337 725.204 489.961V395.893H698.539C681.179 395.893 666.26 406.896 666.26 423.972V532.081Z" fill="#009AC7"/>
<path d="M456.462 422.111C456.462 436.523 468.594 448.66 483.759 448.66C499.682 448.66 512.193 436.902 512.193 422.111C512.193 407.319 499.682 395.562 483.759 395.562C468.594 395.562 456.462 407.319 456.462 422.111Z" fill="#8B8B8B"/>
<path d="M508.024 626.921V474.83H461.011V626.921H508.024Z" fill="#8B8B8B"/>
<path d="M551.621 422.111C551.621 436.523 564.132 448.66 579.297 448.66C594.84 448.66 607.351 436.902 607.351 422.111C607.351 407.319 594.84 395.562 579.297 395.562C564.132 395.562 551.621 407.319 551.621 422.111Z" fill="#8B8B8B"/>
<path d="M603.182 626.921V474.83H556.172V626.921H603.182Z" fill="#8B8B8B"/>
<path d="M386.325 408.456L345.38 569.65C345.38 569.65 313.913 448.66 308.605 431.213C303.676 414.146 293.061 406.56 278.275 406.56C263.111 406.56 252.874 414.146 247.566 431.213C242.638 448.66 211.171 569.65 211.171 569.65L169.847 408.456H120.561C120.561 408.456 167.952 580.27 174.397 600.372C179.325 615.922 191.457 628.438 208.896 628.438C229.369 628.438 238.847 613.647 243.017 600.372C247.566 586.718 278.275 473.313 278.275 473.313C278.275 473.313 308.984 586.718 313.155 600.372C317.704 613.647 327.182 628.438 347.276 628.438C365.094 628.438 376.847 615.922 382.154 600.372C388.599 580.27 435.99 408.456 435.99 408.456H386.325Z" fill="#8B8B8B"/>
</g>
</g>
<defs>
<clipPath id="clip0_4_3494">
<rect width="1024" height="1024" fill="white"/>
</clipPath>
<clipPath id="clip1_4_3494">
<rect width="784" height="234" fill="white" transform="translate(120 395)"/>
</clipPath>
</defs>
</svg>
