<svg width="500" height="500" viewBox="0 0 500 500" fill="none" xmlns="http://www.w3.org/2000/svg">
<g clip-path="url(#clip0_4_787)">
<path d="M456.46 76.0697L462.484 71.6021L456.46 76.0699C487.096 117.377 492.5 176.335 492.5 250C492.5 324.012 488.069 382.815 457.934 424.057C429.129 463.477 371.917 492.5 250 492.5C128.084 492.5 70.872 463.477 42.0655 424.056C11.9301 382.815 7.5 324.012 7.5 250C7.5 176.335 12.9042 117.377 43.5394 76.0698C72.9263 36.4459 130.334 7.5 250 7.5C369.666 7.5 427.074 36.4459 456.46 76.0697Z" fill="#F5F6F1" stroke="#31B6CA" stroke-width="15"/>
<path d="M132.332 332.69C125.059 330.693 117.97 323.955 114.869 316.091C112.79 310.82 105.278 284.374 78.9478 189.633L75 175.427L92.8154 175.322C102.613 175.265 110.756 175.355 110.909 175.523C111.063 175.69 117.732 201.508 125.731 232.897L140.275 289.967L147.187 263.511C163.603 200.685 166.391 190.554 168.463 186.202C171.255 180.338 176.134 176.148 181.928 174.639C184.981 173.844 192.016 173.835 195.04 174.623C201.425 176.286 206.415 180.89 209.163 187.651C210.838 191.774 214.444 205.048 227.909 256.664C232.445 274.052 236.287 288.593 236.446 288.977C236.627 289.412 242.25 268.079 251.344 232.454L265.95 175.232L284.046 175.23C298.349 175.228 302.106 175.332 301.969 175.727C301.874 176.003 298.02 189.824 293.406 206.442C271.355 285.855 263.679 312.524 261.516 317.229C257.844 325.22 251.673 330.773 244.342 332.682C241.281 333.48 234.623 333.487 231.587 332.696C227.359 331.595 224.941 330.139 221.313 326.513C218.481 323.68 217.576 322.444 216.029 319.293C213.499 314.141 211.06 305.739 195.528 248.661C191.875 235.235 188.785 223.98 188.662 223.649C188.539 223.319 184.769 236.447 180.285 252.823C170.429 288.814 165.237 307.407 163.624 312.49C160.137 323.477 153.797 330.51 145.437 332.666C142.423 333.443 135.122 333.456 132.332 332.69ZM319.775 277.473V222.848H353.79V332.098H319.775V277.473ZM388.206 277.473V222.848H422.222V332.098H388.206V277.473ZM331.98 203.998C324.272 202.437 317.89 195.838 316.581 188.077C314.986 178.622 321.291 169.111 330.794 166.636C335.644 165.373 341.856 166.029 346.282 168.272C348.933 169.615 352.96 173.47 354.317 175.962C358.975 184.521 356.215 195.687 348.166 200.853C343.702 203.717 337.011 205.017 331.98 203.998ZM400.412 203.998C390.43 201.976 383.364 192.029 384.977 182.267C386.213 174.78 391.897 168.545 399.225 166.636C404.07 165.374 410.287 166.029 414.703 168.267C417.363 169.615 421.118 173.198 422.619 175.822C427.44 184.249 424.696 195.655 416.597 200.853C412.133 203.717 405.442 205.017 400.412 203.998Z" fill="#31B6CA"/>
</g>
<defs>
<clipPath id="clip0_4_787">
<rect width="500" height="500" fill="white"/>
</clipPath>
</defs>
</svg>
