<svg width="1024" height="1024" viewBox="0 0 1024 1024" fill="none" xmlns="http://www.w3.org/2000/svg">
<g clip-path="url(#clip0_4_3534)">
<path d="M1027 504C1027 654.896 1018.35 780.442 953.25 869.53C889.957 956.148 766.574 1016 515 1016C263.427 1016 140.044 956.148 76.7486 869.53C11.6515 780.442 3 654.896 3 504C3 353.57 13.6958 227.816 79.8314 138.641C144.275 51.748 267.922 -8 515 -8C762.077 -8 885.726 51.748 950.168 138.641C1016.3 227.816 1027 353.57 1027 504Z" fill="white"/>
<line x1="410" y1="212" x2="610" y2="212" stroke="#7C7C7B" stroke-width="20"/>
<line x1="410" y1="812" x2="610" y2="812" stroke="#7C7C7B" stroke-width="20"/>
<line x1="610" y1="412" x2="810" y2="412" stroke="#7C7C7B" stroke-width="20"/>
<line x1="610" y1="612" x2="810" y2="612" stroke="#7C7C7B" stroke-width="20"/>
<line x1="210" y1="612" x2="410" y2="612" stroke="#7C7C7B" stroke-width="20"/>
<line x1="210" y1="412" x2="410" y2="412" stroke="#7C7C7B" stroke-width="20"/>
<path d="M620 202L620 422" stroke="#7C7C7B" stroke-width="20"/>
<line x1="420" y1="222" x2="420" y2="422" stroke="#7C7C7B" stroke-width="20"/>
<path d="M820 402L820 622" stroke="#7C7C7B" stroke-width="20"/>
<line x1="220" y1="422" x2="220" y2="622" stroke="#7C7C7B" stroke-width="20"/>
<line x1="620" y1="622" x2="620" y2="822" stroke="#7C7C7B" stroke-width="20"/>
<line x1="420" y1="602" x2="420" y2="822" stroke="#7C7C7B" stroke-width="20"/>
<rect x="435.5" y="227.5" width="169" height="569" fill="#F5F6F2" stroke="#7C7C7B" stroke-width="11"/>
<rect x="804.5" y="427.5" width="169" height="569" transform="rotate(90 804.5 427.5)" fill="#F5F6F2" stroke="#7C7C7B" stroke-width="11"/>
<rect x="441" y="258" width="158" height="508" fill="#F5F6F2"/>
<rect x="514" y="272" width="11" height="126" fill="#B8B9B9"/>
<rect x="514" y="626" width="11" height="126" fill="#B8B9B9"/>
<rect x="406" y="507" width="11" height="126" transform="rotate(90 406 507)" fill="#B8B9B9"/>
<rect x="760" y="507" width="11" height="126" transform="rotate(90 760 507)" fill="#B8B9B9"/>
</g>
<defs>
<clipPath id="clip0_4_3534">
<rect width="1024" height="1024" fill="white"/>
</clipPath>
</defs>
</svg>
