<svg width="1024" height="1024" viewBox="0 0 1024 1024" fill="none" xmlns="http://www.w3.org/2000/svg">
<g clip-path="url(#clip0_13_12)">
<path d="M1024 512C1024 662.896 1015.35 788.442 950.25 877.53C886.957 964.148 763.574 1024 512 1024C260.427 1024 137.044 964.148 73.7486 877.53C8.6515 788.442 0 662.896 0 512C0 361.57 10.6958 235.816 76.8314 146.641C141.275 59.748 264.922 0 512 0C759.077 0 882.726 59.748 947.168 146.641C1013.3 235.816 1024 361.57 1024 512Z" fill="#3A7A29"/>
<path d="M487.069 760.972C448.555 757.285 409.562 743.461 376.065 721.618C347.995 703.315 341.656 695.791 341.656 680.775C341.656 650.612 374.839 597.784 431.611 537.56C463.854 503.357 508.766 463.266 513.623 464.351C523.064 466.461 598.553 540.055 626.813 574.699C671.501 629.482 692.045 674.338 681.608 694.336C673.674 709.538 624.444 739.249 588.276 750.664C558.467 760.071 519.318 764.059 487.069 760.972ZM303.745 649.415C280.42 613.65 268.636 578.441 262.946 527.516C261.067 510.701 261.741 501.083 267.212 466.568C274.032 423.551 298.543 373.786 327.995 343.159C340.539 330.115 341.659 329.798 356.949 334.946C375.517 341.197 395.347 354.885 426.099 382.677L444.042 398.892L434.244 410.922C388.761 466.767 340.748 545.926 322.653 594.899C312.816 621.523 308.849 648.248 313.081 659.374C315.939 666.886 313.314 664.086 303.745 649.415ZM713.173 655.497C715.477 644.255 712.563 623.608 705.732 602.783C690.939 557.683 641.495 473.782 596.092 416.738L581.799 398.78L597.262 384.59C617.453 366.061 631.471 354.966 646.596 345.544C658.531 338.109 675.587 331.528 682.919 331.528C687.439 331.528 703.352 348.033 716.198 366.045C736.094 393.943 750.731 427.761 758.146 462.965C762.938 485.712 763.337 534.403 758.918 557.094C755.292 575.715 747.635 599.87 740.165 616.253C734.568 628.527 720.648 652.367 714.548 660.124C711.411 664.112 711.409 664.104 713.173 655.497ZM491.193 323.011C470.244 312.379 437.927 300.966 420.074 297.895C413.816 296.819 403.139 296.218 396.349 296.561C381.62 297.304 382.278 296.535 405.907 285.377C425.552 276.101 441.938 270.646 464.183 265.978C489.207 260.726 536.243 260.665 560.868 265.851C587.466 271.453 618.785 283.102 636.434 293.956L641.679 297.182L629.644 296.575C605.73 295.368 570.878 305.024 533.459 323.224C522.173 328.714 512.354 333.098 511.639 332.967C510.925 332.836 501.724 328.356 491.193 323.011Z" fill="#FCFFFB"/>
</g>
<defs>
<clipPath id="clip0_13_12">
<rect width="1024" height="1024" fill="white"/>
</clipPath>
</defs>
</svg>
