<svg width="500" height="500" viewBox="0 0 500 500" fill="none" xmlns="http://www.w3.org/2000/svg">
<g clip-path="url(#clip0_3_549)">
<path d="M500 250C500 323.68 495.775 384.982 463.989 428.482C433.085 470.775 372.839 500 250 500C127.162 500 66.9161 470.775 36.0101 428.482C4.22436 384.982 0 323.68 0 250C0 176.548 5.22254 115.145 37.5153 71.6021C68.982 29.1738 129.357 0 250 0C370.643 0 431.019 29.1738 462.484 71.6021C494.778 115.145 500 176.548 500 250Z" fill="#222224"/>
<circle cx="250.5" cy="124.5" r="62.5001" fill="#E8780A"/>
<circle cx="250.5" cy="124.5" r="62.5001" fill="#E8780A"/>
<path d="M222.751 97.1818H237.39L251.487 123.805H252.09L266.186 97.1818H280.826L258.278 137.146V159H245.299V137.146L222.751 97.1818Z" fill="white"/>
<circle cx="375.498" cy="249.5" r="62.5001" fill="#5ACC21"/>
<circle cx="375.498" cy="249.5" r="62.5001" fill="#EE371B"/>
<circle cx="375.498" cy="249.5" r="62.5001" fill="#EE371B"/>
<path d="M353.373 283V221.182H378.124C382.672 221.182 386.465 221.856 389.504 223.204C392.542 224.552 394.826 226.424 396.356 228.819C397.885 231.193 398.65 233.93 398.65 237.029C398.65 239.444 398.167 241.567 397.201 243.398C396.235 245.209 394.907 246.698 393.217 247.865C391.546 249.012 389.635 249.827 387.482 250.31V250.914C389.836 251.014 392.039 251.678 394.092 252.906C396.165 254.133 397.845 255.854 399.133 258.067C400.421 260.261 401.065 262.877 401.065 265.915C401.065 269.196 400.25 272.123 398.62 274.699C397.01 277.255 394.625 279.277 391.466 280.766C388.307 282.255 384.413 283 379.784 283H353.373ZM366.443 272.315H377.098C380.74 272.315 383.397 271.62 385.067 270.232C386.737 268.823 387.572 266.952 387.572 264.618C387.572 262.907 387.16 261.398 386.335 260.09C385.509 258.782 384.332 257.756 382.803 257.011C381.294 256.266 379.493 255.894 377.4 255.894H366.443V272.315ZM366.443 247.05H376.132C377.923 247.05 379.513 246.738 380.901 246.114C382.31 245.47 383.417 244.565 384.222 243.398C385.047 242.231 385.459 240.832 385.459 239.202C385.459 236.968 384.664 235.167 383.075 233.799C381.505 232.431 379.271 231.746 376.374 231.746H366.443V247.05Z" fill="white"/>
<circle cx="250.5" cy="374.5" r="62.5001" fill="#5ACC21"/>
<path d="M237.028 409H223.022L244.363 347.182H261.206L282.516 409H268.511L253.026 361.308H252.543L237.028 409ZM236.153 384.701H269.235V394.904H236.153V384.701Z" fill="white"/>
<circle cx="125.5" cy="249.5" r="62.5001" fill="#1564AE"/>
<path d="M114.628 221.182L127.094 242.251H127.577L140.104 221.182H154.864L135.999 252.091L155.287 283H140.255L127.577 261.901H127.094L114.417 283H99.445L118.793 252.091L99.8072 221.182H114.628Z" fill="white"/>
</g>
<defs>
<clipPath id="clip0_3_549">
<rect width="500" height="500" fill="white"/>
</clipPath>
</defs>
</svg>
