<svg width="500" height="500" viewBox="0 0 500 500" fill="none" xmlns="http://www.w3.org/2000/svg">
<g clip-path="url(#clip0_4_614)">
<path d="M500 250C500 323.68 495.775 384.982 463.989 428.482C433.085 470.775 372.839 500 250 500C127.162 500 66.9161 470.775 36.0101 428.482C4.22436 384.982 0 323.68 0 250C0 176.548 5.22254 115.145 37.5153 71.6021C68.982 29.1738 129.357 0 250 0C370.643 0 431.019 29.1738 462.484 71.6021C494.778 115.145 500 176.548 500 250Z" fill="black"/>
<path d="M449.999 408.377V92H50.082V408.377H449.999Z" fill="black"/>
<path d="M246.946 204.519L136.621 152.956V307.645L246.946 307.245V204.519Z" fill="url(#paint0_linear_4_614)"/>
<path d="M356.267 152.959L246.883 204.519V307.648H356.267V152.959Z" fill="url(#paint1_linear_4_614)"/>
<path d="M375.1 367.567V353.979L284.363 238.06V367.569L375.1 367.567Z" fill="url(#paint2_linear_4_614)"/>
<path d="M209.975 368.334V238.828L119.238 354.747V368.334H209.975Z" fill="url(#paint3_linear_4_614)"/>
<path d="M112.039 131.773L130.626 148.962C157.409 168.548 196.181 186.933 246.947 204.522V194.926L112.039 131.773Z" fill="url(#paint4_linear_4_614)"/>
<path d="M356.269 152.959L369.459 136.97L246.852 194.905L246.878 204.519C300.443 182.532 336.883 165.345 356.269 152.959Z" fill="url(#paint5_linear_4_614)"/>
<path d="M283.957 226.475L284.354 239.067C313.533 281.039 344.913 321.211 378.089 359.784L409.27 374.574L283.957 226.475Z" fill="url(#paint6_linear_4_614)"/>
<path d="M209.954 239.697L210.154 226.706L91.4414 376.799L113.626 363.404C140.805 337.628 172.982 296.457 209.954 239.697Z" fill="url(#paint7_linear_4_614)"/>
<path d="M333.881 296.055C356.667 325.433 382.448 353.816 411.824 381.392L407.431 95.5945C344.874 164.147 303.703 207.919 283.918 226.501C304.305 256.082 320.888 279.267 333.881 296.055Z" fill="url(#paint8_radial_4_614)"/>
<path d="M336.411 157.155C363.989 143.161 381.578 129.574 389.574 116.985L238.998 99.1008L97.1758 111.583C109.567 128.573 131.352 144.963 162.531 160.35C174.32 166.346 188.312 172.542 204.897 179.135C211.495 181.736 225.684 187.332 246.869 195.523C286.043 180.538 315.824 167.946 336.411 157.155Z" fill="url(#paint9_radial_4_614)"/>
<path d="M89.2564 92H79.4609L80.2623 383.594C96.2509 371.807 114.838 353.217 136.421 327.638C160.602 299.055 184.986 265.478 210.171 226.709L174.197 191.931C161.206 178.937 150.213 167.946 141.618 158.353C122.432 137.767 105.043 115.58 89.2564 92Z" fill="black"/>
<path d="M50 395.944V408.333H449.917V399.336C419.138 381.753 392.158 365.362 368.976 350.372C324.405 320.993 283.636 290.214 246.861 257.635C210.687 293.415 170.515 325.19 125.946 352.973C105.562 365.767 81.7775 379.154 54.3959 393.745L50 395.944Z" fill="black"/>
<path d="M384.793 137.51H383.766L382.529 141.41C382.356 141.653 382.251 141.936 382.223 142.232C382.099 142.003 381.996 141.764 381.914 141.517L380.573 137.51H379.546V143.057H380.164V138.329L381.811 143.057H382.423L384.069 138.433V143.057H384.788V137.51H384.793ZM376.984 138.226H378.73V137.51H374.414V138.226H376.268V143.055H376.984V138.226Z" fill="#90B258"/>
</g>
<defs>
<linearGradient id="paint0_linear_4_614" x1="124.053" y1="297.834" x2="233.533" y2="188.354" gradientUnits="userSpaceOnUse">
<stop offset="0.17" stop-color="#C9CA4C"/>
<stop offset="0.418" stop-color="#C8C94C"/>
<stop offset="0.578" stop-color="#C2C74D"/>
<stop offset="0.713" stop-color="#B9C350"/>
<stop offset="0.834" stop-color="#ABBD52"/>
<stop offset="0.944" stop-color="#9AB656"/>
<stop offset="1" stop-color="#90B258"/>
</linearGradient>
<linearGradient id="paint1_linear_4_614" x1="259.77" y1="188.5" x2="368.777" y2="297.507" gradientUnits="userSpaceOnUse">
<stop stop-color="#637E3E"/>
<stop offset="0.077" stop-color="#78974A"/>
<stop offset="0.151" stop-color="#89AB54"/>
<stop offset="0.192" stop-color="#90B258"/>
<stop offset="0.197" stop-color="#93B357"/>
<stop offset="0.229" stop-color="#A3BA54"/>
<stop offset="0.266" stop-color="#B2C051"/>
<stop offset="0.309" stop-color="#BDC54F"/>
<stop offset="0.362" stop-color="#C4C84D"/>
<stop offset="0.437" stop-color="#C8CA4C"/>
<stop offset="0.644" stop-color="#C9CA4C"/>
</linearGradient>
<linearGradient id="paint2_linear_4_614" x1="250.446" y1="268.894" x2="363.323" y2="381.771" gradientUnits="userSpaceOnUse">
<stop stop-color="#66813F"/>
<stop offset="0.226" stop-color="#90B258"/>
<stop offset="0.259" stop-color="#96B457"/>
<stop offset="0.379" stop-color="#A8BC53"/>
<stop offset="0.507" stop-color="#B7C250"/>
<stop offset="0.644" stop-color="#C1C74E"/>
<stop offset="0.798" stop-color="#C8C94C"/>
<stop offset="1" stop-color="#C9CA4C"/>
</linearGradient>
<linearGradient id="paint3_linear_4_614" x1="243.731" y1="269.827" x2="130.854" y2="382.704" gradientUnits="userSpaceOnUse">
<stop stop-color="#577036"/>
<stop offset="0.271" stop-color="#90B258"/>
<stop offset="0.316" stop-color="#9AB656"/>
<stop offset="0.409" stop-color="#ABBD53"/>
<stop offset="0.511" stop-color="#B9C350"/>
<stop offset="0.623" stop-color="#C2C74D"/>
<stop offset="0.756" stop-color="#C8C94C"/>
<stop offset="0.961" stop-color="#C9CA4C"/>
</linearGradient>
<linearGradient id="paint4_linear_4_614" x1="118.214" y1="168.146" x2="204.003" y2="168.146" gradientUnits="userSpaceOnUse">
<stop stop-color="#839363"/>
<stop offset="0.234" stop-color="#707E57"/>
<stop offset="0.575" stop-color="#586346"/>
<stop offset="0.842" stop-color="#475039"/>
<stop offset="1" stop-color="#404934"/>
</linearGradient>
<linearGradient id="paint5_linear_4_614" x1="246.714" y1="170.745" x2="356.077" y2="170.745" gradientUnits="userSpaceOnUse">
<stop stop-color="#49503D"/>
<stop offset="1" stop-color="#78875B"/>
</linearGradient>
<linearGradient id="paint6_linear_4_614" x1="283.791" y1="300.526" x2="409.104" y2="300.526" gradientUnits="userSpaceOnUse">
<stop stop-color="#434A39"/>
<stop offset="0.165" stop-color="#4B533F"/>
<stop offset="0.46" stop-color="#5E684D"/>
<stop offset="0.847" stop-color="#78865D"/>
<stop offset="1" stop-color="#839363"/>
</linearGradient>
<linearGradient id="paint7_linear_4_614" x1="65.9427" y1="301.753" x2="185.148" y2="301.753" gradientUnits="userSpaceOnUse">
<stop stop-color="#739148"/>
<stop offset="1" stop-color="#64724C"/>
</linearGradient>
<radialGradient id="paint8_radial_4_614" cx="0" cy="0" r="1" gradientUnits="userSpaceOnUse" gradientTransform="translate(246.865 257.363) scale(276.505 276.505)">
<stop stop-color="white"/>
<stop offset="0.012" stop-color="#F4F5F5"/>
<stop offset="0.122" stop-color="#B6B8BA"/>
<stop offset="0.226" stop-color="#86888A"/>
<stop offset="0.32" stop-color="#636466"/>
<stop offset="0.402" stop-color="#464547"/>
<stop offset="0.47" stop-color="#212122"/>
<stop offset="0.514"/>
</radialGradient>
<radialGradient id="paint9_radial_4_614" cx="0" cy="0" r="1" gradientUnits="userSpaceOnUse" gradientTransform="translate(247.194 257.265) scale(280.546 280.546)">
<stop stop-color="white"/>
<stop offset="0.25" stop-color="#87888B"/>
<stop offset="0.441"/>
</radialGradient>
<clipPath id="clip0_4_614">
<rect width="500" height="500" fill="white"/>
</clipPath>
</defs>
</svg>
