<svg width="500" height="500" viewBox="0 0 500 500" fill="none" xmlns="http://www.w3.org/2000/svg">
<g clip-path="url(#clip0_7_26)">
<path d="M500 250C500 323.68 495.775 384.982 463.989 428.482C433.085 470.775 372.839 500 250 500C127.162 500 66.9161 470.775 36.0101 428.482C4.22436 384.982 0 323.68 0 250C0 176.548 5.22254 115.145 37.5153 71.6021C68.982 29.1738 129.357 0 250 0C370.643 0 431.019 29.1738 462.484 71.6021C494.778 115.145 500 176.548 500 250Z" fill="#F61C0D"/>
<path d="M329.886 153H169.114C137.571 153 112 178.571 112 210.114V290.483C112 322.026 137.571 347.597 169.114 347.597H329.886C361.429 347.597 387 322.026 387 290.483V210.114C387 178.571 361.429 153 329.886 153ZM291.26 254.209L216.062 290.074C214.058 291.029 211.744 289.569 211.744 287.349V213.377C211.744 211.126 214.119 209.667 216.127 210.684L291.325 248.791C293.561 249.924 293.522 253.13 291.26 254.209Z" fill="white"/>
</g>
<defs>
<clipPath id="clip0_7_26">
<rect width="500" height="500" fill="white"/>
</clipPath>
</defs>
</svg>
