<svg width="24" height="24" fill="none" xmlns="http://www.w3.org/2000/svg"><path d="M13.493 4.592c-.114.04-.303.148-.42.239-.117.091-1.583 1.538-3.257 3.217-3.291 3.299-3.211 3.208-3.295 3.724-.023.14-.023.316 0 .456.085.519-.009.413 3.414 3.837 3.424 3.423 3.318 3.329 3.837 3.414.978.159 1.866-.729 1.707-1.707-.083-.51-.047-.468-2.794-3.222L10.143 12l2.542-2.55c2.747-2.754 2.711-2.712 2.794-3.222.102-.63-.247-1.29-.835-1.578-.293-.143-.836-.17-1.151-.058" fill="#1C1C1E" fill-rule="evenodd"/></svg>