<svg width="24" height="24" fill="none" xmlns="http://www.w3.org/2000/svg"><path d="M4.392 9.582c-.869.211-1.575.911-1.813 1.798-.084.313-.084.927 0 1.24.238.885.922 1.57 1.801 1.802.312.082.928.082 1.24 0a2.536 2.536 0 0 0 1.801-1.802c.084-.313.084-.927 0-1.24a2.51 2.51 0 0 0-1.831-1.8c-.309-.073-.894-.072-1.198.002m7 0c-.5.121-1.053.477-1.347.867A2.468 2.468 0 0 0 9.521 12c0 .982.508 1.802 1.387 2.237a2.56 2.56 0 0 0 2.184 0 2.471 2.471 0 0 0 1.328-1.647 2.67 2.67 0 0 0-.183-1.685 2.482 2.482 0 0 0-1.645-1.324 3.27 3.27 0 0 0-1.2.001m7 0c-.5.121-1.053.477-1.347.867A2.468 2.468 0 0 0 16.521 12c0 .982.508 1.802 1.387 2.237a2.56 2.56 0 0 0 2.184 0 2.418 2.418 0 0 0 1.145-1.142 2.567 2.567 0 0 0 0-2.19 2.482 2.482 0 0 0-1.645-1.324 3.27 3.27 0 0 0-1.2.001" fill="#1C1C1E" fill-rule="evenodd"/></svg>