<svg width="24" height="24" fill="none" xmlns="http://www.w3.org/2000/svg"><path d="M2.76 3.743c-.677.113-1.094.311-1.499.71-.325.321-.488.604-.631 1.095l-.09.312v6.1c0 6.818-.018 6.373.283 7 .264.552.897 1.058 1.517 1.213.839.21 1.52.044 2.312-.564.431-.331 6.572-5.794 6.697-5.957.055-.072.115-.132.134-.132.018 0 .039 1.039.046 2.31.013 2.218.017 2.322.1 2.616.133.476.307.779.627 1.096.315.312.697.534 1.084.631.839.21 1.52.044 2.312-.564.172-.132 1.731-1.501 3.465-3.042 3.16-2.809 3.393-3.033 3.624-3.488.322-.636.322-1.524 0-2.157-.23-.452-.445-.659-3.481-3.36a514.345 514.345 0 0 0-3.337-2.954c-.764-.641-1.283-.869-1.963-.862a2.378 2.378 0 0 0-1.705.714c-.313.308-.477.59-.622 1.067-.087.286-.089.351-.103 2.623-.009 1.378-.03 2.33-.051 2.33-.021 0-.069-.049-.108-.108-.064-.097-5.715-5.149-6.448-5.764-.51-.428-.953-.69-1.337-.792-.223-.059-.672-.098-.826-.073" fill="#1C1C1E" fill-rule="evenodd"/></svg>