<svg width="24" height="24" fill="none" xmlns="http://www.w3.org/2000/svg"><path d="M9.661 3.761c-.475.084-.909.304-1.441.73-.176.141-1.715 1.498-3.42 3.016-3.097 2.756-3.311 2.962-3.541 3.415-.324.638-.324 1.516 0 2.157.23.454.465.679 3.617 3.482 1.731 1.539 3.29 2.909 3.466 3.043.798.613 1.477.78 2.318.569a2.401 2.401 0 0 0 1.082-.633c.321-.32.499-.628.627-1.087.084-.302.088-.395.102-2.623.007-1.271.029-2.31.047-2.31s.078.059.133.132c.125.164 6.257 5.62 6.691 5.953.798.612 1.477.779 2.318.568.61-.152 1.238-.653 1.511-1.203.307-.62.289-.181.289-6.97 0-6.775.018-6.333-.284-6.962-.199-.417-.611-.816-1.062-1.031-.428-.204-.687-.263-1.134-.261-.6.004-1.097.214-1.76.745-.532.426-6.515 5.764-6.591 5.881-.039.059-.087.108-.108.108-.021 0-.042-.945-.05-2.31-.014-2.214-.018-2.323-.1-2.616-.135-.481-.305-.778-.632-1.101-.306-.302-.756-.557-1.139-.646-.275-.064-.718-.086-.939-.046" fill="#1C1C1E" fill-rule="evenodd"/></svg>