<svg width="24" height="24" fill="none" xmlns="http://www.w3.org/2000/svg"><path d="M6.146 2.843c-.949.08-1.671.4-2.287 1.016-.605.606-.921 1.301-1.015 2.239-.061.604-.061 11.2 0 11.804.094.938.41 1.633 1.015 2.239.613.612 1.314.927 2.266 1.016.636.06 11.184.059 11.777-.001.938-.094 1.633-.41 2.239-1.015.605-.606.921-1.301 1.015-2.239.027-.271.044-1.505.044-3.267 0-2.738-.003-2.839-.08-3.047a1.184 1.184 0 0 0-.591-.656c-.189-.092-.281-.112-.529-.112-.5 0-.887.246-1.096.698-.082.179-.084.241-.108 3.242-.015 2.004-.038 3.114-.067 3.216a1.26 1.26 0 0 1-.16.32c-.117.164-.453.424-.548.424-.031 0-.061-.08-.077-.201-.045-.336-.219-.88-.402-1.259a4.402 4.402 0 0 0-2.721-2.279c-.601-.174-.962-.187-4.701-.173-3.47.013-3.503.014-3.82.102a5.1 5.1 0 0 0-.712.282l-.391.193.014-4.602c.01-3.24.027-4.65.059-4.76a1.18 1.18 0 0 1 .753-.752c.103-.029 1.201-.052 3.217-.067l3.06-.024.229-.112a1.188 1.188 0 0 0 0-2.136L12.3 2.82l-2.88-.005c-1.584-.003-3.057.01-3.274.028m11.067.029a1.172 1.172 0 0 0-.751.763c-.047.132-.062.347-.062.867v.692l-.75.013c-.728.013-.757.016-.979.125a1.188 1.188 0 0 0-.313 1.91c.305.305.504.358 1.344.358h.698v.698c0 .84.053 1.039.358 1.344.471.47 1.213.47 1.684 0 .305-.305.358-.504.358-1.344V7.6h.698c.84 0 1.039-.053 1.344-.358.579-.58.42-1.549-.313-1.91-.222-.109-.251-.112-.979-.125l-.75-.013v-.696c0-.79-.047-.992-.301-1.289-.295-.344-.856-.491-1.286-.337M9.82 6.859c-1.934.358-3.083 2.36-2.424 4.223a3.19 3.19 0 0 0 3.379 2.087c2.351-.297 3.591-2.936 2.305-4.906a3.213 3.213 0 0 0-3.26-1.404m4.139 10.384c.682.11 1.291.63 1.521 1.296.044.129.08.24.08.249 0 .008-2.119.009-4.71.002-4.984-.013-4.857-.008-5.119-.202l-.126-.093.137-.243c.264-.467.658-.826 1.071-.975.196-.07.392-.074 3.547-.075 2.15-.001 3.432.014 3.599.041" fill="#1C1C1E" fill-rule="evenodd"/></svg>