<svg width="24" height="24" fill="none" xmlns="http://www.w3.org/2000/svg"><path d="M16.945 2.061c-.543.138-1.068.551-1.302 1.027-.237.482-.24.534-.242 4.445-.001 3.436-.003 3.552-.075 3.529a4.483 4.483 0 0 0-1.02-.142 3.527 3.527 0 0 0-2.435.957 3.615 3.615 0 0 0-1.074 1.825 4.07 4.07 0 0 0-.02 1.528 3.608 3.608 0 0 0 1.997 2.532c.554.259.875.329 1.526.33.678.001 1.002-.074 1.6-.368a3.67 3.67 0 0 0 1.907-2.364l.09-.34.013-5.109.013-5.109 1.53.764c1.463.73 1.543.764 1.809.783.385.026.685-.087.962-.365a1.225 1.225 0 0 0 .008-1.752c-.118-.118-.603-.378-2.023-1.087-1.028-.512-1.986-.971-2.129-1.02-.338-.115-.825-.143-1.135-.064M2.228 9.578c-1.086.387-1.093 1.933-.011 2.337l.23.087 3.727-.011L9.9 11.98l.187-.093c.943-.469.957-1.779.024-2.245l-.244-.122-3.743.002c-3.047.001-3.772.012-3.896.056m0 4.999c-1.085.391-1.093 1.933-.013 2.338.225.084.262.085 3.265.085s3.04-.001 3.265-.085c.989-.37 1.093-1.745.172-2.255l-.217-.12-3.16-.009c-2.59-.007-3.187.001-3.312.046m0 5c-1.085.39-1.093 1.934-.012 2.338l.23.086 5.467-.01 5.467-.011.226-.111c.447-.22.692-.612.693-1.109.001-.483-.218-.855-.656-1.113l-.183-.107-5.54-.009c-4.593-.007-5.566.001-5.692.046" fill="#1C1C1E" fill-rule="evenodd"/></svg>