<svg width="24" height="24" fill="none" xmlns="http://www.w3.org/2000/svg"><path d="M19.24 2.029c-.077.009-2.295.375-4.928.813-3.301.55-4.869.827-5.05.893-.793.288-1.394.967-1.562 1.765-.049.235-.059.899-.059 4.135l-.001 3.854-.09-.025c-.507-.144-.635-.16-1.29-.159-.61.001-.721.012-1.08.108-.478.128-1.178.465-1.544.744-.77.585-1.34 1.449-1.601 2.43-.107.401-.146 1.287-.076 1.725a4.409 4.409 0 0 0 2.305 3.196 4.381 4.381 0 0 0 3.992.012c.402-.206.649-.386 1.018-.738.64-.612 1.015-1.255 1.257-2.158l.087-.324.012-5.904.012-5.903 4.149-.689c2.282-.379 4.181-.699 4.219-.71.066-.018.07.154.07 3.223 0 1.784-.008 3.243-.017 3.243a7.36 7.36 0 0 1-.347-.079 4.537 4.537 0 0 0-2.156.043c-.391.105-.963.378-1.337.636-.345.239-.896.797-1.117 1.132-.238.361-.5.948-.614 1.377-.093.347-.105.466-.105 1.051 0 .582.012.705.102 1.043.145.54.317.932.598 1.359a4.454 4.454 0 0 0 2.538 1.827c.365.102.449.11 1.115.108.797-.002 1.024-.044 1.679-.311 1.033-.421 1.979-1.394 2.373-2.439.305-.811.287-.37.287-7.107 0-6.671.013-6.311-.264-6.88-.109-.222-.227-.379-.454-.604-.571-.566-1.253-.787-2.121-.687m-.974 12.449c.287.128.505.33.657.609.129.238.137.276.137.633 0 .342-.012.403-.119.614a1.44 1.44 0 0 1-.733.668c-.185.069-.289.083-.548.069-.531-.029-.929-.296-1.169-.785-.093-.191-.11-.276-.109-.546.001-.265.021-.363.115-.569a1.4 1.4 0 0 1 .923-.775c.192-.052.64-.009.846.082M6.841 16.407c.275.126.525.375.664.66.141.287.155.724.035 1.05-.106.287-.402.608-.692.751-.195.096-.277.112-.568.112-.283 0-.377-.018-.562-.104a1.257 1.257 0 0 1-.638-.602c-.394-.74-.04-1.639.76-1.93.264-.095.719-.067 1.001.063" fill="#1C1C1E" fill-rule="evenodd"/></svg>