<svg width="24" height="24" fill="none" xmlns="http://www.w3.org/2000/svg"><path d="M15.266 1.78a1.653 1.653 0 0 0-.327.189c-.138.105-6.193 7.204-6.809 7.983a2.93 2.93 0 0 0-.277.438c-.103.21-.113.268-.113.67 0 .405.009.459.117.68.214.437.654.793 1.111.898.102.024 1.063.04 2.362.041 1.523.001 2.19.014 2.19.044 0 .023-.118.964-.263 2.09-.283 2.204-.295 2.438-.141 2.739.225.442.603.692 1.088.72.363.021.612-.049.862-.243.186-.144 6.711-7.83 6.939-8.174.217-.327.288-.593.267-1.008-.022-.441-.154-.735-.469-1.049a1.548 1.548 0 0 0-.771-.436c-.102-.024-1.063-.04-2.362-.041-1.566-.001-2.19-.014-2.19-.045 0-.024.119-.974.264-2.11.176-1.377.258-2.146.245-2.307-.032-.414-.283-.785-.677-1-.179-.097-.266-.117-.552-.127-.228-.007-.391.008-.494.048M2.789 9.44c-.41.073-.776.346-.956.712-.067.137-.096.277-.107.516-.012.287-.001.356.092.56.129.282.335.503.602.645l.2.107 1.374.012c1.541.013 1.589.007 1.943-.262.13-.099.245-.238.339-.41.132-.24.143-.286.144-.6 0-.291-.016-.372-.111-.566a1.357 1.357 0 0 0-.664-.628l-.225-.105-1.22-.008c-.671-.004-1.306.008-1.411.027m-.154 5.175c-.383.104-.776.497-.879.879-.061.227-.027.732.062.906.143.28.338.473.612.608l.268.132h7.482l.187-.086c.265-.123.533-.385.662-.648.093-.19.111-.278.111-.546s-.018-.356-.111-.546a1.502 1.502 0 0 0-.662-.648c-.187-.086-.188-.086-3.867-.094-2.847-.006-3.722.004-3.865.043m-.176 5.219c-.293.139-.571.433-.669.709-.091.254-.091.66 0 .914.098.276.376.571.669.709l.241.114h5.16l5.16-.001.22-.102c.272-.126.494-.335.633-.597.094-.176.107-.245.107-.58 0-.334-.013-.404-.107-.583a1.5 1.5 0 0 0-.601-.585l-.172-.092-5.2-.01-5.2-.011-.241.115" fill="#1C1C1E" fill-rule="evenodd"/></svg>