<svg width="24" height="24" fill="none" xmlns="http://www.w3.org/2000/svg"><path d="M15.56 1.861a2.03 2.03 0 0 0-.429.19c-.249.154-4.437 3.588-4.679 3.837a2.521 2.521 0 0 0-.544.932c-.088.279-.088.296-.088 3.32 0 2.428.011 3.084.054 3.26.202.815.846 1.488 1.629 1.702.323.088 1.485.126 1.826.06a1.45 1.45 0 0 0 1.065-.835l.106-.227.011-2.09.012-2.09h2.954l.012 2.09.011 2.09.106.227a1.45 1.45 0 0 0 1.065.835c.341.066 1.503.028 1.826-.06.598-.163 1.177-.642 1.435-1.187.255-.539.248-.437.248-3.775 0-3.024 0-3.041-.088-3.32a2.56 2.56 0 0 0-.525-.914c-.16-.168-4.234-3.53-4.564-3.768a2.23 2.23 0 0 0-.408-.224c-.28-.106-.756-.13-1.035-.053M2.655 9.563c-.35.104-.722.49-.819.85-.115.427.061.952.412 1.229.338.268.451.284 1.899.27 1.231-.012 1.28-.015 1.477-.104.931-.422.949-1.72.03-2.172-.192-.095-.209-.096-1.534-.103-.738-.004-1.396.009-1.465.03m-.156 5.211c-.403.188-.699.648-.699 1.086 0 .411.282.877.642 1.061.295.151.594.163 3.679.151L9.1 17.06l.22-.104c.315-.148.46-.286.601-.571a1.157 1.157 0 0 0-.516-1.574l-.252-.131H5.927l-3.227.001-.201.093m.114 5.1c-.371.128-.617.377-.751.761-.202.574.129 1.261.712 1.479l.229.086H7.86c5.009 0 5.059-.001 5.277-.082.269-.101.555-.368.675-.629s.12-.715.001-.975a1.388 1.388 0 0 0-.607-.608l-.186-.086-5.1-.009c-4.814-.009-5.112-.005-5.307.063" fill="#1C1C1E" fill-rule="evenodd"/></svg>