<svg width="24" height="24" fill="none" xmlns="http://www.w3.org/2000/svg"><path d="M14.6 2.581a2.497 2.497 0 0 0-1.238.796c-.202.234-.332.485-.45.869l-.09.294-.012 4.312c-.013 4.14-.016 4.312-.085 4.289-.489-.155-1.482-.186-2.065-.065a4.237 4.237 0 0 0-2.896 2.204c-.364.714-.465 1.147-.461 1.98.002.559.016.689.107 1.028.619 2.3 2.932 3.669 5.195 3.074 1.492-.393 2.647-1.547 3.065-3.063l.11-.399.011-6.01c.006-3.305.019-6.01.028-6.01.01 0 .821.4 1.803.89l1.786.89h.406c.357 0 .434-.013.635-.108.293-.137.583-.427.733-.733.105-.213.118-.279.118-.619 0-.334-.014-.41-.115-.629-.223-.484-.288-.525-2.732-1.742-1.206-.601-2.319-1.135-2.473-1.187-.362-.121-1.052-.151-1.38-.061m-8.031.321a2.056 2.056 0 0 0-.337.122c-.235.122-.537.447-.657.707-.113.244-.115.265-.128 1.054l-.013.806-.787.018c-.693.016-.815.029-1.018.108a1.64 1.64 0 0 0-.813.772c-.102.221-.116.296-.116.631 0 .329.014.411.108.609a1.7 1.7 0 0 0 .743.743c.222.105.255.108 1.056.121l.827.013.013.827c.013.801.016.834.121 1.056a1.7 1.7 0 0 0 .743.743c.201.095.278.108.629.108.361 0 .423-.011.638-.117.314-.154.559-.406.715-.735l.127-.268.014-.81.013-.81h.75c.852 0 1.014-.032 1.35-.263 1.101-.758.712-2.481-.609-2.698a7.891 7.891 0 0 0-.865-.039h-.627l-.014-.79c-.013-.708-.024-.814-.105-1.018A1.536 1.536 0 0 0 7.295 2.9a1.215 1.215 0 0 0-.726.002" fill="#1C1C1E" fill-rule="evenodd"/></svg>