<svg width="24" height="24" fill="none" xmlns="http://www.w3.org/2000/svg"><path d="M11.6 1.825c-1.281.163-2.308.673-3.178 1.579a5.833 5.833 0 0 0-1.507 2.838c-.126.59-.127 1.561-.002 2.146.442 2.062 2.059 4.098 4.797 6.044.835.593 2.157 1.38 2.77 1.649.307.135.733.135 1.04 0 1.29-.566 3.436-2.027 4.66-3.172 1.657-1.55 2.576-2.98 2.907-4.521.125-.586.124-1.555-.003-2.148-.354-1.654-1.425-3.105-2.846-3.855-.76-.401-1.433-.561-2.358-.561-1.044 0-1.783.201-2.65.723l-.23.139-.23-.139a4.929 4.929 0 0 0-1.66-.648c-.327-.063-1.241-.108-1.51-.074M2.655 9.563c-.35.104-.722.49-.819.85-.115.427.061.952.412 1.229.338.268.451.284 1.899.27 1.231-.012 1.28-.015 1.477-.104.931-.422.949-1.72.03-2.172-.192-.095-.209-.096-1.534-.103-.738-.004-1.396.009-1.465.03m-.156 5.211c-.403.188-.699.648-.699 1.086 0 .41.282.877.64 1.06.306.156.532.164 4.16.152l3.5-.012.22-.104c.315-.148.46-.286.601-.571a1.157 1.157 0 0 0-.516-1.574l-.252-.131H6.427l-3.727.001-.201.093m.114 5.1c-.371.128-.617.377-.751.761-.202.574.129 1.261.712 1.479l.229.086h10.114l.228-.085c.272-.102.544-.357.667-.627.119-.26.12-.715.001-.974a1.388 1.388 0 0 0-.607-.608l-.186-.086-5.1-.009c-4.814-.009-5.112-.005-5.307.063" fill="#1C1C1E" fill-rule="evenodd"/></svg>