<svg width="24" height="24" fill="none" xmlns="http://www.w3.org/2000/svg"><path d="M8.12 1.805c-.749.078-1.355.303-1.657.614-.613.631-.362 1.704.472 2.016.302.113.563.108.916-.018.467-.167 1.096-.184 6.189-.167 5.045.017 4.85.007 5.196.247.087.06.207.18.267.267.24.346.23.151.247 5.196.017 5.125 0 5.716-.172 6.2-.187.521-.083 1.013.289 1.366.27.256.466.333.853.333.405 0 .625-.084.875-.334.298-.298.522-.9.602-1.618.059-.528.059-10.286 0-10.814-.049-.44-.191-.964-.343-1.265-.407-.809-1.191-1.521-1.995-1.813-.653-.237-.442-.229-6.159-.238-2.882-.004-5.393.008-5.58.028M4.692 5.043c-.763.058-1.279.266-1.78.715a2.925 2.925 0 0 0-.696 1.021c-.196.541-.196.529-.196 6.721 0 6.117.001 6.16.181 6.683.236.687.892 1.352 1.578 1.601.541.196.529.196 6.721.196s6.18 0 6.721-.196c.686-.249 1.342-.914 1.578-1.601.18-.523.181-.566.181-6.683 0-6.192 0-6.18-.196-6.721-.269-.741-.994-1.412-1.747-1.617a5.414 5.414 0 0 0-.8-.122c-.592-.046-10.944-.043-11.545.003M8.9 9.753c.46.256 5.172 3.308 5.3 3.433.119.115.14.162.14.314 0 .151-.021.199-.14.315-.136.133-5.024 3.294-5.353 3.461a.76.76 0 0 1-.255.084c-.134 0-.346-.143-.403-.27-.071-.159-.071-7.021 0-7.18.058-.131.271-.27.411-.269.055 0 .19.051.3.112" fill="#1C1C1E" fill-rule="evenodd"/></svg>