<svg width="24" height="24" fill="none" xmlns="http://www.w3.org/2000/svg"><path d="M6.775.94c-.31.067-.673.213-.961.386-.302.181-.765.64-.944.936-.195.322-.374.875-.427 1.318-.06.503-.06 16.337 0 16.84.134 1.118.708 1.951 1.657 2.405.471.225.883.309 1.399.284.486-.024.763-.099 1.261-.34.357-.174 12.382-8.182 12.765-8.502.45-.375.725-.779.92-1.348.119-.348.13-.421.132-.899.003-.439-.012-.567-.091-.82a3.02 3.02 0 0 0-1.096-1.572c-.181-.141-3.012-2.044-6.29-4.229C8.83 1.22 8.615 1.085 7.972.944A3.213 3.213 0 0 0 6.775.94" fill="#1C1C1E" fill-rule="evenodd"/></svg>