<svg width="24" height="24" fill="none" xmlns="http://www.w3.org/2000/svg"><path d="M6.58 2.047c-.721.138-1.381.801-1.536 1.545-.062.3-.062 16.516 0 16.816C5.232 21.31 6.08 22 7 22c.92 0 1.768-.69 1.956-1.592.062-.3.062-16.516 0-16.816-.159-.762-.818-1.411-1.573-1.549a2.106 2.106 0 0 0-.803.004m10 0c-.721.138-1.381.801-1.536 1.545-.062.3-.062 16.516 0 16.816C15.232 21.31 16.08 22 17 22c.92 0 1.768-.69 1.956-1.592.062-.3.062-16.516 0-16.816-.159-.762-.818-1.411-1.573-1.549a2.106 2.106 0 0 0-.803.004" fill="#1C1C1E" fill-rule="evenodd"/></svg>