<svg width="24" height="24" fill="none" xmlns="http://www.w3.org/2000/svg"><path d="M10.8.566A11.402 11.402 0 0 0 3.898 3.86 10.84 10.84 0 0 0 2.131 6.1c-2.168 3.603-2.168 8.188 0 11.8 2.199 3.665 6.274 5.83 10.495 5.577 2.622-.157 4.944-1.098 6.914-2.802 4.485-3.88 5.263-10.592 1.785-15.395A11.486 11.486 0 0 0 13.143.563c-.506-.05-1.847-.048-2.343.003m2.326 3.018c3.783.489 6.797 3.51 7.292 7.308a10.39 10.39 0 0 1 0 2.216 8.489 8.489 0 0 1-10.496 7.129 8.504 8.504 0 0 1-5.867-5.231c-.596-1.571-.703-3.416-.295-5.066.828-3.345 3.675-5.902 7.08-6.356.586-.078 1.683-.078 2.286 0m-1.633 3.008c-.391.139-.738.482-.905.896-.081.2-.086.292-.1 1.622l-.014 1.41-1.387.001c-1.547.002-1.63.013-1.976.279-.396.305-.6.712-.6 1.2 0 .632.37 1.167.977 1.412.2.08.293.086 1.599.1l1.387.014.014 1.387c.014 1.306.02 1.399.1 1.599.245.607.78.977 1.412.977.632 0 1.167-.37 1.412-.977.08-.2.086-.293.1-1.599l.014-1.387 1.387-.014c1.348-.015 1.394-.018 1.627-.11.337-.133.733-.531.858-.862.123-.325.124-.752.003-1.071-.116-.305-.451-.669-.754-.817l-.227-.112-1.45-.012-1.45-.012V9.268c0-.686-.018-1.355-.039-1.486a1.564 1.564 0 0 0-.837-1.132c-.292-.143-.837-.17-1.151-.058" fill="#1C1C1E" fill-rule="evenodd"/></svg>