<svg width="24" height="24" fill="none" xmlns="http://www.w3.org/2000/svg"><path d="M10.637.652a1.405 1.405 0 0 0-.913.786c-.086.185-.104.279-.104.562 0 .483.107.697.604 1.202l.382.389-1.233.02c-1.308.021-1.665.058-2.453.253-1.095.271-2.232.838-3.164 1.58-.446.354-1.231 1.171-1.534 1.594-1.14 1.594-1.681 3.37-1.61 5.282a8.228 8.228 0 0 0 2.325 5.471c.548.568.91.87 1.502 1.257.67.437 1.109.639 1.445.663 1.065.076 1.825-1.002 1.384-1.964-.144-.315-.389-.54-.85-.782a5.564 5.564 0 0 1-1.46-1.113 5.54 5.54 0 0 1-1.464-2.833c-.098-.491-.097-1.538.001-2.038.15-.759.45-1.487.884-2.141.256-.386 1.075-1.205 1.461-1.461a5.931 5.931 0 0 1 2.049-.866c.31-.068.566-.084 1.551-.101l1.18-.02-.389.398c-.504.515-.611.726-.611 1.21 0 .284.017.377.105.565.149.316.36.533.668.685.237.116.302.13.607.13.606 0 .598.006 2.508-1.908C15.404 5.572 15.38 5.603 15.38 5s.024-.572-1.872-2.472C11.664.68 11.63.653 11.098.618a1.615 1.615 0 0 0-.461.034m9.513.403c-.204.076-.255.118-1.487 1.232-.644.581-1.106 1.03-1.15 1.115-.188.368-.127.76.163 1.041.22.213.469.301.745.263.25-.034.347-.093.759-.462l.36-.322.02 2.212.02 2.212.121.196c.075.121.196.242.317.317.36.223.885.143 1.153-.176.24-.285.233-.152.22-3.746l-.011-3.283-.121-.196c-.228-.369-.721-.548-1.109-.403m1.487 9.597a1.392 1.392 0 0 0-.908.781c-.081.176-.106.318-.135.742-.063.939-.232 1.609-.583 2.305a5.148 5.148 0 0 1-.969 1.372c-.665.694-1.388 1.159-2.244 1.444-.759.252-.904.271-2.218.292l-1.2.02.389-.398c.505-.515.611-.726.611-1.211 0-.304-.014-.369-.13-.606a1.373 1.373 0 0 0-.685-.667c-.186-.086-.284-.104-.566-.105-.604-.002-.596-.008-2.507 1.907-1.896 1.9-1.872 1.869-1.872 2.473 0 .605-.006.597 1.908 2.507 1.9 1.896 1.869 1.872 2.473 1.872.304 0 .369-.014.606-.13a1.38 1.38 0 0 0 .668-.685c.088-.188.105-.281.105-.565 0-.484-.107-.696-.608-1.206l-.387-.394 1.058-.001c1.46-.002 2.23-.104 3.19-.425a8.141 8.141 0 0 0 3.201-1.953c1.479-1.437 2.314-3.167 2.527-5.234.094-.914.008-1.356-.341-1.741-.312-.346-.93-.522-1.383-.394" fill="#1C1C1E" fill-rule="evenodd"/></svg>