<svg width="24" height="24" fill="none" xmlns="http://www.w3.org/2000/svg"><path d="M10.556 1.612c-.288.121-.44.231-.613.441-.245.299-.318.517-.318.947-.001.324.014.412.102.6.056.121.176.303.266.404l.164.184-.849.024c-.915.025-1.354.083-2.059.27-2.107.559-3.931 2.053-4.929 4.038a7.858 7.858 0 0 0-.577 5.411c.506 1.996 1.795 3.709 3.605 4.789.742.443 1.131.546 1.604.425a1.494 1.494 0 0 0 .98-2.131c-.142-.29-.371-.497-.812-.736-1.155-.624-1.964-1.568-2.362-2.758a4.563 4.563 0 0 1-.238-1.546c-.001-2.176 1.435-4.035 3.56-4.61.422-.114.889-.164 1.534-.164h.556l-.168.183c-.093.1-.216.285-.273.41-.09.194-.105.282-.105.607 0 .324.015.413.103.6.29.624.968.993 1.612.877.473-.085.572-.167 2.191-1.788 1.285-1.288 1.521-1.542 1.61-1.736a1.48 1.48 0 0 0 0-1.305c-.089-.195-.322-.446-1.61-1.737-1.759-1.762-1.756-1.76-2.37-1.781-.328-.011-.411 0-.604.082m6.538 3.227c-.763.162-1.306.95-1.171 1.698.092.509.387.895.865 1.137a4.996 4.996 0 0 1 2.146 2.082 4.894 4.894 0 0 1 .319 3.744c-.429 1.322-1.489 2.456-2.753 2.945-.674.261-1.007.322-1.878.345l-.798.021.173-.196c.288-.323.379-.567.379-1.015 0-.324-.015-.413-.103-.6a1.503 1.503 0 0 0-.704-.729c-.248-.122-.296-.131-.669-.131-.671 0-.647-.018-2.428 1.768-1.278 1.281-1.524 1.546-1.61 1.736-.213.466-.212.847 0 1.313.086.188.335.457 1.608 1.732 1.619 1.622 1.718 1.703 2.192 1.788.653.118 1.379-.291 1.627-.917.065-.165.087-.304.087-.56 0-.42-.097-.692-.354-.985l-.179-.205.868-.021c1.205-.029 1.92-.166 2.889-.552 2.574-1.027 4.405-3.357 4.822-6.137.089-.59.089-1.662 0-2.22-.41-2.578-1.983-4.75-4.23-5.841-.445-.216-.755-.273-1.098-.2" fill="#1C1C1E" fill-rule="evenodd"/></svg>