<svg width="24" height="24" fill="none" xmlns="http://www.w3.org/2000/svg"><path d="M10.637.652a1.405 1.405 0 0 0-.913.786c-.086.185-.104.279-.104.562 0 .483.107.697.604 1.202l.382.389-1.233.02c-1.308.021-1.665.058-2.453.253-1.095.271-2.232.838-3.164 1.58-.446.354-1.231 1.171-1.534 1.594-1.14 1.594-1.681 3.37-1.61 5.282a8.228 8.228 0 0 0 2.325 5.471c.548.568.91.87 1.502 1.257.67.437 1.109.639 1.445.663 1.065.076 1.825-1.002 1.384-1.964-.144-.315-.389-.54-.85-.782a5.564 5.564 0 0 1-1.46-1.113 5.54 5.54 0 0 1-1.464-2.833c-.098-.491-.097-1.538.001-2.038.15-.759.45-1.487.884-2.141.256-.386 1.075-1.205 1.461-1.461a5.931 5.931 0 0 1 2.049-.866c.31-.068.566-.084 1.551-.101l1.18-.02-.389.398c-.504.515-.611.726-.611 1.21 0 .284.017.377.105.565.149.316.36.533.668.685.237.116.302.13.607.13.606 0 .598.006 2.508-1.908C15.404 5.572 15.38 5.603 15.38 5s.024-.572-1.872-2.472C11.664.68 11.63.653 11.098.618a1.615 1.615 0 0 0-.461.034m9.337.404c-1.16.222-2.045.904-2.53 1.95-.24.517-.301.807-.301 1.434 0 .627.061.917.301 1.434.36.777.907 1.323 1.689 1.686.51.236.802.297 1.427.297.627 0 .917-.061 1.434-.301.936-.434 1.564-1.166 1.872-2.184.094-.312.106-.419.106-.932 0-.516-.012-.62-.108-.938-.358-1.185-1.286-2.09-2.444-2.385-.413-.105-1.07-.133-1.446-.061m-.514 1.555c.044.022.31.266.59.542l.51.503.53-.524c.397-.393.568-.534.68-.565a.539.539 0 0 1 .663.663c-.031.112-.172.282-.565.679l-.523.53.523.532c.387.393.534.571.565.681a.552.552 0 0 1-.377.669c-.246.082-.384 0-.966-.574l-.53-.523-.53.524c-.622.615-.737.675-1.038.541-.143-.063-.199-.118-.271-.268-.15-.308-.094-.419.531-1.051l.524-.53-.523-.53c-.574-.582-.656-.72-.574-.966a.547.547 0 0 1 .781-.333m2.177 8.041a1.392 1.392 0 0 0-.908.781c-.081.176-.106.318-.135.742-.063.939-.232 1.609-.583 2.305a5.148 5.148 0 0 1-.969 1.372c-.665.694-1.388 1.159-2.244 1.444-.759.252-.904.271-2.218.292l-1.2.02.389-.398c.505-.515.611-.726.611-1.211 0-.304-.014-.369-.13-.606a1.373 1.373 0 0 0-.685-.667c-.186-.086-.284-.104-.566-.105-.604-.002-.596-.008-2.507 1.907-1.896 1.9-1.872 1.869-1.872 2.473 0 .605-.006.597 1.908 2.507 1.9 1.896 1.869 1.872 2.473 1.872.304 0 .369-.014.606-.13a1.38 1.38 0 0 0 .668-.685c.088-.188.105-.281.105-.565 0-.484-.107-.696-.608-1.206l-.387-.394 1.058-.001c1.46-.002 2.23-.104 3.19-.425a8.141 8.141 0 0 0 3.201-1.953c1.479-1.437 2.314-3.167 2.527-5.234.094-.914.008-1.356-.341-1.741-.312-.346-.93-.522-1.383-.394" fill="#1C1C1E" fill-rule="evenodd"/></svg>