<svg width="24" height="24" fill="none" xmlns="http://www.w3.org/2000/svg"><path d="M10.25 1.583c-2.754.334-5.354 1.904-6.948 4.197-.965 1.387-1.513 2.839-1.746 4.62-.092.707-.052 1.962.088 2.8.231 1.37.824 2.822 1.628 3.98a9.994 9.994 0 0 0 10.65 4.018 10.004 10.004 0 0 0 3.217-1.441l.28-.194 1.34 1.332c1.444 1.434 1.535 1.506 2.013 1.584.978.159 1.866-.729 1.707-1.707-.078-.478-.15-.569-1.584-2.013l-1.332-1.34.194-.28c1.612-2.328 2.137-5.322 1.426-8.127-1.004-3.962-4.424-6.956-8.485-7.432-.632-.073-1.827-.072-2.448.003m2.283 3.002c2.059.297 3.869 1.514 4.991 3.355.431.707.772 1.685.897 2.574.098.694.064 1.8-.075 2.426a6.899 6.899 0 0 1-1.948 3.54c-1.036 1.028-2.275 1.664-3.758 1.925-.639.113-1.641.113-2.28 0-2.111-.372-3.815-1.554-4.922-3.412-.409-.686-.733-1.626-.857-2.478A8.959 8.959 0 0 1 4.52 11.5c0-1.914.693-3.591 2.041-4.939a6.892 6.892 0 0 1 3.879-1.976c.529-.08 1.543-.08 2.093 0" fill="#1C1C1E" fill-rule="evenodd"/></svg>