<svg width="24" height="24" fill="none" xmlns="http://www.w3.org/2000/svg"><path d="M11.578 2.056a1.842 1.842 0 0 0-1.201.962c-.12.243-.149.356-.182.706-.064.661-.105.816-.289 1.085-.195.285-.458.48-.771.571-.657.191-1.108.085-1.641-.385-.401-.354-.704-.486-1.164-.508-.41-.018-.644.026-.95.179a1.763 1.763 0 0 0-.901 1.056c-.072.212-.084.326-.072.638.013.34.031.413.16.68.08.165.255.425.389.577.473.538.562 1.13.263 1.761-.147.312-.385.56-.671.701-.199.098-.348.134-.744.181-.605.07-.898.193-1.239.519-.587.559-.727 1.373-.365 2.12.264.546.943.98 1.534.981.778.001 1.314.306 1.596.908.108.232.123.307.123.612 0 .303-.015.381-.12.606a2.608 2.608 0 0 1-.348.512c-.125.14-.279.364-.344.499-.474.994.024 2.147 1.081 2.504.213.072.324.084.638.071.48-.02.771-.143 1.196-.504.356-.303.508-.385.836-.453.648-.134 1.382.222 1.683.816.11.216.137.325.168.681.057.654.217 1.012.626 1.394.957.894 2.541.457 2.935-.81.042-.134.076-.336.076-.45.001-.329.075-.699.184-.914.289-.571.984-.916 1.603-.795.308.059.538.182.839.448.148.131.379.291.513.355.992.473 2.145-.026 2.502-1.082.072-.213.084-.324.071-.638-.02-.48-.143-.771-.504-1.196-.304-.358-.385-.508-.449-.833-.067-.339-.022-.634.146-.97.252-.504.647-.75 1.292-.807.666-.058.979-.176 1.327-.501a1.81 1.81 0 0 0-.467-2.98c-.22-.103-.334-.128-.738-.158-.54-.04-.815-.125-1.089-.334-.408-.311-.643-.941-.555-1.486.053-.334.172-.565.45-.881.531-.601.668-1.267.403-1.963-.166-.437-.475-.754-.954-.981-.26-.123-.298-.13-.734-.13-.431 0-.476.008-.721.123a3.244 3.244 0 0 0-.56.376c-.377.318-.65.447-.998.472-.476.034-.994-.189-1.279-.548-.177-.223-.32-.58-.322-.803-.006-.655-.208-1.17-.598-1.532-.468-.433-1.069-.597-1.664-.452m1.178 7.041c.337.092.839.35 1.117.574C14.554 10.219 15 11.14 15 12c0 .781-.359 1.603-.948 2.173-1.083 1.047-2.829 1.102-3.972.124-.456-.39-.866-1.05-1.005-1.617-.069-.282-.07-1.075-.001-1.36.079-.326.414-.99.621-1.232a3.169 3.169 0 0 1 1.808-1.048c.267-.049.988-.016 1.253.057" fill="#1C1C1E" fill-rule="evenodd"/></svg>