<svg width="24" height="24" fill="none" xmlns="http://www.w3.org/2000/svg"><path d="M4.493 3.592c-.39.139-.736.48-.906.896L3.5 4.7v14.6l.087.212c.25.609.782.977 1.413.977s1.163-.368 1.413-.977L6.5 19.3l.011-7.12c.007-4.54-.003-7.213-.028-7.376a1.555 1.555 0 0 0-.839-1.154c-.292-.143-.837-.17-1.151-.058m12.951.071c-.311.084-.523.185-.899.43-.547.357-7.491 5.936-7.788 6.258-.444.479-.642.989-.642 1.649s.198 1.17.642 1.649c.165.179 1.558 1.322 3.743 3.07a488.374 488.374 0 0 0 3.786 3.012c.646.477 1.145.673 1.717.674 1.14.002 2.092-.729 2.376-1.825.035-.132.08-.492.101-.8.051-.735.051-10.825 0-11.56-.045-.656-.108-.931-.307-1.338-.275-.563-.927-1.067-1.578-1.221-.319-.075-.867-.074-1.151.002" fill="#1C1C1E" fill-rule="evenodd"/></svg>