<svg width="24" height="24" fill="none" xmlns="http://www.w3.org/2000/svg"><path d="M19.3.801c-1.263.135-2.376.977-2.825 2.138-.197.51-.245.809-.223 1.401.022.621.082.866.345 1.4a3.262 3.262 0 0 0 1.486 1.519c.559.289.871.361 1.577.36.691 0 .927-.048 1.457-.301.972-.464 1.639-1.277 1.885-2.298.107-.443.106-1.162-.002-1.613-.299-1.247-1.296-2.242-2.528-2.523A3.57 3.57 0 0 0 19.3.801m-.748 1.576c.059.032.333.284.607.56l.5.503.52-.516c.287-.283.56-.535.608-.56.264-.133.631.017.729.299.109.313.057.412-.538 1.016l-.536.544.502.499c.276.274.529.55.563.615.201.379-.196.87-.617.764-.066-.016-.329-.245-.659-.572l-.55-.544-.553.544c-.58.571-.692.639-.954.573-.137-.034-.362-.259-.396-.396-.066-.262.002-.374.573-.955l.545-.553-.551-.553c-.488-.489-.553-.57-.572-.713-.058-.428.401-.755.779-.555m-14.915.275a1.405 1.405 0 0 0-.913.786c-.087.185-.104.279-.104.563 0 .631-.144.46 3.088 3.683 2.247 2.241 2.873 2.844 3.032 2.92.168.08.262.096.58.096.327 0 .411-.015.606-.106.288-.135.533-.38.668-.668.092-.196.106-.277.105-.606-.001-.316-.017-.414-.096-.58-.076-.159-.67-.777-2.919-3.032-3.14-3.148-3.029-3.053-3.586-3.09a1.615 1.615 0 0 0-.461.034M15.089 7.24c-.094.02-.257.083-.363.14-.136.074-1.901 1.816-6.053 5.972-6.582 6.59-6.051 6.006-6.052 6.649-.001.305.013.369.129.606.152.308.369.519.685.668.188.088.281.105.566.105.652 0 .096.507 6.723-6.128 6.392-6.401 5.998-5.978 6.061-6.508.106-.905-.785-1.696-1.696-1.504m-.932 6.131c-.598.253-.906.744-.869 1.387.031.529.027.524 1.763 2.268l1.559 1.566-.696.014c-.693.014-.697.014-.963.145-.296.146-.528.38-.677.68-.077.158-.093.252-.093.569 0 .317.016.411.093.569.149.3.381.534.677.68l.267.131h5.124l.265-.13a1.38 1.38 0 0 0 .668-.685l.105-.225v-5.12l-.105-.225a1.38 1.38 0 0 0-.668-.685c-.237-.116-.302-.13-.607-.13s-.37.014-.607.13a1.38 1.38 0 0 0-.668.685c-.099.211-.106.267-.118.921l-.014.696-1.546-1.542c-1.763-1.758-1.759-1.755-2.327-1.779-.288-.012-.374.001-.563.08" fill="#1C1C1E" fill-rule="evenodd"/></svg>