<svg width="24" height="24" fill="none" xmlns="http://www.w3.org/2000/svg"><path d="M3.493 2.592c-.588.21-.982.774-.982 1.408 0 .364.095.637.324.933.088.114 1.39 1.432 2.893 2.93 2.555 2.546 2.749 2.73 2.992 2.838.223.1.309.116.6.115.475-.003.742-.111 1.064-.432.32-.321.429-.588.433-1.064.002-.304-.012-.37-.129-.62-.125-.266-.278-.426-2.96-3.105-3.21-3.206-3.014-3.042-3.666-3.064-.275-.01-.412.005-.569.061m11.564.001c-1.124.388-1.348 1.903-.386 2.61.301.221.531.284 1.123.307l.533.022-6.778 6.784c-7.351 7.357-6.941 6.922-7.028 7.456-.159.978.729 1.866 1.707 1.707.534-.087.099.323 7.456-7.028l6.784-6.778.022.533c.023.592.086.822.307 1.123a1.49 1.49 0 0 0 2.423-.026c.288-.405.28-.316.28-3.103 0-2.475-.001-2.502-.087-2.712-.171-.417-.519-.76-.906-.894-.19-.066-.412-.071-2.727-.071-2.3 0-2.538.006-2.723.07m-.776 10.629a1.577 1.577 0 0 0-1.008.892c-.068.171-.09.309-.091.566 0 .302.014.371.13.617.119.253.253.4 1.593 1.746l1.463 1.47-.614.013c-.578.013-.627.021-.844.127-.589.289-.955.978-.836 1.573.138.686.618 1.153 1.293 1.258.16.025 1.157.036 2.596.028 2.294-.012 2.341-.014 2.549-.099.41-.168.733-.491.901-.901.085-.208.087-.255.099-2.549.008-1.439-.003-2.436-.028-2.596a1.527 1.527 0 0 0-.834-1.154c-.272-.134-.775-.176-1.079-.09a1.625 1.625 0 0 0-.785.567c-.222.324-.271.507-.295 1.102l-.023.532-1.444-1.436c-1.269-1.261-1.476-1.451-1.704-1.561a1.513 1.513 0 0 0-1.039-.105" fill="#1C1C1E" fill-rule="evenodd"/></svg>