<svg width="24" height="24" fill="none" xmlns="http://www.w3.org/2000/svg"><path d="M20.155 1.053c-.21.079-.269.127-1.472 1.215-.711.642-1.125 1.046-1.176 1.144a.855.855 0 0 0 .167 1.033.847.847 0 0 0 .666.274c.239-.001.441-.115.84-.474l.36-.323.02 2.209c.021 2.364.011 2.25.23 2.543.128.172.454.325.69.325.38 0 .78-.297.878-.653.033-.12.042-1.076.034-3.429l-.012-3.263-.121-.196c-.226-.366-.722-.548-1.104-.405M3.637 2.652a1.399 1.399 0 0 0-.912.786c-.086.185-.103.279-.102.562.002.626-.177.413 3.011 3.609C8.867 10.85 8.689 10.7 9.32 10.7c.326 0 .411-.015.6-.104.281-.132.544-.395.676-.676.089-.189.104-.274.104-.6 0-.63.147-.455-3.071-3.67-2.467-2.464-2.837-2.819-3.037-2.91-.276-.126-.687-.164-.955-.088m12 4c-.1.029-.262.099-.36.157-.102.061-2.786 2.718-6.321 6.258-6.898 6.909-6.331 6.287-6.334 6.934-.002.306.011.368.128.606.152.308.37.52.685.667.186.086.284.104.566.105.653.002.059.546 7.023-6.427 6.921-6.93 6.351-6.306 6.354-6.953.002-.306-.011-.368-.13-.608a1.354 1.354 0 0 0-1.156-.773 1.584 1.584 0 0 0-.455.034m-1.393 6.686a1.371 1.371 0 0 0-.955 1.417c.032.532.048.554 1.78 2.291l1.542 1.546-.696.014c-.65.014-.71.022-.92.12a1.37 1.37 0 0 0-.685.667c-.116.237-.13.302-.13.606 0 .285.017.378.105.566.149.316.36.533.668.685l.265.13h5.124l.265-.13a1.38 1.38 0 0 0 .668-.685l.105-.225v-5.12l-.105-.225a1.38 1.38 0 0 0-.668-.685c-.237-.116-.302-.13-.607-.13s-.37.014-.607.13a1.37 1.37 0 0 0-.667.685c-.098.21-.106.27-.12.92l-.014.696-1.546-1.544c-1.75-1.747-1.762-1.756-2.326-1.775a1.614 1.614 0 0 0-.476.046" fill="#1C1C1E" fill-rule="evenodd"/></svg>