<svg width="24" height="24" fill="none" xmlns="http://www.w3.org/2000/svg"><path d="M18.54 3.573a1.608 1.608 0 0 0-.892.787l-.108.22v14.84l.088.19c.122.265.46.608.728.74.201.099.267.11.644.11s.443-.011.644-.11c.268-.132.606-.475.728-.74l.088-.19V4.58l-.088-.19c-.121-.263-.446-.594-.719-.732-.193-.097-.283-.117-.59-.126-.222-.007-.425.009-.523.041m-13.154.09c-.378.092-.843.358-1.142.654-.303.301-.48.609-.612 1.064L3.54 5.7v12.6l.092.319c.128.44.304.751.59 1.041.271.276.619.497.991.63.207.073.332.088.767.087.462 0 .55-.012.789-.103.148-.057.423-.2.612-.319.487-.307 7.414-5.85 7.78-6.226.5-.514.718-1.039.718-1.729 0-.652-.216-1.201-.659-1.675-.226-.243-6.238-5.091-7.354-5.931-.56-.421-.954-.64-1.324-.734-.294-.074-.843-.073-1.156.003" fill="#1C1C1E" fill-rule="evenodd"/></svg>