<svg width="24" height="24" fill="none" xmlns="http://www.w3.org/2000/svg"><path d="M7 2.548a3.841 3.841 0 0 0-2.343 1.138c-.621.646-.88 1.2-1.094 2.342-.127.674-.754 4.819-.807 5.329-.062.602-.026 1.334.084 1.723.28.983.993 1.87 1.874 2.332.695.363 1.217.454 2.833.493l1.127.028.016 1.343c.018 1.506.032 1.598.347 2.264.499 1.058 1.56 1.804 2.758 1.939.889.101 1.667-.233 2.138-.918.068-.099.728-1.539 1.467-3.2l1.343-3.021.778-.026c.898-.031 1.168-.055 1.492-.138 1.073-.275 1.94-1.19 2.193-2.316.079-.351.079-6.569 0-6.92-.283-1.261-1.293-2.203-2.55-2.378C18.375 2.523 7.361 2.509 7 2.548m7.27 6.502-.011 3.53L13 15.386c-.692 1.544-1.273 2.798-1.29 2.788-.016-.01-.03-.733-.031-1.606 0-1.756-.017-1.923-.243-2.398-.27-.569-.956-1.095-1.573-1.207-.131-.024-.716-.044-1.3-.044a39.377 39.377 0 0 1-1.675-.037c-.716-.042-.84-.087-1.038-.379-.207-.306-.208-.298.329-3.783.184-1.199.365-2.312.402-2.473.091-.398.277-.612.599-.69.066-.016 1.691-.031 3.61-.033l3.491-.004-.011 3.53m3.986-3.467c.036.095.028 5.589-.009 5.646-.02.032-.198.059-.499.076l-.468.027V5.52h.476c.397 0 .479.01.5.063" fill="#1C1C1E" fill-rule="evenodd"/></svg>