<svg width="24" height="24" fill="none" xmlns="http://www.w3.org/2000/svg"><path d="M11.25 2.582a2.2 2.2 0 0 0-1.13.758c-.122.158-.526 1.024-1.533 3.287L7.22 9.7l-1.02.023c-.917.021-1.048.032-1.3.115-1.08.352-1.829 1.15-2.125 2.262-.07.262-.075.483-.075 3.5s.005 3.238.075 3.5c.318 1.193 1.193 2.054 2.365 2.326.304.07.611.074 6.08.074 6.111 0 5.888.006 6.5-.188a3.96 3.96 0 0 0 2.295-1.943c.268-.529.324-.798.81-3.929.415-2.672.468-3.075.465-3.5a3.65 3.65 0 0 0-.343-1.552c-.514-1.114-1.555-1.951-2.726-2.192-.307-.064-.55-.075-1.626-.075l-1.266-.001-.02-1.31c-.018-1.159-.03-1.348-.105-1.643-.332-1.309-1.37-2.32-2.652-2.584-.377-.077-1.018-.078-1.302-.001m1.162 6.921a2.344 2.344 0 0 0 1.528 1.501c.27.088.342.092 1.999.107 1.86.017 1.826.013 2.075.244a.82.82 0 0 1 .266.615c0 .118-.198 1.498-.44 3.068-.392 2.545-.45 2.873-.542 3.029a.867.867 0 0 1-.614.412c-.135.026-1.469.041-3.589.041H9.72v-7.05l1.185-2.665a590.347 590.347 0 0 1 1.27-2.845l.085-.18.022 1.7.022 1.7.108.323M6.68 15.62v2.9h-.417c-.229 0-.445-.011-.48-.024-.057-.022-.063-.315-.063-2.9V12.72h.96v2.9" fill="#1C1C1E" fill-rule="evenodd"/></svg>