<svg width="1024" height="1024" viewBox="0 0 1024 1024" fill="none" xmlns="http://www.w3.org/2000/svg">
<g clip-path="url(#clip0_50_303)">
<path d="M1023 512C1023 662.896 1014.35 788.442 949.25 877.53C885.957 964.148 762.574 1024 511 1024C259.427 1024 136.044 964.148 72.7486 877.53C7.6515 788.442 -1 662.896 -1 512C-1 361.57 9.69576 235.816 75.8314 146.641C140.275 59.748 263.922 0 511 0C758.077 0 881.726 59.748 946.168 146.641C1012.3 235.816 1023 361.57 1023 512Z" fill="#393E3F"/>
<g clip-path="url(#clip1_50_303)">
<path d="M798.853 474.787L735.828 459.923C730.051 435.005 720.255 411.639 707.107 390.556L741.153 335.488C745.316 328.734 744.3 320.038 738.696 314.435L709.563 285.302C703.971 279.71 695.264 278.693 688.521 282.855L633.453 316.903C612.369 303.755 589.014 293.948 564.097 288.172L549.222 225.148C547.404 217.448 540.516 212 532.611 212H491.401C483.485 212 476.608 217.448 474.788 225.147L459.914 288.172C434.996 293.949 411.639 303.746 390.568 316.893L335.489 282.847C328.756 278.694 320.028 279.712 314.446 285.294L285.304 314.436C279.702 320.038 278.694 328.746 282.857 335.478L316.893 390.556C303.745 411.641 293.948 434.995 288.172 459.913L225.158 474.777C217.457 476.607 212 483.495 212 491.389V532.599C212 540.525 217.448 547.392 225.158 549.211L288.172 564.086C293.949 589.005 303.757 612.361 316.904 633.444L282.857 688.511C278.704 695.245 279.712 703.982 285.295 709.564L314.437 738.697C320.04 744.309 328.746 745.306 335.49 741.143L390.569 707.107C411.642 720.255 434.997 730.051 459.915 735.827L474.788 798.852C476.608 806.562 483.485 812 491.401 812H532.611C540.516 812 547.404 806.562 549.222 798.852L564.097 735.827C589.004 730.05 612.369 720.255 633.444 707.107L688.522 741.153C695.265 745.316 703.972 744.298 709.564 738.697L738.707 709.564C744.3 703.972 745.317 695.255 741.154 688.522L707.108 633.444C720.256 612.37 730.052 589.005 735.829 564.097L798.854 549.222C806.574 547.393 812.001 540.516 812.001 532.6V491.398C812 483.484 806.562 476.607 798.853 474.787ZM512 669.751C424.89 669.751 354.259 599.12 354.259 512C354.259 424.88 424.89 354.248 512 354.248C599.139 354.248 669.761 424.879 669.761 512C669.761 599.12 599.139 669.751 512 669.751Z" fill="white"/>
<path d="M512 412.02C456.788 412.02 412.02 456.779 412.02 512C412.02 567.221 456.788 611.979 512 611.979C567.222 611.979 611.98 567.222 611.98 512C611.98 456.778 567.222 412.02 512 412.02ZM512 561.054C484.913 561.054 462.945 539.086 462.945 512C462.945 484.913 484.913 462.945 512 462.945C539.087 462.945 561.053 484.913 561.053 512C561.053 539.087 539.087 561.054 512 561.054Z" fill="white"/>
</g>
</g>
<defs>
<clipPath id="clip0_50_303">
<rect width="1024" height="1024" fill="white"/>
</clipPath>
<clipPath id="clip1_50_303">
<rect width="600" height="600" fill="white" transform="translate(212 212)"/>
</clipPath>
</defs>
</svg>
