<svg width="1024" height="1024" viewBox="0 0 1024 1024" fill="none" xmlns="http://www.w3.org/2000/svg">
<g clip-path="url(#clip0_4_2105)">
<path d="M1021 512C1021 662.896 1012.35 788.442 947.25 877.53C883.957 964.148 760.574 1024 509 1024C257.427 1024 134.044 964.148 70.7486 877.53C5.6515 788.442 -3 662.896 -3 512C-3 361.57 7.69576 235.816 73.8314 146.641C138.275 59.748 261.922 0 509 0C756.077 0 879.726 59.748 944.168 146.641C1010.3 235.816 1021 361.57 1021 512Z" fill="black"/>
<path fill-rule="evenodd" clip-rule="evenodd" d="M552.055 240.358L551.844 360.704L551.631 481.05L541.73 453.113C541.726 453.103 541.714 453.068 541.711 453.058L528.916 720.98C541.496 756.505 548.235 775.469 548.311 775.544C548.41 775.643 555.579 776.076 564.242 776.506C590.489 777.808 623.014 780.599 647.687 783.665C653.4 784.375 658.317 784.738 658.613 784.473C658.909 784.208 659.07 661.673 658.971 512.174L658.791 240.358H552.055ZM359 240V512.092C359 661.742 359.146 784.331 359.326 784.51C359.505 784.689 368.773 783.814 379.921 782.566C391.069 781.317 406.476 779.765 414.159 779.116C425.942 778.121 461.122 775.859 465.196 775.834C466.381 775.827 466.457 769.713 466.629 660.588L466.81 545.349L475.322 569.433C476.638 573.155 477.05 574.318 478.332 577.944L491.123 310.088C488.413 302.425 489.834 306.448 486.728 297.666C476.277 268.117 467.408 243.053 467.019 241.97L466.312 240H359Z" fill="#B1060F" stroke="black" stroke-width="0.310123"/>
<path fill-rule="evenodd" clip-rule="evenodd" d="M359 240V392.733L466.593 678.138C466.604 671.598 466.617 668.064 466.629 660.588L466.81 545.349L475.322 569.433C522.705 703.508 548.161 775.395 548.311 775.544C548.41 775.643 555.579 776.076 564.242 776.506C590.489 777.808 623.014 780.599 647.687 783.665C653.4 784.375 658.317 784.738 658.613 784.473C658.816 784.291 658.949 724.209 658.984 639.451L551.895 331.569L551.844 360.704L551.631 481.05L541.73 453.113C532.055 425.815 525.595 407.559 486.728 297.666C476.277 268.117 467.408 243.053 467.019 241.97L466.312 240H359Z" fill="url(#paint0_radial_4_2105)"/>
<path fill-rule="evenodd" clip-rule="evenodd" d="M359.003 240L466.811 545.488V545.349L475.323 569.433C522.705 703.508 548.162 775.395 548.312 775.544C548.411 775.643 555.58 776.076 564.243 776.506C590.489 777.808 623.014 780.599 647.688 783.665C653.372 784.371 658.263 784.734 658.604 784.476L551.632 480.994V481.05L541.73 453.113C532.056 425.815 525.596 407.559 486.728 297.666C476.277 268.117 467.409 243.053 467.02 241.97L466.313 240L359.003 240Z" fill="#E50914"/>
<path fill-rule="evenodd" clip-rule="evenodd" d="M552.055 240.358L551.844 360.704L551.631 481.05L541.73 453.113C541.726 453.103 541.714 453.068 541.711 453.058L528.916 720.98C541.496 756.505 548.235 775.469 548.311 775.544C548.41 775.643 555.579 776.076 564.242 776.506C590.489 777.808 623.014 780.599 647.687 783.665C653.4 784.375 658.317 784.738 658.613 784.473C658.909 784.208 659.07 661.673 658.971 512.174L658.791 240.358H552.055ZM359 240V512.092C359 661.742 359.146 784.331 359.326 784.51C359.505 784.689 368.773 783.814 379.921 782.566C391.069 781.317 406.476 779.765 414.159 779.116C425.942 778.121 461.122 775.859 465.196 775.834C466.381 775.827 466.457 769.713 466.629 660.588L466.81 545.349L475.322 569.433C476.638 573.155 477.05 574.318 478.332 577.944L491.123 310.088C488.413 302.425 489.834 306.448 486.728 297.666C476.277 268.117 467.408 243.053 467.019 241.97L466.312 240H359Z" fill="#B1060F" stroke="black" stroke-width="0.310123"/>
<path fill-rule="evenodd" clip-rule="evenodd" d="M359 240V392.733L466.593 678.138C466.604 671.598 466.617 668.064 466.629 660.588L466.81 545.349L475.322 569.433C522.705 703.508 548.161 775.395 548.311 775.544C548.41 775.643 555.579 776.076 564.242 776.506C590.489 777.808 623.014 780.599 647.687 783.665C653.4 784.375 658.317 784.738 658.613 784.473C658.816 784.291 658.949 724.209 658.984 639.451L551.895 331.569L551.844 360.704L551.631 481.05L541.73 453.113C532.055 425.815 525.595 407.559 486.728 297.666C476.277 268.117 467.408 243.053 467.019 241.97L466.312 240H359Z" fill="url(#paint1_radial_4_2105)"/>
<path fill-rule="evenodd" clip-rule="evenodd" d="M359.003 240L466.811 545.488V545.349L475.323 569.433C522.705 703.508 548.162 775.395 548.312 775.544C548.411 775.643 555.58 776.076 564.243 776.506C590.489 777.808 623.014 780.599 647.688 783.665C653.372 784.371 658.263 784.734 658.604 784.476L551.632 480.994V481.05L541.73 453.113C532.056 425.815 525.596 407.559 486.728 297.666C476.277 268.117 467.409 243.053 467.02 241.97L466.313 240L359.003 240Z" fill="#E50914"/>
</g>
<defs>
<radialGradient id="paint0_radial_4_2105" cx="0" cy="0" r="1" gradientUnits="userSpaceOnUse" gradientTransform="translate(504.01 509.114) rotate(-19.0977) scale(67.9932 2490.52)">
<stop/>
<stop offset="1" stop-opacity="0"/>
</radialGradient>
<radialGradient id="paint1_radial_4_2105" cx="0" cy="0" r="1" gradientUnits="userSpaceOnUse" gradientTransform="translate(504.01 509.114) rotate(-19.0977) scale(67.9932 2490.52)">
<stop/>
<stop offset="1" stop-opacity="0"/>
</radialGradient>
<clipPath id="clip0_4_2105">
<rect width="1024" height="1024" fill="white"/>
</clipPath>
</defs>
</svg>
