<svg width="1024" height="1024" viewBox="0 0 1024 1024" fill="none" xmlns="http://www.w3.org/2000/svg">
<g clip-path="url(#clip0_49_109)">
<path d="M1023 512C1023 662.896 1014.35 788.442 949.25 877.53C885.957 964.148 762.574 1024 511 1024C259.427 1024 136.044 964.148 72.7486 877.53C7.6515 788.442 -1 662.896 -1 512C-1 361.57 9.69576 235.816 75.8314 146.641C140.275 59.748 263.922 0 511 0C758.077 0 881.726 59.748 946.168 146.641C1012.3 235.816 1023 361.57 1023 512Z" fill="#05FE52"/>
<path d="M728.993 609.925L652.498 601.191C643.503 600.135 634.386 601.131 625.831 604.104C617.277 607.077 609.508 611.951 603.107 618.358L547.693 673.772C462.199 630.29 392.709 560.8 349.228 475.305L404.943 419.59C417.893 406.64 424.217 388.57 422.109 370.199L413.375 294.306C411.668 279.614 404.617 266.064 393.566 256.234C382.514 246.405 368.234 240.982 353.444 241H301.343C267.312 241 239.002 269.309 241.111 303.341C257.072 560.534 462.766 765.928 719.657 781.889C753.688 783.997 781.997 755.688 781.997 721.657V669.555C782.298 639.138 759.41 613.539 728.993 609.925Z" fill="white"/>
</g>
<defs>
<clipPath id="clip0_49_109">
<rect width="1024" height="1024" fill="white"/>
</clipPath>
</defs>
</svg>
