<svg width="1024" height="1024" viewBox="0 0 1024 1024" fill="none" xmlns="http://www.w3.org/2000/svg">
<g clip-path="url(#clip0_4_2646)">
<path d="M1024 512C1024 662.896 1015.35 788.442 950.25 877.53C886.957 964.148 763.574 1024 512 1024C260.427 1024 137.044 964.148 73.7486 877.53C8.6515 788.442 0 662.896 0 512C0 361.57 10.6958 235.816 76.8314 146.641C141.275 59.748 264.922 0 512 0C759.077 0 882.726 59.748 947.168 146.641C1013.3 235.816 1024 361.57 1024 512Z" fill="#222229"/>
<path d="M512 781C363.435 781 243 660.565 243 512C243 363.435 363.435 243 512 243C660.565 243 781 363.435 781 512C781 660.565 660.565 781 512 781Z" fill="url(#paint0_linear_4_2646)" stroke="black" stroke-width="11" stroke-linecap="round" stroke-linejoin="round"/>
<path d="M512 760.762C374.613 760.762 263.238 649.387 263.238 512C263.238 374.613 374.613 263.238 512 263.238C649.387 263.238 760.762 374.613 760.762 512C760.762 649.387 649.387 760.762 512 760.762Z" fill="#0E0D0F"/>
<path d="M512 692.528C412.297 692.528 331.472 611.703 331.472 512C331.472 412.297 412.297 331.472 512 331.472C611.702 331.472 692.528 412.297 692.528 512C692.528 611.703 611.702 692.528 512 692.528Z" fill="#252629" stroke="#0B0408" stroke-width="12" stroke-linecap="round" stroke-linejoin="round"/>
<path d="M601 511.5C601 561.533 560.654 602 511 602C461.346 602 421 561.533 421 511.5C421 461.467 461.346 421 511 421C560.654 421 601 461.467 601 511.5Z" stroke="black" stroke-width="22"/>
<path d="M565.242 433.276C542.428 422.92 528.42 404.642 533.954 392.451C539.488 380.259 562.468 378.771 585.282 389.126C608.096 399.482 622.104 417.76 616.57 429.951C611.036 442.143 588.056 443.631 565.242 433.276Z" fill="white" fill-opacity="0.3"/>
<path d="M424.418 459.428C410.723 459.428 399.621 448.326 399.621 434.631C399.621 420.936 410.723 409.834 424.418 409.834C438.113 409.834 449.215 420.936 449.215 434.631C449.215 448.326 438.113 459.428 424.418 459.428Z" fill="white" fill-opacity="0.3"/>
<path d="M382.085 505.63C372.399 505.63 364.548 497.778 364.548 488.093C364.548 478.407 372.399 470.556 382.085 470.556C391.77 470.556 399.622 478.407 399.622 488.093C399.622 497.778 391.77 505.63 382.085 505.63Z" fill="white" fill-opacity="0.3"/>
<circle cx="511.157" cy="512.843" r="55.6552" fill="#414246"/>
</g>
<defs>
<linearGradient id="paint0_linear_4_2646" x1="685.838" y1="58.6713" x2="320.928" y2="781" gradientUnits="userSpaceOnUse">
<stop offset="0.203853" stop-color="#FF0000"/>
<stop offset="0.487361" stop-color="#FFE600"/>
<stop offset="0.640741" stop-color="#00FF0A"/>
<stop offset="0.943581" stop-color="#0500FF"/>
</linearGradient>
<clipPath id="clip0_4_2646">
<rect width="1024" height="1024" fill="white"/>
</clipPath>
</defs>
</svg>
