<svg width="1024" height="1024" viewBox="0 0 1024 1024" fill="none" xmlns="http://www.w3.org/2000/svg">
<g clip-path="url(#clip0_34_313)">
<path d="M1024 512C1024 662.896 1015.35 788.442 950.25 877.53C886.957 964.148 763.574 1024 512 1024C260.427 1024 137.044 964.148 73.7486 877.53C8.6515 788.442 0 662.896 0 512C0 361.57 10.6958 235.816 76.8314 146.641C141.275 59.748 264.922 0 512 0C759.077 0 882.726 59.748 947.168 146.641C1013.3 235.816 1024 361.57 1024 512Z" fill="url(#paint0_linear_34_313)"/>
<circle cx="512.5" cy="511.5" r="290" stroke="white" stroke-width="25"/>
<path d="M524.5 457.5H425V569.5H524.5L599.5 649V374L524.5 457.5Z" fill="white"/>
</g>
<defs>
<linearGradient id="paint0_linear_34_313" x1="512" y1="1141" x2="512" y2="-294.5" gradientUnits="userSpaceOnUse">
<stop offset="0.170509" stop-color="#49058C"/>
<stop offset="1" stop-color="#0305B1"/>
</linearGradient>
<clipPath id="clip0_34_313">
<rect width="1024" height="1024" fill="white"/>
</clipPath>
</defs>
</svg>
