<svg width="1024" height="1024" viewBox="0 0 1024 1024" fill="none" xmlns="http://www.w3.org/2000/svg">
<g clip-path="url(#clip0_13_1145)">
<path d="M1024 512C1024 662.896 1015.35 788.442 950.25 877.53C886.957 964.148 763.574 1024 512 1024C260.427 1024 137.044 964.148 73.7486 877.53C8.6515 788.442 0 662.896 0 512C0 361.57 10.6958 235.816 76.8314 146.641C141.275 59.748 264.922 0 512 0C759.077 0 882.726 59.748 947.168 146.641C1013.3 235.816 1024 361.57 1024 512Z" fill="#4EB2E9"/>
<path d="M703.798 436.794C691.606 377.637 438.798 359.795 337.798 416.295C306.598 438.695 311.298 524.794 328.798 565.294C389.798 666.294 654.298 625.793 686.798 581.294C703.298 568.294 717.298 502.294 703.798 436.794Z" fill="white"/>
<path d="M706.019 492.26C705.22 533.523 701.759 572.389 666.087 592.622C628.285 613.919 571.582 624.301 511.95 624.301C452.319 624.301 395.616 613.919 357.814 592.622C322.141 572.389 318.68 533.789 317.882 492.26C317.083 453.393 318.68 421.181 355.684 408.137C392.687 395.092 448.592 388.703 512.216 388.97C575.575 388.703 631.746 395.092 668.749 408.137C705.22 420.915 706.817 453.127 706.019 492.26ZM696.169 385.243C661.295 366.342 586.49 357.823 511.95 358.089C437.145 357.823 362.339 366.342 327.732 385.243C280.346 407.338 285.936 477.884 288.865 524.471C292.059 570.792 300.578 637.611 323.206 674.881C334.653 697.775 362.073 712.949 393.752 714.813C431.288 716.676 593.145 716.676 630.414 714.813C662.094 712.949 689.247 697.775 700.961 674.881C723.322 637.345 732.107 570.792 735.302 524.471C737.964 477.884 743.555 407.338 696.169 385.243Z" fill="black"/>
<path d="M638.933 216.996C658.1 231.105 666.619 252.136 658.1 263.583C653.308 270.238 643.991 272.368 633.342 270.504C626.155 269.173 618.701 272.368 614.708 278.757C594.476 309.904 583.028 339.187 572.114 384.976H538.571C551.882 333.33 565.991 297.126 590.216 259.057C593.943 253.201 594.476 246.013 591.015 239.89C585.158 229.774 584.093 219.392 589.151 212.47C597.67 201.023 619.766 202.887 638.933 216.996ZM384.967 216.996C365.8 231.105 357.281 252.136 365.8 263.583C370.591 270.238 379.909 272.368 390.557 270.504C397.745 269.173 405.199 272.368 409.192 278.757C429.424 309.904 440.871 339.187 451.786 384.976H485.329C472.018 333.33 457.909 297.126 433.684 259.057C429.957 253.201 429.424 246.013 432.885 239.89C438.742 229.774 439.807 219.392 434.749 212.47C426.23 201.023 403.868 202.887 384.967 216.996ZM497.841 818.901C497.841 780.832 491.452 780.3 491.452 755.01V692.184H453.383V755.01C453.383 780.3 409.458 780.3 383.902 786.955C358.612 793.611 358.612 818.901 358.612 818.901H497.841ZM526.059 818.901H665.288C665.288 818.901 665.288 793.344 639.998 786.955C614.441 780.3 570.517 780.3 570.517 755.01V692.184H532.448V755.01C532.448 780.3 526.059 780.832 526.059 818.901ZM476.011 501.31C476.011 478.682 457.643 460.314 435.015 460.314C412.387 460.314 394.018 478.682 394.018 501.31C394.018 523.938 412.387 542.307 435.015 542.307C457.643 542.307 476.011 523.938 476.011 501.31ZM629.349 501.31C629.349 478.682 610.981 460.314 588.353 460.314C565.725 460.314 547.356 478.682 547.356 501.31C547.356 523.938 565.725 542.307 588.353 542.307C610.981 542.307 629.349 523.938 629.349 501.31Z" fill="black"/>
</g>
<defs>
<clipPath id="clip0_13_1145">
<rect width="1024" height="1024" fill="white"/>
</clipPath>
</defs>
</svg>
