<svg width="1024" height="1024" viewBox="0 0 1024 1024" fill="none" xmlns="http://www.w3.org/2000/svg">
<g clip-path="url(#clip0_4_3168)">
<path d="M1024 512C1024 662.896 1015.35 788.442 950.25 877.53C886.957 964.148 763.574 1024 512 1024C260.427 1024 137.044 964.148 73.7486 877.53C8.6515 788.442 0 662.896 0 512C0 361.57 10.6958 235.816 76.8314 146.641C141.275 59.748 264.922 0 512 0C759.077 0 882.726 59.748 947.168 146.641C1013.3 235.816 1024 361.57 1024 512Z" fill="#1C203C"/>
<path d="M832.933 419.2C832.933 417.467 831.467 416 829.733 416H813.733C812 416 810.533 417.467 810.533 419.2V479.333C810.533 480.267 809.467 480.667 809.067 479.6L787.2 418.8C786.667 417.333 785.6 415.867 783.2 415.867H764.133C762.4 415.867 760.933 417.333 760.933 419.067V524.667C760.933 526.4 762.4 527.867 764.133 527.867H780.133C781.867 527.867 783.333 526.4 783.333 524.667V469.467C783.333 468.533 784.4 468.133 784.8 469.2L806.533 525.333C807.067 526.667 808.133 528 810.8 528H829.733C831.467 528 832.933 526.533 832.933 524.8V419.2ZM743.2 509.6C743.2 507.867 741.733 506.4 740 506.4H726.4C725.467 506.4 724.8 505.733 724.8 504.8V439.2C724.8 438.267 725.467 437.6 726.4 437.6H738.4C740.133 437.6 741.6 436.133 741.6 434.4V419.2C741.6 417.467 740.133 416 738.4 416H688.8C687.067 416 685.6 417.467 685.6 419.2V434.4C685.6 436.133 687.067 437.6 688.8 437.6H700.8C701.733 437.6 702.4 438.267 702.4 439.2V504.8C702.4 505.733 701.733 506.4 700.8 506.4H687.2C685.467 506.4 684 507.867 684 509.6V524.8C684 526.533 685.467 528 687.2 528H740C741.733 528 743.2 526.533 743.2 524.8V509.6ZM600 440H138C136.933 440 136 440.933 136 442V662C136 663.067 136.933 664 138 664H598C599.067 664 600 663.067 600 662V440ZM912 348V596C912 602.667 906.667 608 900 608H624V676C624 682.667 618.667 688 612 688H124C117.333 688 112 682.667 112 676V428C112 421.333 117.333 416 124 416H600V348C600 341.333 605.333 336 612 336H900C906.533 336 912 341.467 912 348ZM529.067 585.6H491.2C490.267 585.6 489.6 584.933 489.6 584V564.8C489.6 563.867 490.267 563.2 491.2 563.2H527.2C528.933 563.2 530.4 561.733 530.4 560V544C530.4 542.267 528.933 540.8 527.2 540.8H491.2C490.267 540.8 489.6 540.133 489.6 539.2V520C489.6 519.067 490.267 518.4 491.2 518.4H528.533C530.267 518.4 531.733 516.933 531.733 515.2V499.2C531.733 497.467 530.267 496 528.533 496H470.4C468.667 496 467.2 497.467 467.2 499.2V604.8C467.2 606.533 468.667 608 470.4 608H529.067C530.8 608 532.267 606.533 532.267 604.8V588.8C532.267 587.067 530.8 585.6 529.067 585.6ZM446.133 496H430.133C428.4 496 426.933 497.467 426.933 499.2V559.333C426.933 560.267 425.867 560.667 425.467 559.6L403.6 498.8C403.067 497.333 402 495.867 399.6 495.867H380.667C378.933 495.867 377.467 497.333 377.467 499.067V604.667C377.467 606.4 378.933 607.867 380.667 607.867H396.667C398.4 607.867 399.867 606.4 399.867 604.667V549.467C399.867 548.533 400.933 548.133 401.333 549.2L423.067 605.333C423.6 606.667 424.667 608 427.333 608H446.267C448 608 449.467 606.533 449.467 604.8V499.2C449.333 497.467 448 496 446.133 496ZM356 496H339.867C338.133 496 336.667 497.467 336.667 499.2V574.4C336.667 581.467 330.933 587.2 321.2 587.2C311.733 587.2 306 581.467 306 574.4V499.2C306 497.467 304.533 496 302.8 496H286.667C284.933 496 283.467 497.467 283.467 499.2V574.4C283.467 593.733 299.467 609.733 321.2 609.733C343.333 609.733 359.333 593.733 359.333 574.4V499.2C359.2 497.467 357.733 496 356 496ZM268 499.2V515.2C268 516.933 266.533 518.4 264.8 518.4H244.8C243.867 518.4 243.2 519.067 243.2 520V604.8C243.2 606.533 241.733 608 240 608H224C222.267 608 220.8 606.533 220.8 604.8V520C220.8 519.067 220.133 518.4 219.2 518.4H199.2C197.467 518.4 196 516.933 196 515.2V499.2C196 497.467 197.467 496 199.2 496H264.8C266.533 496 268 497.467 268 499.2Z" fill="#14D8CC"/>
</g>
<defs>
<clipPath id="clip0_4_3168">
<rect width="1024" height="1024" fill="white"/>
</clipPath>
</defs>
</svg>
