<svg width="1024" height="1024" viewBox="0 0 1024 1024" fill="none" xmlns="http://www.w3.org/2000/svg">
<g clip-path="url(#clip0_4_3179)">
<path d="M1024 512C1024 662.896 1015.35 788.442 950.25 877.53C886.957 964.148 763.574 1024 512 1024C260.427 1024 137.044 964.148 73.7486 877.53C8.6515 788.442 0 662.896 0 512C0 361.57 10.6958 235.816 76.8314 146.641C141.275 59.748 264.922 0 512 0C759.077 0 882.726 59.748 947.168 146.641C1013.3 235.816 1024 361.57 1024 512Z" fill="white"/>
<rect x="182" y="259" width="660" height="460" rx="25" fill="#9D11E7"/>
<rect x="497" y="719" width="30" height="21" fill="#9D11E7"/>
<rect x="337" y="740" width="350" height="25" fill="#9D11E7"/>
<path d="M456.219 387.281C449.281 383.016 440.562 382.875 433.484 386.86C426.406 390.844 422 398.344 422 406.5V571.5C422 579.656 426.406 587.156 433.484 591.141C440.562 595.125 449.281 594.938 456.219 590.719L591.219 508.219C597.922 504.141 602 496.875 602 489C602 481.125 597.922 473.906 591.219 469.781L456.219 387.281Z" fill="white"/>
</g>
<defs>
<clipPath id="clip0_4_3179">
<rect width="1024" height="1024" fill="white"/>
</clipPath>
</defs>
</svg>
