<svg width="1024" height="1024" viewBox="0 0 1024 1024" fill="none" xmlns="http://www.w3.org/2000/svg">
<g clip-path="url(#clip0_49_30)">
<path d="M1021 512C1021 662.896 1012.35 788.442 947.25 877.53C883.957 964.148 760.574 1024 509 1024C257.427 1024 134.044 964.148 70.7486 877.53C5.6515 788.442 -3 662.896 -3 512C-3 361.57 7.69576 235.816 73.8314 146.641C138.275 59.748 261.922 0 509 0C756.077 0 879.726 59.748 944.168 146.641C1010.3 235.816 1021 361.57 1021 512Z" fill="#E5E7D9"/>
<circle cx="511.5" cy="511.5" r="279" stroke="#65757A" stroke-width="25"/>
<path d="M534.136 486.233C534.136 486.233 550.41 419.054 534.136 396.279C517.863 373.541 511.391 358.383 475.608 347.531C439.824 336.679 452.863 338.842 426.844 339.952C400.805 341.062 379.132 355.13 379.132 362.728C379.132 362.728 362.859 363.8 356.387 370.307C349.878 376.814 339.041 407.131 339.041 414.71C339.041 422.289 344.459 473.276 349.878 484.089L343.426 486.271C337.988 549.105 365.06 556.703 365.06 556.703C374.825 615.231 384.589 590.312 384.589 605.47C384.589 620.628 374.825 615.231 374.825 615.231C374.825 615.231 366.171 639.059 344.498 647.729C322.825 656.38 298.284 671.739 288.5 681.5C278.698 691.261 426.843 775.5 426.843 775.5L558 785C558 785 701.107 722.506 691.304 712.726C681.54 702.965 561.209 656.38 539.536 647.729C517.863 639.059 509.209 615.231 509.209 615.231C509.209 615.231 499.444 620.628 499.444 605.47C499.444 590.312 509.209 615.231 518.973 556.703C518.973 556.703 546.026 549.105 540.608 486.271H534.098L534.136 486.233Z" fill="#64757A"/>
<path d="M745.317 551.671C745.317 551.671 759.414 493.418 745.317 473.668C731.219 453.952 725.613 440.808 694.614 431.398C663.616 421.988 674.911 423.863 652.371 424.826C629.815 425.788 611.04 437.986 611.04 444.575C611.04 444.575 596.942 445.505 591.336 451.147C585.697 456.79 576.31 483.078 576.31 489.65C576.31 496.223 581.003 540.435 585.697 549.812L580.108 551.704C575.397 606.189 598.849 612.778 598.849 612.778C607.308 663.529 615.767 641.921 615.767 655.065C615.767 668.209 607.308 663.529 607.308 663.529C607.308 663.529 599.811 684.191 581.036 691.709C562.262 699.211 458.038 739.606 449.563 748.07C441.071 756.534 442.033 796 442.033 796L670 744.5C670 744.5 732.214 704.481 723.722 696C715.263 687.536 753.775 680.501 735 673C716.225 665.482 723.722 663.529 723.722 663.529C723.722 663.529 715.263 668.209 715.263 655.065C715.263 641.921 723.722 663.529 732.181 612.778C732.181 612.778 755.616 606.189 750.922 551.704H745.283L745.317 551.671Z" fill="#64757A"/>
<rect x="539.729" y="640" width="144.526" height="7.31136" transform="rotate(21.9224 539.729 640)" fill="#D9D9D9"/>
</g>
<defs>
<clipPath id="clip0_49_30">
<rect width="1024" height="1024" fill="white"/>
</clipPath>
</defs>
</svg>
