<svg width="1024" height="1024" viewBox="0 0 1024 1024" fill="none" xmlns="http://www.w3.org/2000/svg">
<g clip-path="url(#clip0_4_3284)">
<path d="M1024 512C1024 662.896 1015.35 788.442 950.25 877.53C886.957 964.148 763.574 1024 512 1024C260.427 1024 137.044 964.148 73.7486 877.53C8.6515 788.442 0 662.896 0 512C0 361.57 10.6958 235.816 76.8314 146.641C141.275 59.748 264.922 0 512 0C759.077 0 882.726 59.748 947.168 146.641C1013.3 235.816 1024 361.57 1024 512Z" fill="url(#paint0_linear_4_3284)"/>
<path d="M393 295.058C378.2 285.958 359.6 285.658 344.5 294.158C329.4 302.658 320 318.658 320 336.058V688.058C320 705.458 329.4 721.458 344.5 729.958C359.6 738.458 378.2 738.058 393 729.058L681 553.058C695.3 544.358 704 528.858 704 512.058C704 495.258 695.3 479.858 681 471.058L393 295.058Z" fill="#0397CA"/>
<path d="M291.156 546V512C291.156 512 221.403 520.033 216.156 583C209.656 661 408.156 685.333 502.156 690.5L469.156 729.5L492.656 750.5L568.656 673.5L492.656 597.5L469.156 621L502.156 661C315.156 652.5 243.156 606 245.656 583C247.656 564.6 276.823 550.667 291.156 546Z" fill="white"/>
<path d="M585.656 684.502V652.002C706.656 639.002 765.156 614.502 773.656 586.002C780.456 563.202 746.489 551.169 728.656 548.002V512.002C751.156 518.002 813.328 537.963 806.656 586.002C799.156 640.002 728.656 664.002 585.656 684.502Z" fill="white"/>
</g>
<defs>
<linearGradient id="paint0_linear_4_3284" x1="512" y1="0" x2="512" y2="1024" gradientUnits="userSpaceOnUse">
<stop stop-color="#400A8E"/>
<stop offset="1" stop-color="#2B65D6"/>
</linearGradient>
<clipPath id="clip0_4_3284">
<rect width="1024" height="1024" fill="white"/>
</clipPath>
</defs>
</svg>
