<svg width="1024" height="1024" viewBox="0 0 1024 1024" fill="none" xmlns="http://www.w3.org/2000/svg">
<g clip-path="url(#clip0_13_3)">
<path d="M1023 512C1023 662.896 1014.35 788.442 949.25 877.53C885.957 964.148 762.574 1024 511 1024C259.427 1024 136.044 964.148 72.7486 877.53C7.6515 788.442 -1 662.896 -1 512C-1 361.57 9.69576 235.816 75.8314 146.641C140.275 59.748 263.922 0 511 0C758.077 0 881.726 59.748 946.168 146.641C1012.3 235.816 1023 361.57 1023 512Z" fill="white"/>
<path d="M793.132 370.034C786.264 344.639 766.453 324.753 741.057 317.961C706.943 304.792 376.528 298.34 280.679 318.339C255.283 325.206 235.396 345.017 228.604 370.412C213.208 437.956 212.038 583.987 228.981 653.04C235.849 678.435 255.66 698.321 281.057 705.113C348.604 720.66 669.736 722.848 741.434 705.113C766.83 698.246 786.717 678.435 793.51 653.04C809.925 579.459 811.094 442.484 793.132 370.034Z" fill="#FF0000"/>
<path d="M608.226 511.538L454.264 423.24V599.836L608.226 511.538Z" fill="#F1F1F1"/>
</g>
<defs>
<clipPath id="clip0_13_3">
<rect width="1024" height="1024" fill="white"/>
</clipPath>
</defs>
</svg>
