<?xml version="1.0" encoding="UTF-8"?>
<svg id="Layer_2" data-name="Layer 2" xmlns="http://www.w3.org/2000/svg" viewBox="0 0 150 150">
  <g id="Layer_1-2" data-name="Layer 1">
    <g>
      <path d="m119.95,25.86v91.04c-2.46.18-4.84.35-7.56.55v7.69c-1.92,0-3.5,0-5.08,0-21.68,0-43.35,0-65.03,0-7.08,0-9.46-2.4-9.47-9.51-.01-26.81-.01-53.61,0-80.42,0-6.83,2.45-9.33,9.15-9.33,25.81-.02,51.61,0,77.99,0Zm-12,95.36V38.12H36.73c0,26.04,0,51.69,0,77.34,0,3.88,2.02,5.76,5.86,5.76,21.67,0,43.33,0,65.35,0Zm4.27-87.51c0,2.45,0,4.24,0,6.03,0,23.18-.01,46.36.01,69.53,0,3.99.07,3.99,3.77,3.23V29.83c-25.04,0-49.83-.04-74.61.11-1.46,0-2.91,1.62-4.37,2.49.2.43.39.85.59,1.28h74.62Z"/>
      <path d="m92.9,98.7h-40.24c-.18-8.98,7.47-16.01,18.29-16.97,10.96-.98,19.95,5.71,21.95,16.97Z"/>
      <path d="m84.12,64.62c.07,7.6-4.91,13.69-11.3,13.83-6.71.14-11.92-5.86-11.91-13.72,0-7.09,4.79-12.46,11.3-12.69,6.6-.23,11.84,5.31,11.91,12.58Z"/>
    </g>
  </g>
</svg>