<svg width="500" height="500" viewBox="0 0 500 500" fill="none" xmlns="http://www.w3.org/2000/svg">
<path d="M462.71 267.356C465.867 383.434 365.712 482.537 246.889 479.883C131.771 477.321 37.5639 384.623 38.0672 265.297C38.5705 145.879 133.281 52.6779 251.098 52.5864C370.196 52.4949 466.508 150.637 462.756 267.356H462.71ZM440.428 266.532C440.428 160.795 356.149 75.6922 250.64 75.738C146.504 75.738 60.7154 159.697 60.7154 266.303C60.7154 371.584 145.864 456.366 250.869 456.64C355.188 456.915 441.846 369.113 440.428 266.578V266.532Z" fill="black"/>
<path d="M333.547 44.6254C337.664 35.5204 341.005 28.1082 344.299 20.8333C418.832 44.8999 488.516 125.519 500 199.411C492.633 201.562 485.175 203.712 475.75 206.412C454.017 130.14 407.302 75.8754 333.592 44.6254H333.547Z" fill="black"/>
<path d="M151.537 22.663C155.06 30.853 158.629 39.1345 162.244 47.416C90.1354 80.4961 44.8389 134.76 24.9359 211.673C15.4649 209.339 7.68668 207.418 0 205.542C13.6805 124.649 79.612 49.9782 151.537 22.7088V22.663Z" fill="black"/>
<path d="M271.916 121.675V288.906H140.282V263.055H245.287V121.675H271.87H271.916Z" fill="black"/>
</svg>
