<?xml version="1.0" encoding="UTF-8"?>
<svg id="Layer_2" data-name="Layer 2" xmlns="http://www.w3.org/2000/svg" viewBox="0 0 150 150">
  <g id="Layer_1-2" data-name="Layer 1">
    <g>
      <path d="m124.41,80.43c-.04,26.56-21.31,47.64-48.03,47.6-26.41-.04-47.64-21.55-47.55-48.16.1-26.41,21.88-48.04,48.09-47.76,26.52.29,47.52,21.65,47.48,48.32Zm-47.69,42.07c23.35,0,42.42-18.84,42.52-42.04.1-23.39-19.02-42.72-42.37-42.82-23.34-.1-42.79,19.17-42.84,42.44-.05,23.34,19.14,42.41,42.69,42.42Z"/>
      <path d="m97.66,24.87c18.38,7.84,30.06,20.95,35.37,40.3-2.03.54-3.85,1.02-6.03,1.59-4.98-16.94-15.24-28.91-31.76-36.01.81-1.96,1.57-3.83,2.42-5.87Z"/>
      <path d="m26.13,67.86c-2.06-.38-3.91-.72-6.19-1.14,4.88-19.54,16.16-32.92,34.32-41.33.93,2.04,1.73,3.76,2.67,5.81-16.01,7.43-26.36,19.37-30.79,36.66Z"/>
      <path d="m51.78,85.07v-5.38h23.62v-31.7h5.66v37.08h-29.28Z"/>
    </g>
  </g>
</svg>