<svg width="67" height="62" viewBox="0 0 67 62" fill="none" xmlns="http://www.w3.org/2000/svg">
<path d="M33.4279 61.4624C25.8162 61.4624 18.199 61.4905 10.5874 61.4568C2.52701 61.4175 -1.85369 54.3556 1.85951 47.2881C8.87101 33.9383 16.0283 20.6558 23.0117 7.28922C25.3282 2.85802 28.5872 0.507722 33.7364 0.519022C38.9136 0.530222 42.0772 2.99822 44.3825 7.41822C51.3098 20.6895 58.4054 33.8766 65.4113 47.1086C69.1357 54.1425 64.8616 61.4063 56.9302 61.4568C49.0942 61.5129 41.2639 61.468 33.4279 61.468V61.4624ZM33.5681 58.1867C33.5681 58.1867 33.5681 58.1586 33.5681 58.1474C41.2919 58.1474 49.0213 58.282 56.7451 58.1025C62.3038 57.9679 64.8279 53.5479 62.3094 48.7689C55.3821 35.621 48.4099 22.4956 41.5163 9.33092C39.8111 6.07202 37.6011 3.86202 33.6074 3.88452C29.7651 3.90692 27.5831 5.99912 25.9284 9.15712C18.9675 22.4171 11.9448 35.6435 4.96701 48.8979C2.66161 53.2787 4.82121 57.407 9.73481 58.0801C10.823 58.2316 11.9392 58.1811 13.0386 58.1811C19.8818 58.1867 26.7249 58.1811 33.5681 58.1811V58.1867Z" fill="black"/>
<path d="M29.7034 22.4508C29.7483 18.7431 31.2066 17.0267 33.7252 17.1501C36.6195 17.2904 37.8815 19.0853 37.5843 21.7889C36.8495 28.447 35.9913 35.0938 35.077 41.7294C34.9872 42.3801 34.1515 42.9298 33.6635 43.53C33.2203 42.9971 32.4743 42.5091 32.3846 41.9201C31.3974 35.1836 30.5111 28.4301 29.6978 22.4508H29.7034Z" fill="black"/>
<path d="M33.6354 46.2168C36.0361 46.4412 37.5169 47.5854 37.6067 50.1096C37.6908 52.4991 35.9127 54.2828 33.5176 54.165C31.0271 54.0416 29.7314 52.6112 29.7314 50.1656C29.7314 47.6527 31.2347 46.4692 33.6298 46.2224L33.6354 46.2168Z" fill="black"/>
</svg>
