<svg width="500" height="500" viewBox="0 0 500 500" fill="none" xmlns="http://www.w3.org/2000/svg">
<mask id="mask0_9_102" style="mask-type:luminance" maskUnits="userSpaceOnUse" x="46" y="0" width="408" height="500">
<path d="M453.016 0H46.6667V500H453.016V0Z" fill="white"/>
</mask>
<g mask="url(#mask0_9_102)">
<path d="M386.037 265.129C386.738 340.651 452.289 365.783 453.016 366.103C452.462 367.875 442.541 401.917 418.481 437.081C397.681 467.482 376.092 497.771 342.086 498.4C308.67 499.014 297.925 478.584 259.722 478.584C221.53 478.584 209.592 497.771 177.961 499.014C145.135 500.257 120.139 466.141 99.1658 435.851C56.31 373.894 23.5594 260.771 67.5353 184.413C89.3815 146.493 128.422 122.481 170.798 121.865C203.032 121.25 233.457 143.551 253.162 143.551C272.854 143.551 309.827 116.733 348.695 120.671C364.967 121.348 410.641 127.244 439.97 170.173C437.606 171.638 385.47 201.989 386.037 265.129ZM323.237 79.6805C340.664 58.5854 352.394 29.2192 349.194 0C324.073 1.0096 293.698 16.7394 275.679 37.8229C259.532 56.4932 245.391 86.3762 249.206 115.017C277.205 117.183 305.808 100.789 323.237 79.6805Z" fill="black"/>
</g>
</svg>
