<svg width="150" height="150" viewBox="0 0 150 150" fill="none" xmlns="http://www.w3.org/2000/svg">
<path d="M114.73 108.35C111.98 110.89 110.78 112.01 109.07 113.6C99.3 103.79 89.63 94.0901 79.07 83.4801V125.71H73.19V83.5C62.72 94.17 53.14 103.95 43.02 114.27C41.13 112.17 39.96 110.87 38.73 109.5C48.61 99.66 58.25 90.05 67.9 80.45C67.72 80.03 67.54 79.62 67.37 79.2H26.24V73.0801H68.87C58.03 62.4201 48.26 52.8101 38.16 42.8801C40.06 41.2501 41.4 40.1101 42.7 38.9901C52.39 48.7101 62.02 58.35 71.64 68C72.02 67.84 72.4 67.68 72.78 67.52V26.3H78.88V67.9401C89.13 57.6101 98.67 47.9801 108.5 38.0801C110.53 39.9101 111.82 41.08 113.13 42.26C103.21 52.09 93.46 61.76 83.71 71.43C83.98 71.91 84.24 72.3901 84.51 72.8701H125.74V78.7601H84.44C94.67 88.7501 104.43 98.28 114.73 108.34V108.35Z" fill="black"/>
</svg>
