<svg width="500" height="500" viewBox="0 0 500 500" fill="none" xmlns="http://www.w3.org/2000/svg">
<path d="M100 420.565C116.87 390.479 142.889 377.284 176.841 378.075C196.514 378.551 216.187 378.181 238.715 378.181V0C333.801 0.105563 404.243 59.8545 399.801 138.077C354.691 132.535 309.686 127.046 261.297 121.134C261.297 134.013 261.297 145.044 261.297 156.076C261.297 240.474 261.297 324.819 261.297 409.217C261.297 462.421 246.701 490.289 209.841 496.57C163.408 504.488 123.481 502.113 100 451.97L95.8333 438.299L100 420.618V420.565ZM233.586 403.358C206.509 405.416 179.855 405.047 154.524 410.695C144.74 412.859 131.413 428.799 131.572 438.299C131.731 448.275 144.211 463.001 154.629 466.96C203.865 485.697 232.369 464.532 233.639 403.411L233.586 403.358ZM267.908 32.5663V92.7375C300.696 96.96 332.902 101.077 370.08 105.827C350.407 55.9486 310.162 44.9172 267.908 32.5663Z" fill="black"/>
</svg>
