<svg width="57" height="96" viewBox="0 0 57 96" fill="none" xmlns="http://www.w3.org/2000/svg">
<path d="M0 80.16C3.19 74.46 8.11 71.96 14.53 72.11C18.25 72.2 21.97 72.13 26.23 72.13V0.47998C44.21 0.49998 57.53 11.82 56.69 26.64C48.16 25.59 39.65 24.55 30.5 23.43C30.5 25.87 30.5 27.96 30.5 30.05C30.5 46.04 30.5 62.02 30.5 78.01C30.5 88.09 27.74 93.37 20.77 94.56C11.99 96.06 4.44 95.61 0 86.11V80.17V80.16ZM25.26 76.9C20.14 77.29 15.1 77.22 10.31 78.29C8.46 78.7 5.94 81.72 5.97 83.52C6 85.41 8.36 88.2 10.33 88.95C19.64 92.5 25.03 88.49 25.27 76.91L25.26 76.9ZM31.75 6.64998V18.05C37.95 18.85 44.04 19.63 51.07 20.53C47.35 11.08 39.74 8.98998 31.75 6.64998Z" fill="black"/>
</svg>
