<svg width="69" height="69" viewBox="0 0 69 69" fill="none" xmlns="http://www.w3.org/2000/svg">
<path d="M34.95 0.629993C53.75 1.01999 68.92 15.6 68.71 35.16C68.51 53.52 53.6 68.69 34.26 68.49C16.33 68.31 0.619996 53.52 0.889996 34.1C1.15 15.76 15.88 0.789995 34.95 0.619995V0.629993ZM55.32 11.77C48.17 5.30999 40.01 2.74999 31.02 4.02999C17.34 5.97 8.42 14.04 4.83 27.3C2.07 37.51 4.81 46.76 11.86 55.22C26.47 40.74 40.79 26.4 55.32 11.77ZM14.84 57.62C18.08 62.14 30.59 67.65 42.07 64.63C53.28 61.67 63.18 52.85 65.31 39.12C66.75 29.84 64.19 21.47 58.01 14.48C43.5 28.98 29.24 43.23 14.84 57.63V57.62Z" fill="#EC4E3E"/>
</svg>
