<svg width="83" height="116" viewBox="0 0 83 116" fill="none" xmlns="http://www.w3.org/2000/svg">
<path d="M54.39 78.8994C54.39 82.8394 54.51 86.6594 54.35 90.4594C54.25 92.9094 52.05 94.8694 49.5 94.8994C42.43 94.9694 35.36 94.9794 28.28 94.8994C25.4 94.8694 23.13 92.4394 23.1 89.5994C23.06 86.1094 23.09 82.6194 23.09 78.8994H54.39Z" fill="#EB5445"/>
<path d="M54.43 76.9997H51.02C51.02 76.0597 51.02 75.1897 51.02 74.3197C51.02 62.0697 51.02 49.8197 51.02 37.5697C51.02 34.3497 50.63 33.9497 47.44 33.9397C41.61 33.9197 35.78 33.9197 29.95 33.9397C26.89 33.9397 26.51 34.3297 26.5 37.4397C26.49 49.6097 26.5 61.7697 26.5 73.9397C26.5 74.8497 26.5 75.7597 26.5 76.8697H22.99C22.99 76.0997 22.99 75.2897 22.99 74.4897C22.99 61.7397 22.99 48.9897 22.99 36.2397C22.99 32.2997 24.57 30.7297 28.46 30.3397C29.3 30.2597 30.42 29.4597 30.77 28.6897C32.36 25.2497 34.99 23.1897 38.68 23.1797C42.26 23.1697 45.02 25.1097 46.44 28.4797C47.05 29.9297 47.83 30.4397 49.41 30.4497C52.54 30.4697 54.54 32.5197 54.55 35.5997C54.58 48.9297 54.56 62.2597 54.55 75.5997C54.55 75.9997 54.48 76.3997 54.43 77.0097V76.9997ZM34.41 30.2397H42.91C42.37 27.7697 40.59 26.9997 38.68 26.9897C36.79 26.9897 35 27.7397 34.41 30.2397Z" fill="black"/>
</svg>
