<svg width="92" height="115" viewBox="0 0 92 115" fill="none" xmlns="http://www.w3.org/2000/svg">
<path d="M30.09 62.4404C30.09 53.6904 30.09 44.9304 30.09 36.1804C30.09 32.7804 31.97 30.6704 35.32 30.5104C36.8 30.4404 37.53 29.8904 38.07 28.5304C39.41 25.1904 42.16 23.3104 45.57 23.2604C49 23.2204 51.8 25.0304 53.16 28.3804C53.74 29.8004 54.44 30.4504 56.05 30.5204C59.69 30.6704 61.39 32.5804 61.4 36.2904C61.41 53.8804 61.41 71.4704 61.4 89.0604C61.4 92.5604 59.19 94.8504 55.68 94.8804C49.01 94.9404 42.34 94.9404 35.68 94.8804C32.34 94.8504 30.1 92.5204 30.09 89.1904C30.07 80.2704 30.09 71.3504 30.09 62.4304V62.4404ZM58.14 62.7304C58.14 54.0604 58.11 45.4004 58.16 36.7304C58.17 34.5904 57.33 33.7404 55.19 33.7604C48.94 33.8304 42.69 33.8404 36.45 33.7604C34.21 33.7304 33.33 34.5404 33.34 36.8304C33.4 54.0004 33.39 71.1604 33.34 88.3304C33.34 90.6404 34.12 91.6704 36.53 91.6404C42.61 91.5504 48.69 91.6204 54.77 91.6004C57.63 91.6004 58.12 91.1004 58.12 88.2404C58.14 79.7404 58.12 71.2404 58.12 62.7404L58.14 62.7304ZM41.33 30.2004H50.1C49.37 27.5004 47.54 26.4604 45.4 26.5804C43.53 26.6804 41.79 27.6704 41.33 30.2004Z" fill="#75F95C"/>
<path d="M58.14 62.7308C58.14 71.2308 58.15 79.7308 58.14 88.2308C58.14 91.1008 57.65 91.5808 54.79 91.5908C48.71 91.6108 42.63 91.5308 36.55 91.6308C34.13 91.6708 33.35 90.6408 33.36 88.3208C33.41 71.1508 33.41 53.9908 33.36 36.8208C33.36 34.5308 34.24 33.7208 36.47 33.7508C42.72 33.8308 48.97 33.8208 55.21 33.7508C57.35 33.7308 58.19 34.5808 58.18 36.7208C58.12 45.3908 58.16 54.0508 58.16 62.7208L58.14 62.7308Z" fill="#75F95C"/>
</svg>
