<svg width="32" height="73" viewBox="0 0 32 73" fill="none" xmlns="http://www.w3.org/2000/svg">
<path d="M0.0100098 39.7599C0.0100098 30.8499 0.0100098 21.9399 0.0100098 13.0199C0.0100098 9.47992 1.68001 7.54992 5.20001 7.38992C6.73001 7.31992 7.39001 6.62992 7.94001 5.38992C9.42001 2.01992 12.09 0.169922 15.71 0.169922C19.22 0.169922 21.88 1.94992 23.34 5.18992C23.99 6.63992 24.77 7.33992 26.47 7.42992C29.89 7.59992 31.56 9.50992 31.56 12.9099C31.58 30.8199 31.58 48.7299 31.56 66.6299C31.56 69.8399 29.54 71.9999 26.34 72.0299C19.26 72.1099 12.18 72.1099 5.10001 72.0299C2.02001 71.9999 0.03001 69.8399 0.02001 66.7499C9.99495e-06 57.7499 0.02001 48.7599 0.02001 39.7599H0.0100098ZM28.03 39.8499C28.03 31.2699 27.99 22.6999 28.05 14.1199C28.07 11.9199 27.27 10.9199 24.99 10.9499C18.83 11.0199 12.67 11.0099 6.51001 10.9499C4.38001 10.9299 3.50001 11.7999 3.51001 13.9199C3.54001 31.0699 3.54001 48.2199 3.51001 65.3699C3.51001 67.5899 4.45001 68.5099 6.67001 68.4799C12.66 68.4099 18.66 68.4699 24.65 68.4499C27.43 68.4499 28.02 67.8499 28.02 65.0799C28.04 56.6699 28.02 48.2599 28.02 39.8499H28.03ZM19.69 7.09992C19.46 4.90992 17.75 4.23992 16.15 4.02992C14.07 3.73992 12.41 4.74992 11.42 7.09992H19.69Z" fill="black"/>
<path d="M16.44 39.7798H23.29C20.53 43.4498 18.1 46.6898 15.66 49.9298C15.44 49.8598 15.22 49.7898 15 49.7198C15.36 47.4698 15.72 45.2098 16.12 42.6498H8.77002C11.68 38.7598 14.2 35.3898 16.72 32.0298C16.93 32.0898 17.14 32.1498 17.34 32.1998C17.05 34.5798 16.77 36.9698 16.43 39.7698L16.44 39.7798Z" fill="black"/>
</svg>
