<svg width="500" height="500" viewBox="0 0 500 500" fill="none" xmlns="http://www.w3.org/2000/svg">
<path d="M140 275.236C140 213.292 140 151.349 140 89.3353C140 64.7247 151.628 51.307 176.137 50.1947C186.79 49.708 191.385 44.911 195.215 36.2903C205.52 12.8615 224.11 0 249.315 0C273.755 0 292.276 12.3749 302.441 34.8999C306.967 44.9805 312.398 49.8471 324.235 50.4728C348.047 51.6546 359.675 64.9333 359.675 88.5705C359.815 213.084 359.815 337.597 359.675 462.041C359.675 484.358 345.611 499.374 323.33 499.583C274.033 500.139 224.737 500.139 175.44 499.583C153.995 499.374 140.139 484.358 140.07 462.875C139.93 400.306 140.07 337.806 140.07 275.236H140ZM335.097 275.862C335.097 216.212 334.818 156.632 335.236 96.9826C335.375 81.6879 329.805 74.7357 313.93 74.9443C271.039 75.4309 228.149 75.3614 185.258 74.9443C170.427 74.8052 164.3 80.8536 164.37 95.5922C164.579 214.822 164.579 334.052 164.37 453.281C164.37 468.715 170.915 475.111 186.372 474.903C228.079 474.416 269.856 474.833 311.563 474.694C330.919 474.694 335.027 470.523 335.027 451.265C335.166 392.798 335.027 334.33 335.027 275.862H335.097ZM277.027 48.1785C275.426 32.9533 263.519 28.2953 252.379 26.8354C237.896 24.8192 226.338 31.8409 219.445 48.1785H277.027Z" fill="black"/>
<path d="M254.398 275.375H302.093C282.876 300.889 265.957 323.414 248.967 345.939C247.436 345.453 245.904 344.966 244.372 344.479C246.879 328.837 249.385 313.125 252.17 295.327H200.994C221.256 268.283 238.802 244.855 256.348 221.495C257.81 221.912 259.272 222.33 260.665 222.677C258.646 239.223 256.696 255.839 254.329 275.305L254.398 275.375Z" fill="black"/>
</svg>
