<svg width="500" height="500" viewBox="0 0 500 500" fill="none" xmlns="http://www.w3.org/2000/svg">
<mask id="mask0_19_39" style="mask-type:luminance" maskUnits="userSpaceOnUse" x="28" y="0" width="445" height="500">
<path d="M472.444 0H28V500H472.444V0Z" fill="white"/>
</mask>
<g mask="url(#mask0_19_39)">
<path d="M472.444 0H28V500H472.444V0Z" fill="black"/>
<path d="M447.192 25.2524H53.2525V45.4545H447.192V25.2524Z" fill="#E0E0E0"/>
<path d="M447.192 65.6567H53.2525V85.8588H447.192V65.6567Z" fill="#E0E0E0"/>
<path d="M447.192 106.061H53.2525V126.263H447.192V106.061Z" fill="#E0E0E0"/>
<path d="M447.192 146.465H53.2525V166.667H447.192V146.465Z" fill="#E0E0E0"/>
<path d="M447.192 186.869H53.2525V207.071H447.192V186.869Z" fill="#E0E0E0"/>
<path d="M447.192 227.272H53.2525V247.474H447.192V227.272Z" fill="#E0E0E0"/>
<path d="M447.192 267.677H53.2525V287.879H447.192V267.677Z" fill="#E0E0E0"/>
<path d="M447.192 308.081H53.2525V328.283H447.192V308.081Z" fill="#E0E0E0"/>
<path d="M447.192 348.485H53.2525V368.687H447.192V348.485Z" fill="#E0E0E0"/>
<path d="M447.192 388.889H53.2525V409.091H447.192V388.889Z" fill="#E0E0E0"/>
<path d="M240.121 429.293H53.2525V474.748H240.121V429.293Z" fill="#E0E0E0"/>
<path d="M447.192 429.293H260.323V474.748H447.192V429.293Z" fill="#E0E0E0"/>
</g>
</svg>
