<svg width="88" height="99" viewBox="0 0 88 99" fill="none" xmlns="http://www.w3.org/2000/svg">
<g clip-path="url(#clip0_35_298)">
<path d="M88 0H0V99H88V0Z" fill="black"/>
<path d="M83 5H5V9H83V5Z" fill="#E0E0E0"/>
<path d="M83 13H5V17H83V13Z" fill="#E0E0E0"/>
<path d="M83 21H5V25H83V21Z" fill="#E0E0E0"/>
<path d="M83 29H5V33H83V29Z" fill="#E0E0E0"/>
<path d="M83 37H5V41H83V37Z" fill="#E0E0E0"/>
<path d="M83 45H5V49H83V45Z" fill="#E0E0E0"/>
<path d="M83 53H5V57H83V53Z" fill="#E0E0E0"/>
<path d="M83 61H5V65H83V61Z" fill="#E0E0E0"/>
<path d="M83 69H5V73H83V69Z" fill="#E0E0E0"/>
<path d="M83 77H5V81H83V77Z" fill="#E0E0E0"/>
<path d="M42 85H5V94H42V85Z" fill="#E0E0E0"/>
<path d="M83 85H46V94H83V85Z" fill="#E0E0E0"/>
</g>
<defs>
<clipPath id="clip0_35_298">
<rect width="88" height="99" fill="white"/>
</clipPath>
</defs>
</svg>
