<?xml version="1.0" encoding="UTF-8"?>
<svg id="Layer_2" data-name="Layer 2" xmlns="http://www.w3.org/2000/svg" viewBox="0 0 768 332">
  <g id="Layer_1-2" data-name="Layer 1">
    <path d="m80.81,28c-.79,0-.79.4-1.18.79C45.36,76.63,25.27,108.39,3.99,147.61l-2.36,4.31-.4,1.57c-1.97,3.93-1.58,8.23,1.18,11.76,12.6,19.61,83.12,42.74,240.31,42.74,117.4,0,242.28-18.82,242.28-54.11,0-33.34-122.91-53.33-242.28-53.33-39.79,0-78.79,5.1-89.82,7.06,10.64-16.47,55.55-76.48,55.55-76.86q.79-.78.79-1.18v-.78c-.79-.39-1.18-.79-1.97-.79h-126.45Zm45.7,125.88c0-7.06,44.52-17.25,116.22-17.25s115.82,10.19,115.82,17.25c0,7.84-44.12,17.65-115.82,17.65-71.7,0-116.22-9.8-116.22-17.65Z"/>
    <path d="m170.15,331.3c20.08.4,585.07,20.11,597.67-180.63C778.04-15.38,362.28.4,362.28.4c-.78,0-3.54,0-3.54,1.97,0,2.37,1.18,2.77,2.76,2.77,115.35,0,302.77,46.14,296.86,145.53-4.73,80.46-151.19,175.11-488.21,175.11-1.57,0-3.15,1.58-3.15,2.76,0,1.19,1.18,2.37,3.15,2.76Z"/>
  </g>
</svg>