<svg width="500" height="500" viewBox="0 0 500 500" fill="none" xmlns="http://www.w3.org/2000/svg">
<path d="M81.6667 294.184C131.176 228.768 180.967 163.588 230.006 97.8415C253.96 65.7461 276.597 32.6609 299.845 0C301.399 0 302.952 0 304.505 0C295.892 67.6313 287.233 135.31 278.385 204.779H417.5C342.201 305.872 269.867 402.96 197.58 500C196.215 499.529 194.803 499.01 193.439 498.539C205.157 432.887 216.828 367.235 229.017 298.897H81.6667C81.6667 297.342 81.6667 295.787 81.6667 294.231V294.184ZM249.207 228.297C255.278 182.958 260.972 140.07 267.655 90.2064C219.887 154.444 176.073 213.451 128.87 276.982H258.384C251.325 317.655 244.689 356.066 238.006 394.524C239.7 395.23 241.395 395.89 243.089 396.597C283.844 341.927 324.553 287.256 368.462 228.344H249.207V228.297Z" fill="black"/>
</svg>
