<svg width="72" height="107" viewBox="0 0 72 107" fill="none" xmlns="http://www.w3.org/2000/svg">
<path d="M0 62.42C10.52 48.54 21.1 34.71 31.52 20.76C36.61 13.95 41.42 6.93 46.36 0C46.69 0 47.02 0 47.35 0C45.52 14.35 43.68 28.71 41.8 43.45H71.36C55.36 64.9 39.99 85.5 24.63 106.09C24.34 105.99 24.04 105.88 23.75 105.78C26.24 91.85 28.72 77.92 31.31 63.42H0C0 63.09 0 62.76 0 62.43V62.42ZM35.6 48.44C36.89 38.82 38.1 29.72 39.52 19.14C29.37 32.77 20.06 45.29 10.03 58.77H37.55C36.05 67.4 34.64 75.55 33.22 83.71C33.58 83.86 33.94 84 34.3 84.15C42.96 72.55 51.61 60.95 60.94 48.45H35.6V48.44Z" fill="black"/>
</svg>
