<svg width="162" height="161" viewBox="0 0 162 161" fill="none" xmlns="http://www.w3.org/2000/svg">
<path d="M83.4501 117.68C68.3401 118.34 54.4501 104.76 54.7401 88.64C55.0201 73.11 68.0601 61.01 82.0501 60.46C99.5401 59.77 111.42 74.1 112.05 87.59C112.87 105.11 98.1301 118.31 83.4501 117.68ZM106.92 89.12C106.91 76.2 96.4501 65.69 83.5601 65.59C70.5201 65.49 59.7101 76.17 59.8401 89.11C59.9801 102.56 70.3601 112.76 83.5001 112.71C96.5001 112.66 106.79 102.47 106.93 89.12H106.92Z" fill="black"/>
<path d="M60.3301 62.8296C58.1601 66.2096 57.7901 66.2596 55.3301 63.7796C51.2901 59.7196 47.2801 55.6396 43.2001 51.6296C42.0601 50.5096 41.7001 49.7496 43.0501 48.4196C44.3601 47.1196 45.0601 47.6596 46.0601 48.6496C50.7701 53.3696 55.5201 58.0496 60.3301 62.8196V62.8296Z" fill="black"/>
<path d="M109.08 111.85C114.29 117.02 119.11 121.86 124 126.62C124.93 127.53 125.03 128.16 124.09 129.05C123.22 129.87 122.39 130.83 121.18 129.63C116.58 125.07 111.91 120.58 107.48 115.87C105.52 113.79 108.43 113.34 109.08 111.85Z" fill="black"/>
<path d="M85.3701 54.8998H81.6201V32.3198C84.1135 31.9131 85.3635 32.9031 85.3701 35.2898C85.3701 41.7498 85.3701 48.1998 85.3701 54.9098V54.8998Z" fill="black"/>
<path d="M117.59 90.8198V87.2998H140.32V90.8198H117.59Z" fill="black"/>
<path d="M124.96 49.9896C124.48 50.5796 124.03 51.2696 123.47 51.8296C119.3 56.0296 115.12 60.2096 110.91 64.3696C110 65.2696 109.21 66.3096 107.7 64.6996C106.37 63.2796 106.8 62.5596 107.89 61.4796C111.95 57.4696 115.96 53.3996 120.01 49.3696C121.65 47.7363 123.3 47.943 124.96 49.9896Z" fill="black"/>
<path d="M48.9701 90.8999H26.5601V87.1099C30.6601 87.1099 34.6301 87.1099 38.6101 87.1099C41.0201 87.1099 43.4301 87.1099 45.8501 87.1099C48.2501 87.1099 49.2901 88.3732 48.9701 90.8999Z" fill="black"/>
<path d="M85.21 145.97H81.63V123.45H85.21V145.97Z" fill="black"/>
<path d="M57.3001 112.04C60.5601 114.24 60.6201 114.66 58.2401 117.04C54.2301 121.05 50.2101 125.04 46.2101 129.06C45.1901 130.08 44.3701 130.68 42.9701 129.29C41.5401 127.87 42.2001 127.19 43.2601 126.13C47.9501 121.49 52.5901 116.78 57.3101 112.04H57.3001Z" fill="black"/>
</svg>
