<?xml version="1.0" encoding="UTF-8"?>
<svg id="Layer_2" data-name="Layer 2" xmlns="http://www.w3.org/2000/svg" viewBox="0 0 107 107">
  <g id="Layer_1-2" data-name="Layer 1">
    <g id="WMZP2m.tif">
      <g>
        <path d="m74.46,59.98c0,11.85-9.56,21.38-21.36,21.34-12.1-.04-21.56-10.23-21.23-21.68.34-11.75,9.45-21.04,21.33-21.03,11.84,0,21.27,9.48,21.27,21.38Zm-38.94,0c0,9.68,7.81,17.54,17.51,17.64,9.67.1,17.84-8,17.83-17.69,0-9.57-8.06-17.64-17.63-17.67-9.78-.03-17.72,7.91-17.72,17.71Z"/>
        <path d="m72.12,42.32c-.48-.53-1-1.1-1.51-1.65,3.98-3.96,7.77-7.74,11.75-11.71.52.47,1.09.99,1.72,1.56-3.99,3.94-7.83,7.73-11.95,11.8Z"/>
        <path d="m23.74,90.65c-.49-.53-1.03-1.11-1.57-1.68,3.96-3.91,7.78-7.68,11.82-11.66.47.43,1.1.99,1.77,1.59-4.04,3.95-7.89,7.72-12.02,11.76Z"/>
        <path d="m27.38,58.7v2.57H10.72c-.07-.82-.14-1.6-.22-2.57h16.89Z"/>
        <path d="m51.92,85.62h2.47v16.77h-2.47v-16.77Z"/>
        <path d="m54.35,34.29h-2.41v-16.74c.78-.03,1.51-.07,2.41-.11v16.85Z"/>
        <path d="m95.5,58.67v2.58h-16.66c-.05-.86-.1-1.64-.15-2.58h16.82Z"/>
        <path d="m35.6,40.91c-.42.38-1,.9-1.64,1.49-3.89-4.03-7.67-7.94-11.6-12.02.38-.35.96-.88,1.64-1.5,3.85,3.99,7.57,7.85,11.61,12.03Z"/>
        <path d="m84.11,88.89c-.59.66-1.11,1.25-1.7,1.91-3.89-4.01-7.61-7.84-11.57-11.92.31-.39.84-1.04,1.42-1.75,4.04,4.01,7.88,7.83,11.85,11.77Z"/>
        <path d="m52.94,44.48v30.97c-8.53.52-15.42-6.56-15.61-15.52-.19-9.41,8.69-16.46,15.61-15.45Z"/>
      </g>
    </g>
  </g>
</svg>