<svg width="500" height="500" viewBox="0 0 500 500" fill="none" xmlns="http://www.w3.org/2000/svg">
<g clip-path="url(#clip0_17_171)">
<ellipse cx="250.002" cy="250" rx="128.049" ry="128.571" fill="black"/>
<rect x="239.836" width="20.3252" height="76.5306" fill="black"/>
<rect x="239.836" y="423.469" width="20.3252" height="76.5306" fill="black"/>
<rect width="20.3667" height="76.3752" transform="matrix(0.705665 0.708545 -0.705665 0.708545 417.711 67.3472)" fill="black"/>
<rect width="20.3667" height="76.3752" transform="matrix(0.705665 -0.708545 0.705665 0.708545 68.0859 81.7778)" fill="black"/>
<rect width="20.3667" height="76.3752" transform="matrix(0.705665 0.708545 -0.705665 0.708545 121.984 364.286)" fill="black"/>
<rect x="500" y="239.796" width="20.4082" height="76.2195" transform="rotate(90 500 239.796)" fill="black"/>
<rect x="76.2188" y="239.796" width="20.4082" height="76.2195" transform="rotate(90 76.2188 239.796)" fill="black"/>
<rect width="20.3667" height="76.3752" transform="matrix(-0.705665 0.708545 -0.705665 -0.708546 432.086 418.401)" fill="black"/>
</g>
<defs>
<clipPath id="clip0_17_171">
<rect width="500" height="500" fill="white"/>
</clipPath>
</defs>
</svg>
