<?xml version="1.0" encoding="UTF-8"?>
<svg id="Layer_2" data-name="Layer 2" xmlns="http://www.w3.org/2000/svg" viewBox="0 0 128 101">
  <g id="Layer_1-2" data-name="Layer 1">
    <g id="bBPCpJ.tif">
      <g>
        <path d="m72.81,70.69c-11.06.31-21.61-9.6-21.19-22.06.36-10.65,9.95-20.72,21.83-20.43,10.38.26,21.1,9.38,20.71,22.08-.34,11.07-9.86,20.44-21.35,20.41Zm.09-38.81c-9.65,0-17.58,7.85-17.59,17.44-.01,9.75,7.92,17.81,17.54,17.83,9.42.01,17.65-8.16,17.67-17.55.02-9.68-7.96-17.71-17.62-17.72Z"/>
        <path d="m42.06,20.02c.46-.47,1.02-1.03,1.57-1.59,4.03,4.06,7.86,7.9,11.83,11.9-.44.48-.97,1.07-1.49,1.64-4-4.01-7.86-7.88-11.91-11.95Z"/>
        <path d="m74.16,75.11v16.49h-2.54v-16.49h2.54Z"/>
        <path d="m74.08,23.84h-2.44V7.14h2.44v16.69Z"/>
        <path d="m90.18,68.39c.7-.66,1.21-1.14,1.75-1.65,3.86,3.97,7.58,7.79,11.51,11.83-.31.32-.88.93-1.47,1.56-3.97-3.96-7.75-7.72-11.79-11.74Z"/>
        <path d="m91.47,31.65c-.17-.2-.68-.78-1.32-1.51,4-3.82,7.89-7.55,12.18-11.66.24.38.67,1.05,1.15,1.79-3.87,3.66-7.79,7.37-12.02,11.38Z"/>
        <path d="m53.67,66.71c.63.53,1.22,1.03,1.78,1.5-3.97,4.02-7.77,7.86-11.69,11.82-.58-.51-1.16-1.03-1.78-1.57,3.96-3.99,7.76-7.81,11.68-11.75Z"/>
        <path d="m30.52,50.62v-2.34h16.68v2.34h-16.68Z"/>
        <path d="m115.06,48.29v2.36h-16.61c-.04-.75-.08-1.45-.12-2.36h16.74Z"/>
        <path d="m57.15,49.33c-.35-8.38,7.51-16.05,16.28-15.61,8.4.42,15.21,7.14,15.23,15.78.03,8.58-7.13,15.86-15.75,15.79-8.75-.07-16.05-7.05-15.77-15.96Z"/>
      </g>
    </g>
  </g>
</svg>