<svg width="102" height="102" viewBox="0 0 102 102" fill="none" xmlns="http://www.w3.org/2000/svg">
<g clip-path="url(#clip0_35_267)">
<path d="M15 27.5C21.9036 27.5 27.5 21.9036 27.5 15C27.5 8.09644 21.9036 2.5 15 2.5C8.09644 2.5 2.5 8.09644 2.5 15C2.5 21.9036 8.09644 27.5 15 27.5Z" stroke="black" stroke-width="5"/>
<path d="M87 63.5C93.9036 63.5 99.5 57.9036 99.5 51C99.5 44.0964 93.9036 38.5 87 38.5C80.0964 38.5 74.5 44.0964 74.5 51C74.5 57.9036 80.0964 63.5 87 63.5Z" stroke="black" stroke-width="5"/>
<path d="M15 99.5C21.9036 99.5 27.5 93.9036 27.5 87C27.5 80.0964 21.9036 74.5 15 74.5C8.09644 74.5 2.5 80.0964 2.5 87C2.5 93.9036 8.09644 99.5 15 99.5Z" stroke="#FD4339" stroke-width="5"/>
<path d="M54 12H29V18H54V12Z" fill="black"/>
<path d="M54 18H48V54H54V18Z" fill="black"/>
<path d="M73 48H54V54H73V48Z" fill="black"/>
<path d="M54 66H48V90H54V66Z" fill="#FD4339"/>
<path d="M48 84H29V90H48V84Z" fill="#FD4339"/>
</g>
<defs>
<clipPath id="clip0_35_267">
<rect width="102" height="102" fill="white"/>
</clipPath>
</defs>
</svg>
