<svg width="500" height="500" viewBox="0 0 500 500" fill="none" xmlns="http://www.w3.org/2000/svg">
<g clip-path="url(#clip0_19_40)">
<mask id="mask0_19_40" style="mask-type:luminance" maskUnits="userSpaceOnUse" x="0" y="0" width="500" height="500">
<path d="M500 0H0V500H500V0Z" fill="white"/>
</mask>
<g mask="url(#mask0_19_40)">
<path d="M73.5294 134.804C107.371 134.804 134.804 107.371 134.804 73.5294C134.804 39.6884 107.371 12.2549 73.5294 12.2549C39.6884 12.2549 12.2549 39.6884 12.2549 73.5294C12.2549 107.371 39.6884 134.804 73.5294 134.804Z" stroke="black" stroke-width="25"/>
<path d="M426.471 311.275C460.312 311.275 487.745 283.841 487.745 250C487.745 216.159 460.312 188.726 426.471 188.726C392.629 188.726 365.196 216.159 365.196 250C365.196 283.841 392.629 311.275 426.471 311.275Z" stroke="black" stroke-width="25"/>
<path d="M73.5294 487.745C107.371 487.745 134.804 460.312 134.804 426.471C134.804 392.63 107.371 365.196 73.5294 365.196C39.6884 365.196 12.2549 392.63 12.2549 426.471C12.2549 460.312 39.6884 487.745 73.5294 487.745Z" stroke="#FD4339" stroke-width="25"/>
<path d="M264.706 58.8237H142.157V88.2355H264.706V58.8237Z" fill="black"/>
<path d="M264.706 88.2354H235.294V264.706H264.706V88.2354Z" fill="black"/>
<path d="M357.843 235.294H264.706V264.706H357.843V235.294Z" fill="black"/>
<path d="M264.706 323.529H235.294V441.176H264.706V323.529Z" fill="#FD4339"/>
<path d="M235.294 411.765H142.157V441.176H235.294V411.765Z" fill="#FD4339"/>
</g>
</g>
<defs>
<clipPath id="clip0_19_40">
<rect width="500" height="500" fill="white"/>
</clipPath>
</defs>
</svg>
