<svg width="500" height="500" viewBox="0 0 500 500" fill="none" xmlns="http://www.w3.org/2000/svg">
<g clip-path="url(#clip0_15_184)">
<path d="M0 500.227C2.81748 455.424 6.79511 412.996 32.2077 377.694C46.2399 358.193 69.0007 350.404 94.3581 355.376C98.6671 356.204 103.418 354.547 108.004 353.994C106.457 349.741 106.015 344.492 103.142 341.509C96.7336 334.825 99.6615 330.46 104.91 325.543C137.173 295.49 169.215 265.216 201.588 235.273C241.033 198.646 280.754 162.295 320.254 125.723C366.162 83.2399 412.015 40.6462 458.532 -2.5C472.011 11.035 485.933 24.5147 499.081 38.7126C500.794 40.5909 499.965 47.4965 497.811 49.872C479.911 69.6497 461.294 88.7643 443.118 108.321C388.205 167.212 333.457 226.269 278.489 285.159C243.187 323.002 207.389 360.403 172.364 398.522C163.801 407.858 158.166 408.245 151.536 397.417C150.1 395.041 146.73 393.881 142.642 391.008C142.145 396.201 141.04 399.682 141.592 402.941C148.387 442.165 130.82 466.749 95.9602 482.604C66.0175 496.25 34.4727 497.852 0 500.172V500.227ZM430.025 74.6217C429.031 73.793 428.092 73.0196 427.097 72.1909C383.122 112.52 339.037 152.738 295.283 193.287C247.11 237.98 199.157 282.95 151.371 328.029C148.829 330.405 146.509 336.648 147.78 338.692C152.144 345.487 158.166 351.177 164.519 358.359C253.629 263.117 341.855 168.869 430.025 74.6217ZM35.6329 464.65C58.3937 462.164 77.3427 457.634 94.0266 446.308C98.7776 443.049 103.031 438.574 106.346 433.768C114.412 422.056 110.545 400.676 99.4406 392.445C86.2371 382.666 69.3322 384.324 59.0566 397.527C44.2511 416.476 40.5497 439.403 35.6881 464.595L35.6329 464.65Z" fill="black"/>
</g>
<defs>
<clipPath id="clip0_15_184">
<rect width="500" height="500" fill="white"/>
</clipPath>
</defs>
</svg>
