<svg width="500" height="500" viewBox="0 0 500 500" fill="none" xmlns="http://www.w3.org/2000/svg">
<g clip-path="url(#clip0_15_170)">
<path d="M500 500.222H0V-1.66669H500V500.222ZM473.994 473.352V134.408H25.0351V473.352H473.994ZM24.9272 106.189H474.21V24.2317H24.9272V106.189Z" fill="black"/>
<path d="M316.176 184.262C347.577 182.104 367.595 201.851 373.314 232.768C381.623 278.09 383.026 323.843 370.562 368.788C357.235 416.754 301.338 423.39 273.983 395.442C265.242 386.539 257.851 373.212 256.232 361.072C252.293 331.451 250.405 301.29 251.052 271.453C251.43 253.163 255.476 233.955 262.491 217.121C272.095 193.92 285.961 182.59 316.176 184.208V184.262ZM301.608 207.463C287.849 216.959 282.832 231.904 281.968 247.659C280.512 274.529 279.432 301.506 280.781 328.322C281.537 344.023 285.206 360.371 291.303 374.831C298.047 390.855 312.345 393.499 327.83 385.568C345.527 376.503 347.2 358.105 348.495 342.674C350.977 312.351 351.57 281.489 348.495 251.274C345.527 221.869 336.463 199.855 301.608 207.463Z" fill="black"/>
<path d="M156.307 238.595H114.654V218.092C139.905 219.656 159.653 212.966 165.372 186.582H186.198V405.477H156.307V238.595Z" fill="black"/>
</g>
<defs>
<clipPath id="clip0_15_170">
<rect width="500" height="500" fill="white"/>
</clipPath>
</defs>
</svg>
