<?xml version="1.0" encoding="UTF-8"?>
<svg id="Layer_2" data-name="Layer 2" xmlns="http://www.w3.org/2000/svg" viewBox="0 0 186 176">
  <g id="Layer_1-2" data-name="Layer 1">
    <g id="_3EtFIQ.tif" data-name="3EtFIQ.tif">
      <g>
        <path d="m156.84,141.37h-92.67V48.35h92.67v93.02Zm-4.82-4.98v-62.82h-83.21v62.82h83.21Zm-83.23-68.05h83.27v-15.19h-83.27v15.19Z"/>
        <path d="m122.77,82.81c5.82-.4,9.53,3.26,10.59,8.99,1.54,8.4,1.8,16.88-.51,25.21-2.47,8.89-12.83,10.12-17.9,4.94-1.62-1.65-2.99-4.12-3.29-6.37-.73-5.49-1.08-11.08-.96-16.61.07-3.39.82-6.95,2.12-10.07,1.78-4.3,4.35-6.4,9.95-6.1Zm-2.7,4.3c-2.55,1.76-3.48,4.53-3.64,7.45-.27,4.98-.47,9.98-.22,14.95.14,2.91.82,5.94,1.95,8.62,1.25,2.97,3.9,3.46,6.77,1.99,3.28-1.68,3.59-5.09,3.83-7.95.46-5.62.57-11.34,0-16.94-.55-5.45-2.23-9.53-8.69-8.12Z"/>
        <path d="m93.14,92.88h-7.72v-3.8c4.68.29,8.34-.95,9.4-5.84h3.86v40.57h-5.54v-30.93Z"/>
      </g>
    </g>
  </g>
</svg>