<svg width="142" height="138" viewBox="0 0 142 138" fill="none" xmlns="http://www.w3.org/2000/svg">
<path d="M97.0199 65.32C102.31 62.15 107.32 59.53 111.88 56.28C115.74 53.53 119.77 53.82 124.19 54.06V93.2C118.9 94.7 114.55 92.8 110.28 89.94C106.16 87.19 101.8 84.8 97.2699 82.08C97.1699 82.98 97.0399 83.59 97.0399 84.19C97.0199 87.77 97.0599 91.35 97.0199 94.93C96.9899 97.89 95.32 99.62 92.41 99.62C76.17 99.64 59.9299 99.64 43.6899 99.62C40.5499 99.62 38.9599 98 38.9599 94.84C38.9399 80.77 38.9399 66.69 38.9599 52.62C38.9599 49.47 40.5599 47.86 43.7099 47.85C59.8699 47.83 76.0199 47.83 92.1799 47.85C95.4099 47.85 97.0099 49.52 97.0299 52.81C97.0499 56.8 97.0299 60.79 97.0299 65.31L97.0199 65.32ZM68.0799 51.73C60.6599 51.73 53.2499 51.77 45.8299 51.7C43.8899 51.68 42.9599 52.18 42.9699 54.36C43.0499 67.27 43.0399 80.19 42.9699 93.1C42.9699 95.08 43.7099 95.74 45.5999 95.73C60.4299 95.69 75.2599 95.69 90.0899 95.73C92.1999 95.73 92.9799 95.02 92.9699 92.81C92.8799 80.06 92.8799 67.31 92.9699 54.57C92.9899 52.34 92.1899 51.66 90.0599 51.68C82.7299 51.76 75.3999 51.71 68.0599 51.71L68.0799 51.73ZM120.22 89.81V57.59C118.61 58.09 117.2 58.26 116.06 58.92C110.91 61.92 105.98 65.34 100.68 68.05C97.4399 69.71 96.4399 71.89 97.0599 75.12C97.2299 76.02 97.7599 77.15 98.4899 77.61C104.51 81.4 110.6 85.1 116.73 88.73C117.66 89.28 118.84 89.4 120.22 89.81Z" fill="black"/>
</svg>
