<svg width="144" height="148" viewBox="0 0 144 148" fill="none" xmlns="http://www.w3.org/2000/svg">
<path d="M22 28.4602V22.9002C26.12 22.9002 30.16 22.8202 34.19 22.9902C34.75 23.0102 35.49 24.1302 35.76 24.8702C37.79 30.3902 37.76 30.4002 43.5 30.4002C67.41 30.4002 91.32 30.4002 115.24 30.4002C116.21 30.4002 117.19 30.4002 118.32 30.4002C118.37 31.4602 118.44 32.2702 118.44 33.0802C118.44 45.0402 118.38 57.0001 118.5 68.9501C118.52 71.3401 117.72 71.9702 115.43 72.2202C106.2 73.2002 97.01 74.4502 87.8 75.5402C83.7 76.0302 79.57 76.3202 75.47 76.8202C67.69 77.7602 59.89 78.5901 52.16 79.8401C46.09 80.8201 41.34 84.9702 38.85 90.8502H118.23V96.4802H32.79C31.27 89.9802 35.16 81.8202 41.66 77.8902C42.63 77.3102 43.61 76.6502 44.67 76.3502C46.97 75.6802 46.76 74.1402 46.18 72.4902C41.65 59.5502 37.12 46.6202 32.54 33.7102C30.68 28.4602 30.63 28.4802 25.2 28.4702C24.22 28.4702 23.23 28.4702 22 28.4702V28.4602ZM39.62 36.1602C40.09 37.3102 40.45 38.1002 40.74 38.9102C44.53 49.7202 48.37 60.5101 52.02 71.3801C52.63 73.2001 53.39 73.4302 55.04 73.2402C64.5 72.1502 73.98 71.1601 83.45 70.1301C86.57 69.7901 89.69 69.4201 92.81 69.0201C97.22 68.4601 101.63 67.8702 106.05 67.2902C108.22 67.0102 110.4 66.7302 112.5 66.4602V36.1602H39.62Z" fill="black"/>
<path d="M116.81 104.97C116.83 108.2 114.53 110.59 111.34 110.67C107.91 110.76 105.23 108.05 105.32 104.82C105.41 101.48 107.63 99.2301 111.21 99.1401C114.59 99.0501 116.79 101.45 116.81 104.97Z" fill="black"/>
<path d="M39.39 110.67C36.2 110.73 33.46 108.13 33.4 104.96C33.34 101.84 36.07 99.1003 39.24 99.0903C42.52 99.0903 44.99 101.59 45.02 104.95C45.05 108.06 42.54 110.6 39.38 110.66L39.39 110.67Z" fill="black"/>
</svg>
