<svg width="167" height="168" viewBox="0 0 167 168" fill="none" xmlns="http://www.w3.org/2000/svg">
<path d="M0.0300111 84.3699C-0.579989 38.8599 37.57 -0.130129 85.11 0.739871C129.2 1.54987 167.65 38.1399 166.93 85.8899C166.27 129.79 129.48 169.18 80.69 167.77C37.32 166.52 -0.299989 130.36 0.0300111 84.3699ZM83.72 9.55987C41.93 9.54987 8.11001 43.0399 8.59001 85.0099C9.06001 125.83 41.52 158.72 82.89 159.07C124.32 159.42 157.8 125.89 158.19 84.9899C158.59 43.1099 124.16 9.29987 83.73 9.55987H83.72Z" fill="black"/>
<path d="M53.42 84.48C52.26 69.06 66.94 53.84 83.25 54.1C100.03 54.37 113.52 67.45 113.55 84.05C113.58 100.91 100.35 114.31 83.66 114.34C66.63 114.36 53.43 101.33 53.42 84.48ZM83.7 62.83C72.08 62.72 62.07 72.35 61.82 83.89C61.57 95.47 71.78 105.85 83.48 105.91C94.85 105.97 104.78 95.97 104.84 84.39C104.9 72.55 95.49 62.94 83.7 62.83Z" fill="black"/>
</svg>
