<svg width="150" height="150" viewBox="0 0 150 150" fill="none" xmlns="http://www.w3.org/2000/svg">
<path d="M126.13 75.66C127.13 102.17 103.3 125.97 75.8199 125.28C48.2199 124.59 26.9099 103.08 26.7299 74.83C26.5599 47.4 50.7699 25 77.1499 25.69C104.59 26.41 126.13 47.75 126.12 75.65L126.13 75.66ZM74.1399 119.46C88.5599 121.24 104.38 113.55 113.04 100.72C121.89 87.62 123.26 73.62 117.61 58.58H88.2599C98.1999 70.06 98.8599 76.74 91.8099 89.01C86.0599 99.01 80.2299 108.96 74.1299 119.46H74.1399ZM115.25 53.87C106.7 39.73 94.8899 32.21 79.4599 31.17C63.7699 30.11 50.9699 36.22 40.9999 48.73C45.7599 56.88 50.2999 64.67 55.2499 73.15C58.8599 58.84 68.2999 54.54 81.3899 54.83C92.3699 55.07 103.38 54.25 115.26 53.87H115.25ZM38.4699 52.19C30.1999 67.72 29.6499 82.4 37.6699 97.01C44.5999 109.62 55.4299 116.83 69.6399 119.46C74.3999 111.25 78.8899 103.53 83.8799 94.93C69.7099 98.4 61.4099 92.45 55.4199 81.31C50.2799 71.75 44.5199 62.53 38.4699 52.19ZM92.4899 75.85C92.5599 66.56 85.2599 58.97 76.1499 58.85C67.0799 58.74 59.2999 66.4 59.3099 75.43C59.3199 84.42 67.2899 92.52 75.9699 92.37C84.7799 92.22 92.4199 84.58 92.4799 75.85H92.4899Z" fill="black"/>
</svg>
