<svg width="500" height="500" viewBox="0 0 500 500" fill="none" xmlns="http://www.w3.org/2000/svg">
<path d="M242.598 289.318H227.892C227.892 294.994 231.16 300.165 236.289 302.6L242.598 289.318ZM154.363 289.318L160.672 302.6C165.801 300.165 169.069 294.994 169.069 289.318H154.363ZM227.892 58.8235V289.318H257.304V58.8235H227.892ZM198.48 29.4118C214.724 29.4118 227.892 42.58 227.892 58.8235H257.304C257.304 26.3362 230.968 0 198.48 0V29.4118ZM169.069 58.8235C169.069 42.58 182.236 29.4118 198.48 29.4118V0C165.992 0 139.657 26.3362 139.657 58.8235H169.069ZM169.069 289.318V58.8235H139.657V289.318H169.069ZM110.245 382.353C110.245 347.176 130.829 316.78 160.672 302.6L148.054 276.035C108.34 294.9 80.8333 335.4 80.8333 382.353H110.245ZM198.48 470.588C149.748 470.588 110.245 431.085 110.245 382.353H80.8333C80.8333 447.326 133.506 500 198.48 500V470.588ZM286.716 382.353C286.716 431.085 247.213 470.588 198.48 470.588V500C263.454 500 316.127 447.326 316.127 382.353H286.716ZM236.289 302.6C266.133 316.78 286.716 347.176 286.716 382.353H316.127C316.127 335.4 288.621 294.9 248.907 276.035L236.289 302.6Z" fill="black"/>
<path d="M198.48 397.059V338.235" stroke="black" stroke-width="33.3333" stroke-linecap="round" stroke-linejoin="round"/>
<path d="M301.422 250H360.245" stroke="black" stroke-width="33.3333" stroke-linecap="round" stroke-linejoin="round"/>
<path d="M301.422 191.177H360.245" stroke="black" stroke-width="33.3333" stroke-linecap="round" stroke-linejoin="round"/>
<path d="M301.422 132.353H360.245" stroke="black" stroke-width="33.3333" stroke-linecap="round" stroke-linejoin="round"/>
<path d="M301.422 73.5295H419.069" stroke="black" stroke-width="33.3333" stroke-linecap="round" stroke-linejoin="round"/>
</svg>
