<svg width="500" height="500" viewBox="0 0 500 500" fill="none" xmlns="http://www.w3.org/2000/svg">
<g clip-path="url(#clip0_15_169)">
<path d="M250.327 499.948C112.308 502.843 -4.79532 384.139 0.151209 240.826C4.5063 114.241 113.33 -5.58877 261.511 0.201661C380.389 4.81256 506.364 106.628 499.75 263.291C494.589 385.909 391.303 501.449 250.327 499.948ZM248.875 473.301C372.324 474.749 470.501 372.666 473.136 256.16C476.039 128.449 372.754 28.4032 253.553 26.7948C127.739 25.0791 26.228 128.288 26.7119 252.622C27.142 372.183 128.331 473.248 248.875 473.301Z" fill="black"/>
<path d="M244.843 245.706V79.8204H275.382V275.033H121.072V245.706H244.789H244.843Z" fill="black"/>
</g>
<defs>
<clipPath id="clip0_15_169">
<rect width="500" height="500" fill="white"/>
</clipPath>
</defs>
</svg>
