<?xml version="1.0" encoding="UTF-8"?>
<svg id="Layer_2" data-name="Layer 2" xmlns="http://www.w3.org/2000/svg" viewBox="0 0 139 152">
  <g id="Layer_1-2" data-name="Layer 1">
    <g id="_0W93Gf.tif" data-name="0W93Gf.tif">
      <g>
        <path d="m72.25,124.99c-25.67.54-47.45-21.6-46.53-48.33.81-23.61,21.05-45.96,48.61-44.88,22.11.86,45.54,19.85,44.31,49.07-.96,22.87-20.17,44.42-46.39,44.14Zm-.27-4.97c22.96.27,41.22-18.77,41.71-40.5.54-23.82-18.67-42.48-40.84-42.78-23.4-.32-42.28,18.93-42.19,42.12.08,22.3,18.9,41.15,41.32,41.16Z"/>
        <path d="m71.23,77.57v-30.94h5.68v36.41h-28.7v-5.47h23.01Z"/>
      </g>
    </g>
  </g>
</svg>