<svg width="500" height="500" viewBox="0 0 500 500" fill="none" xmlns="http://www.w3.org/2000/svg">
<path d="M180.904 469.657V371.137C175.932 370.876 171.746 370.527 167.559 370.527C125.037 370.483 82.5155 369.742 40.0811 370.832C20.6301 371.355 -0.216364 350.509 0.00169614 330.622C0.873935 243.79 0.350592 157.003 0.394204 70.1713C0.394204 47.1442 16.7923 30.877 39.9502 30.8334C180.512 30.8334 321.116 30.8334 461.676 30.8334C483.831 30.8334 499.967 46.7081 499.967 68.7321C500.011 156.261 500.011 243.834 499.967 331.363C499.967 353.998 483.613 370.396 461.065 370.44C404.415 370.483 347.72 370.265 291.068 370.745C285.398 370.788 278.377 373.71 274.321 377.635C245.624 405.46 217.495 433.939 189.19 462.155C187.271 464.074 185.134 465.819 180.904 469.569V469.657ZM205.632 407.771C222.117 391.373 236.989 377.548 250.683 362.677C261.761 350.64 273.056 344.185 290.85 344.665C345.321 346.191 399.836 345.232 454.349 345.188C468.349 345.188 475.327 338.21 475.327 324.254C475.327 241.784 475.327 159.314 475.327 76.8004C475.327 62.6701 467.782 55.2124 453.433 55.2124C318.282 55.2124 183.085 55.2124 47.9313 55.2124C32.7107 55.2124 25.7327 62.234 25.7327 77.5418C25.7327 159.663 25.7327 241.784 25.7327 323.906C25.7327 338.734 32.2745 345.188 47.2771 345.232C95.5991 345.275 143.921 345.232 192.243 345.232C196.125 345.232 200.006 345.232 205.588 345.232V407.771H205.632Z" fill="black"/>
</svg>
