<svg width="115" height="102" viewBox="0 0 115 102" fill="none" xmlns="http://www.w3.org/2000/svg">
<path d="M64.08 78.99C56.8 86.35 49.41 93.83 41.6 101.73V79.12C40.44 79.07 39.57 78.99 38.69 78.99C28.69 78.99 18.7 78.99 8.69999 78.99C4.10999 78.99 0.0699927 75 0.0699927 70.42C0.0499927 50.09 0.0499927 29.76 0.0699927 9.43999C0.0699927 4.99999 4.12999 0.999988 8.56999 0.999988C41.14 0.999988 73.72 1.04999 106.29 0.919988C110.09 0.899988 114.79 5.40999 114.76 9.42999C114.64 29.76 114.63 50.09 114.76 70.41C114.79 74.55 110.01 79.17 105.91 79.09C92.17 78.83 78.42 78.99 64.06 78.99H64.08ZM108.92 9.59999C107.37 7.17999 105.36 6.72999 102.96 6.73999C72.48 6.78999 41.99 6.76999 11.51 6.77999C7.41999 6.77999 5.95999 8.20999 5.95999 12.19C5.95999 30.76 5.95999 49.34 5.95999 67.91C5.95999 68.82 5.95999 69.73 5.95999 70.64C7.37999 72.77 9.29999 73.21 11.62 73.19C22.36 73.12 33.11 73.16 43.85 73.16C44.83 73.16 45.81 73.16 47.19 73.16V86.9C47.36 86.93 47.54 86.97 47.71 87C52.23 82.35 56.75 77.69 61.15 73.16C62.66 73.16 63.73 73.16 64.81 73.16C77.64 73.16 90.46 73.11 103.29 73.2C105.75 73.22 107.62 72.59 108.94 70.34V9.59999H108.92Z" fill="black"/>
<path d="M39.83 48.5802C41.73 46.7702 43.43 45.1502 45.12 43.5302C47.18 45.5802 49.07 47.4602 51.26 49.6302C51.98 49.1502 52.75 48.8002 53.32 48.2402C58.32 43.3202 63.29 38.3702 68.25 33.4102C70.27 31.3902 70.9 31.3502 72.86 33.2802C75.37 35.7402 75.38 36.0802 72.89 38.5702C66.36 45.1002 59.82 51.6302 53.27 58.1502C51.28 60.1402 50.64 60.1302 48.69 58.1402C46.21 55.6102 43.73 53.0802 41.29 50.5202C40.76 49.9602 40.36 49.2702 39.84 48.5702L39.83 48.5802Z" fill="black"/>
</svg>
