<svg width="115" height="101" viewBox="0 0 115 101" fill="none" xmlns="http://www.w3.org/2000/svg">
<path d="M41.4804 100.62V78.03C40.3404 77.97 39.3804 77.89 38.4204 77.89C28.6704 77.88 18.9204 77.71 9.19039 77.96C4.73039 78.08 -0.0496111 73.3 0.000388916 68.74C0.200389 48.83 0.0803891 28.93 0.0903891 9.02C0.0903891 3.74 3.85039 0.01 9.16039 0C41.3904 0 73.6304 0 105.86 0C110.94 0 114.64 3.64 114.64 8.69C114.65 28.76 114.65 48.84 114.64 68.91C114.64 74.1 110.89 77.86 105.72 77.87C92.7304 77.88 79.7304 77.83 66.7404 77.94C65.4404 77.95 63.8304 78.62 62.9004 79.52C56.3204 85.9 49.8704 92.43 43.3804 98.9C42.9404 99.34 42.4504 99.74 41.4804 100.6V100.62ZM47.1504 86.43C50.9304 82.67 54.3404 79.5 57.4804 76.09C60.0204 73.33 62.6104 71.85 66.6904 71.96C79.1804 72.31 91.6804 72.09 104.18 72.08C107.39 72.08 108.99 70.48 108.99 67.28C108.99 48.37 108.99 29.46 108.99 10.54C108.99 7.3 107.26 5.59 103.97 5.59C72.9804 5.59 41.9804 5.59 10.9904 5.59C7.50039 5.59 5.90039 7.2 5.90039 10.71C5.90039 29.54 5.90039 48.37 5.90039 67.2C5.90039 70.6 7.40039 72.08 10.8404 72.09C21.9204 72.1 33.0004 72.09 44.0804 72.09C44.9704 72.09 45.8604 72.09 47.1404 72.09V86.43H47.1504Z" fill="black"/>
</svg>
