<svg width="500" height="500" viewBox="0 0 500 500" fill="none" xmlns="http://www.w3.org/2000/svg">
<g clip-path="url(#clip0_15_133)">
<path d="M444.126 250.683C444.126 290.402 414.666 318.652 374.632 319.757C339.385 320.703 304.033 289.139 304.928 249.263C305.769 210.281 336.124 180.716 376.052 180.19C413.614 179.716 447.493 214.49 444.126 250.683ZM375.421 205.283C350.696 205.125 330.389 225.327 330.389 249.999C330.389 274.146 350.222 294.084 373.843 295.084C397.043 296.031 420.085 273.778 420.137 250.262C420.19 226.379 397.358 204.231 375.421 205.283Z" fill="black"/>
<path d="M375.422 360.631C412.142 357.633 445.127 394.458 444.969 430.231C444.811 462.795 414.825 500.777 373.949 499.988C337.282 499.304 304.403 466.898 304.824 428.81C305.244 391.88 339.281 357.317 375.422 360.631ZM330.391 429.757C330.391 454.588 350.434 474.21 375.212 474.631C397.623 475 419.822 454.798 420.085 430.02C420.348 406.4 398.412 384.62 374.844 384.673C350.96 384.673 330.391 405.558 330.338 429.81L330.391 429.757Z" fill="black"/>
<path d="M374.159 139.472C339.017 142.102 304.77 107.855 304.77 70.0302C304.77 34.5727 336.808 -0.6741 376.526 0.00979377C413.667 0.64108 445.389 36.0457 444.968 71.1349C444.547 103.436 414.193 142.786 374.159 139.472ZM330.389 69.9776C330.389 94.4399 350.643 115.272 374.632 115.378C398.358 115.483 420.295 93.8612 420.137 70.188C419.98 45.7255 398.305 25.3139 375.474 25.3665C350.801 25.4191 330.442 45.3046 330.389 69.9776Z" fill="black"/>
<path d="M55.8333 259.942V240.741C60.6731 240.53 65.3025 240.162 69.8794 240.162C101.391 240.162 132.956 239.899 164.467 240.32C172.464 240.425 177.04 238.005 180.828 230.693C189.403 214.016 208.447 206.072 226.386 211.438C243.641 216.594 254.794 234.007 254.952 249.316C255.162 267.728 242.957 283.405 226.596 288.666C209.183 294.295 189.403 286.141 180.986 269.675C176.935 261.783 171.832 259.679 163.468 259.784C128.116 260.205 92.7109 259.942 55.8859 259.942H55.8333Z" fill="black"/>
</g>
<defs>
<clipPath id="clip0_15_133">
<rect width="500" height="500" fill="white"/>
</clipPath>
</defs>
</svg>
