<svg width="500" height="500" viewBox="0 0 500 500" fill="none" xmlns="http://www.w3.org/2000/svg">
<path d="M212.756 255.253L244.124 286.69C261.448 304.053 261.448 332.203 244.124 349.566L165.703 428.159C139.718 454.201 97.5856 454.201 71.5994 428.159C45.6133 402.115 45.6133 359.89 71.5994 333.846L150.02 255.253C167.343 237.891 195.431 237.891 212.756 255.253Z" stroke="black" stroke-width="15"/>
<path d="M88.3287 411.551C104.498 427.756 130.713 427.756 146.882 411.551C163.052 395.347 163.052 369.073 146.882 352.869C130.713 336.664 104.498 336.664 88.3287 352.869C72.1596 369.073 72.1596 395.347 88.3287 411.551Z" fill="black"/>
<path d="M100.876 413.646L85.1921 397.928L12 471.281L27.684 487L100.876 413.646Z" fill="black"/>
<path d="M478.338 62.5974L452.198 88.7952L410.374 46.8788L436.515 20.6811C448.063 9.10631 466.788 9.10631 478.338 20.6811C489.887 32.2559 489.887 51.0225 478.338 62.5974Z" stroke="black" stroke-width="15"/>
<path d="M452.198 88.7952L410.374 46.8789L368.55 88.7952L410.374 130.712L452.198 88.7952Z" stroke="black" stroke-width="15"/>
<path d="M368.371 88.7122L228.542 229.513" stroke="black" stroke-width="15"/>
<path d="M410.126 130.467L270.296 271.267" stroke="black" stroke-width="15"/>
</svg>
