<svg width="75" height="96" viewBox="0 0 75 96" fill="none" xmlns="http://www.w3.org/2000/svg">
<path d="M74.5299 48.1099C74.5299 55.6599 68.9299 61.0299 61.3199 61.2399C54.6199 61.4199 47.8999 55.4199 48.0699 47.8399C48.2299 40.4299 53.9999 34.8099 61.5899 34.7099C68.7299 34.6199 75.1699 41.2299 74.5299 48.1099ZM61.4699 39.4799C56.7699 39.4499 52.9099 43.2899 52.9099 47.9799C52.9099 52.5699 56.6799 56.3599 61.1699 56.5499C65.5799 56.7299 69.9599 52.4999 69.9699 48.0299C69.9799 43.4899 65.6399 39.2799 61.4699 39.4799Z" fill="black"/>
<path d="M61.47 69.0097C68.45 68.4397 74.72 75.4397 74.69 82.2397C74.66 88.4297 68.96 95.6497 61.19 95.4997C54.22 95.3697 47.97 89.2097 48.05 81.9697C48.13 74.9497 54.6 68.3797 61.47 69.0097ZM52.91 82.1497C52.91 86.8697 56.72 90.5997 61.43 90.6797C65.69 90.7497 69.9099 86.9097 69.9599 82.1997C70.0099 77.7097 65.84 73.5697 61.36 73.5797C56.82 73.5797 52.91 77.5497 52.9 82.1597L52.91 82.1497Z" fill="black"/>
<path d="M61.2299 26.9699C54.5499 27.4699 48.0399 20.9599 48.0399 13.7699C48.0399 7.02987 54.1299 0.329869 61.6799 0.459869C68.7399 0.579869 74.7699 7.30987 74.6899 13.9799C74.6099 20.1199 68.8399 27.5999 61.2299 26.9699ZM52.9099 13.7599C52.9099 18.4099 56.7599 22.3699 61.3199 22.3899C65.8299 22.4099 69.9999 18.2999 69.9699 13.7999C69.9399 9.14987 65.8199 5.26987 61.4799 5.27987C56.7899 5.28987 52.9199 9.06987 52.9099 13.7599Z" fill="black"/>
<path d="M0.719971 49.8699V46.2199C1.63997 46.1799 2.51997 46.1099 3.38997 46.1099C9.37997 46.1099 15.38 46.0599 21.37 46.1399C22.89 46.1599 23.76 45.6999 24.48 44.3099C26.11 41.1399 29.73 39.6299 33.14 40.6499C36.42 41.6299 38.54 44.9399 38.57 47.8499C38.61 51.3499 36.29 54.3299 33.18 55.3299C29.87 56.3999 26.11 54.8499 24.51 51.7199C23.74 50.2199 22.77 49.8199 21.18 49.8399C14.46 49.9199 7.72997 49.8699 0.729971 49.8699H0.719971Z" fill="black"/>
</svg>
