<svg width="384" height="384" viewBox="0 0 384 384" fill="none" xmlns="http://www.w3.org/2000/svg">
<path d="M165.517 197.229L186.73 218.442C198.446 230.158 198.446 249.153 186.73 260.869L133.697 313.902C116.124 331.475 87.6311 331.475 70.0575 313.902C52.4839 296.328 52.4839 267.836 70.0575 250.262L123.091 197.229C134.806 185.513 153.801 185.513 165.517 197.229Z" stroke="black" stroke-width="10"/>
<circle cx="101.17" cy="282.897" r="28" transform="rotate(45 101.17 282.897)" fill="black"/>
<rect x="79.2498" y="293.503" width="15" height="70" transform="rotate(45 79.2498 293.503)" fill="black"/>
<path d="M345.122 67.2289L327.444 84.9066L299.16 56.6223L316.838 38.9446C324.648 31.1342 337.311 31.1342 345.122 38.9446C352.932 46.7551 352.932 59.4184 345.122 67.2289Z" stroke="black" stroke-width="10"/>
<rect x="299.16" y="56.6223" width="40" height="40" transform="rotate(45 299.16 56.6223)" stroke="black" stroke-width="10"/>
<line x1="267.34" y1="88.4423" x2="176.123" y2="179.659" stroke="black" stroke-width="10"/>
<line x1="295.624" y1="116.726" x2="204.408" y2="207.943" stroke="black" stroke-width="10"/>
</svg>
