<svg width="73" height="73" viewBox="0 0 73 73" fill="none" xmlns="http://www.w3.org/2000/svg">
<path d="M72.61 36.4602C72.58 56.4402 56.53 72.4102 36.63 72.2602C16.66 72.1102 0.829995 56.2802 0.849995 36.4702C0.859995 16.5802 16.91 0.480214 36.73 0.450214C56.55 0.430214 72.65 16.5802 72.62 36.4602H72.61ZM36.66 68.6202C54.4 68.4902 68.51 54.7302 68.89 37.2102C69.29 18.9002 54.9 4.23021 36.81 4.25021C19.07 4.28021 4.65999 17.9402 4.53999 36.3102C4.41999 54.3502 18.84 68.3902 36.66 68.6202Z" fill="black"/>
<path d="M36.67 68.62C18.84 68.39 4.41999 54.34 4.54999 36.31C4.66999 17.94 19.08 4.28005 36.82 4.25005C54.91 4.22005 69.3 18.89 68.9 37.21C68.52 54.73 54.41 68.5 36.67 68.62ZM39.88 6.00005V66.93C54.96 65.46 66.87 51.82 66.82 36.27C66.77 20.76 54.79 7.22005 39.88 6.00005Z" fill="white"/>
<path d="M39.87 5.99023C54.78 7.21023 66.76 20.7502 66.81 36.2602C66.86 51.8102 54.95 65.4502 39.87 66.9202V5.99023Z" fill="black"/>
</svg>
