<svg width="500" height="500" viewBox="0 0 500 500" fill="none" xmlns="http://www.w3.org/2000/svg">
<g clip-path="url(#clip0_2_946)">
<path fill-rule="evenodd" clip-rule="evenodd" d="M25.3242 306.955C28.9506 310.118 32.9956 313.318 37.4956 316.531C39.8772 318.246 42.175 319.523 44.2215 320.545C46.2081 321.518 47.9435 322.237 49.248 322.845C50.7799 323.562 52.216 322.589 52.1322 320.874C51.857 315.265 51.881 309.948 52.1801 304.972V304.947C54.0471 274.153 66.6613 253.518 87.7005 235.585C110.643 216.008 142.969 198.986 200.258 192.794C273.956 184.849 333.197 224.902 301.124 253.895C299.113 255.721 301.494 258.738 303.672 257.107C333.664 234.794 320.296 217.699 305.623 204.437C267.71 170.163 163.613 171.417 88.1194 193.852C19.5677 214.22 -30.2664 254.37 21.2911 303.281C22.6076 304.546 23.9599 305.763 25.3242 306.955ZM78.857 304.984C72.2741 255.891 123.15 201.383 204.77 201.177C233.313 201.116 265.483 203.208 286.595 227.432C288.39 229.476 285.697 232.178 283.698 230.34C248.142 197.49 151.214 209.766 129.337 244.368C115.071 266.963 119.296 285.857 132.185 302.903C135.309 307.064 139.342 311.481 143.243 315.313C165.336 336.982 199.469 355.525 267.015 374.87C269.324 375.54 269.181 378.483 266.812 378.909C263.448 379.506 258.542 380.649 250.798 381.099C135.812 387.791 84.7208 348.517 78.857 304.984ZM153.452 304.984C134.268 285.432 129.265 264.14 149.144 245.793C163.732 232.336 183.444 218.953 232.703 221.361C235.444 221.495 235.336 225.51 232.607 225.498C157.988 225.315 135.596 275.187 178.633 300.786C181.086 302.258 183.587 303.658 186.088 304.996H186.124C222.877 324.524 264.179 330.133 305.467 330.802C351.914 331.544 398.865 325.339 462.833 304.924H463.048C463.946 304.595 464.844 304.278 465.741 303.998C466.926 303.621 467.919 304.12 468.291 304.996C468.506 305.558 468.492 306.184 468.255 306.736C467.895 307.661 467.572 308.829 466.938 310.252C466.068 312.184 464.936 313.981 463.576 315.594C413.023 376.403 315.773 376.184 241.033 352.873C204.949 341.606 172.398 324.171 153.512 304.984H153.452ZM205.057 303.438C201.235 301.256 197.653 298.666 194.371 295.713C179.709 282.451 166.33 265.368 196.321 243.031C198.499 241.412 200.893 244.418 198.871 246.255C175.52 267.352 200.57 294.326 244.36 304.375C246.358 304.826 248.345 305.251 250.356 305.641C266.652 308.588 283.278 309.166 299.735 307.356C306.713 306.602 313.738 305.689 320.667 304.486C365.187 296.734 392.319 281.624 412.293 264.566C436.779 243.7 449.848 219.207 447.873 179.301C447.789 177.597 449.225 176.599 450.746 177.318C452.062 177.938 453.81 178.655 455.784 179.63C457.83 180.639 460.152 181.929 462.521 183.632C535.011 235.645 491.604 279.373 423.267 302.685C419.493 303.966 415.695 305.171 411.874 306.298C344.962 326.191 255.562 329.439 209.7 306.018C208.135 305.192 206.587 304.331 205.057 303.438ZM36.4544 184.593C87.0068 123.784 184.246 124.002 258.984 147.314C331.845 170.054 390.296 217.991 350.885 254.37C336.309 267.839 316.586 281.222 267.327 278.826C264.586 278.679 264.694 274.665 267.434 274.688C342.042 274.883 364.445 224.986 321.409 199.4C282.813 176.441 238.676 170.09 194.55 169.396C147.409 168.643 99.7399 175.042 34.2763 196.2C32.4452 196.796 31.0688 195.288 31.763 193.475C32.122 192.551 32.4571 191.37 33.0794 189.947C33.7736 188.39 34.7669 186.6 36.4544 184.593ZM292.554 298.986C264.694 298.889 233.864 296.187 213.411 272.73C211.627 270.686 214.309 267.972 216.307 269.834C251.864 302.673 348.803 290.408 370.669 255.818C388.489 227.602 377.466 205.155 356.774 184.873C334.669 163.204 300.548 144.662 233.002 125.316C230.705 124.66 230.848 121.703 233.217 121.289C236.569 120.694 241.488 119.537 249.231 119.087C491.939 104.901 449.944 295.615 298.838 298.95C296.731 298.986 294.649 298.986 292.554 298.986Z" fill="black"/>
</g>
<defs>
<clipPath id="clip0_2_946">
<rect width="500" height="500" fill="white"/>
</clipPath>
</defs>
</svg>
