<svg width="444" height="234" viewBox="0 0 444 234" fill="none" xmlns="http://www.w3.org/2000/svg">
<path fill-rule="evenodd" clip-rule="evenodd" d="M22.4879 167.496C25.7081 170.305 29.3001 173.146 33.2961 175.999C35.4109 177.522 37.4514 178.656 39.2687 179.564C41.0328 180.428 42.5738 181.066 43.7322 181.606C45.0925 182.243 46.3678 181.379 46.2934 179.856C46.049 174.875 46.0703 170.154 46.3359 165.735V165.713C47.9938 138.368 59.1952 120.044 77.878 104.119C98.251 86.7348 126.956 71.6198 177.829 66.1208C243.273 59.0658 295.879 94.6328 267.398 120.379C265.612 122 267.727 124.679 269.661 123.231C296.294 103.417 284.423 88.2368 271.393 76.4598C237.726 46.0248 145.288 47.1378 78.25 67.0608C17.3761 85.1468 -26.8766 120.8 18.9065 164.233C20.0755 165.357 21.2764 166.437 22.4879 167.496ZM70.025 165.746C64.1794 122.151 109.357 73.7478 181.836 73.5648C207.182 73.5108 235.749 75.3688 254.496 96.8798C256.09 98.6948 253.699 101.094 251.924 99.4618C220.35 70.2908 134.278 81.1918 114.851 111.919C102.183 131.983 105.935 148.761 117.38 163.898C120.154 167.593 123.736 171.515 127.2 174.918C146.818 194.16 177.128 210.626 237.109 227.804C239.16 228.399 239.033 231.013 236.929 231.391C233.942 231.921 229.585 232.936 222.709 233.336C120.601 239.278 75.232 204.403 70.025 165.746ZM136.265 165.746C119.23 148.383 114.787 129.476 132.44 113.184C145.394 101.234 162.898 89.3498 206.64 91.4888C209.074 91.6078 208.978 95.1728 206.555 95.1618C140.293 94.9998 120.409 139.286 158.626 162.018C160.804 163.325 163.025 164.568 165.246 165.756H165.278C197.915 183.097 234.591 188.078 271.255 188.672C312.5 189.331 354.192 183.821 410.996 165.692H411.187C411.984 165.4 412.781 165.119 413.578 164.87C414.63 164.535 415.512 164.978 415.842 165.756C416.033 166.255 416.021 166.811 415.81 167.301C415.491 168.123 415.204 169.16 414.641 170.424C413.868 172.139 412.863 173.735 411.655 175.167C366.764 229.166 280.406 228.971 214.037 208.271C181.995 198.266 153.089 182.784 136.319 165.746H136.265ZM182.091 164.373C178.697 162.435 175.516 160.135 172.601 157.513C159.582 145.736 147.701 130.567 174.333 110.731C176.267 109.294 178.393 111.963 176.597 113.594C155.862 132.328 178.106 156.281 216.992 165.205C218.766 165.605 220.53 165.983 222.316 166.329C236.787 168.946 251.551 169.459 266.165 167.852C272.361 167.182 278.599 166.372 284.752 165.303C324.286 158.42 348.379 145.002 366.116 129.854C387.86 111.325 399.465 89.5758 397.711 54.1388C397.637 52.6258 398.912 51.7398 400.262 52.3778C401.431 52.9288 402.983 53.5658 404.736 54.4308C406.553 55.3268 408.615 56.4728 410.719 57.9848C475.09 104.173 436.544 143.003 375.861 163.704C372.51 164.842 369.137 165.912 365.744 166.912C306.326 184.577 226.939 187.462 186.214 166.664C184.824 165.93 183.449 165.166 182.091 164.373ZM32.3715 58.8388C77.262 4.83982 163.61 5.03382 229.978 25.7348C294.678 45.9278 346.583 88.4958 311.586 120.8C298.642 132.761 281.128 144.645 237.386 142.517C234.952 142.387 235.048 138.822 237.481 138.843C303.733 139.016 323.627 94.7078 285.411 71.9868C251.138 51.5998 211.944 45.9598 172.76 45.3438C130.899 44.6748 88.569 50.3568 30.4373 69.1458C28.8113 69.6748 27.5891 68.3358 28.2055 66.7258C28.5243 65.9048 28.8219 64.8568 29.3745 63.5928C29.9909 62.2098 30.873 60.6208 32.3715 58.8388ZM259.788 160.419C235.048 160.333 207.671 157.934 189.509 137.104C187.925 135.289 190.306 132.879 192.081 134.532C223.655 163.693 309.737 152.802 329.154 122.086C344.978 97.0308 335.19 77.0978 316.815 59.0868C297.186 39.8448 266.887 23.3798 206.906 6.20082C204.866 5.61782 204.993 2.99182 207.097 2.62482C210.073 2.09582 214.441 1.06883 221.317 0.668827C436.842 -11.9282 399.55 157.426 265.368 160.387C263.497 160.419 261.648 160.419 259.788 160.419Z" fill="black"/>
</svg>
