<svg width="453" height="453" viewBox="0 0 453 453" fill="none" xmlns="http://www.w3.org/2000/svg">
<path d="M118.44 334.108C97.1129 312.78 82.5887 285.608 76.7044 256.025C70.8202 226.443 73.8402 195.781 85.3825 167.915C96.9249 140.049 116.471 116.232 141.55 99.4751C166.628 82.7181 196.113 73.7742 226.274 73.7742C256.436 73.7742 285.92 82.7181 310.999 99.4751C336.077 116.232 355.623 140.049 367.166 167.915C378.708 195.781 381.728 226.443 375.844 256.025C369.96 285.608 355.435 312.78 334.108 334.108" stroke="black" stroke-width="15"/>
<circle cx="225.774" cy="225.774" r="23.5" stroke="black" stroke-width="10"/>
<rect x="218.274" y="80.2744" width="15" height="15" fill="black"/>
<rect x="357.274" y="218.274" width="15" height="15" fill="black"/>
<rect x="345.774" y="282.274" width="15" height="15" transform="rotate(30 345.774 282.274)" fill="black"/>
<rect x="80.2742" y="218.274" width="15" height="15" fill="black"/>
<rect x="92.2742" y="289.774" width="15" height="15" transform="rotate(-30 92.2742 289.774)" fill="black"/>
<rect x="298.774" y="100.274" width="15" height="15" transform="rotate(30 298.774 100.274)" fill="black"/>
<rect x="147.774" y="119.765" width="15" height="15" transform="rotate(-120 147.774 119.765)" fill="black"/>
<rect x="108.264" y="169.765" width="15" height="15" transform="rotate(-150 108.264 169.765)" fill="black"/>
<rect x="336.635" y="156.774" width="15" height="15" transform="rotate(-30 336.635 156.774)" fill="black"/>
<path d="M276.321 136.093C281.757 129.611 291.89 136.54 287.822 143.957L251.321 210.51C249.332 214.137 244.648 215.257 241.233 212.922L228.962 204.532C225.547 202.197 224.891 197.425 227.549 194.256L276.321 136.093Z" fill="black"/>
<rect x="161.274" y="352.274" width="130" height="30" stroke="black" stroke-width="10"/>
</svg>
