<svg width="500" height="500" viewBox="0 0 500 500" fill="none" xmlns="http://www.w3.org/2000/svg">
<rect x="92.4688" y="170.673" width="16.9643" height="37.222" transform="rotate(120 92.4688 170.673)" fill="black"/>
<path fill-rule="evenodd" clip-rule="evenodd" d="M75.0201 429.632C35.9018 387.294 12 330.688 12 268.5C12 137.332 118.332 31 249.5 31C380.668 31 487 137.332 487 268.5C487 330.924 462.916 387.724 423.534 430.113L399.125 414.75C436.001 377.029 458.73 325.418 458.73 268.5C458.73 152.947 365.056 59.2737 249.504 59.2737C133.951 59.2737 40.2773 152.947 40.2773 268.5C40.2773 322.835 60.9892 372.332 94.9484 409.528L75.0201 429.632Z" fill="black"/>
<rect x="240.453" y="51.3569" width="16.9643" height="28.2738" fill="black"/>
<rect x="348.461" y="79.6309" width="16.9643" height="28.2738" transform="rotate(30 348.461 79.6309)" fill="black"/>
<rect x="430.055" y="153.143" width="16.9643" height="28.2738" transform="rotate(60 430.055 153.143)" fill="black"/>
<rect x="82.8516" y="356.714" width="16.9643" height="28.2738" transform="rotate(60 82.8516 356.714)" fill="black"/>
<rect x="460.992" y="260.583" width="16.9643" height="28.2738" transform="rotate(90 460.992 260.583)" fill="black"/>
<rect x="62.8906" y="260.583" width="16.9643" height="28.2738" transform="rotate(90 62.8906 260.583)" fill="black"/>
<rect x="438.531" y="370.851" width="16.9643" height="28.2738" transform="rotate(120 438.531 370.851)" fill="black"/>
<rect x="164.109" y="104.117" width="16.9643" height="28.2738" transform="rotate(150 164.109 104.117)" fill="black"/>
<rect x="149.969" y="418.917" width="197.917" height="50.8929" fill="black"/>
<path fill-rule="evenodd" clip-rule="evenodd" d="M248.934 320.524C272.357 320.524 291.345 301.536 291.345 278.113C291.345 254.691 272.357 235.703 248.934 235.703C225.511 235.703 206.523 254.691 206.523 278.113C206.523 301.536 225.511 320.524 248.934 320.524ZM249.501 305.822C265.116 305.822 277.775 293.163 277.775 277.548C277.775 261.933 265.116 249.274 249.501 249.274C233.886 249.274 221.227 261.933 221.227 277.548C221.227 293.163 233.886 305.822 249.501 305.822Z" fill="black"/>
<path d="M321.311 143.528L248.93 237.397L277.769 254.927C296.053 225.334 329.774 162.555 332.62 149.749C334.882 139.572 325.08 140.135 321.311 143.528Z" fill="black"/>
</svg>
