<svg width="500" height="500" viewBox="0 0 500 500" fill="none" xmlns="http://www.w3.org/2000/svg">
<path d="M80.1718 414.355C46.6661 381.228 23.848 339.024 14.6036 293.075C5.35929 247.128 10.1038 199.503 28.2372 156.221C46.3708 112.939 77.0784 75.9461 116.478 49.919C155.877 23.8918 202.199 10 249.583 10C296.969 10 343.289 23.8918 382.689 49.919C422.088 75.9461 452.795 112.939 470.93 156.221C489.063 199.503 493.807 247.128 484.563 293.075C475.319 339.024 452.5 381.228 418.994 414.355" stroke="black" stroke-width="15"/>
<path d="M248.797 282.589C269.187 282.589 285.717 266.247 285.717 246.089C285.717 225.93 269.187 209.588 248.797 209.588C228.407 209.588 211.878 225.93 211.878 246.089C211.878 266.247 228.407 282.589 248.797 282.589Z" stroke="black" stroke-width="10"/>
<path d="M260.58 20.0962H237.015V43.3944H260.58V20.0962Z" fill="black"/>
<path d="M478.955 234.439H455.389V257.737H478.955V234.439Z" fill="black"/>
<path d="M457.731 345.494L437.322 333.845L425.539 354.022L445.948 365.671L457.731 345.494Z" fill="black"/>
<path d="M43.7775 234.439H20.2119V257.737H43.7775V234.439Z" fill="black"/>
<path d="M59.4728 333.845L39.0645 345.494L50.8472 365.671L71.2556 354.022L59.4728 333.845Z" fill="black"/>
<path d="M383.892 62.809L363.483 51.1599L351.701 71.3368L372.109 82.9859L383.892 62.809Z" fill="black"/>
<path d="M114.474 61.2567L126.257 81.4336L146.665 69.7845L134.882 49.6076L114.474 61.2567Z" fill="black"/>
<path d="M43.7764 147.446L64.1848 159.095L75.9676 138.918L55.5592 127.269L43.7764 147.446Z" fill="black"/>
<path d="M443.373 127.268L422.965 138.917L434.748 159.094L455.156 147.444L443.373 127.268Z" fill="black"/>
<path d="M328.209 106.795C336.749 96.7267 352.668 107.489 346.277 119.009L288.933 222.38C285.808 228.014 278.45 229.753 273.084 226.127L253.806 213.095C248.441 209.468 247.411 202.056 251.586 197.134L328.209 106.795Z" fill="black"/>
<path d="M351.7 442.571H147.465V489.167H351.7V442.571Z" stroke="black" stroke-width="10"/>
</svg>
