<svg width="75" height="74" viewBox="0 0 75 74" fill="none" xmlns="http://www.w3.org/2000/svg">
<path d="M70.23 73.9999C64.01 67.5399 57.79 61.0899 51.58 54.6299C47.16 50.0399 42.76 45.4299 37.12 39.5399C33.68 43.5599 30.87 47.1399 27.75 50.4299C20.23 58.3599 12.56 66.1499 4.94999 73.9999H3.95999C2.86999 72.8099 1.78999 71.6299 0.749987 70.4999C11.92 59.3699 22.87 48.4799 33.73 37.6599C22.44 26.4099 11.64 15.6599 0.579987 4.63992C2.20999 2.88992 3.27999 1.73992 4.64999 0.279922C15.64 11.2999 26.4 22.0799 37.21 32.9199C48.31 21.8099 58.98 11.1299 69.93 0.169922C71.57 1.56992 72.73 2.56992 73.9 3.56992C62.86 14.5399 52.05 25.2699 40.99 36.2699C52.64 47.8799 63.64 58.8499 74.85 70.0199C73.38 71.6299 72.29 72.8099 71.21 73.9899H70.22L70.23 73.9999Z" fill="black"/>
</svg>
