<svg width="82" height="71" viewBox="0 0 82 71" fill="none" xmlns="http://www.w3.org/2000/svg">
<path d="M0.5 34.95C2.39 32.7 4.11 30.62 5.87 28.57C10.75 22.87 15.43 16.97 20.59 11.53C26.36 5.44003 33.52 1.40003 41.97 0.490033C55.62 -0.989967 66.83 3.70003 75.15 14.76C81.21 22.82 83.15 32.13 81.34 41.81C79.01 54.28 71.79 63.31 59.86 68.28C45.48 74.27 29.38 69.93 19.46 58.63C15.27 53.86 11.46 48.76 7.49 43.8C5.23 40.98 3.01 38.13 0.5 34.95ZM5.57 34.84C5.79 35.48 5.8 35.67 5.9 35.79C11.12 42.39 16.07 49.23 21.62 55.54C30.21 65.3 41.22 69.41 53.98 66.32C65.96 63.42 73.84 55.55 77.13 43.57C79.5 34.95 78.24 26.66 73.52 19.02C69.37 12.3 63.5 7.71003 55.97 5.28003C50.39 3.48003 44.74 3.29003 39.09 4.77003C31.74 6.69003 25.79 10.9 20.87 16.58C16.44 21.69 12.13 26.89 7.78 32.07C7 33 6.27 33.98 5.57 34.85V34.84Z" fill="black"/>
<path d="M30.28 21.59C31.03 20.73 31.6 20.06 32.32 19.24C37.07 23.94 41.66 28.5 46.43 33.22C51.04 28.65 55.41 24.32 59.89 19.88C60.7 20.66 61.33 21.25 62.15 22.04C57.67 26.54 53.37 30.86 48.76 35.5C53.29 40.11 57.64 44.53 62.23 49.19C61.42 50.03 60.82 50.66 59.88 51.65C55.3 46.87 51.03 42.41 46.55 37.73C41.72 42.53 37.16 47.06 32.13 52.07C31.4 51.31 30.81 50.68 29.99 49.82C34.87 44.88 39.36 40.34 44.09 35.55C39.4 30.81 34.9 26.25 30.29 21.6L30.28 21.59Z" fill="#EC4E3E"/>
</svg>
