<?xml version="1.0" encoding="UTF-8"?>
<svg id="Layer_2" data-name="Layer 2" xmlns="http://www.w3.org/2000/svg" viewBox="0 0 118 110">
  <g id="Layer_1-2" data-name="Layer 1">
    <g id="H1yxSG.tif">
      <g>
        <path d="m45.22,21.93v22.5h27.46v-22.32h8.38c3.82,3.86,8.02,8.04,12.12,12.32.54.56.8,1.61.81,2.44.05,15.51.04,31.02.03,46.54,0,2.59-1,3.55-3.63,3.56-17.84.01-35.68.01-53.52,0-2.76,0-3.56-.79-3.56-3.55-.01-19.33-.01-38.65,0-57.98,0-2.79.74-3.48,3.57-3.5,2.65-.01,5.3,0,8.35,0Zm30.39,25.21h-33.33v-22.14h-6.13v58.97h6.28v-6.07h42.36v6.1h6.12c.09-.35.2-.58.2-.81.01-15.09.03-30.18-.02-45.28,0-.79-.47-1.76-1.04-2.35-2.9-3.05-6.04-5.87-8.81-9.03-1.66-1.89-3.39-1.92-5.64-1.49v22.09Z"/>
        <path d="m67.47,39.22h-13.6v-14.77h13.6v14.77Zm-2.18-2.32v-10.17h-9.35v10.17h9.35Z"/>
      </g>
    </g>
  </g>
</svg>