<svg width="107" height="98" viewBox="0 0 107 98" fill="none" xmlns="http://www.w3.org/2000/svg">
<path d="M67.65 85.11C61.86 85.21 56.57 83.37 51.56 80.74C38.39 73.83 28.2 63.67 20.23 51.25C16.96 46.16 14.71 40.56 13.76 34.52C13.23 31.12 13.29 27.72 14.65 24.51C15.18 23.25 16.01 22.04 16.95 21.04C18.91 18.93 21.08 17.02 23.08 14.94C25.41 12.52 28.72 12.79 30.44 14.47C34.53 18.46 38.61 22.47 42.55 26.61C44.56 28.71 44.34 31.62 42.28 33.76C40.5 35.61 38.72 37.47 36.83 39.19C35.14 40.72 35.1 42.41 35.79 44.37C36.83 47.29 38.5 49.85 40.5 52.16C43.8 55.97 47.4 59.48 51.9 61.89C52.84 62.39 53.85 62.82 54.87 63.11C56.84 63.67 58.54 63.39 60 61.67C61.49 59.91 63.23 58.35 64.9 56.74C67.51 54.23 69.95 54.05 72.54 56.53C76.56 60.36 80.45 64.32 84.29 68.32C86.28 70.39 86.25 73.13 84.3 75.23C81.89 77.83 79.48 80.45 76.83 82.79C75.02 84.39 72.62 85.04 70.16 85.12C69.33 85.15 68.5 85.12 67.67 85.12L67.65 85.11ZM34.31 36C29.84 31.63 25.37 27.26 20.8 22.79C20.82 22.78 20.5 22.9 20.26 23.11C17.6 25.5 17.19 28.65 17.41 31.95C17.82 38.39 20.24 44.19 23.68 49.49C31.21 61.07 40.77 70.6 53.03 77.2C57.35 79.53 61.98 81.13 66.92 81.45C70.47 81.67 73.89 81.24 76.07 77.86C75.97 77.65 75.94 77.46 75.83 77.35C71.79 73.23 67.75 69.11 63.68 65.01C62.9 64.22 62.24 64.58 61.6 65.32C60.32 66.81 58.55 67.51 56.72 67.2C54.47 66.82 52.1 66.32 50.13 65.24C43.28 61.47 37.84 56.08 33.9 49.36C31.02 44.44 30.05 40.17 34.32 35.99L34.31 36ZM65.54 61.82C68.16 64.32 70.67 66.7 73.16 69.11C74.82 70.72 76.44 72.37 78.06 74.02C78.65 74.62 79.33 74.95 79.99 74.28C80.76 73.5 81.4 72.58 82.34 71.43C78.65 67.88 75.15 64.51 71.66 61.14C69.6533 59.1934 67.6133 59.42 65.54 61.82ZM24.04 20.01C28.16 24.12 32.31 28.26 36.48 32.38C36.74 32.64 37.38 32.95 37.52 32.84C38.34 32.19 39.21 31.51 39.78 30.65C40.33 29.82 39.62 29.18 38.99 28.55C35.77 25.36 32.61 22.1 29.39 18.9C26.89 16.42 26.54 16.47 24.27 19.33C24.22 19.39 24.22 19.48 24.05 20L24.04 20.01Z" fill="black"/>
<path d="M71.76 47.05C69.4 44.76 67.28 42.72 65.01 40.51C62.71 42.74 60.56 44.82 58.25 47.06C57.36 46.25 56.59 45.55 55.56 44.61C57.8 42.27 59.91 40.06 62.19 37.68C60.02 35.45 57.97 33.35 55.76 31.08C56.5 30.25 57.18 29.49 58.09 28.46C60.4 30.68 62.57 32.75 64.89 34.97C67.17 32.79 69.33 30.72 71.76 28.4C72.69 29.29 73.44 30.01 74.38 30.92C72.05 33.35 69.99 35.51 67.76 37.84C69.95 40.11 71.98 42.22 74.18 44.5C73.38 45.35 72.67 46.1 71.77 47.05H71.76Z" fill="#EC4E3E"/>
</svg>
