<svg width="162" height="150" viewBox="0 0 162 150" fill="none" xmlns="http://www.w3.org/2000/svg">
<path d="M83.5 71.7698C83.5 88.3798 83.5 104.98 83.5 121.59C83.5 125.47 82.48 126.27 78.83 124.98C71.34 122.33 63.88 119.56 56.41 116.85C55.5 116.52 54.61 116.02 53.67 115.91C50.11 115.49 49.73 113.27 49.74 110.19C49.85 85.9398 49.84 61.6998 49.74 37.4498C49.73 34.9498 50.51 33.6798 52.72 32.5298C61.65 27.8898 70.46 23.0098 79.34 18.2498C81.91 16.8698 83.44 17.7798 83.49 20.6998C83.55 24.1898 83.51 27.6698 83.51 31.1598C83.51 44.6898 83.51 58.2298 83.51 71.7598L83.5 71.7698ZM78.14 118.96V25.1898C77.51 25.3398 77.07 25.3598 76.73 25.5498C70.07 29.2198 63.46 32.9798 56.74 36.5198C55.38 37.2398 54.78 37.8298 54.78 39.3998C54.83 62.4798 54.83 85.5598 54.78 108.64C54.78 110.36 55.44 111.09 57 111.61C61.43 113.08 65.8 114.73 70.2 116.27C72.78 117.17 75.37 118.02 78.13 118.95L78.14 118.96Z" fill="black"/>
<path d="M117.11 116.53H86.84V111.65H111.91V36.9096H86.83V31.8296H117.11V116.54V116.53Z" fill="black"/>
<path d="M66.04 83.7198C66.06 81.0898 67.4 79.7298 70 79.7398C72.37 79.7398 74.28 81.6198 74.2 83.8398C74.12 85.9798 72.21 87.7598 69.99 87.7898C67.61 87.8198 66.04 86.1898 66.05 83.7198H66.04Z" fill="black"/>
</svg>
