<svg width="500" height="500" viewBox="0 0 500 500" fill="none" xmlns="http://www.w3.org/2000/svg">
<g clip-path="url(#clip0_19_160)">
<mask id="mask0_19_160" style="mask-type:luminance" maskUnits="userSpaceOnUse" x="0" y="26" width="500" height="475">
<path d="M0 26H500V500.026H0V26Z" fill="white"/>
</mask>
<g mask="url(#mask0_19_160)">
<path d="M-0.000305176 410.417H430.195C403.246 435.612 381.169 456.261 359.285 476.715C368.052 494.378 376.818 497.56 391.298 483.469C422.662 453.014 455.324 423.858 490.779 391.066C452.727 355.741 415.714 321.326 375.584 283.988C368.117 291.001 362.272 296.456 353.701 304.378C380.714 329.378 403.701 350.676 431.688 376.65H32.662L32.6621 32.4299C20.3244 31.6507 10.1945 33.0792 0.0646362 32.4299V410.417H-0.000305176Z" fill="black"/>
</g>
</g>
<defs>
<clipPath id="clip0_19_160">
<rect width="500" height="500" fill="white"/>
</clipPath>
</defs>
</svg>
