<svg width="136" height="128" viewBox="0 0 136 128" fill="none" xmlns="http://www.w3.org/2000/svg">
<path d="M64.24 85.35V88.96C63.43 89.03 62.71 89.14 61.99 89.14C55.74 89.15 49.49 89.19 43.25 89.14C30.04 89.03 19.89 77.48 21.67 64.42C22.53 58.15 25.7 53.15 30.81 49.35C31.66 48.71 32.45 47.68 32.76 46.67C35.33 38.41 43.37 33.47 51.76 35.29C53.09 35.58 53.71 35.25 54.44 34.33C62.77 23.8 74.74 20.03 87.28 24.65C96.29 27.96 102.2 34.62 104.55 44.04C105.31 47.09 106.41 49.3 109.18 51.28C116.44 56.45 118.95 64.1 117.22 72.59C115.43 81.36 109.75 87.02 100.82 88.94C98.98 89.34 97.01 89.14 95.09 89.15C88.19 89.17 81.3 89.15 74.22 89.15V85.5C75.11 85.45 75.99 85.35 76.87 85.35C83.03 85.34 89.2 85.42 95.36 85.32C102.74 85.21 108.55 82.31 111.88 75.41C115.96 66.94 112.04 56.39 103.36 52.65C101.92 52.03 101.38 51.37 101.33 49.78C100.84 35.92 87.42 25.09 73.75 27.27C65.81 28.54 60.01 32.74 56.11 39.6C55.12 41.34 54.15 40.68 53.05 40.23C47.17 37.84 40.77 39.25 38.42 45.07C36.42 50.04 32.63 52.88 29.53 56.62C21.37 66.43 26.75 82.01 39.27 84.43C44.35 85.41 49.68 85.13 54.9 85.32C57.95 85.43 61.02 85.34 64.23 85.34L64.24 85.35Z" fill="black"/>
<path d="M67.23 60.3398H71.2V104.53C71.42 104.64 71.64 104.76 71.86 104.87C74.33 102.04 76.8 99.1998 79.38 96.2398C80.62 97.4098 81.32 98.0698 82.21 98.9098C78.26 103.23 74.43 107.46 70.52 111.6C70.26 111.88 69.05 111.75 68.71 111.4C65.07 107.66 61.46 103.89 57.97 100.01C56.42 98.2898 58.12 97.6298 59.48 96.7598C61.91 99.4098 64.33 102.06 67.23 105.23V60.3498V60.3398Z" fill="black"/>
</svg>
