<svg width="120" height="106" viewBox="0 0 120 106" fill="none" xmlns="http://www.w3.org/2000/svg">
<g clip-path="url(#clip0_35_389)">
<path d="M9 16C12.866 16 16 12.866 16 9C16 5.13401 12.866 2 9 2C5.13401 2 2 5.13401 2 9C2 12.866 5.13401 16 9 16Z" stroke="black" stroke-width="4"/>
<path d="M111 16C114.866 16 118 12.866 118 9C118 5.13401 114.866 2 111 2C107.134 2 104 5.13401 104 9C104 12.866 107.134 16 111 16Z" stroke="black" stroke-width="4"/>
<path d="M104 7H16V11H104V7Z" fill="black"/>
<path d="M61 11H59V91H61V11Z" fill="black"/>
<path d="M18 9V99.7945C27.2083 90.2636 32.625 101.634 38.0417 99.7945C41.2917 98.7912 50.9333 94.6779 57 96.2831V9" stroke="black" stroke-width="5"/>
<path d="M102 10V99.7968C92.7917 90.3706 87.375 101.616 81.9583 99.7968C78.7083 98.8045 69.0667 94.7364 63 96.324V10" stroke="black" stroke-width="5"/>
</g>
<defs>
<clipPath id="clip0_35_389">
<rect width="120" height="106" fill="white"/>
</clipPath>
</defs>
</svg>
