<svg width="500" height="500" viewBox="0 0 500 500" fill="none" xmlns="http://www.w3.org/2000/svg">
<mask id="mask0_19_53" style="mask-type:luminance" maskUnits="userSpaceOnUse" x="0" y="38" width="500" height="425">
<path d="M500 38H0V463H500V38Z" fill="white"/>
</mask>
<g mask="url(#mask0_19_53)">
<path d="M37.4999 104.667C53.6082 104.667 66.6666 91.6085 66.6666 75.5002C66.6666 59.3919 53.6082 46.3335 37.4999 46.3335C21.3916 46.3335 8.33325 59.3919 8.33325 75.5002C8.33325 91.6085 21.3916 104.667 37.4999 104.667Z" stroke="black" stroke-width="15"/>
<path d="M462.5 104.667C478.608 104.667 491.667 91.6085 491.667 75.5002C491.667 59.3919 478.608 46.3335 462.5 46.3335C446.392 46.3335 433.333 59.3919 433.333 75.5002C433.333 91.6085 446.392 104.667 462.5 104.667Z" stroke="black" stroke-width="15"/>
<path d="M433.333 67.1665H66.6667V83.8332H433.333V67.1665Z" fill="black"/>
<path d="M354.167 75.5H145.833V408.833H354.167V75.5Z" stroke="black" stroke-width="15"/>
<path d="M258.333 83.8335H241.667V400.5H258.333V83.8335Z" fill="black"/>
<path d="M345.833 250.5V233.833H154.167V250.5H345.833Z" fill="black"/>
<path d="M79.1667 83.8335H95.8334V446.333L79.1667 463V83.8335Z" fill="black"/>
<path d="M420.833 83.8335H404.167V446.333L420.833 463V83.8335Z" fill="black"/>
<path d="M125 83.8335H108.333V446.333H125V83.8335Z" fill="black"/>
<path d="M391.667 83.8335H375V446.333H391.667V83.8335Z" fill="black"/>
<path d="M87.5 75.5H145.833V425.5C145.833 434.705 138.371 442.167 129.167 442.167H104.167C94.9621 442.167 87.5 434.705 87.5 425.5V75.5Z" stroke="black" stroke-width="15"/>
<path d="M354.167 75.5H412.5V425.5C412.5 434.705 405.038 442.167 395.833 442.167H370.833C361.629 442.167 354.167 434.705 354.167 425.5V75.5Z" stroke="black" stroke-width="15"/>
</g>
</svg>
