<svg width="800" height="360" viewBox="0 0 800 360" fill="none" xmlns="http://www.w3.org/2000/svg">
<path d="M455.582 62.2882C455.582 62.2882 400.61 129.977 403.422 134.293C407.322 129.977 383.686 61.5482 383.686 61.5482C383.686 61.5482 378.754 47.1602 363.278 0H307.241H171.249H68.7005L58.4605 44.2722H135.657H153.973C203.633 44.2722 233.953 64.8002 225.485 101.172C216.337 140.777 172.993 157.685 126.825 157.685H109.561L131.769 60.8522H54.5884L21.8203 202.325H131.413C213.861 202.325 292.077 158.057 306.181 101.172C308.649 90.7164 308.301 64.4323 301.965 48.9602C301.965 48.5882 301.601 47.8762 301.253 46.8122C300.905 46.4402 300.541 43.9242 301.965 43.5562C302.653 43.1882 304.065 44.6402 304.065 44.9882C304.065 44.9882 304.781 46.8122 305.469 48.2402L375.23 249.501L552.846 44.6362L627.891 44.2682H646.207C695.903 44.2682 726.567 64.7962 718.083 101.168C708.923 140.773 665.263 157.681 619.083 157.681H601.463L624.003 60.8522H546.854L514.062 202.325H623.655C706.099 202.325 785.027 158.057 798.071 101.172C811.459 44.2722 753.667 0 670.511 0H597.939H507.03C463.694 52.1962 455.582 62.2882 455.582 62.2882Z" fill="black"/>
<path d="M377.698 250.222C169.125 250.222 0 274.702 0 304.954C0 335.186 169.125 359.666 377.698 359.666C586.654 359.666 755.795 335.186 755.795 304.954C755.799 274.702 586.658 250.222 377.698 250.222ZM364.313 324.398C316.393 324.398 277.993 316.11 277.993 306.018C277.993 295.926 316.389 287.658 364.313 287.658C411.866 287.658 450.306 295.922 450.306 306.018C450.306 316.11 411.866 324.398 364.313 324.398Z" fill="black"/>
</svg>
