<svg width="500" height="500" viewBox="0 0 500 500" fill="none" xmlns="http://www.w3.org/2000/svg">
<g clip-path="url(#clip0_15_139)">
<path d="M250.915 70.8333C334.878 164.174 416.299 254.71 499.824 347.613H2.09482C85.1811 255.236 166.777 164.437 250.915 70.8333ZM75.4527 316.587H423.837C420.506 311.065 418.841 307.034 416.124 303.966C365.028 246.91 313.668 190.117 262.66 132.973C253.37 122.543 247.059 124.384 238.295 134.2C196.313 181.615 153.631 228.505 111.211 275.657C100.256 287.84 89.6509 300.197 75.365 316.587H75.4527Z" fill="black"/>
<path d="M500 398.358V426.93C492.813 427.631 486.503 428.683 480.28 428.683C327.692 428.771 175.104 428.683 22.5161 428.771C10.246 428.771 -1.06 429.56 0.0793692 411.33C0.780484 400.374 3.84802 395.641 15.2417 395.641C174.403 395.904 333.477 395.904 492.638 396.08C494.654 396.08 496.67 397.219 500 398.358Z" fill="black"/>
</g>
<defs>
<clipPath id="clip0_15_139">
<rect width="500" height="500" fill="white"/>
</clipPath>
</defs>
</svg>
