<svg width="58" height="42" viewBox="0 0 58 42" fill="none" xmlns="http://www.w3.org/2000/svg">
<path d="M29.5499 0.97998C39.1299 11.63 48.4199 21.96 57.9499 32.56H1.15991C10.6399 22.02 19.9499 11.66 29.5499 0.97998ZM9.52991 29.02H49.2799C48.8999 28.39 48.7099 27.93 48.3999 27.58C42.5699 21.07 36.7099 14.59 30.8899 8.06998C29.8299 6.87998 29.1099 7.08998 28.1099 8.20998C23.3199 13.62 18.4499 18.97 13.6099 24.35C12.3599 25.74 11.1499 27.15 9.51991 29.02H9.52991Z" fill="black"/>
<path d="M57.97 38.35V41.61C57.15 41.69 56.43 41.81 55.72 41.81C38.31 41.82 20.9 41.81 3.48995 41.82C2.08995 41.82 0.799954 41.91 0.929954 39.83C1.00995 38.58 1.35995 38.04 2.65995 38.04C20.82 38.07 38.97 38.07 57.13 38.09C57.36 38.09 57.59 38.22 57.97 38.35Z" fill="black"/>
</svg>
