<svg width="500" height="500" viewBox="0 0 500 500" fill="none" xmlns="http://www.w3.org/2000/svg">
<mask id="mask0_15_138" style="mask-type:luminance" maskUnits="userSpaceOnUse" x="0" y="13" width="500" height="475">
<path d="M500 13.3333H0V487.359H500V13.3333Z" fill="white"/>
</mask>
<g mask="url(#mask0_15_138)">
<path d="M500 397.75H69.8052C96.7533 422.945 118.831 443.594 140.714 464.049C131.948 481.711 123.182 484.893 108.701 470.802C77.3377 440.348 44.6756 411.192 9.22107 378.4C47.273 343.075 84.2857 308.659 124.416 271.322C131.883 278.335 137.727 283.789 146.299 291.711C119.286 316.711 96.2987 338.01 68.3117 363.984H467.338V21.8413C479.675 21.0621 489.805 20.4128 499.935 19.7634V397.75H500Z" fill="black"/>
</g>
</svg>
