<svg width="120" height="76" viewBox="0 0 120 76" fill="none" xmlns="http://www.w3.org/2000/svg">
<g clip-path="url(#clip0_13_318)">
<path d="M-9.76585e-06 37.4399C9.38999 28.6299 18.04 18.8399 28.33 11.2299C45.13 -1.19008 64.1 -2.91008 83 6.34992C97.8 13.5999 109.07 25.3299 119.47 38.5899C115.64 42.5099 112.21 46.2099 108.57 49.6999C98.98 58.8999 89.49 68.3299 76.17 72.2099C54.34 78.5699 35.28 74.0699 19.17 57.7999C12.94 51.5099 6.39999 45.5299 -0.0100098 39.4099C-0.0100098 38.7499 -0.0100098 38.0999 -0.0100098 37.4399H-9.76585e-06ZM7.05999 39.0099C14.05 45.3399 20.96 51.3699 27.61 57.6799C38.3 67.8199 51.12 70.7099 65.35 69.2399C77.92 67.9499 87.69 61.2699 96.69 53.1399C101.78 48.5399 106.78 43.8399 112.15 38.8799C102.14 25.0899 89.75 14.9099 74.63 8.94992C60.8 3.49992 47.12 5.25992 34.49 14.2199C24.55 21.2699 14.86 28.3899 7.05999 38.9999V39.0099Z" fill="black"/>
<path d="M83.28 37.8601C83.28 52.1101 72.94 63.0301 59.46 63.0301C45.99 63.0301 35.73 52.0901 35.74 37.7501C35.75 23.8201 45.71 13.8201 59.57 13.8301C73.37 13.8301 83.28 23.8801 83.29 37.8701L83.28 37.8601ZM79.1 38.0801C79.16 26.9701 70.68 18.1301 59.78 17.9701C48.9 17.8101 40.07 26.4901 39.91 37.5201C39.74 48.8501 48.4 57.8601 59.47 57.8801C70.36 57.9001 79.03 49.1401 79.1 38.0801Z" fill="black"/>
<path d="M73.36 38.27C73.32 46.54 67.71 52.18 59.53 52.19C51.1 52.19 45.63 46.53 45.65 37.84C45.67 29.2 51.21 23.63 59.72 23.68C68.07 23.73 73.41 29.44 73.36 38.27ZM69.17 38.48C69.28 32.58 65.39 28.1 59.92 27.84C54.28 27.58 49.93 32.03 49.84 38.14C49.76 43.49 54.02 47.92 59.33 48.02C64.63 48.12 69.07 43.82 69.17 38.48Z" fill="black"/>
</g>
<defs>
<clipPath id="clip0_13_318">
<rect width="120" height="75.86" fill="white"/>
</clipPath>
</defs>
</svg>
