<svg width="500" height="500" viewBox="0 0 500 500" fill="none" xmlns="http://www.w3.org/2000/svg">
<mask id="mask0_15_131" style="mask-type:luminance" maskUnits="userSpaceOnUse" x="0" y="91" width="500" height="317">
<path d="M500 91.6667H0V407.75H500V91.6667Z" fill="white"/>
</mask>
<g mask="url(#mask0_15_131)">
<path d="M-8.12392e-05 247.666C39.1249 210.958 75.1666 170.166 118.042 138.458C188.042 86.708 267.083 79.5414 345.833 118.125C407.5 148.333 454.458 197.208 497.792 252.458C481.833 268.791 467.542 284.208 452.375 298.75C412.417 337.083 372.875 376.375 317.375 392.541C226.417 419.041 147 400.291 79.875 332.5C53.9166 306.291 26.6666 281.375 -0.041748 255.875C-0.041748 253.125 -0.041748 250.416 -0.041748 247.666H-8.12392e-05ZM29.4166 254.208C58.5416 280.583 87.3333 305.708 115.042 332C159.583 374.25 213 386.291 272.292 380.166C324.667 374.791 365.375 346.958 402.875 313.083C424.083 293.916 444.917 274.333 467.292 253.666C425.583 196.208 373.958 153.791 310.958 128.958C253.333 106.25 196.333 113.583 143.708 150.916C102.292 180.291 61.9166 209.958 29.4166 254.166V254.208Z" fill="black"/>
<path d="M347 249.417C347 308.792 303.917 354.292 247.75 354.292C191.625 354.292 148.875 308.709 148.917 248.959C148.958 190.917 190.458 149.25 248.208 149.292C305.708 149.292 347 191.167 347.042 249.459L347 249.417ZM329.583 250.334C329.833 204.042 294.5 167.209 249.083 166.542C203.75 165.875 166.958 202.042 166.292 248C165.583 295.209 201.667 332.75 247.792 332.834C293.167 332.917 329.292 296.417 329.583 250.334Z" fill="black"/>
<path d="M305.667 251.125C305.5 285.583 282.125 309.083 248.042 309.125C212.917 309.125 190.125 285.542 190.208 249.333C190.292 213.333 213.375 190.125 248.833 190.333C283.625 190.542 305.875 214.333 305.667 251.125ZM288.208 252C288.667 227.417 272.458 208.75 249.667 207.667C226.167 206.583 208.042 225.125 207.667 250.583C207.333 272.875 225.083 291.333 247.208 291.75C269.292 292.167 287.792 274.25 288.208 252Z" fill="black"/>
</g>
</svg>
