<svg width="185" height="177" viewBox="0 0 185 177" fill="none" xmlns="http://www.w3.org/2000/svg">
<path d="M32.27 79.17V0H151.65V79.17H32.27ZM42.34 9.93V69.26H141.76V9.93H42.34Z" fill="black"/>
<path d="M151.74 176.04H32.35V96.88H151.74V176.04ZM141.74 166.14V106.55H42.35V166.14H141.74Z" fill="black"/>
<path d="M15.42 0.0799561V14.67H0.299999V0.0799561H15.42Z" fill="black"/>
<path d="M168.86 14.64V0.219971H183.99V14.64H168.86Z" fill="black"/>
<path d="M0.329998 32.0699H15.04V47.2H0.329998V32.0699Z" fill="black"/>
<path d="M169.08 46.94V32.21H184.2V46.94H169.08Z" fill="black"/>
<path d="M15.11 79.47H0.269997V64.45H15.11V79.47Z" fill="black"/>
<path d="M184.2 64.42V79.14H169.33V64.42H184.2Z" fill="black"/>
<path d="M14.93 111.61H0.0899963V96.83H14.93V111.61Z" fill="black"/>
<path d="M184.05 111.9H169.47V96.77H184.05V111.9Z" fill="black"/>
<path d="M0 143.8V128.96H15.02V143.8H0Z" fill="black"/>
<path d="M169.08 143.56V128.83H184.2V143.56H169.08Z" fill="black"/>
<path d="M14.78 176.29H0.359997V161.16H14.78V176.29Z" fill="black"/>
<path d="M169.48 160.68H183.9V175.81H169.48V160.68Z" fill="black"/>
</svg>
