<svg width="500" height="500" viewBox="0 0 500 500" fill="none" xmlns="http://www.w3.org/2000/svg">
<path d="M272.224 498.534C274.561 487.76 274.957 476.036 279.631 466.411C295 435 304.15 402.519 300.783 367.464C299.397 353.244 293.297 340.331 284.86 328.488C265.094 300.761 236.733 282.698 210.828 261.942C182.468 239.206 158.622 212.746 148.601 177.454C143.531 159.629 142.144 139.626 144.244 121.207C147.096 96.1339 158.226 73.4372 174.07 52.84C189.479 32.7972 207.263 15.9629 230.435 0C224.89 10.774 220.176 18.696 216.612 27.133C209.323 44.3238 207.303 61.9107 212.254 80.4483C221.761 116.058 245.646 141.289 272.303 164.065C298.129 186.168 325.262 206.765 352.038 227.719C368.793 240.79 380.756 255.802 386.816 277.43C393.114 299.969 383.885 319.932 383.964 342.114C385.548 341.837 388.44 342.114 389.272 341.005C407.493 315.733 424.683 289.59 421.633 256.634C420.485 244.117 415.216 231.799 410.741 219.757C406.383 207.993 400.6 196.744 395.689 185.178C394.778 183.039 395.213 180.345 395.015 177.929C396.124 177.374 397.194 176.78 398.303 176.226C407.215 189.257 417.712 201.497 424.723 215.479C435.101 236.156 445.399 257.466 451.301 279.687C455.738 296.403 454.668 315.06 453.401 332.647C449.994 381.09 425.317 417.69 387.569 446.883C360.753 467.599 329.342 478.531 298.605 491.127C290.92 494.296 283.077 497.029 275.314 500C274.284 499.525 273.254 499.01 272.224 498.534ZM435.576 317.12C434.427 316.486 433.318 315.813 432.17 315.179C429.951 318.07 427.654 320.883 425.515 323.814C415.415 337.479 405.829 351.501 395.134 364.692C390.143 370.831 375.884 371.623 369.546 367.781C362.099 363.305 357.108 351.422 359.406 343.104C361.664 334.944 364.832 326.983 366.496 318.744C372.081 291.214 368.12 265.547 343.681 247.841C309.18 222.847 274.759 197.655 244.695 167.155C220.295 142.399 196.925 117.088 191.617 80.5275C191.182 77.6359 188.053 75.1405 184.488 70.1496C178.308 85.5184 172.525 98.0352 168.168 110.988C160.484 133.882 162.94 156.975 171.139 178.959C181.992 207.993 203.065 229.343 227.306 247.96C244.735 261.387 261.846 275.291 278.562 289.63C300.308 308.326 315.875 331.974 321.222 359.859C325.737 383.586 323.242 408.104 315.28 431.514C311.716 442.011 308.428 452.587 304.229 465.579C341.977 452.547 375.052 436.782 399.848 407.629C422.069 381.526 434.665 351.422 435.616 317.08L435.576 317.12Z" fill="#EC4E3E"/>
<path d="M101.425 200.625C99.7217 209.418 99.1672 218.569 96.1568 226.887C86.9673 252.158 107.485 297.036 129.667 307.772C152.205 318.704 174.466 330.429 195.895 343.421C215.74 355.423 230.396 372.574 236.377 395.746C238.476 403.866 241.368 412.303 240.892 420.463C239.506 445.179 229.762 467.48 217.285 488.513C216.215 490.335 209.719 490.969 207.065 489.622C175.813 473.619 143.927 458.568 113.981 440.387C88.4724 424.859 69.2615 402.559 56.7843 374.436C44.3467 346.471 43.2376 317.357 49.7733 289.075C57.5765 255.327 75.4011 225.619 101.385 200.705L101.425 200.625ZM77.4212 273.547C64.7063 301.87 62.0128 328.25 71.1232 354.829C81.0257 383.665 99.2464 406.916 125.508 422.483C150.938 437.535 177.476 450.646 203.659 464.707C211.819 457.934 212.492 448.705 215.78 440.426C225.722 415.393 218.473 393.845 201.48 376.178C190.073 364.335 175.06 355.621 160.801 346.946C147.729 338.985 133.39 333.122 119.804 325.953C99.4048 315.139 87.6802 296.798 77.3816 273.547H77.4212Z" fill="#EC4E3E"/>
</svg>
