<svg width="90" height="78" viewBox="0 0 90 78" fill="none" xmlns="http://www.w3.org/2000/svg">
<path d="M35.5 14.8898C38.17 14.8898 40.74 14.8898 43.32 14.8898C52.5 14.8898 61.69 14.8898 70.87 14.8898C75.06 14.8898 76.94 16.7898 76.94 21.0198C76.94 33.7798 76.94 46.5398 76.94 59.3098C76.94 63.3398 75.01 65.2698 70.95 65.2698C52.58 65.2798 34.22 65.2798 15.85 65.2698C11.84 65.2698 9.96001 63.3198 9.96001 59.2598C9.96001 44.1598 9.96001 29.0598 9.96001 13.9698C9.96001 9.91979 11.85 8.03979 15.91 8.02979C19.83 8.02979 23.76 8.02979 27.68 8.02979C33.33 8.02979 34.54 9.03978 35.5 14.8998V14.8898ZM73.55 29.2798H13.41C13.41 39.4098 13.41 49.3198 13.41 59.2398C13.41 61.3298 14.63 61.9898 16.47 61.9898C34.49 61.9898 52.51 61.9898 70.52 61.9898C72.59 61.9898 73.56 60.9698 73.54 58.8998C73.51 55.7298 73.54 52.5698 73.54 49.3998C73.54 42.7498 73.54 36.0898 73.54 29.2898L73.55 29.2798ZM31.91 18.1498C31.91 16.7398 31.91 15.6698 31.91 14.5998C31.91 12.5698 30.91 11.4798 28.87 11.4698C24.54 11.4398 20.2 11.3698 15.87 11.5298C15.06 11.5598 13.64 12.5798 13.61 13.1998C13.41 17.3198 13.5 21.4498 13.5 25.4898H73.55C73.55 24.3598 73.55 23.4598 73.55 22.5498C73.54 18.6598 73.02 18.1498 69.02 18.1498C63.52 18.1498 58.02 18.1498 52.52 18.1498C45.78 18.1498 39.04 18.1498 31.91 18.1498Z" fill="black"/>
</svg>
