<svg width="500" height="500" viewBox="0 0 500 500" fill="none" xmlns="http://www.w3.org/2000/svg">
<mask id="mask0_15_122" style="mask-type:luminance" maskUnits="userSpaceOnUse" x="0" y="107" width="500" height="287">
<path d="M500 107.5H0V393.214H500V107.5Z" fill="white"/>
</mask>
<g mask="url(#mask0_15_122)">
<path d="M252.232 107.5C326.027 149.821 399.777 192.143 473.572 234.509C480.447 238.438 487.188 242.545 497.277 248.571C413.661 296.071 332.455 342.143 248.259 389.955V250.223C163.348 297.589 81.6965 343.214 3.39316e-05 388.795C3.39316e-05 300.848 -0.0892516 212.857 0.178606 124.911C0.223248 119.107 2.94646 113.304 4.41968 107.5C84.2411 153.438 164.063 199.33 247.768 247.5V107.5C249.286 107.5 250.759 107.5 252.232 107.5ZM18.884 356.518C83.1251 320 144.777 285 209.732 248.125C143.705 210.714 82.3215 175.938 18.884 140V356.518ZM266.518 139.732V356.563C330.714 320.089 392.366 285.089 457.411 248.125C392.054 210.982 331.116 176.384 266.518 139.732Z" fill="black"/>
</g>
</svg>
