<svg width="112" height="64" viewBox="0 0 112 64" fill="none" xmlns="http://www.w3.org/2000/svg">
<g clip-path="url(#clip0_13_387)">
<path d="M56.5 0C73.03 9.48 89.55 18.96 106.08 28.45C107.62 29.33 109.13 30.25 111.39 31.6C92.66 42.24 74.47 52.56 55.61 63.27V31.97C36.59 42.58 18.3 52.8 -4.34578e-06 63.01C-4.34578e-06 43.31 -0.0200043 23.6 0.0399957 3.9C0.0499957 2.6 0.659996 1.3 0.989996 0C18.87 10.29 36.75 20.57 55.5 31.36V0C55.84 0 56.17 0 56.5 0ZM4.23 55.78C18.62 47.6 32.43 39.76 46.98 31.5C32.19 23.12 18.44 15.33 4.23 7.28V55.78ZM59.7 7.22V55.79C74.08 47.62 87.89 39.78 102.46 31.5C87.82 23.18 74.17 15.43 59.7 7.22Z" fill="black"/>
</g>
<defs>
<clipPath id="clip0_13_387">
<rect width="112" height="64" fill="white"/>
</clipPath>
</defs>
</svg>
