<svg width="512" height="512" viewBox="0 0 512 512" fill="none" xmlns="http://www.w3.org/2000/svg">
<mask id="mask0_15_23" style="mask-type:luminance" maskUnits="userSpaceOnUse" x="0" y="0" width="512" height="512">
<path d="M512 0H0V512H512V0Z" fill="white"/>
</mask>
<g mask="url(#mask0_15_23)">
<mask id="mask1_15_23" style="mask-type:luminance" maskUnits="userSpaceOnUse" x="0" y="0" width="512" height="512">
<path d="M512 0H0V512H512V0Z" fill="white"/>
</mask>
<g mask="url(#mask1_15_23)">
<path d="M240.516 213.114C280.334 213.114 312.612 180.836 312.612 141.018C312.612 101.2 280.334 68.9219 240.516 68.9219C200.698 68.9219 168.419 101.2 168.419 141.018C168.419 180.836 200.698 213.114 240.516 213.114Z" stroke="black" stroke-width="21.8431"/>
<path d="M240.361 213.419V366.905" stroke="black" stroke-width="21.8431"/>
<mask id="mask2_15_23" style="mask-type:luminance" maskUnits="userSpaceOnUse" x="38" y="333" width="403" height="152">
<path d="M419.101 462.954C419.101 434.408 400.184 407.031 366.512 386.846C332.84 366.66 287.171 355.32 239.551 355.32C191.931 355.32 146.261 366.66 112.589 386.846C78.9169 407.031 60 434.408 60 462.954H239.551H419.101Z" stroke="black" stroke-width="43.6863"/>
</mask>
<g mask="url(#mask2_15_23)">
<path d="M419.101 462.954C419.101 434.408 400.184 407.031 366.512 386.846C332.84 366.66 287.171 355.32 239.551 355.32C191.931 355.32 146.261 366.66 112.589 386.846C78.9169 407.031 60 434.408 60 462.954H239.551H419.101Z" stroke="black" stroke-width="43.6863"/>
</g>
<path d="M174.807 345.21L126.209 361.046C123.915 361.794 122.661 364.259 123.408 366.553L131.007 389.871C131.754 392.165 134.22 393.419 136.514 392.671L185.112 376.835C187.406 376.088 188.66 373.622 187.912 371.328L180.314 348.01C179.566 345.716 177.101 344.462 174.807 345.21Z" fill="black"/>
<path d="M134.692 399.204L134.692 399.204C162.095 379.418 199.776 368 239.5 368C279.224 368 316.905 379.418 344.308 399.204L350.125 391.148L344.308 399.204C368.162 416.428 382.114 438.378 385.297 461H239.5H93.7027C96.8857 438.378 110.839 416.428 134.692 399.204Z" stroke="black" stroke-width="20"/>
</g>
</g>
</svg>
