<svg width="500" height="500" viewBox="0 0 500 500" fill="none" xmlns="http://www.w3.org/2000/svg">
<path d="M249.551 397.859C211.03 397.859 172.572 398.044 134.052 397.797C113.553 397.673 97.0799 389.684 87.9143 370.486C85.3752 365.16 84.0127 358.781 83.765 352.836C83.1457 338.964 83.5173 325.029 83.5792 311.095C83.765 285.952 100.796 267.063 125.753 265.02C135.414 264.214 145.261 264.71 154.984 264.71C224.779 264.71 294.574 264.896 364.368 264.586C383.752 264.462 399.482 270.098 410.196 287.067C418.866 300.877 419.052 360.267 410.444 374.078C400.288 390.365 385.239 397.673 366.536 397.797C327.52 397.983 288.504 397.797 249.551 397.797V397.859ZM250.232 287.438C211.216 287.438 172.263 287.252 133.247 287.5C115.721 287.624 105.936 297.595 105.255 315.244C104.945 322.986 105.131 330.727 105.193 338.406C105.317 366.646 112.81 374.387 140.555 374.449C213.446 374.449 286.275 374.449 359.166 374.449C362.758 374.449 366.35 374.635 369.942 374.263C385.177 372.715 393.909 363.735 394.714 348.129C395.147 339.397 394.962 330.603 394.9 321.871C394.776 295.799 386.663 287.5 361.21 287.438C324.238 287.438 287.328 287.438 250.356 287.438H250.232Z" fill="black"/>
<path d="M129.283 441.085C126.435 428.327 124.205 418.295 121.542 406.404H182.171C188.55 418.666 182.295 428.265 174.926 439.537H325.786C323.495 428.637 321.389 418.481 318.912 406.528H378.674C386.106 418.728 377.745 428.204 372.977 440.032C379.293 440.466 384.124 441.023 389.016 441.023C407.533 441.147 425.988 441.023 444.505 441.209C451.689 441.209 458.563 442.819 457.758 452.108C457.077 459.973 451.937 463.751 444.072 463.627C440.975 463.627 437.879 463.627 434.844 463.627C311.542 463.627 188.24 463.627 64.9385 463.627C60.8512 463.627 55.8349 464.928 52.8003 463.07C48.5891 460.469 44.0683 455.948 42.9535 451.427C41.2814 444.553 46.917 441.395 53.3577 441.333C73.361 441.085 93.4262 441.085 113.429 441.023C118.879 441.023 124.391 441.023 129.283 441.023V441.085Z" fill="black"/>
<path d="M247.135 59.2265C244.163 60.6509 241.438 61.8895 238.713 63.19C188.86 86.8472 139.068 110.504 89.2148 134.223C66.115 145.185 42.8914 156.085 19.9155 167.356C12.2362 171.133 5.42396 170.948 1.46046 163.144C-2.13146 156.085 1.15081 150.759 8.58237 147.229C34.407 134.843 59.8601 121.775 85.6848 109.451C135.043 85.8563 184.71 62.9423 233.882 39.0375C243.296 34.4547 250.727 35.012 259.769 39.2852C309.251 62.5707 358.918 85.3608 408.524 108.337C435.463 120.847 462.279 133.542 489.218 145.928C497.145 149.582 503.091 154.846 498.26 163.64C493.615 172.186 486.122 170.081 478.195 166.365C419.857 139.116 361.272 112.3 302.81 85.3608C286.585 77.8674 270.297 70.4358 254.072 62.9423C251.78 61.8895 249.613 60.5271 247.135 59.2265Z" fill="black"/>
<path d="M362.077 251.394C358.361 229.595 351.797 210.149 335.695 194.667C321.575 181.104 305.473 173.734 286.151 173.796C261.008 173.92 235.864 174.292 210.721 174.787C178.27 175.406 153.56 201.355 145.199 228.604C143.094 235.478 141.793 242.6 140.121 249.598C139.997 250.094 139.564 250.465 138.573 251.89H120.737C115.845 238.884 121.295 226.375 125.877 215.041C141.174 176.645 174.492 149.458 217.967 151.254C241.562 152.245 265.219 152.678 288.814 151.811C329.626 150.263 363.316 181.228 375.887 213.555C378.488 220.182 380.532 227.18 381.833 234.24C385.239 252.695 383.505 254.181 362.201 251.394H362.077Z" fill="black"/>
<path d="M155.355 345.837C146.066 345.59 138.201 337.477 138.201 328.064C138.201 317.969 146.747 309.485 156.594 309.918C165.388 310.228 174.058 319.084 174.058 327.754C174.058 337.353 165.017 346.085 155.355 345.837Z" fill="black"/>
<path d="M365.916 327.134C366.226 337.229 359.352 345.218 349.691 345.837C339.596 346.518 332.226 339.83 331.607 329.488C330.926 318.155 337.738 310.104 348.142 309.918C357.803 309.732 365.545 317.288 365.916 327.134Z" fill="black"/>
</svg>
