<?xml version="1.0" encoding="UTF-8"?>
<svg id="Layer_2" data-name="Layer 2" xmlns="http://www.w3.org/2000/svg" viewBox="0 0 122 109">
  <g id="Layer_1-2" data-name="Layer 1">
    <g>
      <path d="m64.68,74.8c-6.22,0-12.43.03-18.65-.01-3.31-.02-5.97-1.31-7.45-4.41-.41-.86-.63-1.89-.67-2.85-.1-2.24-.04-4.49-.03-6.74.03-4.06,2.78-7.11,6.81-7.44,1.56-.13,3.15-.05,4.72-.05,11.27,0,22.54.03,33.81-.02,3.13-.02,5.67.89,7.4,3.63,1.4,2.23,1.43,11.82.04,14.05-1.64,2.63-4.07,3.81-7.09,3.83-6.3.03-12.6,0-18.89,0Zm.11-17.83c-6.3,0-12.59-.03-18.89.01-2.83.02-4.41,1.63-4.52,4.48-.05,1.25-.02,2.5-.01,3.74.02,4.56,1.23,5.81,5.71,5.82,11.77,0,23.53,0,35.3,0,.58,0,1.16.03,1.74-.03,2.46-.25,3.87-1.7,4-4.22.07-1.41.04-2.83.03-4.24-.02-4.21-1.33-5.55-5.44-5.56-5.97,0-11.93,0-17.9,0Z"/>
      <path d="m45.26,81.78c-.46-2.06-.82-3.68-1.25-5.6h9.79c1.03,1.98.02,3.53-1.17,5.35h24.36c-.37-1.76-.71-3.4-1.11-5.33h9.65c1.2,1.97-.15,3.5-.92,5.41,1.02.07,1.8.16,2.59.16,2.99.02,5.97,0,8.96.03,1.16,0,2.27.26,2.14,1.76-.11,1.27-.94,1.88-2.21,1.86-.5,0-1,0-1.49,0-19.91,0-39.82,0-59.73,0-.66,0-1.47.21-1.96-.09-.68-.42-1.41-1.15-1.59-1.88-.27-1.11.64-1.62,1.68-1.63,3.23-.04,6.47-.04,9.7-.05.88,0,1.77,0,2.56,0Z"/>
      <path d="m64.29,20.12c-.48.23-.92.43-1.36.64-8.05,3.82-16.09,7.64-24.14,11.47-3.73,1.77-7.48,3.53-11.19,5.35-1.24.61-2.34.58-2.98-.68-.58-1.14-.05-2,1.15-2.57,4.17-2,8.28-4.11,12.45-6.1,7.97-3.81,15.99-7.51,23.93-11.37,1.52-.74,2.72-.65,4.18.04,7.99,3.76,16.01,7.44,24.02,11.15,4.35,2.02,8.68,4.07,13.03,6.07,1.28.59,2.24,1.44,1.46,2.86-.75,1.38-1.96,1.04-3.24.44-9.42-4.4-18.88-8.73-28.32-13.08-2.62-1.21-5.25-2.41-7.87-3.62-.37-.17-.72-.39-1.12-.6Z"/>
      <path d="m82.85,51.15c-.6-3.52-1.66-6.66-4.26-9.16-2.28-2.19-4.88-3.38-8-3.37-4.06.02-8.12.08-12.18.16-5.24.1-9.23,4.29-10.58,8.69-.34,1.11-.55,2.26-.82,3.39-.02.08-.09.14-.25.37h-2.88c-.79-2.1.09-4.12.83-5.95,2.47-6.2,7.85-10.59,14.87-10.3,3.81.16,7.63.23,11.44.09,6.59-.25,12.03,4.75,14.06,9.97.42,1.07.75,2.2.96,3.34.55,2.98.27,3.22-3.17,2.77Z"/>
      <path d="m49.47,66.4c-1.5-.04-2.77-1.35-2.77-2.87,0-1.63,1.38-3,2.97-2.93,1.42.05,2.82,1.48,2.82,2.88,0,1.55-1.46,2.96-3.02,2.92Z"/>
      <path d="m83.47,63.38c.05,1.63-1.06,2.92-2.62,3.02-1.63.11-2.82-.97-2.92-2.64-.11-1.83.99-3.13,2.67-3.16,1.56-.03,2.81,1.19,2.87,2.78Z"/>
    </g>
  </g>
</svg>