<?xml version="1.0" encoding="UTF-8"?>
<svg id="Layer_2" data-name="Layer 2" xmlns="http://www.w3.org/2000/svg" viewBox="0 0 111 124">
  <g id="Layer_1-2" data-name="Layer 1">
    <g id="GEnhFD.tif">
      <g>
        <path d="m50.9,100.18c-.79.68-1.73,1.35-2.5,2.19-3.22,3.52-7.87,3.06-10.36-.1-1.07-1.36-2.48-2.44-3.62-3.75-1.97-2.25-1.97-5.64-.07-7.96.68-.83,1.49-1.55,2.16-2.39,1.49-1.87.95-3.74-1.33-4.42-.93-.28-1.96-.29-2.94-.32-4.19-.14-6.11-2-6.21-6.13-.04-1.83-.05-3.67,0-5.5.12-4,2.07-5.9,6.04-6.01.91-.02,1.84,0,2.72-.17,2.64-.53,3.35-2.78,1.55-4.81-.6-.68-1.31-1.27-1.9-1.96-2.08-2.41-2.02-6.01.16-8.37,1.29-1.4,2.63-2.75,3.97-4.1,2.49-2.5,6.3-2.64,8.98-.3.69.6,1.28,1.3,1.97,1.9,1.79,1.56,3.7,1.04,4.35-1.26.29-1.02.29-2.13.33-3.21.15-3.96,2.29-6.11,6.25-6.19,1.16-.02,2.32-.02,3.48,0,4.28.06,6.45,2.14,6.4,6.44-.03,2.13.51,3.71,2.51,4.66,1.54.73,2.76.52,4.05-.68,1.24-1.16,2.62-2.3,4.15-2.98,2.25-1,4.4-.2,6.16,1.4,1.46,1.33,2.81,2.79,4.18,4.23,2.24,2.34,2.31,6.18.15,8.57-.66.73-1.46,1.35-2.09,2.1-1.41,1.67-.71,3.94,1.44,4.44,1.11.26,2.3.24,3.46.29,3.39.15,5.59,2.2,5.75,5.57.1,2.16.1,4.34,0,6.5-.16,3.31-2.22,5.31-5.56,5.54-1.15.08-2.35,0-3.45.27-2.56.65-3.08,2.67-1.37,4.69,1.05,1.25,2.21,2.49,2.91,3.93,1.23,2.54.41,4.86-1.46,6.83-1.2,1.26-2.42,2.51-3.68,3.71-2.71,2.59-6.01,2.69-8.92.28-.82-.68-1.53-1.52-2.39-2.15-1.6-1.17-3.54-.47-4,1.47-.27,1.12-.25,2.31-.3,3.47-.15,3.64-2.15,5.71-5.74,5.8-2.07.06-4.15.05-6.22,0-3.46-.1-5.48-2.12-5.67-5.6-.04-.66,0-1.33-.02-2-.08-1.91-.74-3.4-3.3-3.93Zm-7.6-52.24c-.9.5-1.66.81-2.28,1.29-.71.55-1.3,1.27-1.96,1.9-3.03,2.92-3.42,4.02-.19,6.79.31.27.57.6.82.93,2.38,3.2,1.73,7.51-1.72,9.48-1.26.72-3,.73-4.53.83-3.04.2-3.81.88-3.95,3.88-.02.42,0,.83-.01,1.25-.02,5.28.1,5.38,5.38,5.65,2.59.13,4.47,1.25,5.61,3.78,1.45,3.23.28,5.62-1.92,7.82-3.21,3.2-1.89,3.95.09,6.09.22.24.53.4.77.63,3.65,3.56,3.59,3.5,7.41.23,1.8-1.54,3.89-2.55,6.39-1.6,2.53.96,4.45,2.62,4.4,5.44-.11,6.72,1.6,5.91,7.15,5.95.25,0,.49-.05.74-.06,1.82-.07,2.66-1.17,2.89-2.83.11-.74.11-1.5.08-2.24-.15-2.95,1.25-4.8,3.87-6.02,2.69-1.25,4.82-.23,6.87,1.33.65.5,1.17,1.17,1.78,1.74,1.23,1.16,2.51,1.2,3.73.04,1.33-1.25,2.65-2.52,3.87-3.88,1.1-1.22,1.07-2.54-.11-3.76-.4-.42-.82-.82-1.22-1.24-2.26-2.32-2.94-5.02-1.55-7.98,1.23-2.61,3.52-3.49,6.33-3.48,3.87.01,4.56-.79,4.62-4.72.06-4.24.08-6.36-5.63-6.01-3.94.24-6.86-4.02-5.77-7.75.44-1.5,1.5-2.92,2.57-4.12,2.03-2.28,2.1-3.12-.13-5.36-.7-.7-1.39-1.41-2.07-2.12-2.1-2.18-3.27-2.22-5.35-.04-2.11,2.2-4.53,3.32-7.59,2.5-3.8-1.02-5.54-3.26-5.68-7.32-.06-1.61-.17-3.16-2.02-3.87-4.29-1.63-7.19.24-7.29,4.76,0,.33,0,.67-.02,1-.4,4.01-4.26,6.69-8.07,5.34-1.49-.52-2.72-1.78-4.07-2.71-.72-.49-1.43-1-2.21-1.55Z"/>
        <path d="m80.33,74.64c-.02,9.83-7.49,17.31-17.26,17.3-9.91,0-17.28-7.52-17.35-17.5-.07-9.54,8.18-17.28,17.42-17.26,9.25.02,17.58,8.1,17.2,17.46Zm-17.25,13.53c7.23.59,13.71-6.38,13.65-13.68-.06-7.17-6.51-13.58-13.6-13.63-6.97-.05-13.72,6.12-13.74,13.7-.03,7.7,6.78,14.26,13.69,13.61Z"/>
      </g>
    </g>
  </g>
</svg>