<svg width="500" height="500" viewBox="0 0 500 500" fill="none" xmlns="http://www.w3.org/2000/svg">
<path d="M167.886 422.341C162.561 426.908 156.224 431.409 151.033 437.051C129.326 460.696 97.9782 457.606 81.1921 436.38C73.9789 427.244 64.4735 419.99 56.7883 411.19C43.5078 396.077 43.5078 373.306 56.3164 357.722C60.9006 352.147 66.3611 347.31 70.8778 341.668C80.9225 329.107 77.2821 316.546 61.9118 311.978C55.6423 310.097 48.6987 310.03 42.0922 309.829C13.8458 308.888 0.902357 296.394 0.228219 268.652C-0.0414356 256.36 -0.108849 244 0.228219 231.708C1.03718 204.839 14.1829 192.077 40.9461 191.338C47.0808 191.204 53.3503 191.338 59.2827 190.196C77.0799 186.636 81.8663 171.522 69.7318 157.887C65.687 153.319 60.9006 149.356 56.9232 144.721C42.9011 128.533 43.3056 104.351 58.0018 88.4984C66.6982 79.0944 75.7316 70.0263 84.7651 60.9581C101.551 44.1653 127.236 43.2249 145.303 58.943C149.954 62.9733 153.932 67.6753 158.583 71.7056C170.65 82.1843 183.526 78.6914 187.908 63.242C189.863 56.3905 189.863 48.9344 190.133 41.6799C191.144 15.08 205.571 0.638129 232.266 0.100757C240.086 -0.0335857 247.906 -0.0335857 255.726 0.100757C284.579 0.503786 299.208 14.4754 298.871 43.3592C298.669 57.6667 302.309 68.2798 315.792 74.6611C326.174 79.5646 334.398 78.1541 343.095 70.0935C351.454 62.3016 360.757 54.644 371.071 50.0763C386.239 43.3592 400.733 48.7329 412.598 59.4804C422.441 68.4142 431.541 78.2212 440.777 87.8939C455.878 103.612 456.35 129.406 441.788 145.46C437.339 150.363 431.946 154.528 427.699 159.566C418.193 170.784 422.912 186.031 437.406 189.39C444.889 191.136 452.912 191.002 460.732 191.338C483.585 192.346 498.416 206.116 499.494 228.753C500.169 243.262 500.169 257.905 499.494 272.414C498.416 294.648 484.529 308.082 462.012 309.627C454.26 310.164 446.17 309.627 438.755 311.441C421.497 315.807 417.991 329.375 429.519 342.944C436.597 351.341 444.417 359.67 449.136 369.342C457.428 386.404 451.9 401.988 439.294 415.221C431.204 423.684 422.98 432.081 414.486 440.141C396.217 457.539 373.97 458.21 354.353 442.022C348.825 437.454 344.038 431.812 338.241 427.58C327.455 419.721 314.376 424.423 311.275 437.454C309.455 444.978 309.59 452.971 309.253 460.763C308.242 485.213 294.759 499.118 270.557 499.722C256.603 500.125 242.581 500.058 228.626 499.722C205.301 499.051 191.683 485.482 190.402 462.106C190.133 457.673 190.402 453.172 190.268 448.672C189.728 435.842 185.279 425.834 168.021 422.274L167.886 422.341ZM116.652 71.4369C110.585 74.7955 105.461 76.8778 101.281 80.102C96.4951 83.7964 92.5176 88.6328 88.0683 92.8646C67.642 112.479 65.0128 119.868 86.7875 138.474C88.8773 140.288 90.63 142.504 92.3154 144.721C108.36 166.216 103.978 195.167 80.7202 208.4C72.2261 213.236 60.4961 213.303 50.1818 213.975C29.688 215.318 24.4972 219.886 23.5534 240.037C23.4185 242.859 23.5534 245.613 23.486 248.434C23.3511 283.9 24.1601 284.572 59.7546 286.386C77.2147 287.259 89.8885 294.782 97.5737 311.777C107.349 333.473 99.4612 349.527 84.6302 364.305C62.9904 385.799 71.889 390.837 85.2369 405.212C86.7201 406.824 88.8099 407.899 90.4278 409.444C115.034 433.357 114.629 432.954 140.381 410.989C152.516 400.644 166.605 393.86 183.459 400.241C200.514 406.69 213.458 417.84 213.121 436.783C212.379 481.922 223.907 476.481 261.322 476.75C263.007 476.75 264.625 476.414 266.31 476.347C278.58 475.876 284.242 468.488 285.793 457.337C286.534 452.366 286.534 447.261 286.332 442.291C285.321 422.475 294.759 410.048 312.421 401.853C330.556 393.457 344.915 400.309 358.735 410.787C363.116 414.146 366.622 418.646 370.734 422.475C379.026 430.267 387.655 430.536 395.88 422.744C404.846 414.347 413.744 405.817 421.969 396.681C429.384 388.486 429.182 379.62 421.227 371.425C418.531 368.604 415.699 365.917 413.003 363.096C397.767 347.512 393.183 329.375 402.553 309.493C410.845 291.961 426.283 286.05 445.226 286.117C471.316 286.184 475.967 280.81 476.372 254.412C476.776 225.931 476.911 211.691 438.418 214.042C411.857 215.654 392.172 187.039 399.52 161.984C402.486 151.908 409.632 142.37 416.845 134.309C430.53 118.994 431.002 113.352 415.969 98.3055C411.25 93.6035 406.598 88.8343 402.014 84.0651C387.857 69.4217 379.97 69.1531 365.948 83.7964C351.723 98.5742 335.409 106.097 314.781 100.589C289.164 93.7378 277.434 78.6914 276.49 51.4198C276.085 40.6052 275.344 30.1936 262.872 25.4244C233.952 14.4755 214.402 27.0365 213.728 57.398C213.728 59.6147 213.728 61.8985 213.593 64.1152C210.896 91.051 184.874 109.053 159.19 99.9848C149.145 96.4919 140.853 88.0282 131.752 81.7813C126.899 78.4899 122.112 75.0642 116.854 71.3697L116.652 71.4369Z" fill="black"/>
<path d="M366.285 250.785C366.15 316.814 315.792 367.058 249.929 366.991C183.122 366.991 133.438 316.478 132.966 249.441C132.494 185.36 188.11 133.369 250.401 133.503C312.758 133.638 368.914 187.912 366.352 250.785H366.285ZM249.996 341.668C298.736 345.631 342.42 298.812 342.016 249.777C341.611 201.615 298.13 158.558 250.333 158.222C203.346 157.886 157.842 199.331 157.707 250.247C157.504 301.969 203.413 346.034 249.996 341.668Z" fill="black"/>
</svg>
