<?xml version="1.0" encoding="UTF-8"?>
<svg id="Layer_2" data-name="Layer 2" xmlns="http://www.w3.org/2000/svg" viewBox="0 0 53.44 50.63">
  <defs>
    <style>
      .cls-1 {
        fill: #221f20;
      }
    </style>
  </defs>
  <g id="Layer_3" data-name="Layer 3">
    <g>
      <g>
        <g>
          <polygon class="cls-1" points="0 0 24.05 0 24.05 3.77 19.78 3.77 0 3.77 0 0"/>
          <rect class="cls-1" y="19.52" width="24.05" height="3.96"/>
          <rect class="cls-1" y="3.77" width="4.43" height="15.75"/>
          <rect class="cls-1" x="20.65" y="3.77" width="3.4" height="15.75"/>
        </g>
        <polyline class="cls-1" points="19.7 19.52 19.78 3.77 22.35 3.77 22.03 19.52"/>
      </g>
      <g>
        <g>
          <polygon class="cls-1" points="29.39 0 53.44 0 53.44 3.77 49.17 3.77 29.39 3.77 29.39 0"/>
          <rect class="cls-1" x="29.39" y="19.52" width="24.05" height="3.96"/>
          <rect class="cls-1" x="29.39" y="3.77" width="4.43" height="15.75"/>
          <rect class="cls-1" x="50.05" y="3.77" width="3.4" height="15.75"/>
        </g>
        <polyline class="cls-1" points="49.09 19.52 49.17 3.77 51.74 3.77 51.43 19.52"/>
      </g>
      <g>
        <g>
          <polygon class="cls-1" points="0 27.15 24.05 27.15 24.05 30.92 19.78 30.92 0 30.92 0 27.15"/>
          <rect class="cls-1" y="46.67" width="24.05" height="3.96"/>
          <rect class="cls-1" y="30.92" width="4.43" height="15.75"/>
          <rect class="cls-1" x="20.65" y="30.92" width="3.4" height="15.75"/>
        </g>
        <polyline class="cls-1" points="19.7 46.67 19.78 30.92 22.35 30.92 22.03 46.67"/>
      </g>
      <g>
        <g>
          <polygon class="cls-1" points="29.39 27.15 53.44 27.15 53.44 30.92 49.17 30.92 29.39 30.92 29.39 27.15"/>
          <rect class="cls-1" x="29.39" y="46.67" width="24.05" height="3.96"/>
          <rect class="cls-1" x="29.39" y="30.92" width="4.43" height="15.75"/>
          <rect class="cls-1" x="50.05" y="30.92" width="3.4" height="15.75"/>
        </g>
        <polyline class="cls-1" points="49.09 46.67 49.17 30.92 51.74 30.92 51.43 46.67"/>
      </g>
    </g>
  </g>
</svg>