<?xml version="1.0" encoding="UTF-8"?>
<svg id="Layer_2" data-name="Layer 2" xmlns="http://www.w3.org/2000/svg" viewBox="0 0 54.43 54.07">
  <defs>
    <style>
      .cls-1 {
        fill: #221f20;
      }
    </style>
  </defs>
  <g id="Layer_3" data-name="Layer 3">
    <g>
      <polygon class="cls-1" points=".17 16.19 3.67 16.19 3.67 5.54 20.17 22.04 22.31 19.9 5.74 3.34 16.11 3.34 16.11 .26 0 .26 .17 16.19"/>
      <polygon class="cls-1" points="54.26 37.88 50.77 37.88 50.77 48.53 34.27 32.03 32.13 34.17 48.69 50.73 38.33 50.73 38.33 53.81 54.43 53.81 54.26 37.88"/>
      <polygon class="cls-1" points="38.24 .17 38.24 3.67 48.89 3.67 32.39 20.17 34.53 22.31 51.1 5.74 51.1 16.11 54.17 16.11 54.17 0 38.24 .17"/>
      <polygon class="cls-1" points="16.19 53.9 16.19 50.41 5.54 50.41 22.04 33.91 19.9 31.77 3.34 48.33 3.34 37.97 .26 37.97 .26 54.07 16.19 53.9"/>
    </g>
  </g>
</svg>