<svg width="500" height="500" viewBox="0 0 500 500" fill="none" xmlns="http://www.w3.org/2000/svg">
<mask id="mask0_19_47" style="mask-type:luminance" maskUnits="userSpaceOnUse" x="0" y="49" width="500" height="402">
<path d="M500 49H0V450.042H500V49Z" fill="white"/>
</mask>
<g mask="url(#mask0_19_47)">
<path d="M67.7083 49H0V75.0417H67.7083V49Z" fill="black"/>
<path d="M67.7083 174H0V200.042H67.7083V174Z" fill="black"/>
<path d="M67.7083 299H0V325.042H67.7083V299Z" fill="black"/>
<path d="M67.7083 424H0V450.042H67.7083V424Z" fill="black"/>
<path d="M500 49H171.875V75.0417H500V49Z" fill="black"/>
<path d="M500 174H171.875V200.042H500V174Z" fill="black"/>
<path d="M500 299H171.875V325.042H500V299Z" fill="black"/>
<path d="M500 424H171.875V450.042H500V424Z" fill="black"/>
</g>
</svg>
