<svg width="113" height="92" viewBox="0 0 113 92" fill="none" xmlns="http://www.w3.org/2000/svg">
<path d="M53.92 22.3997C65.25 22.3997 76.59 22.3997 87.92 22.3997C92.13 22.3997 94.03 24.2897 94.03 28.4597C94.03 43.5497 94.03 58.6398 94.03 73.7298C94.03 77.9198 91.96 79.9697 87.75 79.9697C65.08 79.9697 42.42 79.9697 19.75 79.9697C15.67 79.9697 13.47 77.7697 13.46 73.6997C13.46 58.6097 13.46 43.5197 13.46 28.4297C13.46 24.5097 15.53 22.3997 19.41 22.3897C30.91 22.3697 42.41 22.3897 53.91 22.3897L53.92 22.3997ZM53.75 77.0498C64.83 77.0498 75.92 77.0598 87 77.0498C90.27 77.0498 91.24 76.1397 91.25 72.8997C91.29 58.4697 91.29 44.0497 91.25 29.6197C91.25 26.2297 90.14 25.1897 86.69 25.1897C64.77 25.1697 42.85 25.1697 20.93 25.1897C17.24 25.1897 16.38 26.0897 16.38 29.8097C16.38 43.9897 16.38 58.1597 16.38 72.3397C16.38 76.3597 17.11 77.0697 21.24 77.0697C32.07 77.0697 42.91 77.0697 53.74 77.0697L53.75 77.0498Z" fill="black"/>
<path d="M51.37 67.5195H46.03V52.6995H37.3V67.4595H31.67V35.5195H37.16V48.1495H45.84V35.5695H51.38V67.5295L51.37 67.5195Z" fill="black"/>
<path d="M59.05 35.44C62.97 35.44 66.72 35.19 70.42 35.5C74.83 35.87 78.12 39 78.73 44.09C79.42 49.9 79.95 55.83 77.61 61.55C76.22 64.93 73.88 67.16 70.33 67.5C66.65 67.85 62.91 67.58 59.05 67.58V35.45V35.44ZM64.11 39.65V63.31C69.88 63.77 72.32 62.36 73.14 57.38C73.71 53.91 73.85 50.25 73.44 46.76C72.73 40.69 70.58 39.24 64.12 39.66L64.11 39.65Z" fill="black"/>
</svg>
