<svg width="103" height="92" viewBox="0 0 103 92" fill="none" xmlns="http://www.w3.org/2000/svg">
<path d="M52.02 26.0204C55.07 22.6404 58.74 20.0804 63.31 19.3304C72.95 17.7504 80.74 20.6704 84.26 29.1604C87.41 36.7704 86.49 44.3004 81.86 51.2504C75.2 61.2504 66.48 69.3004 57.54 77.1504C56.17 78.3504 54.73 79.4704 53.36 80.6704C52.3 81.6104 51.42 81.5204 50.33 80.6104C40.56 72.4604 31.15 63.9604 23.42 53.7604C18 46.6004 16.02 38.8604 18.92 30.1104C20.99 23.8904 27.17 19.1904 33.75 19.0004C41.72 18.7704 42.95 19.2404 52.01 26.0104L52.02 26.0204ZM51.4 31.4304C50.94 30.9104 50.09 30.0104 49.33 29.0404C45.61 24.2904 40.75 22.2204 34.75 22.4904C28.7 22.7604 24.26 26.0404 22.21 31.7104C19.77 38.4504 21.34 44.5004 25.26 50.0904C32.37 60.2304 41.47 68.4804 50.9 76.3704C51.29 76.6904 52.46 76.5804 52.92 76.2204C55.01 74.5904 57.03 72.8604 58.99 71.0604C66.7 64.0004 74.31 56.8404 79.75 47.7704C83.37 41.7304 83.5 35.4004 80.32 29.2004C77.21 23.1304 67.87 20.3004 61.31 23.7504C57.76 25.6104 54.85 28.6904 51.39 31.4304H51.4Z" fill="black"/>
</svg>
