<svg width="114" height="114" viewBox="0 0 114 114" fill="none" xmlns="http://www.w3.org/2000/svg">
<path d="M56.99 94.5701C36.64 95.0501 18.37 77.5201 18.93 55.5101C19.43 35.9001 35.88 17.8301 58.38 18.4501C77.63 18.9801 95.92 35.4401 95.13 58.1401C94.46 77.3601 78.02 94.9801 56.99 94.5701ZM22.92 56.5101C22.86 74.7601 38.06 90.2801 55.75 90.7001C75.89 91.1801 90.63 75.0001 91.16 57.8501C91.77 37.7501 75.67 23.0101 58.34 22.4201C38.46 21.7401 22.78 38.0201 22.93 56.5201L22.92 56.5101Z" fill="black"/>
<path d="M49.96 50.2402H43.42C42.52 42.2602 48.53 35.5002 56.36 35.2902C60.56 35.1802 64.47 35.7302 67.68 38.6302C71.93 42.4602 72.23 51.7402 67.8 55.3702C67.23 55.8402 66.76 56.4302 66.16 56.8502C62.66 59.2702 60.16 62.2702 60.37 67.0002H53.72C53.55 61.8302 54.99 57.5202 59.17 54.3502C61.31 52.7302 63.26 51.0102 63.28 47.9902C63.31 44.5902 61.37 41.7502 58.59 41.3102C54.84 40.7202 51.93 42.3402 50.82 45.8002C50.4 47.1202 50.28 48.5402 49.97 50.2402H49.96Z" fill="black"/>
<path d="M61.44 79.2001H52.68V71.9102H61.44V79.2001Z" fill="black"/>
</svg>
