<svg width="131" height="106" viewBox="0 0 131 106" fill="none" xmlns="http://www.w3.org/2000/svg">
<path d="M46.9 80.8999V77.9999C49.37 77.4199 51.05 78.4799 52.54 80.0299C52.94 80.4499 53.28 80.9199 53.7 81.3199C55.26 82.8499 57.06 82.9499 58.79 81.5899C59.64 80.9199 60.45 80.1999 61.25 79.4799C62.56 78.3099 64.06 77.9599 65.81 77.8799C68.43 77.7599 70.49 78.5599 72.17 80.5399C72.65 81.0999 73.27 81.5699 73.9 81.9499C75.21 82.7599 76.58 82.7699 77.84 81.8399C78.51 81.3499 79.14 80.7899 79.69 80.1799C82.58 76.9999 88.6 77.0099 91.2 80.3899C92.17 81.6499 93.31 82.7099 95.17 82.4999C96.61 82.3399 97.63 81.5699 98.55 80.5999C100.36 78.6699 102.47 77.7999 105.19 77.8599C107.39 77.9099 108.96 78.8699 110.52 80.1699C111.71 81.1599 112.95 82.0899 114.33 83.1799V86.4199C112.57 86.6299 111.13 86.1799 109.87 85.1599C109.16 84.5899 108.57 83.8799 107.89 83.2799C105.61 81.2499 103.81 81.2799 101.54 83.3599C100.99 83.8599 100.49 84.4199 99.91 84.8699C96.45 87.5499 91.5 87.1799 88.69 83.8699C86.06 80.7599 84.51 81.2899 81.96 83.7999C79.32 86.3999 76.36 87.3299 72.91 86.0199C71.72 85.5699 70.73 84.5799 69.67 83.7999C69.07 83.3599 68.54 82.8399 67.96 82.3699C66.74 81.3899 65.49 81.4999 64.3 82.3899C63.38 83.0899 62.54 83.8999 61.63 84.5999C57.67 87.6499 53.52 87.2499 50.17 83.6099C49.3 82.6599 48.18 81.9299 46.9 80.8799V80.8999Z" fill="black"/>
<path d="M35.18 69.49C35.24 68.38 35.3 67.26 35.36 66.06C37.96 66.02 39.85 66.85 41.16 68.76C43.23 71.77 45.85 71.42 48.06 69.2C49.75 67.5 51.56 66.29 54.12 66.24C56.6 66.2 58.68 66.84 60.39 68.66C60.9 69.2 61.46 69.69 62.07 70.12C63.63 71.22 64.83 71.22 66.36 70.06C67.35 69.31 68.2 68.39 69.17 67.62C71.68 65.65 76.21 65.81 78.62 67.92C79.31 68.52 79.9 69.22 80.59 69.83C82.16 71.22 83.56 71.35 85.33 70.17C86.36 69.49 87.29 68.65 88.26 67.87C91.17 65.56 95.67 65.73 98.54 68.19C99.84 69.31 101.23 70.32 102.79 71.54V74.85C100.36 75.09 98.64 74.04 97.09 72.59C96.73 72.25 96.45 71.82 96.07 71.51C93.78 69.57 92.44 69.59 90.2 71.58C88.78 72.84 87.46 74.18 85.48 74.66C82.09 75.48 79.29 74.7 76.99 72.05C74.73 69.44 72.96 69.38 70.56 71.93C68.05 74.6 65.12 75.76 61.6 74.49C60.33 74.03 59.23 73.04 58.1 72.23C57.43 71.75 56.86 71.13 56.2 70.62C55.15 69.81 54.01 69.87 52.94 70.54C52.18 71.02 51.45 71.6 50.84 72.26C47.32 76 41.19 75.91 38.42 71.9C37.76 70.94 36.6 70.32 35.67 69.54C35.51 69.53 35.34 69.51 35.18 69.5V69.49Z" fill="black"/>
<path d="M44.32 57.7903C44.32 52.9703 41.8 49.5003 38.61 46.5003C36.09 44.1403 35.06 41.3303 35.22 38.0303C35.36 35.2203 35.72 32.4203 36.07 29.6203C36.14 29.0603 36.61 28.5603 36.89 28.0303C37.08 28.0703 37.27 28.1203 37.45 28.1603C37.45 29.3603 37.54 30.5703 37.43 31.7603C37.07 35.8803 38.66 39.1403 41.52 42.0203C45.12 45.6503 46.21 50.1203 45.34 55.0903C45.18 56.0203 44.67 56.8903 44.32 57.7903Z" fill="black"/>
<path d="M98.56 57.2407C98.56 52.6807 96.11 49.2507 93.04 46.4307C90.11 43.7307 89.56 40.4807 89.65 36.9607C89.71 34.4807 90.18 32.0107 90.54 29.5507C90.61 29.0807 91.01 28.6607 91.26 28.2207L91.79 28.3207C91.84 29.0007 92 29.7007 91.91 30.3707C91.3 34.9707 92.65 38.7607 96.02 42.0507C99.6 45.5507 100.5 50.0707 99.88 54.9207C99.78 55.7007 99.39 56.4507 99.14 57.2107C98.95 57.2207 98.75 57.2307 98.56 57.2507V57.2407Z" fill="black"/>
<path d="M71.75 58.1105C71.42 57.4505 71.22 57.2505 71.22 57.0405C71.22 52.9105 69.19 49.7105 66.37 47.0305C63.6 44.4005 62.16 41.4305 62.41 37.5505C62.59 34.8105 62.43 32.0505 63.4 29.4205C63.55 29.0005 63.85 28.6305 64.08 28.2305C64.25 28.2605 64.42 28.2905 64.59 28.3205C64.59 29.2605 64.63 30.1905 64.59 31.1305C64.39 35.1405 65.37 38.6805 68.36 41.5605C73.08 46.1205 73.56 51.6405 71.77 58.1105H71.75Z" fill="black"/>
</svg>
