<svg width="600" height="446" viewBox="0 0 600 446" fill="none" xmlns="http://www.w3.org/2000/svg">
<path d="M136.308 291.785C87.1703 248.276 62.3732 202.941 62.3732 159.888C62.3732 116.836 86.5618 71.8052 118.509 51.7241C134.178 45.0304 140.72 64.1987 130.679 70.8924C105.274 86.866 85.1926 124.29 85.1926 160.193C85.1926 196.095 107.556 235.649 151.521 274.594C162.17 287.829 145.74 299.695 136.46 291.633L136.308 291.785ZM210.091 252.992C176.775 234.28 154.412 197.769 154.412 162.627C154.412 127.485 173.428 96.1459 203.549 80.4766C219.523 74.8478 224.848 94.6247 214.199 100.558C191.379 112.424 177.231 136.004 177.231 161.714C177.383 189.706 195.03 218.306 221.349 233.063C234.584 243.864 220.436 258.468 210.091 253.144V252.992ZM301.521 219.675C274.29 219.675 252.079 197.616 252.079 170.385C252.079 143.154 274.29 120.943 301.521 120.943V74.2393C272.008 30.2738 221.197 0 164.148 0C73.4786 0 0 73.4786 0 164.148C0 221.653 36.5111 263.184 74.5435 301.521L223.478 442.393C233.063 448.326 244.016 444.371 244.168 433.57V323.884C244.168 292.089 269.878 266.379 301.673 266.379L301.521 219.675Z" fill="black"/>
<path d="M463.692 291.785C512.83 248.276 537.627 202.941 537.627 159.888C537.627 116.836 513.438 71.8052 481.491 51.7241C465.822 45.0304 459.28 64.1987 469.321 70.8924C494.726 86.866 514.807 124.29 514.807 160.193C514.807 196.095 492.444 235.649 448.479 274.594C437.83 287.829 454.26 299.695 463.54 291.633L463.692 291.785ZM389.909 252.992C423.225 234.28 445.588 197.769 445.588 162.627C445.588 127.485 426.572 96.1459 396.451 80.4766C380.477 74.8478 375.152 94.6247 385.801 100.558C408.621 112.424 422.769 136.004 422.769 161.714C422.617 189.706 404.97 218.306 378.651 233.063C365.416 243.864 379.564 258.468 389.909 253.144V252.992ZM298.479 219.675C325.71 219.675 347.921 197.616 347.921 170.385C347.921 143.154 325.71 120.943 298.479 120.943V74.2393C327.992 30.2738 378.803 0 435.852 0C526.521 0 600 73.4786 600 164.148C600 221.653 563.489 263.184 525.456 301.521L376.522 442.393C366.937 448.326 355.984 444.371 355.832 433.57V323.884C355.832 292.089 330.122 266.379 298.327 266.379L298.479 219.675Z" fill="black"/>
</svg>
