<svg width="500" height="500" viewBox="0 0 500 500" fill="none" xmlns="http://www.w3.org/2000/svg">
<path d="M306.338 130.434C306.338 164.962 298.759 195.682 287.041 217.387C275.124 239.46 260.348 250 246.479 250C232.61 250 217.834 239.46 205.917 217.387C194.199 195.682 186.62 164.962 186.62 130.434C186.62 95.9074 194.199 65.1864 205.917 43.4818C217.834 21.409 232.61 10.8691 246.479 10.8691C260.348 10.8691 275.124 21.409 287.041 43.4818C298.759 65.1864 306.338 95.9074 306.338 130.434Z" stroke="black" stroke-width="15"/>
<path d="M373.239 312.319C339.685 312.319 309.83 304.521 288.737 292.463C267.285 280.2 257.042 264.996 257.042 250.725C257.042 236.454 267.285 221.25 288.737 208.987C309.83 196.929 339.685 189.131 373.239 189.131C406.794 189.131 436.649 196.929 457.742 208.987C479.194 221.25 489.437 236.454 489.437 250.725C489.437 264.996 479.194 280.2 457.742 292.463C436.649 304.521 406.794 312.319 373.239 312.319Z" stroke="black" stroke-width="15"/>
<path d="M126.761 312.319C93.2062 312.319 63.3506 304.521 42.2573 292.463C20.8063 280.2 10.5634 264.996 10.5634 250.725C10.5634 236.454 20.8063 221.25 42.2573 208.987C63.3506 196.929 93.2062 189.131 126.761 189.131C160.315 189.131 190.17 196.929 211.263 208.987C232.715 221.25 242.958 236.454 242.958 250.725C242.958 264.996 232.715 280.2 211.263 292.463C190.17 304.521 160.315 312.319 126.761 312.319Z" stroke="black" stroke-width="15"/>
<path d="M200.066 111.512C223.793 135.926 239.545 163.163 246.175 187.037C252.915 211.316 249.71 229.519 239.903 239.611C230.097 249.702 212.406 253 188.81 246.063C165.608 239.243 139.139 223.034 115.413 198.619C91.6861 174.205 75.9337 146.967 69.3048 123.094C62.5634 98.8148 65.7692 80.6106 75.5755 70.5199C85.382 60.4292 103.073 57.1306 126.668 64.0674C149.869 70.8885 176.339 87.0973 200.066 111.512Z" stroke="black" stroke-width="15"/>
<path d="M299.92 111.512C323.646 87.0974 350.115 70.8886 373.317 64.0674C396.913 57.1306 414.604 60.4293 424.41 70.52C434.217 80.6107 437.423 98.8149 430.682 123.094C424.052 146.967 408.3 174.205 384.573 198.619C360.846 223.034 334.376 239.242 311.176 246.063C287.58 253 269.889 249.702 260.083 239.611C250.276 229.521 247.07 211.316 253.811 187.037C260.441 163.163 276.193 135.926 299.92 111.512Z" stroke="black" stroke-width="15"/>
<path d="M193.648 369.551C193.648 335.023 201.227 304.303 212.945 282.597C224.862 260.524 239.638 249.985 253.507 249.985C267.375 249.985 282.152 260.524 294.069 282.597C305.787 304.303 313.366 335.023 313.366 369.551C313.366 404.077 305.787 434.798 294.069 456.503C282.152 478.575 267.376 489.116 253.507 489.116C239.638 489.116 224.862 478.575 212.945 456.503C201.227 434.798 193.648 404.077 193.648 369.551Z" stroke="black" stroke-width="15"/>
<path d="M299.92 388.474C276.193 364.059 260.441 336.823 253.811 312.949C247.07 288.669 250.276 270.465 260.083 260.375C269.889 250.284 287.58 246.985 311.176 253.921C334.376 260.743 360.846 276.952 384.573 301.366C408.3 325.781 424.052 353.019 430.682 376.891C437.423 401.171 434.217 419.375 424.41 429.465C414.604 439.556 396.913 442.855 373.317 435.919C350.115 429.097 323.646 412.888 299.92 388.474Z" stroke="black" stroke-width="15"/>
<path d="M200.066 388.474C176.339 412.888 149.869 429.097 126.668 435.919C103.073 442.855 85.382 439.556 75.5755 429.465C65.7692 419.375 62.5634 401.171 69.3048 376.891C75.9337 353.017 91.6861 325.781 115.413 301.366C139.139 276.952 165.608 260.743 188.81 253.921C212.406 246.985 230.097 250.284 239.903 260.375C249.71 270.465 252.915 288.669 246.175 312.949C239.545 336.821 223.793 364.059 200.066 388.474Z" stroke="black" stroke-width="15"/>
</svg>
