<svg width="355" height="345" viewBox="0 0 355 345" fill="none" xmlns="http://www.w3.org/2000/svg">
<path d="M217.5 90C217.5 113.824 212.119 135.021 203.799 149.997C195.338 165.228 184.847 172.5 175 172.5C165.153 172.5 154.662 165.228 146.201 149.997C137.881 135.021 132.5 113.824 132.5 90C132.5 66.1764 137.881 44.9789 146.201 30.0027C154.662 14.7725 165.153 7.5 175 7.5C184.847 7.5 195.338 14.7725 203.799 30.0027C212.119 44.9789 217.5 66.1764 217.5 90Z" stroke="black" stroke-width="15"/>
<path d="M265 215.5C241.176 215.5 219.979 210.119 205.003 201.799C189.772 193.338 182.5 182.847 182.5 173C182.5 163.153 189.772 152.662 205.003 144.201C219.979 135.881 241.176 130.5 265 130.5C288.824 130.5 310.021 135.881 324.997 144.201C340.228 152.662 347.5 163.153 347.5 173C347.5 182.847 340.228 193.338 324.997 201.799C310.021 210.119 288.824 215.5 265 215.5Z" stroke="black" stroke-width="15"/>
<path d="M90 215.5C66.1764 215.5 44.9789 210.119 30.0027 201.799C14.7725 193.338 7.5 182.847 7.5 173C7.5 163.153 14.7725 152.662 30.0027 144.201C44.9789 135.881 66.1764 130.5 90 130.5C113.824 130.5 135.021 135.881 149.997 144.201C165.228 152.662 172.5 163.153 172.5 173C172.5 182.847 165.228 193.338 149.997 201.799C135.021 210.119 113.824 215.5 90 215.5Z" stroke="black" stroke-width="15"/>
<path d="M142.047 76.9427C158.893 93.7885 170.077 112.582 174.784 129.055C179.57 145.808 177.294 158.368 170.331 165.331C163.369 172.294 150.808 174.57 134.055 169.783C117.582 165.077 98.7887 153.893 81.9429 137.047C65.0971 120.201 53.9129 101.407 49.2064 84.9343C44.42 68.1819 46.6961 55.621 53.6586 48.6584C60.6212 41.6958 73.1821 39.4198 89.9345 44.2062C106.407 48.9127 125.201 60.0968 142.047 76.9427Z" stroke="black" stroke-width="15"/>
<path d="M212.943 76.9428C229.789 60.0969 248.582 48.9128 265.055 44.2062C281.808 39.4198 294.369 41.6959 301.331 48.6585C308.294 55.6211 310.57 68.182 305.784 84.9344C301.077 101.407 289.893 120.201 273.047 137.047C256.201 153.893 237.407 165.077 220.935 169.783C204.182 174.57 191.621 172.294 184.659 165.331C177.696 158.369 175.42 145.808 180.206 129.055C184.913 112.582 196.097 93.7886 212.943 76.9428Z" stroke="black" stroke-width="15"/>
<path d="M137.49 254.99C137.49 231.166 142.871 209.969 151.191 194.992C159.652 179.762 170.143 172.49 179.99 172.49C189.836 172.49 200.328 179.762 208.789 194.992C217.109 209.969 222.49 231.166 222.49 254.99C222.49 278.813 217.109 300.011 208.789 314.987C200.328 330.217 189.837 337.49 179.99 337.49C170.143 337.49 159.652 330.217 151.191 314.987C142.871 300.011 137.49 278.813 137.49 254.99Z" stroke="black" stroke-width="15"/>
<path d="M212.943 268.047C196.097 251.201 184.913 232.408 180.206 215.935C175.42 199.182 177.696 186.621 184.659 179.659C191.621 172.696 204.182 170.42 220.935 175.206C237.407 179.913 256.201 191.097 273.047 207.943C289.893 224.789 301.077 243.583 305.784 260.055C310.57 276.808 308.294 289.369 301.331 296.331C294.369 303.294 281.808 305.57 265.055 300.784C248.582 296.077 229.789 284.893 212.943 268.047Z" stroke="black" stroke-width="15"/>
<path d="M142.047 268.047C125.201 284.893 106.407 296.077 89.9345 300.784C73.1821 305.57 60.6212 303.294 53.6586 296.331C46.6961 289.369 44.42 276.808 49.2064 260.055C53.9129 243.582 65.0971 224.789 81.9429 207.943C98.7887 191.097 117.582 179.913 134.055 175.206C150.808 170.42 163.369 172.696 170.331 179.659C177.294 186.621 179.57 199.182 174.784 215.935C170.077 232.407 158.893 251.201 142.047 268.047Z" stroke="black" stroke-width="15"/>
</svg>
