<svg width="142" height="139" viewBox="0 0 142 139" fill="none" xmlns="http://www.w3.org/2000/svg">
<path d="M69.86 14.4102C96.51 13.5602 122.52 36.9102 121.16 68.2102C120.09 92.7902 98.67 118.02 67.46 116.82C42.8 115.87 17.37 94.5502 18.69 62.9402C19.74 37.9302 41.2 13.9402 69.86 14.4002V14.4102ZM23.91 65.5902C24.17 91.5602 44.39 110.45 67.22 111.47C96.52 112.78 114.91 90.1102 115.83 68.1402C117.03 39.3802 94.8 20.6602 72.29 19.6302C44.92 18.3802 24 40.1202 23.9 65.5902H23.91Z" fill="black"/>
<path d="M65.94 53.3701H73.79V96.0701H65.94V53.3701Z" fill="black"/>
<path d="M65.92 37.0098H73.8V47.0498H65.92V37.0098Z" fill="black"/>
</svg>
