<svg width="500" height="500" viewBox="0 0 500 500" fill="none" xmlns="http://www.w3.org/2000/svg">
<path d="M249.679 0.109689C379.589 -4.03773 506.38 109.894 499.751 262.617C494.535 382.55 390.119 505.654 237.979 499.799C117.769 495.164 -6.19441 391.138 0.240195 236.903C5.35863 114.871 109.97 -2.18359 249.679 0.0608943V0.109689ZM25.6861 249.833C26.9536 376.549 125.52 468.718 236.809 473.695C379.638 480.087 469.284 369.474 473.769 262.275C479.618 121.946 371.254 30.6054 261.524 25.5797C128.104 19.4806 26.1249 125.557 25.6374 249.833H25.6861Z" fill="black"/>
<path d="M230.569 190.208H268.836V398.554H230.569V190.208Z" fill="black"/>
<path d="M230.472 110.38H268.885V159.369H230.472V110.38Z" fill="black"/>
</svg>
