<svg width="127" height="158" viewBox="0 0 127 158" fill="none" xmlns="http://www.w3.org/2000/svg">
<path d="M27.29 79.3802C27.29 61.9402 27.29 44.4902 27.29 27.0502C27.29 21.8502 30.67 18.4602 35.82 18.4502C54.33 18.4502 72.84 18.4502 91.35 18.4502C96.09 18.4502 99.79 22.1402 99.79 26.9102C99.79 61.8802 99.8 96.8502 99.79 131.82C99.79 137.26 95.99 141.06 90.64 141.06C72.38 141.06 54.12 140.92 35.86 141.16C31.63 141.22 27.21 136.39 27.24 132.45C27.38 114.76 27.3 97.0702 27.3 79.3702L27.29 79.3802ZM93.99 116.06V44.7002H33.02V116.06H93.99ZM32.89 38.7202H94.16C94.16 34.9802 94.09 31.4202 94.18 27.8602C94.24 25.6902 93.07 24.6802 91.2 24.2702C90.24 24.0602 89.22 24.0702 88.23 24.0702C71.63 24.0602 55.03 24.0602 38.43 24.0702C37.44 24.0702 36.42 24.0902 35.46 24.3002C33.89 24.6502 32.86 25.5402 32.88 27.3402C32.92 31.0702 32.89 34.8002 32.89 38.7102V38.7202ZM94.13 121.94H33.02C32.95 122.38 32.88 122.62 32.88 122.87C32.87 125.44 32.85 128.02 32.87 130.59C32.89 133.9 34.51 135.51 37.86 135.52C46.82 135.53 55.78 135.52 64.74 135.52C72.95 135.52 81.17 135.53 89.38 135.52C91.98 135.52 94.01 133.88 94.09 131.59C94.2 128.44 94.12 125.29 94.12 121.94H94.13Z" fill="black"/>
<path d="M54.51 34.1901V30.1201H72.52V34.1901H54.51Z" fill="black"/>
<path d="M61.48 126.49H65.55V130.77H61.48V126.49Z" fill="black"/>
</svg>
