<svg width="500" height="500" viewBox="0 0 500 500" fill="none" xmlns="http://www.w3.org/2000/svg">
<path d="M102.704 248.268C102.704 177.206 102.704 106.104 102.704 35.0419C102.704 13.8538 116.477 0.0407464 137.461 0C212.882 0 288.304 0 363.726 0C383.039 0 398.115 15.0354 398.115 34.4714C398.115 176.961 398.156 319.451 398.115 461.941C398.115 484.107 382.632 499.59 360.833 499.59C286.43 499.59 212.027 499.02 137.624 499.998C120.388 500.242 102.378 480.562 102.501 464.508C103.071 392.427 102.745 320.348 102.745 248.227L102.704 248.268ZM374.483 397.724V106.959H126.052V397.724H374.483ZM125.522 82.5929H375.175C375.175 67.3537 374.89 52.848 375.257 38.3423C375.501 29.5004 370.734 25.385 363.114 23.7144C359.203 22.8587 355.047 22.8995 351.013 22.8995C283.374 22.8587 215.735 22.8587 148.096 22.8995C144.062 22.8995 139.906 22.9809 135.994 23.8366C129.597 25.2627 125.4 28.8892 125.482 36.2235C125.645 51.4219 125.522 66.6203 125.522 82.5521V82.5929ZM375.053 421.683H126.052C125.767 423.476 125.482 424.454 125.482 425.473C125.441 435.944 125.359 446.457 125.441 456.929C125.522 470.416 132.123 476.976 145.773 477.017C182.282 477.058 218.791 477.017 255.299 477.017C288.752 477.017 322.246 477.058 355.698 477.017C366.293 477.017 374.564 470.334 374.89 461.003C375.338 448.168 375.012 435.333 375.012 421.683H375.053Z" fill="black"/>
<path d="M213.616 64.1346V47.5508H287V64.1346H213.616Z" fill="black"/>
<path d="M242.016 440.224H258.6V457.663H242.016V440.224Z" fill="black"/>
</svg>
