<svg width="500" height="500" viewBox="0 0 500 500" fill="none" xmlns="http://www.w3.org/2000/svg">
<path d="M102.991 248.313C102.991 177.338 103.683 106.363 102.503 35.3876C102.218 17.7353 121.01 -0.201654 137.808 0.00171318C212.809 0.937201 287.771 0.408441 362.773 0.408441C383.394 0.408441 398.159 15.2136 398.159 35.957C398.159 177.582 398.159 319.164 398.159 460.789C398.159 485.111 383.557 499.591 359.356 499.591C285.696 499.591 212.077 499.022 138.418 499.998C119.911 500.242 102.585 480.515 102.707 464.287C103.276 392.295 102.951 320.303 102.951 248.353L102.991 248.313ZM125.687 247.784C125.687 317.74 125.687 387.739 125.687 457.697C125.687 470.225 132.398 477.017 144.478 477.017C214.436 477.017 284.354 477.058 354.313 477.017C368.386 477.017 375.219 470.225 375.219 456.437C375.219 318.513 375.219 180.632 375.219 42.7088C375.219 27.9443 371.721 23.877 356.916 23.7956C285.615 23.5516 214.314 23.5923 143.055 23.7143C130.609 23.7143 125.321 28.107 125.443 41.9767C125.89 110.593 125.646 179.209 125.687 247.825V247.784Z" fill="black"/>
<path d="M241.119 118.604C252.629 121.33 262.879 122.875 272.437 126.251C287.161 131.498 301.966 136.988 313.436 148.499C322.71 157.813 327.549 168.917 329.014 181.892C329.868 189.458 327.631 192.264 319.537 191.084C302.536 188.644 285.453 186.895 268.37 185.065C264.75 184.658 261.049 185.024 255.639 185.024C255.639 189.579 255.639 193.444 255.639 197.308C255.639 245.628 255.599 293.948 255.639 342.267C255.639 356.787 252.711 370.616 238.516 376.798C229.568 380.703 218.708 381.354 208.743 381.273C201.096 381.191 192.88 378.832 186.006 375.375C173.601 369.111 168.72 353.696 172.544 337.955C174.943 328.072 187.511 319.449 200.323 319.124C209.76 318.92 219.277 318.513 228.673 319.164C238.231 319.856 241.444 316.805 241.363 306.759C240.915 248.637 241.119 190.515 241.119 132.433V118.645V118.604Z" fill="black"/>
<path d="M287.405 47.5488V64.4283H214.193V47.5488H287.405Z" fill="black"/>
<path d="M242.176 440.655H259.096V457.657H242.176V440.655Z" fill="black"/>
</svg>
