<svg width="500" height="500" viewBox="0 0 500 500" fill="none" xmlns="http://www.w3.org/2000/svg">
<g clip-path="url(#clip0_9_40)">
<path d="M93.0027 431.233V368.709H405.919V431.233H93.0027Z" fill="black"/>
<path d="M392.199 280.116H500V343.425H392.199V280.116Z" fill="black"/>
<path d="M0 343.422V280.212H95.3548V343.422H0Z" fill="black"/>
<path d="M348.295 193.38H411.506V257.276H348.295V193.38Z" fill="black"/>
<path d="M261.369 193.476H324.775V256.98H261.369V193.476Z" fill="black"/>
<path d="M499.902 257.375H435.711V193.772H499.902V257.375Z" fill="black"/>
<path d="M237.946 257.576H175.52V193.581H237.946V257.576Z" fill="black"/>
<path d="M0.783569 193.38H63.2101V257.08H0.783569V193.38Z" fill="black"/>
<path d="M150.627 257.477H88.495V193.973H150.627V257.477Z" fill="black"/>
<path d="M499.804 431.821H436.104V368.709H499.804V431.821Z" fill="black"/>
<path d="M63.3088 368.805V431.525H0.294312V368.805H63.3088Z" fill="black"/>
<path d="M125.245 343.028V280.308H187.77V343.028H125.245Z" fill="black"/>
<path d="M274.696 343.915H212.857V280.116H274.696V343.915Z" fill="black"/>
<path d="M362.113 344.013H300.078V280.116H362.113V344.013Z" fill="black"/>
<path d="M254.508 174.076C242.356 160.062 244.708 141.344 256.86 126.545C269.306 111.355 287.633 113.217 307.625 108.317C308.997 96.5572 310.565 83.6211 312.329 68.333C316.641 71.469 320.855 72.939 321.933 75.5851C332.419 101.163 320.365 121.547 292.925 125.467C269.11 128.897 262.446 135.562 258.722 159.082C258.036 163.59 256.174 167.902 254.41 174.076H254.508Z" fill="black"/>
</g>
<defs>
<clipPath id="clip0_9_40">
<rect width="500" height="500" fill="white"/>
</clipPath>
</defs>
</svg>
