<?xml version="1.0" encoding="UTF-8"?>
<svg id="Layer_2" data-name="Layer 2" xmlns="http://www.w3.org/2000/svg" viewBox="0 0 88.1 85.65">
  <g id="Layer_1-2" data-name="Layer 1">
    <g>
      <path d="m34.99,58.42v-6.38h31.93v6.38h-31.93Z"/>
      <path d="m65.52,43h11v6.46h-11v-6.46Z"/>
      <path d="m25.5,49.46v-6.45h9.73v6.45h-9.73Z"/>
      <path d="m61.04,34.15h6.45v6.52h-6.45v-6.52Z"/>
      <path d="m52.17,34.16h6.47v6.48h-6.47v-6.48Z"/>
      <path d="m76.51,40.68h-6.55v-6.49h6.55v6.49Z"/>
      <path d="m49.78,40.7h-6.37v-6.53h6.37v6.53Z"/>
      <path d="m25.58,34.15h6.37v6.5h-6.37v-6.5Z"/>
      <path d="m40.87,40.69h-6.34v-6.48h6.34v6.48Z"/>
      <path d="m76.5,58.48h-6.5v-6.44h6.5v6.44Z"/>
      <path d="m31.96,52.05v6.4h-6.43v-6.4h6.43Z"/>
      <path d="m38.28,49.42v-6.4h6.38v6.4h-6.38Z"/>
      <path d="m53.53,49.51h-6.31v-6.51h6.31v6.51Z"/>
      <path d="m62.45,49.52h-6.33v-6.52h6.33v6.52Z"/>
      <path d="m51.47,32.18c-1.24-1.43-1-3.34.24-4.85,1.27-1.55,3.14-1.36,5.18-1.86.14-1.2.3-2.52.48-4.08.44.32.87.47.98.74,1.07,2.61-.16,4.69-2.96,5.09-2.43.35-3.11,1.03-3.49,3.43-.07.46-.26.9-.44,1.53Z"/>
    </g>
  </g>
</svg>