<svg width="500" height="500" viewBox="0 0 500 500" fill="none" xmlns="http://www.w3.org/2000/svg">
<g clip-path="url(#clip0_9_20)">
<path d="M67.6833 131.286C28.5985 131.558 0.544618 104.866 0.0679745 67.0751C-0.408669 29.0117 27.1686 0.344951 64.8234 0.0044909C104.453 -0.404061 133.392 27.1051 133.46 65.2366C133.596 103.572 106.223 131.013 67.7514 131.286H67.6833ZM66.5257 110.586C91.175 110.722 112.488 89.6816 112.352 65.3728C112.215 41.9492 91.9921 21.7258 67.9557 20.9768C43.2383 20.2959 21.4488 40.7235 21.0403 64.9642C20.6998 89.205 41.8765 110.45 66.4577 110.586H66.5257Z" fill="black"/>
<path d="M499.999 433.818C499.795 471.269 471.06 499.527 433.474 499.255C395.41 498.982 368.446 471.201 368.446 432.388C368.446 392.827 396.227 365.59 435.925 366.067C472.967 366.543 500.204 395.414 499.931 433.818H499.999ZM478.891 432.524C478.891 407.875 458.259 386.971 434.018 387.107C409.982 387.243 389.009 408.488 389.078 432.729C389.078 456.901 410.322 478.282 434.223 478.282C458.123 478.282 478.891 456.97 478.891 432.524Z" fill="black"/>
<path d="M0 431.639C0.272368 394.937 30.0286 365.998 67.2068 366.134C104.93 366.27 134.005 396.435 133.392 434.703C132.779 471.268 102.615 499.799 65.2321 499.322C28.5306 498.846 -0.204261 468.953 0.0681065 431.707L0 431.639ZM112.284 431.775C111.807 407.875 89.6771 386.698 65.7769 387.175C41.8766 387.651 20.4957 409.781 20.9723 433.545C21.5171 457.309 43.8512 478.827 67.4792 478.282C91.2433 477.805 112.692 455.471 112.216 431.775H112.284Z" fill="black"/>
<path d="M316.151 431.911C316.355 470.587 289.255 498.845 251.532 499.322C213.877 499.73 184.733 471.54 184.393 434.43C184.053 395.005 211.766 366.202 250.102 366.134C288.301 366.134 315.947 393.643 316.151 431.911ZM295.519 433.272C295.86 409.168 274.955 387.583 250.987 387.174C226.814 386.766 205.91 407.466 205.57 432.047C205.229 456.288 225.997 478.009 249.761 478.281C273.662 478.554 295.179 457.377 295.519 433.272Z" fill="black"/>
<path d="M66.4579 315.132C28.8711 315.132 0.136329 286.669 0.0682371 249.491C0.000145165 210.611 28.4626 182.965 68.0921 183.306C105.951 183.714 133.665 211.973 133.46 250.036C133.256 287.078 104.317 315.132 66.526 315.132H66.4579ZM112.352 248.47C111.875 224.774 89.7454 203.393 66.0494 203.802C42.1491 204.21 20.7682 226.136 21.1087 249.832C21.4491 273.732 43.1024 294.364 67.4793 293.955C91.9243 293.547 112.829 272.37 112.42 248.402L112.352 248.47Z" fill="black"/>
<path d="M249.761 0.00735862C289.05 -0.128825 316.083 26.359 316.219 65.1033C316.355 104.324 289.799 131.153 250.783 131.289C211.289 131.357 184.597 105.141 184.461 66.1247C184.393 26.5632 210.472 0.143543 249.761 0.00735862ZM295.587 65.1033C295.247 40.454 274.206 20.435 249.285 20.9797C224.635 21.5244 205.774 40.6583 205.57 65.2395C205.365 90.3654 225.384 110.589 250.442 110.589C275.16 110.589 295.928 89.6164 295.587 65.1033Z" fill="black"/>
<path d="M434.154 0.00683594C473.648 0.00683594 499.931 26.2222 499.931 65.5794C499.931 104.937 473.58 131.288 434.291 131.288C394.933 131.288 368.446 104.937 368.446 65.7156C368.446 26.4265 394.865 0.00683594 434.154 0.00683594ZM433.61 21.0473C408.484 21.4558 388.465 42.0196 389.078 66.737C389.69 91.3863 411.071 111.473 435.721 110.588C459.961 109.703 478.823 90.1606 478.891 65.7156C478.959 40.4535 458.872 20.6387 433.61 21.0473Z" fill="black"/>
<path d="M316.151 249.563C316.151 288.376 289.051 315.204 250.034 315.136C210.881 315.136 184.393 288.376 184.393 249.087C184.393 210.478 211.766 183.242 250.442 183.31C289.323 183.378 316.219 210.478 316.151 249.495V249.563ZM250.374 294.027C275.16 293.891 295.86 273.191 295.587 248.678C295.247 224.437 273.389 203.261 249.353 203.873C225.997 204.486 205.978 224.982 205.638 248.678C205.229 274.008 225.18 294.163 250.442 294.095L250.374 294.027Z" fill="black"/>
<path d="M433.473 315.136C394.661 315 368.241 288.035 368.446 248.61C368.582 209.73 395.75 183.106 434.971 183.378C473.512 183.582 500.136 210.955 499.999 250.108C499.795 289.057 473.035 315.34 433.473 315.204V315.136ZM434.154 293.959C459.485 294.028 479.299 273.94 478.891 248.542C478.482 224.71 458.667 204.418 435.176 203.806C411.003 203.193 389.418 224.233 389.146 248.61C388.873 273.396 409.233 293.891 434.222 293.959H434.154Z" fill="black"/>
</g>
<defs>
<clipPath id="clip0_9_20">
<rect width="500" height="500" fill="white"/>
</clipPath>
</defs>
</svg>
