<?xml version="1.0" encoding="UTF-8"?>
<svg id="Layer_2" data-name="Layer 2" xmlns="http://www.w3.org/2000/svg" viewBox="0 0 147.65 114.15">
  <g id="Layer_1-2" data-name="Layer 1">
    <g id="S3jFeT.tif">
      <g>
        <path d="m61.31,42.09c-5.74.04-9.86-3.88-9.93-9.43-.07-5.59,3.98-9.8,9.51-9.85,5.82-.06,10.07,3.98,10.08,9.58.02,5.63-4,9.66-9.65,9.7Zm-.17-3.04c3.62.02,6.75-3.07,6.73-6.64-.02-3.44-2.99-6.41-6.52-6.52-3.63-.1-6.83,2.9-6.89,6.46-.05,3.56,3.06,6.68,6.67,6.7Z"/>
        <path d="m124.8,86.52c-.03,5.5-4.25,9.65-9.77,9.61-5.59-.04-9.55-4.12-9.55-9.82,0-5.81,4.08-9.81,9.91-9.74,5.44.07,9.44,4.31,9.4,9.95Zm-3.1-.19c0-3.62-3.03-6.69-6.59-6.67-3.53.02-6.61,3.14-6.6,6.7,0,3.55,3.12,6.69,6.63,6.69,3.51,0,6.56-3.13,6.56-6.72Z"/>
        <path d="m51.37,86.2c.04-5.39,4.41-9.64,9.87-9.62,5.54.02,9.81,4.45,9.72,10.07-.09,5.37-4.52,9.56-10.01,9.49-5.39-.07-9.61-4.46-9.57-9.93Zm16.49.02c-.07-3.51-3.32-6.62-6.83-6.55-3.51.07-6.65,3.32-6.58,6.81.08,3.49,3.36,6.65,6.83,6.57,3.49-.07,6.64-3.35,6.57-6.83Z"/>
        <path d="m97.8,86.24c.03,5.68-3.95,9.83-9.49,9.9-5.53.06-9.81-4.08-9.86-9.53-.05-5.79,4.02-10.02,9.65-10.03,5.61,0,9.67,4.04,9.7,9.66Zm-3.03.2c.05-3.54-3.02-6.71-6.54-6.77-3.55-.06-6.62,2.98-6.67,6.59-.05,3.56,3,6.75,6.49,6.79,3.51.04,6.67-3.07,6.72-6.61Z"/>
        <path d="m61.13,69.09c-5.52,0-9.74-4.18-9.75-9.64-.01-5.71,4.17-9.77,9.99-9.72,5.56.06,9.63,4.21,9.6,9.8-.03,5.44-4.28,9.56-9.83,9.56Zm6.74-9.79c-.07-3.48-3.32-6.62-6.8-6.56-3.51.06-6.65,3.28-6.6,6.76.05,3.51,3.23,6.54,6.81,6.48,3.59-.06,6.66-3.17,6.6-6.69Z"/>
        <path d="m88.05,22.81c5.77-.02,9.74,3.87,9.76,9.56.02,5.76-3.88,9.7-9.61,9.72-5.8.01-9.72-3.84-9.74-9.57-.01-5.81,3.82-9.69,9.59-9.71Zm6.73,9.56c-.05-3.62-3.14-6.56-6.8-6.48-3.62.08-6.39,2.89-6.42,6.5-.03,3.69,2.91,6.66,6.59,6.66,3.63,0,6.68-3.08,6.63-6.68Z"/>
        <path d="m115.13,22.81c5.8,0,9.66,3.85,9.66,9.63,0,5.78-3.87,9.65-9.64,9.65-5.78,0-9.67-3.87-9.67-9.63,0-5.77,3.88-9.65,9.65-9.65Zm-.08,3.09c-3.69.06-6.63,3.08-6.54,6.71.09,3.62,3.23,6.57,6.85,6.44,3.56-.13,6.33-3,6.34-6.59.01-3.71-2.94-6.62-6.65-6.56Z"/>
        <path d="m97.8,59.46c0,5.7-3.98,9.64-9.71,9.63-5.75,0-9.64-3.93-9.64-9.7,0-5.67,4.02-9.67,9.7-9.66,5.71.01,9.66,3.99,9.65,9.72Zm-9.66,6.53c3.64-.02,6.68-3.06,6.64-6.66-.05-3.56-3.26-6.67-6.79-6.58-3.43.09-6.37,3.1-6.42,6.58-.06,3.72,2.87,6.68,6.58,6.67Z"/>
        <path d="m115.03,69.09c-5.7-.02-9.58-3.98-9.55-9.77.02-5.71,4.01-9.62,9.77-9.58,5.66.03,9.57,4.05,9.55,9.8-.03,5.72-3.96,9.58-9.77,9.56Zm.1-3.11c3.72.01,6.63-2.94,6.57-6.67-.06-3.5-2.97-6.48-6.42-6.57-3.55-.09-6.72,3-6.76,6.58-.04,3.64,2.95,6.65,6.62,6.66Z"/>
      </g>
    </g>
  </g>
</svg>