<svg width="127" height="86" viewBox="0 0 127 86" fill="none" xmlns="http://www.w3.org/2000/svg">
<g clip-path="url(#clip0_13_578)">
<path d="M113.01 81H13.98V85.15H113.01V81Z" fill="black"/>
<path d="M63.6 79.0901C49.99 79.0901 36.38 79.0901 22.76 79.0901C19.24 79.0901 18.31 78.1801 18.31 74.7201C18.31 56.5701 18.31 38.4201 18.31 20.2701C18.31 16.7901 19.26 15.8301 22.7 15.8301C50.09 15.8301 77.48 15.8301 104.87 15.8301C108.08 15.8301 109.22 16.9201 109.22 20.0801C109.23 38.3101 109.23 56.5401 109.22 74.7801C109.22 78.0501 108.17 79.0801 104.93 79.0901C91.15 79.0901 77.37 79.0901 63.6 79.0901ZM22.44 74.8701H104.94V20.0601H22.45V74.8601L22.44 74.8701Z" fill="black"/>
</g>
<defs>
<clipPath id="clip0_13_578">
<rect width="127" height="85.15" fill="white"/>
</clipPath>
</defs>
</svg>
