<svg width="152" height="187" viewBox="0 0 152 187" fill="none" xmlns="http://www.w3.org/2000/svg">
<path d="M77.49 153.55C45.78 154.35 20.08 127.17 19.98 96.5003C19.88 66.0203 45.51 37.2503 80.73 38.9603C107.39 40.2603 136.28 63.3603 134.75 99.4903C133.58 127.11 109.59 154.19 77.49 153.55ZM128.95 96.3503C128.63 67.4103 105.82 45.9203 79.61 44.9503C48.92 43.8203 25.58 68.5303 26.01 96.9803C26.44 125.44 48.99 146.9 75.49 147.77C106 148.76 128.76 124.45 128.95 96.3503Z" fill="black"/>
<path d="M77.07 101.88C77.69 103.61 77.89 105.2 78.73 106.31C80.16 108.2 79.1 109.02 77.92 110.39C72.04 117.18 59.98 118.76 52.25 115.16C46.52 112.49 42.32 108.43 40.05 102.73C37.33 95.9201 37.75 89.1001 41.47 82.5701C44.91 76.5301 50.21 72.9601 56.75 71.4801C61.56 70.3901 66.48 70.7801 71.16 72.8101C75.48 74.6801 78.99 77.5101 81.34 81.5501C82.95 84.3301 84.12 87.3701 85.5 90.2801C88.15 95.9001 90.73 101.55 93.5 107.11C95.14 110.41 98.49 110.38 101.52 110.41C102.99 110.43 104.6 109.9 105.92 109.19C109.35 107.36 110.18 105.54 109.55 101.52C109.14 98.8801 106.99 98.2001 104.76 97.3401C100.53 95.7101 96.31 93.9401 92.36 91.7301C88.79 89.7401 87.64 84.6901 88.45 80.7001C89.73 74.4701 94.07 72.0501 99.56 71.3701C104.44 70.7701 108.48 72.9801 111.43 76.9601C111.68 77.2901 111.79 77.9201 111.66 78.3101C111.06 80.0001 107.21 80.7301 105.9 79.4401C102.8 76.4101 97.87 76.8301 95.74 79.5701C93.39 82.5801 93.91 86.4601 98.97 88.3901C102.76 89.8301 106.67 91.0001 110.34 92.6801C118.59 96.4401 118.48 108.13 111.79 113.24C102.73 120.16 89.83 117.57 85.4 106.08C83.17 100.3 79.95 94.9001 77.69 89.1301C75.76 84.2001 72.79 80.5501 67.83 78.7801C62.98 77.0501 58.07 77.0901 53.49 79.7101C46.39 83.7701 44.14 90.2101 45.52 97.8901C46.44 103.02 49.73 106.9 54.51 108.9C62.27 112.15 70.47 110.38 75.32 103.48C75.72 102.91 76.37 102.51 77.08 101.88H77.07Z" fill="black"/>
</svg>
