<svg width="94" height="140" viewBox="0 0 94 140" fill="none" xmlns="http://www.w3.org/2000/svg">
<path d="M46.84 126.49C42.27 126.49 37.69 126.35 33.12 126.52C27.22 126.74 21.98 121.75 22.23 115.53C22.43 110.55 22.21 105.55 22.29 100.56C22.35 96.7499 21.01 93.3899 19.76 89.8599C17.4 83.1899 12.14 78.7299 8.27 73.2199C6.98 71.3899 5.73 69.4399 4.94 67.3599C3.36 63.1699 1.75999 58.9199 0.839995 54.5599C0.149995 51.2799 0.469999 47.7799 0.429999 44.3799C0.379999 40.0099 1.45 35.8599 3.18 31.8799C4.55 28.7299 5.78 25.4899 7.5 22.5399C10.6 17.1899 14.74 12.6999 19.92 9.23994C23.85 6.60994 28.01 4.59994 32.51 3.00994C38.93 0.739943 45.43 0.019943 52.07 0.579943C55.07 0.829943 58.02 2.01994 60.92 3.00994C63.58 3.90994 66.18 5.01994 68.75 6.17994C75.36 9.17994 80.56 13.9799 84.7 19.8099C88.44 25.0699 90.98 30.8499 92.5 37.2899C93.54 41.6899 93.77 45.9799 93.47 50.2699C93.2 54.1899 92.08 58.1199 90.82 61.8699C89.58 65.5899 88.02 69.2699 86.03 72.6399C84.36 75.4799 81.7 77.7299 79.8 80.4599C77.86 83.2399 76.3 86.2899 74.58 89.2199C69.81 97.3399 72.06 106.27 71.78 114.87C71.64 119.16 70.15 122.53 66.91 124.9C65.38 126.02 63.04 126.33 61.04 126.42C56.31 126.63 51.57 126.49 46.83 126.49H46.84ZM46.84 119.76C46.84 119.76 46.84 119.76 46.84 119.75C50.83 119.75 54.82 119.8 58.81 119.73C62.32 119.67 64.42 117.58 64.47 114.08C64.54 109.01 64.6 103.93 64.48 98.8599C64.38 94.6899 65.5 90.9099 66.97 87.0299C69.16 81.2599 72.74 76.4599 76.67 71.9999C82.57 65.2999 85.38 57.4799 86.03 48.8499C86.27 45.6499 85.27 42.3599 84.91 39.0999C84.27 33.2299 81.46 28.3499 77.98 23.7999C73.84 18.3799 68.71 14.3299 62.4 11.4699C57.96 9.45994 53.35 8.67994 48.71 8.16994C43.97 7.64994 39.32 8.90994 34.72 10.2999C30.69 11.5099 27.09 13.4199 23.86 15.9499C18.7 19.9999 14.27 24.6699 11.6 30.8999C9.58 35.6199 8.31 40.4599 7.86 45.5199C7.42 50.5399 8.5 55.3799 10.43 59.9799C11.89 63.4499 13.21 67.1699 15.49 70.0699C18.44 73.8199 21.58 77.3499 24.1 81.4899C27.53 87.1399 29.76 92.9299 29.49 99.6399C29.3 104.46 29.42 109.29 29.49 114.11C29.54 117.63 31.64 119.7 35.11 119.75C39.02 119.8 42.92 119.76 46.83 119.76H46.84Z" fill="black"/>
<path d="M56.6802 85.9311C58.0024 80.3292 54.533 74.7162 48.9311 73.394C43.3292 72.0718 37.7162 75.5412 36.394 81.1431C35.0718 86.745 38.5412 92.3581 44.1431 93.6803C49.745 95.0024 55.3581 91.533 56.6802 85.9311Z" stroke="#EC4E3E" stroke-width="5" stroke-miterlimit="10"/>
<path d="M51 94H44V110H51V94Z" fill="#EC4E3E"/>
<path d="M55.55 129.62H37.39C34.6065 129.62 32.35 131.876 32.35 134.66C32.35 137.443 34.6065 139.7 37.39 139.7H55.55C58.3335 139.7 60.59 137.443 60.59 134.66C60.59 131.876 58.3335 129.62 55.55 129.62Z" fill="#221F20"/>
</svg>
