<svg width="500" height="500" viewBox="0 0 500 500" fill="none" xmlns="http://www.w3.org/2000/svg">
<path d="M249.225 452.585C232.822 452.585 216.383 452.082 199.979 452.693C178.802 453.482 159.994 435.571 160.891 413.246C161.609 395.371 160.82 377.424 161.107 359.513C161.322 345.838 156.512 333.777 152.026 321.107C143.555 297.166 124.675 281.158 110.784 261.38C106.154 254.812 101.667 247.812 98.8315 240.347C93.1603 225.307 87.4173 210.052 84.1151 194.403C81.6385 182.63 82.7871 170.067 82.6435 157.863C82.464 142.178 86.3047 127.282 92.5142 112.996C97.4316 101.69 101.847 90.0605 108.02 79.4719C119.147 60.2689 134.007 44.1527 152.6 31.7335C166.706 22.2935 181.638 15.0789 197.79 9.37186C220.834 1.22403 244.164 -1.3603 267.998 0.649734C278.766 1.54707 289.354 5.8184 299.763 9.37186C309.311 12.6023 318.643 16.5864 327.868 20.7501C351.594 31.5181 370.258 48.747 385.118 69.6729C398.542 88.5529 407.659 109.299 413.115 132.415C416.848 148.208 417.674 163.606 416.597 179.005C415.628 193.075 411.608 207.181 407.085 220.641C402.634 233.993 397.035 247.202 389.892 259.298C383.898 269.492 374.35 277.568 367.53 287.367C360.567 297.346 354.968 308.293 348.794 318.81C331.673 347.955 339.749 380.008 338.744 410.877C338.241 426.275 332.893 438.371 321.264 446.878C315.772 450.898 307.373 452.011 300.194 452.334C283.216 453.087 266.203 452.585 249.189 452.585H249.225ZM249.225 428.429C249.225 428.429 249.225 428.429 249.225 428.393C263.547 428.393 277.868 428.572 292.19 428.321C304.788 428.106 312.326 420.604 312.506 408.041C312.757 389.843 312.972 371.609 312.541 353.411C312.182 338.444 316.203 324.876 321.479 310.949C329.34 290.239 342.189 273.01 356.296 257.001C377.473 232.953 387.559 204.884 389.892 173.908C390.753 162.422 387.164 150.613 385.872 138.912C383.575 117.842 373.489 100.326 360.998 83.9945C346.138 64.5402 327.724 50.0033 305.076 39.7378C289.139 32.5232 272.592 29.7235 255.937 27.8929C238.924 26.0264 222.233 30.549 205.722 35.5382C191.257 39.8813 178.336 46.737 166.742 55.818C148.221 70.3549 132.32 87.1172 122.737 109.479C115.486 126.421 110.928 143.793 109.312 161.955C107.733 179.974 111.61 197.346 118.537 213.857C123.777 226.312 128.515 239.665 136.699 250.074C147.288 263.534 158.558 276.204 167.603 291.064C179.915 311.344 187.919 332.126 186.95 356.211C186.268 373.512 186.699 390.848 186.95 408.149C187.13 420.783 194.667 428.213 207.122 428.393C221.157 428.572 235.155 428.429 249.189 428.429H249.225Z" fill="black"/>
<path d="M290.978 220.458C296.67 196.341 281.734 172.177 257.617 166.485C233.5 160.793 209.335 175.729 203.643 199.845C197.951 223.962 212.887 248.127 237.004 253.819C261.121 259.511 285.286 244.575 290.978 220.458Z" stroke="#EC4E3E" stroke-width="34" stroke-miterlimit="10"/>
<path d="M259.85 248.602H235.909V410.769H259.85V248.602Z" fill="#EC4E3E"/>
<path d="M280.489 463.819H215.306C205.315 463.819 197.216 471.919 197.216 481.91C197.216 491.901 205.315 500 215.306 500H280.489C290.48 500 298.579 491.901 298.579 481.91C298.579 471.919 290.48 463.819 280.489 463.819Z" fill="#221F20"/>
</svg>
