<?xml version="1.0" encoding="UTF-8"?>
<svg id="Layer_2" data-name="Layer 2" xmlns="http://www.w3.org/2000/svg" viewBox="0 0 235 330">
  <defs>
    <style>
      .cls-1 {
        fill: #221f20;
      }

      .cls-2 {
        fill: none;
        stroke: #221f20;
        stroke-miterlimit: 10;
        stroke-width: 8px;
      }
    </style>
  </defs>
  <g id="Layer_1-2" data-name="Layer 1">
    <g>
      <g id="Pa7978.tif">
        <path d="m111.84,204.49c-4.57,0-9.15-.14-13.72.03-5.9.22-11.14-4.77-10.89-10.99.2-4.98-.02-9.98.06-14.97.06-3.81-1.28-7.17-2.53-10.7-2.36-6.67-7.62-11.13-11.49-16.64-1.29-1.83-2.54-3.78-3.33-5.86-1.58-4.19-3.18-8.44-4.1-12.8-.69-3.28-.37-6.78-.41-10.18-.05-4.37,1.02-8.52,2.75-12.5,1.37-3.15,2.6-6.39,4.32-9.34,3.1-5.35,7.24-9.84,12.42-13.3,3.93-2.63,8.09-4.64,12.59-6.23,6.42-2.27,12.92-2.99,19.56-2.43,3,.25,5.95,1.44,8.85,2.43,2.66.9,5.26,2.01,7.83,3.17,6.61,3,11.81,7.8,15.95,13.63,3.74,5.26,6.28,11.04,7.8,17.48,1.04,4.4,1.27,8.69.97,12.98-.27,3.92-1.39,7.85-2.65,11.6-1.24,3.72-2.8,7.4-4.79,10.77-1.67,2.84-4.33,5.09-6.23,7.82-1.94,2.78-3.5,5.83-5.22,8.76-4.77,8.12-2.52,17.05-2.8,25.65-.14,4.29-1.63,7.66-4.87,10.03-1.53,1.12-3.87,1.43-5.87,1.52-4.73.21-9.47.07-14.21.07Zm0-6.73s0,0,0-.01c3.99,0,7.98.05,11.97-.02,3.51-.06,5.61-2.15,5.66-5.65.07-5.07.13-10.15.01-15.22-.1-4.17,1.02-7.95,2.49-11.83,2.19-5.77,5.77-10.57,9.7-15.03,5.9-6.7,8.71-14.52,9.36-23.15.24-3.2-.76-6.49-1.12-9.75-.64-5.87-3.45-10.75-6.93-15.3-4.14-5.42-9.27-9.47-15.58-12.33-4.44-2.01-9.05-2.79-13.69-3.3-4.74-.52-9.39.74-13.99,2.13-4.03,1.21-7.63,3.12-10.86,5.65-5.16,4.05-9.59,8.72-12.26,14.95-2.02,4.72-3.29,9.56-3.74,14.62-.44,5.02.64,9.86,2.57,14.46,1.46,3.47,2.78,7.19,5.06,10.09,2.95,3.75,6.09,7.28,8.61,11.42,3.43,5.65,5.66,11.44,5.39,18.15-.19,4.82-.07,9.65,0,14.47.05,3.52,2.15,5.59,5.62,5.64,3.91.05,7.81.01,11.72.01Z"/>
      </g>
      <circle class="cls-2" cx="111.31" cy="136.96" r="12.5" transform="translate(-47.56 213.82) rotate(-76.72)"/>
      <rect class="cls-1" x="108.13" y="147.66" width="6.67" height="45.18"/>
      <rect class="cls-1" x="97.35" y="207.62" width="28.24" height="10.08" rx="5.04" ry="5.04"/>
    </g>
  </g>
</svg>