<?xml version="1.0" encoding="UTF-8"?>
<svg id="Layer_2" data-name="Layer 2" xmlns="http://www.w3.org/2000/svg" viewBox="0 0 277.74 294.72">
  <g id="Layer_1-2" data-name="Layer 1">
    <g id="BoeZ8w.tif">
      <g>
        <path d="m212.88,152.3h19.72c-.55,2.42-.97,4.29-1.39,6.16h-26.98c3.55-16.8,7.04-33.27,10.53-49.8h26.18c-.44,2.11-.83,3.99-1.27,6.12h-19.02c-.93,4.94-1.82,9.7-2.82,15.04h17.16c-.19,2.18-.34,3.92-.53,6.13h-18.23c-1.14,5.54-2.19,10.67-3.35,16.35Z"/>
        <path d="m179.96,158.41h-8.72c-.49-16.52-.98-32.91-1.48-49.6h7.79v36.81c.44.04.88.08,1.32.12,5.45-12.3,10.9-24.6,16.41-37.03h7.59c-7.7,16.72-15.21,33.02-22.9,49.71Z"/>
        <path d="m128.2,152.28c-.32,2.31-.57,4.12-.84,6.12h-26.93c3.53-16.69,7-33.11,10.5-49.68h7.2c-3.04,14.53-6.02,28.79-9.11,43.56h19.19Z"/>
        <path d="m150.53,108.77h7.23c-3.54,16.73-7.01,33.14-10.51,49.66h-7.18c3.52-16.73,7-33.22,10.46-49.66Z"/>
      </g>
    </g>
  </g>
</svg>