<svg width="500" height="500" viewBox="0 0 500 500" fill="none" xmlns="http://www.w3.org/2000/svg">
<path d="M400.149 316.958H470.322C468.365 325.57 466.871 332.224 465.376 338.879H369.369C382.001 279.096 394.42 220.488 406.839 161.667H500C498.434 169.175 497.046 175.865 495.481 183.445H427.799C424.489 201.024 421.322 217.962 417.764 236.964H478.827C478.151 244.722 477.617 250.913 476.941 258.777H412.07C408.014 278.491 404.277 296.746 400.149 316.958Z" fill="black"/>
<path d="M283.005 338.7H251.975C250.231 279.914 248.488 221.59 246.708 162.2H274.429V293.187C275.995 293.329 277.56 293.471 279.126 293.614C298.52 249.845 317.913 206.075 337.52 161.844H364.529C337.129 221.341 310.405 279.344 283.04 338.735L283.005 338.7Z" fill="black"/>
<path d="M98.8186 316.886C97.6799 325.106 96.7903 331.547 95.8295 338.663H0C12.5614 279.273 24.9093 220.843 37.3639 161.879H62.9848C52.1671 213.583 41.5629 264.327 30.5672 316.886H98.8542H98.8186Z" fill="black"/>
<path d="M178.279 162.06H204.007C191.41 221.593 179.062 279.987 166.607 338.773H141.058C153.583 279.24 165.967 220.561 178.279 162.06Z" fill="black"/>
</svg>
