<?xml version="1.0" encoding="UTF-8"?>
<svg id="Layer_2" data-name="Layer 2" xmlns="http://www.w3.org/2000/svg" viewBox="0 0 43.15 71.98">
  <g id="Layer_1-2" data-name="Layer 1">
    <g>
      <path d="m21.28,71.98c-.88-1.81-1.77-3.61-2.62-5.43-5.06-10.84-10.11-21.69-15.15-32.54C1.52,29.72-.18,25.38.02,20.47.5,8.8,10.33.12,20.66,0c8.31-.09,14.76,3.1,19.15,10.12,4.3,6.87,4.3,14.04.9,21.32-4.99,10.69-9.92,21.41-14.89,32.11-1.28,2.76-2.6,5.51-3.9,8.27-.21.05-.43.11-.64.16Zm.27-7.87c.99-2.01,1.78-3.52,2.5-5.06,3.54-7.63,7.08-15.27,10.58-22.92,1.51-3.3,3.37-6.51,4.31-9.97,1.87-6.85.05-12.96-5.15-17.86-5.08-4.78-11.15-5.99-17.72-4.02C6.75,7.07-.09,18.34,5.45,29.81c4.59,9.51,8.91,19.15,13.37,28.73.81,1.74,1.69,3.45,2.73,5.56h0Z"/>
      <path d="m31.54,19.95v3.18c-6.62.06-13.16.04-19.89,0v-3.19h19.89Z"/>
      <path d="m23.19,31.5h-3.18c-.06-6.62-.04-13.16,0-19.89h3.19v19.89h0Z"/>
    </g>
  </g>
</svg>