<svg width="500" height="500" viewBox="0 0 500 500" fill="none" xmlns="http://www.w3.org/2000/svg">
<g clip-path="url(#clip0_9_21)">
<path d="M0.107656 377.727C-1.46013 345.483 14.27 321.078 35.9055 299.442C72.8007 262.548 109.905 225.862 146.591 188.757C187.667 147.263 249.438 146.009 291.873 186.353C298.458 192.625 304.624 199.314 311.314 205.428C317.114 210.759 316.958 215.932 310.634 219.8C304.363 223.614 301.489 238.352 289.887 227.273C282.727 220.479 275.934 213.267 268.617 206.63C240.031 180.5 202.927 178.619 174.655 205.637C131.07 247.236 88.2173 289.722 46.7755 333.463C24.5129 356.928 20.9592 390.322 42.8038 417.758C55.0325 433.174 68.62 448.8 84.8204 459.409C113.145 477.961 143.926 473.937 170.526 448.277C195.715 423.924 220.33 398.944 244.787 373.807C251.372 367.014 256.65 364.244 263.444 372.867C268.931 379.87 279.749 384.468 267.468 396.018C242.435 419.482 218.866 444.41 194.513 468.554C169.272 493.482 138.7 504.404 103.686 499.178C91.8755 497.401 79.49 492.332 69.7174 485.434C39.1456 463.851 11.8138 439.027 0.943809 401.139C0.577992 399.885 0.159916 398.631 0.107656 397.324C0.00313727 390.792 0.107656 384.259 0.107656 377.727Z" fill="black"/>
<path d="M204.808 311.305C210.191 305.452 214.842 299.233 220.747 294.634C222.942 292.962 229.213 293.693 231.774 295.732C252.364 312.089 274.836 319.51 300.077 308.901C310.007 304.72 319.884 298.554 327.566 291.028C367.649 251.833 406.948 211.855 446.666 172.347C477.76 141.409 476.401 99.7059 445.725 69.8656C439.872 64.1694 433.862 58.5776 428.166 52.7245C398.116 21.9436 357.615 22.5707 327.514 52.2542C301.07 78.3317 274.888 104.775 248.706 131.062C242.696 137.071 237.993 143.029 229.266 133.047C216.776 118.728 216.149 119.355 226.809 108.694C252.469 82.9828 278.181 57.2711 303.788 31.5071C345.177 -10.1438 408.83 -10.7186 449.958 31.089C463.807 45.1468 478.805 59.466 488.055 76.4503C509.116 115.227 501.59 159.752 471.28 191.108C430.465 233.334 388.814 274.775 346.745 315.747C323.072 338.846 293.231 347.625 260.935 342.452C239.665 339.055 220.068 329.596 204.86 311.305H204.808Z" fill="black"/>
</g>
<defs>
<clipPath id="clip0_9_21">
<rect width="500" height="500" fill="white"/>
</clipPath>
</defs>
</svg>
