<svg width="146" height="167" viewBox="0 0 146 167" fill="none" xmlns="http://www.w3.org/2000/svg">
<path d="M26.07 117.61C25.77 111.44 28.78 106.77 32.92 102.63C39.98 95.5702 47.08 88.5502 54.1 81.4502C61.96 73.5102 73.78 73.2702 81.9 80.9902C83.16 82.1902 84.34 83.4702 85.62 84.6402C86.73 85.6602 86.7 86.6502 85.49 87.3902C84.29 88.1202 83.74 90.9402 81.52 88.8202C80.15 87.5202 78.85 86.1402 77.45 84.8702C71.98 79.8702 64.88 79.5102 59.47 84.6802C51.13 92.6402 42.93 100.77 35 109.14C30.74 113.63 30.06 120.02 34.24 125.27C36.58 128.22 39.18 131.21 42.28 133.24C47.7 136.79 53.59 136.02 58.68 131.11C63.5 126.45 68.21 121.67 72.89 116.86C74.15 115.56 75.16 115.03 76.46 116.68C77.51 118.02 79.58 118.9 77.23 121.11C72.44 125.6 67.93 130.37 63.27 134.99C58.44 139.76 52.59 141.85 45.89 140.85C43.63 140.51 41.26 139.54 39.39 138.22C33.54 134.09 28.31 129.34 26.23 122.09C26.16 121.85 26.08 121.61 26.07 121.36C26.05 120.11 26.07 118.86 26.07 117.61Z" fill="black"/>
<path d="M65.24 104.9C66.27 103.78 67.16 102.59 68.29 101.71C68.71 101.39 69.91 101.53 70.4 101.92C74.34 105.05 78.64 106.47 83.47 104.44C85.37 103.64 87.26 102.46 88.73 101.02C96.4 93.52 103.92 85.87 111.52 78.31C117.47 72.39 117.21 64.41 111.34 58.7C110.22 57.61 109.07 56.54 107.98 55.42C102.23 49.53 94.48 49.65 88.72 55.33C83.66 60.32 78.65 65.38 73.64 70.41C72.49 71.56 71.59 72.7 69.92 70.79C67.53 68.05 67.41 68.17 69.45 66.13C74.36 61.21 79.28 56.29 84.18 51.36C92.1 43.39 104.28 43.28 112.15 51.28C114.8 53.97 117.67 56.71 119.44 59.96C123.47 67.38 122.03 75.9 116.23 81.9C108.42 89.98 100.45 97.91 92.4 105.75C87.87 110.17 82.16 111.85 75.98 110.86C71.91 110.21 68.16 108.4 65.25 104.9H65.24Z" fill="black"/>
</svg>
