<?xml version="1.0" encoding="UTF-8"?>
<svg id="Layer_2" data-name="Layer 2" xmlns="http://www.w3.org/2000/svg" viewBox="0 0 97 90">
  <g id="Layer_1-2" data-name="Layer 1">
    <g id="WoijHA.tif">
      <path d="m58.31,58.33c-12.51,8.8-26.27,4.66-32.52-3.26-7.87-9.96-7.32-22.77,1.08-31.35,7.98-8.15,21.05-9.26,29.95-3,9.65,6.79,14.04,21.25,4.9,34.35,2.67,2.53,5.41,5.16,8.19,7.75,2.73,2.54,5.5,5.04,8.76,8.03-1.67,1.5-2.75,2.48-4.06,3.66-2.93-2.88-5.64-5.54-8.33-8.21-2.65-2.63-5.27-5.27-7.98-7.98Zm-34.82-18.29c0,11.18,8.93,20.09,20.13,20.09,11.17,0,20.06-8.95,20.04-20.16-.02-11.07-9.23-20.31-20.14-20.21-11.1.11-20.04,9.15-20.03,20.28Z"/>
    </g>
  </g>
</svg>