<svg width="500" height="500" viewBox="0 0 500 500" fill="none" xmlns="http://www.w3.org/2000/svg">
<g clip-path="url(#clip0_9_22)">
<path d="M325.854 361.854C218.851 437.124 101.157 401.713 47.6983 333.97C-19.6167 248.779 -14.9124 139.21 56.9359 65.8223C125.192 -3.88764 236.984 -13.3819 313.109 40.1622C395.649 98.2395 433.198 221.921 355.021 333.97C377.858 355.61 401.294 378.106 425.073 400.259C448.423 421.984 472.116 443.368 500 468.942C485.716 481.772 476.478 490.155 465.273 500.248C440.212 475.614 417.032 452.862 394.024 430.024C371.357 407.529 348.948 384.948 325.768 361.769L325.854 361.854ZM28.0255 205.413C28.0255 301.04 104.407 377.25 200.205 377.25C295.746 377.25 371.785 300.698 371.614 204.814C371.443 110.129 292.667 31.0956 199.349 31.951C104.407 32.8918 27.94 110.214 28.0255 205.413Z" fill="black"/>
</g>
<defs>
<clipPath id="clip0_9_22">
<rect width="500" height="500" fill="white"/>
</clipPath>
</defs>
</svg>
