<?xml version="1.0" encoding="UTF-8"?>
<svg id="Layer_2" data-name="Layer 2" xmlns="http://www.w3.org/2000/svg" viewBox="0 0 212.56 212.56">
  <g id="Layer_1-2" data-name="Layer 1">
    <g>
      <path d="m111.81,145.58c-1.03,2.96-.33,4.63,2.06,5.98,7.69,4.33,7.55,16.43-.03,21.1-4.78,2.94-9.69,2.86-14.8-.81-3.66-2.62-5.64-8.43-4.25-13.01.94-3.12,2.17-6.23,5.52-7.54,2.51-.98,2.97-2.7,2.32-5.4-1.09-.1-2.32-.31-3.54-.31-9.7-.03-19.41,0-29.11-.02-5.9-.01-8.28-2.26-8.4-8.11-.11-5.5-.11-11,0-16.5.11-5.57,2.92-8.34,8.36-8.34,24.75-.02,49.49-.02,74.24,0,5.6,0,8.17,2.6,8.22,8.29.05,5.66.05,11.32,0,16.98-.05,5.08-2.63,7.64-7.74,7.67-9.38.04-18.76.01-28.14.01-1.58,0-3.16,0-4.7,0Zm-4.76-3.93c11.95,0,23.9.05,35.85-.03,4.39-.03,5.49-1.18,5.57-5.47.08-4.36.06-8.72,0-13.08-.06-5.15-1.42-6.5-6.72-6.5-23.09-.02-46.18-.02-69.28,0-5.65,0-6.56.88-6.64,6.37-.06,4.2-.06,8.4,0,12.6.07,5.28.9,6.09,6.33,6.11,11.63.03,23.25.01,34.88,0Zm-8.16,20.25c-.07,4.72,2.99,8.07,7.56,8.27,4.6.2,8.93-3.84,8.88-8.28-.05-4.01-3.98-7.95-8.08-8.1-4.63-.17-8.28,3.38-8.36,8.11Z"/>
      <path d="m107.03,39.73c12.29,0,24.59.23,36.87-.11,5.28-.14,8.98,3.01,8.58,8.44-.39,5.31-.05,10.67-.09,16.01-.05,6.04-2.56,8.63-8.45,8.63-24.58.02-49.17.02-73.75,0-5.74,0-8.54-2.77-8.63-8.58-.08-5.34.06-10.68-.04-16.01-.1-5.27,3.08-8.66,8.64-8.49,12.28.37,24.58.12,36.87.12Zm.18,3.93c-11.95,0-23.9-.03-35.85.02-4.51.02-5.41.87-5.51,5.35-.11,4.84-.11,9.69.02,14.53.1,3.58,1.22,4.74,4.52,5.07,1.28.13,2.58.06,3.87.06,17.12,0,34.23,0,51.35,0,5.81,0,11.63.07,17.44-.03,3.67-.07,5.3-1.7,5.4-5.34.12-4.2-.1-8.4.07-12.59.22-5.64-1.23-7.21-6.91-7.12-11.46.19-22.93.06-34.39.06Z"/>
      <path d="m107.26,76.74c12.44,0,24.89,0,37.33,0,1.95,0,3.78.04,5.41,1.52,1.54,1.4,2.45,2.85,2.43,4.99-.07,6.3.05,12.61-.05,18.91-.06,3.57-2.49,6-5.99,6.36-.8.08-1.61.04-2.42.04-24.56,0-49.13.02-73.69-.04-1.72,0-3.57-.24-5.13-.9-2.43-1.04-3.51-3.28-3.54-5.88-.06-5.98-.15-11.96.02-17.94.13-4.73,2.6-7.03,7.35-7.05,12.77-.05,25.53-.02,38.3-.02Zm-.01,27.74c10.99,0,21.97,0,32.96,0,1.45,0,2.93.04,4.35-.2,2.9-.51,3.85-1.58,3.9-4.54.08-4.85.09-9.7-.01-14.54-.06-2.65-1.14-3.87-3.66-4.28-1.42-.23-2.9-.16-4.35-.16-22.3,0-44.59,0-66.89,0-.81,0-1.62-.03-2.42.01-4.21.19-5.18,1.07-5.26,5.18-.09,4.36-.07,8.73,0,13.09.06,4.18.92,5.06,5.05,5.4,1.28.11,2.58.05,3.88.05,10.83,0,21.65,0,32.48,0Z"/>
      <path d="m144.61,166.14c-5.33,0-10.66,0-15.99,0-1.13,0-2.29.08-3.37-.18-1.95-.46-3.02-1.77-2.92-3.86.1-2.02,1.1-3.34,3.08-3.79.77-.17,1.61-.12,2.41-.12,11.46,0,22.93-.02,34.39.02,1.09,0,2.6-.01,3.17.63.96,1.1,1.87,2.75,1.79,4.11-.11,1.83-1.61,3.11-3.68,3.16-1.94.05-3.87.03-5.81.03-4.36,0-8.72,0-13.08,0Z"/>
      <path d="m68.89,166.13c-5.97,0-11.94,0-17.91,0-1.98,0-3.67-.82-3.97-2.8-.19-1.27.16-3.17,1.01-3.89,1.06-.9,2.9-1.19,4.41-1.2,10-.1,20-.05,30.01-.05,1.61,0,3.23-.06,4.84.02,2.62.14,4.27,1.85,4.19,4.22-.07,2.18-1.55,3.64-4.19,3.69-6.13.1-12.26.03-18.39.03Z"/>
      <path d="m137.26,121.93c4.6.04,7.61,2.98,7.59,7.39-.02,4.51-3.46,7.79-8.05,7.67-4.3-.11-7.64-3.43-7.67-7.62-.03-4.47,3.26-7.48,8.13-7.43Zm0,10.43c1.84-.03,2.99-1.2,2.93-2.97-.07-1.98-1.45-3.34-3.31-3.24-1.5.08-2.99,1.58-3.07,3.08-.09,1.71,1.51,3.16,3.45,3.13Z"/>
      <path d="m137.08,63.82c-4.38,0-8.01-3.61-7.95-7.94.05-4.1,3.63-7.59,7.82-7.63,4.25-.05,7.79,3.32,7.9,7.53.12,4.51-3.29,8.04-7.77,8.05Zm3.19-7.65c.11-1.8-.97-3-2.85-3.16-1.99-.17-3.64,1.15-3.68,2.94-.03,1.42,1.53,3.17,2.95,3.31,1.87.18,3.46-1.19,3.58-3.09Z"/>
      <path d="m136.97,100.19c-4.75-.06-7.96-3.28-7.83-7.85.13-4.22,3.46-7.28,7.95-7.3,4.69-.02,7.94,3.28,7.78,7.89-.16,4.44-3.29,7.32-7.9,7.26Zm-3.59-7.52c1.18,1.81,2.05,4.19,4.64,3.14,1.03-.42,2.11-2.17,2.08-3.28-.03-1.08-1.26-2.67-2.33-3.06-2.31-.85-3.28,1.16-4.39,3.2Z"/>
    </g>
  </g>
</svg>