<svg width="500" height="500" viewBox="0 0 500 500" fill="none" xmlns="http://www.w3.org/2000/svg">
<g clip-path="url(#clip0_9_52)">
<path d="M267.453 392.086C263.642 403.039 266.232 409.218 275.075 414.213C303.529 430.234 303.011 475.006 274.964 492.285C257.278 503.163 239.11 502.867 220.203 489.288C206.66 479.594 199.334 458.096 204.477 441.15C207.955 429.605 212.507 418.098 224.902 413.251C234.189 409.625 235.891 403.261 233.486 393.27C229.453 392.9 224.902 392.123 220.388 392.123C184.497 392.012 148.569 392.123 112.678 392.049C90.847 392.012 82.0408 383.687 81.5968 362.041C81.1898 341.691 81.1898 321.34 81.5968 300.99C82.0038 280.38 92.4011 270.131 112.53 270.131C204.107 270.057 295.648 270.057 387.226 270.131C407.946 270.131 417.455 279.751 417.64 300.805C417.825 321.747 417.825 342.69 417.64 363.632C417.455 382.429 407.909 391.901 389.002 392.012C354.295 392.16 319.588 392.049 284.881 392.049C279.034 392.049 273.188 392.049 267.49 392.049L267.453 392.086ZM249.841 377.545C294.057 377.545 338.273 377.73 382.489 377.434C398.733 377.323 402.803 373.068 403.099 357.194C403.395 341.062 403.321 324.929 403.099 308.797C402.877 289.741 397.845 284.746 378.234 284.746C292.799 284.672 207.363 284.672 121.891 284.746C100.985 284.746 97.6182 288.002 97.3222 308.316C97.1002 323.856 97.1002 339.397 97.3222 354.937C97.5812 374.474 100.652 377.471 120.744 377.545C163.776 377.656 206.771 377.582 249.804 377.545H249.841ZM219.648 452.472C219.389 469.936 230.711 482.332 247.621 483.072C264.641 483.812 280.663 468.863 280.478 452.435C280.293 437.598 265.751 423.019 250.581 422.464C233.449 421.835 219.944 434.97 219.648 452.472Z" fill="black"/>
<path d="M249.767 0.429627C295.241 0.429627 340.752 1.28065 386.19 0.0226134C405.726 -0.495402 419.417 11.1599 417.937 31.2515C416.494 50.8991 417.752 70.7317 417.604 90.4902C417.419 112.839 408.131 122.422 386.338 122.422C295.389 122.496 204.404 122.496 113.455 122.422C92.2163 122.422 81.8559 112.173 81.5229 90.6753C81.2269 70.9167 81.7449 51.1581 81.3749 31.4365C81.0049 11.937 92.7713 -0.606405 113.344 0.0226134C158.781 1.39165 204.292 0.466636 249.767 0.466636V0.429627ZM250.433 14.9711C206.217 14.9711 162 14.8601 117.784 15.0451C101.096 15.1191 97.7664 18.2641 97.3964 34.8406C96.9894 52.7491 96.9894 70.6947 97.4704 88.6032C97.8404 101.85 101.985 106.142 114.195 107.363C118.931 107.844 123.741 107.585 128.514 107.585C191.86 107.585 255.169 107.585 318.515 107.585C340.012 107.585 361.547 107.844 383.045 107.474C396.624 107.215 402.655 101.184 403.025 87.7152C403.469 72.1747 402.655 56.6343 403.284 41.1308C404.098 20.2622 398.733 14.453 377.717 14.786C335.313 15.4891 292.873 15.008 250.47 15.008L250.433 14.9711Z" fill="black"/>
<path d="M250.618 137.372C296.647 137.372 342.714 137.372 388.743 137.372C395.958 137.372 402.729 137.52 408.761 142.996C414.459 148.176 417.826 153.541 417.752 161.459C417.493 184.77 417.937 208.118 417.567 231.429C417.345 244.638 408.354 253.629 395.403 254.961C392.443 255.257 389.446 255.109 386.449 255.109C295.574 255.109 204.663 255.183 113.788 254.961C107.424 254.961 100.579 254.073 94.8064 251.631C85.8152 247.783 81.8191 239.495 81.7081 229.874C81.486 207.748 81.153 185.621 81.7821 163.495C82.2631 145.993 91.4023 137.483 108.978 137.409C156.228 137.224 203.442 137.335 250.692 137.335L250.618 137.372ZM250.581 240.013C291.245 240.013 331.872 240.013 372.537 240.013C377.902 240.013 383.378 240.161 388.632 239.273C399.362 237.386 402.877 233.427 403.062 222.474C403.358 204.529 403.395 186.583 403.025 168.675C402.803 158.869 398.807 154.355 389.483 152.838C384.229 151.987 378.753 152.246 373.388 152.246C290.875 152.246 208.4 152.246 125.887 152.246C122.89 152.246 119.893 152.135 116.933 152.283C101.356 152.986 97.7665 156.242 97.4705 171.45C97.1375 187.582 97.2115 203.752 97.4705 219.884C97.6925 235.351 100.875 238.607 116.156 239.865C120.892 240.272 125.702 240.05 130.512 240.05C170.585 240.05 210.62 240.05 250.692 240.05L250.581 240.013Z" fill="black"/>
<path d="M388.817 468.161C369.095 468.161 349.374 468.161 329.652 468.161C325.471 468.161 321.179 468.457 317.183 467.495C309.967 465.793 306.008 460.946 306.378 453.213C306.748 445.738 310.448 440.854 317.775 439.189C320.624 438.56 323.732 438.745 326.692 438.745C369.095 438.745 411.535 438.671 453.939 438.819C457.972 438.819 463.559 438.782 465.668 441.15C469.22 445.22 472.587 451.325 472.291 456.358C471.884 463.129 466.334 467.865 458.675 468.05C451.497 468.235 444.355 468.161 437.177 468.161C421.045 468.161 404.912 468.161 388.78 468.161H388.817Z" fill="black"/>
<path d="M108.645 468.124C86.555 468.124 64.4654 468.124 42.3758 468.124C35.0496 468.124 28.7964 465.09 27.6863 457.763C26.9833 453.064 28.2784 446.034 31.4234 443.37C35.3456 440.04 42.1538 438.967 47.7409 438.93C84.742 438.56 121.743 438.745 158.781 438.745C164.738 438.745 170.732 438.523 176.69 438.819C186.384 439.337 192.489 445.664 192.193 454.433C191.934 462.5 186.458 467.902 176.69 468.087C154.008 468.457 131.326 468.198 108.645 468.198V468.124Z" fill="black"/>
<path d="M361.621 304.579C378.642 304.727 389.779 315.605 389.705 331.923C389.631 348.61 376.903 360.747 359.919 360.303C344.009 359.896 331.65 347.611 331.539 332.108C331.428 315.568 343.602 304.431 361.621 304.616V304.579ZM361.621 343.171C368.429 343.06 372.685 338.731 372.463 332.182C372.203 324.856 367.097 319.824 360.215 320.194C354.665 320.49 349.152 326.04 348.856 331.59C348.523 337.917 354.443 343.282 361.621 343.171Z" fill="black"/>
<path d="M360.955 89.5658C344.749 89.5658 331.317 76.2084 331.539 60.187C331.724 45.0165 344.971 32.1032 360.474 31.9552C376.2 31.7702 389.298 44.2395 389.705 59.817C390.149 76.5044 377.532 89.5658 360.955 89.6028V89.5658ZM372.759 61.26C373.166 54.5998 369.169 50.1597 362.213 49.5677C354.85 48.9386 348.745 53.8228 348.597 60.446C348.486 65.7001 354.258 72.1753 359.512 72.6933C366.431 73.3593 372.315 68.2902 372.759 61.26Z" fill="black"/>
<path d="M360.548 224.138C342.972 223.916 331.095 212.002 331.576 195.092C332.057 179.478 344.378 168.155 360.992 168.081C378.345 168.007 390.371 180.218 389.779 197.275C389.187 213.704 377.605 224.36 360.548 224.138ZM347.264 196.313C351.63 203.01 354.85 211.817 364.433 207.932C368.244 206.377 372.24 199.902 372.129 195.795C372.018 191.799 367.467 185.916 363.508 184.473C354.961 181.328 351.371 188.765 347.264 196.313Z" fill="black"/>
</g>
<defs>
<clipPath id="clip0_9_52">
<rect width="500" height="500" fill="white"/>
</clipPath>
</defs>
</svg>
