<svg width="99" height="109" viewBox="0 0 99 109" fill="none" xmlns="http://www.w3.org/2000/svg">
<path d="M66.06 46.48H70.4C70.29 52.17 70.97 57.77 70.08 63.26C68.94 70.3 64.94 75.64 58.66 79C56.08 80.38 53.13 81.1 49.95 82.26C49.61 85.53 49.77 89.22 49.91 93.2H60.88V97.03H34.31V93.32H45.37V81.97C43.4 81.41 41.53 81.02 39.76 80.36C31.82 77.41 27.06 71.65 25.14 63.46C25.08 63.22 25.05 62.97 25.05 62.72C25.05 57.4 25.05 52.07 25.05 46.53H28.94C29 47.22 29.11 47.94 29.11 48.66C29.13 51.83 29.09 54.99 29.13 58.16C29.21 64.55 31.23 70.1 36.46 74.08C42.46 78.65 49.83 79.43 56.55 75.59C62.74 72.06 65.87 66.59 66.03 59.46C66.1 56.05 66.06 52.63 66.07 49.21C66.07 48.39 66.07 47.57 66.07 46.45L66.06 46.48Z" fill="black"/>
<path d="M33.5 46.84C33.5 42.59 33.73 38.33 33.45 34.11C33.02 27.65 38.93 20.14 47.22 20.05C54.32 19.97 60 24.18 61.74 31.53C61.89 32.17 61.88 32.85 61.88 33.51C61.88 42.33 61.91 51.16 61.88 59.98C61.85 67.46 55.31 73.3 48.68 73.65C41.28 74.04 35.48 69.28 33.89 63.27C33.64 62.32 33.53 61.31 33.52 60.33C33.48 55.83 33.5 51.34 33.5 46.84ZM37.02 46.74C37.02 46.74 37.03 46.74 37.04 46.74C37.04 51.24 36.82 55.74 37.09 60.22C37.51 67.15 44.57 71.57 50.64 69.56C55.6 67.91 58.18 64.46 58.32 58.83C58.51 50.84 58.46 42.84 58.3 34.85C58.26 32.92 57.79 30.79 56.85 29.13C53.91 23.97 49.91 23.15 44.72 24.11C40.37 24.91 36.92 29.99 37.01 34C37.11 38.24 37.03 42.49 37.03 46.74H37.02Z" fill="black"/>
<path d="M38.18 40.93C39.35 39.84 40.01 39.23 40.92 38.39C43.13 40.52 45.3 42.6 47.66 44.88C49.96 42.66 52.08 40.61 54.65 38.12C55.32 38.92 55.93 39.65 56.68 40.53C54.44 42.84 52.39 44.96 50.09 47.34C52.29 49.59 54.35 51.7 56.6 54C55.83 54.84 55.14 55.6 54.18 56.66C51.97 54.35 49.93 52.2 47.63 49.8C45.36 52.01 43.14 54.17 40.86 56.39C40.12 55.59 39.51 54.93 38.7 54.06C40.79 51.9 42.93 49.68 45.27 47.26C42.88 45.12 40.67 43.15 38.18 40.93Z" fill="#EC4E3E"/>
</svg>
