<svg width="296" height="500" viewBox="0 0 296 500" fill="none" xmlns="http://www.w3.org/2000/svg">
<path d="M266.367 171.669H294.557C293.842 208.627 298.259 244.999 292.478 280.658C285.074 326.384 259.092 361.069 218.303 382.892C201.545 391.856 182.385 396.532 161.73 404.067C159.522 425.306 160.561 449.272 161.47 475.123H232.723V500H60.1459V475.903H131.982V402.183C119.186 398.546 107.04 396.013 95.5439 391.726C43.9723 372.565 13.0553 335.152 0.584566 281.957C0.194856 280.398 0 278.775 0 277.151C0 242.597 0 207.977 0 171.994H25.2669C25.6566 176.475 26.371 181.152 26.371 185.829C26.5009 206.419 26.2405 226.943 26.5003 247.533C27.0199 289.037 40.1401 325.085 74.1099 350.936C113.081 380.619 160.95 385.685 204.598 360.743C244.803 337.815 265.133 302.287 266.172 255.976C266.627 233.828 266.367 211.614 266.432 189.401C266.432 184.075 266.432 178.749 266.432 171.475L266.367 171.669Z" fill="black"/>
<path d="M54.8843 174.013C54.8843 146.408 56.3782 118.739 54.5595 91.3294C51.7666 49.3706 90.1531 0.591839 143.998 0.00727339C190.114 -0.51234 227.006 26.8323 238.308 74.5718C239.282 78.7287 239.217 83.1454 239.217 87.4322C239.217 144.72 239.412 202.073 239.217 259.359C239.022 307.943 196.544 345.876 153.481 348.149C105.417 350.682 67.7447 319.765 57.4174 280.729C55.7936 274.559 55.0791 267.999 55.0142 261.633C54.7544 232.405 54.8843 203.241 54.8843 174.013ZM77.7473 173.364C77.7473 173.364 77.8122 173.364 77.8772 173.364C77.8772 202.592 76.4482 231.821 78.2019 260.919C80.9299 305.93 126.786 334.638 166.211 321.583C198.428 310.866 215.185 288.458 216.094 251.891C217.328 199.994 217.004 148.032 215.964 96.1358C215.705 83.6001 212.652 69.7654 206.546 58.9834C187.451 25.4683 161.47 20.1423 127.76 26.3777C99.5061 31.5738 77.0978 64.5693 77.6823 90.6149C78.3318 118.154 77.8122 145.76 77.8122 173.364H77.7473Z" fill="black"/>
<path d="M85.2812 135.621C92.8805 128.541 97.1673 124.579 103.078 119.123C117.432 132.958 131.527 146.468 146.855 161.277C161.794 146.857 175.564 133.542 192.257 117.369C196.608 122.565 200.57 127.307 205.442 133.022C190.893 148.026 177.578 161.796 162.639 177.255C176.928 191.869 190.308 205.574 204.922 220.512C199.921 225.968 195.439 230.905 189.204 237.79C174.85 222.786 161.599 208.821 146.661 193.233C131.917 207.587 117.497 221.617 102.688 236.036C97.8818 230.84 93.9198 226.553 88.6587 220.902C102.234 206.873 116.133 192.453 131.332 176.735C115.808 162.835 101.454 150.04 85.2812 135.621Z" fill="#EC4E3E"/>
</svg>
