<svg width="136" height="168" viewBox="0 0 136 168" fill="none" xmlns="http://www.w3.org/2000/svg">
<path d="M30.29 60.7598H36.94C36.94 61.7898 36.94 62.6798 36.94 63.5598C36.94 69.0398 36.9 74.5198 36.94 79.9998C37.06 92.7198 42.55 102.39 53.91 108.17C60.1 111.32 66.8 111.85 73.76 110.04C81.84 107.94 87.72 103.26 91.91 96.2698C94.28 92.3198 95.84 87.9898 95.97 83.3898C96.18 75.9398 96.03 68.4698 96.03 60.8198H102.47C102.57 61.1198 102.76 61.4198 102.76 61.7198C102.77 69.7698 103.33 77.8798 102.61 85.8698C101.76 95.1898 97.27 102.89 89.82 108.9C85.43 112.45 80.47 114.55 75.3 116.39C74.84 116.55 74.32 116.56 73.83 116.6C71.19 116.82 69.87 118.29 69.87 121.01C69.87 125 69.93 128.98 69.84 132.97C69.8 134.79 70.45 135.5 72.3 135.47C76.53 135.39 80.77 135.58 84.99 135.4C87.48 135.29 88.56 136.02 88.16 138.59C88.02 139.47 88.14 140.4 88.14 141.54H45.29C45.14 141.35 45.06 141.29 45.05 141.22C44.6033 137.366 46.3167 135.44 50.19 135.44C53.76 135.44 57.33 135.39 60.89 135.46C62.58 135.49 63.27 134.87 63.24 133.13C63.16 128.48 63.2 123.83 63.22 119.18C63.22 117.72 62.73 116.91 61.15 116.69C48.66 114.94 39.63 108.22 33.78 97.1898C31.38 92.6698 30.18 87.7798 30.27 82.5798C30.38 76.2698 30.3 69.9598 30.3 63.6498C30.3 62.7598 30.3 61.8598 30.3 60.7698L30.29 60.7598Z" fill="black"/>
<path d="M43.85 61.1297C43.85 54.3197 44.16 47.4997 43.77 40.7097C43.25 31.5697 50.77 22.1997 58.22 19.8497C71.09 15.7897 82.25 20.4097 87.86 32.4697C88.79 34.4697 89.11 36.9197 89.12 39.1597C89.23 53.1897 89.01 67.2197 89.24 81.2497C89.38 89.2797 86.09 95.5797 79.91 100.02C74.01 104.26 67.19 105.5 59.91 103.24C53.06 101.12 48.35 96.7597 45.45 90.3897C44.56 88.4297 43.97 86.1697 43.92 84.0297C43.74 76.3997 43.85 68.7597 43.85 61.1197V61.1297ZM83.64 61.2797C83.64 61.2797 83.61 61.2797 83.6 61.2797C83.6 54.5497 83.6 47.8197 83.6 41.0897C83.61 32.5997 76.11 24.0497 66.25 24.2097C57.39 24.3497 49.68 31.9497 49.55 40.4097C49.36 53.1197 49.47 65.8297 49.4 78.5397C49.38 82.2897 49.99 85.7797 51.62 89.2697C55.09 96.6897 65.56 100.75 73.54 96.7997C80.4 93.3997 83.55 87.7397 83.62 80.2297C83.67 73.9197 83.63 67.5997 83.63 61.2897L83.64 61.2797Z" fill="black"/>
</svg>
