<svg width="500" height="500" viewBox="0 0 500 500" fill="none" xmlns="http://www.w3.org/2000/svg">
<mask id="mask0_19_60" style="mask-type:luminance" maskUnits="userSpaceOnUse" x="0" y="197" width="500" height="107">
<path d="M500 197H0V303.383H500V197Z" fill="white"/>
</mask>
<g mask="url(#mask0_19_60)">
<path d="M53.1915 292.745C76.6931 292.745 95.7447 273.693 95.7447 250.191C95.7447 226.69 76.6931 207.638 53.1915 207.638C29.69 207.638 10.6383 226.69 10.6383 250.191C10.6383 273.693 29.69 292.745 53.1915 292.745Z" stroke="black" stroke-width="20"/>
<path d="M250 292.745C273.502 292.745 292.553 273.693 292.553 250.191C292.553 226.69 273.502 207.638 250 207.638C226.498 207.638 207.447 226.69 207.447 250.191C207.447 273.693 226.498 292.745 250 292.745Z" stroke="black" stroke-width="20"/>
<path d="M446.809 292.745C470.31 292.745 489.362 273.693 489.362 250.191C489.362 226.69 470.31 207.638 446.809 207.638C423.307 207.638 404.255 226.69 404.255 250.191C404.255 273.693 423.307 292.745 446.809 292.745Z" stroke="black" stroke-width="20"/>
</g>
</svg>
