<svg width="500" height="500" viewBox="0 0 500 500" fill="none" xmlns="http://www.w3.org/2000/svg">
<g clip-path="url(#clip0_17_134)">
<path d="M215.501 193.2C215.501 191.743 215.589 190.279 216.034 188.892C218.512 181.158 227.956 168.946 250.979 168.946C276.245 168.946 282.85 183.656 282.995 191.011V238.357C282.995 241.38 282.548 244.467 280.713 246.869C276.567 252.293 267.364 258.937 250.979 258.937C235.846 258.937 225.614 253.27 219.948 248.13C216.617 245.109 215.501 240.555 215.501 236.058V193.2Z" fill="black"/>
<path d="M257.468 96.6931C252.853 81.4062 257.382 50.8323 312.415 50.8323C344.258 53.9474 338.085 23.5754 331.019 8M250.979 124.383C182.679 124.383 148.668 162.505 136.322 189.475C132.809 197.15 132 205.666 132 214.107V394.165C132 405.177 133.522 416.275 138.776 425.953C154.301 454.544 190.091 493 250.979 493C312.536 493 347.406 453.693 361.896 425.013C366.503 415.895 367.794 405.598 367.794 395.382V212.762C367.794 205.208 367.161 197.582 364.28 190.599C353.132 163.578 320.233 124.383 250.979 124.383ZM250.979 168.946C227.956 168.946 218.512 181.158 216.034 188.892C215.589 190.279 215.501 191.743 215.501 193.2V236.058C215.501 240.555 216.617 245.109 219.948 248.13C225.614 253.27 235.846 258.937 250.979 258.937C267.364 258.937 276.567 252.293 280.713 246.869C282.548 244.467 282.995 241.38 282.995 238.357V191.011C282.85 183.656 276.245 168.946 250.979 168.946Z" stroke="black" stroke-width="15" stroke-linecap="round"/>
</g>
<defs>
<clipPath id="clip0_17_134">
<rect width="500" height="500" fill="white"/>
</clipPath>
</defs>
</svg>
