<svg width="500" height="500" viewBox="0 0 500 500" fill="none" xmlns="http://www.w3.org/2000/svg">
<g clip-path="url(#clip0_7_277)">
<path opacity="0.976" fill-rule="evenodd" clip-rule="evenodd" d="M305.979 193.84C322.521 189.918 333.205 196.038 338.032 212.201C338.964 217.246 338.439 222.141 336.459 226.885C335.11 230.435 333.587 233.905 331.891 237.296C331.292 238.62 331.096 239.935 331.306 241.241C343.28 237.401 355.324 233.677 367.436 230.068C373.573 228.559 379.784 227.464 386.067 226.783C389.449 226.447 392.785 226.606 396.076 227.259C398.828 232.458 400.02 238.011 399.654 243.917C398.051 254.579 396.077 265.172 393.731 275.698C393.054 280.443 393.547 285.052 395.209 289.524C398.875 287.508 402.048 284.921 404.726 281.763C407.125 277.818 409.525 273.873 411.924 269.928C412.621 253.235 417.506 237.966 426.579 224.122C436.044 213.4 447.625 210.078 461.32 214.154C468.341 219.305 471.811 226.27 471.729 235.051C468.732 253.705 458.167 265.814 440.034 271.375C441.265 281.765 446.775 285.169 456.562 281.588C463.898 278.019 470.316 273.259 475.815 267.307C479.55 260.679 483.532 254.214 487.763 247.911C493.446 246.153 496.283 248.321 496.274 254.415C496.095 259.633 494.828 264.551 492.473 269.172C484.523 285.451 472.491 297.712 456.376 305.953C448.865 308.897 441.133 309.834 433.179 308.763C425.294 306.268 419.803 301.153 416.706 293.418C411.187 298.706 406.109 304.403 401.471 310.512C396.747 315.771 390.957 319.247 384.099 320.939C373.349 322.847 367.018 318.414 365.106 307.639C364.421 301.02 364.429 294.401 365.127 287.785C366.854 276.139 368.316 264.461 369.515 252.753C368.591 251.805 367.446 251.367 366.081 251.438C363.958 251.522 361.832 251.577 359.707 251.601C352.45 253.915 345.144 256.057 337.788 258.027C341.018 260.56 344.323 262.966 347.705 265.244C354.866 275.182 358.323 286.313 358.075 298.633C357.614 321.129 350.841 341.426 337.756 359.526C330.475 368.579 321.013 373.022 309.37 372.856C302.74 372.058 298.369 368.454 296.257 362.041C294.808 356.717 294.066 351.298 294.031 345.785C294.372 336.71 295.36 327.785 296.994 319.009C292.437 324.222 287.662 329.226 282.672 334.02C277.732 338.661 272.008 341.911 265.501 343.772C252.454 344.343 245.795 338.046 245.522 324.883C246.432 314.668 247.737 304.513 249.435 294.417C248.91 292.049 247.546 290.368 245.345 289.376C244.107 289.139 243.23 289.613 242.714 290.8C237.534 303.38 231.809 315.702 225.54 327.766C220.022 337.296 212.471 344.71 202.888 350.01C189.219 356.113 181.317 351.849 179.182 337.221C174.123 348.28 166.341 356.802 155.836 362.788C150.032 365.033 145.027 363.887 140.822 359.353C138.836 354.876 137.272 350.242 136.13 345.452C130.476 352.57 124.405 359.296 117.917 365.633C113.84 369.537 109.078 372.19 103.633 373.594C96.0978 374.486 90.4726 371.636 86.7572 365.044C85.686 361.391 85.0289 357.664 84.7861 353.865C86.2328 343.658 88.0731 333.515 90.3064 323.437C90.583 320.666 90.419 317.919 89.8144 315.199C82.4923 318.003 77.9801 323.281 76.2778 331.033C75.4048 335.56 74.9292 340.126 74.8513 344.731C75.0197 354.275 75.4202 363.81 76.0528 373.335C69.6634 377.286 62.8809 378.162 55.7052 375.962C52.6179 373.757 50.4995 370.822 49.3502 367.157C47.5947 360.572 46.8407 353.875 47.0881 347.065C47.7373 338.586 48.4873 330.13 49.3383 321.696C42.5217 324.299 38.5941 329.261 37.5553 336.58C36.6493 341.935 36.3197 347.329 36.5667 352.763C37.0793 361.013 37.5713 369.251 38.0427 377.475C29.1925 382.984 21.0283 382.076 13.5497 374.75C11.956 372.76 10.5195 370.665 9.24006 368.467C7.84051 362.951 6.85498 357.361 6.28347 351.699C7.35145 346.085 7.95495 340.429 8.09407 334.731C2.97576 325.606 2.50833 316.297 6.69155 306.804C13.4785 296.965 22.8674 292.108 34.8582 292.232C36.4874 294.46 37.4612 296.956 37.7796 299.721C38.3313 304.353 38.3915 308.931 37.9603 313.457C41.4475 304.069 46.709 295.777 53.7447 288.582C58.3869 285.101 63.5254 283.982 69.1609 285.223C72.8219 286.706 75.1105 289.398 76.0274 293.297C77.0319 298.576 77.3235 303.862 76.9019 309.151C80.3267 302.965 83.4816 296.646 86.3658 290.194C89.3795 284.628 93.6418 280.355 99.1531 277.373C110.967 273.578 118.315 277.725 121.197 289.815C121.818 295.509 121.421 301.129 120.008 306.673C116.591 316.51 114.093 326.556 112.515 336.81C112.502 339.16 112.904 341.437 113.719 343.641C117.228 342.034 120.37 339.879 123.145 337.176C128.471 329.573 133.27 321.683 137.541 313.507C132.759 298.626 135.537 285.33 145.875 273.617C152.565 266.937 160.608 264.132 170.005 265.201C172.662 272.106 172.935 279.102 170.824 286.187C169.281 291.046 167.564 295.831 165.671 300.543C162.024 309.48 161.797 318.485 164.991 327.557C172.763 325.128 177.725 319.984 179.88 312.125C180.823 308.027 181.372 303.875 181.525 299.668C180.906 287.085 180.822 274.506 181.275 261.933C187.835 258.694 194.654 258.025 201.732 259.926C206.189 262.589 208.593 266.541 208.945 271.781C209.723 277.323 209.74 282.869 208.997 288.421C206.903 300.053 205.008 311.7 203.312 323.361C208.156 322.109 212.192 319.582 215.423 315.783C218.625 311.213 221.292 306.367 223.425 301.245C225.037 296.098 226.925 291.069 229.089 286.159C228.075 283.062 226.991 279.945 225.839 276.807C225.467 261.6 231.435 249.449 243.744 240.352C248.369 237.432 253.337 236.556 258.649 237.724C266.651 243.653 266.358 249.255 257.77 254.528C256.436 255.877 255.742 257.387 255.687 259.057C256.61 259.886 257.669 260.446 258.865 260.738C263.447 261.522 268.049 262.204 272.673 262.786C274.939 263.282 276.936 264.318 278.663 265.891C279.785 269.573 280.236 273.335 280.013 277.179C277.844 285.459 275.676 293.739 273.507 302.019C273.135 306.334 273.761 310.492 275.387 314.494C288.62 306.87 296.981 295.577 300.47 280.616C301.197 276.614 301.661 272.583 301.859 268.525C301.685 267.847 301.368 267.262 300.91 266.771C296.592 266.496 294.791 264.145 295.504 259.72C295.777 255.051 297.781 251.283 301.515 248.415C301.631 247.861 301.747 247.307 301.862 246.753C301.383 236.505 300.751 226.264 299.967 216.031C299.623 209.302 300.495 202.745 302.582 196.36C303.647 195.339 304.779 194.499 305.979 193.84ZM443.326 235.576C444.946 235.322 446.401 235.706 447.692 236.728C450.656 245.901 447.745 252.391 438.958 256.197C438.257 250.488 438.757 244.85 440.458 239.284C441.324 237.913 442.28 236.677 443.326 235.576ZM327.703 277.095C329.265 277.28 330.379 278.15 331.045 279.707C339.844 298.847 339.574 317.891 330.234 336.84C328.522 339.163 326.537 341.22 324.278 343.013C323.782 339.419 323.783 335.79 324.28 332.127C325.644 319.757 326.876 307.373 327.975 294.976C328.368 289.003 328.277 283.042 327.703 277.095Z" fill="black"/>
</g>
<defs>
<clipPath id="clip0_7_277">
<rect width="500" height="500" fill="white"/>
</clipPath>
</defs>
</svg>
