<svg width="100" height="76" viewBox="0 0 100 76" fill="none" xmlns="http://www.w3.org/2000/svg">
<path d="M49.5 0C64.4 10.23 79.3 20.46 94.2 30.69C95.4 31.51 96.56 32.38 98.3 33.62C81.68 44.88 65.45 55.89 48.46 67.41V46.78C33.82 41.63 17.19 51.37 1.78 73.67C-1.98 46.22 9.12 21.42 48.51 21.45V0C48.84 0 49.17 0 49.5 0ZM7.92 55.37C20.47 42.03 36.1 39.32 53.56 40.81V57.43C65.56 49.29 76.88 41.62 88.77 33.56C76.84 25.47 65.52 17.8 53.3 9.52V25.06C42.91 27.38 32.99 28.49 23.95 31.91C13.87 35.72 9.05 44.64 7.92 55.37Z" fill="black"/>
</svg>
