<svg width="500" height="500" viewBox="0 0 500 500" fill="none" xmlns="http://www.w3.org/2000/svg">
<mask id="mask0_15_200" style="mask-type:luminance" maskUnits="userSpaceOnUse" x="0" y="114" width="500" height="272">
<path d="M500 114.167H0V385.353H500V114.167Z" fill="white"/>
</mask>
<g mask="url(#mask0_15_200)">
<path d="M244.025 114.592C249.915 118.957 255.466 123.914 261.822 127.516C331.186 167.177 400.72 206.584 473.517 247.982C393.898 293.152 316.907 336.838 236.737 382.346V249.762C226.907 255.016 220.381 258.363 213.983 261.965C150.339 298.024 86.7372 334.211 23.0932 370.185C15.8474 374.253 8.17795 377.516 0.677943 381.118C0.677943 296.372 0.63557 211.626 0.805061 126.838C0.762688 121.626 -3.72884 112.05 9.02541 114.592C13.0932 117.94 16.7797 121.923 21.2712 124.508C87.0338 162.007 152.924 199.338 218.813 236.668C223.432 239.296 228.305 241.414 235.636 245.058V114.592C238.432 114.592 241.229 114.592 244.025 114.592ZM192.373 247.855C133.983 214.846 79.9576 184.253 23.983 152.601V343.321C80.5508 311.245 134.534 280.652 192.373 247.855ZM427.373 247.855C369.11 214.889 315.085 184.296 258.898 152.516V343.321C315.466 311.287 369.491 280.652 427.373 247.855Z" fill="black"/>
<path d="M495.805 114.593V379.593C488.263 380.144 482.458 380.568 474.831 381.076V114.593H495.805Z" fill="black"/>
</g>
</svg>
