<svg width="84" height="77" viewBox="0 0 84 77" fill="none" xmlns="http://www.w3.org/2000/svg">
<path d="M23.01 43.7603C22.5 33.0503 32.46 23.0603 43.68 23.4103C55.01 23.7603 63.93 32.5203 63.92 44.0003C63.92 55.2503 54.68 64.4803 43.42 64.4603C31.89 64.4403 22.49 54.6703 23.01 43.7603ZM60.44 43.9603C60.44 34.6203 52.84 26.9903 43.49 26.9803C34.03 26.9703 26.52 34.4303 26.51 43.8703C26.51 53.1903 34.16 60.9503 43.38 60.9803C52.51 61.0103 60.43 53.1103 60.44 43.9703V43.9603Z" fill="black"/>
<path d="M43.13 54.2898C37.23 54.0198 32.71 49.3198 32.9 43.6398C33.1 37.7698 38.11 33.0798 43.84 33.3798C49.67 33.6898 54.21 38.5998 53.88 44.2298C53.52 50.2598 48.93 54.5498 43.13 54.2898Z" fill="black"/>
</svg>
