<svg width="99" height="109" viewBox="0 0 99 109" fill="none" xmlns="http://www.w3.org/2000/svg">
<path d="M52.48 90.4999C44.4 90.4999 36.33 90.5099 28.25 90.4999C24.53 90.4999 22.33 88.3799 22.32 84.6599C22.29 68.3399 22.29 52.0199 22.32 35.6999C22.32 32.0799 24.48 29.9899 28.07 29.9899C44.39 29.9799 60.71 29.9799 77.03 29.9899C80.45 29.9899 82.73 32.1299 82.74 35.5299C82.79 52.0199 82.79 68.4999 82.74 84.9899C82.73 88.3499 80.37 90.4799 76.95 90.4899C68.79 90.5099 60.63 90.4899 52.47 90.4899L52.48 90.4999ZM25.96 59.9899C25.96 67.6499 25.96 75.3199 25.96 82.9799C25.96 86.0699 26.73 86.8899 29.73 86.8899C44.97 86.8999 60.22 86.8999 75.46 86.8899C78.2 86.8899 79.06 86.0499 79.06 83.3099C79.08 67.9799 79.08 52.6599 79.06 37.3299C79.06 34.2999 78.25 33.5499 75.16 33.5499C60.08 33.5499 45.01 33.5499 29.93 33.5499C26.69 33.5499 25.96 34.2699 25.96 37.4999C25.95 44.9999 25.96 52.4899 25.96 59.9899Z" fill="black"/>
<path d="M44.06 80.8799C43.72 76.1599 47.18 73.0799 52.55 73.0899C57.92 73.0899 61.37 76.2099 60.97 80.8799H44.06Z" fill="black"/>
<path d="M40.9 44.4199V67.3299H38.23V44.5399C39.1 44.4999 39.9 44.4599 40.9 44.4199Z" fill="black"/>
<path d="M64.09 67.3596V44.5996H66.83V67.3596H64.09Z" fill="black"/>
</svg>
