<svg width="117" height="129" viewBox="0 0 117 129" fill="none" xmlns="http://www.w3.org/2000/svg">
<path d="M80.13 61.0005H91.63C91.63 62.0505 91.63 62.7905 91.63 63.5205C91.63 76.3005 91.63 89.0705 91.63 101.84C91.63 106.22 88.8 109.02 84.38 109.02C65.56 109.02 46.73 108.91 27.91 109.12C24.2 109.16 20.38 105.39 20.44 101.7C20.64 89.0105 20.52 76.3205 20.52 63.6305C20.52 62.8905 20.52 62.1505 20.52 61.0805H31.98C32.05 59.9005 32.15 59.0305 32.15 58.1605C32.16 51.8605 32.13 45.5505 32.17 39.2505C32.23 29.1905 40.13 19.8505 49.87 17.2605C62.54 13.8905 75.03 21.2805 78.69 32.1605C79.44 34.3905 80 36.7805 80.07 39.1105C80.26 45.4905 80.13 51.8805 80.13 58.2705C80.13 59.0805 80.13 59.8905 80.13 61.0005ZM87.12 65.5405H24.9C24.9 77.2205 24.9 88.6705 24.9 100.12C24.9 103.64 25.91 104.61 29.53 104.62C47.29 104.62 65.04 104.62 82.8 104.62C86.33 104.62 87.23 103.75 87.23 100.26C87.24 89.3905 87.23 78.5105 87.23 67.6405C87.23 66.9905 87.16 66.3305 87.12 65.5505V65.5405ZM75.71 60.8305C75.71 55.9005 75.83 51.1105 75.67 46.3305C75.55 42.5605 75.42 38.7405 74.71 35.0505C73.37 28.0805 65.2 21.4305 58.09 20.9405C46.85 20.1705 37.07 28.4505 36.61 39.9305C36.35 46.5505 36.5 53.1805 36.48 59.8105C36.48 60.1205 36.65 60.4305 36.76 60.8305H75.71Z" fill="black"/>
</svg>
