<svg width="110" height="132" viewBox="0 0 110 132" fill="none" xmlns="http://www.w3.org/2000/svg">
<path d="M15.5 64.0402H26.99C27.04 62.9502 27.12 62.0702 27.12 61.1902C27.13 55.0502 27.15 48.9102 27.12 42.7702C27.06 32.3602 35.07 22.8002 45.07 20.2102C57.3 17.0402 69.74 24.2202 73.67 34.8502C75.46 39.7002 75.08 44.5602 75.09 49.6302H70.69C70.69 47.8002 70.74 45.9302 70.69 44.0602C70.41 35.4602 66.49 29.2802 58.61 25.6102C48.86 21.0702 37.38 26.4702 33.46 35.5602C32.38 38.0702 31.74 40.9402 31.63 43.6702C31.37 50.2902 31.55 56.9302 31.55 63.8702H86.53C86.58 64.9602 86.64 65.7502 86.64 66.5402C86.64 79.3202 86.64 92.1002 86.64 104.88C86.64 109.29 83.83 112.05 79.38 112.05C60.56 112.05 41.73 111.93 22.91 112.15C19.15 112.19 15.37 108.35 15.43 104.74C15.64 92.0502 15.51 79.3502 15.51 66.6502C15.51 65.9202 15.51 65.1902 15.51 64.0302L15.5 64.0402ZM20.2 68.5302C20.09 68.9102 19.96 69.1402 19.96 69.3702C19.94 80.9802 19.92 92.5902 19.96 104.2C19.96 106.44 21.38 107.59 23.9 107.59C42.05 107.6 60.2 107.6 78.35 107.59C81.16 107.59 82.21 106.55 82.21 103.68C82.23 92.5702 82.22 81.4502 82.21 70.3402C82.21 69.7802 82.11 69.2202 82.04 68.5202H20.2V68.5302Z" fill="black"/>
</svg>
