<?xml version="1.0" encoding="UTF-8"?>
<svg id="Layer_2" data-name="Layer 2" xmlns="http://www.w3.org/2000/svg" viewBox="0 0 67.55 67.62">
  <defs>
    <style>
      .cls-1 {
        fill: #010101;
      }
    </style>
  </defs>
  <g id="Layer_1-2" data-name="Layer 1">
    <g>
      <path class="cls-1" d="m67.54,33.87c0,18.93-14.89,33.71-33.92,33.75C15.21,67.66-.31,52.13,0,33.15.29,15.47,15.44-.53,34.94.01c17.31.48,33.2,15.53,32.59,33.85h.01Zm-33.92,30.27c16.82,0,30.46-13.45,30.47-30.04,0-17.02-13.32-30.53-30.14-30.53S3.54,17.05,3.54,34.15s13.77,29.98,30.08,29.98Z"/>
      <path class="cls-1" d="m33.96,35.81c0,1.52-.06,3.35.01,5.17.18,4.73.21,4.73,5.03,5.25.06.67.12,1.38.19,2.27h-17.38v-2.14c5.06-.97,5.11-.97,5.17-6.2.06-4.83,0-9.65,0-14.48,0-3.38-.79-5.44-4.51-5.43-.24,0-.49-.3-1.32-.85,1.28-.18,1.94-.34,2.61-.34,5.08-.02,10.16-.08,15.23.03,1.64.04,3.32.36,4.89.85,3.1.96,4.74,3.29,4.87,6.52.16,3.84-.89,6.13-4.33,7.26-3.24,1.07-6.72,1.39-10.46,2.1h0Zm.07-3.34c3.1.02,6.03.23,7.5-2.78.98-2.01.96-4.2-.54-6.11-1.9-2.42-4.45-1.99-6.97-1.81v10.69h.01Z"/>
    </g>
  </g>
</svg>