<svg width="103" height="104" viewBox="0 0 103 104" fill="none" xmlns="http://www.w3.org/2000/svg">
<path d="M77.29 102.78C66.79 102.12 57.65 98.3702 49.19 93.1002C30.77 81.6302 15.95 66.6102 6.30999 46.9802C4.08999 42.4502 2.50999 37.4802 1.43999 32.5302C-1.23001 20.1102 4.73999 7.63019 16.33 2.00019C18.53 0.930194 22.89 1.54019 24.78 3.13019C30.7 8.10019 36.02 13.8102 41.35 19.4402C44.58 22.8502 44.41 26.4702 41.19 30.0302C38.98 32.4702 36.69 34.8902 34.19 37.0202C31.31 39.4702 30.98 42.2202 32.51 45.4002C37.98 56.8102 46.36 65.3002 57.9 70.6002C60.95 72.0002 63.52 71.6702 65.85 68.9802C68.01 66.4902 70.41 64.2002 72.84 61.9702C76.58 58.5202 80.16 58.3802 83.78 61.8302C89.27 67.0702 94.59 72.5002 99.89 77.9302C102.68 80.7802 103.17 84.4602 100.73 87.3602C97.03 91.7502 92.98 96.0602 88.34 99.3502C85.35 101.47 81.02 101.71 77.3 102.8L77.29 102.78ZM10.31 14.1802C9.10999 16.8702 6.82999 19.6102 6.90999 22.2902C7.09999 28.2602 7.58999 34.5002 9.52999 40.0802C14.64 54.7802 24.89 66.0402 36.15 76.3802C45.84 85.2802 56.52 92.7102 69.6 95.6402C76.3 97.1502 83.29 98.2702 88.21 92.2302C81.8 85.8202 75.65 79.6802 69.47 73.5002C63.73 77.9802 59.22 78.3102 51.74 74.0002C42.71 68.8102 35.42 61.6602 29.95 52.8402C25.9 46.3102 23.2 39.4202 29.44 33.2702C23.11 26.9502 17.07 20.9202 10.31 14.1802ZM34.48 28.5102C38.28 26.4002 38.56 24.1702 35.09 21.0802C30.91 17.3602 26.92 13.3702 23.2 9.19019C19.93 5.52019 17.84 6.47019 15.97 9.92019C22.12 16.1002 28.16 22.1602 34.48 28.5102ZM74.47 68.4802C80.85 74.8802 86.87 80.9202 93.73 87.7902C94.48 85.6902 96.24 82.8502 95.62 82.1602C90.18 76.1102 84.31 70.4502 78.18 64.2802C76.54 66.1302 75.47 67.3402 74.47 68.4802Z" fill="black"/>
</svg>
