<svg width="400" height="175" viewBox="0 0 400 175" fill="none" xmlns="http://www.w3.org/2000/svg">
<g clip-path="url(#clip0_13_2228)">
<path d="M112.5 132.5V102.5" stroke="black" stroke-width="15"/>
<path d="M7.5 132.5V102.5" stroke="black" stroke-width="15"/>
<path d="M392.5 132.5V102.5" stroke="black" stroke-width="15"/>
<path d="M287.5 132.5V102.5" stroke="black" stroke-width="15"/>
<path d="M112.5 105.5C112.5 51.0001 287.5 52.5 287.5 105.5" stroke="black" stroke-width="15"/>
<path d="M7.5 105.5C7.5 -24.5 392.5 -24.5 392.5 105.5" stroke="black" stroke-width="15"/>
<path d="M287.5 131.5H392.5V155C392.5 161.904 386.904 167.5 380 167.5H300C293.096 167.5 287.5 161.904 287.5 155V131.5Z" stroke="black" stroke-width="15"/>
<path d="M7.5 131.5H112.5V155C112.5 161.904 106.904 167.5 100 167.5H20C13.0964 167.5 7.5 161.904 7.5 155V131.5Z" stroke="black" stroke-width="15"/>
</g>
<defs>
<clipPath id="clip0_13_2228">
<rect width="400" height="175" fill="white"/>
</clipPath>
</defs>
</svg>
