<svg width="500" height="500" viewBox="0 0 500 500" fill="none" xmlns="http://www.w3.org/2000/svg">
<mask id="mask0_2_954" style="mask-type:luminance" maskUnits="userSpaceOnUse" x="0" y="140" width="500" height="220">
<path d="M500 140.833H0V359.583H500V140.833Z" fill="white"/>
</mask>
<g mask="url(#mask0_2_954)">
<path d="M140.625 306.458V268.958" stroke="black" stroke-width="25"/>
<path d="M9.375 306.458V268.958" stroke="black" stroke-width="25"/>
<path d="M490.625 306.458V268.958" stroke="black" stroke-width="25"/>
<path d="M359.375 306.458V268.958" stroke="black" stroke-width="25"/>
<path d="M140.625 272.708C140.625 204.584 359.375 206.458 359.375 272.708" stroke="black" stroke-width="25"/>
<path d="M9.375 272.708C9.375 110.208 490.625 110.208 490.625 272.708" stroke="black" stroke-width="25"/>
<path d="M359.375 305.208H490.625V334.583C490.625 343.213 483.63 350.208 475 350.208H375C366.37 350.208 359.375 343.213 359.375 334.583V305.208Z" stroke="black" stroke-width="25"/>
<path d="M9.375 305.208H140.625V334.583C140.625 343.213 133.63 350.208 125 350.208H25C16.3705 350.208 9.375 343.213 9.375 334.583V305.208Z" stroke="black" stroke-width="25"/>
</g>
</svg>
