<svg width="500" height="500" viewBox="0 0 500 500" fill="none" xmlns="http://www.w3.org/2000/svg">
<g clip-path="url(#clip0_18_287)">
<path d="M52.4168 127.208L52.645 128.153L52.9977 129.06C78.292 194.071 162.941 349.679 315.569 433.461L316.135 433.771L316.726 434.03C343.029 445.554 369.063 450.942 389.946 452.723C400.389 453.613 409.75 453.62 417.398 452.968C424.305 452.38 431.926 451.11 437.316 448.078C441.386 445.789 446.649 441.422 451.501 436.894C456.65 432.089 462.4 426.097 467.486 419.793C472.423 413.674 477.415 406.433 480.244 399.192C482.757 392.761 485.637 380.473 476.269 371.061C466.336 361.01 449.083 344.661 431.132 330.706C422.164 323.735 412.705 317.111 403.681 312.164C395.123 307.472 385.046 303.196 375.369 303.195C370.033 303.195 363.824 305.178 358.876 307.044C353.301 309.147 346.958 312.048 340.551 315.41C329.225 321.355 316.517 329.362 307.071 337.942C307.03 337.98 306.971 337.991 306.918 337.972C303.293 336.671 297.803 333.612 290.567 328.428C276.334 318.23 258.497 302.123 240.45 283.936C222.497 265.845 204.774 246.142 190.804 229.065C183.816 220.523 177.856 212.748 173.31 206.24C168.584 199.474 165.959 194.881 164.992 192.484C162.76 186.948 163.364 184.698 163.732 183.652C164.426 181.674 166.018 179.484 170.326 174.636C170.578 174.353 170.834 174.066 171.094 173.772C179.457 164.388 191.797 150.539 192.547 124.225C193.317 97.2462 177.738 71.2457 162.905 53.311C155.239 44.0439 147.121 36.1369 140.039 30.4193C136.518 27.5757 133.022 25.0874 129.781 23.2246C128.165 22.2961 126.387 21.393 124.537 20.6872C122.878 20.0551 120.195 19.2003 117.042 19.1995C107.115 19.2011 86.2092 24.4979 69.9898 40.7303C52.6199 58.1133 42.4873 86.0627 52.4168 127.208Z" stroke="black" stroke-width="25"/>
</g>
<defs>
<clipPath id="clip0_18_287">
<rect width="500" height="500" fill="white"/>
</clipPath>
</defs>
</svg>
