<svg width="500" height="500" viewBox="0 0 500 500" fill="none" xmlns="http://www.w3.org/2000/svg">
<path d="M4.46429 103.333C21.1039 113.93 37.4279 125.068 54.4734 135.034C118.958 172.823 183.667 210.205 251.939 249.888C167.479 298.905 85.9038 346.253 0 396.082V103.333H4.46429ZM203.689 249.843C141.64 213.903 83.7393 180.353 23.539 145.451V354.28C83.9197 319.287 141.82 285.692 203.689 249.843Z" fill="black"/>
<path d="M500 391.935H421.221V107.799H500V391.935ZM443.362 130.842V368.08H476.642V130.842H443.362Z" fill="black"/>
<path d="M364.449 390.717H286.933V109.692H364.449V390.717ZM308.848 368.215H342.804V131.067H308.848V368.17V368.215Z" fill="black"/>
</svg>
