<svg width="124" height="113" viewBox="0 0 124 113" fill="none" xmlns="http://www.w3.org/2000/svg">
<path d="M46.93 90.1898V79.3698C40.6 83.0298 34.75 86.3998 28.6 89.9598V19.8798C34.64 23.3598 40.47 26.7198 46.73 30.3298V19.5098C67.12 31.3998 86.94 42.9598 107.41 54.8998C87.05 66.7798 67.26 78.3398 46.93 90.1998V90.1898ZM32.6 82.5398C48.52 73.2398 64.03 64.1898 79.99 54.8698C63.91 45.4998 48.41 36.4598 32.6 27.2498V82.5398ZM51 82.6898C67 73.3398 82.6 64.2298 98.64 54.8698C82.41 45.4198 66.9 36.3798 51.2 27.2298C50.84 30.8631 52.0433 33.4864 54.81 35.0998C63.64 40.2398 72.46 45.3898 81.29 50.5398C83.59 51.8798 85.87 53.2498 88.46 54.7798C87.51 55.4998 86.97 55.9898 86.36 56.3498C75.05 62.9398 63.72 69.4998 52.42 76.1198C51.81 76.4798 51.16 77.2398 51.07 77.8898C50.87 79.3298 51.01 80.8098 51.01 82.6998L51 82.6898Z" fill="black"/>
</svg>
