<?xml version="1.0" encoding="UTF-8"?>
<svg id="Layer_2" data-name="Layer 2" xmlns="http://www.w3.org/2000/svg" viewBox="0 0 91 100">
  <g id="Layer_1-2" data-name="Layer 1">
    <g id="_2b4nUq.tif" data-name="2b4nUq.tif">
      <g>
        <path d="m79.96,34.03c-5.41-.71-10.58-1.39-16.06-2.11-.09,1.09-.22,1.95-.21,2.82.04,9.66.17,19.33.11,28.99-.02,2.55-.26,5.21-1.04,7.6-1.26,3.87-4.72,4.6-8.29,4.6-3.67,0-7.11-.85-8.79-4.52-2.11-4.61,1.32-9.2,6.93-9.42,2.81-.11,5.63-.02,8.74-.02V17.52c5.31,1.45,10.43,2.35,14.47,5.83,3.1,2.66,4.26,6.24,4.15,10.68Zm-19.29,30.73c-3.38.26-6.61.28-9.73.87-1.02.19-2.36,1.82-2.45,2.88-.09,1.06.94,2.67,1.94,3.27,2.56,1.54,5.48,1.62,8.06,0,2.37-1.49,2.01-4.14,2.19-7.03Zm3.85-36.01c3.87.53,7.74,1.07,11.78,1.62-1.25-4.62-6.05-7.9-11.78-8.33v6.71Z"/>
        <path d="m22.07,32.87v-2.54h29.88c.06.76.12,1.54.2,2.54h-30.07Z"/>
        <path d="m22.06,43.16v-2.58h29.91c.05.82.09,1.6.15,2.58h-30.06Z"/>
        <path d="m22.08,54.06v-2.57h29.85v2.57h-29.85Z"/>
      </g>
    </g>
  </g>
</svg>