<svg width="500" height="500" viewBox="0 0 500 500" fill="none" xmlns="http://www.w3.org/2000/svg">
<path d="M468.795 459.585H431.206V499.02C425.249 499.378 420.543 499.974 415.777 499.974C301.641 499.974 187.504 500.033 73.3676 499.974C46.3823 499.974 31.4897 484.902 31.4302 457.798C31.4302 319.357 31.9663 180.856 30.8345 42.4152C30.6557 19.8976 50.4926 -0.177527 73.1889 0.00118418C199.716 1.13302 326.303 0.537317 452.83 0.537317H468.735V459.585H468.795ZM51.267 60.7033C50.9692 65.7071 50.4926 69.5792 50.4926 73.4513C50.4926 199.025 50.4331 324.599 50.4926 450.232C50.4926 472.512 58.475 480.018 81.2904 480.018C186.015 480.018 290.739 480.018 395.523 480.018H409.403V60.7033H51.267Z" fill="black"/>
<path d="M152.417 133.794C218.361 172.276 282.876 209.925 351.62 250.015C284.008 289.511 219.314 327.338 152.417 366.475V133.794ZM175.947 322.215C217.885 297.731 257.141 274.737 299.555 249.956C256.486 224.936 217.229 202.061 175.947 178.055V322.215Z" fill="black"/>
</svg>
