<svg width="143" height="144" viewBox="0 0 143 144" fill="none" xmlns="http://www.w3.org/2000/svg">
<path d="M73.11 121.51C51.04 122.21 30.56 102.62 31.26 78.3302C31.87 57.1502 49.99 37.3802 73.87 37.6402C95.69 37.8802 116.08 56.6402 115.2 81.3502C114.46 102.31 96.27 122.16 73.11 121.51ZM73.32 42.0302C52.75 41.9002 35.38 58.7802 35.59 79.9302C35.8 100.86 52.43 116.99 72.53 117.28C94.41 117.6 110.42 100.38 110.88 80.6002C111.39 58.7102 93.54 41.9502 73.32 42.0302Z" fill="black"/>
<path d="M61.66 60.0598C72.9 66.6198 83.81 72.9898 95.22 79.6498C83.71 86.3698 72.83 92.7198 61.66 99.2298V60.0498V60.0598ZM65.84 67.5898V91.6998C72.77 87.6498 79.35 83.7998 86.46 79.6498C79.36 75.4998 72.81 71.6698 65.84 67.5898Z" fill="black"/>
</svg>
