<svg width="215" height="216" viewBox="0 0 215 216" fill="none" xmlns="http://www.w3.org/2000/svg">
<path d="M135.71 107.33C132.47 107.58 130.41 105.95 129.89 103.26C128.18 94.52 125.26 86.36 118.86 79.76C115.26 76.05 110.78 73.82 106.31 71.52C102.85 69.74 99.15 68.34 95.89 66.25C93.31 64.6 91.37 65.55 89.36 66.75C82.12 71.07 74.95 75.48 67.75 79.86C66.54 80.6 65.09 81.41 66.09 83.07C66.96 84.5 68.07 85.02 69.98 83.83C76.31 79.9 83.12 76.69 89.19 72.41C93.07 69.67 95.72 71.48 98.79 72.99C102.56 74.84 106.28 76.79 110.01 78.71C110.95 79.2 111.86 79.75 113.13 80.48C110.29 82.35 107.68 84.18 104.97 85.84C98.67 89.69 92.3 93.43 86.01 97.28C81.88 99.81 77.83 102.48 73.72 105.06C71.96 106.16 71.24 104.42 70.75 103.5C70.38 102.81 70.68 101.03 71.27 100.66C80.75 94.62 90.33 88.73 99.88 82.79C100.77 82.24 101.6 81.6 102.87 80.71C99.69 79.08 97.37 77.69 94.89 76.73C93.85 76.33 92.23 76.48 91.25 77.04C84.44 80.92 77.74 85.01 70.96 88.94C68.8 90.19 65.02 89.4 63.22 87.59C60.94 85.29 60.64 82.49 61.52 79.71C62.48 76.64 65.06 75.59 67.32 74.18C73.23 70.48 79.26 66.98 85.26 63.42C87.34 62.18 89.35 60.68 91.61 59.92C92.84 59.51 94.65 60.12 95.95 60.78C102.74 64.22 109.52 67.67 116.15 71.4C121.53 74.43 125.29 79.2 128.47 84.37C132.05 90.18 133.55 96.7 134.61 103.35C134.82 104.64 135.3 105.88 135.71 107.34V107.33Z" fill="black"/>
<path d="M168.37 127.44V131.76C164.67 132.56 161.78 130.69 158.92 128.86C157.62 128.03 156.42 126.97 155.34 125.86C154.33 124.83 153.69 124.87 152.73 125.94C150.1 128.88 146.77 131.04 142.99 131.77C137.71 132.78 132.71 131.53 128.47 127.96C124.99 125.03 124.98 125.02 121.52 127.91C117.28 131.46 112.31 132.76 107.02 131.79C103.23 131.09 99.91 128.93 97.28 126.02C96.24 124.86 95.58 124.79 94.51 125.93C90.2 130.52 84.9 132.77 78.59 131.88C74.52 131.31 71.11 129.12 68.32 126.17C67.1 124.88 66.5 124.7 65.25 126.09C62.52 129.12 58.98 130.83 55.1 132C54.04 127.98 54.35 127.74 57.75 125.8C61.24 123.82 63.7 120.72 65.54 117.14C65.8 116.63 66.31 116.26 66.7 115.82C67.11 116.23 67.67 116.56 67.92 117.05C70.25 121.68 73.57 125.31 78.59 126.9C81.68 127.88 85.04 127.34 87.42 125.31C90.16 122.97 92.23 119.85 94.61 117.09C95 116.64 95.47 116.25 95.9 115.83C96.27 116.28 96.72 116.68 97 117.18C99.46 121.55 102.53 125.37 107.52 126.84C111.65 128.05 115.53 126.85 118.54 123.85C120.54 121.85 122.03 119.35 123.78 117.1C124.14 116.63 124.63 116.27 125.06 115.86C125.4 116.26 125.81 116.61 126.06 117.06C127.83 120.14 129.83 123 132.86 125.03C138.04 128.51 143.7 127.77 147.91 123.6C149.86 121.67 151.27 119.21 152.94 117.01C153.25 116.6 153.64 115.94 153.98 115.94C154.39 115.94 154.87 116.49 155.18 116.9C156.67 118.93 157.97 121.11 159.6 123.02C161.79 125.59 164.79 126.84 168.36 127.44H168.37Z" fill="black"/>
<path d="M168.47 151.94C168.47 152.64 168.49 153.45 168.47 154.27C168.46 154.83 168.39 155.39 168.34 156.1C164.72 156.64 161.88 154.88 159.07 153.33C157.61 152.52 156.42 151.15 155.23 149.91C154.32 148.97 153.82 148.94 152.87 149.97C149.16 153.98 144.7 156.41 139.03 156.28C133.85 156.16 129.77 153.77 126.34 150.18C125.25 149.04 124.78 148.88 123.66 150.09C119.46 154.63 114.25 157.02 108.02 156.17C103.72 155.58 100.01 153.41 97.16 150.11C96.14 148.93 95.61 148.93 94.65 149.96C90.88 154.05 86.34 156.47 80.63 156.27C75.52 156.08 71.43 153.75 68.07 150.1C66.97 148.91 66.5 148.9 65.44 150.1C62.7 153.21 59.22 155.15 55.16 156.05C54.01 152.4 54.31 151.8 57.43 150.15C61.13 148.2 63.61 145.07 65.53 141.43C65.8 140.92 66.29 140.53 66.69 140.08C67.11 140.49 67.7 140.82 67.93 141.31C70.13 145.98 73.6 149.53 78.39 151.19C82.57 152.64 86.58 151.02 89.64 147.96C91.58 146.02 92.96 143.52 94.63 141.3C94.99 140.82 95.49 140.45 95.93 140.02C96.3 140.49 96.74 140.91 97.02 141.43C99.4 145.92 102.72 149.62 107.57 151.2C111.76 152.57 115.73 151.01 118.77 147.95C120.71 146 122.11 143.52 123.78 141.3C124.14 140.82 124.64 140.45 125.07 140.03C125.41 140.44 125.83 140.81 126.07 141.27C128.39 145.79 131.67 149.47 136.48 151.15C140.7 152.62 144.67 151.03 147.74 148.04C149.81 146.02 151.25 143.36 152.99 140.99C153.26 140.63 153.73 140.03 153.95 140.09C154.42 140.22 154.96 140.63 155.17 141.08C157.31 145.51 160.36 149 165.04 150.84C166.01 151.22 167.04 151.47 168.47 151.92V151.94Z" fill="black"/>
<path d="M162.5 78.9004C163.16 86.6004 155.51 93.3704 147.89 93.2504C140.37 93.1404 133.21 86.0804 133.48 78.2804C133.73 71.0604 140.39 63.9104 148.48 64.1004C155.2 64.2604 163.21 70.1604 162.5 78.9004ZM157.77 78.7704C158.12 73.3704 152.8 69.1304 148.51 68.9004C143.44 68.6304 138.35 73.7404 138.35 78.6204C138.35 83.8604 143.58 88.6104 148.11 88.5104C152.96 88.4004 158.01 84.0304 157.76 78.7704H157.77Z" fill="black"/>
</svg>
