<svg width="96" height="94" viewBox="0 0 96 94" fill="none" xmlns="http://www.w3.org/2000/svg">
<g clip-path="url(#clip0_13_965)">
<path d="M0 30.6705C1.05 28.4705 1.94 26.1805 3.19 24.1005C7.23 17.4105 13.14 13.8605 21.08 13.8705C39.33 13.8905 57.57 13.8705 75.82 13.8705C77.41 13.8705 78.99 13.8705 81.04 13.8705C77.72 10.4705 74.83 7.51047 71.84 4.43047C73.09 2.79047 74.16 1.39047 75.23 -0.0195312C75.89 -0.0195312 76.55 -0.0195312 77.21 -0.0195312C82.9 5.84047 88.58 11.7105 94.68 18.0005C88.77 23.5105 82.47 29.3805 76 35.4105C74.52 33.7905 73.33 32.4805 71.61 30.6005C75.07 27.7205 78.42 24.9405 81.77 22.1605C81.49 21.6805 81.2 21.2105 80.92 20.7305C77.88 20.7305 74.83 20.7305 71.79 20.7305C56.46 20.7305 41.12 20.6905 25.79 20.7405C12.7 20.7805 6.99 26.6105 6.92 39.8505C6.9 43.1305 6.92 46.4105 6.92 50.4405H0C0 43.8705 0 37.2705 0 30.6705Z" fill="black"/>
<path d="M0 75.2005C6.27 69.4105 12.54 63.6105 19.06 57.5905C20.55 59.2505 21.81 60.6505 23.39 62.4105C19.93 65.5005 16.78 68.3205 13.63 71.1405L14.05 72.2605C15.42 72.2605 16.8 72.2605 18.17 72.2605C35.14 72.2605 52.12 72.2905 69.09 72.2505C82.23 72.2205 88.01 66.4205 88.09 53.2905C88.11 49.8705 88.09 46.4505 88.09 42.8105H94.67C94.67 49.1705 95.47 55.6505 94.49 61.8605C92.79 72.6305 84.14 79.1205 73.07 79.1305C55.11 79.1505 37.14 79.1305 19.18 79.1305H13.92C17.28 82.5405 20.18 85.4905 23.31 88.6705C21.83 90.2505 20.62 91.5505 19.19 93.0805C12.73 87.3705 6.36 81.7805 0 76.1905C0 75.8605 0 75.5305 0 75.2005Z" fill="black"/>
</g>
<defs>
<clipPath id="clip0_13_965">
<rect width="96" height="94" fill="white"/>
</clipPath>
</defs>
</svg>
