<svg width="500" height="500" viewBox="0 0 500 500" fill="none" xmlns="http://www.w3.org/2000/svg">
<mask id="mask0_9_11" style="mask-type:luminance" maskUnits="userSpaceOnUse" x="0" y="5" width="500" height="490">
<path d="M500 5H0V494.583H500V5Z" fill="white"/>
</mask>
<g mask="url(#mask0_9_11)">
<path d="M0 164.742C5.46875 153.284 10.1042 141.357 16.6146 130.524C37.6563 95.6799 68.4375 77.1903 109.792 77.2424C204.844 77.3465 299.844 77.2424 394.896 77.2424C403.177 77.2424 411.406 77.2424 422.083 77.2424C404.792 59.534 389.74 44.1172 374.167 28.0755C380.677 19.5339 386.25 12.2422 391.823 4.89844C395.26 4.89844 398.698 4.89844 402.135 4.89844C431.771 35.4193 461.354 65.9924 493.125 98.7528C462.344 127.451 429.531 158.024 395.833 189.43C388.125 180.992 381.927 174.169 372.969 164.378C390.99 149.378 408.437 134.899 425.885 120.419C424.427 117.919 422.917 115.472 421.458 112.972C405.625 112.972 389.74 112.972 373.906 112.972C294.063 112.972 214.167 112.763 134.323 113.024C66.1458 113.232 36.4063 143.597 36.0417 212.555C35.9375 229.638 36.0417 246.722 36.0417 267.711H0C0 233.492 0 199.117 0 164.742Z" fill="black"/>
<path d="M0 396.67C32.6563 366.513 65.3125 336.305 99.2708 304.951C107.031 313.597 113.594 320.888 121.823 330.055C103.802 346.149 87.3958 360.836 70.9896 375.524L73.1771 381.357C80.3125 381.357 87.5 381.357 94.6354 381.357C183.021 381.357 271.458 381.513 359.844 381.305C428.281 381.149 458.385 350.94 458.802 282.555C458.906 264.743 458.802 246.93 458.802 227.972H493.073C493.073 261.097 497.24 294.847 492.135 327.19C483.281 383.284 438.229 417.086 380.573 417.138C287.031 417.242 193.438 417.138 99.8958 417.138H72.5C90 434.899 105.104 450.263 121.406 466.826C113.698 475.055 107.396 481.826 99.9479 489.795C66.3021 460.055 33.125 430.94 0 401.826C0 400.107 0 398.388 0 396.67Z" fill="black"/>
</g>
</svg>
