<svg width="212" height="217" viewBox="0 0 212 217" fill="none" xmlns="http://www.w3.org/2000/svg">
<path d="M161.5 88.0898H169.93C169.93 90.7198 169.93 93.2698 169.93 95.8198C169.93 99.1498 170.05 102.49 169.91 105.82C169.4 117.58 164.19 126.4 153.19 131.14C150.54 132.28 147.4 132.7 144.48 132.71C120.82 132.83 97.16 132.77 73.51 132.79C72.49 132.79 71.47 132.91 69.65 133.03C72.48 135.72 74.73 137.86 76.99 139.99C78.21 141.14 79.4 142.32 80.69 143.38C81.82 144.3 81.67 145.05 80.75 146.02C79.6 147.24 78.56 148.56 77.18 150.18C69.1 142.7 61.43 135.6 53.63 128.37C56.48 125.53 59.34 122.52 62.37 119.69C66.63 115.72 71.03 111.89 75.36 107.99C76.34 107.11 76.95 106.84 78.13 108.06C82.01 112.06 82.12 111.99 78.2 115.78C75.46 118.42 72.67 121.01 69.64 123.88C70.38 124.06 71.09 124.39 71.8 124.39C95.96 124.37 120.11 124.48 144.27 124.17C152.21 124.07 158.37 118.65 160.24 110.8C161.06 107.38 161.29 103.8 161.47 100.27C161.67 96.2998 161.52 92.3098 161.52 88.0998L161.5 88.0898Z" fill="black"/>
<path d="M61.98 97.4397H53.52C53.52 96.6297 53.52 95.8397 53.52 95.0497C53.52 89.7197 53.45 84.3897 53.54 79.0597C53.72 68.2097 60.15 58.3397 70.35 54.3197C72.96 53.2897 75.99 52.9097 78.82 52.8897C102.48 52.7797 126.14 52.8297 149.8 52.8297C150.85 52.8297 151.89 52.8297 153.61 52.8297C150.87 50.0497 148.69 47.7897 146.45 45.5797C145.21 44.3597 143.74 43.3397 142.63 42.0097C142.22 41.5097 142.21 40.1297 142.62 39.6097C143.63 38.2997 144.98 37.2397 146.59 35.7197C154.23 42.7997 161.89 49.8897 169.74 57.1597C166.91 59.9797 164 63.0197 160.92 65.8897C156.72 69.7997 152.35 73.5297 148.13 77.4197C147.05 78.4097 146.56 78.8497 145.3 77.4497C141.72 73.4997 141.56 73.5397 145.29 69.7697C148 67.0297 150.88 64.4497 153.92 61.5797C152.86 61.4297 151.93 61.1997 151 61.1897C128.26 61.1697 105.52 61.2097 82.77 61.1497C75.35 61.1297 68.86 63.1497 65.19 70.0197C63.51 73.1697 62.45 76.9197 62.12 80.4797C61.62 85.9997 61.99 91.6097 61.99 97.4397H61.98Z" fill="black"/>
<path d="M123.13 77.1895C124.52 78.5795 125.79 79.8494 127.37 81.4194C124.32 84.3594 121.31 87.3194 118.24 90.1994C116.17 92.1494 115.37 92.6795 118.31 95.3895C121.37 98.1995 124.29 101.159 127.39 104.169C125.88 105.649 124.6 106.899 122.99 108.489C119.79 105.159 116.55 101.899 113.43 98.5095C112.19 97.1595 111.32 97.0595 110.06 98.4695C106.96 101.919 103.75 105.259 100.67 108.559C98.92 106.819 97.66 105.559 95.83 103.729C99.23 100.579 102.65 97.3494 106.16 94.2094C107.4 93.0994 107.34 92.3695 106.12 91.2595C102.7 88.1295 99.4 84.8794 95.82 81.4594C97.56 80.0294 98.98 78.8595 100.85 77.3195C103.66 80.2795 106.91 83.5794 110.01 87.0194C111.42 88.5794 112.35 88.2095 113.6 86.8995C116.73 83.6195 119.95 80.4195 123.15 77.1895H123.13Z" fill="black"/>
</svg>
