<svg width="500" height="500" viewBox="0 0 500 500" fill="none" xmlns="http://www.w3.org/2000/svg">
<g clip-path="url(#clip0_9_13)">
<path d="M463.609 228.963H499.795C499.795 240.252 499.795 251.198 499.795 262.143C499.795 276.437 500.31 290.775 499.709 305.069C497.52 355.548 475.156 393.407 427.939 413.753C416.564 418.647 403.086 420.45 390.552 420.493C288.993 421.008 187.434 420.75 85.9172 420.836C81.5389 420.836 77.1606 421.351 69.3484 421.866C81.496 433.413 91.154 442.599 100.855 451.742C106.092 456.678 111.2 461.743 116.737 466.293C121.587 470.242 120.944 473.461 116.995 477.625C112.058 482.862 107.594 488.528 101.67 495.481C66.9876 463.374 34.0645 432.898 0.583466 401.863C12.8169 389.673 25.0933 376.753 38.0994 364.605C56.3852 347.564 75.272 331.124 93.8582 314.383C98.0648 310.606 100.683 309.447 105.748 314.684C122.403 331.854 122.875 331.553 106.049 347.821C94.2875 359.154 82.3116 370.271 69.3055 382.59C72.4819 383.363 75.5295 384.779 78.5772 384.779C182.283 384.694 285.945 385.166 389.65 383.835C423.732 383.406 450.174 360.141 458.201 326.445C461.721 311.765 462.708 296.398 463.48 281.246C464.339 264.204 463.695 247.077 463.695 229.006L463.609 228.963Z" fill="black"/>
<path d="M36.4254 269.097H0.111326C0.111326 265.62 0.111326 262.229 0.111326 258.838C0.111326 235.959 -0.189143 213.08 0.197177 190.201C0.969817 143.628 28.5702 101.262 72.3531 84.0064C83.5564 79.5852 96.5625 77.9541 108.71 77.8682C210.269 77.3961 311.829 77.6107 413.388 77.6107C417.895 77.6107 422.359 77.6107 429.742 77.6107C417.981 65.6777 408.623 55.9768 399.008 46.4905C393.685 41.2537 387.376 36.8754 382.611 31.1665C380.851 29.0202 380.808 23.0967 382.568 20.8646C386.903 15.2415 392.698 10.6915 399.609 4.16699C432.403 34.5575 465.283 64.9909 498.979 96.197C486.831 108.302 474.34 121.351 461.12 133.67C443.091 150.453 424.333 166.464 406.219 183.162C401.584 187.411 399.48 189.3 394.072 183.291C378.705 166.335 378.018 166.507 394.029 150.325C405.661 138.563 418.024 127.489 431.073 115.17C426.523 114.526 422.531 113.538 418.539 113.496C320.929 113.41 223.318 113.581 125.665 113.324C93.8153 113.238 65.9574 121.909 50.2041 151.398C42.9928 164.919 38.4428 181.016 37.0263 196.297C34.8801 219.991 36.4683 244.072 36.4683 269.097H36.4254Z" fill="black"/>
<path d="M298.908 182.174C304.875 188.14 310.326 193.591 317.108 200.33C304.016 212.95 291.096 225.656 277.918 238.018C269.033 246.388 265.599 248.664 278.219 260.296C291.354 272.358 303.887 285.062 317.194 297.982C310.712 304.335 305.218 309.7 298.307 316.525C284.571 302.231 270.664 288.238 257.272 273.689C251.949 267.894 248.214 267.465 242.806 273.517C229.499 288.324 215.721 302.661 202.5 316.826C194.988 309.357 189.58 303.948 181.725 296.093C196.319 282.572 210.999 268.709 226.065 255.231C231.388 250.466 231.131 247.333 225.894 242.568C211.214 229.133 197.049 215.182 181.682 200.502C189.15 194.364 195.246 189.342 203.273 182.732C215.334 195.437 229.285 209.602 242.591 224.368C248.644 231.064 252.636 229.477 258.001 223.853C271.437 209.774 285.258 196.038 298.994 182.174H298.908Z" fill="black"/>
</g>
<defs>
<clipPath id="clip0_9_13">
<rect width="500" height="500" fill="white"/>
</clipPath>
</defs>
</svg>
