<svg width="100" height="100" viewBox="0 0 100 100" fill="none" xmlns="http://www.w3.org/2000/svg">
<path d="M17.8132 60.305C18.8972 59.9791 19.7952 59.7098 20.6702 59.4477C29.3245 80.4084 47.8409 82.7518 59.4956 78.7417C73.3554 73.9735 81.96 59.2422 79.3439 45.2035C76.5861 30.4102 63.2931 19.5384 47.7789 20.3408C34.144 21.0457 22.0677 31.8537 19.9901 46.6045C22.2962 44.0097 24.2853 41.7726 26.3807 39.4169C27.4115 40.3981 27.9978 40.9579 28.7275 41.6504C25.0877 45.5684 21.5913 49.3322 17.8965 53.3104C14.2106 49.3446 10.7142 45.5843 6.84402 41.4219C7.56137 40.763 8.15828 40.2157 8.68964 39.7268C11.2951 42.2154 13.5959 44.4135 16.2085 46.9092C17.6698 37.1444 21.9402 29.1367 29.831 23.32C37.8423 17.4147 46.9163 15.585 56.4845 17.5458C73.0844 20.9483 83.8092 35.3466 83.0476 52.4779C82.3656 67.8185 69.751 81.6837 54.885 83.4354C37.6244 85.4688 22.4875 76.184 17.815 60.3068L17.8132 60.305Z" fill="black"/>
</svg>
