<svg width="112" height="64" viewBox="0 0 112 64" fill="none" xmlns="http://www.w3.org/2000/svg">
<g clip-path="url(#clip0_13_975)">
<path d="M112 63.01C95.22 53.59 78.45 44.17 61.67 34.76C60.25 33.97 58.81 33.23 56.6 32.05V63.38C37.55 52.59 19.43 42.32 0.559998 31.62C19.21 20.88 37.33 10.44 55.44 0C55.77 0 56.1 0 56.43 0V30.26C57.26 30.31 57.65 30.46 57.87 30.33C75.6 20.23 93.3 10.12 111.01 0C111.34 1.31 111.96 2.62 111.96 3.94C112.02 23.63 112 43.32 112 63.02V63.01ZM11.35 31.52C25.19 39.35 38 46.6 51.17 54.05V8.94C37.84 16.5 25.05 23.75 11.35 31.52ZM106.89 8.83C93.32 16.55 80.48 23.84 66.94 31.54C80.79 39.38 93.6 46.62 106.89 54.14V8.83Z" fill="black"/>
</g>
<defs>
<clipPath id="clip0_13_975">
<rect width="112" height="64" fill="white"/>
</clipPath>
</defs>
</svg>
