<svg width="500" height="500" viewBox="0 0 500 500" fill="none" xmlns="http://www.w3.org/2000/svg">
<mask id="mask0_9_14" style="mask-type:luminance" maskUnits="userSpaceOnUse" x="0" y="107" width="500" height="287">
<path d="M500 107.5H0V393.214H500V107.5Z" fill="white"/>
</mask>
<g mask="url(#mask0_9_14)">
<path d="M500 388.795C425.089 346.741 350.223 304.687 275.313 262.679C268.973 259.152 262.545 255.848 252.679 250.58V390.446C167.634 342.277 86.7411 296.429 2.5 248.661C85.7589 200.714 166.652 154.107 247.5 107.5C248.973 107.5 250.446 107.5 251.92 107.5V242.589C255.625 242.812 257.366 243.482 258.348 242.902C337.5 197.812 416.518 152.679 495.58 107.5C497.054 113.348 499.821 119.196 499.821 125.089C500.089 212.991 500 300.893 500 388.839V388.795ZM50.6697 248.214C112.455 283.17 169.643 315.536 228.438 348.795V147.411C168.929 181.161 111.83 213.527 50.6697 248.214ZM477.188 146.92C416.607 181.384 359.286 213.929 298.839 248.304C360.67 283.304 417.857 315.625 477.188 349.196V146.92Z" fill="black"/>
</g>
</svg>
