<svg width="500" height="500" viewBox="0 0 500 500" fill="none" xmlns="http://www.w3.org/2000/svg">
<path d="M499.963 147.287C496.973 169.219 495.292 191.406 490.659 213.011C484.344 242.399 453.182 252.074 429.754 232.069C403.001 209.192 374.23 189.223 342.507 173.802C309.812 157.944 278.052 139.758 241.659 132.047C209.263 125.173 179.11 128.556 156.093 153.325C145.855 164.345 138.27 178.894 133.3 193.115C118.579 235.197 119.288 277.934 133.525 320.235C141.334 343.44 153.066 364.717 173.879 379.193C200.781 397.888 230.225 398.106 260.902 388.177C306.711 373.374 345.757 347.513 382.898 318.561C401.132 304.34 418.395 288.955 436.143 274.115C438.535 272.115 440.926 269.933 443.691 268.55C453.107 263.786 463.233 262.04 472.798 267.205C480.197 271.206 482.551 284.736 478.739 296.193C465.325 336.638 450.23 376.356 426.204 412.255C405.952 442.48 381.964 468.631 348.037 485.435C316.501 501.075 283.433 502.457 249.842 497.328C199.474 489.617 157.812 463.721 119.326 433.096C80.952 402.616 48.2203 366.972 24.7177 324.09C-2.67077 274.115 -9.54592 222.576 15.5633 169.91C27.1465 145.65 45.7916 126.337 66.9028 109.097C106.921 76.5077 154.225 57.6308 202.463 40.8998C248.908 24.7871 295.801 9.76563 344.973 2.96413C371.502 -0.709411 397.695 -2.01879 424.037 5.29192C455.797 14.0939 475.638 33.4436 487.371 63.3047C498.132 90.6926 498.319 118.699 500 147.287H499.963ZM460.057 287.755C458.637 286.882 457.255 286.045 455.835 285.172C450.417 289.282 444.513 292.883 439.618 297.539C401.282 333.765 358.686 364.463 311.755 389.195C284.367 403.598 255.073 413.819 223.313 413.455C204.929 413.273 187.143 410.364 170.553 400.943C143.239 385.485 127.92 361.516 116.636 334.129C103.072 301.249 102.213 266.95 104.268 232.251C106.061 202.063 114.057 173.584 132.628 149.287C141.035 138.267 152.543 128.592 164.575 121.318C191.029 105.278 220.921 106.114 249.319 113.498C306.599 128.446 358.051 156.016 406.7 188.532C419.665 197.225 431.435 207.628 443.878 217.048C457.329 227.268 468.128 223.958 470.93 207.919C473.919 190.933 475.19 173.693 477.32 156.562C480.907 127.937 477.768 99.4945 468.987 72.4704C461.103 48.065 444.102 30.3156 416.489 24.0597C383.384 16.5308 350.428 19.6223 318.705 27.9151C271.812 40.1723 225.255 54.3209 179.67 70.5791C138.756 85.2005 100.419 105.059 68.2479 135.102C14.9281 184.895 6.81992 245.09 39.7011 308.559C52.592 333.437 69.0326 355.806 88.3503 376.247C128.63 418.911 174.14 454.264 231.608 472.777C284.255 489.727 331.036 480.379 372.287 443.789C402.515 416.983 421.421 383.048 437.75 347.659C446.68 328.309 452.659 307.723 459.982 287.682L460.057 287.755Z" fill="black"/>
<path d="M192.748 259.531C192.748 238.544 192.524 217.594 192.823 196.643C193.159 173.075 211.804 162.054 232.728 173.511C271.252 194.57 309.626 215.884 347.663 237.707C368.251 249.528 368.587 269.824 348.149 281.717C309.663 304.122 270.803 325.945 231.645 347.187C211.393 358.171 193.196 347.041 192.823 324.309C192.449 302.74 192.748 281.136 192.748 259.567V259.531Z" fill="black"/>
</svg>
