<svg width="179" height="56" viewBox="0 0 179 56" fill="none" xmlns="http://www.w3.org/2000/svg">
<g clip-path="url(#clip0_35_122)">
<mask id="mask0_35_122" style="mask-type:luminance" maskUnits="userSpaceOnUse" x="-22" y="-23" width="223" height="106">
<path d="M-21.2234 82.1437H200.224V-22.5353H-21.2234V82.1437Z" fill="white"/>
</mask>
<g mask="url(#mask0_35_122)">
<path d="M28.2532 18.4441C28.2532 13.3367 24.1663 9.22351 19.1688 9.22351H14.6638V27.5831H19.1688C24.1663 27.5831 28.2532 23.4672 28.2532 18.4441ZM48.7463 55.045H32.209L19.0795 36.7262H14.6638V55.0056H0.0894775V0.0899412H20.9681C33.0045 0.0899412 42.8289 8.31899 42.8289 18.4441C42.8289 24.6193 39.0625 30.1348 33.3305 33.5094L48.7463 55.045Z" fill="black"/>
<path d="M65.1828 21.7398C61.334 21.7398 58.0601 26.9995 58.0601 33.5107C58.0601 40.0218 61.334 45.2884 65.1828 45.2884C69.121 45.2884 72.3895 40.0218 72.3895 33.5107C72.3895 26.9995 69.121 21.7398 65.1828 21.7398ZM87.6159 33.5107C87.6159 45.9495 77.5547 55.91 65.1828 55.91C52.815 55.91 42.8282 45.9495 42.8282 33.5107C42.8282 21.0814 52.815 11.1154 65.1828 11.1154C77.5547 11.1154 87.6159 21.0814 87.6159 33.5107Z" fill="black"/>
<path d="M121.817 12.0264L105.028 28.9034V11.9706H90.4568V55.0052H105.028V37.5487L122.556 55.0052H140.897L118.623 32.6085L137.072 14.0666V39.6053C137.072 48.0846 142.144 55.9097 154.916 55.9097C160.98 55.9097 166.544 52.4521 169.248 49.3237L175.8 55.0052H178.911V12.0264H164.339V34.4176V39.8528C162.698 42.7323 160.412 44.5427 156.878 44.5427C153.293 44.5427 151.648 42.4059 151.648 35.571V33.7674V12.0264H121.817Z" fill="black"/>
</g>
</g>
<defs>
<clipPath id="clip0_35_122">
<rect width="179" height="56" fill="white"/>
</clipPath>
</defs>
</svg>
