<?xml version="1.0" encoding="UTF-8"?>
<svg id="Layer_2" data-name="Layer 2" xmlns="http://www.w3.org/2000/svg" viewBox="0 0 162 176">
  <g id="Layer_1-2" data-name="Layer 1">
    <g id="_6Glh9r.tif" data-name="6Glh9r.tif">
      <g>
        <path d="m127.33,118.08h-4.6c-.5-15.19-5.46-28.39-16.24-39.16-10.74-10.74-23.8-15.88-39.01-16.13v-4.51c29.6-2.41,61.08,24.99,59.85,59.8Z"/>
        <path d="m67.4,85.31v-4.2c17.62-2.2,38.54,15.19,37.08,36.92h-4.4c-1.81-19.85-12.71-30.64-32.68-32.72Z"/>
        <path d="m67.3,110.76c.02-4.09,3.26-7.24,7.44-7.21,4.09.02,7.14,3.24,7.11,7.51-.03,4.25-3.08,7.22-7.38,7.17-4.19-.05-7.19-3.17-7.17-7.47Z"/>
      </g>
    </g>
  </g>
</svg>