<svg width="500" height="500" viewBox="0 0 500 500" fill="none" xmlns="http://www.w3.org/2000/svg">
<g clip-path="url(#clip0_2_952)">
<path d="M499.709 498.747H461.417C457.255 372.37 415.967 262.55 326.231 172.947C236.827 83.5934 128.112 40.8301 1.49921 38.7502V1.22834C247.899 -18.8221 509.948 209.138 499.709 498.747Z" fill="black"/>
<path d="M0.833252 226.11V191.167C147.508 172.864 321.652 317.544 309.499 498.331H272.872C257.805 333.185 167.07 243.415 0.833252 226.11Z" fill="black"/>
<path d="M0.000827473 437.847C0.167314 403.819 27.138 377.612 61.9337 377.862C95.9801 378.028 121.369 404.817 121.12 440.343C120.87 475.701 95.4807 500.411 59.6861 499.995C24.8073 499.579 -0.165659 473.621 0.000827473 437.847Z" fill="black"/>
</g>
<defs>
<clipPath id="clip0_2_952">
<rect width="500" height="500" fill="white"/>
</clipPath>
</defs>
</svg>
