<svg width="500" height="500" viewBox="0 0 500 500" fill="none" xmlns="http://www.w3.org/2000/svg">
<g clip-path="url(#clip0_1_695)">
<path d="M140.644 359.356C52.5025 267.365 52.5025 121.353 140.644 31.2873L468.713 359.356C378.647 447.497 232.635 447.497 140.644 359.356ZM140.644 359.356C68.578 359.356 9.4162 423.876 9.4162 490.584H271.871C271.871 465.672 263.779 446.098 250 424.97M435.906 9.41602C421.404 9.41602 407.496 15.1767 397.242 25.4309C386.988 35.685 381.228 49.5926 381.228 64.0942C381.228 78.5957 386.988 92.5033 397.242 102.758C407.496 113.011 421.404 118.772 435.906 118.772C450.407 118.772 464.315 113.011 474.569 102.758C484.823 92.5033 490.584 78.5957 490.584 64.0942C490.584 49.5926 484.823 35.685 474.569 25.4309C464.315 15.1767 450.407 9.41602 435.906 9.41602Z" fill="black"/>
<path d="M140.644 359.356C52.5025 267.365 52.5025 121.353 140.644 31.2873L468.713 359.356C378.647 447.497 232.635 447.497 140.644 359.356ZM140.644 359.356C68.578 359.356 9.4162 423.876 9.4162 490.584H271.871C271.871 465.672 263.779 446.098 250 424.97M315.614 184.386L403.099 96.9009M435.906 9.41602C421.404 9.41602 407.496 15.1767 397.242 25.4309C386.988 35.685 381.228 49.5926 381.228 64.0942C381.228 78.5957 386.988 92.5033 397.242 102.758C407.496 113.011 421.404 118.772 435.906 118.772C450.407 118.772 464.315 113.011 474.569 102.758C484.823 92.5033 490.584 78.5957 490.584 64.0942C490.584 49.5926 484.823 35.685 474.569 25.4309C464.315 15.1767 450.407 9.41602 435.906 9.41602Z" stroke="black" stroke-width="19"/>
</g>
<defs>
<clipPath id="clip0_1_695">
<rect width="500" height="500" fill="white"/>
</clipPath>
</defs>
</svg>
