<svg width="150" height="150" viewBox="0 0 150 150" fill="none" xmlns="http://www.w3.org/2000/svg">
<path d="M75.3901 33.88C80.7901 33.82 85.1301 38.11 85.1401 43.52C85.1501 48.86 80.6701 53.3 75.3601 53.21C70.2101 53.12 65.9901 48.91 65.8601 43.74C65.7301 38.35 69.9901 33.94 75.3901 33.88Z" fill="black"/>
<path d="M45.9701 85.3101C51.4701 85.3801 55.6701 89.6701 55.5301 95.1001C55.3901 100.59 51.2201 104.41 45.4801 104.29C40.2801 104.18 36.0601 99.9501 36.0701 94.8601C36.0801 89.5301 40.5201 85.2601 45.9701 85.3201V85.3101Z" fill="black"/>
<path d="M105.12 85.32C110.56 85.3 114.98 89.64 114.92 94.95C114.86 100.07 110.65 104.21 105.42 104.29C99.7101 104.38 95.5501 100.5 95.4701 95.01C95.3901 89.58 99.6001 85.35 105.12 85.32Z" fill="black"/>
<path d="M92.4202 51.64C93.0902 49.48 93.6202 47.79 94.1402 46.11C102.83 48.28 114.06 65.43 112.02 77.22C110.33 76.89 108.65 76.56 106.45 76.12C105.41 66.16 101.11 57.75 92.4102 51.63L92.4202 51.64Z" fill="black"/>
<path d="M56.91 46.48C57.57 48.5 58.11 50.17 58.76 52.17C50.48 57.92 45.82 65.93 44.57 75.96C42.7 76.43 40.99 76.86 39.28 77.3C36.98 67.16 45.35 52.29 56.91 46.48Z" fill="black"/>
<path d="M93.69 109.7C81.39 115.87 69.74 115.82 57.5 109.83C58.93 108.14 60.14 106.7 61.65 104.92C70.64 108.92 79.77 109.35 89.1 104.86C90.51 106.35 91.83 107.74 93.69 109.7Z" fill="black"/>
</svg>
