<svg width="500" height="500" viewBox="0 0 500 500" fill="none" xmlns="http://www.w3.org/2000/svg">
<g clip-path="url(#clip0_19_72)">
<path d="M249.389 0.00386444C282.952 -0.369059 309.927 26.295 309.989 59.9202C310.051 93.1104 282.206 120.707 249.203 120.147C217.193 119.588 190.964 93.4212 190.156 61.2876C189.348 27.7867 215.826 0.376788 249.389 0.00386444Z" fill="black"/>
<path d="M66.5325 319.662C100.717 320.097 126.822 346.761 125.952 380.51C125.081 414.632 99.1633 438.375 63.4869 437.629C31.1669 436.945 4.93796 410.655 5.00011 379.019C5.06226 345.891 32.6586 319.351 66.5325 319.724V319.662Z" fill="black"/>
<path d="M434.172 319.723C467.984 319.599 495.456 346.574 495.083 379.577C494.71 411.4 468.543 437.132 436.037 437.629C400.548 438.188 374.692 414.073 374.194 379.95C373.697 346.201 399.864 319.91 434.172 319.723Z" fill="black"/>
<path d="M355.238 110.388C359.402 96.9629 362.696 86.4589 365.928 76.0171C419.939 89.5045 489.737 196.098 477.058 269.378C466.554 267.327 456.112 265.276 442.438 262.541C435.974 200.636 409.248 148.364 355.176 110.326L355.238 110.388Z" fill="black"/>
<path d="M134.528 78.3179C138.63 90.873 141.987 101.253 146.027 113.683C94.5631 149.422 65.5994 199.207 57.8302 261.548C46.2074 264.469 35.5791 267.141 24.9508 269.876C10.6554 206.852 62.6782 114.429 134.528 78.3179Z" fill="black"/>
<path d="M363.13 471.254C286.681 509.603 214.272 509.292 138.195 472.062C147.083 461.558 154.604 452.608 163.989 441.544C219.866 466.406 276.612 469.078 334.602 441.171C343.365 450.432 351.57 459.072 363.13 471.254Z" fill="black"/>
</g>
<defs>
<clipPath id="clip0_19_72">
<rect width="500" height="500" fill="white"/>
</clipPath>
</defs>
</svg>
