<svg width="96" height="102" viewBox="0 0 96 102" fill="none" xmlns="http://www.w3.org/2000/svg">
<path d="M14.2599 37.57V34.2H48.2799C49.8899 29.38 52.7099 26.54 57.8799 26.81C61.8399 27.02 64.0099 28.75 66.3999 34C68.2699 34.09 70.2399 34.19 72.3899 34.3V37.45H66.2999C64.5899 41.7 61.9699 44.54 57.1799 44.46C52.6499 44.39 50.0299 41.81 48.4799 37.58H14.2699L14.2599 37.57ZM57.4199 40.93C60.3599 40.89 62.7799 38.4 62.7099 35.47C62.6499 32.63 59.9899 30.06 57.1899 30.12C54.3099 30.18 51.9199 32.74 51.9799 35.7C52.0399 38.75 54.3499 40.96 57.4299 40.93H57.4199Z" fill="black"/>
<path d="M52.9699 77.99H72.4399V81.03H52.8999C51.3599 85.47 48.5799 88.18 43.8799 88.12C39.3099 88.07 36.5299 85.49 35.1299 81.05H14.2799V78.01H34.8899C36.4399 73.08 39.4299 70.05 44.7199 70.44C49.1399 70.77 51.7199 73.52 52.9699 77.99ZM38.5699 79.2C38.5399 82.24 40.7999 84.5 43.8999 84.53C46.9999 84.56 49.3599 82.34 49.4099 79.34C49.4499 76.47 46.9599 73.94 44.0499 73.9C41.1199 73.86 38.6099 76.29 38.5799 79.19L38.5699 79.2Z" fill="black"/>
<path d="M38.4999 58.54C36.7299 63.77 33.8599 66.23 29.7199 66.37C25.3899 66.52 22.6999 64.36 20.2899 58.65H14.2999V55.55H20.5399C22.0399 51.03 24.9999 48.51 29.6299 48.61C34.0399 48.7 36.8299 51.22 38.2699 55.46H72.4099V58.53H38.4999V58.54ZM29.4799 62.8C32.4199 62.75 34.8899 60.26 34.8499 57.36C34.8199 54.49 32.2599 52.04 29.3299 52.07C26.3499 52.1 23.9999 54.52 24.0399 57.51C24.0799 60.55 26.4499 62.85 29.4699 62.81L29.4799 62.8Z" fill="black"/>
</svg>
