<svg width="500" height="500" viewBox="0 0 500 500" fill="none" xmlns="http://www.w3.org/2000/svg">
<path d="M87.8682 486.828H60.3933V209.47C21.0968 196.344 -2.05716 173.353 0.144092 131.203C1.85618 98.9182 15.9605 81.2267 58.7627 61.7415C59.4965 46.4958 60.3117 30.4348 61.2085 12.9062H86.8899V62.5568C121.539 76.4981 144.693 97.8584 144.041 136.91C143.47 173.842 122.436 195.203 87.9497 207.84V486.747L87.8682 486.828ZM115.262 134.954C114.935 110.984 94.635 91.2546 70.7473 91.8253C47.5934 92.3145 26.6407 114.001 27.1299 136.829C27.619 160.309 48.4902 179.794 72.6225 179.305C97.4885 178.816 115.506 159.983 115.262 134.872V134.954Z" fill="black"/>
<path d="M417.404 171.235V12.5H442.189V171.806C478.387 184.361 500.481 207.026 499.992 245.344C499.584 282.602 478.55 305.267 442.352 316.681V486.667H417.567V318.638C377.374 306.001 352.671 281.624 355.85 238.495C358.541 202.46 380.961 181.426 417.404 171.235ZM427.269 288.635C452.053 288.88 470.479 270.454 470.723 245.181C470.968 219.907 452.869 200.667 428.41 200.259C405.012 199.933 384.385 220.233 384.059 243.958C383.733 267.846 403.544 288.309 427.187 288.554L427.269 288.635Z" fill="black"/>
<path d="M258.832 289.204C301.472 303.634 321.527 327.033 322.669 360.786C323.892 396.087 306.282 418.018 259.729 437.666V486.502H234.456V435.628C197.605 423.399 177.06 399.267 177.875 361.519C178.609 325.565 199.154 302.819 233.722 291.079V12.7427H258.751V289.204H258.832ZM293.563 362.742C293.156 338.773 272.855 318.636 249.212 318.962C225.814 319.206 205.839 340.077 206.084 363.965C206.328 388.26 226.058 407.42 250.435 407.093C275.22 406.767 293.971 387.445 293.645 362.824L293.563 362.742Z" fill="black"/>
</svg>
