<?xml version="1.0" encoding="UTF-8"?>
<svg id="Layer_2" data-name="Layer 2" xmlns="http://www.w3.org/2000/svg" viewBox="0 0 102 96">
  <g id="Layer_1-2" data-name="Layer 1">
    <g id="fvV40p.tif">
      <g>
        <path d="m37.57,81.74h-3.37v-34.02c-4.82-1.61-7.66-4.43-7.39-9.6.21-3.96,1.94-6.13,7.19-8.52.09-1.87.19-3.84.3-5.99h3.15v6.09c4.25,1.71,7.09,4.33,7.01,9.12-.07,4.53-2.65,7.15-6.88,8.7v34.21Zm3.36-43.16c-.04-2.94-2.53-5.36-5.46-5.29-2.84.06-5.41,2.72-5.35,5.52.06,2.88,2.62,5.27,5.58,5.21,3.05-.06,5.26-2.37,5.23-5.45Z"/>
        <path d="m77.99,43.03v-19.47h3.04v19.54c4.44,1.54,7.15,4.32,7.09,9.02-.05,4.57-2.63,7.35-7.07,8.75v20.85h-3.04v-20.61c-4.93-1.55-7.96-4.54-7.57-9.83.33-4.42,3.08-7,7.55-8.25Zm1.21,14.4c3.04.03,5.3-2.23,5.33-5.33.03-3.1-2.19-5.46-5.19-5.51-2.87-.04-5.4,2.45-5.44,5.36-.04,2.93,2.39,5.44,5.29,5.47Z"/>
        <path d="m58.54,57.5c5.23,1.77,7.69,4.64,7.83,8.78.15,4.33-2.01,7.02-7.72,9.43v5.99h-3.1v-6.24c-4.52-1.5-7.04-4.46-6.94-9.09.09-4.41,2.61-7.2,6.85-8.64V23.59h3.07v33.91Zm4.26,9.02c-.05-2.94-2.54-5.41-5.44-5.37-2.87.03-5.32,2.59-5.29,5.52.03,2.98,2.45,5.33,5.44,5.29,3.04-.04,5.34-2.41,5.3-5.43Z"/>
      </g>
    </g>
  </g>
</svg>