<?xml version="1.0" encoding="UTF-8"?>
<svg id="Layer_2" data-name="Layer 2" xmlns="http://www.w3.org/2000/svg" viewBox="0 0 92 89">
  <g id="Layer_1-2" data-name="Layer 1">
    <g id="BW3vVA.tif">
      <path d="m54.27,59.83c-5.85-3.62-11.63-7.2-17.66-10.93-2.29,2.54-5.22,3.6-8.65,3.04-1.88-.3-3.43-1.27-4.67-2.68-2.73-3.11-2.85-8.17-.08-11.26,1.63-1.83,3.74-2.9,6.36-2.99,2.63-.09,4.57,1.28,6.77,2.78,5.9-3.48,11.82-6.97,17.67-10.43,0-1.14,0-2.12,0-3.1,0-3.84,1.74-6.49,5.28-7.95,3.37-1.4,6.43-.64,9.06,1.64,2.65,2.3,3.43,6.18,2.1,9.4-2.51,6.04-9.11,6.33-12.95,3.85-.48-.31-.9-.72-1.55-1.25-5.96,3.53-11.94,7.07-17.83,10.55v5.58c5.93,3.67,11.85,7.34,17.98,11.13,2.28-2.33,5.07-3.15,8.2-2.6,1.78.31,3.21,1.31,4.46,2.59,2.95,3.04,2.8,7.86.83,10.59-2.39,3.31-6.04,4.73-10.12,3.19-3.77-1.42-6.33-4.56-5.19-11.14Zm13.64,3.25c.04-2.8-2.55-5.46-5.36-5.5-2.84-.04-5.45,2.5-5.49,5.35-.04,2.85,2.49,5.46,5.34,5.5,2.8.04,5.47-2.54,5.51-5.35Zm0-38.84c.02-2.89-2.5-5.39-5.44-5.39-2.96,0-5.44,2.49-5.41,5.41.03,2.81,2.44,5.18,5.3,5.25,2.92.06,5.52-2.41,5.55-5.27Zm-38.14,24.72c2.98-.02,5.34-2.48,5.27-5.48-.07-2.84-2.46-5.28-5.23-5.32-2.86-.05-5.38,2.48-5.4,5.41-.02,2.98,2.4,5.41,5.37,5.39Z"/>
    </g>
  </g>
</svg>