<?xml version="1.0" encoding="UTF-8"?>
<svg id="Layer_2" data-name="Layer 2" xmlns="http://www.w3.org/2000/svg" viewBox="0 0 89 82">
  <g id="Layer_1-2" data-name="Layer 1">
    <g id="kzpzfd.tif">
      <g>
        <path d="m47.12,72.52c-11-5.61-20.27-12.61-24.29-24.7-.78-2.33-1.2-4.87-1.25-7.33-.16-7.57-.06-15.14-.06-22.97,9.06-1,18.11-1.66,25.46-8.08,7.22,6.36,16.32,7.12,25.39,8.04,0,8.75.71,17.31-.18,25.7-1.16,11.01-8.32,18.58-17.13,24.62-2.52,1.73-5.26,3.14-7.94,4.72ZM24.51,20.38c0,5.77.11,11.18-.03,16.58-.16,6.55,1.51,12.49,5.38,17.8,4.51,6.17,10.35,10.67,17.3,14.11,8.95-5.04,16.86-10.94,20.58-20.91,3.35-8.96,1.04-18.27,1.87-27.56-8.2-.82-15.85-2.19-22.61-6.75-6.76,4.57-14.42,5.93-22.49,6.73Z"/>
        <path d="m45.36,22.65h3.33v36.14h-3.33V22.65Z"/>
      </g>
    </g>
  </g>
</svg>