<svg width="101" height="88" viewBox="0 0 101 88" fill="none" xmlns="http://www.w3.org/2000/svg">
<path d="M75.11 35.8298C70.2 35.1998 68.4 35.8398 64.44 39.4398C63.42 38.7198 62.37 37.9698 61.14 37.0998C64.43 32.1798 69.14 30.9098 74.71 31.5598L74.78 30.9398C72.96 29.1998 71.14 27.4698 69.11 25.5398C69.86 24.7198 70.6 23.8998 71.57 22.8398C75.51 26.4898 79.31 30.0098 83.29 33.6898C79.33 37.3598 75.58 40.8298 71.65 44.4798C70.74 43.5098 69.97 42.6898 69 41.6598C71.03 39.7198 72.92 37.9098 75.11 35.8198V35.8298Z" fill="black"/>
<path d="M61.19 62.1602C62.26 61.3302 63.27 60.5502 64.54 59.5702C67.17 62.9302 70.53 64.0902 74.85 63.3202C72.81 61.4502 70.91 59.7102 68.88 57.8502C69.86 56.8102 70.59 56.0302 71.56 54.9902C75.43 58.5602 79.24 62.0802 83.28 65.8202C79.34 69.4802 75.55 73.0102 71.64 76.6402C70.74 75.6902 70.01 74.9302 69.06 73.9302C71.11 72.1702 73.09 70.4602 75.08 68.7502C74.95 68.5602 74.81 68.3802 74.68 68.1902C72.22 67.8002 69.71 67.6102 67.32 66.9602C64.79 66.2702 62.82 64.5802 61.19 62.1502V62.1602Z" fill="black"/>
<path d="M61.57 55.32C60.91 56.05 60.37 56.65 59.26 57.87C57.54 55.73 55.93 53.73 54 51.34C52.11 53.72 50.51 55.73 48.81 57.88C47.66 56.66 47.12 56.08 46.43 55.34C48.26 53.42 50 51.6 51.9 49.6C49.96 47.56 48.2 45.72 46.37 43.81C47.02 43.2 47.56 42.7 48.26 42.04C50.15 43.82 51.99 45.55 54.02 47.45C55.98 45.59 57.77 43.9 59.69 42.08C60.34 42.63 60.95 43.13 61.7 43.76C59.84 45.71 58.09 47.55 56.13 49.6C57.97 51.53 59.67 53.31 61.58 55.32H61.57Z" fill="#EC4E3E"/>
<path d="M24.99 67.5299V63.4699C27.9 63.4699 30.71 63.4099 33.51 63.4799C37.44 63.5799 41.19 63.2599 43.98 59.6699C45.2 60.5199 46.26 61.2599 47.44 62.0899C45.4 65.4099 42.36 67.1399 38.85 67.4299C34.34 67.7999 29.78 67.5199 24.99 67.5199V67.5299Z" fill="black"/>
<path d="M47.4 37.0794C46.28 37.8894 45.28 38.6094 44.12 39.4294C38.79 33.5294 31.54 36.4394 25 35.3094V31.1094C30.39 31.4394 35.65 31.6294 40.89 32.1494C43.15 32.3694 45.82 34.7194 47.4 37.0794Z" fill="black"/>
</svg>
