<?xml version="1.0" encoding="UTF-8"?>
<svg id="Layer_2" data-name="Layer 2" xmlns="http://www.w3.org/2000/svg" viewBox="0 0 114 106">
  <g id="Layer_1-2" data-name="Layer 1">
    <g id="VhHywV.tif">
      <path d="m58.16,58.24c-2.44,3.1-4.76,6.16-7.21,9.12-2.95,3.56-5.97,7.1-10.59,8.62-1.1.36-2.24.82-3.36.83-6.14.08-12.29.04-18.65.04v-5.42c4.13,0,8.27-.18,12.38.04,6.13.34,10.94-1.87,14.66-6.71,3-3.92,6.09-7.77,9.25-11.8-.78-1.17-1.35-2.17-2.05-3.05-2.98-3.74-5.98-7.46-9.01-11.16-2.77-3.39-6.5-4.7-10.76-4.72-4.74-.02-9.49,0-14.46,0v-5.47c.2-.14.33-.32.46-.32,5.82.06,11.66-.1,17.46.28,5.92.39,10.17,3.98,13.72,8.44,2.26,2.85,4.47,5.73,6.69,8.61.43.56.8,1.18,1.36,2.02,2.72-3.8,4.96-7.12,7.4-10.3,3.09-4.03,6.63-7.66,11.86-8.67,2.58-.5,5.27-.39,8.53-.59-2.85-2.67-5.37-5.03-8.2-7.69,1.08-1.14,2.1-2.23,3.4-3.61,5.31,4.9,10.43,9.63,15.78,14.57-5.26,4.89-10.36,9.63-15.59,14.49-1.31-1.16-2.45-2.17-3.85-3.41,3.06-2.91,5.71-5.44,8.6-8.2-5.1-.6-9.69-.4-12.99,3.7-3.81,4.73-7.4,9.64-11.41,14.91,4.32,5.52,8.17,10.98,12.62,15.91,2.85,3.16,7.11,3.19,11.68,2.6-2.87-2.71-5.5-5.18-8.26-7.78,1.24-1.34,2.22-2.41,3.36-3.64,5.4,5.01,10.5,9.75,15.83,14.7-5.22,4.84-10.27,9.53-15.65,14.53-1.23-1.29-2.31-2.43-3.53-3.71,2.88-2.75,5.53-5.27,8.69-8.29-1.72,0-2.86-.08-3.98.01-6.03.53-10.83-1.85-14.56-6.38-3.24-3.93-6.23-8.07-9.63-12.49Z"/>
    </g>
  </g>
</svg>