<?xml version="1.0" encoding="UTF-8"?>
<svg id="Layer_2" data-name="Layer 2" xmlns="http://www.w3.org/2000/svg" viewBox="0 0 132 116">
  <g id="Layer_1-2" data-name="Layer 1">
    <g id="_4ObnZQ.tif" data-name="4ObnZQ.tif">
      <g>
        <path d="m98.48,27.08c3.77,3.48,8.18,7.54,12.92,11.91-4.55,4.23-8.98,8.34-13.62,12.65-1.06-1.14-1.97-2.12-3.03-3.25,2.44-2.32,4.69-4.47,7.14-6.81-5.08-.97-9.17.26-12.42,4.27-1.4-1.02-2.64-1.91-3.98-2.88,1.75-2.82,4.17-4.79,7.12-5.66,2.8-.83,5.83-.92,9.05-1.37-2.25-2.1-4.49-4.19-7.31-6.82,1.41-.69,2.61-1.28,4.14-2.03Z"/>
        <path d="m97.77,89.09c-1.1-1.2-2-2.19-3.01-3.29,2.46-2.34,4.72-4.48,7.11-6.75-3.2-.39-6.39-.23-9.12-1.26-2.73-1.02-5.01-3.23-7.88-5.19,1.88-1.4,3.1-2.3,4.53-3.37,3.22,3.79,7.21,5.2,12.36,4.22-2.37-2.2-4.56-4.25-6.98-6.5.96-1.02,1.82-1.93,2.95-3.13,4.56,4.19,8.96,8.23,13.7,12.59-4.57,4.24-8.99,8.34-13.64,12.66Z"/>
        <path d="m65.6,45.68c-6.38-6.92-14.78-3.32-22.43-4.66v-4.79c6.85.6,13.84-1.26,20.39,1.74,2.24,1.02,4.1,2.86,6.44,4.54-1.81,1.31-3.05,2.2-4.4,3.17Z"/>
        <path d="m43.06,78.57v-4.9c3.42,0,6.79-.1,10.15.02,4.64.16,8.98-.38,12.28-4.39,1.41,1,2.66,1.88,4.05,2.87-2.6,3.8-6.24,5.96-10.56,6.29-5.19.4-10.43.1-15.92.1Z"/>
        <path d="m79.83,68.65h-4.08v-13.78c-1.48-.09-2.69-.16-4.07-.24v-4.06c2.46-.26,4.4-1.3,4.58-4.15h3.57v22.23Z"/>
      </g>
    </g>
  </g>
</svg>