<?xml version="1.0" encoding="UTF-8"?>
<svg id="Layer_2" data-name="Layer 2" xmlns="http://www.w3.org/2000/svg" viewBox="0 0 112 104">
  <g id="Layer_1-2" data-name="Layer 1">
    <g id="NKh4BV.tif">
      <g>
        <path d="m91.14,59.96c.62,19.3-15.87,35.61-35.44,35.49-19.16-.12-35.57-15.9-35.21-36.21.31-18.21,15.8-35.16,36.77-34.52,17.74.54,34.45,16.04,33.88,35.25Zm-66.87,0c-.22,17.46,14.04,31.12,30.23,31.71,19.06.69,32.44-14.4,33.1-30.08.79-18.97-14.42-32.6-30.3-33.24-18.46-.75-33.26,14.34-33.02,31.61Z"/>
        <path d="m55.97,40.41c-5.15-.4-9.7,1.4-14.02,3.97-.63.37-1.17.86-2.02.34-1.25-.78-1.45-1.79-.38-2.76,1.61-1.47,3.61-2.31,5.58-3.1,3.95-1.58,8.08-2.28,12.36-2.03,4.71.27,9.04,1.7,13.13,3.97.57.32,1.07.77,1.58,1.19.58.48.64,1.15.47,1.82-.28,1.08-1.28,1.46-2.29.9-2.08-1.16-4.09-2.42-6.42-3.12-1.34-.4-2.66-.93-4.03-1.13-1.29-.19-2.64-.04-3.96-.04Z"/>
        <path d="m55.86,83.24c-5.41,0-10.43-1.45-15.08-4.16-.56-.32-1.02-.82-1.49-1.27-.57-.54-.58-1.29-.19-1.81.42-.56,1.1-1.05,1.93-.71.61.25,1.21.54,1.77.88,5.7,3.48,11.81,4.3,18.31,3.08,2.89-.54,5.53-1.53,7.97-3.13.21-.14.41-.28.63-.39,1.17-.57,2.52-.44,2.91.27.46.82-.11,2.32-1.27,2.91-.96.48-1.85,1.08-2.81,1.54-4,1.92-8.25,2.78-12.68,2.79Z"/>
        <path d="m56.06,76.63c-3.86-.08-7.26-.97-10.42-2.7-.64-.35-1.2-.88-1.73-1.4-.59-.57-.77-1.26-.26-2.01.53-.79,1.23-1.02,2.14-.6.9.42,1.81.85,2.61,1.42,1.05.76,2.24,1.02,3.43,1.34,4.85,1.3,9.29.26,13.42-2.38.83-.53,1.57-.92,2.49-.32,1,.65,1.15,1.7.24,2.46-2.25,1.89-4.83,3.2-7.73,3.66-1.46.23-2.91.73-4.17.52Z"/>
        <path d="m55.89,43.7c3.56-.37,6.92.63,10.06,2.47.57.33,1.12.71,1.63,1.13,1.03.86,1.19,1.5.65,2.31-.54.81-1.7,1.1-2.63.43-.88-.63-1.81-1.1-2.79-1.55-5.56-2.57-10.87-2.13-15.98,1.18-.2.13-.35.37-.56.47-.97.47-2.3.23-2.7-.46-.47-.82-.17-1.7.89-2.51,3.34-2.55,7.09-3.79,11.43-3.47Z"/>
        <path d="m55.58,50.29c2.94.04,5.38.94,7.65,2.33.56.34.98.86,1.09,1.58.21,1.39-.76,2.25-2.08,1.77-.61-.22-1.2-.54-1.76-.89-2.93-1.79-5.86-1.84-8.86-.15-.71.4-1.47.74-2.25.97-.75.22-1.56.05-1.91-.68-.32-.67-.25-1.41.42-2.02,1.19-1.07,2.61-1.76,4.06-2.28,1.22-.44,2.58-.46,3.65-.63Z"/>
        <path d="m56.33,69.73c-3.18-.08-5.82-.88-8.14-2.61-.86-.64-1.16-1.87-.64-2.58.45-.6,1.65-.79,2.49-.29.84.51,1.58,1.15,2.56,1.44,3.08.89,6.01.77,8.74-1.09.2-.14.42-.26.65-.35,1-.36,1.88-.15,2.19.5.36.77.15,1.99-.57,2.44-1.45.91-2.82,1.99-4.67,2.07-.98.04-1.91.56-2.61.46Z"/>
      </g>
    </g>
  </g>
</svg>