<svg width="500" height="500" viewBox="0 0 500 500" fill="none" xmlns="http://www.w3.org/2000/svg">
<g clip-path="url(#clip0_1_740)">
<path d="M499.88 249.176C504.267 385.576 387.602 500.843 249.147 499.995C113.593 499.147 -2.50582 387.625 0.0411299 244.088C2.23434 115.392 111.824 -4.39895 260.184 0.124131C385.692 3.94048 503.913 113.484 499.88 249.247V249.176ZM26.7841 249.176C25.2276 372.572 126.115 469.111 240.657 473.281C375.504 478.157 470.166 371.512 474.835 260.696C480.424 126.629 372.816 30.3016 260.467 25.7785C129.865 20.478 25.1569 127.124 26.8549 249.176H26.7841Z" fill="black"/>
<path d="M251.058 111.011C214.622 108.184 182.431 120.905 151.868 139.068C147.411 141.683 143.59 145.146 137.577 141.471C128.733 135.958 127.318 128.82 134.888 121.965C146.279 111.576 160.429 105.64 174.366 100.056C202.312 88.89 231.531 83.9429 261.811 85.7097C295.134 87.6179 325.768 97.7241 354.704 113.767C358.737 116.028 362.274 119.209 365.883 122.177C369.986 125.569 370.41 130.304 369.208 135.04C367.227 142.672 360.152 145.358 353.006 141.4C338.291 133.202 324.07 124.297 307.586 119.35C298.105 116.523 288.767 112.778 279.074 111.364C269.947 110.021 260.396 111.081 251.058 111.081V111.011Z" fill="black"/>
<path d="M250.279 413.705C212.004 413.705 176.489 403.457 143.59 384.305C139.628 382.043 136.374 378.509 133.049 375.329C129.016 371.513 128.945 366.212 131.705 362.537C134.676 358.58 139.487 355.117 145.359 357.52C149.675 359.286 153.92 361.336 157.882 363.739C198.208 388.333 241.436 394.128 287.422 385.506C307.869 381.69 326.546 374.693 343.809 363.385C345.295 362.396 346.71 361.407 348.266 360.629C356.544 356.601 366.095 357.519 368.854 362.537C372.109 368.332 368.076 378.933 359.869 383.103C353.077 386.496 346.781 390.736 339.989 393.987C311.689 407.556 281.621 413.634 250.279 413.705Z" fill="black"/>
<path d="M251.694 366.987C224.385 366.421 200.33 360.132 177.974 347.905C173.446 345.432 169.484 341.686 165.734 338.011C161.56 333.983 160.287 329.106 163.895 323.806C167.645 318.222 172.597 316.597 179.035 319.565C185.402 322.533 191.841 325.572 197.5 329.601C204.929 334.972 213.348 336.809 221.767 339.071C256.08 348.259 287.493 340.909 316.712 322.251C322.584 318.505 327.819 315.749 334.328 319.989C341.403 324.583 342.464 332.004 336.026 337.375C320.108 350.732 301.855 359.99 281.338 363.241C271.008 364.867 260.75 368.4 251.835 366.916L251.694 366.987Z" fill="black"/>
<path d="M250.491 134.263C275.678 131.648 299.449 138.715 321.664 151.719C325.697 154.051 329.588 156.737 333.196 159.705C340.484 165.783 341.616 170.306 337.795 176.031C333.975 181.755 325.768 183.805 319.188 179.07C312.962 174.617 306.383 171.296 299.449 168.115C260.113 149.952 222.546 153.062 186.393 176.455C184.978 177.374 183.917 179.07 182.431 179.776C175.568 183.098 166.159 181.402 163.329 176.525C160.004 170.73 162.126 164.511 169.626 158.786C193.256 140.765 219.786 132.001 250.491 134.263Z" fill="black"/>
<path d="M248.298 180.834C269.098 181.117 286.361 187.478 302.421 197.301C306.383 199.704 309.354 203.379 310.132 208.468C311.618 218.291 304.755 224.369 295.417 220.977C291.101 219.422 286.927 217.16 282.965 214.687C262.235 202.036 241.506 201.683 220.281 213.627C215.258 216.454 209.881 218.857 204.363 220.482C199.057 222.037 193.326 220.835 190.85 215.676C188.586 210.941 189.081 205.711 193.821 201.4C202.241 193.838 212.287 188.962 222.545 185.287C231.177 182.177 240.799 182.036 248.369 180.834H248.298Z" fill="black"/>
<path d="M253.605 318.224C231.107 317.659 212.429 312.005 196.015 299.778C189.931 295.255 187.808 286.562 191.487 281.545C194.671 277.304 203.161 275.961 209.104 279.495C215.047 283.099 220.282 287.623 227.215 289.672C249.006 295.962 269.735 295.114 289.05 281.969C290.465 280.979 292.021 280.131 293.648 279.495C300.723 276.951 306.949 278.435 309.142 283.029C311.689 288.471 310.204 297.093 305.11 300.273C294.851 306.704 285.159 314.337 272.07 314.902C265.137 315.185 258.557 318.86 253.605 318.153V318.224Z" fill="black"/>
</g>
<defs>
<clipPath id="clip0_1_740">
<rect width="500" height="500" fill="white"/>
</clipPath>
</defs>
</svg>
