<svg width="500" height="500" viewBox="0 0 500 500" fill="none" xmlns="http://www.w3.org/2000/svg">
<g clip-path="url(#clip0_1_736)">
<path d="M308.333 243.906C323.313 279.667 337.071 295.056 344.084 301.135C347.165 303.794 350.742 302.328 351.658 301.021C365.458 281.111 378.019 239.077 386.165 205.953C387.787 199.291 393.694 201.044 393.545 207.785C393.294 232.416 389.142 260.785 384.442 287.551C378.594 320.799 371.184 351.407 361.216 367.742H238.031C235.989 357.578 241.292 351.039 249.7 348.21C257.494 345.542 280.584 351.258 280.584 351.258C273.61 338.449 271.578 323.945 276.704 315.633C280.543 309.418 292.883 306.9 301.843 308.464C303.282 308.715 303.311 307.939 302.083 307.271C279.71 295.091 268.341 310.713 267.176 318.231C265.844 326.968 266.258 329.881 267.285 337.826C237.36 340.139 226.237 324.613 223.018 318.704C222.449 317.74 221.852 318.042 221.904 319.447C222.3 327.671 222.96 350.184 220.412 358.374C218.179 365.7 214.908 367.742 214.908 367.742H159.247C159.443 363.061 161.715 353.684 170.703 351.452C181.355 348.803 182.934 349.22 187.29 337.603C191.784 325.616 194.75 310.445 198.126 285.409C201.024 264.095 205.179 242.319 206.557 235.27C206.861 233.751 206.483 233.255 205.099 233.706C201.271 234.956 190.98 237.108 167.833 235.463C138.89 233.403 135.119 212.454 135.51 198.829C146.764 193.139 190.756 173.6 212.658 149.997C213.776 147.959 215.745 145.408 211.424 145.111C207.721 144.842 207.734 144.307 169.423 142.919C168.97 142.896 168.401 142.593 169.085 142.115C174.268 138.393 198.332 121.988 227.385 114.379C241.188 110.766 245.791 114.379 246.399 122.513C246.784 127.759 246.096 134.534 245.596 141.441C245.177 147.217 251.531 146.321 252.558 143.079C252.558 143.079 262.602 114.162 277.105 103.385C285.565 97.1179 298.794 94.6344 303.702 98.9047C296.751 108.888 289.996 123.929 288.17 135.533C287.045 142.514 285.812 153.656 284.98 161.174C284.182 168.708 281.002 172.578 279.768 176.243C278.546 179.907 280.584 184.48 283.344 189.171L308.333 243.906Z" fill="black"/>
<path d="M216.559 176.379L200 177.306L212.832 187.562L208.648 203.226L222.572 194.481L236.529 203.226L232.33 187.562L245.161 177.306L228.592 176.379L222.572 161.29L216.559 176.379Z" fill="white"/>
<path d="M250 487.097C380.945 487.097 487.097 380.945 487.097 250C487.097 119.055 380.945 12.9033 250 12.9033C119.055 12.9033 12.9032 119.055 12.9032 250C12.9032 380.945 119.055 487.097 250 487.097Z" stroke="black" stroke-width="25"/>
</g>
<defs>
<clipPath id="clip0_1_736">
<rect width="500" height="500" fill="white"/>
</clipPath>
</defs>
</svg>
