<svg width="151" height="151" viewBox="0 0 151 151" fill="none" xmlns="http://www.w3.org/2000/svg">
<path d="M77.4101 32.6799C75.4701 34.4699 74.0201 35.3899 72.7001 36.3999C59.2901 46.7599 53.8901 60.7199 57.1601 77.2699C60.5701 94.5399 71.7601 104.91 88.7801 108.96C91.3201 109.56 93.39 110 96 110.32C97.46 110.5 99.5301 110.37 101.23 110.8C92.9801 122.38 68.6901 124.7 52.5701 116.04C32.5901 105.32 23.7001 81.3299 31.9301 60.3899C39.3101 41.6099 60.2801 28.2499 77.4101 32.6699V32.6799ZM66.7001 36.3999C51.7801 37.8199 38.5801 49.8899 34.0401 65.7399C29.5701 81.3599 35.6501 99.18 48.6701 109.16C62.3001 119.61 80.6501 119.86 90.5301 113.7C52.3901 106.49 40.5001 63.0199 66.7001 36.3999Z" fill="black"/>
<path d="M102.7 97.78C103.07 93.97 103.34 91.27 103.59 88.66C101.73 86.57 100.01 84.65 97.6501 82.01C101.03 81.24 103.5 80.68 106.38 80.02C107.62 77.91 109 75.55 110.89 72.34C112.72 75.24 114.14 77.5 115.71 80C118.13 80.55 120.76 81.14 124.39 81.97C121.91 84.76 120.11 86.79 118.41 88.72C118.66 91.5 118.9 94.08 119.22 97.69C115.98 96.25 113.53 95.16 111.02 94.04C108.6 95.13 106.24 96.19 102.69 97.8L102.7 97.78ZM106.27 87.47C106.35 89.16 106.41 90.72 106.5 92.62C108.23 91.99 109.59 91.5 111.08 90.96C112.36 91.45 113.71 91.97 115.41 92.62V87.85C116.56 86.32 117.43 85.17 118.47 83.79C116.76 83.31 115.36 82.92 113.96 82.53C112.95 81.19 111.99 79.91 110.92 78.5C109.83 80.05 108.9 81.36 108.05 82.57C106.46 83 105.08 83.38 103.42 83.83C104.52 85.24 105.41 86.39 106.26 87.47H106.27Z" fill="black"/>
<path d="M88.1602 71.63C88.3902 73.97 88.6502 76.53 89.0002 80.03C85.7602 78.79 83.2602 77.83 80.6202 76.82C78.3502 77.77 75.9702 78.77 72.6502 80.16C72.9102 76.75 73.1002 74.23 73.3202 71.39C71.6902 69.55 69.8702 67.51 67.4202 64.75C70.8302 63.94 73.4402 63.31 76.2602 62.64C77.4802 60.44 78.7302 58.17 80.5002 54.98C82.3402 57.83 83.7802 60.05 85.5102 62.74C87.6302 63.19 90.1802 63.73 93.8402 64.51C91.8502 67.01 90.2402 69.03 88.1602 71.63ZM88.1302 66.65C86.2802 65.99 84.7902 65.46 83.3702 64.96C82.5402 63.7 81.7702 62.54 80.7702 61.03C79.7302 62.58 78.9302 63.78 78.1302 64.98C76.6402 65.52 75.1502 66.06 73.3502 66.72C74.4902 68.14 75.3802 69.26 76.1802 70.26C76.2602 71.96 76.3202 73.49 76.4002 75.29C78.2102 74.63 79.5702 74.14 80.7002 73.72C82.3902 74.28 83.8202 74.74 85.5602 75.31C85.4302 73.31 85.3302 71.86 85.2402 70.42C86.1602 69.22 87.0202 68.1 88.1302 66.66V66.65Z" fill="black"/>
</svg>
