<svg width="159" height="153" viewBox="0 0 159 153" fill="none" xmlns="http://www.w3.org/2000/svg">
<path d="M30.43 76.0398C35.56 73.0698 40.12 70.4298 45.19 67.4898C43.22 66.2098 41.61 65.0798 39.91 64.0898C36.28 61.9698 32.57 59.9598 28.98 57.7798C28.43 57.4498 27.9 56.2898 28.07 55.7398C28.48 54.4598 29.21 53.2198 30.06 52.1798C30.31 51.8798 31.55 52.0898 32.14 52.4198C36.99 55.1498 41.78 57.9698 46.61 60.7298C47.01 60.9598 47.54 60.9598 48.36 61.1498V45.4198C53.01 46.0398 54.6 47.7198 54.6 51.7698C54.6 55.5098 54.64 59.2498 54.58 62.9798C54.55 64.5598 55.06 65.5498 56.51 66.3698C61.55 69.2098 66.51 72.2198 71.51 75.1398C71.77 75.2898 72.15 75.2198 72.67 75.2798C72.76 74.5898 72.9 73.9798 72.91 73.3598C72.93 67.7098 72.91 62.0598 72.93 56.4198C72.93 55.1098 72.72 54.2298 71.28 53.5198C68.36 52.0898 65.65 50.2298 62.84 48.5798C59.84 46.8198 58.5367 43.9465 58.93 39.9598C63.56 42.5698 67.96 45.0498 72.92 47.8398C72.92 45.6698 72.92 43.9798 72.92 42.2898C72.92 38.0498 73.01 33.8198 72.88 29.5798C72.82 27.6398 73.36 26.7998 75.38 27.0498C76.51 27.1898 77.67 27.0698 79.12 27.0698V47.8198C84.08 45.0398 88.52 42.5398 93.04 39.9998C94.3 44.7898 93.9 45.8398 90.18 48.0398C86.95 49.9498 83.68 51.7998 80.47 53.7598C79.93 54.0898 79.31 54.8398 79.3 55.3998C79.22 61.9398 79.25 68.4898 79.25 75.6598C80.82 74.7498 81.96 74.0998 83.1 73.4398C87.35 70.9898 91.56 68.4398 95.89 66.1398C97.36 65.3598 97.65 64.3998 97.63 62.9598C97.58 59.1398 97.61 55.3198 97.61 51.4998C97.61 47.6198 99.22 45.9398 103.65 45.4198V61.0998C105.15 60.4998 106.33 60.1798 107.37 59.5898C111.53 57.2598 115.7 54.9598 119.73 52.4298C121.17 51.5298 121.85 51.5198 122.47 53.0998C122.71 53.6998 123 54.3098 123.4 54.8098C124.62 56.3298 124.45 57.0998 122.55 58.0998C118.04 60.4798 113.73 63.2298 109.35 65.8498C108.66 66.2598 108.01 66.7498 106.92 67.4898C111.82 70.3498 116.35 72.9898 120.91 75.6498C120.45 77.6298 116.71 79.4798 114.95 78.4898C110.87 76.1998 106.85 73.8098 102.7 71.6698C101.79 71.1998 100.21 71.1798 99.32 71.6598C94.22 74.4198 89.25 77.4198 84.2 80.2798C82.85 81.0498 82.84 81.5498 84.17 82.3198C89.42 85.3598 94.62 88.4998 99.92 91.4598C100.59 91.8398 101.9 91.6198 102.66 91.1998C106.4 89.1498 110.04 86.9398 113.73 84.7998C116.4 83.2498 119.05 83.9898 121.16 86.9998C116.61 89.6598 112.06 92.3098 106.97 95.2798C109.55 96.8798 111.75 98.2898 113.99 99.6198C116.89 101.33 119.78 103.04 122.76 104.6C124.34 105.43 124.46 106.28 123.61 107.72C121.55 111.23 121.59 111.26 117.96 109.2C114.02 106.97 110.1 104.71 106.15 102.5C105.5 102.14 104.75 101.95 103.72 101.55V117.11C99.31 117.13 97.6 115.52 97.6 111.52C97.6 107.7 97.55 103.88 97.62 100.06C97.65 98.3498 97.28 97.2398 95.57 96.3398C90.73 93.7598 86.04 90.8898 81.28 88.1698C80.76 87.8698 80.13 87.7698 79.25 87.4798C79.25 94.3998 79.21 100.94 79.31 107.49C79.31 108.09 80.1 108.86 80.71 109.24C83.91 111.23 87.15 113.15 90.41 115.04C93.79 117 94.42 118.76 92.95 122.79C88.51 120.29 84.09 117.8 79.3 115.1V135.37H72.95V114.91C68.07 117.69 63.62 120.23 58.72 123.03C58.72 120.79 58.64 119.08 58.77 117.37C58.81 116.9 59.42 116.36 59.9 116.07C63.75 113.75 67.64 111.5 71.48 109.17C72.04 108.83 72.8 108.18 72.81 107.67C72.9 100.96 72.87 94.2498 72.87 86.9698C70.34 88.3698 68.22 89.5098 66.12 90.6998C63.18 92.3698 60.3 94.1498 57.31 95.7098C55.34 96.7398 54.42 98.0498 54.54 100.37C54.73 103.85 54.59 107.34 54.59 110.83C54.59 115.26 53.25 116.72 48.43 117.26V101.04C45.44 102.73 42.91 104.14 40.41 105.57C37.56 107.2 34.69 108.8 31.9 110.54C30.75 111.26 30.13 111.24 29.75 109.88C29.69 109.66 29.44 109.5 29.32 109.29C26.93 105.15 27.35 105.8 30.69 103.86C34.85 101.44 39.02 99.0498 43.17 96.6198C43.71 96.2998 44.14 95.7898 44.86 95.1598C40.06 92.3598 35.47 89.6798 30.86 86.9898C33.06 83.9098 35.64 83.2698 38.52 84.9498C42.13 87.0498 45.7 89.2298 49.37 91.1998C50.15 91.6198 51.54 91.6998 52.29 91.2798C57.46 88.4198 62.52 85.3698 67.64 82.4198C69.11 81.5698 69.36 81.1298 67.61 80.1698C62.66 77.4698 57.82 74.5798 52.95 71.7298C51.63 70.9598 50.55 70.8698 49.11 71.7598C45.13 74.2098 41.02 76.4498 36.91 78.6798C36.35 78.9798 35.38 78.9798 34.81 78.6998C33.38 77.9998 32.06 77.0698 30.41 76.0498L30.43 76.0398Z" fill="black"/>
</svg>
