<svg width="69" height="73" viewBox="0 0 69 73" fill="none" xmlns="http://www.w3.org/2000/svg">
<path d="M45.17 55.2999V0.129883C52.27 1.84988 59.27 3.10988 64.47 8.54988C67.28 11.4899 68.86 16.3799 68.25 20.4699C61.67 19.6699 55.08 18.8699 48.18 18.0299V21.0999C48.18 34.5499 48.3 47.9999 48.07 61.4399C48.02 64.0899 47.23 67.1799 45.69 69.2699C42.41 73.7499 37.34 73.2499 32.51 72.4899C29.9 72.0799 27.67 70.8099 26.24 68.5099C22.5 62.4799 26.53 55.8899 34.21 55.5199C36.86 55.3899 39.52 55.5099 42.18 55.4799C43.07 55.4799 43.97 55.3699 45.16 55.2899L45.17 55.2999ZM44.24 58.7199C39.73 59.2299 35.62 59.4099 31.65 60.2399C28.05 60.9899 28.54 65.9999 30.52 67.4199C33.2 69.3499 38.51 69.7499 41.38 67.9399C44.57 65.9299 44.15 62.6599 44.25 58.7099L44.24 58.7199ZM63.77 15.9699C62.99 10.4599 56.09 6.40988 48.99 5.54988C48.99 7.95988 48.92 10.3499 49.05 12.7199C49.08 13.2399 49.79 14.0899 50.28 14.1599C54.68 14.8299 59.1 15.3599 63.77 15.9699Z" fill="black"/>
<path d="M10.92 24.4697H14.73V34.5697C17.58 34.5697 20.13 34.6097 22.68 34.5597C24.14 34.5297 25.05 34.8197 25.01 36.5997C24.97 38.2797 24.03 38.4497 22.74 38.4397C20.19 38.4097 17.63 38.4397 14.85 38.4397V48.5097H10.92C10.92 45.9897 10.79 43.5097 10.96 41.0597C11.1 38.9297 10.26 38.2697 8.24002 38.4097C6.34002 38.5397 4.42002 38.4197 2.52002 38.4297C1.23002 38.4297 0.52002 37.9597 0.52002 36.5297C0.52002 35.1297 1.16002 34.5797 2.48002 34.5897C4.55002 34.5897 6.63002 34.4997 8.70002 34.5997C10.47 34.6797 11.02 33.9397 10.95 32.2497C10.85 29.6997 10.92 27.1497 10.92 24.4797V24.4697Z" fill="black"/>
</svg>
