<svg width="500" height="500" viewBox="0 0 500 500" fill="none" xmlns="http://www.w3.org/2000/svg">
<g clip-path="url(#clip0_15_201)">
<path d="M328.985 378.602V0C381.299 11.8034 432.876 20.4501 471.19 57.782C491.894 77.9577 503.536 111.515 499.041 139.583C450.559 134.093 402.003 128.603 351.163 122.838V143.906C351.163 236.206 352.047 328.506 350.353 420.738C349.984 438.924 344.164 460.129 332.817 474.471C308.649 505.215 271.293 501.784 235.705 496.568C216.474 493.755 200.044 485.039 189.507 469.256C161.95 427.875 191.644 382.651 248.231 380.112C267.756 379.22 287.356 380.044 306.955 379.838C313.512 379.838 320.144 379.083 328.912 378.534L328.985 378.602ZM322.133 402.072C288.903 405.572 258.62 406.807 229.369 412.503C202.843 417.65 206.454 452.031 221.043 461.776C240.789 475.02 279.914 477.765 301.06 465.344C324.564 451.55 321.47 429.11 322.207 402.003L322.133 402.072ZM466.032 108.702C460.285 70.8894 409.445 43.0963 357.131 37.1946C357.131 53.7331 356.616 70.1345 357.574 86.3986C357.795 89.9671 363.026 95.8002 366.636 96.2805C399.056 100.878 431.623 104.515 466.032 108.702Z" fill="black"/>
<path d="M76.6281 167.031H104.701V236.342C125.7 236.342 144.488 236.616 163.277 236.273C176.715 237.371 180.739 238.058 180.445 250.273C176.42 262.9 173.224 262.968 163.719 262.9C144.93 262.694 126.068 262.9 105.585 262.9V332.005H76.6281C76.6281 314.711 75.6702 297.692 76.9228 280.879C77.9543 266.262 71.7651 261.733 56.8817 262.694C42.8823 263.586 28.7356 262.762 14.7362 262.831C5.23135 262.831 0 259.606 0 249.792C0 240.185 0.690776 236.411 10.4167 236.479C25.6686 236.479 45.0191 235.862 60.2711 236.548C73.3124 237.097 77.3649 232.019 76.8491 220.421C76.1123 202.922 76.6281 185.422 76.6281 167.1V167.031Z" fill="black"/>
</g>
<defs>
<clipPath id="clip0_15_201">
<rect width="500" height="500" fill="white"/>
</clipPath>
</defs>
</svg>
