<svg width="500" height="500" viewBox="0 0 500 500" fill="none" xmlns="http://www.w3.org/2000/svg">
<path d="M230.275 242.034V284.94H220.28V217.805L265.011 262.611V219.475H275.012V286.855L230.275 242.034ZM333.894 216.842C314.325 216.842 298.41 232.754 298.41 252.327C298.41 271.891 314.325 287.803 333.894 287.803C353.458 287.803 369.38 271.891 369.38 252.327C369.38 232.754 353.458 216.842 333.894 216.842ZM333.894 277.726C320.024 277.726 308.73 266.329 308.73 252.327C308.73 238.323 320.024 226.929 333.894 226.929C347.771 226.929 359.052 238.323 359.052 252.327C359.052 266.329 347.771 277.726 333.894 277.726ZM161.364 216.842C141.795 216.842 125.88 232.754 125.88 252.327C125.88 271.891 141.795 287.803 161.364 287.803C180.936 287.803 196.848 271.891 196.848 252.327C196.848 232.754 180.937 216.842 161.364 216.842ZM161.364 277.726C147.488 277.726 136.208 266.329 136.208 252.327C136.208 238.323 147.488 226.929 161.364 226.929C175.236 226.929 186.527 238.323 186.527 252.327C186.527 266.329 175.236 277.726 161.364 277.726ZM82.3533 257.312L82.3125 257.295C75.6312 255.173 71.1596 253.082 67.7903 250.507C62.9739 246.839 60.5264 242.157 60.5264 236.596C60.5264 231.388 62.9483 226.312 67.1688 222.643C71.4813 218.899 77.4232 216.842 83.8956 216.842C97.4425 216.842 105.183 225.867 105.508 226.255L97.2885 231.807C95.3843 230.385 90.3827 227.193 83.8951 227.193C75.7458 227.193 70.8754 231.973 70.8754 236.596C70.8754 239.821 72.6442 243.367 85.4417 247.439L85.4914 247.447C92.1547 249.563 96.6434 251.66 100.008 254.228C104.83 257.905 107.273 262.586 107.273 268.148C107.273 273.356 104.851 278.44 100.621 282.102C96.3179 285.838 90.3779 287.894 83.8989 287.894C70.3563 287.894 62.6144 278.877 62.2904 278.488L70.5168 272.935C72.4177 274.36 77.4198 277.552 83.8984 277.552C92.051 277.552 96.9252 272.781 96.9252 268.148C96.9266 264.923 95.1626 261.376 82.3533 257.312ZM409.818 257.312L409.774 257.295C403.098 255.173 398.621 253.082 395.258 250.507C390.446 246.837 387.987 242.156 387.987 236.594C387.987 231.387 390.416 226.311 394.64 222.642C398.937 218.899 404.873 216.842 411.363 216.842C424.909 216.842 432.655 225.867 432.983 226.255L424.753 231.807C422.854 230.385 417.852 227.193 411.363 227.193C403.208 227.193 398.335 231.973 398.335 236.596C398.335 239.821 400.106 243.367 412.913 247.439L412.964 247.447C419.635 249.563 424.107 251.66 427.479 254.228C432.286 257.905 434.737 262.586 434.737 268.148C434.737 273.356 432.316 278.44 428.098 282.102C423.789 285.838 417.847 287.894 411.364 287.894C397.821 287.894 390.085 278.877 389.758 278.488L397.98 272.935C399.887 274.36 404.874 277.552 411.364 277.552C419.525 277.552 424.385 272.781 424.385 268.148C424.384 264.923 422.621 261.376 409.818 257.312Z" fill="black"/>
<path d="M250 475C374.264 475 475 374.264 475 250C475 125.736 374.264 25 250 25C125.736 25 25 125.736 25 250C25 374.264 125.736 475 250 475Z" stroke="black" stroke-width="25"/>
</svg>
