<svg width="114" height="113" viewBox="0 0 114 113" fill="none" xmlns="http://www.w3.org/2000/svg">
<path d="M27.54 91.5002C28.51 88.3802 29.45 85.2602 30.47 82.1602C32.48 76.0302 34.6 69.9202 36.49 63.7502C36.69 63.0902 35.92 61.7702 35.23 61.2502C28.13 55.8202 20.95 50.4902 13.79 45.1302C13.29 44.7602 12.84 44.3302 11.74 43.4102C13.35 43.4102 14.22 43.4102 15.08 43.4102C23.5 43.4102 31.91 43.3602 40.33 43.4502C42.16 43.4702 43.12 43.0702 43.71 41.1402C46.35 32.4202 49.18 23.7602 51.95 15.0802C52.09 14.6402 52.34 14.2402 52.84 13.1602C53.52 14.9802 54.04 16.2002 54.44 17.4602C57.01 25.6002 59.51 33.7602 62.2 41.8602C62.44 42.5902 63.91 43.3302 64.81 43.3502C73.39 43.4602 81.98 43.4202 90.56 43.4202C91.44 43.4202 92.33 43.4202 93.21 43.4202C93.27 43.6002 93.34 43.7702 93.4 43.9502C90.41 46.2302 87.43 48.5302 84.41 50.7902C79.77 54.2702 75.13 57.7502 70.44 61.1602C69.19 62.0702 68.8 62.8702 69.34 64.4802C72.14 72.7102 74.77 81.0002 77.45 89.2702C77.69 90.0102 77.85 90.7802 77.58 91.8302C73.97 89.2602 70.33 86.7202 66.74 84.1202C62.58 81.1102 58.43 78.0802 54.32 74.9902C53.2 74.1502 52.41 74.2002 51.25 75.0402C43.59 80.6702 35.86 86.2102 28.15 91.7802C27.94 91.6902 27.73 91.5902 27.51 91.5002H27.54ZM81.84 47.3602C80.23 47.2902 79.36 47.2202 78.47 47.2202C72.81 47.2102 67.14 47.1902 61.48 47.2302C60.03 47.2402 59.26 46.8402 58.85 45.2802C57.97 41.9202 56.85 38.6202 55.78 35.3102C54.93 32.6802 54 30.0802 52.87 26.8102C52.39 27.9202 52.15 28.3702 52 28.8502C50.25 34.2902 48.48 39.7302 46.81 45.1902C46.34 46.7302 45.54 47.2602 43.94 47.2402C38.28 47.1602 32.61 47.2002 26.95 47.2202C26.11 47.2202 25.26 47.3102 23.78 47.4002C28.65 51.0402 32.96 54.2402 37.25 57.4502C40.2433 59.6902 41.2067 62.5835 40.14 66.1302C39.9 66.9202 39.62 67.7002 39.36 68.4802C38.04 72.5502 36.71 76.6102 35.39 80.6802C39.87 78.0702 43.89 75.0902 47.99 72.2302C54.06 68.0002 51.56 68.0502 57.67 72.2902C61.72 75.1102 65.69 78.0502 69.7 80.9302C68.59 75.7502 67.03 70.9002 65.36 66.0802C63.63 61.0702 63.58 61.0802 67.81 57.8802C72.28 54.5102 76.76 51.1502 81.82 47.3402L81.84 47.3602Z" fill="black"/>
</svg>
