<svg width="500" height="500" viewBox="0 0 500 500" fill="none" xmlns="http://www.w3.org/2000/svg">
<path d="M249.5 489.739C369.622 489.739 467 392.361 467 272.239C467 152.117 369.622 54.7388 249.5 54.7388C129.378 54.7388 32 152.117 32 272.239C32 392.361 129.378 489.739 249.5 489.739Z" stroke="black" stroke-width="20"/>
<path d="M250.188 300.459C265.394 300.459 277.72 288.133 277.72 272.928C277.72 257.722 265.394 245.396 250.188 245.396C234.983 245.396 222.657 257.722 222.657 272.928C222.657 288.133 234.983 300.459 250.188 300.459Z" fill="black"/>
<path d="M448.905 83.1548L439.171 73.4209C433.795 68.045 425.079 68.045 419.703 73.4209L409.969 83.1548C404.593 88.5307 404.593 97.2468 409.969 102.623L419.703 112.357C425.079 117.732 433.795 117.732 439.171 112.357L448.905 102.623C454.281 97.2468 454.281 88.5307 448.905 83.1548Z" fill="black"/>
<path d="M281.85 10H219.903C212.301 10 206.138 16.1632 206.138 23.7658C206.138 31.3685 212.301 37.5316 219.903 37.5316H281.85C289.452 37.5316 295.615 31.3685 295.615 23.7658C295.615 16.1632 289.452 10 281.85 10Z" fill="black"/>
<path d="M393.207 363.831C394.6 364.822 393.298 366.96 391.778 366.177L236.559 286.088C235.85 285.722 235.599 284.832 236.015 284.149L248.875 263.039C249.291 262.358 250.196 262.17 250.848 262.633L393.207 363.831Z" fill="black"/>
</svg>
