<?xml version="1.0" encoding="UTF-8"?>
<svg id="Layer_2" data-name="Layer 2" xmlns="http://www.w3.org/2000/svg" viewBox="0 0 96 96">
  <g id="Layer_1-2" data-name="Layer 1">
    <g id="wAYurn.tif">
      <g>
        <path d="m50.95,27.29c10.45,0,18.31,7.81,18.32,18.2,0,10.27-8.1,18.35-18.34,18.3-10.25-.05-18.21-8.11-18.22-18.45,0-10.14,7.99-18.05,18.25-18.05Zm14.95,18.1c-.03-8.16-6.78-14.88-14.93-14.86-8.26.02-14.93,6.83-14.87,15.17.06,7.97,6.77,14.68,14.8,14.8,8.12.12,15.02-6.84,14.99-15.11Z"/>
        <path d="m52.12,81.56h-2.25v-14.28c.69-.05,1.37-.11,2.25-.17v14.46Z"/>
        <path d="m52.13,23.88c-.94-.08-1.56-.13-2.3-.19v-14.25c.75-.05,1.43-.09,2.3-.14v14.59Z"/>
        <path d="m36.06,29.38c-.31.29-.82.77-1.26,1.18-3.47-3.42-6.79-6.69-10.24-10.09.38-.44.84-.98,1.34-1.56,3.42,3.52,6.71,6.92,10.15,10.47Z"/>
        <path d="m67.01,30.99c-.52-.6-.97-1.13-1.46-1.69,3.67-3.58,7.03-6.85,10.57-10.3.4.43.92.99,1.41,1.53-3.43,3.41-6.69,6.66-10.52,10.47Z"/>
        <path d="m34.49,60c.69.62,1.17,1.04,1.73,1.54-3.49,3.33-6.91,6.59-10.5,10.01-.26-.3-.78-.87-1.35-1.5,3.42-3.4,6.68-6.64,10.12-10.05Z"/>
        <path d="m65.98,61.4c.35-.32.87-.79,1.43-1.3,3.31,3.41,6.5,6.7,9.92,10.21-.23.29-.69.89-1.23,1.57-3.41-3.53-6.64-6.88-10.12-10.48Z"/>
        <path d="m29.05,44.38v2.22h-14.34c-.08-.64-.16-1.33-.27-2.22h14.61Z"/>
        <path d="m72.95,46.63v-2.28h14.38v2.28h-14.38Z"/>
      </g>
    </g>
  </g>
</svg>