<svg width="500" height="500" viewBox="0 0 500 500" fill="none" xmlns="http://www.w3.org/2000/svg">
<path d="M250.455 127.601C321.187 127.601 374.388 180.463 374.456 250.789C374.456 320.303 319.63 374.993 250.32 374.654C180.941 374.316 127.063 319.761 126.996 249.774C126.996 181.14 181.077 127.601 250.523 127.601H250.455ZM351.645 250.112C351.442 194.88 305.754 149.395 250.59 149.531C194.682 149.666 149.535 195.76 149.941 252.211C150.347 306.156 195.765 351.574 250.116 352.386C305.077 353.198 351.781 306.089 351.578 250.112H351.645Z" fill="black"/>
<path d="M258.374 494.933H243.145V398.277C247.815 397.939 252.418 397.533 258.374 397.126V495V494.933Z" fill="black"/>
<path d="M258.442 104.52C252.079 103.978 247.883 103.64 242.874 103.234V6.7811C247.95 6.44267 252.553 6.17193 258.442 5.8335V104.587V104.52Z" fill="black"/>
<path d="M149.67 141.747C147.572 143.71 144.12 146.959 141.142 149.734C117.655 126.585 95.1832 104.452 71.8315 81.4389C74.4036 78.4607 77.5172 74.8057 80.9015 70.8799C104.05 94.7054 126.319 117.719 149.603 141.747H149.67Z" fill="black"/>
<path d="M359.159 152.644C355.639 148.583 352.593 144.996 349.276 141.205C374.117 116.974 396.86 94.8404 420.82 71.4888C423.528 74.3993 427.048 78.1897 430.364 81.8447C407.148 104.926 385.082 126.924 359.159 152.712V152.644Z" fill="black"/>
<path d="M139.044 349.001C143.714 353.198 146.963 356.041 150.753 359.425C127.131 381.965 103.982 404.03 79.6831 427.179C77.9233 425.148 74.4036 421.29 70.5455 417.026C93.6941 394.013 115.76 372.082 139.044 349.001Z" fill="black"/>
<path d="M352.187 358.477C354.556 356.311 358.076 353.13 361.866 349.678C384.27 372.759 405.862 395.028 429.011 418.786C427.454 420.749 424.34 424.81 420.685 429.412C397.604 405.519 375.742 382.844 352.187 358.477Z" fill="black"/>
<path d="M102.223 243.276V258.302H5.16084C4.61935 253.97 4.07786 249.3 3.33331 243.276H102.223Z" fill="black"/>
<path d="M399.364 258.505V243.073H496.697V258.505H399.364Z" fill="black"/>
</svg>
