<svg width="117" height="118" viewBox="0 0 117 118" fill="none" xmlns="http://www.w3.org/2000/svg">
<path d="M37.83 58.2798H63.65C63.65 54.0998 63.72 50.1398 63.56 46.1898C63.54 45.6398 62.41 44.9898 61.68 44.6498C57.32 42.6398 54.81 38.9098 54.98 34.2798C55.15 29.6098 57.49 26.3198 61.77 24.5098C66.85 22.3698 73.26 24.8998 75.45 29.8098C78.07 35.6898 75.81 41.9898 69.91 44.4998C68.21 45.2198 67.71 46.0398 67.77 47.7598C67.89 51.1398 67.8 54.5298 67.8 58.1598H93.62C93.62 63.0098 93.7 67.6198 93.58 72.2298C93.53 74.3898 93.77 75.6598 96.29 76.5698C100.67 78.1498 103.04 83.6098 102.12 88.3298C101.25 92.7998 97.33 96.5298 93.03 96.9798C87.94 97.5098 83.31 94.7998 81.54 90.2398C79.25 84.3298 81.95 78.3498 87.81 76.1098C88.45 75.8598 89.33 75.0798 89.35 74.5198C89.48 70.6398 89.42 66.7598 89.42 62.7398H42.08C42.08 66.7298 42.02 70.6698 42.15 74.6098C42.17 75.1498 43.09 75.8798 43.74 76.1298C48.63 77.9798 51.76 83.5598 50.59 88.5098C49.3 93.9898 43.96 97.6698 38.29 96.9798C33.23 96.3598 29.27 91.7698 29.24 86.4798C29.2 81.3098 31.54 78.0098 36.39 76.0398C37.05 75.7698 37.72 74.6298 37.74 73.8698C37.87 69.5598 37.8 65.2398 37.8 60.9298C37.8 60.1198 37.8 59.3098 37.8 58.2898L37.83 58.2798ZM65.62 27.4798C62.1 27.5898 58.65 31.2198 58.75 34.7098C58.85 38.2898 62.39 41.7798 65.85 41.6898C69.42 41.5998 72.79 38.0398 72.69 34.4798C72.58 30.8198 69.1 27.3698 65.63 27.4798H65.62ZM39.92 93.1698C43.59 93.1798 46.93 89.8598 46.91 86.1898C46.9 82.5498 43.51 79.1698 39.9 79.1898C36.34 79.2098 32.91 82.6398 32.89 86.1998C32.88 89.8198 36.24 93.1598 39.91 93.1698H39.92ZM91.62 93.1698C95.36 93.0898 98.6 89.7698 98.51 86.1098C98.43 82.4598 95.04 79.1398 91.46 79.1898C87.81 79.2498 84.47 82.6698 84.53 86.2698C84.59 89.9698 87.97 93.2498 91.62 93.1598V93.1698Z" fill="black"/>
</svg>
