<svg width="500" height="500" viewBox="0 0 500 500" fill="none" xmlns="http://www.w3.org/2000/svg">
<path d="M35.9155 472.438C10.1261 461.364 0.847899 442.109 1.39662 414.025C2.79333 340.099 1.79568 266.123 1.89544 192.147C1.89544 162.217 7.48232 156.78 38.1603 156.78C180.526 156.73 322.891 156.68 465.257 156.78C493.99 156.78 499.377 162.317 499.427 191.598C499.527 265.574 498.529 339.55 499.976 413.477C500.524 441.311 491.944 460.865 466.404 472.388H35.9155V472.438ZM471.842 185.911H29.5804C29.5804 267.17 29.1814 346.833 30.4284 426.496C30.5282 432.183 42.4502 442.558 48.8851 442.608C183.269 443.556 317.704 443.257 452.088 443.456C465.257 443.456 471.991 438.767 471.941 424.8C471.742 345.885 471.842 266.971 471.842 185.911Z" fill="black"/>
<path d="M31.7255 114.73H497.881V140.121H3.09274C2.09508 122.113 1.14731 104.355 0 83.3041C161.72 55.669 323.39 27.9843 487.056 0C488.852 9.12856 490.199 15.9625 492.144 26.0887C337.507 52.6761 184.317 79.0142 31.1269 105.302C31.3264 108.445 31.526 111.588 31.6756 114.73H31.7255Z" fill="black"/>
<path d="M261.685 377.515H239.537V250.913C245.972 250.214 252.906 249.466 261.685 248.518V377.465V377.515Z" fill="black"/>
</svg>
