<svg width="102" height="96" viewBox="0 0 102 96" fill="none" xmlns="http://www.w3.org/2000/svg">
<path d="M7.93 95.9996C2.76 93.7796 0.899999 89.9196 1.01 84.2896C1.29 69.4696 1.09 54.6396 1.11 39.8096C1.11 33.8096 2.23 32.7196 8.38 32.7196C36.92 32.7096 65.46 32.6996 94 32.7196C99.76 32.7196 100.84 33.8296 100.85 39.6996C100.87 54.5296 100.67 69.3596 100.96 84.1796C101.07 89.7596 99.35 93.6796 94.23 95.9896H7.93V95.9996ZM95.32 38.5596H6.66C6.66 54.8496 6.58 70.8196 6.83 86.7896C6.85 87.9296 9.24 90.0096 10.53 90.0196C37.47 90.2096 64.42 90.1496 91.36 90.1896C94 90.1896 95.35 89.2496 95.34 86.4496C95.3 70.6296 95.32 54.8096 95.32 38.5596Z" fill="black"/>
<path d="M7.09 24.29H100.54V29.38H1.35C1.15 25.77 0.96 22.21 0.73 17.99C33.15 12.45 65.56 6.90004 98.37 1.29004C98.73 3.12004 99 4.49004 99.39 6.52004C68.39 11.85 37.68 17.13 6.97 22.4C7.01 23.03 7.05 23.66 7.08 24.29H7.09Z" fill="black"/>
<path d="M53.19 76.9704H48.75V51.5904C50.04 51.4504 51.43 51.3004 53.19 51.1104V76.9604V76.9704Z" fill="black"/>
</svg>
