<svg width="500" height="500" viewBox="0 0 500 500" fill="none" xmlns="http://www.w3.org/2000/svg">
<path d="M466.777 20.6757C466.777 28.9585 466.777 34.6707 466.777 40.3116C466.777 93.6497 466.777 146.916 466.777 200.255C466.777 219.605 464.992 224.246 445.999 229.887C428.72 235.028 418.509 243.953 410.94 260.662C393.304 299.862 371.811 337.42 354.675 376.834C348.391 391.258 349.248 409.109 348.105 425.46C346.892 443.168 346.749 460.947 346.963 478.727C347.034 487.723 343.893 492.293 335.253 495.649C307.548 506.288 280.201 497.149 265.278 471.158C249.569 443.953 243.571 413.678 240.644 383.189C238.359 359.912 240.215 336.206 240.215 311.144C208.584 313.786 178.166 316.285 147.748 318.927C135.396 319.998 123.043 321.568 110.69 322.996C75.8454 327.066 55.0671 307.145 58.1374 272.015C58.7086 265.089 60.7793 258.305 62.136 251.665C27.2199 223.104 25.292 207.323 49.6404 170.622C47.4269 154.2 44.3566 140.49 44.1424 126.781C43.9282 112.072 53.4962 101.79 64.9921 94.0781C63.564 82.5108 61.0649 71.5147 61.0649 60.5187C61.1363 35.1706 76.131 20.9614 101.408 18.3908C144.321 14.0353 187.234 8.96562 230.076 3.7532C288.341 -3.31571 345.821 -1.45923 401.658 18.5336C422.15 25.8168 442.929 28.0303 466.849 20.6043L466.777 20.6757ZM441.358 53.307C422.365 48.88 404.3 46.0952 387.092 40.383C341.322 25.1027 294.625 21.961 247.07 27.2448C199.516 32.5287 151.961 38.0981 104.407 43.3819C90.3402 44.9528 85.1278 49.594 86.4844 63.8746C87.1985 71.0863 90.7686 78.298 94.1246 84.9385C97.1949 91.0792 101.693 96.5772 106.763 104.146C98.9086 107.502 92.6965 110.358 86.413 112.857C65.2777 121.069 61.4933 134.849 75.774 152.486C81.1292 159.126 87.0557 165.41 93.6962 172.979C84.1995 179.333 76.7022 183.76 69.8475 189.044C53.996 201.254 55.8525 217.82 74.0603 226.102C83.3427 230.387 93.1249 233.743 104.121 238.098C98.0517 246.881 92.9107 253.95 88.1981 261.304C82.4859 270.087 79.7012 278.727 85.4134 289.437C91.2685 300.362 100.265 299.79 109.762 298.791C149.748 294.792 189.662 290.08 229.719 286.581C245.785 285.224 262.065 286.367 279.273 286.367C277.916 290.794 277.416 294.364 275.774 297.291C264.278 317.784 262.565 339.99 264.207 362.697C265.349 377.977 266.063 393.543 269.633 408.395C274.132 427.174 277.488 446.738 290.412 462.518C299.837 474.014 307.12 476.656 322.829 472.086C322.829 456.877 322.115 440.954 322.972 425.103C324.185 402.183 323.9 378.977 334.682 357.627C354.675 318.141 374.953 278.798 393.732 238.812C401.444 222.318 413.011 212.893 429.933 208.537C433.789 207.538 437.431 205.824 441.501 204.325V53.3784L441.358 53.307Z" fill="black"/>
</svg>
