<?xml version="1.0" encoding="UTF-8"?>
<svg id="Layer_2" data-name="Layer 2" xmlns="http://www.w3.org/2000/svg" viewBox="0 0 113 116">
  <g id="Layer_1-2" data-name="Layer 1">
    <g id="P2rpp1.tif">
      <path d="m25.46,91.79c0-1.23,0-2.04,0-2.85,0-7.38.11-14.77-.06-22.15-.05-2.34.81-3.82,2.86-4.23,2.79-.56,4.1-2.31,5.21-4.69,2.52-5.38,5.43-10.59,7.75-16.06.9-2.1.76-4.69.87-7.07.13-2.89.03-5.78.03-8.46,5.26-2.91,9.51-1.75,11.95,3.21,2.88,5.85,3.61,12.16,3.3,18.62-.04.74-.14,1.48-.19,2.23-.01.15.07.31.18.77.89-.07,1.84-.13,2.78-.22,5.03-.47,10.07-.89,15.09-1.42,5.23-.55,8.39,2.81,7.4,8-.12.64-.35,1.26-.57,2.01,1.88,1.39,3.65,2.84,4.02,5.36.38,2.57-.9,4.46-2.58,6.28,1.87,3.96,2.17,7.67-1.7,10.42.18,1.8.52,3.43.47,5.05-.1,3.26-2.24,5.19-5.51,5.52-6.1.63-12.18,1.35-18.27,2.07-7.99.95-15.87.75-23.55-1.98-2.94-1.05-5.93-1.48-9.49-.42Zm3.58-4.68c3.85,1.04,7.33,2.05,10.85,2.93,7.12,1.79,14.3,1.23,21.48.35,4.85-.6,9.69-1.21,14.55-1.73,2.35-.25,3.13-1,2.8-3.33-.12-.86-.59-1.69-1.02-2.47-.49-.9-1.11-1.73-1.82-2.81,1.24-.5,2.13-.87,3.04-1.23,2.68-1.08,3.24-2.96,1.5-5.23-.78-1.02-1.68-1.97-2.68-3.13,1.26-.84,2.32-1.46,3.28-2.19,2.24-1.71,2.01-4.04-.51-5.2-1.31-.6-2.69-1.07-4.26-1.69.82-1.2,1.53-2.2,2.21-3.22.87-1.32,1.23-2.61.32-4.15-.9-1.52-2.23-1.25-3.5-1.12-5.6.55-11.19,1.23-16.8,1.72-2.18.19-4.39.03-6.88.03.44-1.09.87-1.98,1.16-2.9.4-1.25,1.01-2.54.99-3.8-.07-3.55-.16-7.13-.74-10.62-.43-2.56-1.02-5.24-2.83-7.33-1.1-1.27-2.29-2.41-4.55-1.49,0,2.1.16,4.26-.04,6.38-.28,2.94-.28,6.08-1.38,8.73-2.4,5.79-5.51,11.27-8.13,16.97-1.32,2.88-3.27,4.64-6.36,5.2-.22.04-.41.24-.69.41v20.93Z"/>
    </g>
  </g>
</svg>