<?xml version="1.0" encoding="UTF-8"?>
<svg id="Layer_2" data-name="Layer 2" xmlns="http://www.w3.org/2000/svg" viewBox="0 0 113 116">
  <g id="Layer_1-2" data-name="Layer 1">
    <g id="P2rpp1.tif">
      <path d="m88.04,25.68c0,1.16,0,1.96,0,2.75,0,7.47,0,14.93,0,22.4,0,2.71-.25,3.36-2.91,4.15-2.42.72-3.85,1.97-4.91,4.31-2.47,5.49-5.48,10.75-7.88,16.27-.88,2.02-.76,4.52-.92,6.81-.17,2.48-.19,4.97-.16,7.46.01,1.26-.43,1.9-1.64,2.37-3.88,1.49-7.71.21-9.8-3.43-2.2-3.81-3.04-8.05-3.45-12.32-.32-3.26-.06-6.58-.06-10.09-4.43.37-8.69.72-12.95,1.09-1.73.15-3.46.37-5.19.57-4.88.57-7.79-2.22-7.36-7.14.08-.97.37-1.92.56-2.85-4.89-4-5.16-6.21-1.75-11.35-.31-2.3-.74-4.22-.77-6.14-.03-2.06,1.31-3.5,2.92-4.58-.2-1.62-.55-3.16-.55-4.7.01-3.55,2.11-5.54,5.65-5.9,6.01-.61,12.02-1.32,18.02-2.05,8.16-.99,16.21-.73,24.03,2.07,2.87,1.02,5.78,1.33,9.13.29Zm-3.56,4.57c-2.66-.62-5.19-1.01-7.6-1.81-6.41-2.14-12.95-2.58-19.61-1.84-6.66.74-13.32,1.52-19.98,2.26-1.97.22-2.7.87-2.51,2.87.1,1.01.6,2.02,1.07,2.95.43.86,1.06,1.63,1.77,2.69-1.1.47-1.97.87-2.85,1.22-2.96,1.15-3.49,3.08-1.49,5.55.75.93,1.58,1.81,2.51,2.87-1.33.89-2.38,1.51-3.34,2.25-2.22,1.71-1.96,4.03.59,5.19,1.3.6,2.67,1.07,4.21,1.68-.85,1.23-1.57,2.22-2.23,3.25-.8,1.23-1.19,2.44-.39,3.94.82,1.53,2.08,1.45,3.41,1.31,5.6-.56,11.19-1.22,16.8-1.71,2.25-.19,4.53-.03,6.94-.03-.19.62-.26,1.12-.49,1.53-1.61,2.87-1.85,5.98-1.62,9.16.16,2.14.26,4.32.76,6.4.63,2.63,1.1,5.37,2.91,7.58,1.32,1.61,2.34,1.98,4.54,1.34,0-2.13-.1-4.36.02-6.58.17-3.21.13-6.46,1.64-9.45,2.8-5.53,5.64-11.04,8.27-16.64,1.08-2.31,2.7-3.63,5.07-4.24.54-.14,1.05-.38,1.62-.59v-21.14Z"/>
    </g>
  </g>
</svg>