<svg width="500" height="500" viewBox="0 0 500 500" fill="none" xmlns="http://www.w3.org/2000/svg">
<path d="M33.7766 479.24C33.7766 470.453 33.7766 464.666 33.7766 458.879C33.7766 406.157 34.5625 353.363 33.348 300.64C32.9908 283.923 39.1346 273.35 53.7798 270.421C73.7115 266.421 83.0701 253.919 90.9999 236.916C109.003 198.481 129.792 161.261 146.366 122.184C152.795 107.181 151.795 88.6784 152.581 71.6757C153.51 51.0296 152.795 30.3835 152.795 11.2376C190.373 -9.55135 220.735 -1.26434 238.166 34.1698C258.741 75.9621 263.956 121.041 261.741 167.191C261.455 172.477 260.741 177.764 260.384 183.122C260.312 184.193 260.884 185.336 261.67 188.623C268.028 188.123 274.815 187.694 281.53 187.051C317.464 183.693 353.47 180.693 389.333 176.907C426.696 172.977 449.27 196.981 442.198 234.058C441.341 238.631 439.698 243.06 438.126 248.418C451.557 258.348 464.201 268.707 466.845 286.71C469.559 305.07 460.415 318.572 448.413 331.574C461.772 359.864 463.916 386.368 436.268 406.014C437.554 418.873 439.983 430.518 439.626 442.091C438.912 465.38 423.624 479.168 400.263 481.526C356.685 486.027 313.249 491.17 269.742 496.314C212.662 503.101 156.367 501.672 101.502 482.169C80.4982 474.668 59.1378 471.596 33.7052 479.168L33.7766 479.24ZM59.3521 445.806C86.8564 453.236 111.717 460.451 136.864 466.738C187.729 479.526 239.023 475.525 290.317 469.238C324.965 464.952 359.542 460.594 394.262 456.879C411.05 455.093 416.623 449.735 414.265 433.09C413.408 426.946 410.05 421.016 406.978 415.444C403.478 409.014 399.048 403.085 393.976 395.369C402.835 391.798 409.193 389.154 415.694 386.582C434.84 378.867 438.84 365.436 426.41 349.219C420.837 341.932 414.408 335.146 407.264 326.859C416.265 320.858 423.838 316.428 430.696 311.213C446.699 298.997 445.056 282.352 427.053 274.065C417.694 269.778 407.835 266.421 396.619 261.991C402.477 253.419 407.55 246.275 412.408 238.988C418.623 229.558 421.195 220.342 414.694 209.34C408.264 198.481 398.763 200.41 389.69 201.339C349.683 205.268 309.749 210.126 269.671 213.627C254.097 214.984 238.309 213.841 220.52 213.841C223.664 206.054 226.736 199.696 228.807 193.123C231.665 184.193 236.023 174.978 235.88 165.976C235.38 140.615 234.737 115.04 230.593 90.1072C227.521 71.8186 223.306 52.6727 210.376 37.7418C202.517 28.6689 194.016 20.5248 177.871 27.0973C177.871 42.0996 179.014 57.5306 177.585 72.6759C175.585 93.6792 175.585 116.111 167.726 135.043C150.581 176.406 128.363 215.555 109.646 256.276C100.216 276.851 86.2849 289.424 64.21 293.425C62.6383 293.711 61.281 295.139 59.2806 296.354V445.877L59.3521 445.806Z" fill="black"/>
</svg>
