<svg width="98" height="106" viewBox="0 0 98 106" fill="none" xmlns="http://www.w3.org/2000/svg">
<path d="M21.22 31.6404V28.5304H34.94C35.18 28.1004 35.32 27.9604 35.33 27.8204C35.67 21.6204 36.74 20.6104 42.94 20.6104C46.92 20.6104 50.9 20.6104 54.88 20.6104C59.44 20.6104 61.05 22.2304 61.14 26.8604C61.14 27.2704 61.19 27.6804 61.23 28.3604H75.32C75.39 29.5604 75.44 30.5004 75.49 31.4104C71.99 32.5104 71.93 32.5004 71.65 36.3204C70.75 48.2904 69.92 60.2703 69.01 72.2403C68.64 77.1103 68.16 81.9704 67.67 86.8304C67.39 89.6104 64.84 92.0304 61.98 92.0504C52.86 92.1104 43.74 92.1104 34.62 92.0504C31.65 92.0304 29.11 89.6104 28.85 86.6204C28.17 78.8704 27.53 71.1103 26.94 63.3503C26.19 53.5203 25.43 43.7004 24.82 33.8604C24.66 31.2404 22.67 32.1904 21.23 31.6304L21.22 31.6404ZM28.18 32.0303C28.59 37.4903 28.98 42.6803 29.38 47.8703C30.33 60.2604 31.27 72.6403 32.26 85.0303C32.48 87.8103 33.41 88.6504 36.2 88.6604C44.24 88.6904 52.28 88.6904 60.32 88.6604C63.12 88.6604 64.04 87.8204 64.26 85.0504C65.6 68.1304 66.91 51.2004 68.22 34.2704C68.27 33.5704 68.14 32.8503 68.08 32.0303H28.18ZM38.44 28.3304H58.07C58.61 24.1704 57.95 23.3704 54.09 23.3604C50.21 23.3604 46.32 23.3604 42.44 23.3604C38.57 23.3604 37.93 24.1404 38.43 28.3304H38.44Z" fill="black"/>
<path d="M49.53 82.6804H46.99V37.3604C47.82 37.3104 48.59 37.2604 49.53 37.1904V82.6704V82.6804Z" fill="black"/>
</svg>
