<svg width="500" height="500" viewBox="0 0 500 500" fill="none" xmlns="http://www.w3.org/2000/svg">
<path d="M60 77.1491V55.3962H155.964C157.643 52.3886 158.622 51.4094 158.692 50.4302C161.07 7.06443 168.554 0 211.92 0C239.758 0 267.596 0 295.434 0C327.329 0 338.59 11.331 339.219 43.7155C339.219 46.5832 339.569 49.4509 339.849 54.2072H438.401C438.891 62.6005 439.24 69.1754 439.59 75.5403C415.109 83.2343 414.69 83.1643 412.731 109.883C406.436 193.607 400.631 277.4 394.266 361.124C391.678 395.187 388.321 429.181 384.893 463.174C382.935 482.619 365.099 499.545 345.095 499.685C281.305 500.105 217.516 500.105 153.726 499.685C132.952 499.545 115.186 482.619 113.368 461.705C108.612 407.498 104.135 353.22 100.008 298.943C94.7625 230.187 89.4467 161.502 85.1801 92.6768C84.061 74.3513 70.142 80.996 60.0699 77.0791L60 77.1491ZM108.682 79.8762C111.549 118.066 114.277 154.367 117.075 190.669C123.72 277.331 130.294 363.922 137.219 450.583C138.758 470.028 145.263 475.904 164.777 475.974C221.013 476.184 277.248 476.184 333.484 475.974C353.068 475.974 359.503 470.099 361.042 450.724C370.415 332.377 379.578 213.961 388.74 95.5445C389.09 90.6484 388.181 85.6117 387.761 79.8762H108.682ZM180.445 53.9974H317.746C321.523 24.9003 316.907 19.3047 289.908 19.2348C262.77 19.2348 235.561 19.2348 208.423 19.2348C181.354 19.2348 176.878 24.6905 180.375 53.9974H180.445Z" fill="black"/>
<path d="M258.014 434.147H240.248V117.158C246.053 116.808 251.439 116.458 258.014 115.968V434.077V434.147Z" fill="black"/>
</svg>
