<?xml version="1.0" encoding="UTF-8"?>
<svg id="Layer_2" data-name="Layer 2" xmlns="http://www.w3.org/2000/svg" viewBox="0 0 114 115">
  <g id="Layer_1-2" data-name="Layer 1">
    <g id="Belo5v.tif">
      <path d="m65,89.28c-7.63,0-15.26-.04-22.89.02-3.9.03-7.15-1.12-9.3-4.56-2.31-3.69-1.49-7.23.43-10.79,3.8-7.05,7.53-14.13,11.27-21.21,3.36-6.34,6.7-12.7,10.04-19.05,2.58-4.9,6.65-6.74,12.1-6.35,5.23.37,7.8,3.8,9.94,7.87,6.54,12.51,13.06,25.02,19.56,37.55.98,1.88,2.21,3.8,2.54,5.82.94,5.89-3.43,10.64-9.56,10.68-8.04.05-16.09.01-24.13.01Zm.03-3.22c1.91,0,3.81,0,5.72,0,5.97-.02,11.94.07,17.9-.09,5.68-.15,8.18-5.4,5.67-9.69-5.16-8.82-9.62-18.05-14.4-27.09-2.62-4.96-5.05-10.05-8.02-14.79-3.35-5.35-11.13-4.8-14.09.77-7.39,13.92-14.75,27.87-22.12,41.8-1.71,3.24-.69,6.62,2.67,8.05,1.54.66,3.35.97,5.04.99,7.21.1,14.42.04,21.64.04Z"/>
    </g>
  </g>
</svg>