<svg width="133" height="111" viewBox="0 0 133 111" fill="none" xmlns="http://www.w3.org/2000/svg">
<path d="M63.55 88.13H60.73C48.36 88.13 36 88.13 23.63 88.13C19.24 88.13 16.45 85.31 16.45 80.87C16.45 62.05 16.57 43.22 16.35 24.4C16.31 20.67 20.15 16.9 23.75 16.92C52.13 17.06 80.51 17 108.9 17C113.29 17 116.09 19.82 116.09 24.24C116.09 43.15 116.09 62.05 116.09 80.96C116.09 85.49 113.42 88.13 108.82 88.13C96.29 88.13 83.76 88.13 71.23 88.13C70.33 88.13 69.43 88.13 68.33 88.13V92.59H94.55V96.88H38.04V92.65H63.55V88.13ZM66.34 83.71C80.03 83.71 93.72 83.71 107.42 83.71C110.72 83.71 111.67 82.84 111.67 79.68C111.68 61.69 111.68 43.69 111.67 25.7C111.67 22.44 110.62 21.44 107.33 21.43C80.03 21.43 52.73 21.43 25.43 21.43C21.93 21.43 20.92 22.47 20.92 26.05C20.92 43.71 20.92 61.37 20.92 79.04C20.92 82.94 21.68 83.72 25.52 83.72C39.13 83.72 52.74 83.72 66.35 83.72L66.34 83.71Z" fill="black"/>
</svg>
