<?xml version="1.0" encoding="UTF-8"?>
<svg id="Layer_2" data-name="Layer 2" xmlns="http://www.w3.org/2000/svg" viewBox="0 0 114 134">
  <g id="Layer_1-2" data-name="Layer 1">
    <g id="lKNv6o.tif">
      <g>
        <path d="m72.8,77.8c-5.16,5.17-10.17,10.2-15.21,15.2-.33.33-.87.44-1.47.73-.65-.46-1.38-.84-1.94-1.4-6.51-6.48-13-12.98-19.48-19.49-.45-.45-.79-1.02-1.34-1.74.61-.83,1.1-1.68,1.77-2.35,4.07-4.12,8.17-8.21,12.27-12.3,2.16-2.15,2.75-2.17,4.85-.07,5.78,5.77,11.55,11.56,17.32,17.34.82.82,1.64,1.63,2.4,2.5.3.35.45.83.83,1.55Zm-3.95-.39c-3.33-3.38-6.31-6.56-9.47-9.55-3.19-3.02-6.03-6.42-9.82-9.44-4.16,4.2-8.17,8.24-12.38,12.48,3.32,3.41,6.37,6.59,9.48,9.71,3.11,3.11,6.28,6.16,9.6,9.4,4.27-4.27,8.33-8.34,12.59-12.6Z"/>
        <path d="m38.35,86.73c-1.67-1.56-2.85-2.6-3.95-3.72-1.26-1.31-1.27-2.05-.14-3.44.52-.64,1.1-1.24,1.39-1.57,1.66-.58,2.59-.18,3.5.76,2.99,3.09,6.07,6.11,9.09,9.18,1.78,1.8,1.72,2.42-.28,4.5-1.46,1.52-2.58,1.52-4.23-.04-1.19-1.13-2.33-2.31-3.63-3.6-1.94,1.47-3.61,2.82-4.45,5.01-1.31,3.44,1.14,6.73,4.75,7.02,1.28.1,2.9-.82,3.95-1.75,4.87-4.26,10.63-2,12.78,2.25,1.48,2.91,1.13,6.45-1.21,8.98-.72.78-1.64.92-2.19.35-.69-.73-.56-1.5.07-2.22,2.19-2.46,1.41-6.13-.71-7.69-1.83-1.35-4.13-1.51-6-.2-.67.47-1.3,1.02-1.98,1.49-3.03,2.08-6.98,1.95-9.88-.45-2.68-2.22-3.47-5.67-2.2-9.27.67-1.89,2.32-3.17,3.72-4.56.34-.34.82-.55,1.56-1.03Z"/>
        <path d="m71.19,72.81c-.38-.42-.67-.75-1.15-1.28,4.88-4.92,9.67-9.74,14.53-14.63-2.6-2.6-5.13-5.12-7.76-7.75-1.97,1.34-3.38,3.17-5.16,4.85.55.76,1.06,1.47,1.75,2.41-1.51,2.06-3.36,3.81-5.45,5.5-.8-.58-1.46-1.05-2.15-1.55-1.6.16-1.92,2.47-4.03,2.41.87-1.59,2.18-2.43,3.03-3.39,1.65-.71,2.19.76,3.23,1.27,1.31-1.35,2.61-2.7,3.97-4.12-.65-.93-1.16-1.67-1.77-2.54,1.82-1.88,3.65-3.77,5.68-5.87-1.88-1.88-3.63-3.65-5.54-5.56-2,1.96-3.83,3.73-5.62,5.53-2.45,2.46-4.85,4.97-7.34,7.39-.6.58-1.16,1.5-2.3,1.22-.75-.8-.43-1.49.22-2.14,4.42-4.43,8.82-8.86,13.26-13.27.45-.45,1.08-.72,1.72-1.14.52.35,1.04.6,1.43.99,4.63,4.62,9.25,9.24,13.85,13.89,1.64,1.65,1.64,2,.01,3.63-4.32,4.34-8.66,8.67-13,13-.4.4-.86.73-1.4,1.19Z"/>
      </g>
    </g>
  </g>
</svg>