<?xml version="1.0" encoding="UTF-8"?>
<svg id="Layer_2" data-name="Layer 2" xmlns="http://www.w3.org/2000/svg" viewBox="0 0 78.98 122.88">
  <defs>
    <style>
      .cls-1 {
        fill: #010101;
        fill-rule: evenodd;
      }
    </style>
  </defs>
  <g id="Layer_3" data-name="Layer 3">
    <path class="cls-1" d="m25.37,109.05c0-7.03,4.39-11.84,10.34-13.38v-6.27c-3.42-3.58-8.23-5.64-12.7-7.55-9.65-4.14-18.05-7.73-15.32-21.57-4.43-1.19-7.69-5.23-7.69-10.04,0-5.74,4.65-10.4,10.39-10.4s10.4,4.66,10.4,10.4c0,4.14-2.42,7.71-5.93,9.39l.12.03c-.4,1.5-.6,2.84-.63,4.04-.15,6.79,5.25,9.11,11.38,11.73.37.16.74.32,1.12.48,2.96,1.28,6,2.65,8.85,4.52V22.8h-9.56l1.13-1.9L39.67,0l13.53,22.81h-10.51v43.97c2.85-1.91,5.91-3.31,8.89-4.6.45-.2.91-.39,1.36-.59,6.2-2.65,11.66-5,11.37-11.98-.04-.94-.18-1.96-.44-3.08h-4.94c-.83,0-1.5-.68-1.5-1.5v-18.24c0-.83.68-1.5,1.5-1.5h18.55c.83,0,1.5.67,1.5,1.5v18.24c0,.82-.68,1.5-1.5,1.5h-6.48c2.67,13.75-5.71,17.35-15.34,21.47-4.59,1.97-9.54,4.09-12.98,7.85v19.81c5.95,1.55,10.34,6.35,10.34,13.38s-6.19,13.84-13.82,13.84-13.83-6.79-13.83-13.83h0Z"/>
  </g>
</svg>