<svg width="500" height="500" viewBox="0 0 500 500" fill="none" xmlns="http://www.w3.org/2000/svg">
<path fill-rule="evenodd" clip-rule="evenodd" d="M192.398 443.726C192.398 415.12 210.261 395.549 234.471 389.282V363.77C220.555 349.203 200.983 340.82 182.795 333.049C143.529 316.203 109.349 301.595 120.457 245.28C102.432 240.438 89.1667 223.999 89.1667 204.427C89.1667 181.071 108.088 162.109 131.444 162.109C154.8 162.109 173.761 181.071 173.761 204.427C173.761 221.273 163.914 235.799 149.632 242.635L150.121 242.757C148.493 248.861 147.679 254.313 147.557 259.196C146.947 286.825 168.919 296.265 193.862 306.925C195.368 307.577 196.873 308.228 198.42 308.879C210.464 314.087 222.834 319.661 234.43 327.271V92.7734H195.531L200.129 85.0423L250.584 0L305.638 92.8141H262.873V271.729C274.469 263.957 286.921 258.26 299.046 253.011C300.877 252.197 302.749 251.424 304.58 250.61C329.808 239.827 352.025 230.265 350.845 201.864C350.682 198.039 350.112 193.888 349.054 189.331H328.954C325.576 189.331 322.85 186.564 322.85 183.228V109.009C322.85 105.632 325.617 102.905 328.954 102.905H404.434C407.811 102.905 410.537 105.632 410.537 109.009V183.228C410.537 186.564 407.77 189.331 404.434 189.331H378.067C388.931 245.28 354.832 259.928 315.648 276.693C296.971 284.709 276.83 293.335 262.832 308.634V389.242C287.043 395.549 304.906 415.08 304.906 443.685C304.906 472.29 279.719 500 248.672 500C217.625 500 192.398 472.371 192.398 443.726Z" fill="#010101"/>
</svg>
