<svg width="96" height="91" viewBox="0 0 96 91" fill="none" xmlns="http://www.w3.org/2000/svg">
<path d="M17.8131 75.1068C23.2284 73.4882 28.1851 72.0226 33.4857 70.4422C35.1422 67.7657 34.8491 64.4647 34.7089 61.202C34.7089 60.9088 34.5688 60.501 34.3522 60.3481C30.9118 57.8755 31.396 54.0392 30.8863 50.5471C30.8609 50.3432 30.8226 50.1265 30.7462 49.7187C30.1473 49.2216 29.421 48.6226 28.5801 47.9216C28.1723 44.353 25.866 40.899 27.8155 36.9736C28.3252 35.9412 28.2997 34.4755 28.0831 33.2902C27.2931 29.1481 27.5734 25.0569 28.2233 20.953C28.4526 19.5383 28.8604 18.3402 30.1218 17.4481C31.6636 16.352 32.976 14.9118 34.556 13.9049C41.7043 9.34216 52.4839 10.0686 59.1225 16.0079C61.3905 18.0343 62.9829 20.1245 62.8809 23.3108C62.7799 26.2549 62.9319 29.2118 62.8559 32.1687C62.8049 34.1569 62.9579 36.0686 63.2509 38.0569C63.6969 41.1157 62.9829 44.3402 62.7799 47.2843C61.6326 48.3167 60.7662 49.0814 59.9507 49.8206C59.6704 51.6687 59.2754 53.4402 59.1607 55.2245C59.046 56.9961 58.7147 58.4745 57.1475 59.6343C56.4976 60.1186 56.0389 61.253 56.0007 62.1069C55.8478 64.9618 56.2046 67.7911 57.0583 70.4166C62.3079 71.9587 67.3539 73.4372 72.8069 75.0303C75.8779 73.0548 78 70 80.0798 66.7529L85.0798 66.7529C81.8048 76.9362 65.0729 92.657 41.7425 90.847C21.1388 89.241 2.93048 73.3098 0.356681 51.3755C-2.51032 27.0196 12.1812 6.85686 34.5305 1.35096C55.4273 -3.78534 76.4728 6.01563 86.0798 25.7959C84.0798 25.7959 81.5 25.7959 80 25.7959C68.201 8.71753 53.7199 0.90486 33.3965 6.97156C18.3228 11.4706 8.93198 22.3167 5.75928 37.7C2.73938 52.3824 7.51758 64.9108 17.8641 75.0941L17.8131 75.1068Z" fill="black"/>
<path d="M86 59L86 34L80 34L80 59L86 59Z" fill="black"/>
<path d="M96 44H71V50H96V44Z" fill="black"/>
</svg>
