<svg width="148" height="141" viewBox="0 0 148 141" fill="none" xmlns="http://www.w3.org/2000/svg">
<path d="M77.34 110.46C53.36 110.92 32.02 90.0304 32.84 64.2604C33.55 42.1704 52.33 20.3004 79.19 21.1004C101.61 21.7704 122.95 40.9504 122.2 67.3904C121.57 89.9104 102.38 110.95 77.33 110.46H77.34ZM60.29 48.3104C60.37 46.4104 60.31 44.3004 60.62 42.2604C60.81 41.0304 61.33 39.6504 62.16 38.7604C69.53 30.8204 80.54 29.5004 89.37 35.6204C91.51 37.1104 94.04 38.6104 94.42 41.7204C95.19 48.0804 94.1 54.4804 95.18 60.9004C95.64 63.6604 95.55 67.6204 92.01 69.6704C91.67 69.8704 91.73 70.7404 91.58 71.2904C90.72 74.5204 91.7 78.4304 88.07 80.6504C87.76 80.8404 87.61 81.5704 87.65 82.0204C87.89 84.5804 88.1 87.1604 88.59 89.6704C88.71 90.2904 89.77 90.9404 90.53 91.1804C94.55 92.4504 98.68 93.3904 102.61 94.8704C104.21 95.4704 105.03 95.2304 106.04 94.1904C117.43 82.4904 120.86 65.4604 114.58 50.1804C108.23 34.7404 89.88 22.6304 70.98 26.2204C63.53 27.6304 56.96 30.5104 51.34 35.4304C40.99 44.4804 36.38 56.0704 37.51 69.7204C38.3 79.2404 42.49 87.4104 49.14 94.2604C49.72 94.8504 50.94 95.3904 51.65 95.1904C56.02 93.9904 60.35 92.6504 64.63 91.1604C65.53 90.8504 66.57 89.7804 66.77 88.8904C67.23 86.8004 67.28 84.6004 67.37 82.4504C67.4 81.7404 67.29 80.6404 66.84 80.3604C63.84 78.5004 64.14 75.4904 63.81 72.6404C63.68 71.5504 63.51 70.1204 62.79 69.5004C59.35 66.5104 59.47 62.4004 60.01 58.7504C60.32 56.6504 60.48 54.6004 60.48 52.5104C60.48 51.1804 60.37 49.8504 60.3 48.3304L60.29 48.3104Z" fill="black"/>
</svg>
