<svg width="500" height="500" viewBox="0 0 500 500" fill="none" xmlns="http://www.w3.org/2000/svg">
<path d="M92.7766 404.515C120.981 396.084 146.797 388.451 174.405 380.22C183.032 366.28 181.506 349.087 180.776 332.094C180.776 330.567 180.046 328.443 178.918 327.646C160.999 314.768 163.521 294.788 160.866 276.6C160.734 275.538 160.534 274.409 160.136 272.285C157.017 269.696 153.234 266.576 148.855 262.925C146.731 244.339 134.719 226.349 144.872 205.904C147.527 200.527 147.394 192.893 146.266 186.72C142.152 165.147 143.611 143.838 146.996 122.464C148.191 115.095 150.315 108.855 156.884 104.209C164.915 98.5002 171.75 90.9991 179.979 85.7548C217.21 61.9906 273.354 65.7741 307.93 96.708C319.742 107.262 328.036 118.149 327.505 134.744C326.979 150.078 327.77 165.478 327.374 180.879C327.109 191.234 327.906 201.191 329.432 211.547C331.755 227.478 328.036 244.272 326.979 259.606C321.003 264.983 316.491 268.966 312.243 272.816C310.783 282.441 308.726 291.668 308.129 300.961C307.531 310.188 305.806 317.888 297.643 323.929C294.258 326.451 291.869 332.36 291.67 336.807C290.874 351.676 292.732 366.412 297.179 380.087C324.52 388.118 350.802 395.819 379.203 404.116C395.197 393.827 406.25 377.917 417.082 361.005H443.124C426.067 414.043 338.921 495.922 217.409 486.495C110.098 478.13 15.2629 395.155 1.85772 280.914C-13.0746 154.061 63.4437 49.0463 179.846 20.3697C288.684 -6.38182 398.296 44.6649 448.332 147.687C437.916 147.687 424.479 147.687 416.667 147.687C355.214 58.7373 279.791 18.0463 173.94 49.6437C95.4313 73.0762 46.5207 129.566 29.9963 209.688C14.2676 286.158 39.1541 351.411 93.0422 404.449L92.7766 404.515Z" fill="black"/>
<path d="M447.917 320.625V190.417H416.667V320.625H447.917Z" fill="black"/>
<path d="M500 242.5H369.792V273.75H500V242.5Z" fill="black"/>
</svg>
