<svg width="583" height="583" viewBox="0 0 583 583" fill="none" xmlns="http://www.w3.org/2000/svg">
<g clip-path="url(#clip0_13_1206)">
<path d="M291.5 570.5C445.587 570.5 570.5 445.587 570.5 291.5C570.5 137.413 445.587 12.5 291.5 12.5C137.413 12.5 12.5 137.413 12.5 291.5C12.5 445.587 137.413 570.5 291.5 570.5Z" stroke="black" stroke-width="25"/>
<path d="M317.102 270.233C317.102 270.233 333.376 203.054 317.102 180.279C300.828 157.541 294.357 142.383 258.573 131.531C222.79 120.679 235.828 122.842 209.809 123.952C183.771 125.062 162.098 139.13 162.098 146.728C162.098 146.728 145.824 147.8 139.353 154.307C132.843 160.814 122.007 191.131 122.007 198.71C122.007 206.289 127.425 257.276 132.843 268.089L126.391 270.271C120.954 333.105 148.026 340.703 148.026 340.703C157.79 399.231 167.555 374.312 167.555 389.47C167.555 404.628 157.79 399.231 157.79 399.231C157.79 399.231 149.136 423.059 127.463 431.729C105.79 440.38 81.2493 455.739 71.4659 465.5C61.6632 475.261 209.809 559.5 209.809 559.5L340.966 569C340.966 569 484.072 506.506 474.27 496.726C464.505 486.965 344.174 440.38 322.501 431.729C300.828 423.059 292.174 399.231 292.174 399.231C292.174 399.231 282.41 404.628 282.41 389.47C282.41 374.312 292.174 399.231 301.939 340.703C301.939 340.703 328.992 333.105 323.573 270.271H317.064L317.102 270.233Z" fill="black"/>
<path d="M528.282 335.671C528.282 335.671 542.38 277.418 528.282 257.668C514.184 237.952 508.578 224.808 477.58 215.398C446.582 205.988 457.876 207.863 435.337 208.826C412.78 209.788 394.005 221.986 394.005 228.575C394.005 228.575 379.908 229.505 374.302 235.147C368.663 240.79 359.275 267.078 359.275 273.65C359.275 280.223 363.969 324.435 368.663 333.812L363.073 335.704C358.363 390.189 381.815 396.778 381.815 396.778C390.274 447.529 398.732 425.921 398.732 439.065C398.732 452.209 390.274 447.529 390.274 447.529C390.274 447.529 382.777 468.191 364.002 475.709C345.227 483.211 241.003 523.606 232.528 532.07C224.036 540.534 204.5 555.5 204.5 555.5L452.966 528.5C452.966 528.5 515.179 488.481 506.688 480C498.229 471.536 536.74 464.501 517.966 457C499.191 449.482 506.688 447.529 506.688 447.529C506.688 447.529 498.229 452.209 498.229 439.065C498.229 425.921 506.688 447.529 515.146 396.778C515.146 396.778 538.582 390.189 533.888 335.704H528.249L528.282 335.671Z" fill="black"/>
</g>
<defs>
<clipPath id="clip0_13_1206">
<rect width="583" height="583" fill="white"/>
</clipPath>
</defs>
</svg>
