<svg width="158" height="130" viewBox="0 0 158 130" fill="none" xmlns="http://www.w3.org/2000/svg">
<path d="M55.7332 98.3539C61.1485 96.7353 66.1052 95.2696 71.4058 93.6892C73.0623 91.0127 72.7692 87.7117 72.629 84.449C72.629 84.1558 72.4889 83.748 72.2723 83.5951C68.8319 81.1225 69.3161 77.2862 68.8064 73.7941C68.781 73.5902 68.7427 73.3735 68.6663 72.9657C68.0674 72.4686 67.3411 71.8696 66.5002 71.1686C66.0924 67.6 63.7861 64.146 65.7356 60.2206C66.2453 59.1882 66.2198 57.7225 66.0032 56.5372C65.2132 52.3951 65.4935 48.3039 66.1434 44.2C66.3727 42.7853 66.7805 41.5872 68.0419 40.6951C69.5837 39.599 70.8961 38.1588 72.4761 37.1519C79.6244 32.5892 90.404 33.3156 97.0426 39.2549C99.3106 41.2813 100.903 43.3715 100.801 46.5578C100.7 49.5019 100.852 52.4588 100.776 55.4157C100.725 57.4039 100.878 59.3156 101.171 61.3039C101.617 64.3627 100.903 67.5872 100.7 70.5313C99.5527 71.5637 98.6863 72.3284 97.8708 73.0676C97.5905 74.9157 97.1955 76.6872 97.0808 78.4715C96.9661 80.2431 96.6348 81.7215 95.0676 82.8813C94.4177 83.3656 93.959 84.5 93.9208 85.3539C93.7679 88.2088 94.1247 91.0382 94.9784 93.6637C100.228 95.2058 105.274 96.6843 110.727 98.2774C113.798 96.3019 115.531 92.5039 118.207 89.6235H122.985C119.71 99.8068 102.993 115.904 79.6626 114.094C59.0589 112.488 40.8506 96.5568 38.2768 74.6225C35.4098 50.2666 50.1013 30.1039 72.4506 24.598C93.3474 19.4617 114.372 29.0206 123.979 48.8009C122.182 48.8902 120.577 48.9666 119.035 49.0431C107.236 31.9647 91.64 24.1519 71.3166 30.2186C56.2429 34.7176 46.8521 45.5637 43.6794 60.947C40.6595 75.6294 45.4377 88.1578 55.7842 98.3411L55.7332 98.3539Z" fill="black"/>
<rect x="109" y="69" width="32" height="5" fill="black"/>
</svg>
