<svg width="500" height="500" viewBox="0 0 500 500" fill="none" xmlns="http://www.w3.org/2000/svg">
<g clip-path="url(#clip0_1_846)">
<path d="M249.004 499.953C114.89 502.526 -4.45805 385.68 0.127975 241.535C4.0988 117.974 109.13 -4.35568 259.35 0.119132C384.739 3.86678 504.087 111.15 499.893 259.043C496.369 385.009 389.045 502.694 248.948 499.953H249.004ZM153.648 152.319C154.095 141.691 153.76 129.889 155.493 118.478C156.556 111.598 159.464 103.879 164.106 98.9005C205.325 54.488 266.9 47.1046 316.284 81.3369C328.252 89.6712 342.402 98.0615 344.527 115.457C348.833 151.032 342.737 186.831 348.778 222.741C351.35 238.179 350.847 260.329 331.049 271.796C329.147 272.915 329.483 277.781 328.644 280.857C323.834 298.924 329.315 320.795 309.013 333.213C307.28 334.275 306.441 338.359 306.664 340.876C308.007 355.195 309.181 369.626 311.922 383.666C312.593 387.134 318.521 390.77 322.771 392.112C345.254 399.216 368.352 404.474 390.331 412.752C399.28 416.109 403.866 414.766 409.514 408.949C473.215 343.505 492.398 248.247 457.276 162.778C421.762 76.4146 319.136 8.6772 213.434 28.7579C171.768 36.6448 135.024 52.7541 103.593 80.2741C45.7086 130.895 19.9262 195.724 26.2459 272.076C30.6642 325.326 54.0976 371.025 91.2892 409.34C94.5329 412.641 101.356 415.661 105.327 414.542C129.767 407.83 153.983 400.335 177.92 392.001C182.954 390.267 188.77 384.281 189.889 379.303C192.461 367.613 192.741 355.307 193.244 343.281C193.412 339.31 192.797 333.157 190.28 331.591C173.502 321.187 175.18 304.35 173.334 288.409C172.607 282.312 171.656 274.313 167.63 270.845C148.391 254.12 149.062 231.131 152.082 210.715C153.816 198.968 154.711 187.502 154.711 175.811C154.711 168.372 154.095 160.933 153.704 152.43L153.648 152.319Z" fill="black"/>
</g>
<defs>
<clipPath id="clip0_1_846">
<rect width="500" height="500" fill="white"/>
</clipPath>
</defs>
</svg>
