<?xml version="1.0" encoding="UTF-8"?>
<svg id="Layer_2" data-name="Layer 2" xmlns="http://www.w3.org/2000/svg" viewBox="0 0 124 102">
  <g id="Layer_1-2" data-name="Layer 1">
    <g id="evc0y0.tif">
      <g>
        <path d="m43.74,77.17c4.25-1.27,8.14-2.42,12.3-3.66,1.3-2.1,1.07-4.69.96-7.25,0-.23-.11-.55-.28-.67-2.7-1.94-2.32-4.95-2.72-7.69-.02-.16-.05-.33-.11-.65-.47-.39-1.04-.86-1.7-1.41-.32-2.8-2.13-5.51-.6-8.59.4-.81.38-1.96.21-2.89-.62-3.25-.4-6.46.11-9.68.18-1.11.5-2.05,1.49-2.75,1.21-.86,2.24-1.99,3.48-2.78,5.61-3.58,14.07-3.01,19.28,1.65,1.78,1.59,3.03,3.23,2.95,5.73-.08,2.31.04,4.63-.02,6.95-.04,1.56.08,3.06.31,4.62.35,2.4-.21,4.93-.37,7.24-.9.81-1.58,1.41-2.22,1.99-.22,1.45-.53,2.84-.62,4.24-.09,1.39-.35,2.55-1.58,3.46-.51.38-.87,1.27-.9,1.94-.12,2.24.16,4.46.83,6.52,4.12,1.21,8.08,2.37,12.36,3.62,2.41-1.55,3.77-4.53,5.87-6.79h3.75c-2.57,7.99-15.69,20.62-34,19.2-16.17-1.26-30.46-13.76-32.48-30.97-2.25-19.11,9.28-34.93,26.82-39.25,16.4-4.03,32.9,3.47,40.44,18.99-1.41.07-2.67.13-3.88.19-9.26-13.4-21.5-19.53-37.45-14.77-11.83,3.53-19.2,12.04-21.69,24.11-2.37,11.52,1.38,21.35,9.5,29.34Z"/>
        <path d="m105.57,41.95c1.12,1.2,1.97,2.11,2.92,3.13-5.12,5.12-9.93,10.12-15.03,14.92-2.43-2.54-4.64-4.85-7.05-7.36.94-1.02,1.94-2.11,3.02-3.29,1.66,1.56,2.97,2.78,4.43,4.16,3.87-3.82,7.63-7.53,11.71-11.56Z"/>
      </g>
    </g>
  </g>
</svg>