<?xml version="1.0" encoding="UTF-8"?>
<svg id="Layer_2" data-name="Layer 2" xmlns="http://www.w3.org/2000/svg" viewBox="0 0 153 161">
  <g id="Layer_1-2" data-name="Layer 1">
    <g id="WYpJAK.tif">
      <g>
        <path d="m87.26,123.7c-12.74,0-25.49,0-38.23,0-5.11,0-7.33-2.26-7.34-7.43,0-16.74,0-33.49,0-50.23,0-5.07,2.19-7.28,7.23-7.28,25.66,0,51.31.09,76.97-.08,4.65-.03,7.27,3.11,7.22,7.37-.22,16.82-.22,33.65,0,50.48.05,4.2-2.8,7.34-7.36,7.26-12.82-.23-25.65-.08-38.48-.08Zm.02-3.9c12.49,0,24.99.01,37.48,0,3.39,0,4.25-.9,4.25-4.26,0-15.99,0-31.99,0-47.98,0-4.34-.51-4.89-4.83-4.89-24.49-.01-48.98-.01-73.47,0-4.45,0-4.92.51-4.92,5.09,0,15.66,0,31.32,0,46.98,0,4.44.6,5.06,5,5.07,12.16,0,24.32,0,36.48,0Z"/>
        <path d="m41.2,52.99h92.51v3.5H41.2v-3.5Z"/>
        <path d="m72.32,91.69c0-3.24.05-6.49-.02-9.73-.05-2.46.3-4.74,2.71-5.96,2.41-1.22,4.83-.83,7.11.55,4.43,2.68,8.86,5.36,13.3,8.04,1.27.77,2.59,1.45,3.82,2.28,4.11,2.77,4.17,6.91.01,9.53-5,3.15-10.07,6.2-15.21,9.12-1.88,1.07-3.98,2.09-6.08,2.34-3.24.39-5.52-1.91-5.61-5.18-.1-3.66-.02-7.32-.02-10.98h0Zm26.06.3c-.56-.68-.71-1-.96-1.15-6.06-3.67-12.11-7.37-18.23-10.94-1.64-.96-2.57-.26-2.59,1.85-.05,6.58-.05,13.16,0,19.74.01,2.18.88,2.79,2.8,1.69,6.27-3.58,12.45-7.32,18.98-11.18Z"/>
      </g>
    </g>
  </g>
</svg>