<svg width="500" height="500" viewBox="0 0 500 500" fill="none" xmlns="http://www.w3.org/2000/svg">
<path d="M109.171 433.385V414.631C117.637 414.631 125.279 414.631 132.863 414.631C159.2 414.631 185.538 414.631 211.875 414.631C218.342 414.631 225.397 415.16 222.575 402.932C217.402 402.638 211.875 401.991 206.29 401.991C152.616 401.933 98.9418 401.991 45.3263 401.933C14.9912 401.933 0.293939 387.412 0.23515 357.488C0.117572 272.185 0.0587889 186.824 0 101.521C0 81.3565 11.6402 68.5993 31.746 66.6593C36.5667 66.189 41.505 66.3065 46.3845 66.3065C174.662 66.3065 302.998 66.8944 431.276 65.8362C460.494 65.6011 471.193 80.5335 469.606 104.284C468.665 118.746 469.43 133.326 469.43 148.905H449.5C449.5 138.382 449.794 128.329 449.441 118.217C449.089 108.635 447.972 99.1108 447.149 88.3524C437.86 87.5293 430.217 86.2948 422.575 86.236C299.647 86.1184 176.72 86.1772 53.7919 86.1772C51.8519 86.1772 49.9118 86.1772 47.913 86.1772C23.5156 87.1178 20.6937 90.0573 20.6937 114.984C20.6937 192.997 20.6937 271.01 20.6937 349.023C20.6937 375.36 26.9841 381.533 53.7919 381.533C176.72 381.533 299.647 381.533 422.575 381.533C444.915 381.533 448.736 377.829 449.441 355.195C449.794 344.555 449.441 333.914 449.441 322.274H468.548C468.548 340.439 469.9 357.958 468.195 375.125C466.49 392.115 453.38 401.756 435.45 401.815C378.366 401.933 321.282 401.815 264.198 401.933C258.083 401.933 251.969 402.873 245.503 403.402C244.444 414.631 251.029 414.513 257.378 414.513C285.185 414.513 312.992 414.513 340.8 414.513C346.561 414.513 352.381 414.513 359.553 414.513V433.267H109.23L109.171 433.385Z" fill="black"/>
<path d="M184.656 250.256V229.739H457.848C458.319 228.681 458.848 227.622 459.318 226.564C444.386 212.631 429.512 198.698 413.874 184.06C418.577 178.24 421.458 174.712 425.985 169.127C450.911 192.114 474.838 214.16 500 237.381C474.662 261.015 450.794 283.296 425.985 306.458C421.811 301.403 418.93 297.875 415.403 293.584C430.335 279.768 444.738 266.364 462.14 250.256H184.715H184.656Z" fill="black"/>
</svg>
