<?xml version="1.0" encoding="UTF-8"?>
<svg id="Layer_2" data-name="Layer 2" xmlns="http://www.w3.org/2000/svg" viewBox="0 0 120.99 90.99">
  <g id="Layer_1-2" data-name="Layer 1">
    <g id="jFAxH9.tif">
      <g>
        <path d="m34.71,90.99c-.26-1.56-.53-3.13-.87-5.13,1.7-.21,2.94-.49,4.18-.5,6.28-.05,12.56,0,18.84-.03,1.56,0,3.11-.16,4.69-.24-.13-2.74-1.77-2.26-2.94-2.27-7.6-.05-15.2-.03-22.8-.03-5.62,0-11.24.06-16.85-.02-6.9-.09-10.67-3.88-10.71-10.78-.04-5.6.06-11.2.13-16.8,0-.29.27-.57.57-1.17h4.66c0,3.09,0,6,0,8.92,0,3.13-.1,6.27.04,9.39.16,3.49,1.38,4.69,4.84,5.04.98.1,1.98.05,2.97.05,29.08,0,58.16,0,87.24,0,1.79,0,3.58-.15,5.87-.26.27-1.82.71-3.38.71-4.94.05-20.1.04-40.21,0-60.31,0-1.12-.28-2.24-.49-3.86-1.83-.15-3.58-.42-5.33-.42-29.58-.03-59.15-.02-88.73,0-2.27,0-4.66-.27-7.1,2v25.08c-1.15.28-1.77.54-2.38.55-.79.02-1.59-.17-2.67-.3-.13-1.4-.35-2.66-.36-3.93-.04-6.26.27-12.54-.1-18.78-.38-6.54,4.5-9.63,9.26-9.97,1.15-.08,2.31-.03,3.47-.03,29.74,0,59.48.1,89.23-.1,5.02-.04,8.52,1.46,10.9,5.75v68.24c-2.32,5.4-6.37,7.11-12.19,6.75-7.72-.47-15.49-.12-23.24-.12-5.27,0-10.55-.04-15.82.07-.86.02-1.71.68-2.56,1.04.08.42.16.85.23,1.27,8.94.48,17.93-.11,27.52.35-.27,2.11-.49,3.79-.71,5.47h-59.5Z"/>
        <path d="m57.03,57.01c3.85-3.55,7.22-6.65,11.34-10.45H2.35v-4.94c21.71-.16,43.45.02,66.21-.1-4.17-4.02-7.72-7.46-11.87-11.47,1.26-1.13,2.18-1.96,3.31-2.98,6.06,5.57,11.74,10.78,17.79,16.33-6.04,5.63-11.79,10.98-17.66,16.45-1.06-.98-1.87-1.73-3.08-2.85Z"/>
      </g>
    </g>
  </g>
</svg>