<?xml version="1.0" encoding="UTF-8"?>
<svg id="Layer_2" data-name="Layer 2" xmlns="http://www.w3.org/2000/svg" viewBox="0 0 129 116">
  <g id="Layer_1-2" data-name="Layer 1">
    <g id="Drqmzk.tif">
      <g>
        <path d="m50,98.58v-3.19c1.44,0,2.74,0,4.03,0,4.48,0,8.96,0,13.44,0,1.1,0,2.3.09,1.82-1.99-.88-.05-1.82-.16-2.77-.16-9.13-.01-18.26,0-27.38-.01-5.16,0-7.66-2.47-7.67-7.56-.02-14.51-.03-29.03-.04-43.54,0-3.43,1.98-5.6,5.4-5.93.82-.08,1.66-.06,2.49-.06,21.82,0,43.65.1,65.47-.08,4.97-.04,6.79,2.5,6.52,6.54-.16,2.46-.03,4.94-.03,7.59h-3.39c0-1.79.05-3.5-.01-5.22-.06-1.63-.25-3.25-.39-5.08-1.58-.14-2.88-.35-4.18-.36-20.91-.02-41.82-.01-62.73-.01-.33,0-.66,0-1,0-4.15.16-4.63.66-4.63,4.9,0,13.27,0,26.54,0,39.81,0,4.48,1.07,5.53,5.63,5.53,20.91,0,41.82,0,62.73,0,3.8,0,4.45-.63,4.57-4.48.06-1.81,0-3.62,0-5.6h3.25c0,3.09.23,6.07-.06,8.99-.29,2.89-2.52,4.53-5.57,4.54-9.71.02-19.42,0-29.13.02-1.04,0-2.08.16-3.18.25-.18,1.91.94,1.89,2.02,1.89,4.73,0,9.46,0,14.19,0,.98,0,1.97,0,3.19,0v3.19h-42.58Z"/>
        <path d="m62.84,67.43v-3.49h46.47c.08-.18.17-.36.25-.54-2.54-2.37-5.07-4.74-7.73-7.23.8-.99,1.29-1.59,2.06-2.54,4.24,3.91,8.31,7.66,12.59,11.61-4.31,4.02-8.37,7.81-12.59,11.75-.71-.86-1.2-1.46-1.8-2.19,2.54-2.35,4.99-4.63,7.95-7.37h-47.19Z"/>
      </g>
    </g>
  </g>
</svg>