<svg width="500" height="500" viewBox="0 0 500 500" fill="none" xmlns="http://www.w3.org/2000/svg">
<path d="M136.39 437.445C135.294 430.87 134.156 424.253 132.723 415.823C139.888 414.938 145.115 413.758 150.341 413.716C176.81 413.505 203.279 413.716 229.748 413.59C236.323 413.59 242.856 412.915 249.515 412.578C248.967 401.029 242.055 403.053 237.124 403.01C205.091 402.8 173.059 402.884 141.026 402.884C117.339 402.884 93.6521 403.137 70.0072 402.8C40.9251 402.42 25.0354 386.446 24.8668 357.364C24.6982 333.761 25.1196 310.159 25.4147 286.556C25.4147 285.333 26.5527 284.153 27.8171 281.624H47.458C47.458 294.648 47.458 306.913 47.458 319.22C47.458 332.413 47.0366 345.647 47.6266 358.797C48.301 373.507 53.443 378.565 68.0262 380.04C72.1567 380.461 76.3715 380.25 80.5441 380.25C203.11 380.25 325.676 380.25 448.242 380.25C455.787 380.25 463.331 379.618 472.983 379.155C474.121 371.484 475.976 364.909 475.976 358.334C476.186 273.616 476.144 188.857 475.976 104.14C475.976 99.4191 474.796 94.6985 473.91 87.8705C466.197 87.2383 458.822 86.1003 451.446 86.1003C326.772 85.9739 202.141 86.016 77.4673 86.1003C67.8998 86.1003 57.8264 84.9623 47.5423 94.5299V200.237C42.6953 201.417 40.0822 202.513 37.5111 202.555C34.1814 202.639 30.8096 201.838 26.2576 201.291C25.7097 195.39 24.7825 190.079 24.7403 184.726C24.5717 158.342 25.8783 131.873 24.3188 105.573C22.7172 78.0079 43.2854 64.9842 63.3478 63.5512C68.1948 63.214 73.084 63.4248 77.9731 63.4248C203.321 63.4248 328.669 63.8462 454.059 63.0033C475.217 62.8347 489.969 69.1569 500 87.2383V374.856C490.222 397.615 473.152 404.823 448.622 403.305C416.084 401.324 383.335 402.8 350.67 402.8C328.458 402.8 306.204 402.631 283.992 403.095C280.367 403.179 276.785 405.961 273.202 407.478C273.539 409.248 273.877 411.061 274.172 412.831C311.852 414.854 349.743 412.367 390.163 414.306C389.025 423.199 388.097 430.28 387.17 437.361H136.39V437.445Z" fill="black"/>
<path d="M230.465 294.227C246.692 279.264 260.896 266.199 278.26 250.182H0V229.361C91.5031 228.687 183.133 229.446 279.061 228.94C261.486 211.996 246.523 197.498 229.032 180.596C234.342 175.833 238.22 172.335 242.983 168.036C268.524 191.513 292.464 213.472 317.964 236.864C292.506 260.593 268.271 283.142 243.531 306.197C239.063 302.066 235.649 298.905 230.549 294.185L230.465 294.227Z" fill="black"/>
</svg>
