<svg width="500" height="500" viewBox="0 0 500 500" fill="none" xmlns="http://www.w3.org/2000/svg">
<path d="M429.536 138.9H403.871C366.163 82.5064 313.033 50.0321 245.946 44.2914C183.698 39.0009 128.712 60.1064 84.7558 104.569C-1.18592 191.524 4.61107 325.98 94.605 404.943C186.625 485.65 326.71 472.593 403.984 361.775H429.93C418.054 389.69 397.905 410.008 376.068 428.074C327.835 467.978 271.329 484.975 209.25 479.347C102.935 469.666 13.1658 389.071 1.29046 274.088C-11.4854 150.832 71.8674 41.9838 195.18 22.7919C296.543 6.97679 390.927 60.0502 429.479 139.013L429.536 138.9Z" fill="black"/>
<path d="M148.58 295.982V204.637H226.079C243.695 185.839 262.887 165.296 283.993 142.671V356.315C264.069 334.647 245.046 313.992 228.555 296.038H148.58V295.982ZM235.478 227.543H171.599V273.469C189.215 273.469 205.93 272.794 222.59 273.807C228.724 274.201 235.197 277.859 240.431 281.574C247.522 286.639 253.544 293.111 260.861 299.753V198.84C251.012 210.04 243.414 218.651 235.478 227.6V227.543Z" fill="black"/>
<path d="M415.127 177.284H439.215V238.8H499.999V260.862H439.666V322.378H416.14V261.143H355.469V240.038H415.127V177.284Z" fill="black"/>
</svg>
