<svg width="500" height="500" viewBox="0 0 500 500" fill="none" xmlns="http://www.w3.org/2000/svg">
<g clip-path="url(#clip0_9_112)">
<path d="M428.959 138.924H404.224C327.988 26.9411 187.035 16.3244 97.641 92.1091C8.75495 167.498 -2.0311 295.632 74.4312 384.462C119.1 436.359 177.83 460.303 246.048 455.051C314.209 449.799 366.953 415.578 404.281 360.405H428.564C400.78 426.646 310.821 490.007 206.574 478.713C87.9279 465.837 7.62553 372.772 0.566601 266.719C-8.41236 131.131 90.9209 41.3977 185.285 24.1175C310.482 1.19007 403.829 78.7818 428.902 138.924H428.959Z" fill="black"/>
<path d="M283.375 356.734C264.796 338.324 248.25 320.988 230.518 304.95C224.927 299.924 216.343 296.14 208.889 295.688C188.955 294.446 168.907 295.237 148.126 295.237V204.6H223.741C242.659 185.117 262.255 165.013 283.375 143.272V356.678V356.734ZM257.229 300.827C258.358 299.811 259.431 298.851 260.56 297.834V201.155C259.431 200.478 258.302 199.856 257.172 199.179C249.153 208.779 241.134 218.379 233.567 227.471H171.336V271.97H234.697C241.36 280.498 249.266 290.662 257.229 300.884V300.827Z" fill="black"/>
<path d="M500 240.234V260.168H355.208V240.234H500Z" fill="black"/>
</g>
<defs>
<clipPath id="clip0_9_112">
<rect width="500" height="500" fill="white"/>
</clipPath>
</defs>
</svg>
