<svg width="500" height="318" viewBox="0 0 500 318" fill="none" xmlns="http://www.w3.org/2000/svg">
<path d="M0 92.0856H105.691C135.971 62.3029 166.335 32.5203 199.436 0V317.322C166.667 284.968 136.967 255.517 106.355 225.319H0V92.0856ZM127.261 126.265H33.6818V192.218H130.164C139.705 203.335 151.568 217.189 165.339 233.283V86.8591C164.012 86.0295 162.768 85.1169 161.44 84.2873C149.494 99.0542 137.465 113.738 127.344 126.265H127.261Z" fill="black"/>
<path d="M323.212 221.007C342.957 200.765 362.784 180.523 384.188 158.538C362.618 136.388 342.708 115.98 320.641 93.249C329.103 84.953 336.652 77.4865 345.695 68.6098C367.679 90.1794 388.004 110.007 410.403 131.991C432.139 111.002 452.962 90.8431 476.937 67.6973C484.818 76.6569 491.787 84.7041 500 94.0785C478.928 115.648 459.101 136.056 437.199 158.456C458.105 179.942 477.933 200.184 499.419 222.252C491.455 230.88 483.906 239.01 475.444 248.135C453.542 226.732 433.134 206.738 410.818 184.92C388.834 206.406 368.426 226.234 345.446 248.633C338.228 239.673 331.508 231.294 323.129 220.924L323.212 221.007Z" fill="#FD4339"/>
</svg>
