<svg width="90" height="82" viewBox="0 0 90 82" fill="none" xmlns="http://www.w3.org/2000/svg">
<path d="M77.3164 21.177H72.6968C65.9093 11.1329 56.346 5.34894 44.2702 4.32647C33.0657 3.3842 23.1681 7.14326 15.256 15.0623C-0.213465 30.5496 0.829992 54.4973 17.0289 68.5612C33.5925 82.9358 58.8077 80.6102 72.7171 60.8727H77.3873C75.2498 65.8446 71.623 69.4633 67.6923 72.6811C59.0103 79.7882 48.8392 82.8155 37.665 81.8131C18.5282 80.0889 2.36985 65.7344 0.232282 45.255C-2.06738 23.3022 12.9361 3.91548 35.1324 0.497252C53.3777 -2.31953 70.3668 7.13323 77.3063 21.1971L77.3164 21.177Z" fill="black"/>
<path d="M26.7442 49.1544V32.8853H40.6941C43.865 29.5372 47.3196 25.8784 51.1186 21.8487V59.9003C47.5323 56.041 44.1081 52.3622 41.1399 49.1645H26.7442V49.1544ZM42.3859 36.9651H30.8876V45.1448C34.0585 45.1448 37.0673 45.0245 40.066 45.2049C41.1702 45.2751 42.3353 45.9267 43.2774 46.5883C44.5539 47.4904 45.6379 48.6432 46.9549 49.826V31.8528C45.182 33.8476 43.8143 35.3813 42.3859 36.9751V36.9651Z" fill="black"/>
<path d="M74.723 28.0135H79.0589V38.9699H90V42.8994H79.1399V53.8557H74.9053V42.9495H63.9845V39.1904H74.723V28.0135Z" fill="black"/>
</svg>
