<svg width="129" height="130" viewBox="0 0 129 130" fill="none" xmlns="http://www.w3.org/2000/svg">
<path d="M70.03 99.9899C63.15 99.9899 56.27 99.9899 49.38 99.9899C41.05 99.9899 34.15 92.8399 34.43 84.5099C34.63 78.3599 38.77 72.8699 44.62 70.5999C45.49 70.2699 46.54 68.8599 46.51 67.9899C46.07 55.1099 58.51 44.5799 70.93 45.9199C78.67 46.7499 84.72 50.4999 88.66 57.2999C89.44 58.6499 90.24 59.2399 91.88 59.3899C105.31 60.6399 113.63 74.6399 108.86 87.1699C106.22 94.0999 98.57 100.19 89.93 100.01C83.3 99.8699 76.66 99.9799 70.03 99.9799V99.9899ZM50.79 73.9499C49.29 74.1699 48.03 74.1899 46.87 74.5499C41.66 76.1599 38.32 81.1099 38.92 85.9499C39.59 91.3799 43.97 95.6299 50.09 95.5299C63.35 95.3299 76.63 95.1799 89.89 95.5599C100.84 95.8699 108.62 84.1199 105.2 75.0799C102.93 69.0599 96.84 62.6299 88.92 64.0499C87.39 64.3199 86.73 63.4499 86.17 62.1699C82.36 53.3599 75.16 49.4099 65.69 50.6899C57.81 51.7499 50.79 59.5499 50.79 67.5699C50.79 69.6299 50.79 71.6899 50.79 73.9699V73.9499Z" fill="black"/>
<path d="M37.65 71.8303C34.81 76.0803 34.57 76.1203 30.97 72.9803C23.82 66.7403 21.35 58.7603 23.63 49.7903C25.77 41.3603 31.51 35.5003 40.09 33.7103C49.19 31.8103 57.21 33.6603 63.77 42.2903C64.18 42.8303 64.35 43.5503 64.7 44.3303C62.2 45.0803 60.42 45.3803 58.53 43.1903C53.07 36.8703 44.03 35.5803 36.72 39.7203C29.15 44.0003 25.82 52.1403 28.16 60.3303C29.47 64.9203 32.12 68.3603 36.21 70.7503C36.69 71.0303 37.1 71.4103 37.64 71.8203L37.65 71.8303Z" fill="black"/>
<path d="M23.93 80.9103C21.5633 79.1036 21.1067 77.4736 22.56 76.0203C23.49 75.0903 24.47 74.2203 25.35 73.2503C26.22 72.3003 27.16 72.2703 27.76 73.2803C28.14 73.9203 28.32 75.1403 27.96 75.6903C26.76 77.5403 25.28 79.2003 23.92 80.9103H23.93Z" fill="black"/>
<path d="M23.42 30.7002C24.9 32.3302 26.54 33.9302 27.9 35.7402C28.28 36.2502 28.12 37.5302 27.72 38.1302C27.49 38.4802 26.07 38.4802 25.56 38.1202C24.44 37.3302 23.66 36.0902 22.57 35.2502C20.52 33.6702 20.65 32.3502 23.42 30.7202V30.7002Z" fill="black"/>
<path d="M67.27 30.3604C69.47 32.2204 69.8133 33.9137 68.3 35.4403C67.49 36.2503 66.61 37.0004 65.88 37.8804C65.02 38.9104 64.21 39.0804 63.21 38.1304C62.25 37.2304 62.25 36.4204 63.14 35.4104C64.6 33.7604 65.93 32.0004 67.26 30.3604H67.27Z" fill="black"/>
<path d="M46.67 29.7999H43.63V21.6699H46.67V29.7999Z" fill="black"/>
<path d="M12 53.4297H19.87V56.5297H12V53.4297Z" fill="black"/>
</svg>
