<?xml version="1.0" encoding="UTF-8"?>
<svg id="Layer_2" data-name="Layer 2" xmlns="http://www.w3.org/2000/svg" viewBox="0 0 126 112">
  <g id="Layer_1-2" data-name="Layer 1">
    <g id="izXSNe.tif">
      <g>
        <path d="m32.59,33.53c17.68-15.54,50.5-18.19,72.67-.16-1.11,1.18-2.21,2.33-3.42,3.6-9.84-7.27-20.74-11.09-32.87-11.11-12.14-.03-23.05,3.76-33,11.08-1.14-1.15-2.26-2.28-3.38-3.41Z"/>
        <path d="m48.78,49.83c8.58-8.2,32.61-8.13,39.92-.13-.09.2-.13.48-.29.64-.92.94-1.88,1.86-2.91,2.87-10.94-6.23-21.95-6.36-33.28.06-1.04-1.04-2.17-2.17-3.44-3.44Z"/>
        <path d="m68.84,78.13c-4.31,0-7.23-3.02-7.3-7.35-.07-4.35,3.4-7.48,7.34-7.4,4.34.09,7.29,3.06,7.37,7.46.08,4.51-3.85,7.6-7.41,7.29Z"/>
      </g>
    </g>
  </g>
</svg>