<svg width="89" height="90" viewBox="0 0 89 90" fill="none" xmlns="http://www.w3.org/2000/svg">
<path d="M27.03 47.2197V50.6097C25.32 50.6097 23.77 50.6197 22.22 50.6097C20.61 50.5997 19.77 51.2797 19.8 52.9897C19.85 55.7997 19.82 58.6197 19.81 61.4297C19.81 63.2397 20.57 64.1997 22.48 64.1997C35.47 64.1797 48.47 64.1797 61.46 64.1997C63.17 64.1997 64.14 63.4797 64.16 61.7197C64.18 58.7397 64.16 55.7597 64.18 52.7797C64.19 51.3297 63.47 50.6397 62.07 50.6197C60.43 50.5997 58.79 50.6197 56.96 50.6197V47.2597C59.19 47.2597 61.49 47.0997 63.76 47.3097C66.04 47.5197 67.57 49.4197 67.6 51.7597C67.65 55.3197 67.66 58.8797 67.6 62.4397C67.55 65.4497 65.42 67.5997 62.43 67.6097C48.77 67.6397 35.12 67.6397 21.46 67.6097C18.57 67.6097 16.49 65.5197 16.43 62.5897C16.35 58.9497 16.35 55.3097 16.43 51.6597C16.48 49.0997 18.23 47.3697 20.84 47.2397C22.82 47.1397 24.8 47.2197 27.04 47.2197H27.03Z" fill="black"/>
<path d="M67.62 22.25C66.74 22.87 65.88 23.47 64.88 24.17C49.78 14.13 34.35 14.05 18.5 24.57C17.87 23.86 17.18 23.09 16.48 22.31C28.81 11 52.62 9.50001 67.62 22.25Z" fill="black"/>
<path d="M56.25 33.6902C55.38 34.5802 54.66 35.3202 53.91 36.0902C45.91 31.6202 38.19 31.5502 30.12 36.0902C29.34 35.3602 28.55 34.6102 27.73 33.8402C34.67 27.8402 48.37 27.7902 56.25 33.7002V33.6902Z" fill="black"/>
<path d="M41.92 52.8504C39.3 52.8204 37.37 50.9104 37.38 48.3504C37.39 45.7204 39.51 43.6804 42.15 43.7704C44.68 43.8604 46.61 45.9104 46.56 48.4604C46.52 51.0204 44.55 52.8804 41.91 52.8504H41.92Z" fill="black"/>
</svg>
