<svg width="83" height="82" viewBox="0 0 83 82" fill="none" xmlns="http://www.w3.org/2000/svg">
<path d="M54.32 7.00025C54.49 7.00025 54.65 7.00025 54.82 7.00025C55.97 7.00025 57.23 6.77025 57.82 8.18025C58.39 9.53025 57.55 10.3602 56.69 11.2002C55.32 12.5402 53.97 13.9002 52.63 15.2702C50.73 17.2002 50.53 17.9902 51.93 20.3102C52.68 21.5502 53.7 22.7502 54.87 23.6102C57.65 25.6702 58.64 25.5002 61.08 23.1002C62.44 21.7502 63.71 20.2902 65.19 19.0902C65.86 18.5402 67.11 18.0702 67.79 18.3402C68.42 18.5902 68.98 19.8702 68.98 20.7002C68.97 25.0202 68.13 29.1302 65.33 32.6202C63.16 35.3202 60.38 36.8702 56.9 36.7102C51.72 36.4702 47.63 38.3202 44.03 42.0902C37.71 48.7202 31.14 55.1102 24.64 61.5502C22.7 63.4702 20.85 65.5702 17.7 65.4802C14.6 65.4002 12.45 63.9102 11.22 61.2002C10.02 58.5302 10.38 55.9202 12.46 53.8002C17.41 48.7402 22.43 43.7602 27.43 38.7402C30.13 36.0202 32.89 33.3602 35.51 30.5702C37.74 28.1902 38.84 25.2302 39.21 22.0102C39.24 21.7602 39.23 21.5102 39.23 21.2602C39.01 10.9802 47.21 7.00025 54.35 7.03025L54.32 7.00025ZM40.96 27.6902C40.34 28.6002 39.4 30.3602 38.11 31.8102C35.96 34.2302 33.6 36.4602 31.31 38.7502C25.79 44.2702 20.23 49.7602 14.74 55.3102C12.96 57.1102 13 59.7002 14.64 61.3502C16.34 63.0502 19.07 63.0302 20.89 61.2102C26.47 55.6302 31.95 49.9402 37.62 44.4502C41.27 40.9202 44.3 36.6002 48.09 35.2402C45.83 32.8502 43.29 30.1602 40.98 27.7002L40.96 27.6902ZM66.21 22.7702C66.06 22.6602 65.91 22.5502 65.75 22.4302C64.59 23.5702 63.37 24.6502 62.3 25.8602C60.51 27.8802 58.3 28.1602 55.94 27.3702C52.7 26.2802 50.41 24.0302 49 20.9602C47.67 18.0502 48.19 15.8002 50.44 13.5302C51.49 12.4702 52.52 11.3902 53.56 10.3202C53.4 10.0802 53.24 9.83025 53.09 9.59025C51.08 10.2702 48.96 10.7202 47.09 11.6702C42.27 14.1102 40.83 18.8502 43.25 23.7002C45.16 27.5302 48.04 30.4502 51.77 32.5402C54.79 34.2302 57.87 34.8202 60.94 32.7602C64.52 30.3602 65.84 26.7802 66.22 22.7602L66.21 22.7702Z" fill="black"/>
</svg>
